# Blender 4.5.2 LTS
# www.blender.org
mtllib sponza_WindowsDoors.mtl
o WindowsDoors
v -1.333799 2.212292 -2.930947
v -1.479146 2.303389 -2.930947
v -1.351148 2.316330 -2.930947
v -1.294157 2.316330 -2.930947
v -1.186806 2.303337 -2.930947
v -1.227268 2.205723 -2.930947
v -1.406473 2.207161 -2.930947
v -1.572466 2.281517 -2.930947
v -1.512183 2.189978 -2.930947
v -1.636052 2.258222 -2.930947
v -1.608800 2.162545 -2.930947
v -1.731979 2.260092 -2.930947
v -1.048064 2.159148 -2.930947
v -1.714630 2.143129 -2.930947
v -1.715362 1.453014 -2.930947
v -1.731979 1.436085 -2.930947
v -1.714630 1.453756 -2.930947
v -1.691221 2.119569 -2.930947
v -1.692451 1.476350 -2.930947
v -0.947952 2.143129 -2.930947
v -1.115784 2.184926 -2.930947
v -0.939784 2.253949 -2.930947
v -1.088532 2.280094 -2.930947
v -1.008422 2.253590 -2.930947
v -0.939784 1.436085 -2.930947
v -0.947952 1.453014 -2.930947
v -1.714630 1.453014 -2.930947
v -0.971803 1.474668 -2.930947
v -0.972789 2.119849 -2.930947
v -1.608800 2.162545 -3.017402
v -1.227268 2.205723 -3.017402
v -1.115784 2.184926 -3.017402
v -1.048064 2.159148 -3.017402
v -1.406473 2.207161 -3.017402
v -1.333799 2.212292 -3.017402
v -1.512183 2.189978 -3.017402
v -1.043349 1.539630 -2.977859
v -0.997621 2.096570 -2.953557
v -0.995653 1.496322 -2.953557
v -0.972789 2.119849 -2.930947
v -0.971803 1.474668 -2.930947
v -1.047296 2.050016 -2.977859
v -1.620983 2.048900 -3.017402
v -1.047296 2.050016 -3.017402
v -1.043349 1.539630 -3.017402
v -1.625911 1.544137 -3.017402
v -1.512183 2.189978 -2.930947
v -1.608800 2.162545 -3.017402
v -1.608800 2.162545 -2.930947
v -1.406473 2.207161 -3.017402
v -1.512183 2.189978 -3.017402
v -1.406473 2.207161 -2.930947
v -1.333799 2.212292 -2.930947
v -1.333799 2.212292 -3.017402
v -1.227268 2.205723 -2.930947
v -1.227268 2.205723 -3.017402
v -1.115784 2.184926 -2.930947
v -1.115784 2.184926 -3.017402
v -1.048064 2.159148 -2.930947
v -1.048064 2.159148 -3.017402
v -1.608800 2.162545 -3.017402
v -1.048064 2.159148 -3.017402
v -1.048064 2.159148 -2.930947
v -1.608800 2.162545 -2.930947
v -1.047296 2.050016 -2.977859
v -1.620983 2.048900 -3.017402
v -1.620983 2.048900 -2.977859
v -1.047296 2.050016 -3.017402
v -1.620983 2.048900 -2.977859
v -1.625911 1.544137 -3.017402
v -1.625911 1.544137 -2.977859
v -1.620983 2.048900 -3.017402
v -1.625911 1.544137 -2.977859
v -1.043349 1.539630 -3.017402
v -1.043349 1.539630 -2.977859
v -1.625911 1.544137 -3.017402
v -1.043349 1.539630 -2.977859
v -1.047296 2.050016 -3.017402
v -1.047296 2.050016 -2.977859
v -1.043349 1.539630 -3.017402
v -0.939784 1.436085 -2.930947
v -1.715362 1.453014 -2.930947
v -1.714630 1.453014 -2.930947
v -0.995653 1.496322 -2.953557
v -1.625911 1.544137 -2.977859
v -1.043349 1.539630 -2.977859
v -1.670273 1.498950 -2.953557
v -0.971803 1.474668 -2.930947
v -1.692451 1.476350 -2.930947
v -1.667806 2.096014 -2.953557
v -1.620983 2.048900 -2.977859
v -1.625911 1.544137 -2.977859
v -1.670273 1.498950 -2.953557
v -1.691221 2.119569 -2.930947
v -1.692451 1.476350 -2.930947
v -0.997621 2.096570 -2.953557
v -1.047296 2.050016 -2.977859
v -1.620983 2.048900 -2.977859
v -1.667806 2.096014 -2.953557
v -0.972789 2.119849 -2.930947
v -1.691221 2.119569 -2.930947
v 2.515366 2.212292 -2.930947
v 2.370024 2.303389 -2.930947
v 2.498022 2.316330 -2.930947
v 2.555013 2.316330 -2.930947
v 2.662364 2.303337 -2.930947
v 2.621902 2.205723 -2.930947
v 2.442697 2.207161 -2.930947
v 2.276704 2.281517 -2.930947
v 2.336987 2.189978 -2.930947
v 2.213118 2.258222 -2.930947
v 2.240370 2.162545 -2.930947
v 2.117191 2.260092 -2.930947
v 2.801105 2.159148 -2.930947
v 2.134535 2.143129 -2.930947
v 2.133808 1.453014 -2.930947
v 2.117191 1.436085 -2.930947
v 2.134535 1.453756 -2.930947
v 2.157949 2.119569 -2.930947
v 2.156719 1.476350 -2.930947
v 2.901218 2.143129 -2.930947
v 2.733386 2.184926 -2.930947
v 2.909381 2.253949 -2.930947
v 2.877367 1.474668 -2.930947
v 2.901218 1.453014 -2.930947
v 2.876381 2.119849 -2.930947
v 2.909381 1.436085 -2.930947
v 2.840743 2.253590 -2.930947
v 2.134535 1.453014 -2.930947
v 2.760638 2.280094 -2.930947
v 2.240370 2.162545 -3.017402
v 2.621902 2.205723 -3.017402
v 2.733386 2.184926 -3.017402
v 2.801105 2.159148 -3.017402
v 2.442697 2.207161 -3.017402
v 2.515366 2.212292 -3.017402
v 2.336987 2.189978 -3.017402
v 2.805821 1.539625 -2.977859
v 2.851549 2.096570 -2.953557
v 2.853517 1.496322 -2.953557
v 2.876381 2.119849 -2.930947
v 2.877367 1.474668 -2.930947
v 2.801874 2.050016 -2.977859
v 2.228187 2.048900 -3.017402
v 2.801874 2.050016 -3.017402
v 2.805821 1.539625 -3.017402
v 2.223259 1.544137 -3.017402
v 2.336987 2.189978 -2.930947
v 2.240370 2.162545 -3.017402
v 2.240370 2.162545 -2.930947
v 2.442697 2.207161 -2.930947
v 2.336987 2.189978 -3.017402
v 2.515366 2.212292 -2.930947
v 2.442697 2.207161 -3.017402
v 2.621902 2.205723 -2.930947
v 2.515366 2.212292 -3.017402
v 2.733386 2.184926 -2.930947
v 2.621902 2.205723 -3.017402
v 2.801105 2.159148 -2.930947
v 2.733386 2.184926 -3.017402
v 2.801105 2.159148 -3.017402
v 2.240370 2.162545 -2.930947
v 2.801105 2.159148 -3.017402
v 2.801105 2.159148 -2.930947
v 2.240370 2.162545 -3.017402
v 2.801874 2.050016 -2.977859
v 2.228187 2.048900 -3.017402
v 2.228187 2.048900 -2.977859
v 2.801874 2.050016 -3.017402
v 2.228187 2.048900 -2.977859
v 2.223259 1.544137 -3.017402
v 2.223259 1.544137 -2.977859
v 2.228187 2.048900 -3.017402
v 2.223259 1.544137 -2.977859
v 2.805821 1.539625 -3.017402
v 2.805821 1.539625 -2.977859
v 2.223259 1.544137 -3.017402
v 2.805821 1.539625 -3.017402
v 2.801874 2.050016 -3.017402
v 2.801874 2.050016 -2.977859
v 2.805821 1.539625 -2.977859
v 2.909381 1.436085 -2.930947
v 2.133808 1.453014 -2.930947
v 2.134535 1.453014 -2.930947
v 2.853517 1.496322 -2.953557
v 2.223259 1.544137 -2.977859
v 2.805821 1.539625 -2.977859
v 2.178897 1.498944 -2.953557
v 2.877367 1.474668 -2.930947
v 2.156719 1.476350 -2.930947
v 2.181364 2.096014 -2.953557
v 2.228187 2.048900 -2.977859
v 2.223259 1.544137 -2.977859
v 2.178897 1.498944 -2.953557
v 2.157949 2.119569 -2.930947
v 2.157949 2.119569 -2.930947
v 2.156719 1.476350 -2.930947
v 2.851549 2.096570 -2.953557
v 2.801874 2.050016 -2.977859
v 2.228187 2.048900 -2.977859
v 2.181364 2.096014 -2.953557
v 2.876381 2.119849 -2.930947
v 2.157949 2.119569 -2.930947
v 0.195062 0.802455 3.330234
v 0.223442 1.364870 3.360290
v 0.195062 1.364870 3.330234
v 0.224636 1.758044 3.360291
v 0.195062 1.758044 3.330234
v 0.223187 0.802455 3.360290
v 0.225150 1.927283 3.360291
v 0.195062 1.927283 3.330234
v 0.237111 1.976838 3.360291
v 0.205941 1.987863 3.330234
v 0.245520 2.104992 3.330234
v 0.264417 2.089953 3.360291
v 0.324677 2.223082 3.330234
v 0.348305 2.200612 3.360291
v 0.425055 2.272008 3.360291
v 0.403834 2.297001 3.330234
v 0.509378 2.349807 3.330234
v 0.514297 2.321984 3.360291
v 0.598434 2.373808 3.330234
v 0.598434 2.339832 3.360291
v 0.672969 2.353644 3.330234
v 0.752127 2.319086 3.330234
v 0.726695 2.295210 3.360291
v 0.838320 2.255723 3.330234
v 0.808798 2.234526 3.360291
v 0.915719 2.160674 3.330234
v 0.881981 2.139929 3.360291
v 0.968493 2.051230 3.330234
v 0.931957 2.043545 3.360291
v 0.992006 1.927283 3.330234
v 0.958731 1.927283 3.360291
v 0.958461 1.758044 3.360291
v 0.992006 1.758044 3.330234
v 0.957837 1.364870 3.360290
v 0.992006 1.364870 3.330234
v 0.956944 0.802455 3.360290
v 0.992006 0.802455 3.330234
v 0.334655 1.927283 3.425221
v 0.598434 1.927283 3.425221
v 0.598434 2.239018 3.425221
v 0.436960 2.144042 3.425221
v 0.510616 2.200249 3.425221
v 0.850788 1.985100 3.425221
v 0.819776 2.061663 3.425221
v 0.858302 1.927283 3.425221
v 0.666648 2.208973 3.425221
v 0.342952 1.979284 3.425221
v 0.375903 2.060692 3.425221
v 0.328415 1.888186 3.425221
v 0.598434 1.888186 3.425221
v 0.863385 1.888186 3.425221
v 0.756780 2.145008 3.425221
v 0.598434 0.837465 3.419483
v 0.324540 1.364870 3.419483
v 0.326882 0.837465 3.419483
v 0.866807 1.364870 3.419483
v 0.862123 0.837465 3.419483
v 0.598434 1.364870 3.419483
v 0.598434 1.758044 3.419483
v 0.330218 1.647556 3.419483
v 0.323290 1.646663 3.419483
v 0.869316 1.647572 3.419483
v 0.854090 1.653975 3.419483
v 0.817683 1.691841 3.419483
v 0.841856 1.673489 3.419483
v 0.809525 1.700866 3.419483
v 0.833407 1.692132 3.419483
v 0.816224 1.713973 3.419483
v 0.808944 1.723294 3.419483
v 0.812729 1.732615 3.419483
v 0.808944 1.737273 3.419483
v 0.808362 1.758044 3.419483
v 0.383501 1.758044 3.419483
v 0.382905 1.740134 3.419483
v 0.343613 1.659765 3.419483
v 0.379333 1.705602 3.419483
v 0.374570 1.699350 3.419483
v 0.382309 1.723465 3.419483
v 0.378737 1.735668 3.419483
v 0.374868 1.718402 3.419483
v 0.351055 1.682681 3.419483
v 0.362961 1.699947 3.419483
v 0.812729 1.732615 3.385548
v 0.808944 1.723294 3.385548
v 0.816224 1.713973 3.385548
v 0.833407 1.692132 3.385548
v 0.809525 1.700866 3.385548
v 0.808362 1.758044 3.385548
v 0.808944 1.737273 3.385548
v 0.841856 1.673489 3.385548
v 0.870297 1.758044 3.385548
v 0.817683 1.691841 3.385548
v 0.854090 1.653975 3.385548
v 0.869316 1.647572 3.385548
v 0.322796 1.758044 3.385548
v 0.323290 1.646663 3.385548
v 0.330218 1.647556 3.385548
v 0.343613 1.659765 3.385548
v 0.351055 1.682681 3.385548
v 0.362961 1.699947 3.385548
v 0.374868 1.718402 3.385548
v 0.374570 1.699350 3.385548
v 0.379333 1.705602 3.385548
v 0.382309 1.723465 3.385548
v 0.378737 1.735668 3.385548
v 0.382905 1.740134 3.385548
v 0.383501 1.758044 3.385548
v 0.323290 1.646663 3.385548
v 0.322796 1.758044 3.385548
v 0.322796 1.758044 3.360291
v 0.324540 1.364870 3.360290
v 0.323290 1.646663 3.419483
v 0.326882 0.837465 3.419483
v 0.324540 1.364870 3.419483
v 0.326882 0.837465 3.360290
v 0.598434 1.758044 3.360291
v 0.870297 1.758044 3.385548
v 0.870297 1.758044 3.360291
v 0.808362 1.758044 3.385548
v 0.808362 1.758044 3.419483
v 0.598434 1.758044 3.419483
v 0.383501 1.758044 3.419483
v 0.383501 1.758044 3.385548
v 0.322796 1.758044 3.385548
v 0.322796 1.758044 3.360291
v 0.808944 1.737273 3.385548
v 0.808362 1.758044 3.419483
v 0.808944 1.737273 3.419483
v 0.812729 1.732615 3.385548
v 0.812729 1.732615 3.419483
v 0.808362 1.758044 3.385548
v 0.382905 1.740134 3.385548
v 0.382905 1.740134 3.419483
v 0.383501 1.758044 3.419483
v 0.383501 1.758044 3.385548
v 0.378737 1.735668 3.385548
v 0.378737 1.735668 3.419483
v 0.382905 1.740134 3.419483
v 0.382905 1.740134 3.385548
v 0.382309 1.723465 3.385548
v 0.382309 1.723465 3.419483
v 0.378737 1.735668 3.419483
v 0.378737 1.735668 3.385548
v 0.374868 1.718402 3.385548
v 0.374868 1.718402 3.419483
v 0.382309 1.723465 3.419483
v 0.382309 1.723465 3.385548
v 0.379333 1.705602 3.385548
v 0.379333 1.705602 3.419483
v 0.374868 1.718402 3.419483
v 0.374868 1.718402 3.385548
v 0.374570 1.699350 3.385548
v 0.374570 1.699350 3.419483
v 0.379333 1.705602 3.419483
v 0.379333 1.705602 3.385548
v 0.374570 1.699350 3.385548
v 0.362961 1.699947 3.419483
v 0.374570 1.699350 3.419483
v 0.362961 1.699947 3.385548
v 0.351055 1.682681 3.385548
v 0.351055 1.682681 3.419483
v 0.362961 1.699947 3.419483
v 0.362961 1.699947 3.385548
v 0.343613 1.659765 3.385548
v 0.343613 1.659765 3.419483
v 0.351055 1.682681 3.419483
v 0.351055 1.682681 3.385548
v 0.330218 1.647556 3.385548
v 0.330218 1.647556 3.419483
v 0.343613 1.659765 3.419483
v 0.343613 1.659765 3.385548
v 0.330218 1.647556 3.385548
v 0.323290 1.646663 3.419483
v 0.330218 1.647556 3.419483
v 0.323290 1.646663 3.385548
v 0.326882 0.837465 3.360290
v 0.598434 0.837465 3.419483
v 0.326882 0.837465 3.419483
v 0.598434 0.837465 3.360290
v 0.862123 0.837465 3.419483
v 0.862123 0.837465 3.360290
v 0.862123 0.837465 3.360290
v 0.866807 1.364870 3.419483
v 0.862123 0.837465 3.419483
v 0.866807 1.364870 3.360290
v 0.869316 1.647572 3.419483
v 0.869316 1.647572 3.385548
v 0.870297 1.758044 3.360291
v 0.870297 1.758044 3.385548
v 0.869316 1.647572 3.385548
v 0.854090 1.653975 3.419483
v 0.869316 1.647572 3.419483
v 0.854090 1.653975 3.385548
v 0.841856 1.673489 3.419483
v 0.841856 1.673489 3.385548
v 0.833407 1.692132 3.419483
v 0.833407 1.692132 3.385548
v 0.833407 1.692132 3.385548
v 0.817683 1.691841 3.419483
v 0.833407 1.692132 3.419483
v 0.817683 1.691841 3.385548
v 0.817683 1.691841 3.385548
v 0.809525 1.700866 3.419483
v 0.817683 1.691841 3.419483
v 0.809525 1.700866 3.385548
v 0.809525 1.700866 3.385548
v 0.816224 1.713973 3.419483
v 0.809525 1.700866 3.419483
v 0.816224 1.713973 3.385548
v 0.816224 1.713973 3.385548
v 0.808944 1.723294 3.419483
v 0.816224 1.713973 3.419483
v 0.808944 1.723294 3.385548
v 0.808944 1.723294 3.385548
v 0.812729 1.732615 3.419483
v 0.808944 1.723294 3.419483
v 0.812729 1.732615 3.385548
v 0.328415 1.888186 3.360291
v 0.598434 1.888186 3.425221
v 0.328415 1.888186 3.425221
v 0.598434 1.888186 3.360291
v 0.863385 1.888186 3.425221
v 0.863385 1.888186 3.360291
v 0.863385 1.888186 3.360291
v 0.858302 1.927283 3.425221
v 0.863385 1.888186 3.425221
v 0.858302 1.927283 3.360291
v 0.850788 1.985100 3.425221
v 0.850788 1.985100 3.360291
v 0.819776 2.061663 3.360291
v 0.819776 2.061663 3.425221
v 0.756780 2.145008 3.425221
v 0.756780 2.145008 3.360291
v 0.756780 2.145008 3.360291
v 0.666648 2.208973 3.425221
v 0.756780 2.145008 3.425221
v 0.666648 2.208973 3.360291
v 0.598434 2.239018 3.425221
v 0.598434 2.239018 3.360291
v 0.510616 2.200249 3.360291
v 0.510616 2.200249 3.425221
v 0.598434 2.239018 3.425221
v 0.598434 2.239018 3.360291
v 0.436960 2.144042 3.360291
v 0.436960 2.144042 3.425221
v 0.375903 2.060692 3.360291
v 0.375903 2.060692 3.425221
v 0.342952 1.979284 3.425221
v 0.342952 1.979284 3.360291
v 0.334655 1.927283 3.360291
v 0.334655 1.927283 3.425221
v 0.328415 1.888186 3.360291
v 0.328415 1.888186 3.425221
v 0.223187 0.802455 3.360290
v 0.195062 0.802455 3.330234
v 0.195062 0.802455 3.428399
v 0.223187 0.802455 3.360290
v 0.598434 0.802455 3.428399
v 0.598434 0.802455 3.360290
v 0.992006 0.802455 3.428399
v 0.956944 0.802455 3.360290
v 0.195062 0.802455 3.428399
v 0.992006 0.802455 3.330234
v 0.992006 1.364870 3.330234
v 0.992006 0.802455 3.428399
v 0.992006 1.364870 3.428399
v 0.992006 1.758044 3.330234
v 0.992006 1.758044 3.428399
v 0.992006 0.802455 3.330234
v 0.992006 1.927283 3.428399
v 0.992006 1.927283 3.330234
v 0.968493 2.051230 3.330234
v 0.968493 2.051230 3.428399
v 0.195062 1.758044 3.330234
v 0.195062 1.927283 3.428399
v 0.195062 1.758044 3.428399
v 0.195062 1.927283 3.330234
v 0.205941 1.987863 3.428399
v 0.205941 1.987863 3.330234
v 0.245520 2.104992 3.330234
v 0.245520 2.104992 3.428399
v 0.324677 2.223082 3.428399
v 0.324677 2.223082 3.330234
v 0.403834 2.297001 3.428399
v 0.403834 2.297001 3.330234
v 0.509378 2.349807 3.428399
v 0.509378 2.349807 3.330234
v 0.598434 2.373808 3.428399
v 0.598434 2.373808 3.330234
v 0.672969 2.353644 3.428399
v 0.672969 2.353644 3.330234
v 0.672969 2.353644 3.330234
v 0.752127 2.319086 3.428399
v 0.672969 2.353644 3.428399
v 0.752127 2.319086 3.330234
v 0.838320 2.255723 3.330234
v 0.838320 2.255723 3.428399
v 0.915719 2.160674 3.330234
v 0.915719 2.160674 3.428399
v 0.968493 2.051230 3.330234
v 0.968493 2.051230 3.428399
v 0.915719 2.160674 3.428399
v 0.915719 2.160674 3.330234
v 0.195062 1.364870 3.428399
v 0.195062 0.802455 3.330234
v 0.195062 1.364870 3.330234
v 0.195062 1.758044 3.428399
v 0.195062 1.758044 3.330234
v 0.195062 0.802455 3.428399
v 0.223187 0.802455 3.360290
v 0.324540 1.364870 3.360290
v 0.223442 1.364870 3.360290
v 0.224636 1.758044 3.360291
v 0.598434 0.837465 3.360290
v 0.326882 0.837465 3.360290
v 0.598434 0.802455 3.360290
v 0.322796 1.758044 3.360291
v 0.225150 1.927283 3.360291
v 0.598434 1.888186 3.360291
v 0.328415 1.888186 3.360291
v 0.598434 1.758044 3.360291
v 0.334655 1.927283 3.360291
v 0.237111 1.976838 3.360291
v 0.264417 2.089953 3.360291
v 0.342952 1.979284 3.360291
v 0.348305 2.200612 3.360291
v 0.375903 2.060692 3.360291
v 0.425055 2.272008 3.360291
v 0.436960 2.144042 3.360291
v 0.514297 2.321984 3.360291
v 0.510616 2.200249 3.360291
v 0.598434 2.339832 3.360291
v 0.598434 2.239018 3.360291
v 0.666648 2.208973 3.360291
v 0.726695 2.295210 3.360291
v 0.756780 2.145008 3.360291
v 0.808798 2.234526 3.360291
v 0.819776 2.061663 3.360291
v 0.881981 2.139929 3.360291
v 0.850788 1.985100 3.360291
v 0.931957 2.043545 3.360291
v 0.858302 1.927283 3.360291
v 0.958731 1.927283 3.360291
v 0.863385 1.888186 3.360291
v 0.870297 1.758044 3.360291
v 0.958461 1.758044 3.360291
v 0.866807 1.364870 3.360290
v 0.957837 1.364870 3.360290
v 0.956944 0.802455 3.360290
v 0.862123 0.837465 3.360290
v -6.470419 2.965078 0.620849
v -6.500486 3.527497 0.592469
v -6.500486 2.965078 0.592723
v -6.470419 3.527497 0.620849
v -6.500486 3.920666 0.591275
v -6.470419 3.920666 0.620849
v -6.500486 4.089910 0.590761
v -6.470419 4.089910 0.620849
v -6.500486 4.139460 0.578800
v -6.470419 4.150489 0.609969
v -6.470419 4.267619 0.570391
v -6.500486 4.252580 0.551494
v -6.470419 4.385703 0.491233
v -6.500486 4.363239 0.467605
v -6.500486 4.434635 0.390857
v -6.470419 4.459628 0.412076
v -6.470419 4.512434 0.306533
v -6.500486 4.484611 0.301613
v -6.470419 4.536435 0.217477
v -6.500486 4.502459 0.217477
v -6.470419 4.516271 0.142941
v -6.470419 4.481713 0.063783
v -6.500486 4.457837 0.089215
v -6.470419 4.418345 -0.022411
v -6.500486 4.397153 0.007111
v -6.470419 4.323301 -0.099809
v -6.500486 4.302550 -0.066068
v -6.470419 4.213852 -0.152580
v -6.500486 4.206172 -0.116044
v -6.470419 4.089910 -0.176096
v -6.500486 4.089910 -0.142817
v -6.500486 3.920666 -0.142549
v -6.470419 3.920666 -0.176095
v -6.500486 3.527497 -0.141925
v -6.470419 3.527497 -0.176095
v -6.500486 2.965078 -0.141032
v -6.470419 2.965078 -0.176095
v -6.565397 4.089910 0.217477
v -6.565397 4.223319 0.440007
v -6.565397 4.306663 0.378950
v -6.565397 4.362875 0.305295
v -6.565397 4.141911 0.472958
v -6.565397 4.089910 0.481256
v -6.565397 4.050808 0.487495
v -6.565397 4.050808 0.217477
v -6.565397 4.050808 -0.047475
v -6.565397 4.089910 -0.042393
v -6.565397 4.147727 -0.034877
v -6.565397 4.224290 -0.003864
v -6.565397 4.371599 0.149262
v -6.565397 4.307635 0.059131
v -6.565397 4.401640 0.217477
v -6.559684 3.000088 0.217477
v -6.559684 3.527497 0.491370
v -6.559684 3.527497 0.217477
v -6.559684 3.527497 -0.050894
v -6.559684 3.920666 0.217477
v -6.559684 3.000088 0.489030
v -6.559684 3.000088 -0.046213
v -6.559684 3.816602 -0.038178
v -6.559684 3.810194 -0.053404
v -6.559684 3.836116 -0.025945
v -6.559684 3.854462 -0.001771
v -6.559684 3.854753 -0.017499
v -6.559684 3.863493 0.006383
v -6.559684 3.876599 -0.000315
v -6.559684 3.885921 0.006966
v -6.559684 3.895242 0.003180
v -6.559684 3.899899 0.006966
v -6.559684 3.920666 0.007549
v -6.559684 3.902755 0.433006
v -6.559684 3.920666 0.432410
v -6.559684 3.886087 0.433601
v -6.559684 3.898295 0.437173
v -6.559684 3.868229 0.436578
v -6.559684 3.881029 0.441042
v -6.559684 3.861977 0.441340
v -6.559684 3.809285 0.492621
v -6.559684 3.810183 0.485692
v -6.559684 3.822387 0.472297
v -6.559684 3.845307 0.464856
v -6.559684 3.862574 0.452949
v -6.525723 3.920666 -0.054384
v -6.525723 3.836116 -0.025945
v -6.525723 3.854753 -0.017499
v -6.525723 3.876599 -0.000315
v -6.525723 3.863493 0.006383
v -6.525723 3.854462 -0.001771
v -6.525723 3.816602 -0.038178
v -6.525723 3.810194 -0.053404
v -6.525723 3.899899 0.006966
v -6.525723 3.920666 0.007549
v -6.525723 3.895242 0.003180
v -6.525723 3.885921 0.006966
v -6.525723 3.845307 0.464856
v -6.525723 3.822387 0.472297
v -6.525723 3.810183 0.485692
v -6.525723 3.809285 0.492621
v -6.525723 3.920666 0.432410
v -6.525723 3.862574 0.452949
v -6.525723 3.902755 0.433006
v -6.525723 3.898295 0.437173
v -6.525723 3.881029 0.441042
v -6.525723 3.920666 0.493115
v -6.525723 3.861977 0.441340
v -6.525723 3.886087 0.433601
v -6.525723 3.868229 0.436578
v -6.525723 3.809285 0.492621
v -6.500486 3.527497 0.491370
v -6.500486 3.920666 0.493115
v -6.525723 3.920666 0.493115
v -6.559684 3.809285 0.492621
v -6.559684 3.000088 0.489030
v -6.500486 3.000088 0.489030
v -6.559684 3.527497 0.491370
v -6.525723 3.920666 0.007549
v -6.500486 3.920666 0.217477
v -6.500486 3.920666 -0.054384
v -6.525723 3.920666 -0.054384
v -6.559684 3.920666 0.007549
v -6.559684 3.920666 0.217477
v -6.559684 3.920666 0.432410
v -6.525723 3.920666 0.432410
v -6.525723 3.920666 0.493115
v -6.500486 3.920666 0.493115
v -6.525723 3.899899 0.006966
v -6.559684 3.920666 0.007549
v -6.525723 3.920666 0.007549
v -6.525723 3.895242 0.003180
v -6.559684 3.899899 0.006966
v -6.559684 3.895242 0.003180
v -6.525723 3.920666 0.432410
v -6.559684 3.902755 0.433006
v -6.525723 3.902755 0.433006
v -6.559684 3.920666 0.432410
v -6.525723 3.902755 0.433006
v -6.559684 3.898295 0.437173
v -6.525723 3.898295 0.437173
v -6.559684 3.902755 0.433006
v -6.525723 3.898295 0.437173
v -6.559684 3.886087 0.433601
v -6.525723 3.886087 0.433601
v -6.559684 3.898295 0.437173
v -6.525723 3.886087 0.433601
v -6.559684 3.881029 0.441042
v -6.525723 3.881029 0.441042
v -6.559684 3.886087 0.433601
v -6.525723 3.881029 0.441042
v -6.559684 3.868229 0.436578
v -6.525723 3.868229 0.436578
v -6.559684 3.881029 0.441042
v -6.525723 3.868229 0.436578
v -6.559684 3.861977 0.441340
v -6.525723 3.861977 0.441340
v -6.559684 3.868229 0.436578
v -6.525723 3.861977 0.441340
v -6.559684 3.862574 0.452949
v -6.525723 3.862574 0.452949
v -6.559684 3.861977 0.441340
v -6.559684 3.862574 0.452949
v -6.559684 3.845307 0.464856
v -6.525723 3.845307 0.464856
v -6.525723 3.862574 0.452949
v -6.525723 3.845307 0.464856
v -6.559684 3.822387 0.472297
v -6.525723 3.822387 0.472297
v -6.559684 3.845307 0.464856
v -6.525723 3.822387 0.472297
v -6.559684 3.810183 0.485692
v -6.525723 3.810183 0.485692
v -6.559684 3.822387 0.472297
v -6.525723 3.810183 0.485692
v -6.559684 3.809285 0.492621
v -6.525723 3.809285 0.492621
v -6.559684 3.810183 0.485692
v -6.500486 3.000088 0.489030
v -6.559684 3.000088 0.217477
v -6.500486 3.000088 0.217477
v -6.559684 3.000088 -0.046213
v -6.500486 3.000088 -0.046213
v -6.559684 3.000088 0.489030
v -6.500486 3.000088 -0.046213
v -6.559684 3.527497 -0.050894
v -6.500486 3.527497 -0.050894
v -6.559684 3.810194 -0.053404
v -6.525723 3.810194 -0.053404
v -6.525723 3.920666 -0.054384
v -6.500486 3.920666 -0.054384
v -6.559684 3.000088 -0.046213
v -6.525723 3.810194 -0.053404
v -6.559684 3.816602 -0.038178
v -6.525723 3.816602 -0.038178
v -6.559684 3.836116 -0.025945
v -6.525723 3.836116 -0.025945
v -6.559684 3.810194 -0.053404
v -6.559684 3.854753 -0.017499
v -6.525723 3.854753 -0.017499
v -6.525723 3.854753 -0.017499
v -6.559684 3.854462 -0.001771
v -6.525723 3.854462 -0.001771
v -6.559684 3.854753 -0.017499
v -6.525723 3.854462 -0.001771
v -6.559684 3.863493 0.006383
v -6.525723 3.863493 0.006383
v -6.559684 3.854462 -0.001771
v -6.525723 3.863493 0.006383
v -6.559684 3.876599 -0.000315
v -6.525723 3.876599 -0.000315
v -6.559684 3.863493 0.006383
v -6.525723 3.876599 -0.000315
v -6.559684 3.885921 0.006966
v -6.525723 3.885921 0.006966
v -6.559684 3.876599 -0.000315
v -6.525723 3.885921 0.006966
v -6.559684 3.895242 0.003180
v -6.525723 3.895242 0.003180
v -6.559684 3.885921 0.006966
v -6.500486 4.050808 0.487495
v -6.565397 4.050808 0.217477
v -6.500486 4.050808 0.217477
v -6.500486 4.050808 -0.047476
v -6.565397 4.050808 0.487495
v -6.565397 4.050808 -0.047475
v -6.500486 4.050808 -0.047476
v -6.565397 4.089910 -0.042393
v -6.500486 4.089910 -0.042393
v -6.565397 4.147727 -0.034877
v -6.500486 4.147727 -0.034877
v -6.565397 4.050808 -0.047475
v -6.565397 4.224290 -0.003864
v -6.500486 4.224290 -0.003864
v -6.565397 4.307635 0.059131
v -6.500486 4.307635 0.059131
v -6.500486 4.307635 0.059131
v -6.565397 4.371599 0.149262
v -6.500486 4.371599 0.149262
v -6.565397 4.401640 0.217477
v -6.500486 4.401640 0.217477
v -6.565397 4.307635 0.059131
v -6.500486 4.401640 0.217477
v -6.565397 4.362875 0.305295
v -6.500486 4.362875 0.305295
v -6.565397 4.306663 0.378950
v -6.500486 4.306663 0.378950
v -6.565397 4.401640 0.217477
v -6.565397 4.223319 0.440007
v -6.500486 4.223319 0.440007
v -6.565397 4.141911 0.472958
v -6.500486 4.141911 0.472958
v -6.565397 4.089910 0.481256
v -6.500486 4.089910 0.481256
v -6.565397 4.050808 0.487495
v -6.500486 4.050808 0.487495
v -6.568563 2.965078 0.620849
v -6.470419 2.965078 0.620849
v -6.500486 2.965078 0.592723
v -6.568563 2.965078 0.217477
v -6.568563 2.965078 0.620849
v -6.500486 2.965078 0.217477
v -6.568563 2.965078 -0.176095
v -6.500486 2.965078 -0.141032
v -6.500486 2.965078 0.592723
v -6.470419 2.965078 -0.176095
v -6.470419 3.527497 -0.176095
v -6.568563 2.965078 -0.176095
v -6.470419 2.965078 -0.176095
v -6.470419 3.920666 -0.176095
v -6.568563 3.527497 -0.176095
v -6.470419 4.089910 -0.176096
v -6.568563 3.920666 -0.176095
v -6.470419 4.213852 -0.152580
v -6.568563 4.089910 -0.176096
v -6.568563 4.213852 -0.152580
v -6.470419 3.920666 0.620849
v -6.568563 4.089910 0.620849
v -6.470419 4.089910 0.620849
v -6.568563 4.150489 0.609969
v -6.470419 4.150489 0.609969
v -6.568563 3.920666 0.620849
v -6.568563 4.267619 0.570391
v -6.470419 4.267619 0.570391
v -6.568563 4.385703 0.491233
v -6.470419 4.385703 0.491233
v -6.568563 4.267619 0.570391
v -6.568563 4.459628 0.412076
v -6.470419 4.459628 0.412076
v -6.568563 4.512434 0.306533
v -6.470419 4.512434 0.306533
v -6.568563 4.536435 0.217477
v -6.470419 4.536435 0.217477
v -6.568563 4.516271 0.142941
v -6.470419 4.516271 0.142941
v -6.470419 4.516271 0.142941
v -6.568563 4.481713 0.063783
v -6.470419 4.481713 0.063783
v -6.568563 4.418345 -0.022411
v -6.470419 4.418345 -0.022411
v -6.568563 4.516271 0.142941
v -6.568563 4.323301 -0.099809
v -6.470419 4.323301 -0.099809
v -6.470419 4.323301 -0.099809
v -6.568563 4.213852 -0.152580
v -6.470419 4.213852 -0.152580
v -6.568563 4.323301 -0.099809
v -6.470419 2.965078 0.620849
v -6.568563 3.527497 0.620849
v -6.470419 3.527497 0.620849
v -6.568563 3.920666 0.620849
v -6.470419 3.920666 0.620849
v -6.568563 2.965078 0.620849
v -6.500486 3.527497 0.491370
v -6.500486 2.965078 0.592723
v -6.500486 3.527497 0.592469
v -6.500486 3.920666 0.591275
v -6.500486 3.920666 0.493115
v -6.500486 3.000088 0.489030
v -6.500486 3.000088 0.217477
v -6.500486 2.965078 0.217477
v -6.500486 2.965078 -0.141032
v -6.500486 3.000088 -0.046213
v -6.500486 3.527497 -0.050894
v -6.500486 3.527497 -0.141925
v -6.500486 3.920666 -0.142549
v -6.500486 3.920666 -0.054384
v -6.500486 4.089910 -0.142817
v -6.500486 4.050808 -0.047476
v -6.500486 4.050808 0.217477
v -6.500486 3.920666 0.217477
v -6.500486 4.089910 -0.042393
v -6.500486 4.206172 -0.116044
v -6.500486 4.147727 -0.034877
v -6.500486 4.302550 -0.066068
v -6.500486 4.224290 -0.003864
v -6.500486 4.397153 0.007111
v -6.500486 4.307635 0.059131
v -6.500486 4.457837 0.089215
v -6.500486 4.371599 0.149262
v -6.500486 4.502459 0.217477
v -6.500486 4.401640 0.217477
v -6.500486 4.362875 0.305295
v -6.500486 4.484611 0.301613
v -6.500486 4.306663 0.378950
v -6.500486 4.434635 0.390857
v -6.500486 4.223319 0.440007
v -6.500486 4.363239 0.467605
v -6.500486 4.141911 0.472958
v -6.500486 4.252580 0.551494
v -6.500486 4.089910 0.481256
v -6.500486 4.139460 0.578800
v -6.500486 4.089910 0.590761
v -6.500486 4.050808 0.487495
v 0.599294 2.000415 -2.899998
v 1.122938 2.056305 -2.833146
v 1.069286 2.003182 -2.899998
v 0.070311 2.056305 -2.833146
v 0.125506 1.997621 -2.899998
v 0.599401 2.056305 -2.833146
v 0.070311 2.056305 -2.833146
v 0.927885 0.844077 -2.899998
v 1.069286 2.003182 -2.899998
v 1.063491 0.802873 -2.899998
v 0.597041 0.844077 -2.899998
v 0.596398 0.802873 -2.899998
v 0.931796 1.848966 -2.899998
v 0.600723 1.848966 -2.899998
v 0.599294 2.000415 -2.899998
v 0.125506 1.997621 -2.899998
v 0.266197 1.848966 -2.899998
v 0.266197 0.844077 -2.899998
v 0.129304 0.802873 -2.899998
v 0.308473 1.786502 -2.939541
v 0.326883 1.803186 -2.939541
v 0.331485 1.791679 -2.939541
v 0.322281 1.779024 -2.939541
v 0.295817 1.783625 -2.939541
v 0.322856 1.808940 -2.939541
v 0.287763 1.769817 -2.939541
v 0.266197 1.848966 -2.939541
v 0.328034 1.836555 -2.939541
v 0.332636 1.816994 -2.939541
v 0.327458 1.848966 -2.939541
v 0.279133 1.728970 -2.939541
v 0.266197 1.723793 -2.939541
v 0.287187 1.743355 -2.939541
v 0.874545 1.815732 -2.998853
v 0.879831 1.808498 -2.998853
v 0.875656 1.804604 -2.998853
v 0.875936 1.790973 -2.998853
v 0.600723 1.848966 -2.998853
v 0.873989 1.842444 -2.998853
v 0.875656 1.828807 -2.998853
v 0.886784 1.785962 -2.998853
v 0.913216 1.762594 -2.998853
v 0.921005 1.736438 -2.998853
v 0.896521 1.790692 -2.998853
v 0.906538 1.784295 -2.998853
v 0.931297 1.721140 -2.998853
v 0.927885 0.844077 -2.998854
v 0.597041 0.844077 -2.998854
v 0.266197 0.844077 -2.998854
v 0.266197 1.723793 -2.998853
v 0.279133 1.728970 -2.998853
v 0.287187 1.743355 -2.998853
v 0.322281 1.779024 -2.998853
v 0.331485 1.791679 -2.998853
v 0.308473 1.786502 -2.998853
v 0.287763 1.769817 -2.998853
v 0.295817 1.783625 -2.998853
v 0.332636 1.816994 -2.998853
v 0.326883 1.803186 -2.998853
v 0.873989 1.848966 -2.998853
v 0.328034 1.836555 -2.998853
v 0.327458 1.848966 -2.998853
v 0.322856 1.808940 -2.998853
v 0.878720 1.834374 -2.998853
v 0.931796 1.848966 -2.939541
v 0.875656 1.828807 -2.939541
v 0.878720 1.834374 -2.939541
v 0.873989 1.842444 -2.939541
v 0.874545 1.815732 -2.939541
v 0.879831 1.808498 -2.939541
v 0.875656 1.804604 -2.939541
v 0.875936 1.790973 -2.939541
v 0.886784 1.785962 -2.939541
v 0.896521 1.790692 -2.939541
v 0.906538 1.784295 -2.939541
v 0.931297 1.721140 -2.939541
v 0.913216 1.762594 -2.939541
v 0.921005 1.736438 -2.939541
v 0.873989 1.848966 -2.939541
v 0.931796 1.848966 -2.939541
v 0.600723 1.848966 -2.899998
v 0.931796 1.848966 -2.899998
v 0.873989 1.848966 -2.939541
v 0.873989 1.848966 -2.998853
v 0.600723 1.848966 -2.998853
v 0.327458 1.848966 -2.998853
v 0.327458 1.848966 -2.939541
v 0.266197 1.848966 -2.939541
v 0.266197 1.848966 -2.899998
v 0.266197 1.848966 -2.939541
v 0.266197 0.844077 -2.899998
v 0.266197 1.848966 -2.899998
v 0.266197 1.723793 -2.939541
v 0.266197 1.723793 -2.998853
v 0.266197 0.844077 -2.998854
v 0.279133 1.728970 -2.939541
v 0.266197 1.723793 -2.998853
v 0.266197 1.723793 -2.939541
v 0.287187 1.743355 -2.939541
v 0.279133 1.728970 -2.998853
v 0.287763 1.769817 -2.939541
v 0.287187 1.743355 -2.998853
v 0.295817 1.783625 -2.939541
v 0.287763 1.769817 -2.998853
v 0.295817 1.783625 -2.998853
v 0.266197 0.844077 -2.899998
v 0.597041 0.844077 -2.998854
v 0.597041 0.844077 -2.899998
v 0.927885 0.844077 -2.998854
v 0.927885 0.844077 -2.899998
v 0.266197 0.844077 -2.998854
v 0.927885 0.844077 -2.899998
v 0.931297 1.721140 -2.998853
v 0.931297 1.721140 -2.939541
v 0.931796 1.848966 -2.939541
v 0.931796 1.848966 -2.899998
v 0.927885 0.844077 -2.998854
v 0.931297 1.721140 -2.939541
v 0.921005 1.736438 -2.998853
v 0.921005 1.736438 -2.939541
v 0.913216 1.762594 -2.998853
v 0.913216 1.762594 -2.939541
v 0.931297 1.721140 -2.998853
v 0.906538 1.784295 -2.998853
v 0.906538 1.784295 -2.939541
v 0.896521 1.790692 -2.998853
v 0.896521 1.790692 -2.939541
v 0.896521 1.790692 -2.939541
v 0.886784 1.785962 -2.998853
v 0.886784 1.785962 -2.939541
v 0.896521 1.790692 -2.998853
v 0.886784 1.785962 -2.939541
v 0.875936 1.790973 -2.998853
v 0.875936 1.790973 -2.939541
v 0.886784 1.785962 -2.998853
v 0.875936 1.790973 -2.939541
v 0.875656 1.804604 -2.998853
v 0.875656 1.804604 -2.939541
v 0.875936 1.790973 -2.998853
v 0.875656 1.804604 -2.939541
v 0.879831 1.808498 -2.998853
v 0.879831 1.808498 -2.939541
v 0.875656 1.804604 -2.998853
v 0.879831 1.808498 -2.939541
v 0.874545 1.815732 -2.998853
v 0.874545 1.815732 -2.939541
v 0.879831 1.808498 -2.998853
v 0.874545 1.815732 -2.939541
v 0.875656 1.828807 -2.998853
v 0.875656 1.828807 -2.939541
v 0.878720 1.834374 -2.998853
v 0.878720 1.834374 -2.939541
v 0.874545 1.815732 -2.998853
v 0.878720 1.834374 -2.939541
v 0.873989 1.842444 -2.998853
v 0.873989 1.842444 -2.939541
v 0.878720 1.834374 -2.998853
v 0.873989 1.842444 -2.939541
v 0.873989 1.848966 -2.998853
v 0.873989 1.848966 -2.939541
v 0.873989 1.842444 -2.998853
v 0.327458 1.848966 -2.939541
v 0.328034 1.836555 -2.998853
v 0.328034 1.836555 -2.939541
v 0.332636 1.816994 -2.998853
v 0.332636 1.816994 -2.939541
v 0.327458 1.848966 -2.998853
v 0.332636 1.816994 -2.939541
v 0.322856 1.808940 -2.998853
v 0.322856 1.808940 -2.939541
v 0.332636 1.816994 -2.998853
v 0.322856 1.808940 -2.939541
v 0.326883 1.803186 -2.998853
v 0.326883 1.803186 -2.939541
v 0.331485 1.791679 -2.998853
v 0.331485 1.791679 -2.939541
v 0.322856 1.808940 -2.998853
v 0.331485 1.791679 -2.939541
v 0.322281 1.779024 -2.998853
v 0.322281 1.779024 -2.939541
v 0.331485 1.791679 -2.998853
v 0.322281 1.779024 -2.939541
v 0.308473 1.786502 -2.998853
v 0.308473 1.786502 -2.939541
v 0.322281 1.779024 -2.998853
v 0.308473 1.786502 -2.939541
v 0.295817 1.783625 -2.998853
v 0.295817 1.783625 -2.939541
v 0.308473 1.786502 -2.998853
v 0.599401 2.056305 -2.833146
v 0.049208 2.078743 -2.833146
v 0.599443 2.078743 -2.833146
v 1.145599 2.078743 -2.833146
v 1.122938 2.056305 -2.833146
v 0.070311 2.056305 -2.833146
v 0.120784 1.999018 -3.096650
v 0.070311 2.056305 -2.833146
v 0.125506 1.997621 -2.899998
v 0.059760 2.056305 -3.063167
v 0.070311 2.056305 -2.833146
v 0.049208 2.078743 -3.063146
v 0.049208 2.078743 -2.833146
v 1.122938 2.056305 -2.833146
v 1.074011 2.004579 -3.096650
v 1.069286 2.003182 -2.899998
v 1.144042 2.078743 -3.063146
v 1.133490 2.056305 -3.063167
v 1.144042 2.078743 -2.833146
v 1.063491 0.802873 -2.899998
v 1.069286 2.003182 -2.899998
v 1.074011 2.004579 -3.096650
v 1.058770 0.804269 -3.096650
v 1.063491 0.802873 -2.899998
v 0.591674 0.804269 -3.096650
v 0.596398 0.802873 -2.899998
v 0.124581 0.804269 -3.096650
v 0.129304 0.802873 -2.899998
v 1.058770 0.804269 -3.096650
v 0.129304 0.802873 -2.899998
v 0.120784 1.999018 -3.096650
v 0.125506 1.997621 -2.899998
v 0.124581 0.804269 -3.096650
vn -0.0000 -0.0000 1.0000
vn -0.6254 -0.0012 0.7803
vn -0.6102 -0.0025 0.7922
vn -0.4543 -0.0016 0.8909
vn -0.6885 -0.0011 0.7253
vn -0.6730 -0.0021 0.7396
vn -0.4369 -0.0034 0.8995
vn 0.2731 -0.9620 -0.0000
vn 0.2172 -0.9761 -0.0000
vn 0.1156 -0.9933 -0.0000
vn 0.0044 -1.0000 -0.0000
vn -0.1227 -0.9924 -0.0000
vn -0.2706 -0.9627 -0.0000
vn -0.2707 -0.9627 -0.0000
vn -0.3557 -0.9346 -0.0000
vn 0.0061 1.0000 -0.0000
vn 0.0019 -1.0000 -0.0000
vn 1.0000 -0.0098 -0.0000
vn 0.0077 1.0000 -0.0000
vn -1.0000 -0.0077 -0.0000
vn 0.0038 0.4926 0.8703
vn 0.0019 0.4729 0.8811
vn 0.0031 0.6676 0.7445
vn 0.0017 0.6459 0.7634
vn 0.0028 0.7228 0.6910
vn 0.0016 0.7065 0.7078
vn 0.4810 -0.0021 0.8767
vn 0.4571 -0.0045 0.8894
vn 0.6335 -0.0033 0.7737
vn 0.6555 -0.0016 0.7552
vn 0.6943 -0.0028 0.7197
vn 0.7146 -0.0014 0.6996
vn 0.0004 -0.4583 0.8888
vn 0.0009 -0.4635 0.8861
vn 0.0007 -0.6397 0.7687
vn 0.0003 -0.6324 0.7747
vn 0.0006 -0.6968 0.7173
vn 0.0003 -0.6923 0.7216
vn 0.0045 -1.0000 -0.0000
vn 0.0038 0.4926 0.8702
vn 0.0016 0.7065 0.7077
vn 0.4954 -0.0020 0.8687
vn 0.6931 -0.0029 0.7208
vn 0.7266 -0.0010 -0.6871
vn 0.7271 -0.0011 -0.6865
vn 0.7271 -0.0000 -0.6865
vn 0.7133 -0.0012 -0.7009
vn 0.7123 -0.0009 -0.7018
vn 0.7302 -0.0003 -0.6833
vn 0.7044 -0.0888 -0.7042
vn 0.6974 -0.0701 -0.7132
vn 0.6739 -0.1731 -0.7182
vn 0.6523 -0.1698 -0.7387
vn 0.7216 -0.3035 -0.6223
vn 0.7011 -0.3291 -0.6326
vn 0.5117 -0.4580 -0.7269
vn 0.5033 -0.4541 -0.7352
vn 0.3898 -0.5631 -0.7286
vn 0.3899 -0.5538 -0.7358
vn 0.2789 -0.6737 -0.6843
vn 0.2640 -0.6788 -0.6853
vn -0.0111 -0.6710 -0.7414
vn -0.0330 -0.6522 -0.7573
vn -0.2211 -0.5538 -0.8028
vn -0.2994 -0.6070 -0.7362
vn -0.3235 -0.5739 -0.7523
vn -0.4490 -0.4611 -0.7654
vn -0.4380 -0.4682 -0.7674
vn -0.5163 -0.3215 -0.7937
vn -0.5165 -0.3221 -0.7934
vn -0.5933 -0.1973 -0.7804
vn -0.5983 -0.2165 -0.7715
vn -0.6626 -0.0682 -0.7459
vn -0.6682 -0.0798 -0.7397
vn -0.6676 0.0006 -0.7446
vn -0.6671 0.0005 -0.7450
vn -0.6607 0.0006 -0.7506
vn -0.6602 0.0005 -0.7511
vn -0.6513 0.0001 -0.7588
vn -0.6508 -0.0000 -0.7592
vn -0.0000 -0.0000 -1.0000
vn -0.0001 -0.0000 -1.0000
vn -0.0002 -0.0000 -1.0000
vn 0.0001 -0.0000 -1.0000
vn 1.0000 0.0044 -0.0000
vn -0.0000 -1.0000 -0.0000
vn -0.9376 -0.3478 -0.0000
vn -0.9996 -0.0280 -0.0000
vn -0.7760 -0.6307 -0.0000
vn 0.9994 -0.0332 -0.0000
vn 0.7311 -0.6823 -0.0000
vn 0.9597 0.2809 -0.0000
vn 0.5625 -0.8268 -0.0000
vn 0.9442 0.3294 -0.0000
vn 0.7954 -0.6060 -0.0000
vn -0.0514 -0.9987 -0.0000
vn 0.8232 -0.5677 -0.0000
vn 0.8233 -0.5677 -0.0000
vn 0.9511 -0.3089 -0.0000
vn 0.6736 -0.7391 -0.0000
vn 0.1279 -0.9918 -0.0000
vn -0.0000 1.0000 -0.0000
vn -1.0000 0.0089 -0.0000
vn -0.3877 -0.9218 -0.0000
vn -0.6476 -0.7620 -0.0000
vn -0.3876 -0.9218 -0.0000
vn -0.8810 -0.4731 -0.0000
vn -0.9108 -0.4128 -0.0000
vn 0.0185 -0.9998 -0.0000
vn -0.7419 -0.6706 -0.0000
vn -0.7418 -0.6706 -0.0000
vn -0.8904 0.4551 -0.0000
vn -0.7881 -0.6155 -0.0000
vn -0.9265 0.3763 -0.0000
vn -0.9917 -0.1289 -0.0000
vn -0.9671 -0.2542 -0.0000
vn -0.8698 -0.4934 -0.0000
vn -0.7978 -0.6030 -0.0000
vn -0.5787 -0.8155 -0.0000
vn -0.4934 -0.8698 -0.0000
vn -0.5788 -0.8155 -0.0000
vn -0.4031 -0.9152 -0.0000
vn 0.4039 -0.9148 -0.0000
vn 0.5088 -0.8609 -0.0000
vn 0.7140 -0.7001 -0.0000
vn 0.8735 -0.4868 -0.0000
vn 0.9634 -0.2681 -0.0000
vn 0.9875 -0.1576 -0.0000
vn 1.0000 -0.0000 -0.0000
vn 0.9956 0.0936 -0.0000
vn 0.9825 0.1864 -0.0000
vn -1.0000 -0.0000 -0.0000
vn -0.9961 0.0887 -0.0000
vn -0.9685 0.2491 -0.0000
vn -0.8969 0.4423 -0.0000
vn -0.7616 0.6481 -0.0000
vn -0.5709 0.8210 -0.0000
vn -0.5709 0.8211 -0.0000
vn -0.3556 0.9346 -0.0000
vn 0.0005 1.0000 -0.0000
vn 0.2611 0.9653 -0.0000
vn 0.4001 0.9165 -0.0000
vn 0.4993 0.8664 -0.0000
vn 0.6894 0.7244 -0.0000
vn 0.7754 0.6314 -0.0000
vn 0.9007 0.4343 -0.0000
vn 0.6831 -0.0003 -0.7303
vn 0.6864 -0.0000 -0.7272
vn 0.6874 -0.0021 -0.7262
vn 0.6864 -0.0022 -0.7272
vn 0.7008 -0.0012 -0.7134
vn 0.7017 -0.0009 -0.7125
vn 0.7041 -0.0889 -0.7045
vn 0.7131 -0.0701 -0.6975
vn 0.7181 -0.1731 -0.6741
vn 0.7386 -0.1699 -0.6524
vn 0.6324 -0.3292 -0.7012
vn 0.6221 -0.3035 -0.7217
vn 0.7267 -0.4581 -0.5119
vn 0.7350 -0.4542 -0.5035
vn 0.7285 -0.5633 -0.3899
vn 0.7356 -0.5539 -0.3900
vn 0.6842 -0.6738 -0.2789
vn 0.6851 -0.6789 -0.2640
vn 0.7413 -0.6711 0.0111
vn 0.7572 -0.6523 0.0330
vn 0.8027 -0.5539 0.2211
vn 0.7522 -0.5740 0.3236
vn 0.7361 -0.6071 0.2995
vn 0.7653 -0.4612 0.4491
vn 0.7673 -0.4683 0.4381
vn 0.7937 -0.3215 0.5164
vn 0.7933 -0.3221 0.5166
vn 0.7803 -0.1973 0.5935
vn 0.7713 -0.2166 0.5984
vn 0.7458 -0.0682 0.6627
vn 0.7396 -0.0798 0.6683
vn 0.7449 0.0005 0.6672
vn 0.7445 0.0006 0.6677
vn 0.7505 0.0006 0.6608
vn 0.7510 0.0005 0.6603
vn 0.7587 0.0001 0.6515
vn 0.7591 -0.0000 0.6510
vn 1.0000 -0.0002 -0.0000
vn 1.0000 0.0004 -0.0000
vn 1.0000 0.0001 -0.0000
vn -0.0000 0.0044 -1.0000
vn -0.0000 -0.0280 0.9996
vn -0.0000 -0.3479 0.9375
vn -0.0000 -0.6308 0.7760
vn -0.0000 -0.6307 0.7760
vn -0.0000 -0.0332 -0.9994
vn -0.0000 -0.6827 -0.7307
vn -0.0000 -0.6826 -0.7308
vn -0.0000 0.2808 -0.9598
vn -0.0000 -0.8271 -0.5621
vn -0.0000 0.3294 -0.9442
vn -0.0000 0.3293 -0.9442
vn -0.0000 -0.6060 -0.7955
vn -0.0000 -0.6059 -0.7955
vn -0.0000 -0.9987 0.0513
vn -0.0000 -0.9987 0.0514
vn -0.0000 -0.5677 -0.8232
vn -0.0000 -0.3088 -0.9511
vn -0.0000 -0.7393 -0.6734
vn -0.0000 -0.7392 -0.6735
vn -0.0000 -0.7392 -0.6734
vn -0.0000 -0.9917 -0.1286
vn -0.0000 0.0089 1.0000
vn -0.0000 -0.7619 0.6477
vn -0.0000 -0.9217 0.3879
vn -0.0000 -0.4730 0.8810
vn -0.0000 -0.4730 0.8811
vn -0.0000 -0.4128 0.9108
vn -0.0000 -0.9998 -0.0185
vn -0.0000 -0.6702 0.7422
vn -0.0000 0.4551 0.8904
vn -0.0000 -0.6156 0.7881
vn -0.0000 0.3763 0.9265
vn -0.0000 -0.1289 0.9917
vn -0.0000 -0.2542 0.9671
vn -0.0000 -0.4934 0.8698
vn -0.0000 -0.6030 0.7978
vn -0.0000 -0.8698 0.4934
vn -0.0000 -0.8155 0.5788
vn -0.0000 -0.9152 0.4030
vn -0.0000 -0.8609 -0.5088
vn -0.0000 -0.9148 -0.4038
vn -0.0000 -0.7001 -0.7140
vn -0.0000 -0.4868 -0.8735
vn -0.0000 -0.2681 -0.9634
vn -0.0000 -0.1576 -0.9875
vn -0.0000 0.0936 -0.9956
vn -0.0000 0.1864 -0.9825
vn -0.0000 0.0887 0.9961
vn -0.0000 0.2491 0.9685
vn -0.0000 0.3201 0.9474
vn -0.0000 0.6481 0.7616
vn -0.0000 0.5568 0.8306
vn -0.0000 0.8210 0.5709
vn -0.0000 0.9346 0.3556
vn -0.0000 1.0000 -0.0005
vn -0.0000 0.9653 -0.2611
vn -0.0000 0.9653 -0.2612
vn -0.0000 0.8664 -0.4993
vn -0.0000 0.9165 -0.4001
vn -0.0000 0.7244 -0.6894
vn -0.0000 0.6315 -0.7754
vn -0.0000 0.6314 -0.7754
vn -0.0000 0.4343 -0.9008
vn 0.0046 -0.7847 0.6198
vn 0.0039 -0.7819 0.6234
vn 0.0003 -0.7682 0.6402
vn 0.0044 -0.7497 0.6618
vn -0.0000 -0.7672 0.6414
vn 0.0001 -0.0000 1.0000
vn -0.0001 -0.0000 1.0000
vn -0.0002 -0.0000 1.0000
vn 0.3716 -0.9284 -0.0000
vn 0.6598 -0.7515 -0.0000
vn 0.9648 -0.2630 -0.0000
vn 0.9624 -0.2715 -0.0000
vn 0.9625 -0.2715 -0.0000
vn 0.8638 -0.5039 -0.0000
vn -1.0000 0.0039 0.0001
vn -1.0000 0.0039 -0.0000
vn -1.0000 0.0039 0.0002
vn -0.9044 -0.4267 -0.0000
vn -0.8297 -0.5582 -0.0000
vn -0.9571 -0.2898 -0.0000
vn -0.7958 -0.6056 -0.0000
vn -0.5383 -0.8428 -0.0000
vn 0.4370 -0.8995 -0.0000
vn -0.4194 -0.9078 -0.0000
vn -0.9998 -0.0206 -0.0000
vn -0.6821 0.7312 -0.0000
vn -0.8074 -0.5900 -0.0000
vn -0.9571 0.2897 -0.0000
vn -0.9964 0.0847 -0.0000
vn -0.8761 0.4822 -0.0000
vn -0.8627 -0.5057 -0.0000
vn 0.9904 0.1383 -0.0000
vn 0.9989 0.0464 -0.0000
vn 0.9734 0.2290 -0.0000
vn 0.6357 -0.7719 -0.0000
vn 0.8797 0.4755 -0.0000
vn 0.8193 0.5734 -0.0000
vn 0.9285 0.3713 -0.0000
vn 0.8087 -0.5882 -0.0000
vn -0.4762 -0.8793 -0.0000
vn 0.2217 -0.9751 -0.0000
vn -0.7213 -0.6925 0.0124
vn -0.7320 -0.6812 0.0076
vn -0.7937 -0.6072 0.0364
vn -0.6750 -0.7371 0.0310
vn -0.8928 -0.4489 0.0381
vn -0.7284 -0.6851 -0.0000
vn 0.6962 -0.7178 0.0116
vn 0.6586 -0.7521 0.0253
vn 0.7207 -0.6932 0.0083
vn 0.7801 -0.6246 0.0358
vn 0.8928 -0.4489 0.0381
vn 0.7284 -0.6851 -0.0000
vn 0.9998 -0.0056 0.0190
vn 0.9997 -0.0048 0.0240
vn 0.9997 -0.0119 -0.0191
vn 0.9996 -0.0127 -0.0241
vn -0.0000 -1.0000 -0.0071
vn -0.9997 -0.0032 0.0240
vt 0.664100 0.415500
vt 0.606800 0.409400
vt 0.671900 0.366400
vt 0.689600 0.415500
vt 0.719500 0.363300
vt 0.737600 0.409400
vt 0.639400 0.364000
vt 0.565100 0.399100
vt 0.592100 0.355900
vt 0.536600 0.388100
vt 0.548800 0.342900
vt 0.493700 0.389000
vt 0.501500 0.333800
vt 0.799700 0.341300
vt 0.493700 0.000000
vt 0.501200 0.008000
vt 0.501500 0.008300
vt 0.511400 0.019000
vt 0.512000 0.322700
vt 0.844500 0.333800
vt 0.848100 0.386100
vt 0.769400 0.353500
vt 0.817400 0.385900
vt 0.781600 0.398400
vt 0.848100 0.000000
vt 0.501500 0.008000
vt 0.844500 0.008000
vt 0.833800 0.018200
vt 0.833400 0.322800
vt 0.823100 0.028400
vt 0.822300 0.311800
vt 0.801800 0.048900
vt 0.800000 0.289800
vt 0.543400 0.289300
vt 0.541200 0.051000
vt 0.440800 0.167200
vt 0.472600 0.167200
vt 0.440800 0.203700
vt 0.472600 0.203700
vt 0.472600 0.242600
vt 0.440800 0.242600
vt 0.440800 0.268900
vt 0.472600 0.268900
vt 0.440800 0.307600
vt 0.472600 0.307600
vt 0.440800 0.348700
vt 0.472600 0.348700
vt 0.440800 0.375100
vt 0.472600 0.375100
vt 0.472600 0.578100
vt 0.440800 0.578100
vt 0.440800 0.081700
vt 0.472600 0.081700
vt 0.440800 0.289300
vt 0.472600 0.289300
vt 0.440800 0.089100
vt 0.472600 0.089100
vt 0.440800 0.281900
vt 0.472600 0.281900
vt 0.440800 0.080100
vt 0.472600 0.080100
vt 0.440800 0.290900
vt 0.472600 0.290900
vt 0.440800 0.088000
vt 0.472600 0.088000
vt 0.440800 0.283000
vt 0.472600 0.283000
vt 0.521300 0.029700
vt 0.522400 0.311500
vt -0.000000 0.336100
vt 0.017500 0.336100
vt 0.000000 0.000000
vt 0.018300 0.571100
vt -0.000000 0.571100
vt 0.017400 0.000000
vt 0.018600 0.672200
vt -0.000000 0.672200
vt 0.026000 0.701800
vt 0.006700 0.708400
vt 0.042900 0.769400
vt 0.031200 0.778400
vt 0.080100 0.849000
vt 0.094700 0.835600
vt 0.142200 0.878200
vt 0.129000 0.893200
vt 0.197300 0.908100
vt 0.194300 0.924700
vt 0.249300 0.939100
vt 0.249300 0.918800
vt 0.295400 0.927000
vt 0.328600 0.892100
vt 0.344300 0.906400
vt 0.397600 0.868500
vt 0.379300 0.855800
vt 0.445400 0.811700
vt 0.424600 0.799300
vt 0.478000 0.746300
vt 0.455500 0.741700
vt 0.492600 0.672200
vt 0.472000 0.672200
vt 0.471800 0.571100
vt 0.492600 0.571100
vt 0.471500 0.336100
vt 0.492600 0.336100
vt 0.470900 0.000000
vt 0.492600 0.000000
vt 0.249300 0.858500
vt 0.249300 0.672200
vt 0.086300 0.672200
vt 0.195000 0.835300
vt 0.149500 0.801700
vt 0.386100 0.752500
vt 0.405300 0.706800
vt 0.409900 0.672200
vt 0.291500 0.840600
vt 0.091400 0.703300
vt 0.111800 0.751900
vt 0.082400 0.648800
vt 0.249300 0.648800
vt 0.413100 0.648800
vt 0.347200 0.802300
vt 0.081500 0.020900
vt 0.080000 0.336100
vt 0.249300 0.020900
vt 0.412300 0.020900
vt 0.415200 0.336100
vt 0.249300 0.336100
vt 0.249300 0.571100
vt 0.079300 0.504500
vt 0.083500 0.505000
vt 0.407300 0.508900
vt 0.416700 0.505100
vt 0.399800 0.520500
vt 0.384800 0.531500
vt 0.379800 0.536900
vt 0.394500 0.531700
vt 0.383900 0.544700
vt 0.379400 0.550300
vt 0.379400 0.558700
vt 0.381800 0.555900
vt 0.379100 0.571100
vt 0.116100 0.560400
vt 0.116500 0.571100
vt 0.091800 0.512300
vt 0.111000 0.536000
vt 0.113900 0.539700
vt 0.115700 0.550400
vt 0.113500 0.557700
vt 0.111100 0.547400
vt 0.096400 0.526000
vt 0.103800 0.536400
vt 0.417300 0.571100
vt 0.078900 0.571100
vt 0.026100 0.567200
vt 0.041000 0.567200
vt 0.041000 0.501500
vt 0.026100 0.335300
vt 0.061000 0.501500
vt 0.061000 0.335300
vt 0.061000 0.024100
vt 0.026100 0.024100
vt 0.434500 0.520700
vt 0.454400 0.520700
vt 0.434500 0.306200
vt 0.454400 0.471900
vt 0.481200 0.471900
vt 0.481200 0.306200
vt 0.481200 0.136600
vt 0.454400 0.136600
vt 0.454400 0.088700
vt 0.434500 0.088700
vt 0.022400 0.347800
vt 0.022400 0.371600
vt 0.061100 0.347800
vt 0.022400 0.341000
vt 0.061100 0.341000
vt 0.061100 0.371600
vt 0.061100 0.370000
vt 0.061100 0.349400
vt 0.022400 0.349400
vt 0.022400 0.370000
vt 0.061100 0.363200
vt 0.061100 0.356200
vt 0.022400 0.356200
vt 0.022400 0.363200
vt 0.061100 0.367000
vt 0.061100 0.352400
vt 0.022400 0.352400
vt 0.022400 0.367000
vt 0.061100 0.364800
vt 0.061100 0.354600
vt 0.022400 0.354600
vt 0.022400 0.364800
vt 0.061100 0.367400
vt 0.061100 0.352000
vt 0.022400 0.352000
vt 0.022400 0.367400
vt 0.061100 0.364200
vt 0.061100 0.355200
vt 0.022400 0.355200
vt 0.022400 0.364200
vt 0.022400 0.353100
vt 0.022400 0.366300
vt 0.061100 0.353100
vt 0.061100 0.366300
vt 0.061100 0.373400
vt 0.061100 0.345900
vt 0.022400 0.345900
vt 0.022400 0.373400
vt 0.061100 0.363700
vt 0.061100 0.355700
vt 0.022400 0.363700
vt 0.022400 0.355700
vt 0.151100 0.019000
vt 0.255400 0.019000
vt 0.151100 0.003700
vt 0.255400 0.003700
vt 0.356600 0.019000
vt 0.356600 0.003700
vt 0.435000 0.021200
vt 0.435000 0.337100
vt 0.470400 0.021200
vt 0.470400 0.337100
vt 0.435000 0.506400
vt 0.455300 0.506400
vt 0.470400 0.572600
vt 0.455300 0.572600
vt 0.022400 0.198900
vt 0.022400 0.217700
vt 0.061100 0.198900
vt 0.061100 0.217700
vt 0.022400 0.244000
vt 0.061100 0.244000
vt 0.022400 0.267400
vt 0.061100 0.267400
vt 0.022400 0.285300
vt 0.061100 0.285300
vt 0.022400 0.299200
vt 0.061100 0.299200
vt 0.022400 0.316000
vt 0.061100 0.316000
vt 0.022400 0.329500
vt 0.061100 0.329500
vt 0.068600 0.429300
vt 0.068600 0.290500
vt 0.028200 0.429300
vt 0.028200 0.290500
vt 0.068600 0.154200
vt 0.028200 0.154200
vt 0.068600 0.134100
vt 0.028200 0.134100
vt 0.068600 0.104400
vt 0.028200 0.104400
vt 0.068600 0.065000
vt 0.028200 0.065000
vt 0.068600 0.022200
vt 0.028200 0.022200
vt 0.068600 0.725200
vt 0.068600 0.678900
vt 0.028200 0.725200
vt 0.028200 0.678900
vt 0.068600 0.643800
vt 0.028200 0.643800
vt 0.068600 0.598700
vt 0.028200 0.598700
vt 0.028200 0.560800
vt 0.068600 0.560800
vt 0.028200 0.518000
vt 0.068600 0.518000
vt 0.068600 0.476100
vt 0.028200 0.476100
vt 0.068600 0.449400
vt 0.028200 0.449400
vt 0.017700 0.549700
vt 0.063600 0.549700
vt 0.063600 0.530800
vt 0.063600 0.277700
vt 0.017700 0.277700
vt 0.017700 0.012300
vt 0.063600 0.036000
vt 0.063600 0.012300
vt 0.017700 0.415700
vt 0.017700 0.708200
vt 0.063600 0.415700
vt 0.017700 0.211300
vt 0.063600 0.211300
vt 0.063600 0.708200
vt 0.017700 0.123300
vt 0.063600 0.123300
vt 0.017700 0.058800
vt 0.063600 0.058800
vt 0.017700 0.000700
vt 0.017700 0.114900
vt 0.063600 0.000700
vt 0.063600 0.114900
vt 0.017700 0.155700
vt 0.063600 0.155700
vt 0.017700 0.234700
vt 0.063600 0.234700
vt 0.017700 0.314300
vt 0.063600 0.314300
vt 0.017700 0.367700
vt 0.063600 0.367700
vt 0.017700 0.438900
vt 0.063600 0.438900
vt 0.017700 0.498900
vt 0.063600 0.498900
vt 0.017700 0.549200
vt 0.063600 0.549200
vt 0.017700 0.602600
vt 0.063600 0.602600
vt 0.017700 0.660700
vt 0.063600 0.660700
vt 0.063600 0.724800
vt 0.017700 0.724800
vt 0.017700 0.001900
vt 0.063600 0.001900
vt 0.063600 0.387600
vt 0.063600 0.008300
vt 0.017700 0.387600
vt 0.063600 0.652700
vt 0.017700 0.652700
vt 0.017700 0.008300
vt 0.249300 0.000000
vt 0.906800 0.962800
vt 0.930000 0.986400
vt 0.703600 0.961500
vt 0.498800 0.960300
vt 0.475000 0.986400
vt 0.703700 0.986400
vt 0.904300 0.429000
vt 0.845700 0.447400
vt 0.702400 0.429000
vt 0.702700 0.447400
vt 0.847400 0.894200
vt 0.704300 0.894200
vt 0.559700 0.894200
vt 0.500500 0.429000
vt 0.559700 0.447400
vt 0.587900 0.868700
vt 0.585900 0.873800
vt 0.577900 0.866400
vt 0.583900 0.863100
vt 0.584100 0.876400
vt 0.572500 0.865100
vt 0.569000 0.859000
vt 0.588400 0.880000
vt 0.586400 0.888700
vt 0.586100 0.894200
vt 0.559700 0.838500
vt 0.565200 0.840800
vt 0.568700 0.847200
vt 0.823100 0.874500
vt 0.824900 0.876200
vt 0.822600 0.879400
vt 0.823200 0.868400
vt 0.823100 0.885200
vt 0.822400 0.891300
vt 0.827900 0.866200
vt 0.842700 0.844200
vt 0.839300 0.855800
vt 0.836500 0.865400
vt 0.832100 0.868300
vt 0.847200 0.837300
vt 0.822400 0.894200
vt 0.824400 0.887700
vt 0.505900 0.946700
vt 0.505900 0.777600
vt 0.526100 0.946700
vt 0.526100 0.917100
vt 0.556400 0.917100
vt 0.556400 0.777600
vt 0.556400 0.638100
vt 0.526100 0.638100
vt 0.505900 0.606800
vt 0.526100 0.606800
vt 0.505900 1.011400
vt 0.505900 0.498200
vt 0.526100 1.011400
vt 0.526100 0.947500
vt 0.556400 0.498200
vt 0.556400 0.947500
vt 0.505900 0.755200
vt 0.556400 0.755200
vt 0.505900 0.924100
vt 0.505900 0.586300
vt 0.556400 0.586300
vt 0.556400 0.924100
vt 0.536200 0.883000
vt 0.505900 0.883000
vt 0.556400 0.435100
vt 0.536200 0.948300
vt 0.556400 0.948300
vt 0.505900 0.435100
vt 0.703700 0.996400
vt 0.465900 0.996400
vt 0.939800 0.996400
vt 0.805200 0.962100
vt 0.816800 0.986400
vt 0.816000 0.996400
vt 0.928200 0.996400
vt 0.059100 0.482700
vt 0.018600 0.482100
vt 0.018600 0.002200
vt 0.059200 0.002800
vt 0.021600 0.230700
vt 0.062100 0.231300
vt 0.018600 0.417400
vt 0.024500 0.044100
vt 0.065100 0.044600
vt 0.059200 0.417900
vt 0.028000 0.010100
vt 0.068600 0.010700
vt 0.024500 0.487700
vt 0.065100 0.488300
s 0
usemtl m11details
f 3/1/1 2/2/1 1/3/1
f 4/4/1 3/1/1 1/3/1
f 6/5/1 5/6/1 1/3/1
f 2/2/1 7/7/1 1/3/1
f 5/6/1 4/4/1 1/3/1
f 2/2/1 8/8/1 7/7/1
f 8/8/1 9/9/1 7/7/1
f 8/8/1 10/10/1 9/9/1
f 10/10/1 11/11/1 9/9/1
f 10/10/1 12/12/1 11/11/1
f 11/11/1 14/13/1 13/14/1
f 11/11/1 12/12/1 14/13/1
f 12/12/1 16/15/1 15/16/1
f 12/12/1 17/17/1 14/13/1
f 17/17/1 12/12/1 15/16/1
f 19/18/1 18/19/1 14/13/1
f 14/13/1 18/19/1 20/20/1
f 17/17/1 19/18/1 14/13/1
f 14/13/1 20/20/1 13/14/1
f 13/14/1 22/21/1 21/22/1
f 22/21/1 13/14/1 20/20/1
f 21/22/1 24/23/1 23/24/1
f 6/5/1 21/22/1 5/6/1
f 22/21/1 24/23/1 21/22/1
f 5/6/1 21/22/1 23/24/1
f 25/25/1 22/21/1 20/20/1
f 27/26/1 25/25/1 26/27/1
f 15/16/1 16/15/1 25/25/1
f 26/27/1 25/25/1 20/20/1
f 26/27/1 20/20/1 28/28/1
f 27/26/1 26/27/1 17/17/1
f 26/27/1 28/28/1 17/17/1
f 17/17/1 15/16/1 27/26/1
f 19/18/1 17/17/1 28/28/1
f 20/20/1 29/29/1 28/28/1
f 18/19/1 29/29/1 20/20/1
f 32/22/1 31/5/1 30/11/1
f 33/14/1 32/22/1 30/11/1
f 35/3/1 34/7/1 30/11/1
f 31/5/1 35/3/1 30/11/1
f 34/7/1 36/9/1 30/11/1
s 1
f 39/30/2 38/31/3 37/32/4
f 41/28/5 40/29/6 39/30/2
f 40/29/6 38/31/3 39/30/2
f 38/31/3 42/33/7 37/32/4
s 0
f 45/32/1 44/33/1 43/34/1
f 46/35/1 45/32/1 43/34/1
s 1
f 49/36/8 48/37/8 47/38/9
f 47/38/9 51/39/9 50/40/10
f 48/37/8 51/39/9 47/38/9
f 52/41/10 47/38/9 50/40/10
f 52/41/10 50/40/10 53/42/11
f 50/40/10 54/43/11 53/42/11
f 53/42/11 54/43/11 55/44/12
f 54/43/11 56/45/12 55/44/12
f 55/44/12 56/45/12 57/46/13
f 56/45/12 58/47/14 57/46/13
f 57/46/13 58/47/14 59/48/15
f 58/47/14 60/49/15 59/48/15
s 0
f 63/48/16 62/49/16 61/50/16
f 64/51/16 63/48/16 61/50/16
f 67/52/17 66/53/17 65/54/17
f 66/53/17 68/55/17 65/54/17
f 71/56/18 70/57/18 69/58/18
f 70/57/18 72/59/18 69/58/18
f 75/60/19 74/61/19 73/62/19
f 74/61/19 76/63/19 73/62/19
f 79/64/20 78/65/20 77/66/20
f 78/65/20 80/67/20 77/66/20
f 83/26/1 82/16/1 81/25/1
s 1
f 86/32/21 85/35/22 84/30/23
f 85/35/22 87/68/24 84/30/23
f 88/28/25 84/30/23 87/68/24
f 89/18/26 88/28/25 87/68/24
f 92/35/27 91/34/28 90/69/29
f 93/68/30 92/35/27 90/69/29
f 93/68/30 90/69/29 94/19/31
f 95/18/32 93/68/30 94/19/31
f 98/34/33 97/33/34 96/31/35
f 99/69/36 98/34/33 96/31/35
f 99/69/36 96/31/35 100/29/37
f 101/19/38 99/69/36 100/29/37
s 0
f 104/1/1 103/2/1 102/3/1
f 105/4/1 104/1/1 102/3/1
f 107/5/1 106/6/1 102/3/1
f 103/2/1 108/7/1 102/3/1
f 106/6/1 105/4/1 102/3/1
f 103/2/1 109/8/1 108/7/1
f 109/8/1 110/9/1 108/7/1
f 109/8/1 111/10/1 110/9/1
f 111/10/1 112/11/1 110/9/1
f 111/10/1 113/12/1 112/11/1
f 112/11/1 115/13/1 114/14/1
f 112/11/1 113/12/1 115/13/1
f 113/12/1 117/15/1 116/16/1
f 113/12/1 118/17/1 115/13/1
f 118/17/1 113/12/1 116/16/1
f 120/18/1 119/19/1 115/13/1
f 115/13/1 119/19/1 121/20/1
f 118/17/1 120/18/1 115/13/1
f 115/13/1 121/20/1 114/14/1
f 114/14/1 123/21/1 122/22/1
f 123/21/1 114/14/1 121/20/1
f 125/27/1 121/20/1 124/28/1
f 123/21/1 121/20/1 125/27/1
f 119/19/1 126/29/1 121/20/1
f 121/20/1 126/29/1 124/28/1
f 127/25/1 123/21/1 125/27/1
f 123/21/1 128/23/1 122/22/1
f 129/26/1 127/25/1 125/27/1
f 129/26/1 125/27/1 118/17/1
f 125/27/1 124/28/1 118/17/1
f 120/18/1 118/17/1 124/28/1
f 118/17/1 116/16/1 129/26/1
f 116/16/1 117/15/1 127/25/1
f 122/22/1 128/23/1 130/24/1
f 106/6/1 122/22/1 130/24/1
f 107/5/1 122/22/1 106/6/1
f 133/22/1 132/5/1 131/11/1
f 134/14/1 133/22/1 131/11/1
f 136/3/1 135/7/1 131/11/1
f 132/5/1 136/3/1 131/11/1
f 135/7/1 137/9/1 131/11/1
s 1
f 140/30/2 139/31/3 138/32/4
f 142/28/5 141/29/6 140/30/2
f 141/29/6 139/31/3 140/30/2
f 139/31/3 143/33/7 138/32/4
s 0
f 146/32/1 145/33/1 144/34/1
f 147/35/1 146/32/1 144/34/1
s 1
f 150/36/8 149/37/8 148/38/9
f 148/38/9 152/39/9 151/41/10
f 149/37/8 152/39/9 148/38/9
f 151/41/10 154/40/10 153/42/39
f 152/39/9 154/40/10 151/41/10
f 153/42/39 156/43/39 155/44/12
f 154/40/10 156/43/39 153/42/39
f 155/44/12 158/45/12 157/46/13
f 156/43/39 158/45/12 155/44/12
f 157/46/13 160/47/14 159/48/15
f 158/45/12 160/47/14 157/46/13
f 160/47/14 161/49/15 159/48/15
s 0
f 164/48/16 163/49/16 162/51/16
f 163/49/16 165/50/16 162/51/16
f 168/52/17 167/53/17 166/54/17
f 167/53/17 169/55/17 166/54/17
f 172/56/18 171/57/18 170/58/18
f 171/57/18 173/59/18 170/58/18
f 176/60/19 175/61/19 174/62/19
f 175/61/19 177/63/19 174/62/19
f 180/64/20 179/65/20 178/67/20
f 181/66/20 180/64/20 178/67/20
f 184/26/1 183/16/1 182/25/1
s 1
f 187/32/40 186/35/22 185/30/23
f 186/35/22 188/68/24 185/30/23
f 189/28/25 185/30/23 188/68/24
f 190/18/41 189/28/25 188/68/24
f 193/35/27 192/34/28 191/69/29
f 194/68/42 193/35/27 191/69/29
f 194/68/42 191/69/29 195/19/43
f 197/18/32 194/68/32 196/19/32
f 200/34/33 199/33/34 198/31/35
f 201/69/36 200/34/33 198/31/35
f 201/69/36 198/31/35 202/29/37
f 203/19/38 201/69/36 202/29/37
f 206/70/44 205/71/45 204/72/46
f 205/71/45 206/70/44 207/73/47
f 206/70/44 208/74/48 207/73/47
s 0
f 205/71/49 209/75/49 204/72/49
s 1
f 207/73/47 208/74/48 210/76/50
f 208/74/48 211/77/51 210/76/50
f 212/78/52 210/76/50 211/77/51
f 213/79/53 212/78/52 211/77/51
f 215/80/54 212/78/52 214/81/55
f 212/78/52 213/79/53 214/81/55
f 215/80/54 214/81/55 216/82/56
f 217/83/57 215/80/54 216/82/56
f 218/84/58 217/83/57 216/82/56
f 219/85/59 218/84/58 216/82/56
f 221/86/60 218/84/58 220/87/61
f 218/84/58 219/85/59 220/87/61
f 220/87/61 222/88/62 221/86/60
f 222/88/62 223/89/63 221/86/60
f 224/90/64 223/89/63 222/88/62
f 226/91/65 223/89/63 225/92/66
f 223/89/63 224/90/64 225/92/66
f 226/91/65 225/92/66 227/93/67
f 228/94/68 226/91/65 227/93/67
f 228/94/68 227/93/67 229/95/69
f 230/96/70 228/94/68 229/95/69
f 230/96/70 229/95/69 231/97/71
f 232/98/72 230/96/70 231/97/71
f 232/98/72 231/97/71 233/99/73
f 234/100/74 232/98/72 233/99/73
f 234/100/74 233/99/73 235/101/75
f 233/99/73 236/102/76 235/101/75
f 237/103/77 235/101/75 236/102/76
f 238/104/78 237/103/77 236/102/76
f 237/103/77 238/104/78 239/105/79
f 238/104/78 240/106/80 239/105/79
s 0
f 243/107/81 242/108/81 241/109/81
f 245/110/81 243/107/81 244/111/81
f 247/112/81 246/113/81 243/107/81
f 248/114/81 242/108/81 243/107/81
f 247/112/81 243/107/81 249/115/81
f 244/111/81 243/107/81 241/109/81
f 246/113/81 248/114/81 243/107/81
f 241/109/81 250/116/81 244/111/81
f 250/116/81 251/117/81 244/111/81
f 252/118/81 241/109/81 242/108/81
f 253/119/81 252/118/81 242/108/81
f 253/119/81 242/108/81 254/120/81
f 242/108/81 248/114/81 254/120/81
f 255/121/81 247/112/81 249/115/81
f 258/122/81 257/123/81 256/124/81
f 260/125/81 256/124/81 259/126/81
f 257/123/81 261/127/81 256/124/81
f 256/124/81 261/127/81 259/126/81
f 262/128/81 261/127/81 257/123/81
f 257/123/81 264/129/81 263/130/81
f 263/130/81 262/128/81 257/123/81
f 259/126/81 261/127/81 262/128/81
f 266/131/81 265/132/81 259/126/81
f 262/128/81 266/131/81 259/126/81
f 268/133/81 266/131/81 267/134/81
f 266/131/81 262/128/81 267/134/81
f 262/128/81 269/135/81 267/134/81
f 270/136/81 268/133/81 267/134/81
f 271/137/81 269/135/81 262/128/81
f 272/138/81 271/137/81 262/128/81
f 274/139/82 273/140/82 272/138/82
f 272/138/81 262/128/81 274/139/81
f 262/128/81 275/141/81 274/139/81
f 277/142/81 276/143/81 262/128/81
f 262/128/81 263/130/81 278/144/81
f 262/128/81 280/145/81 279/146/81
f 281/147/81 277/142/81 262/128/81
f 280/145/81 262/128/81 278/144/81
f 281/147/81 262/128/81 279/146/81
f 282/148/83 277/142/83 281/147/83
f 279/146/81 283/149/81 281/147/81
f 278/144/81 284/150/81 280/145/81
f 284/150/81 285/151/81 280/145/81
f 288/137/81 287/138/81 286/140/81
f 290/135/81 288/137/81 289/136/81
f 291/141/81 288/137/81 286/140/81
f 288/137/81 291/141/81 289/136/81
f 286/140/81 292/139/81 291/141/81
f 291/141/81 294/152/81 293/133/81
f 291/141/84 293/133/84 289/136/84
f 295/134/81 290/135/81 289/136/81
f 297/132/81 296/131/81 293/133/81
f 294/152/81 297/132/81 293/133/81
f 300/130/81 299/129/81 298/153/81
f 300/130/81 302/150/81 301/144/81
f 302/150/81 300/130/81 298/153/81
f 302/150/81 298/153/81 303/151/81
f 298/153/81 304/149/81 303/151/81
f 303/151/81 304/149/81 305/145/81
f 304/149/81 306/146/81 305/145/81
f 307/147/81 304/149/81 298/153/81
f 308/148/81 307/147/81 298/153/81
f 308/148/81 298/153/81 309/142/81
f 298/153/81 310/143/81 309/142/81
f 313/154/85 312/155/85 311/156/85
f 314/157/85 313/154/85 311/156/85
f 311/156/85 315/158/85 314/157/85
f 317/159/85 316/160/85 314/157/85
f 315/158/85 317/159/85 314/157/85
f 316/160/85 318/161/85 314/157/85
f 321/162/86 320/163/86 319/164/86
f 320/163/86 322/165/86 319/164/86
f 322/165/86 323/166/86 319/164/86
f 323/166/86 324/167/86 319/164/86
f 324/167/86 325/168/86 319/164/86
f 325/168/86 326/169/86 319/164/86
f 326/169/86 327/170/86 319/164/86
f 327/170/86 328/171/86 319/164/86
s 1
f 331/172/87 330/173/88 329/174/87
f 333/175/89 331/172/87 332/176/89
f 331/172/87 329/174/87 332/176/89
f 330/173/88 334/177/88 329/174/87
f 337/178/90 336/179/90 335/180/90
f 338/181/90 337/178/90 335/180/90
f 341/182/91 340/183/91 339/184/91
f 342/185/91 341/182/91 339/184/91
s 0
f 345/186/92 344/187/92 343/188/92
f 346/189/92 345/186/92 343/188/92
f 349/190/93 348/191/93 347/192/93
f 350/193/93 349/190/93 347/192/93
f 353/194/94 352/195/94 351/196/94
f 354/197/94 353/194/94 351/196/94
f 357/198/95 356/199/95 355/200/95
f 358/201/95 357/198/95 355/200/95
f 361/202/96 360/203/96 359/204/96
f 360/203/96 362/205/96 359/204/96
s 1
f 365/177/97 364/174/98 363/172/97
f 366/173/97 365/177/97 363/172/97
f 369/206/99 368/207/99 367/208/99
f 370/209/99 369/206/99 367/208/99
f 373/178/100 372/179/100 371/180/100
f 374/181/100 373/178/100 371/180/100
f 377/210/101 376/211/101 375/212/101
f 376/211/101 378/213/101 375/212/101
s 0
f 381/214/102 380/215/102 379/216/102
f 380/215/102 382/217/102 379/216/102
f 380/215/102 383/218/102 382/217/102
f 383/218/102 384/219/102 382/217/102
f 387/220/103 386/221/103 385/222/103
f 386/221/103 388/223/103 385/222/103
f 386/221/103 389/224/103 388/223/103
f 389/224/103 390/225/103 388/223/103
f 388/223/103 390/225/103 391/226/103
f 390/225/103 392/227/103 391/226/103
s 1
f 395/228/104 394/229/105 393/230/106
f 394/229/105 396/231/105 393/230/106
f 394/229/105 397/232/107 396/231/105
f 397/232/107 398/233/107 396/231/105
f 397/232/107 399/234/108 398/233/107
f 399/234/108 400/235/108 398/233/107
s 0
f 403/234/109 402/236/109 401/235/109
f 402/236/109 404/237/109 401/235/109
f 407/236/110 406/238/110 405/237/110
f 406/238/111 408/239/111 405/237/111
f 411/238/112 410/240/112 409/239/112
f 410/240/112 412/241/112 409/239/112
f 415/240/113 414/242/113 413/241/113
f 414/242/113 416/243/113 413/241/113
f 419/242/114 418/175/114 417/243/114
f 418/175/114 420/176/114 417/243/114
f 423/244/102 422/245/102 421/246/102
f 422/245/102 424/247/102 421/246/102
f 422/245/102 425/248/102 424/247/102
f 425/248/102 426/249/102 424/247/102
f 429/248/115 428/250/115 427/249/115
f 428/250/115 430/251/115 427/249/115
s 1
f 428/250/115 431/252/116 430/251/115
f 431/252/116 432/253/116 430/251/115
f 431/252/116 434/254/117 433/255/117
f 432/253/116 431/252/116 433/255/117
f 434/254/117 435/256/118 433/255/117
f 435/256/118 436/257/118 433/255/117
f 439/258/119 438/259/120 437/260/121
f 438/259/120 440/261/120 437/260/121
f 438/259/120 441/262/122 440/261/120
f 441/262/122 442/263/122 440/261/120
f 445/262/123 444/264/124 443/265/124
f 446/263/123 445/262/123 443/265/124
f 443/265/124 444/264/124 447/266/125
f 444/264/124 448/267/125 447/266/125
f 447/266/125 448/267/125 449/268/126
f 448/267/125 450/269/126 449/268/126
f 450/269/126 451/270/127 449/268/126
f 451/270/127 452/271/127 449/268/126
f 451/270/127 454/272/128 453/273/128
f 452/271/127 451/270/127 453/273/128
s 0
f 453/273/128 454/272/128 455/246/128
f 454/272/128 456/244/128 455/246/128
f 459/274/86 458/275/86 457/276/86
f 462/277/86 461/278/86 460/276/86
f 463/279/86 461/278/86 462/277/86
f 464/280/86 463/279/86 462/277/86
f 461/278/86 465/274/86 460/276/86
f 466/281/86 463/279/86 464/280/86
f 469/282/129 468/283/129 467/284/129
f 471/285/129 469/282/129 470/286/129
f 469/282/129 467/284/129 470/286/129
f 468/283/129 472/287/129 467/284/129
s 1
f 473/288/130 471/285/129 470/286/129
f 474/289/130 473/288/130 470/286/129
f 476/290/131 473/288/130 475/291/131
f 473/288/130 474/289/130 475/291/131
f 479/292/132 478/293/133 477/294/132
f 478/293/133 480/295/133 477/294/132
f 478/293/133 481/296/134 480/295/133
f 481/296/134 482/297/134 480/295/133
f 481/296/134 484/298/135 483/299/135
f 482/297/134 481/296/134 483/299/135
f 484/298/135 485/300/136 483/299/135
f 485/300/136 486/301/136 483/299/135
f 485/300/136 487/302/137 486/301/136
f 487/302/137 488/303/138 486/301/136
f 487/302/137 489/304/139 488/303/138
f 489/304/139 490/305/139 488/303/138
f 489/304/139 491/306/140 490/305/139
f 491/306/140 492/307/140 490/305/139
f 491/306/140 493/308/141 492/307/140
f 493/308/141 494/309/141 492/307/140
f 497/308/142 496/310/143 495/309/142
f 496/310/143 498/311/143 495/309/142
f 496/310/143 500/312/144 499/313/144
f 498/311/143 496/310/143 499/313/144
f 499/313/144 500/312/144 501/314/145
f 500/312/144 502/315/145 501/314/145
f 505/316/146 504/290/146 503/291/146
f 506/317/146 505/316/146 503/291/146
s 0
f 509/318/132 508/319/132 507/320/132
f 511/321/132 509/318/132 510/322/132
f 509/318/132 507/320/132 510/322/132
f 508/319/132 512/323/132 507/320/132
f 515/71/81 514/123/81 513/75/81
f 515/71/81 516/73/81 514/123/81
f 518/122/81 517/124/81 513/75/81
f 514/123/81 518/122/81 513/75/81
f 517/124/81 519/324/81 513/75/81
f 516/73/81 520/153/81 514/123/81
f 516/73/81 521/76/81 520/153/81
f 523/118/81 522/119/81 520/153/81
f 521/76/81 523/118/81 520/153/81
f 522/119/81 524/128/81 520/153/81
f 523/118/81 521/76/81 525/109/81
f 526/78/81 525/109/81 521/76/81
f 528/116/81 525/109/81 527/80/81
f 525/109/81 526/78/81 527/80/81
f 528/116/81 527/80/81 529/83/81
f 530/117/81 528/116/81 529/83/81
f 530/117/81 529/83/81 531/84/81
f 532/111/81 530/117/81 531/84/81
f 532/111/81 531/84/81 533/86/81
f 534/110/81 532/111/81 533/86/81
f 533/86/81 535/89/81 534/110/81
f 535/89/81 536/107/81 534/110/81
f 538/91/81 537/115/81 535/89/81
f 537/115/81 536/107/81 535/89/81
f 539/121/81 537/115/81 538/91/81
f 540/94/81 539/121/81 538/91/81
f 541/112/81 539/121/81 540/94/81
f 542/96/81 541/112/81 540/94/81
f 543/113/81 541/112/81 542/96/81
f 544/98/81 543/113/81 542/96/81
f 545/114/81 543/113/81 544/98/81
f 546/100/81 545/114/81 544/98/81
f 546/100/81 547/120/81 545/114/81
f 549/101/81 548/152/81 546/100/81
f 548/152/81 547/120/81 546/100/81
f 547/120/81 548/152/81 522/119/81
f 550/126/81 548/152/81 549/101/81
f 548/152/81 524/128/81 522/119/81
f 551/103/81 550/126/81 549/101/81
f 551/103/81 552/105/81 550/126/81
f 552/105/81 553/125/81 550/126/81
f 553/125/81 552/105/81 517/124/81
f 552/105/81 519/324/81 517/124/81
f 556/75/147 555/71/147 554/72/147
f 555/71/148 557/70/148 554/72/148
s 1
f 557/70/149 555/71/150 558/73/151
f 559/74/152 557/70/149 558/73/151
f 559/74/152 558/73/151 560/76/153
f 561/77/154 559/74/152 560/76/153
f 561/77/154 560/76/153 562/78/155
f 563/79/156 561/77/154 562/78/155
f 563/79/156 562/78/155 564/81/157
f 562/78/155 565/80/158 564/81/157
f 564/81/157 565/80/158 566/82/159
f 565/80/158 567/83/160 566/82/159
f 566/82/159 567/83/160 568/84/161
f 569/85/162 566/82/159 568/84/161
f 571/86/163 570/87/164 568/84/161
f 570/87/164 569/85/162 568/84/161
f 572/88/165 570/87/164 571/86/163
f 573/89/166 572/88/165 571/86/163
f 574/90/167 572/88/165 573/89/166
f 574/90/167 573/89/166 575/92/168
f 573/89/166 576/91/169 575/92/168
f 575/92/168 576/91/169 577/93/170
f 576/91/169 578/94/171 577/93/170
f 577/93/170 578/94/171 579/95/172
f 578/94/171 580/96/173 579/95/172
f 579/95/172 580/96/173 581/97/174
f 580/96/173 582/98/175 581/97/174
f 583/99/176 581/97/174 582/98/175
f 584/100/177 583/99/176 582/98/175
f 586/102/178 583/99/176 585/101/179
f 583/99/176 584/100/177 585/101/179
f 586/102/178 585/101/179 587/103/180
f 588/104/181 586/102/178 587/103/180
f 588/104/181 587/103/180 589/105/182
f 590/106/183 588/104/181 589/105/182
s 0
f 593/111/129 592/117/129 591/108/129
f 593/111/129 591/108/129 594/110/129
f 592/117/129 595/116/129 591/108/129
f 595/116/129 596/109/129 591/108/129
f 591/108/129 596/109/129 597/118/129
f 598/119/129 591/108/129 597/118/129
f 591/108/129 598/119/129 599/120/129
f 600/114/129 591/108/129 599/120/129
f 591/108/129 600/114/129 601/113/129
f 602/112/129 591/108/129 601/113/129
f 604/121/129 603/115/129 602/112/129
f 602/112/129 603/115/129 591/108/129
f 603/115/129 605/107/129 591/108/129
f 591/108/129 605/107/129 594/110/129
f 608/127/129 607/123/129 606/124/129
f 608/127/129 606/124/129 609/126/129
f 610/128/129 608/127/129 609/126/129
f 607/123/129 608/127/129 610/128/129
f 607/123/129 611/122/129 606/124/129
f 606/124/129 612/125/129 609/126/129
f 609/126/129 614/132/129 613/131/129
f 613/131/129 610/128/129 609/126/129
f 616/134/129 613/131/129 615/133/129
f 613/131/129 616/134/129 610/128/129
f 617/136/129 616/134/129 615/133/129
f 616/134/129 618/135/129 610/128/129
f 618/135/129 619/137/129 610/128/129
f 619/137/129 620/138/129 610/128/129
f 620/138/184 621/140/184 610/128/184
f 621/140/185 622/139/185 610/128/185
f 622/139/129 623/141/129 610/128/129
f 610/128/129 625/143/129 624/142/129
f 626/147/129 607/123/129 610/128/129
f 626/147/129 610/128/129 624/142/129
f 627/148/129 626/147/129 624/142/129
f 626/147/129 629/149/129 628/146/129
f 607/123/186 626/147/186 628/146/186
f 628/146/129 630/145/129 607/123/129
f 632/130/129 631/129/129 607/123/129
f 630/145/129 633/144/129 607/123/129
f 633/144/129 632/130/129 607/123/129
f 630/145/129 635/151/129 634/150/129
f 633/144/129 630/145/129 634/150/129
f 638/136/129 637/133/129 636/152/129
f 638/136/129 636/152/129 639/137/129
f 641/134/129 638/136/129 640/135/129
f 638/136/129 639/137/129 640/135/129
f 637/133/129 642/131/129 636/152/129
f 642/131/129 643/132/129 636/152/129
f 636/152/129 645/141/129 644/139/129
f 646/140/129 636/152/129 644/139/129
f 636/152/129 646/140/129 639/137/129
f 646/140/129 647/138/129 639/137/129
f 650/130/129 649/144/129 648/150/129
f 650/130/129 652/143/129 651/129/129
f 652/143/129 650/130/129 648/150/129
f 648/150/129 653/151/129 652/143/129
f 655/148/129 654/142/129 652/143/129
f 653/151/129 656/149/129 652/143/129
f 652/143/129 656/149/129 655/148/129
f 652/143/129 657/153/129 651/129/129
f 653/151/129 658/145/129 656/149/129
f 656/149/129 659/147/129 655/148/129
f 658/145/129 660/146/129 656/149/129
f 663/154/187 662/157/187 661/156/187
f 664/155/187 663/154/187 661/156/187
f 661/156/187 662/157/187 665/158/187
f 667/161/187 666/160/187 662/157/187
f 662/157/187 668/159/187 665/158/187
f 666/160/187 668/159/187 662/157/187
f 671/162/86 670/164/86 669/165/86
f 672/163/86 671/162/86 669/165/86
f 669/165/86 670/164/86 673/166/86
f 670/164/86 674/167/86 673/166/86
f 675/168/86 674/167/86 670/164/86
f 676/169/86 675/168/86 670/164/86
f 678/171/86 677/170/86 670/164/86
f 677/170/86 676/169/86 670/164/86
s 1
f 681/177/188 680/173/188 679/174/189
f 679/174/189 683/172/189 682/176/190
f 680/173/188 683/172/189 679/174/189
f 683/172/189 684/175/191 682/176/190
f 687/180/192 686/179/192 685/181/192
f 686/179/192 688/178/192 685/181/192
f 691/184/193 690/183/194 689/185/193
f 690/183/194 692/182/194 689/185/193
s 0
f 695/188/195 694/187/195 693/189/195
f 694/187/195 696/186/195 693/189/195
f 699/192/196 698/191/196 697/193/196
f 698/191/196 700/190/196 697/193/196
f 703/196/197 702/195/197 701/197/197
f 702/195/198 704/194/198 701/197/198
f 707/200/199 706/199/199 705/201/199
f 706/199/200 708/198/200 705/201/200
f 711/205/201 710/203/201 709/204/201
f 710/203/202 712/202/202 709/204/202
s 1
f 715/172/203 714/174/203 713/177/203
f 716/173/203 715/172/203 713/177/203
f 719/208/204 718/207/204 717/209/204
f 718/207/204 720/206/204 717/209/204
f 723/180/205 722/179/206 721/181/207
f 722/179/206 724/178/206 721/181/207
f 727/213/208 726/211/208 725/212/208
f 726/211/208 728/210/208 725/212/208
s 0
f 731/217/102 730/215/102 729/216/102
f 733/219/102 732/218/102 731/217/102
f 732/218/102 730/215/102 731/217/102
f 730/215/102 734/214/102 729/216/102
f 737/223/209 736/221/209 735/222/209
f 739/225/209 738/224/209 737/223/209
f 741/226/209 740/227/209 737/223/209
f 738/224/209 736/221/209 737/223/209
f 740/227/209 739/225/209 737/223/209
f 736/221/209 742/220/209 735/222/209
s 1
f 745/231/210 744/229/210 743/230/211
f 747/233/212 746/232/213 745/231/210
f 746/232/213 744/229/210 745/231/210
f 744/229/210 748/228/211 743/230/211
f 749/234/214 746/232/213 747/233/212
f 750/235/214 749/234/214 747/233/212
s 0
f 753/237/215 752/236/215 751/235/215
f 752/236/215 754/234/215 751/235/215
f 757/239/216 756/238/216 755/237/216
f 756/238/216 758/236/216 755/237/216
f 761/241/217 760/240/217 759/239/217
f 760/240/217 762/238/217 759/239/217
f 765/243/218 764/242/218 763/241/218
f 764/242/218 766/240/218 763/241/218
f 769/176/219 768/175/219 767/243/219
f 768/175/219 770/242/219 767/243/219
f 773/247/102 772/245/102 771/246/102
f 773/247/102 774/249/102 772/245/102
f 772/245/102 775/244/102 771/246/102
f 774/249/102 776/248/102 772/245/102
f 779/251/220 778/250/220 777/249/220
s 1
f 781/253/221 780/252/221 779/251/220
f 780/252/221 778/250/220 779/251/220
s 0
f 778/250/220 782/248/220 777/249/220
s 1
f 783/254/222 780/252/221 781/253/221
f 784/255/222 783/254/222 781/253/221
f 785/256/223 783/254/222 784/255/222
f 786/257/223 785/256/223 784/255/222
f 789/261/224 788/259/224 787/260/225
f 791/263/226 790/262/226 789/261/224
f 790/262/226 788/259/224 789/261/224
f 788/259/224 792/258/225 787/260/225
f 795/265/227 794/264/227 793/263/228
f 797/266/229 796/267/229 795/265/227
f 796/267/229 794/264/227 795/265/227
f 794/264/227 798/262/228 793/263/228
f 799/269/230 796/267/229 797/266/229
f 800/268/230 799/269/230 797/266/229
f 801/270/231 799/269/230 800/268/230
f 802/271/231 801/270/231 800/268/230
f 803/272/232 801/270/231 802/271/231
f 804/273/232 803/272/232 802/271/231
s 0
f 806/246/232 805/244/232 803/272/232
f 804/273/232 806/246/232 803/272/232
f 809/276/86 808/275/86 807/274/86
f 812/277/86 811/274/86 810/278/86
f 814/280/86 812/277/86 813/279/86
f 812/277/86 815/276/86 811/274/86
f 812/277/86 810/278/86 813/279/86
f 816/281/86 814/280/86 813/279/86
f 819/287/81 818/283/81 817/284/81
f 817/284/81 821/282/81 820/286/81
f 818/283/81 821/282/81 817/284/81
s 1
f 820/286/81 823/285/81 822/289/233
s 0
f 821/282/81 823/285/81 820/286/81
s 1
f 822/289/233 825/288/233 824/291/234
f 823/285/81 825/288/233 822/289/233
f 825/288/233 826/290/234 824/291/234
f 829/295/235 828/293/235 827/294/1
f 831/297/236 830/296/236 829/295/235
f 830/296/236 828/293/235 829/295/235
f 828/293/235 832/292/1 827/294/1
f 833/298/237 830/296/236 831/297/236
f 834/299/237 833/298/237 831/297/236
f 836/301/238 835/300/238 834/299/239
f 835/300/238 837/298/239 834/299/239
f 838/302/240 835/300/238 836/301/238
f 839/303/240 838/302/240 836/301/238
f 840/304/241 838/302/240 839/303/240
f 841/305/241 840/304/241 839/303/240
f 842/306/242 840/304/241 841/305/241
f 843/307/242 842/306/242 841/305/241
f 844/308/243 842/306/242 843/307/242
f 845/309/244 844/308/243 843/307/242
f 848/311/245 847/310/245 846/309/246
f 850/313/247 849/312/247 848/311/245
f 849/312/247 847/310/245 848/311/245
f 847/310/245 851/308/246 846/309/246
f 852/315/248 849/312/247 850/313/247
f 853/314/249 852/315/248 850/313/247
f 856/291/250 855/290/250 854/317/250
f 855/290/250 857/316/250 854/317/250
s 0
f 860/318/1 859/320/1 858/319/1
f 862/321/1 861/322/1 860/318/1
f 861/322/1 859/320/1 860/318/1
f 859/320/1 863/323/1 858/319/1
f 866/71/129 865/75/129 864/123/129
f 866/71/129 864/123/129 867/73/129
f 864/123/129 868/153/129 867/73/129
f 865/75/129 869/122/129 864/123/129
f 869/122/129 865/75/129 870/124/129
f 865/75/129 871/324/129 870/124/129
f 873/125/129 870/124/129 872/105/129
f 870/124/129 871/324/129 872/105/129
f 875/103/129 874/126/129 872/105/129
f 874/126/129 873/125/129 872/105/129
f 877/152/129 874/126/129 876/101/129
f 874/126/129 875/103/129 876/101/129
f 877/152/129 876/101/129 878/100/129
f 879/120/129 877/152/129 878/100/129
f 879/120/129 880/119/129 877/152/129
f 880/119/129 881/128/129 877/152/129
f 878/100/129 882/114/129 879/120/129
f 882/114/129 878/100/129 883/98/129
f 884/113/129 882/114/129 883/98/129
f 883/98/129 885/96/129 884/113/129
f 885/96/129 886/112/129 884/113/129
f 885/96/129 887/94/129 886/112/129
f 887/94/129 888/121/129 886/112/129
f 887/94/129 889/91/129 888/121/129
f 889/91/129 890/115/129 888/121/129
f 889/91/129 891/89/129 890/115/129
f 891/89/129 892/107/129 890/115/129
f 894/86/129 893/110/129 891/89/129
f 893/110/129 892/107/129 891/89/129
f 895/111/129 893/110/129 894/86/129
f 896/84/129 895/111/129 894/86/129
f 897/117/129 895/111/129 896/84/129
f 898/83/129 897/117/129 896/84/129
f 899/116/129 897/117/129 898/83/129
f 900/80/129 899/116/129 898/83/129
f 901/109/129 899/116/129 900/80/129
f 902/78/129 901/109/129 900/80/129
f 904/118/129 901/109/129 903/76/129
f 902/78/129 903/76/129 901/109/129
f 867/73/129 868/153/129 903/76/129
f 868/153/129 904/118/129 903/76/129
f 880/119/129 904/118/129 868/153/129
f 881/128/129 880/119/129 868/153/129
s 1
f 907/325/251 906/326/252 905/327/253
f 909/328/254 905/327/254 908/329/254
f 906/326/252 910/330/255 905/327/253
f 905/327/253 910/330/255 911/329/255
s 0
f 914/331/1 913/325/1 912/332/1
f 916/333/1 914/331/1 915/334/1
f 914/331/1 912/332/1 915/334/1
f 913/325/1 917/335/1 912/332/1
f 917/335/1 913/325/1 918/336/1
f 913/325/1 919/327/1 918/336/1
f 919/327/1 920/328/1 918/336/1
f 920/328/1 921/337/1 918/336/1
f 923/338/1 922/339/1 920/328/1
f 922/339/1 921/337/1 920/328/1
f 915/334/1 922/339/1 923/338/1
f 916/333/1 915/334/1 923/338/1
f 926/340/1 925/341/1 924/342/1
f 927/343/1 926/340/1 924/342/1
f 929/344/1 928/345/1 924/342/1
f 925/341/1 929/344/1 924/342/1
f 931/337/1 930/346/1 928/345/1
f 929/344/1 931/337/1 928/345/1
f 929/344/1 933/347/1 932/348/1
f 929/344/1 934/349/1 931/337/1
f 934/349/1 929/344/1 932/348/1
f 931/337/1 936/350/1 935/351/1
f 930/346/1 931/337/1 935/351/1
f 935/351/256 937/352/256 930/346/256
f 940/353/256 939/354/256 938/355/256
f 941/356/1 940/353/1 938/355/1
f 941/356/1 938/355/1 942/336/1
f 938/355/1 944/357/1 943/358/1
f 938/355/1 943/358/1 942/336/1
f 945/359/256 941/356/256 942/336/256
f 947/360/1 946/361/1 945/359/1
f 949/362/1 948/363/1 945/359/1
f 942/336/1 947/360/1 945/359/1
f 946/361/1 949/362/1 945/359/1
f 951/332/1 950/364/1 947/360/1
f 947/360/1 942/336/1 951/332/1
f 942/336/1 952/334/1 951/332/1
f 942/336/1 953/339/1 952/334/1
f 955/351/1 954/350/1 953/339/1
f 957/343/1 956/352/1 953/339/1
f 953/339/1 942/336/1 958/340/1
f 956/352/1 955/351/1 953/339/1
f 958/340/257 957/343/257 953/339/257
f 957/343/1 959/342/1 956/352/1
f 961/345/1 960/346/1 956/352/1
f 959/342/1 961/345/1 956/352/1
f 942/336/1 962/347/1 958/340/1
f 958/340/1 962/347/1 963/341/1
f 943/358/1 964/365/1 942/336/1
f 942/336/1 966/349/1 965/348/1
f 962/347/1 942/336/1 965/348/1
f 962/347/256 967/344/256 963/341/256
f 944/357/1 968/366/1 943/358/1
f 971/366/1 970/357/1 969/335/1
f 972/358/1 971/366/1 969/335/1
f 970/357/1 973/355/1 969/335/1
f 973/355/1 974/354/1 969/335/1
f 974/354/1 975/353/1 969/335/1
f 975/353/1 976/356/1 969/335/1
f 976/356/1 977/359/1 969/335/1
f 977/359/1 978/363/1 969/335/1
f 978/363/1 979/362/1 969/335/1
f 979/362/1 980/364/1 969/335/1
f 979/362/258 981/361/258 980/364/258
f 981/361/1 982/360/1 980/364/1
f 983/365/1 972/358/1 969/335/1
f 986/367/86 985/368/86 984/369/86
f 985/368/86 987/370/86 984/369/86
f 987/370/86 985/368/86 988/371/86
f 985/368/86 989/372/86 988/371/86
f 990/373/86 989/372/86 985/368/86
f 991/374/86 990/373/86 985/368/86
f 993/375/86 992/376/86 985/368/86
f 992/376/86 991/374/86 985/368/86
f 996/377/129 995/378/129 994/379/129
f 995/378/129 997/380/129 994/379/129
f 995/378/129 999/381/129 998/382/129
f 997/380/129 995/378/129 998/382/129
s 1
f 1002/350/259 1001/350/259 1000/351/260
f 1000/351/260 1004/351/260 1003/352/261
f 1001/350/259 1004/351/260 1000/351/260
f 1003/352/261 1006/352/261 1005/346/262
f 1004/351/260 1006/352/261 1003/352/261
f 1005/346/262 1008/346/263 1007/345/264
f 1006/352/261 1008/346/263 1005/346/262
f 1008/346/263 1009/345/264 1007/345/264
s 0
f 1012/383/102 1011/384/102 1010/385/102
f 1014/386/102 1013/387/102 1012/383/102
f 1013/387/102 1011/384/102 1012/383/102
f 1011/384/102 1015/388/102 1010/385/102
s 1
f 1018/389/265 1017/390/266 1016/391/266
f 1019/392/267 1018/389/265 1016/391/266
s 0
f 1020/393/266 1019/392/266 1016/391/266
s 1
f 1017/390/266 1021/394/266 1016/391/266
f 1024/360/268 1023/360/268 1022/364/269
f 1026/361/270 1025/361/270 1024/360/268
f 1025/361/270 1023/360/268 1024/360/268
f 1023/360/268 1027/364/269 1022/364/269
f 1028/362/271 1025/361/270 1026/361/270
f 1029/362/271 1028/362/271 1026/361/270
f 1030/363/272 1028/362/271 1029/362/271
f 1031/363/272 1030/363/272 1029/362/271
s 0
f 1034/359/273 1033/359/273 1032/363/273
f 1033/359/273 1035/363/273 1032/363/273
f 1038/356/274 1037/356/274 1036/359/274
f 1037/356/274 1039/359/274 1036/359/274
f 1042/353/275 1041/353/275 1040/356/275
f 1041/353/275 1043/356/275 1040/356/275
f 1046/354/276 1045/354/276 1044/353/276
f 1045/354/276 1047/353/276 1044/353/276
s 1
f 1050/355/277 1049/355/277 1048/354/277
f 1049/355/277 1051/354/277 1048/354/277
f 1054/357/278 1053/357/278 1052/355/279
f 1056/366/280 1055/366/280 1054/357/278
f 1055/366/280 1053/357/278 1054/357/278
f 1053/357/278 1057/355/279 1052/355/279
f 1060/358/281 1059/358/281 1058/366/281
f 1059/358/281 1061/366/281 1058/366/281
f 1064/365/132 1063/365/132 1062/358/132
f 1063/365/132 1065/358/132 1062/358/132
f 1068/348/282 1067/348/282 1066/349/283
f 1070/347/284 1069/347/284 1068/348/282
f 1069/347/284 1067/348/282 1068/348/282
f 1067/348/282 1071/349/283 1066/349/283
s 0
f 1074/344/285 1073/344/285 1072/347/285
f 1073/344/285 1075/347/285 1072/347/285
s 1
f 1078/341/286 1077/341/286 1076/344/287
f 1080/340/288 1079/340/288 1078/341/286
f 1079/340/288 1077/341/286 1078/341/286
f 1077/341/286 1081/344/287 1076/344/287
s 0
f 1084/343/289 1083/343/289 1082/340/289
f 1083/343/289 1085/340/289 1082/340/289
s 1
f 1088/342/290 1087/342/290 1086/343/290
f 1087/342/290 1089/343/290 1086/343/290
f 1092/345/291 1091/345/291 1090/342/291
f 1091/345/291 1093/342/291 1090/342/291
s 0
f 1096/395/1 1095/396/1 1094/330/1
f 1097/397/1 1096/395/1 1094/330/1
f 1098/326/1 1097/397/1 1094/330/1
f 1095/396/1 1099/329/1 1094/330/1
s 1
f 1102/325/292 1101/326/292 1100/398/292
f 1104/326/293 1103/399/294 1100/398/295
f 1105/400/296 1103/399/294 1104/326/293
f 1106/401/297 1105/400/296 1104/326/293
f 1109/325/298 1108/398/299 1107/326/300
f 1111/399/301 1110/400/302 1107/326/300
f 1108/398/299 1111/399/301 1107/326/300
f 1110/400/302 1112/401/303 1107/326/300
f 1115/402/304 1114/403/305 1113/404/306
f 1116/405/307 1115/402/304 1113/404/306
s 0
f 1119/406/308 1118/407/308 1117/408/308
f 1121/409/308 1120/410/308 1119/406/308
f 1120/410/308 1118/407/308 1119/406/308
f 1118/407/308 1122/411/308 1117/408/308
f 1125/412/309 1124/413/309 1123/414/309
f 1124/413/309 1126/415/309 1123/414/309
