# Blender 4.5.2 LTS
# www.blender.org
mtllib sponza_OuterWall.mtl
o OuterWall
v 5.693027 3.379486 1.655546
v 5.693027 2.963323 -1.194344
v 5.693027 2.963323 1.655551
v 5.693027 3.379486 -1.194344
v 5.693027 3.379486 -1.194344
v -4.487703 2.963323 -1.194339
v 5.693027 2.963323 -1.194344
v -4.487703 3.379486 -1.194339
v -4.487703 2.963323 -1.194339
v -4.487703 3.379486 1.655551
v -4.487703 2.963323 1.655551
v -4.487703 3.379486 -1.194339
v 5.693027 3.379486 1.655546
v -4.487703 2.963323 1.655551
v -4.487703 3.379486 1.655551
v 5.693027 2.963323 1.655551
v -0.939784 1.436085 -2.930947
v -1.731979 1.436085 -2.985825
v -1.731979 1.436085 -2.930947
v -0.939789 1.436085 -2.985825
v -0.939784 2.253949 -2.930947
v -0.939789 1.436085 -2.985825
v -0.939784 1.436085 -2.930947
v -0.939784 2.253949 -2.985825
v -1.731979 1.436085 -2.930947
v -1.731979 2.260092 -2.985825
v -1.731979 2.260092 -2.930947
v -1.731979 1.436085 -2.985825
v -1.731979 2.260092 -2.985825
v -1.636052 2.258222 -2.985825
v -1.636052 2.258222 -2.930947
v -1.731979 2.260092 -2.930947
v -1.636052 2.258222 -2.985825
v -1.572466 2.281517 -2.985825
v -1.572466 2.281517 -2.930947
v -1.636052 2.258222 -2.930947
v -1.572466 2.281517 -2.930947
v -1.479146 2.303389 -2.985825
v -1.479146 2.303389 -2.930947
v -1.572466 2.281517 -2.985825
v -1.479146 2.303389 -2.985825
v -1.351148 2.316330 -2.985825
v -1.351148 2.316330 -2.930947
v -1.479146 2.303389 -2.930947
v -1.294157 2.316330 -2.930947
v -1.351148 2.316330 -2.930947
v -1.351148 2.316330 -2.985825
v -1.294157 2.316330 -2.985825
v -1.294157 2.316330 -2.930947
v -1.186806 2.303337 -2.985825
v -1.186806 2.303337 -2.930947
v -1.294157 2.316330 -2.985825
v -1.186806 2.303337 -2.930947
v -1.088532 2.280094 -2.985825
v -1.088532 2.280094 -2.930947
v -1.186806 2.303337 -2.985825
v -1.088532 2.280094 -2.930947
v -1.008422 2.253590 -2.985825
v -1.008422 2.253590 -2.930947
v -1.088532 2.280094 -2.985825
v -1.008422 2.253590 -2.930947
v -0.939784 2.253949 -2.985825
v -0.939784 2.253949 -2.930947
v -1.008422 2.253590 -2.985825
v 2.909381 1.436085 -2.930947
v 2.117191 1.436085 -2.985825
v 2.117191 1.436085 -2.930947
v 2.909381 1.436085 -2.985825
v 2.909381 2.253949 -2.930947
v 2.909381 1.436085 -2.985825
v 2.909381 1.436085 -2.930947
v 2.909386 2.253949 -2.985825
v 2.117191 1.436085 -2.930947
v 2.117191 2.260092 -2.985825
v 2.117191 2.260092 -2.930947
v 2.117191 1.436085 -2.985825
v 2.117191 2.260092 -2.930947
v 2.213118 2.258222 -2.985825
v 2.213118 2.258222 -2.930947
v 2.117191 2.260092 -2.985825
v 2.213118 2.258222 -2.930947
v 2.276704 2.281517 -2.985825
v 2.276704 2.281517 -2.930947
v 2.213118 2.258222 -2.985825
v 2.276704 2.281517 -2.930947
v 2.370024 2.303389 -2.985825
v 2.370024 2.303389 -2.930947
v 2.276704 2.281517 -2.985825
v 2.370024 2.303389 -2.930947
v 2.498022 2.316330 -2.985825
v 2.498022 2.316330 -2.930947
v 2.370024 2.303389 -2.985825
v 2.555013 2.316330 -2.985825
v 2.498022 2.316330 -2.930947
v 2.498022 2.316330 -2.985825
v 2.555013 2.316330 -2.930947
v 2.555013 2.316330 -2.985825
v 2.662364 2.303337 -2.985825
v 2.662364 2.303337 -2.930947
v 2.555013 2.316330 -2.930947
v 2.662364 2.303337 -2.930947
v 2.760638 2.280094 -2.985825
v 2.760638 2.280094 -2.930947
v 2.760638 2.280094 -2.930947
v 2.840743 2.253590 -2.985825
v 2.840743 2.253590 -2.930947
v 2.760638 2.280094 -2.985825
v 2.840743 2.253590 -2.930947
v 2.909386 2.253949 -2.985825
v 2.909381 2.253949 -2.930947
v 2.840743 2.253590 -2.985825
v 2.662364 2.303337 -2.930947
v 2.662364 2.303337 -2.985825
v 2.760638 2.280094 -2.985825
v -4.248034 5.600328 -0.920620
v -4.215226 4.416564 -0.920620
v -4.248034 4.417525 -0.920620
v -3.924838 4.951310 -0.920620
v -4.117061 4.779755 -0.920620
v -3.705758 5.065988 -0.920620
v -3.705758 5.600328 -0.920620
v -3.254253 5.600328 -0.920620
v -3.486684 4.951310 -0.920620
v -3.294461 4.779755 -0.920620
v -3.254253 4.631001 -0.920620
v -3.021823 4.951310 -0.920620
v -3.214045 4.779755 -0.920620
v -2.802743 5.065988 -0.920620
v -2.802743 5.600328 -0.920620
v -2.300868 5.600328 -0.920620
v -2.583668 4.970508 -0.920620
v -2.391446 4.785389 -0.920620
v -2.290544 4.539904 -0.920620
v -2.229518 4.680847 -0.920620
v -2.088393 4.890055 -0.920620
v -1.895828 5.020676 -0.920620
v -1.774280 5.075756 -0.920620
v -1.774280 5.600328 -0.920620
v -1.327448 5.600328 -0.920620
v -1.676234 5.044370 -0.920620
v -1.466221 4.898270 -0.920620
v -1.327448 4.721305 -0.920620
v -1.198807 4.846524 -0.920620
v -1.037746 4.982960 -0.920620
v -0.876686 5.050222 -0.920620
v -0.876686 5.600328 -0.920620
v -0.366253 5.600328 -0.920620
v -0.691141 4.965730 -0.920620
v -0.505597 4.793282 -0.920620
v -0.366253 4.508945 -0.920620
v -0.211319 4.845002 -0.920620
v 0.145555 5.063168 -0.920620
v -0.009376 4.985795 -0.920620
v 0.145555 5.600328 -0.920620
v 0.609886 5.600328 -0.920620
v 0.281698 4.994369 -0.920615
v 0.609873 4.717623 -0.920615
v 0.453861 4.870691 -0.920615
v -4.248034 4.417878 -0.844551
v -4.248034 5.600328 -0.920620
v -4.248034 4.417525 -0.920620
v -4.248034 4.699059 -0.726518
v -4.248034 5.040507 -0.272140
v -4.248034 5.600328 -0.272140
v -4.248034 4.895497 -0.575059
v -4.248034 4.895497 0.030777
v -4.248034 5.600328 0.232408
v -4.248034 4.699058 0.182235
v -4.248034 4.623326 0.232408
v -4.248034 4.699058 0.282582
v -4.248034 4.895497 0.434040
v -4.248034 5.600328 0.736957
v -4.248034 5.040507 0.736957
v -4.248034 5.600328 1.391710
v -4.248034 4.895497 1.039876
v -4.248034 4.417878 1.295419
v -4.248034 4.417524 1.391710
v -4.248034 4.699058 1.191334
v -4.215226 4.416564 1.391710
v -4.248034 5.600328 1.391710
v -4.248034 4.417524 1.391710
v -4.117061 4.779755 1.391710
v -3.924838 4.951310 1.391710
v -3.705758 5.065988 1.391710
v -3.705758 5.600328 1.391710
v -3.254253 5.600328 1.391710
v -3.486684 4.951310 1.391710
v -3.294461 4.779755 1.391710
v -3.254253 4.631001 1.391710
v -3.021823 4.951310 1.391710
v -3.214045 4.779755 1.391710
v -2.802743 5.065988 1.391710
v -2.802743 5.600328 1.391710
v -2.300868 5.600328 1.391710
v -2.583668 4.970508 1.391710
v -2.391446 4.785389 1.391710
v -2.290544 4.539904 1.391710
v -2.229518 4.680847 1.391710
v -2.088393 4.890055 1.391710
v -1.895828 5.020676 1.391710
v -1.774280 5.075756 1.391710
v -1.774280 5.600328 1.391710
v -1.327448 5.600328 1.391710
v -1.676234 5.044370 1.391710
v -1.466221 4.898270 1.391710
v -1.327448 4.721310 1.391710
v -1.198807 4.846524 1.391710
v -1.037746 4.982960 1.391710
v -0.876686 5.050228 1.391710
v -0.876686 5.600328 1.391710
v -0.366253 5.600328 1.391710
v -0.691141 4.965735 1.391710
v -0.505597 4.793282 1.391710
v -0.366253 4.508944 1.391710
v -0.211319 4.845007 1.391710
v 0.145555 5.063168 1.391710
v -0.009376 4.985795 1.391710
v 0.145555 5.600328 1.391710
v 0.609873 5.600328 1.391710
v 0.281698 4.994369 1.391710
v 0.590284 4.717623 1.391710
v 0.453861 4.870697 1.391710
v 5.434975 4.416564 -0.920620
v 5.467762 5.600328 -0.920620
v 5.467762 4.417525 -0.920620
v 5.307429 4.779755 -0.920620
v 5.144582 4.951310 -0.920620
v 4.925507 5.065988 -0.920620
v 4.925507 5.600328 -0.920620
v 4.473998 5.600328 -0.920620
v 4.706428 4.951310 -0.920620
v 4.514205 4.779755 -0.920620
v 4.473998 4.631001 -0.920620
v 4.241567 4.951310 -0.920620
v 4.401453 4.779755 -0.920620
v 4.022492 5.065988 -0.920620
v 4.022492 5.600328 -0.920620
v 3.520617 5.600328 -0.920620
v 3.803413 4.970508 -0.920620
v 3.611195 4.785389 -0.920620
v 3.473082 4.539904 -0.920620
v 3.431332 4.680847 -0.920620
v 3.296116 4.890055 -0.920620
v 3.115577 5.020676 -0.920620
v 2.994029 5.075756 -0.920620
v 2.994029 5.600328 -0.920620
v 2.547198 5.600328 -0.920620
v 2.895978 5.044370 -0.920620
v 2.685965 4.898270 -0.920620
v 2.510765 4.721305 -0.920620
v 2.418556 4.846524 -0.920620
v 2.257490 4.982960 -0.920620
v 2.096430 5.050222 -0.920620
v 2.096430 5.600328 -0.920620
v 1.585997 5.600328 -0.920620
v 1.910886 4.965730 -0.920620
v 1.725346 4.793282 -0.920620
v 1.556876 4.508945 -0.920620
v 1.406009 4.845002 -0.920620
v 1.074193 5.063168 -0.920620
v 1.229121 4.985795 -0.920620
v 1.074193 5.600328 -0.920620
v 0.609886 5.600328 -0.920620
v 0.938048 4.994369 -0.920615
v 0.609873 4.717623 -0.920615
v 0.765886 4.870691 -0.920615
v 5.467762 5.600328 -0.920620
v 5.467762 4.417878 -0.844551
v 5.467762 4.417525 -0.920620
v 5.467762 5.040507 -0.272140
v 5.467762 4.895497 -0.575059
v 5.467762 4.699059 -0.726518
v 5.467762 5.600328 -0.272140
v 5.467762 4.895497 0.030777
v 5.467762 5.600328 0.232408
v 5.467762 4.699058 0.182235
v 5.467762 4.623326 0.232408
v 5.467762 5.600328 0.736957
v 5.467762 4.895497 0.434040
v 5.467762 4.699058 0.282582
v 5.467762 5.600328 1.391710
v 5.467762 5.040507 0.736957
v 5.467762 4.417878 1.295419
v 5.467762 4.417524 1.391710
v 5.467762 4.699058 1.191334
v 5.467762 4.895497 1.039876
v 5.467762 5.600328 1.391710
v 5.434975 4.416564 1.391710
v 5.467762 4.417524 1.391710
v 5.144582 4.951310 1.391710
v 5.312674 4.779755 1.391710
v 4.925507 5.065988 1.391710
v 4.925507 5.600328 1.391710
v 4.473998 5.600328 1.391710
v 4.706428 4.951310 1.391710
v 4.514205 4.779755 1.391710
v 4.473998 4.631001 1.391710
v 4.241567 4.951310 1.391710
v 4.395414 4.779755 1.391710
v 4.022492 5.065988 1.391710
v 4.022492 5.600328 1.391710
v 3.520617 5.600328 1.391710
v 3.803413 4.970508 1.391710
v 3.611195 4.785389 1.391710
v 3.477636 4.539904 1.391710
v 3.433326 4.680847 1.391710
v 3.297279 4.890055 1.391710
v 3.115577 5.020676 1.391710
v 2.994029 5.075756 1.391710
v 2.994029 5.600328 1.391710
v 2.547198 5.600328 1.391710
v 2.895978 5.044370 1.391710
v 2.685965 4.898270 1.391710
v 2.509908 4.721310 1.391710
v 2.418556 4.846524 1.391710
v 2.257490 4.982960 1.391710
v 2.096430 5.050228 1.391710
v 2.096430 5.600328 1.391710
v 1.585997 5.600328 1.391710
v 1.910886 4.965735 1.391710
v 1.725346 4.793282 1.391710
v 1.564005 4.508944 1.391710
v 1.407099 4.845007 1.391710
v 1.074193 5.063168 1.391710
v 1.229121 4.985795 1.391710
v 1.074193 5.600328 1.391710
v 0.609873 5.600328 1.391710
v 0.938048 4.994369 1.391710
v 0.590284 4.717623 1.391710
v 0.765886 4.870697 1.391710
v -4.917643 7.596972 -1.610917
v 5.691729 7.639865 -1.258511
v 5.904271 7.596972 -1.610917
v -4.592614 7.639865 -1.258511
v -4.917643 7.596972 2.164510
v -4.592614 7.639865 -1.258511
v -4.917643 7.596972 -1.610917
v -4.592614 7.639864 1.769368
v -4.917643 7.596972 2.164510
v 5.691729 7.639864 1.769368
v -4.592614 7.639864 1.769368
v 5.904271 7.596972 2.164510
v 5.691729 7.639865 -1.258511
v 5.904271 7.596972 2.164510
v 5.904271 7.596972 -1.610917
v 5.691729 7.639864 1.769368
v 5.479187 5.527707 -0.906101
v -4.917643 5.527708 -1.610917
v 5.904271 5.527708 -1.610917
v 5.904271 5.527707 2.164510
v -4.267585 5.527707 -0.906101
v 5.479187 5.527707 1.374225
v -4.917643 5.527707 2.164510
v -4.267585 5.527707 1.374225
v -4.592614 7.639865 -1.258511
v 5.479187 7.581237 -0.906101
v 5.691729 7.639865 -1.258511
v -4.267585 7.581237 -0.906101
v -4.592614 7.639864 1.769368
v -4.267585 7.581237 -0.906101
v -4.592614 7.639865 -1.258511
v -4.267585 7.581237 1.374226
v -4.592614 7.639864 1.769368
v 5.479187 7.581237 1.374226
v -4.267585 7.581237 1.374226
v 5.691729 7.639864 1.769368
v 5.691729 7.639864 1.769368
v 5.479187 7.581237 -0.906101
v 5.479187 7.581237 1.374226
v 5.691729 7.639865 -1.258511
v 5.904271 5.527707 2.164510
v 5.904271 7.596972 -1.610917
v 5.904271 7.596972 2.164510
v 5.904271 5.527708 -1.610917
v 5.904271 5.527708 -1.610917
v -4.917643 7.596972 -1.610917
v 5.904271 7.596972 -1.610917
v -4.917643 5.527708 -1.610917
v -4.917643 7.596972 2.164510
v -4.917643 5.527708 -1.610917
v -4.917643 5.527707 2.164510
v -4.917643 7.596972 -1.610917
v 5.904271 7.596972 2.164510
v -4.917643 5.527707 2.164510
v 5.904271 5.527707 2.164510
v -4.917643 7.596972 2.164510
v 9.944126 0.157365 -5.340477
v -8.794101 0.157368 5.946371
v 9.944126 0.157368 5.946371
v -8.794101 0.157365 -5.340477
v 9.944126 0.157365 -5.340477
v -8.807550 7.746266 -5.353977
v -8.794101 0.157365 -5.340477
v 9.957576 7.746266 -5.353977
v -8.794101 0.157365 -5.340477
v -8.807550 7.746264 5.959873
v -8.794101 0.157368 5.946371
v -8.807550 7.746266 -5.353977
v -8.794101 0.157368 5.946371
v 9.957576 7.746264 5.959873
v 9.944126 0.157368 5.946371
v -8.807550 7.746264 5.959873
v 9.957576 7.746266 -5.353977
v 9.944126 0.157368 5.946371
v 9.957576 7.746264 5.959873
v 9.944126 0.157365 -5.340477
v -8.734124 0.217330 5.886394
v 9.884150 0.217326 -5.280499
v 9.884150 0.217330 5.886394
v -8.734124 0.217326 -5.280499
v -8.734124 7.809723 -5.280499
v 9.884150 0.217326 -5.280499
v -8.734124 0.217326 -5.280499
v 9.884150 7.809723 -5.280499
v -8.734124 7.809721 5.886395
v -8.734124 0.217326 -5.280499
v -8.734124 0.217330 5.886394
v -8.734124 7.809723 -5.280499
v 9.884150 7.809721 5.886395
v -8.734124 0.217330 5.886394
v 9.884150 0.217330 5.886394
v -8.734124 7.809721 5.886395
v 9.884150 7.809723 -5.280499
v 9.884150 0.217330 5.886394
v 9.884150 0.217326 -5.280499
v 9.884150 7.809721 5.886395
v 9.957576 7.746266 -5.353977
v -8.734124 7.809723 -5.280499
v -8.807550 7.746266 -5.353977
v -8.734124 7.809721 5.886395
v -8.807550 7.746266 -5.353977
v -8.734124 7.809721 5.886395
v -8.807550 7.746264 5.959873
v 9.884150 7.809721 5.886395
v -8.807550 7.746264 5.959873
v 9.884150 7.809721 5.886395
v 9.957576 7.746264 5.959873
v 9.957576 7.746264 5.959873
v 9.884150 7.809723 -5.280499
v 9.957576 7.746266 -5.353977
v -8.734124 7.809723 -5.280499
v 9.957576 7.746264 5.959873
v 9.884150 7.809721 5.886395
v 9.884150 7.809723 -5.280499
v 7.680733 2.908990 3.390871
v 0.979679 0.800354 3.390865
v 7.680733 0.800354 3.390871
v 0.918351 2.113845 3.390248
v 0.785644 2.284092 3.389635
v 0.979679 1.920969 3.390866
v 0.591614 2.365209 3.388404
v 7.680733 2.908991 -2.935750
v 7.680733 0.800354 3.390871
v 7.680733 0.800353 -2.935750
v 7.680733 2.908990 3.390871
v 7.680733 2.908991 -2.935750
v 2.889010 1.447624 -2.935756
v 2.889010 2.239383 -2.935755
v 2.128542 2.239383 -2.935755
v 1.583520 2.908991 -2.935755
v 7.680733 0.800353 -2.935750
v 2.128542 1.447624 -2.935756
v 1.005357 0.800353 -2.935750
v 1.005357 2.044341 -2.935755
v 0.157251 2.044341 -2.935755
v -0.410376 2.908991 -2.935755
v -0.953353 2.240343 -2.935755
v 0.157251 0.800353 -2.935756
v -6.499344 2.908991 -2.935755
v -0.953353 1.445328 -2.935756
v -1.718120 2.240343 -2.935755
v -6.499344 0.800353 -2.935756
v -1.718120 1.445328 -2.935756
v -6.499344 0.800353 -2.935756
v -6.499344 2.908990 3.385938
v -6.499344 2.908991 -2.935755
v -6.499344 0.800354 3.385937
v 0.203552 0.800354 3.385937
v -6.499344 2.908990 3.385938
v -6.499344 0.800354 3.385937
v 0.203552 1.920969 3.385938
v 0.264586 2.119308 3.386556
v 0.591614 2.365209 3.388404
v 0.397583 2.284092 3.387168
v 0.591614 2.908990 3.388404
v 7.680733 2.908990 3.390871
v -6.499499 2.971730 -0.165855
v -6.499499 5.318141 -2.939270
v -6.499499 2.971731 -2.939266
v -6.499499 4.087168 -0.165855
v -6.497059 4.531408 0.222208
v -6.498253 4.450296 0.028177
v -6.498876 4.280050 -0.104528
v -6.497059 5.318141 0.222208
v -6.494566 5.318141 3.371767
v 7.694649 5.318141 -2.939270
v -6.499499 2.971731 -2.939266
v -6.499499 5.318141 -2.939270
v 7.694649 2.971731 -2.939266
v 7.694649 2.971731 -2.939266
v 7.694649 5.318141 3.371767
v 7.694649 2.971735 3.371767
v 7.694649 5.318141 -2.939270
v 7.694649 2.971735 3.371767
v -6.494566 5.318141 3.371767
v -6.494566 2.971735 3.371767
v 7.694649 5.318141 3.371767
v -6.494566 5.318141 3.371767
v -6.494566 2.971730 0.610271
v -6.494566 2.971735 3.371767
v -6.495190 4.285508 0.549236
v -6.494566 4.087168 0.610270
v -6.495812 4.450296 0.416239
v -6.497059 4.531408 0.222208
v -4.896544 7.577188 -1.589792
v 5.687782 7.604295 -1.256554
v 5.883188 7.577344 -1.589631
v -4.590225 7.604191 -1.256372
v -4.896585 7.577136 2.143386
v -4.590225 7.604191 -1.256372
v -4.896544 7.577188 -1.589792
v -4.896585 7.577136 2.143386
v 5.687730 7.604294 1.767660
v -4.590168 7.604190 1.767504
v 5.687782 7.604295 -1.256554
v 5.883240 7.577240 2.143246
v 5.883188 7.577344 -1.589631
v 5.479187 5.563538 -0.906101
v -4.896959 5.548396 -1.590229
v 5.883603 5.548396 -1.590229
v -4.267585 5.563538 -0.906101
v -4.267585 5.563538 -0.906101
v -4.896959 5.548395 2.143822
v -4.896959 5.548396 -1.590229
v -4.267585 5.563538 1.374225
v -4.896959 5.548395 2.143822
v 5.479187 5.563538 1.374225
v 5.883603 5.548395 2.143822
v -4.267585 5.563538 1.374225
v 5.883603 5.548395 2.143822
v 5.479187 5.563538 -0.906101
v 5.883603 5.548396 -1.590229
v 5.479187 5.563538 1.374225
v -4.917643 7.724405 -1.610917
v 5.691729 7.639865 -1.258511
v -4.592614 7.639865 -1.258511
v -4.917643 7.724404 2.164510
v -4.592614 7.639865 -1.258511
v -4.592614 7.639864 1.769368
v -4.917643 7.724405 -1.610917
v -4.917643 7.724404 2.164510
v 5.691729 7.639864 1.769368
v 5.904271 7.649731 2.164510
v 5.904271 7.649731 2.164510
v 5.691729 7.639865 -1.258511
v 5.904271 7.649732 -1.610917
v 5.691729 7.639864 1.769368
v 5.479187 5.527707 -0.906101
v -4.917643 5.527708 -1.610917
v -4.267585 5.527707 -0.906101
v -4.917643 5.527707 2.164510
v -4.267585 5.527707 1.374225
v 5.904271 5.527707 2.164510
v 5.904271 5.527708 -1.610917
v 5.479187 5.527707 1.374225
v -4.896585 7.577136 2.143386
v -4.590168 7.604190 1.767504
v -4.590225 7.604191 -1.256372
v -4.896585 7.577136 2.143386
v 5.883240 7.577240 2.143246
v 5.687730 7.604294 1.767660
v 5.687782 7.604295 -1.256554
v 5.687730 7.604294 1.767660
v 5.883240 7.577240 2.143246
v -4.917643 7.724405 -1.610917
v 5.904271 7.649732 -1.610917
v 5.691729 7.639865 -1.258511
v -4.917643 7.724404 2.164510
v -4.592614 7.639864 1.769368
v 5.691729 7.639864 1.769368
v 5.883603 5.548395 2.143822
v 5.883188 7.577344 -1.589631
v 5.883240 7.577240 2.143246
v 5.883603 5.548396 -1.590229
v -4.896959 5.548396 -1.590229
v -4.896544 7.577188 -1.589792
v 5.883188 7.577344 -1.589631
v 5.883603 5.548396 -1.590229
v -4.896544 7.577188 -1.589792
v -4.896959 5.548395 2.143822
v -4.896585 7.577136 2.143386
v -4.896959 5.548396 -1.590229
v -4.896959 5.548395 2.143822
v 5.883603 5.548395 2.143822
v 5.883240 7.577240 2.143246
v 5.904271 5.527707 2.164510
v 5.904271 7.649732 -1.610917
v 5.904271 5.527708 -1.610917
v 5.904271 7.649731 2.164510
v 5.904271 5.527708 -1.610917
v -4.917643 7.724405 -1.610917
v -4.917643 5.527708 -1.610917
v 5.904271 7.649732 -1.610917
v -4.917643 5.527707 2.164510
v -4.917643 7.724405 -1.610917
v -4.917643 7.724404 2.164510
v -4.917643 5.527708 -1.610917
v 5.904271 5.527707 2.164510
v -4.917643 7.724404 2.164510
v 5.904271 7.649731 2.164510
v -4.917643 5.527707 2.164510
v -4.590225 7.604191 -1.256372
v 5.691729 7.639865 -1.258511
v 5.687782 7.604295 -1.256554
v -4.592614 7.639865 -1.258511
v -4.590168 7.604190 1.767504
v -4.592614 7.639865 -1.258511
v -4.590225 7.604191 -1.256372
v -4.592614 7.639864 1.769368
v 5.691729 7.639864 1.769368
v -4.592614 7.639864 1.769368
v -4.590168 7.604190 1.767504
v 5.687730 7.604294 1.767660
v 5.691729 7.639865 -1.258511
v 5.691729 7.639864 1.769368
v 5.687730 7.604294 1.767660
v 5.687730 7.604294 1.767660
v 5.687782 7.604295 -1.256554
v 5.479187 5.563538 -0.906101
v -4.267585 5.527707 -0.906101
v -4.267585 5.563538 -0.906101
v 5.479187 5.527707 -0.906101
v -4.267585 5.563538 -0.906101
v -4.267585 5.527707 1.374225
v -4.267585 5.563538 1.374225
v -4.267585 5.527707 -0.906101
v -4.267585 5.563538 1.374225
v 5.479187 5.527707 1.374225
v 5.479187 5.563538 1.374225
v -4.267585 5.527707 1.374225
v 5.479187 5.563538 1.374225
v 5.479187 5.527707 -0.906101
v 5.479187 5.563538 -0.906101
v 5.479187 5.527707 1.374225
v -4.896959 5.548395 2.143822
v 5.883240 7.577240 2.143246
v -4.896585 7.577136 2.143386
v 5.447812 3.387987 -0.890310
v 5.447812 2.444525 -0.575350
v 5.447812 1.964106 -0.890310
v 5.447812 2.793269 0.033799
v 5.447812 2.655846 -0.270778
v 5.447812 2.796395 0.228610
v 5.447812 3.387987 0.228610
v -4.251689 2.444525 -0.575350
v -4.251689 3.387987 -0.890310
v -4.251689 1.964106 -0.890310
v -4.251689 2.655846 -0.270778
v -4.251689 2.793269 0.033799
v -4.251689 2.796395 0.228610
v -4.251689 3.387987 0.228610
v 5.447812 2.444524 1.032574
v 5.447812 3.387987 1.347529
v 5.447812 1.964106 1.347529
v 5.447812 2.655846 0.727997
v 5.447812 2.793269 0.423422
v 5.447812 2.796395 0.228610
v 5.447812 3.387987 0.228610
v -4.251689 3.387987 1.347529
v -4.251689 2.444524 1.032574
v -4.251689 1.964106 1.347529
v -4.251689 2.793269 0.423422
v -4.251689 2.655846 0.727997
v -4.251689 2.796395 0.228610
v -4.251689 3.387987 0.228610
v 1.543520 3.387987 -0.890310
v 1.710988 2.523731 -0.890310
v 1.543520 1.964106 -0.890310
v 1.376332 2.521674 -0.890310
v 2.018761 2.800046 -0.890310
v 2.520470 2.924424 -0.890310
v 3.470953 3.387987 -0.890310
v 2.995712 2.794666 -0.890310
v 2.520470 3.387987 -0.890310
v 3.339694 2.521674 -0.890310
v 3.470953 1.964106 -0.890310
v 3.673841 2.523731 -0.890310
v 4.443500 2.924424 -0.890310
v 3.962801 2.776512 -0.890310
v 4.443500 3.387987 -0.890310
v 5.447812 3.387987 -0.890310
v 4.918741 2.794666 -0.890310
v 5.226795 2.521674 -0.890310
v 5.447812 1.964106 -0.890310
v 0.593037 2.924424 -0.890310
v 1.068278 2.794666 -0.890310
v 0.593037 3.387987 -0.890310
v -0.357446 3.387987 -0.890310
v 0.117797 2.800046 -0.890310
v -0.189971 2.523731 -0.890310
v -0.357446 1.964106 -0.890310
v -0.560127 2.523731 -0.890310
v -1.343136 2.924424 -0.890310
v -0.867894 2.800046 -0.890310
v -1.343136 3.387987 -0.890310
v -2.293618 3.387987 -0.890310
v -1.818377 2.794666 -0.890310
v -2.126431 2.521674 -0.890310
v -2.293618 1.964106 -0.890310
v -2.461092 2.523731 -0.890310
v -3.244102 2.924424 -0.890310
v -2.768860 2.800046 -0.890310
v -3.244102 3.387987 -0.890310
v -4.251689 3.387987 -0.890310
v -3.719337 2.794666 -0.890310
v -4.027391 2.521674 -0.890310
v -4.251689 1.964106 -0.890310
v 1.710988 2.523736 1.347529
v 1.543520 3.387987 1.347529
v 1.543520 1.964106 1.347529
v 1.376332 2.521674 1.347529
v 2.018761 2.800045 1.347529
v 2.520470 2.924424 1.347529
v 3.470953 3.387987 1.347529
v 2.995712 2.794666 1.347529
v 2.520470 3.387987 1.347529
v 3.339694 2.521674 1.347529
v 3.470953 1.964106 1.347529
v 3.673841 2.523736 1.347529
v 4.443500 2.924424 1.347529
v 3.962801 2.776511 1.347529
v 4.443500 3.387987 1.347529
v 5.447812 3.387987 1.347529
v 4.918741 2.794666 1.347529
v 5.226795 2.521674 1.347529
v 5.447812 1.964106 1.347529
v 0.593037 2.924424 1.347529
v 1.068278 2.794666 1.347529
v 0.593037 3.387987 1.347529
v -0.357446 3.387987 1.347529
v 0.117797 2.800045 1.347529
v -0.189971 2.523736 1.347529
v -0.357446 1.964106 1.347529
v -0.560127 2.523736 1.347529
v -1.343136 2.924424 1.347529
v -0.867894 2.800045 1.347529
v -1.343136 3.387987 1.347529
v -2.293618 3.387987 1.347529
v -1.818377 2.794666 1.347529
v -2.126431 2.521674 1.347529
v -2.293618 1.964106 1.347529
v -2.461092 2.523736 1.347529
v -3.244102 2.924424 1.347529
v -2.768860 2.800045 1.347529
v -3.244102 3.387987 1.347529
v -4.251689 3.387987 1.347529
v -3.719337 2.794666 1.347529
v -4.027391 2.521674 1.347529
v -4.251689 1.964106 1.347529
v 5.467866 5.600328 1.361706
v 5.467866 5.600328 0.455127
v 5.467866 6.073503 0.455127
v 5.467866 6.073503 0.221064
v 5.467866 7.182274 0.331747
v 5.467866 7.389312 0.332265
v 5.467866 7.547537 1.361706
v 5.467866 7.137044 0.222778
v 5.467866 7.186584 0.117872
v 5.467866 6.073503 -0.009795
v 5.467866 5.600328 -0.896375
v 5.467866 7.376278 0.118533
v 5.467866 5.600328 -0.009794
v 5.467866 7.547537 -0.896375
v 5.467866 7.427687 0.222778
v 5.467866 7.547537 0.232666
v -4.247759 7.547537 1.361706
v -4.247759 5.600328 -0.896375
v -4.247759 5.600328 1.361706
v -4.247759 7.547537 -0.896375
v -2.248145 7.211769 1.361706
v -1.556960 6.073503 1.361706
v -1.092427 6.073503 1.361706
v -0.557987 7.174017 1.361706
v -1.328243 7.547537 1.361706
v -1.094431 5.600328 1.361706
v -2.260571 7.370254 1.361706
v -2.295036 5.600328 1.361706
v -2.373972 7.130398 1.361706
v -1.556960 5.600328 1.361706
v -3.019756 5.600328 1.361706
v -2.478047 7.175575 1.361706
v -3.019756 6.073503 1.361706
v -3.481288 6.073503 1.361706
v -2.474677 7.380951 1.361706
v -4.247759 7.547537 1.361706
v -3.481288 5.600328 1.361706
v -2.373972 7.424830 1.361706
v -4.247759 5.600328 1.361706
v -2.788001 7.547537 1.361706
v -0.449733 7.424830 1.361706
v -0.551397 7.383548 1.361706
v -0.370147 7.547537 1.361706
v 0.587953 7.547537 1.361706
v -0.341073 7.376953 1.361706
v -0.341073 7.175627 1.361706
v 1.533498 7.377472 1.361706
v 0.815165 6.073503 1.361706
v 1.641368 7.424830 1.361706
v 1.546885 7.547537 1.361706
v 0.352860 6.073503 1.361706
v -0.370786 5.600328 1.361706
v -0.449733 7.130398 1.361706
v 0.815165 5.600328 1.361706
v 1.525978 7.181079 1.361706
v 1.641368 7.130398 1.361706
v 1.546002 5.600328 1.361706
v 1.747795 7.179677 1.361706
v 2.288637 6.073503 1.361706
v 2.288637 5.600328 1.361706
v 2.742681 6.073503 1.361706
v 1.746429 7.371241 1.361706
v 2.742681 5.600328 1.361706
v 3.439609 7.201643 1.361706
v 2.505821 7.547537 1.361706
v 3.469187 7.388013 1.361706
v 3.559138 7.424830 1.361706
v 3.986834 7.547537 1.361706
v 3.559138 7.130398 1.361706
v 3.474474 5.600328 1.361706
v 3.689716 7.212860 1.361706
v 4.212285 6.073503 1.361706
v 4.212285 5.600328 1.361706
v 5.467866 7.547537 1.361706
v 3.660678 7.382093 1.361706
v 4.676455 6.073503 1.361706
v 4.676455 5.600328 1.361706
v 5.467866 5.600328 1.361706
v 0.352860 5.600328 1.361706
v -1.556291 6.073503 -0.896375
v -1.328243 7.547537 -0.896375
v -0.551397 7.383548 -0.896375
v -0.557987 7.174017 -0.896375
v -0.449733 7.424830 -0.896375
v -2.260571 7.370254 -0.896375
v -2.373972 7.424830 -0.896375
v -0.370147 7.547537 -0.896375
v -2.788001 7.547537 -0.896375
v 0.587953 7.547537 -0.896375
v -0.341073 7.376953 -0.896375
v 0.808824 6.073503 -0.896375
v 1.533498 7.377472 -0.896375
v 1.641368 7.424830 -0.896375
v 1.546885 7.547537 -0.896375
v -0.341073 7.175627 -0.896375
v 1.525978 7.181079 -0.896375
v 0.352859 6.073503 -0.896375
v 0.808824 5.600328 -0.896375
v -0.370786 5.600328 -0.896375
v -0.449733 7.130398 -0.896375
v 0.352859 5.600328 -0.896375
v -1.094431 5.600328 -0.896375
v -1.092427 6.073503 -0.896375
v -2.248145 7.211769 -0.896375
v -2.295036 5.600328 -0.896375
v -1.556291 5.600328 -0.896375
v -2.373972 7.130398 -0.896375
v -3.019756 5.600328 -0.896375
v -2.478047 7.175575 -0.896375
v -3.019756 6.073503 -0.896375
v -3.483656 6.073503 -0.896375
v -2.474677 7.380951 -0.896375
v -4.247759 7.547537 -0.896375
v -3.483656 5.600328 -0.896375
v -4.247759 5.600328 -0.896375
v 1.641368 7.130398 -0.896375
v 1.546002 5.600328 -0.896375
v 1.747795 7.179677 -0.896375
v 2.285667 6.073503 -0.896375
v 2.285667 5.600328 -0.896375
v 1.746424 7.371241 -0.896375
v 2.742681 6.073503 -0.896375
v 3.439609 7.201643 -0.896375
v 2.505821 7.547537 -0.896375
v 3.469187 7.388013 -0.896375
v 2.742681 5.600328 -0.896375
v 3.559138 7.130398 -0.896375
v 3.474474 5.600328 -0.896375
v 3.689716 7.212860 -0.896375
v 4.215790 6.073503 -0.896375
v 4.215790 5.600328 -0.896375
v 5.467866 7.547537 -0.896375
v 3.660678 7.382093 -0.896375
v 4.676455 6.073503 -0.896375
v 3.559138 7.424830 -0.896375
v 4.676455 5.600328 -0.896375
v 3.986834 7.547537 -0.896375
v 5.467866 5.600328 -0.896375
v 7.657106 0.796411 3.367217
v 7.657106 0.819790 -2.912108
v 7.657106 0.819791 3.367217
v 7.657106 0.796410 -2.912108
v -6.475717 0.796410 -2.912108
v -6.475717 0.819791 3.362295
v -6.475717 0.819790 -2.912108
v -6.475717 0.796411 3.362295
v -6.475717 0.796411 3.362295
v 0.199534 0.819791 3.364621
v -6.475717 0.819791 3.362295
v 0.199534 0.796411 3.364621
v 7.657106 0.796410 -2.912108
v -6.475717 0.819790 -2.912108
v 7.657106 0.819790 -2.912108
v -6.475717 0.796410 -2.912108
v 7.680733 0.819790 -2.935750
v 7.680733 0.796411 3.390871
v 7.680733 0.819791 3.390871
v 7.680733 0.843170 3.390871
v 7.680733 0.843169 -2.935750
v 7.680733 0.796410 -2.935750
v -6.499344 0.819791 3.385937
v -6.499344 0.796410 -2.935756
v -6.499344 0.819790 -2.935756
v -6.499344 0.843169 -2.935756
v -6.499344 0.843170 3.385937
v -6.499344 0.796411 3.385937
v 7.680733 0.819791 3.390871
v 0.982924 0.796411 3.388539
v 0.982924 0.819791 3.388539
v 0.982924 0.843170 3.388539
v 7.680733 0.843170 3.390871
v 7.680733 0.796411 3.390871
v -6.499344 0.819790 -2.935756
v 7.680733 0.796410 -2.935750
v 7.680733 0.819790 -2.935750
v 7.680733 0.843169 -2.935750
v -6.499344 0.843169 -2.935756
v -6.499344 0.796410 -2.935756
v 0.982514 0.819791 3.364891
v 7.657106 0.796411 3.367217
v 7.657106 0.819791 3.367217
v 0.982514 0.796411 3.364891
v 0.199946 0.819791 3.388269
v -6.499344 0.796411 3.385937
v -6.499344 0.819791 3.385937
v 0.199946 0.843170 3.388269
v -6.499344 0.843170 3.385937
v 0.199946 0.796411 3.388264
v 7.657106 0.819790 -2.912108
v 7.680733 0.843170 3.390871
v 7.657106 0.819791 3.367217
v 7.680733 0.843169 -2.935750
v -6.499344 0.843169 -2.935756
v -6.475717 0.819791 3.362295
v -6.499344 0.843170 3.385937
v -6.475717 0.819790 -2.912108
v -6.499344 0.843170 3.385937
v 0.199534 0.819791 3.364621
v 0.199946 0.843170 3.388269
v -6.475717 0.819791 3.362295
v 7.680733 0.843169 -2.935750
v -6.475717 0.819790 -2.912108
v -6.499344 0.843169 -2.935756
v 7.657106 0.819790 -2.912108
v 7.680733 0.796411 3.390871
v 7.680733 0.796410 -2.935750
v 7.657106 0.796410 -2.912108
v 7.657106 0.796411 3.367217
v -6.499344 0.796410 -2.935756
v -6.499344 0.796411 3.385937
v -6.475717 0.796411 3.362295
v -6.475717 0.796410 -2.912108
v -6.499344 0.796411 3.385937
v 0.199946 0.796411 3.388264
v 0.199534 0.796411 3.364621
v -6.475717 0.796411 3.362295
v 7.657106 0.796410 -2.912108
v -6.499344 0.796410 -2.935756
v -6.475717 0.796410 -2.912108
v 7.680733 0.796410 -2.935750
v 0.982514 0.819791 3.364891
v 7.657106 0.819791 3.367217
v 7.680733 0.843170 3.390871
v 0.982924 0.843170 3.388539
v 0.982514 0.796411 3.364891
v 7.680733 0.796411 3.390871
v 7.657106 0.796411 3.367217
v 0.982924 0.796411 3.388539
v 8.075128 0.211701 4.108565
v -6.906512 0.211702 -3.458812
v -6.906512 0.211701 4.108565
v 8.075128 0.211702 -3.458812
v -6.906512 0.211702 -3.458812
v 8.075128 7.414237 -3.458811
v -6.906512 7.414237 -3.458811
v 8.075128 0.211702 -3.458812
v -6.906512 7.414237 -3.458811
v -6.906512 0.211701 4.108565
v -6.906512 0.211702 -3.458812
v -6.906512 7.414237 4.108561
v -6.906512 7.414237 4.108561
v 8.075128 0.211701 4.108565
v -6.906512 0.211701 4.108565
v 8.075128 7.414237 4.108561
v 8.075128 0.211702 -3.458812
v 8.075128 7.414237 4.108561
v 8.075128 7.414237 -3.458811
v 8.075128 0.211701 4.108565
v 7.674657 2.971377 3.352777
v 7.673671 2.994756 -2.918703
v 7.674657 2.994755 3.352777
v 7.673671 2.971373 -2.918703
v -6.475717 2.971373 -2.918707
v -6.475717 2.994755 -0.174394
v -6.475717 2.994756 -2.918707
v -6.475717 2.971377 -0.175348
v 7.673671 2.971373 -2.918703
v -6.475717 2.994756 -2.918707
v 7.673671 2.994756 -2.918703
v -6.475717 2.971373 -2.918707
v 7.697351 2.994756 -2.942350
v 7.698285 2.971377 3.376425
v 7.698285 2.994755 3.376425
v 7.698285 3.018133 3.376425
v 7.697351 3.018134 -2.942350
v 7.697351 2.971373 -2.942350
v -6.499344 2.994755 3.376798
v -6.499344 2.971377 0.616646
v -6.499344 2.994755 0.616645
v -6.499344 3.018133 0.616645
v -6.499344 3.018133 3.376799
v -6.499344 2.971377 3.376798
v 7.698285 2.994755 3.376425
v -6.499344 2.971377 3.376798
v -6.499344 2.994755 3.376798
v -6.499344 3.018133 3.376799
v 7.698285 3.018133 3.376425
v 7.698285 2.971377 3.376425
v -6.499344 2.994756 -2.942356
v 7.697351 2.971373 -2.942350
v 7.697351 2.994756 -2.942350
v 7.697351 3.018134 -2.942350
v -6.499344 3.018134 -2.942355
v -6.499344 2.971373 -2.942356
v -6.475717 2.971377 3.353155
v 7.674657 2.994755 3.352777
v -6.475717 2.994755 3.353155
v 7.674657 2.971377 3.352777
v -6.475717 2.994755 0.617058
v -6.475717 2.971377 3.353155
v -6.475717 2.994755 3.353155
v -6.475717 2.971377 0.617058
v -6.499344 2.994755 -0.174227
v -6.499344 2.971373 -2.942356
v -6.499344 2.994756 -2.942356
v -6.499344 3.018133 -0.173273
v -6.499344 3.018134 -2.942355
v -6.499344 2.971377 -0.175181
v 7.673671 2.994756 -2.918703
v 7.698285 3.018133 3.376425
v 7.674657 2.994755 3.352777
v 7.697351 3.018134 -2.942350
v -6.499344 3.018134 -2.942355
v -6.475717 2.994755 -0.174394
v -6.499344 3.018133 -0.173273
v -6.475717 2.994756 -2.918707
v 7.697351 3.018134 -2.942350
v -6.475717 2.994756 -2.918707
v -6.499344 3.018134 -2.942355
v 7.673671 2.994756 -2.918703
v 7.698285 2.971377 3.376425
v 7.697351 2.971373 -2.942350
v 7.673671 2.971373 -2.918703
v 7.674657 2.971377 3.352777
v -6.499344 2.971373 -2.942356
v -6.475717 2.971377 -0.175348
v -6.475717 2.971373 -2.918707
v -6.499344 2.971377 -0.175181
v 7.673671 2.971373 -2.918703
v -6.499344 2.971373 -2.942356
v -6.475717 2.971373 -2.918707
v 7.697351 2.971373 -2.942350
v -6.499344 3.018133 3.376799
v -6.475717 2.994755 3.353155
v 7.674657 2.994755 3.352777
v 7.698285 3.018133 3.376425
v 7.674657 2.971377 3.352777
v -6.499344 2.971377 3.376798
v 7.698285 2.971377 3.376425
v -6.475717 2.971377 3.353155
v -6.475717 2.994755 0.617058
v -6.499344 3.018133 3.376799
v -6.499344 3.018133 0.616645
v -6.475717 2.994755 3.353155
v -6.475717 2.971377 0.617058
v -6.499344 2.971377 3.376798
v -6.475717 2.971377 3.353155
v -6.499344 2.971377 0.616646
vn 1.0000 -0.0000 -0.0000
vn -0.0000 -0.0000 -1.0000
vn -1.0000 -0.0000 -0.0000
vn -0.0000 -0.0000 1.0000
vn -0.0000 -1.0000 -0.0000
vn 1.0000 -0.0000 -0.0001
vn 0.0195 0.9998 -0.0000
vn -0.3440 0.9390 -0.0000
vn -0.2282 0.9736 -0.0000
vn -0.1006 0.9949 -0.0000
vn -0.0000 1.0000 -0.0000
vn 0.1202 0.9928 -0.0000
vn 0.2302 0.9732 -0.0000
vn 0.3141 0.9494 -0.0000
vn -0.0052 1.0000 -0.0000
vn 1.0000 -0.0000 0.0001
vn -0.0000 -0.9927 0.1208
vn 0.1308 -0.9914 -0.0000
vn -0.0000 -0.9942 -0.1079
vn -0.1978 -0.9802 -0.0000
vn -0.0000 -0.9864 -0.1641
vn -0.1775 -0.9841 -0.0000
vn -0.0000 -0.9892 0.1468
vn 0.2659 -0.9640 -0.0000
vn -0.0000 -0.0018 -1.0000
vn -1.0000 -0.0018 -0.0000
vn -0.0000 -0.0018 1.0000
vn 1.0000 -0.0018 -0.0000
vn -0.3668 0.8534 -0.3704
vn -0.3692 0.8534 -0.3681
vn -0.0000 0.7568 -0.6536
vn -0.6539 0.7566 -0.0000
vn -0.3696 0.8534 0.3676
vn -0.3680 0.8534 0.3692
vn -0.0000 0.7568 0.6536
vn 0.3696 0.8534 -0.3676
vn 0.3680 0.8534 -0.3692
vn 0.6539 0.7566 -0.0000
vn 0.0011 -0.0097 -1.0000
vn 0.0007 -0.0063 -1.0000
vn 0.0005 -0.0032 -1.0000
vn 0.0005 -0.0031 -1.0000
vn 0.0013 -0.0121 -0.9999
vn 0.0004 0.0030 -1.0000
vn 0.0011 0.0098 -1.0000
vn 0.0008 0.0064 -1.0000
vn 0.0013 0.0122 -0.9999
vn 0.0005 0.0033 -1.0000
vn 0.0003 -0.0000 -1.0000
vn 1.0000 -0.0063 -0.0023
vn 1.0000 -0.0047 -0.0018
vn 1.0000 -0.0081 -0.0028
vn 1.0000 -0.0027 -0.0012
vn 1.0000 -0.0028 -0.0013
vn 1.0000 -0.0000 -0.0008
vn 1.0000 0.0028 -0.0012
vn 1.0000 0.0084 -0.0029
vn -0.0000 -0.9967 0.0807
vn 0.0878 -0.9961 -0.0000
vn -0.0000 -0.9974 -0.0718
vn -0.1367 -0.9906 -0.0000
vn -0.0000 0.9998 -0.0221
vn -0.0241 0.9997 -0.0000
vn -0.0000 0.9998 0.0197
vn 0.0374 0.9993 -0.0000
vn -0.0000 0.9724 0.2333
vn 0.2517 0.9678 -0.0000
vn 0.0069 0.9996 -0.0287
vn -0.0464 0.9989 -0.0000
vn 0.0879 -0.9961 -0.0000
vn -0.0000 -0.9974 -0.0719
vn -0.1371 -0.9906 -0.0000
vn 0.0069 0.9995 0.0321
vn -0.0000 0.9779 -0.2092
vn -1.0000 -0.0002 -0.0000
vn -0.0000 -0.0002 1.0000
vn -0.0000 -0.0003 1.0000
vn 1.0000 -0.0002 -0.0000
vn -0.0000 -0.0003 -1.0000
vn -0.0000 0.0549 0.9985
vn -0.0000 0.0550 0.9985
vn -0.0000 0.0598 0.9982
vn -0.0000 0.0599 0.9982
vn 0.9978 0.0668 -0.0000
vn 0.9977 0.0684 -0.0000
vn -0.0000 0.0522 -0.9986
vn -0.0000 0.0480 -0.9988
vn -0.9937 0.1117 -0.0000
vn -0.9939 0.1103 -0.0000
vn -0.0000 -0.0002 -1.0000
vn -0.0003 -0.0000 1.0000
vn -0.0003 -0.0002 1.0000
vn -0.7033 0.7109 -0.0000
vn -0.7034 0.7108 -0.0000
vn 0.7034 0.7108 -0.0000
vn 0.7033 0.7108 -0.0000
vn 0.0002 0.7111 -0.7031
vn 0.0002 0.7112 -0.7030
vn -0.0000 0.7111 0.7031
vn -1.0000 -0.0000 0.0002
vn -0.7034 0.7108 0.0001
vn -0.7025 0.7117 0.0001
vn 0.7033 0.7109 -0.0000
vn -0.0000 0.7112 0.7030
vn -0.0000 0.7112 -0.7030
vn -0.0000 0.7111 -0.7031
vt 8.643900 0.360900
vt 6.496300 0.360900
vt 8.643900 0.681900
vt 6.496300 0.681900
vt -1.315300 0.360900
vt -1.315300 0.681900
vt 16.455500 0.360800
vt 16.455500 0.681900
vt 18.603100 0.360800
vt 18.603100 0.681900
vt 0.493700 0.000000
vt 0.848100 0.000000
vt 0.848100 0.386100
vt 0.493700 0.389000
vt 0.536600 0.388100
vt 0.565100 0.399100
vt 0.606800 0.409400
vt 0.664100 0.415500
vt 0.689600 0.415500
vt 0.737600 0.409400
vt 0.781600 0.398400
vt 0.817400 0.385900
vt -0.088300 -0.445200
vt -0.057000 -0.446100
vt -0.088300 0.681400
vt 0.036500 -0.100200
vt 0.219600 0.063200
vt 0.428200 0.172500
vt 0.428200 0.681400
vt 0.858300 0.681400
vt 0.636900 0.063200
vt 0.820000 -0.100200
vt 0.858300 -0.241900
vt 0.896600 -0.100200
vt 1.079700 0.063200
vt 1.288300 0.172500
vt 1.288300 0.681400
vt 1.766400 0.681400
vt 1.497000 0.081500
vt 1.680100 -0.094800
vt 1.776200 -0.328600
vt 1.834300 -0.194400
vt 1.968800 0.004900
vt 2.152200 0.129300
vt 2.268000 0.181800
vt 2.268000 0.681400
vt 2.693600 0.681400
vt 2.361300 0.151900
vt 2.561400 0.012700
vt 2.693600 -0.155800
vt 2.816100 -0.036600
vt 2.969500 0.093400
vt 3.122900 0.157500
vt 3.122900 0.681400
vt 3.609100 0.681400
vt 3.299600 0.077000
vt 3.476400 -0.087300
vt 3.609100 -0.358100
vt 3.756700 -0.038000
vt 3.949000 0.096100
vt 4.096600 0.169800
vt 4.096600 0.681400
vt 4.529300 0.681400
vt 4.226300 0.104200
vt 4.390300 -0.013600
vt 4.529300 -0.155600
vt 22.723299 -0.445200
vt 22.723299 0.681400
vt 22.673399 -0.444900
vt 22.560900 -0.177000
vt 22.128199 0.681400
vt 22.128199 0.148200
vt 22.416700 0.010100
vt 21.839600 0.010100
vt 21.647600 0.681400
vt 21.695400 -0.177000
vt 21.647600 -0.249200
vt 21.455500 0.010100
vt 21.599800 -0.177000
vt 21.167002 0.681400
vt 21.167002 0.148200
vt 20.571800 0.681400
vt 20.878500 0.010100
vt 20.571800 -0.445200
vt 20.635099 -0.444900
vt 20.734200 -0.177000
vt 20.540600 -0.446100
vt 20.447100 -0.100200
vt 20.264002 0.063200
vt 20.055300 0.681400
vt 20.055300 0.172500
vt 19.846600 0.063200
vt 19.625200 0.681400
vt 19.663500 -0.100200
vt 19.625200 -0.241900
vt 19.587002 -0.100200
vt 19.403900 0.063200
vt 19.195200 0.681400
vt 19.195200 0.172500
vt 18.986500 0.081500
vt 18.717199 0.681400
vt 18.803400 -0.094800
vt 18.707300 -0.328600
vt 18.649200 -0.194400
vt 18.514799 0.004900
vt 18.331400 0.129300
vt 18.215599 0.181800
vt 18.215599 0.681400
vt 17.789999 0.681400
vt 18.122200 0.151900
vt 17.922100 0.012700
vt 17.789999 -0.155800
vt 17.667400 -0.036600
vt 17.514000 0.093400
vt 17.360600 0.157500
vt 17.360600 0.681400
vt 16.874399 0.681400
vt 17.183899 0.077000
vt 17.007200 -0.087300
vt 16.874399 -0.358100
vt 16.726900 -0.038000
vt 16.534500 0.096100
vt 16.386900 0.169800
vt 16.386900 0.681400
vt 15.954200 0.681400
vt 16.257299 0.104200
vt 16.093300 -0.013600
vt 15.972199 -0.155400
vt 0.064400 -0.100200
vt 0.927400 -0.100200
vt 1.811700 -0.328600
vt 1.851400 -0.194400
vt 1.980200 0.004900
vt 2.728300 -0.155800
vt 3.636800 -0.358100
vt 3.780500 -0.038000
vt 20.424099 -0.100200
vt 19.550400 -0.100200
vt 18.676199 -0.328600
vt 18.634001 -0.194400
vt 18.504400 0.004900
vt 17.754499 -0.155800
vt 16.853500 -0.358100
vt 16.704000 -0.038000
vt 15.936700 -0.155600
vt 0.803300 2.341700
vt 0.889900 2.485300
vt 5.213000 2.341700
vt 5.080500 2.485300
vt 5.213000 3.880100
vt 5.080500 3.719100
vt 0.889900 3.719100
vt 0.803300 3.880100
vt 0.803300 1.538400
vt 5.213000 1.538400
vt 0.976500 1.251200
vt 0.803300 0.000000
vt 4.948100 1.251200
vt 0.976500 0.322000
vt 5.213000 0.000000
vt 4.948100 0.322000
vt 0.976500 2.628900
vt 4.948100 2.628900
vt 4.948100 3.558100
vt 0.976500 3.558100
vt 0.000000 3.880100
vt 0.000000 2.341700
vt 6.016300 3.880100
vt 6.016300 2.341700
vt 0.803300 4.683400
vt 5.213000 4.683400
vt 18.410400 2.685700
vt 9.231800 2.685700
vt 18.410400 -2.819400
vt 9.231800 -2.819400
vt 9.231800 -6.575600
vt 18.410400 -6.575600
vt 3.726600 -2.819400
vt 3.726600 -6.575600
vt -5.452000 -2.819400
vt -5.452000 -6.575600
vt 23.915499 -6.575600
vt 23.915499 -2.819400
vt 0.000000 0.987700
vt 4.853800 0.987700
vt 0.000000 2.515100
vt 4.994300 2.062400
vt 4.898200 1.939100
vt 4.853800 1.799400
vt 5.134900 2.121200
vt 25.121099 0.987700
vt 29.703600 0.987700
vt 25.121099 2.515100
vt 29.703600 2.515100
vt 21.650299 2.030000
vt 21.650299 1.456500
vt 21.099499 2.030000
vt 20.704699 2.515100
vt 21.099499 1.456500
vt 20.285900 0.987700
vt 20.285900 1.888800
vt 19.260399 2.515100
vt 19.671600 1.888800
vt 18.867199 2.030700
vt 19.671600 0.987700
vt 14.849999 2.515100
vt 18.867199 1.454900
vt 18.313200 2.030700
vt 14.849999 0.987700
vt 18.313200 1.454900
vt 10.271001 2.515100
vt 10.271001 0.987700
vt 5.415900 0.987700
vt 5.415900 1.799400
vt 5.371700 1.943100
vt 5.275400 2.062400
vt 5.134900 2.515100
vt 11.303200 0.000000
vt 11.303200 1.293700
vt 9.774000 0.000000
vt 9.774000 0.615000
vt 9.667001 0.815200
vt 9.560100 0.860000
vt 9.740200 0.721400
vt 9.560100 1.293700
vt 7.823500 1.293700
vt 19.129400 1.293700
vt 19.129400 0.000000
vt 22.609100 0.000000
vt 22.609100 1.293700
vt 7.823500 0.000000
vt 0.000000 0.000000
vt 0.000000 1.293700
vt 9.346100 0.000000
vt 9.346100 0.615000
vt 9.379700 0.724400
vt 9.453100 0.815200
vt 8.859400 -0.557100
vt 9.128300 -0.100200
vt 8.856400 0.796500
vt 9.418000 0.100800
vt 9.707700 0.231500
vt 9.893100 0.234500
vt 9.893100 0.797200
vt 8.828800 -0.557200
vt 8.828800 0.797200
vt 8.855400 0.796600
vt 5.180400 -0.557200
vt 5.339700 -0.024800
vt 5.180400 0.797200
vt 5.021400 -0.026800
vt 5.632400 0.238000
vt 6.109700 0.356300
vt 6.561700 0.232900
vt 7.013700 0.797200
vt 6.109700 0.797200
vt 6.888900 -0.026800
vt 7.013700 -0.557200
vt 7.206700 -0.024800
vt 7.481600 0.215600
vt 7.938800 0.356300
vt 7.938600 0.797200
vt 8.390699 0.232800
vt 8.683200 -0.027000
vt 4.728400 0.232900
vt 4.276300 0.356300
vt 4.276300 0.797200
vt 3.824300 0.238000
vt 3.372200 0.797200
vt 3.531500 -0.024800
vt 3.372200 -0.557200
vt 3.179400 -0.024800
vt 2.886700 0.238000
vt 2.434700 0.356300
vt 2.434700 0.797200
vt 1.982600 0.232900
vt 1.530600 0.797200
vt 1.689600 -0.026800
vt 1.530600 -0.557200
vt 1.371300 -0.024800
vt 1.078500 0.238000
vt 0.626500 0.356300
vt 0.626500 0.797200
vt 0.174500 0.232900
vt -0.272100 0.795400
vt -0.277600 -0.557200
vt -0.118600 -0.026800
vt -0.274100 0.795000
vt 1.165300 0.448200
vt 1.165300 0.000900
vt 2.022200 0.000900
vt 1.048700 1.496100
vt 0.944100 0.448200
vt 2.022200 1.841400
vt 1.049200 1.691800
vt 0.945700 1.453400
vt 0.722800 0.448200
vt 0.846500 1.500200
vt 0.847200 1.679500
vt -0.112100 0.000900
vt 0.722800 0.000900
vt -0.112100 1.841400
vt 0.945700 1.728100
vt 0.955000 1.841400
vt 11.205100 0.000900
vt 13.339399 0.000900
vt 11.205100 1.841400
vt 13.339399 1.841400
vt 8.222800 0.448200
vt 8.661799 0.448200
vt 9.315100 1.524000
vt 8.445700 1.841400
vt 7.717600 1.488300
vt 8.224700 0.000900
vt 9.326900 1.673800
vt 9.434100 1.447100
vt 9.359500 0.000900
vt 8.661799 0.000900
vt 10.044400 0.000900
vt 9.532400 1.489800
vt 10.044400 0.448200
vt 9.529200 1.683900
vt 10.480700 0.448200
vt 10.480700 0.000900
vt 9.434100 1.725400
vt 9.825399 1.841400
vt 7.711400 1.686400
vt 7.615300 1.725400
vt 7.540100 1.841400
vt 7.512600 1.680100
vt 6.634500 1.841400
vt 7.512600 1.489800
vt 6.419800 0.448200
vt 5.740800 1.680600
vt 5.638900 1.725400
vt 5.728200 1.841400
vt 6.856700 0.448200
vt 7.615300 1.447100
vt 7.540700 0.000900
vt 5.747900 1.495000
vt 6.419800 0.000900
vt 5.729000 0.000900
vt 5.638900 1.447100
vt 5.538300 1.493700
vt 5.027100 0.000900
vt 5.027100 0.448200
vt 5.539600 1.674700
vt 4.597900 0.448200
vt 3.939200 1.514500
vt 4.597900 0.000900
vt 4.821800 1.841400
vt 3.911300 1.690600
vt 3.422000 1.841400
vt 3.826200 1.725400
vt 3.826200 1.447100
vt 3.906300 0.000900
vt 3.702800 1.525000
vt 3.208900 0.000900
vt 3.208900 0.448200
vt 3.730300 1.685000
vt 2.770200 0.448200
vt 2.770200 0.000900
vt 6.856700 0.000900
vt 8.661200 0.448200
vt 6.425800 0.448200
vt 6.425800 0.000900
vt 8.661200 0.000900
vt 10.482900 0.448200
vt 10.482900 0.000900
vt 5.029900 0.448200
vt 5.029900 0.000900
vt 3.205600 0.448200
vt 3.205600 0.000900
vt 8.333000 1.198600
vt 14.896001 1.198600
vt 8.333000 1.260500
vt 14.896001 1.260500
vt -12.996200 1.198600
vt -6.438300 1.198600
vt -12.996200 1.260500
vt -6.438300 1.260500
vt 0.538500 1.198600
vt 0.538500 1.260500
vt -27.767700 1.198600
vt -27.767700 1.260500
vt 8.308300 1.074800
vt 8.308300 1.012800
vt 14.920799 1.074800
vt 8.308300 1.136700
vt 14.920799 1.136700
vt 14.920799 1.012800
vt -13.021001 1.074800
vt -13.021001 1.012800
vt -6.413600 1.074800
vt -13.021001 1.136700
vt -6.413600 1.136700
vt -6.413600 1.012800
vt 1.357300 1.074800
vt 1.357300 1.012800
vt 8.357699 1.074800
vt 1.357300 1.136700
vt 8.357699 1.136700
vt 8.357699 1.012800
vt -27.792398 1.074800
vt -27.792398 1.012800
vt -12.971499 1.074800
vt -27.792398 1.136700
vt -12.971499 1.136700
vt -12.971499 1.012800
vt 1.356800 1.198600
vt 1.356800 1.260500
vt -6.463100 1.074800
vt -6.463100 1.012800
vt 0.538900 1.074800
vt -6.463100 1.136700
vt 0.538900 1.136700
vt 0.538900 1.012800
vt 14.920799 1.273400
vt 8.308300 1.273400
vt -6.413600 1.273400
vt -13.021001 1.273400
vt 0.538900 1.273300
vt -6.463100 1.272000
vt -12.971499 1.273400
vt -27.792398 1.273400
vt 8.357699 1.274700
vt 1.357300 1.273500
vt -3.643200 0.000000
vt -3.643200 -3.643200
vt -10.855900 0.000000
vt -10.855900 -3.643200
vt -0.000000 3.558800
vt 7.212700 3.558800
vt 7.212700 0.000000
vt -3.643200 3.558800
vt -10.855900 3.558800
vt -14.499100 3.558800
vt -14.499100 0.000000
vt 18.462900 1.096100
vt 22.150400 1.096100
vt 18.462900 1.120600
vt 22.150400 1.120600
vt 6.479000 1.096100
vt 8.086699 1.096100
vt 6.479000 1.120600
vt 8.086100 1.120600
vt -1.820400 1.096100
vt -1.820400 1.120600
vt 18.449099 1.047100
vt 18.449099 1.022600
vt 22.164299 1.047100
vt 18.449099 1.071600
vt 22.164299 1.071600
vt 22.164299 1.022600
vt 8.551200 1.047100
vt 8.551200 1.022600
vt 10.177500 1.047100
vt 8.551200 1.071600
vt 10.177500 1.071600
vt 10.177500 1.022600
vt 11.029500 1.047100
vt 11.029500 1.022600
vt 18.476799 1.047100
vt 11.029500 1.071600
vt 18.476799 1.071600
vt 18.476799 1.022600
vt -1.834300 1.047100
vt -1.834300 1.022600
vt 6.492900 1.047100
vt -1.834300 1.071600
vt 6.492900 1.071600
vt 6.492900 1.022600
vt 11.043200 1.096100
vt 11.043200 1.120600
vt 10.163600 1.096100
vt 10.163600 1.120600
vt 8.551499 1.096100
vt 8.551499 1.120600
vt 6.465100 1.047100
vt 6.465100 1.022600
vt 8.086800 1.047100
vt 6.465100 1.071600
vt 8.087299 1.071600
vt 8.086200 1.022600
vt 22.164299 1.125700
vt 18.449099 1.125700
vt 6.465100 1.125700
vt 8.086200 1.125700
vt 6.492900 1.125700
vt -1.834300 1.125700
vt 11.041900 1.102900
vt 11.029500 1.078400
vt 18.476799 1.126200
vt 11.030800 1.122900
vt 11.043200 1.117800
vt 10.177500 1.125700
vt 8.551200 1.125700
s 0
usemtl m5bricks
f 3/1/1 2/2/1 1/3/1
f 2/2/1 4/4/1 1/3/1
f 7/2/2 6/5/2 5/4/2
f 6/5/2 8/6/2 5/4/2
f 11/7/3 10/8/3 9/9/3
f 10/8/3 12/10/3 9/9/3
f 15/8/4 14/7/4 13/3/4
f 14/7/4 16/1/4 13/3/4
f 19/11/5 18/11/5 17/12/5
f 18/11/5 20/12/5 17/12/5
f 23/12/6 22/12/6 21/13/6
f 22/12/1 24/13/1 21/13/1
f 27/14/3 26/14/3 25/11/3
f 26/14/3 28/11/3 25/11/3
f 31/15/7 30/15/7 29/14/7
f 32/14/7 31/15/7 29/14/7
f 35/16/8 34/16/8 33/15/8
f 36/15/8 35/16/8 33/15/8
f 39/17/9 38/17/9 37/16/9
f 38/17/9 40/16/9 37/16/9
f 43/18/10 42/18/10 41/17/10
f 44/17/10 43/18/10 41/17/10
f 47/18/11 46/18/11 45/19/11
f 48/19/11 47/18/11 45/19/11
f 51/20/12 50/20/12 49/19/12
f 50/20/12 52/19/12 49/19/12
f 55/21/13 54/21/13 53/20/13
f 54/21/13 56/20/13 53/20/13
f 59/22/14 58/22/14 57/21/14
f 58/22/14 60/21/14 57/21/14
f 63/13/15 62/13/15 61/22/15
f 62/13/15 64/22/15 61/22/15
f 67/11/5 66/11/5 65/12/5
f 66/11/5 68/12/5 65/12/5
f 71/12/1 70/12/1 69/13/1
f 70/12/16 72/13/16 69/13/16
f 75/14/3 74/14/3 73/11/3
f 74/14/3 76/11/3 73/11/3
f 79/15/7 78/15/7 77/14/7
f 78/15/7 80/14/7 77/14/7
f 83/16/8 82/16/8 81/15/8
f 82/16/8 84/15/8 81/15/8
f 87/17/9 86/17/9 85/16/9
f 86/17/9 88/16/9 85/16/9
f 91/18/10 90/18/10 89/17/10
f 90/18/10 92/17/10 89/17/10
f 95/18/11 94/18/11 93/19/11
f 94/18/11 96/19/11 93/19/11
f 99/20/12 98/20/12 97/19/12
f 100/19/12 99/20/12 97/19/12
f 103/21/13 102/21/13 101/20/13
f 106/22/14 105/22/14 104/21/14
f 105/22/14 107/21/14 104/21/14
f 110/13/15 109/13/15 108/22/15
f 109/13/15 111/22/15 108/22/15
f 114/21/13 113/20/13 112/20/13
f 117/23/4 116/24/4 115/25/4
f 119/26/4 118/27/4 115/25/4
f 116/24/4 119/26/4 115/25/4
f 118/27/4 120/28/4 115/25/4
f 120/28/4 121/29/4 115/25/4
f 121/29/4 120/28/4 122/30/4
f 120/28/4 123/31/4 122/30/4
f 124/32/4 122/30/4 123/31/4
f 122/30/4 124/32/4 125/33/4
f 127/34/4 126/35/4 122/30/4
f 126/35/4 128/36/4 122/30/4
f 125/33/4 127/34/4 122/30/4
f 128/36/4 129/37/4 122/30/4
f 129/37/4 128/36/4 130/38/4
f 128/36/4 131/39/4 130/38/4
f 132/40/4 130/38/4 131/39/4
f 133/41/4 130/38/4 132/40/4
f 133/41/4 134/42/4 130/38/4
f 134/42/4 135/43/4 130/38/4
f 135/43/4 136/44/4 130/38/4
f 136/44/4 137/45/4 130/38/4
f 137/45/4 138/46/4 130/38/4
f 138/46/4 137/45/4 139/47/4
f 137/45/4 140/48/4 139/47/4
f 140/48/4 141/49/4 139/47/4
f 141/49/4 142/50/4 139/47/4
f 142/50/4 143/51/4 139/47/4
f 143/51/4 144/52/4 139/47/4
f 144/52/4 145/53/4 139/47/4
f 145/53/4 146/54/4 139/47/4
f 146/54/4 145/53/4 147/55/4
f 145/53/4 148/56/4 147/55/4
f 148/56/4 149/57/4 147/55/4
f 149/57/4 150/58/4 147/55/4
f 150/58/4 151/59/4 147/55/4
f 153/60/4 152/61/4 147/55/4
f 151/59/4 153/60/4 147/55/4
f 152/61/4 154/62/4 147/55/4
f 154/62/4 152/61/4 155/63/4
f 152/61/4 156/64/4 155/63/4
f 158/65/4 157/66/4 155/63/4
f 156/64/4 158/65/4 155/63/4
f 161/67/1 160/68/1 159/69/1
f 160/68/1 162/70/1 159/69/1
f 164/71/1 163/72/1 160/68/1
f 160/68/1 165/73/1 162/70/1
f 163/72/1 165/73/1 160/68/1
f 166/74/1 163/72/1 164/71/1
f 167/75/1 166/74/1 164/71/1
f 167/75/1 168/76/1 166/74/1
f 167/75/1 169/77/1 168/76/1
f 171/78/1 170/79/1 167/75/1
f 170/79/1 169/77/1 167/75/1
f 171/78/1 167/75/1 172/80/1
f 173/81/1 171/78/1 172/80/1
f 173/81/1 172/80/1 174/82/1
f 175/83/1 173/81/1 174/82/1
f 177/84/1 176/85/1 174/82/1
f 174/82/1 178/86/1 175/83/1
f 174/82/1 176/85/1 178/86/1
f 181/84/2 180/82/2 179/87/2
f 179/87/2 180/82/2 182/88/2
f 182/88/2 180/82/2 183/89/2
f 185/90/2 184/91/2 180/82/2
f 184/91/2 183/89/2 180/82/2
f 187/92/2 184/91/2 186/93/2
f 184/91/2 185/90/2 186/93/2
f 188/94/2 187/92/2 186/93/2
f 186/93/2 189/95/2 188/94/2
f 191/96/2 186/93/2 190/97/2
f 193/98/2 192/99/2 186/93/2
f 189/95/2 186/93/2 191/96/2
f 192/99/2 190/97/2 186/93/2
f 195/100/2 192/99/2 194/101/2
f 192/99/2 193/98/2 194/101/2
f 196/102/2 195/100/2 194/101/2
f 197/103/2 196/102/2 194/101/2
f 197/103/2 194/101/2 198/104/2
f 198/104/2 194/101/2 199/105/2
f 199/105/2 194/101/2 200/106/2
f 200/106/2 194/101/2 201/107/2
f 194/101/2 202/108/2 201/107/2
f 202/108/2 203/109/2 201/107/2
f 203/109/2 204/110/2 201/107/2
f 204/110/2 203/109/2 205/111/2
f 205/111/2 203/109/2 206/112/2
f 206/112/2 203/109/2 207/113/2
f 207/113/2 203/109/2 208/114/2
f 208/114/2 203/109/2 209/115/2
f 203/109/2 210/116/2 209/115/2
f 210/116/2 211/117/2 209/115/2
f 211/117/2 212/118/2 209/115/2
f 212/118/2 211/117/2 213/119/2
f 213/119/2 211/117/2 214/120/2
f 214/120/2 211/117/2 215/121/2
f 217/122/2 211/117/2 216/123/2
f 215/121/2 211/117/2 217/122/2
f 211/117/2 218/124/2 216/123/2
f 218/124/2 219/125/2 216/123/2
f 219/125/2 220/126/2 216/123/2
f 222/127/2 219/125/2 221/128/2
f 220/126/2 219/125/2 222/127/2
f 225/23/4 224/25/4 223/24/4
f 223/24/4 224/25/4 226/129/4
f 226/129/4 224/25/4 227/27/4
f 229/29/4 228/28/4 224/25/4
f 228/28/4 227/27/4 224/25/4
f 231/31/4 228/28/4 230/30/4
f 228/28/4 229/29/4 230/30/4
f 232/32/4 231/31/4 230/30/4
f 230/30/4 233/33/4 232/32/4
f 235/130/4 230/30/4 234/35/4
f 237/37/4 236/36/4 230/30/4
f 233/33/4 230/30/4 235/130/4
f 236/36/4 234/35/4 230/30/4
f 239/39/4 236/36/4 238/38/4
f 236/36/4 237/37/4 238/38/4
f 240/40/4 239/39/4 238/38/4
f 241/131/4 240/40/4 238/38/4
f 241/131/4 238/38/4 242/132/4
f 242/132/4 238/38/4 243/133/4
f 243/133/4 238/38/4 244/44/4
f 244/44/4 238/38/4 245/45/4
f 238/38/4 246/46/4 245/45/4
f 246/46/4 247/47/4 245/45/4
f 247/47/4 248/48/4 245/45/4
f 248/48/4 247/47/4 249/49/4
f 249/49/4 247/47/4 250/134/4
f 250/134/4 247/47/4 251/51/4
f 251/51/4 247/47/4 252/52/4
f 252/52/4 247/47/4 253/53/4
f 247/47/4 254/54/4 253/53/4
f 254/54/4 255/55/4 253/53/4
f 255/55/4 256/56/4 253/53/4
f 256/56/4 255/55/4 257/57/4
f 257/57/4 255/55/4 258/135/4
f 258/135/4 255/55/4 259/136/4
f 261/60/4 255/55/4 260/61/4
f 259/136/4 255/55/4 261/60/4
f 255/55/4 262/62/4 260/61/4
f 262/62/4 263/63/4 260/61/4
f 263/63/4 264/64/4 260/61/4
f 266/65/4 263/63/4 265/66/4
f 264/64/4 263/63/4 266/65/4
f 269/67/3 268/69/3 267/68/3
f 271/73/3 270/72/3 267/68/3
f 267/68/3 272/70/3 271/73/3
f 267/68/3 268/69/3 272/70/3
f 270/72/3 273/71/3 267/68/3
f 270/72/3 274/74/3 273/71/3
f 274/74/3 275/75/3 273/71/3
f 275/75/3 274/74/3 276/76/3
f 275/75/3 276/76/3 277/77/3
f 275/75/3 279/78/3 278/80/3
f 279/78/3 275/75/3 280/79/3
f 280/79/3 275/75/3 277/77/3
f 278/80/3 282/81/3 281/82/3
f 279/78/3 282/81/3 278/80/3
f 284/84/3 281/82/3 283/85/3
f 281/82/3 286/83/3 285/86/3
f 281/82/3 285/86/3 283/85/3
f 282/81/3 286/83/3 281/82/3
f 289/84/2 288/87/2 287/82/2
f 291/137/2 290/89/2 287/82/2
f 288/87/2 291/137/2 287/82/2
f 290/89/2 292/91/2 287/82/2
f 292/91/2 293/90/2 287/82/2
f 293/90/2 292/91/2 294/93/2
f 292/91/2 295/92/2 294/93/2
f 296/94/2 294/93/2 295/92/2
f 294/93/2 296/94/2 297/95/2
f 299/138/2 298/97/2 294/93/2
f 298/97/2 300/99/2 294/93/2
f 297/95/2 299/138/2 294/93/2
f 300/99/2 301/98/2 294/93/2
f 301/98/2 300/99/2 302/101/2
f 300/99/2 303/100/2 302/101/2
f 304/102/2 302/101/2 303/100/2
f 305/139/2 302/101/2 304/102/2
f 305/139/2 306/140/2 302/101/2
f 306/140/2 307/141/2 302/101/2
f 307/141/2 308/106/2 302/101/2
f 308/106/2 309/107/2 302/101/2
f 309/107/2 310/108/2 302/101/2
f 310/108/2 309/107/2 311/109/2
f 309/107/2 312/110/2 311/109/2
f 312/110/2 313/111/2 311/109/2
f 313/111/2 314/142/2 311/109/2
f 314/142/2 315/113/2 311/109/2
f 315/113/2 316/114/2 311/109/2
f 316/114/2 317/115/2 311/109/2
f 317/115/2 318/116/2 311/109/2
f 318/116/2 317/115/2 319/117/2
f 317/115/2 320/118/2 319/117/2
f 320/118/2 321/119/2 319/117/2
f 321/119/2 322/143/2 319/117/2
f 322/143/2 323/144/2 319/117/2
f 325/122/2 324/123/2 319/117/2
f 323/144/2 325/122/2 319/117/2
f 324/123/2 326/124/2 319/117/2
f 326/124/2 324/123/2 327/125/2
f 324/123/2 328/126/2 327/125/2
f 330/127/2 329/145/2 327/125/2
f 328/126/2 330/127/2 327/125/2
f 333/146/17 332/147/17 331/148/17
f 332/147/17 334/149/17 331/148/17
f 337/148/18 336/149/18 335/150/18
f 336/149/18 338/151/18 335/150/18
f 341/151/19 340/152/19 339/150/19
f 340/152/19 342/153/19 339/150/19
f 345/146/20 344/153/20 343/147/20
f 344/153/20 346/152/20 343/147/20
f 349/154/11 348/155/11 347/156/11
f 349/154/11 347/156/11 350/157/11
f 348/155/11 351/158/11 347/156/11
f 347/156/11 352/159/11 350/157/11
f 348/155/11 353/160/11 351/158/11
f 353/160/11 354/161/11 351/158/11
f 350/157/11 352/159/11 353/160/11
f 352/159/11 354/161/11 353/160/11
f 357/147/21 356/162/21 355/149/21
f 356/162/21 358/163/21 355/149/21
f 361/149/22 360/163/22 359/151/22
f 360/163/22 362/164/22 359/151/22
f 365/164/23 364/165/23 363/151/23
f 364/165/23 366/152/23 363/151/23
f 369/165/24 368/162/24 367/152/24
f 368/162/24 370/147/24 367/152/24
f 373/153/3 372/146/3 371/166/3
f 372/146/3 374/167/3 371/166/3
f 377/146/4 376/148/4 375/154/4
f 376/148/4 378/155/4 375/154/4
f 381/168/1 380/169/1 379/150/1
f 380/169/1 382/148/1 379/150/1
f 385/170/2 384/171/2 383/153/2
f 384/171/2 386/150/2 383/153/2
f 389/172/5 388/173/5 387/174/5
f 388/173/5 390/175/5 387/174/5
f 393/175/25 392/176/25 391/174/25
f 392/176/25 394/177/25 391/174/25
f 397/178/26 396/179/26 395/175/26
f 396/179/26 398/176/26 395/175/26
f 401/180/27 400/181/27 399/178/27
f 400/181/27 402/179/27 399/178/27
f 405/182/28 404/183/28 403/177/28
f 404/183/28 406/174/28 403/177/28
f 409/172/11 408/174/11 407/173/11
f 408/174/11 410/175/11 407/173/11
f 413/175/4 412/174/4 411/176/4
f 412/174/4 414/177/4 411/176/4
f 417/178/1 416/175/1 415/179/1
f 416/175/1 418/176/1 415/179/1
f 421/180/2 420/178/2 419/181/2
f 420/178/2 422/179/2 419/181/2
f 425/174/3 424/183/3 423/177/3
f 424/183/3 426/182/3 423/177/3
s 1
f 429/176/29 428/176/30 427/177/31
f 430/179/32 428/176/30 429/176/29
f 433/179/33 432/179/34 431/176/32
f 434/181/35 432/179/34 433/179/33
f 437/181/35 436/181/35 435/179/35
f 440/177/36 439/177/37 438/182/38
f 441/176/31 439/177/37 440/177/36
f 444/177/38 443/182/38 442/182/38
s 0
f 447/184/2 446/185/2 445/186/2
s 1
f 449/187/39 445/186/40 448/188/41
s 0
f 448/188/42 445/186/42 450/189/42
f 446/185/2 450/189/2 445/186/2
s 1
f 445/186/40 449/187/39 451/190/43
s 0
f 454/191/3 453/192/3 452/193/3
f 453/192/3 455/194/3 452/193/3
f 458/195/4 457/196/4 456/193/4
f 459/197/4 458/195/4 456/193/4
f 460/198/4 459/197/4 456/193/4
f 457/196/4 461/191/4 456/193/4
f 461/191/4 457/196/4 462/199/4
f 463/200/4 461/191/4 462/199/4
f 459/197/4 460/198/4 462/199/4
f 463/200/4 462/199/4 464/201/4
f 460/198/4 464/201/4 462/199/4
f 466/202/4 465/203/4 460/198/4
f 465/203/4 464/201/4 460/198/4
f 466/202/4 467/204/4 465/203/4
f 468/205/4 465/203/4 467/204/4
f 467/204/4 466/202/4 469/206/4
f 470/207/4 468/205/4 467/204/4
f 471/208/4 467/204/4 469/206/4
f 468/205/4 470/207/4 472/209/4
f 470/207/4 473/210/4 472/209/4
f 472/209/4 473/210/4 469/206/4
f 473/210/4 471/208/4 469/206/4
f 476/206/1 475/211/1 474/209/1
f 475/211/1 477/212/1 474/209/1
f 480/212/2 479/211/2 478/213/2
f 479/211/2 481/214/2 478/213/2
f 481/214/44 479/211/44 482/215/44
s 1
f 484/216/45 479/211/46 483/190/47
f 482/215/48 479/211/46 484/216/45
s 0
f 479/211/49 485/217/49 483/190/49
f 485/217/49 486/186/49 483/190/49
f 489/218/1 488/219/1 487/220/1
f 488/219/1 490/221/1 487/220/1
s 1
f 492/222/50 488/219/51 491/223/52
f 492/222/50 493/224/53 488/219/51
s 0
f 493/224/54 490/221/54 488/219/54
f 488/219/55 494/225/55 491/223/55
f 494/225/55 495/226/55 491/223/55
f 498/219/4 497/218/4 496/227/4
f 497/218/4 499/228/4 496/227/4
f 502/229/3 501/230/3 500/228/3
f 501/230/3 503/227/3 500/228/3
f 506/231/2 505/226/2 504/232/2
f 505/226/2 507/233/2 504/232/2
f 510/231/1 509/234/1 508/226/1
f 512/235/56 511/236/56 508/226/56
f 511/236/56 513/237/56 508/226/56
f 509/234/1 512/235/1 508/226/1
s 1
f 508/226/57 513/237/57 514/223/57
s 0
f 517/146/58 516/147/58 515/148/58
f 516/147/58 518/149/58 515/148/58
f 521/148/59 520/149/59 519/150/59
f 524/151/60 523/152/60 522/150/60
f 527/146/61 526/153/61 525/147/61
f 530/154/62 529/155/62 528/156/62
f 529/155/62 531/158/62 528/156/62
f 534/155/63 533/160/63 532/158/63
f 533/160/63 535/161/63 532/158/63
f 538/157/64 537/159/64 536/160/64
f 537/159/64 539/161/64 536/160/64
f 542/154/65 541/156/65 540/157/65
f 541/156/65 543/159/65 540/157/65
f 546/149/66 545/147/66 544/148/66
f 549/151/67 548/149/67 547/150/67
f 548/149/67 550/148/67 547/150/67
f 553/153/68 552/152/68 551/150/68
f 556/146/69 555/147/69 554/153/69
f 555/147/69 557/152/69 554/153/69
f 560/158/5 559/155/5 558/156/5
f 562/161/5 561/160/5 560/158/5
f 561/160/5 559/155/5 560/158/5
f 564/154/5 563/157/5 558/156/5
f 559/155/5 564/154/5 558/156/5
f 563/157/5 565/159/5 558/156/5
f 563/157/5 561/160/5 565/159/5
f 561/160/5 562/161/5 565/159/5
f 568/149/70 567/151/70 566/150/70
f 571/152/71 570/153/71 569/150/71
f 574/153/72 573/152/72 572/147/72
f 577/147/73 576/146/73 575/148/73
f 580/152/74 579/151/74 578/150/74
f 583/153/75 582/146/75 581/166/75
f 582/146/75 584/167/75 581/166/75
f 587/146/76 586/148/76 585/155/76
f 588/154/77 587/146/77 585/155/77
f 591/150/78 590/168/78 589/148/78
f 590/168/78 592/169/78 589/148/78
f 595/153/79 594/170/79 593/171/79
f 598/167/1 597/146/1 596/166/1
f 597/146/1 599/153/1 596/166/1
f 602/155/2 601/148/2 600/154/2
f 601/148/2 603/146/2 600/154/2
f 606/150/3 605/148/3 604/168/3
f 605/148/3 607/169/3 604/168/3
f 610/153/4 609/150/4 608/170/4
f 609/150/4 611/171/4 608/170/4
s 1
f 614/147/80 613/147/81 612/149/82
f 613/147/81 615/149/83 612/149/82
s 0
f 618/149/84 617/149/84 616/151/84
f 617/149/85 619/151/85 616/151/85
f 622/151/86 621/151/86 620/152/86
f 623/152/87 622/151/87 620/152/87
f 626/152/88 625/152/88 624/147/88
f 628/147/89 627/152/89 624/147/89
f 631/158/4 630/158/4 629/156/4
f 630/158/4 632/156/4 629/156/4
f 635/161/1 634/161/1 633/158/1
f 634/161/1 636/158/1 633/158/1
f 639/159/2 638/159/2 637/161/2
f 638/159/2 640/161/2 637/161/2
f 643/156/3 642/156/3 641/159/3
f 642/156/3 644/159/3 641/159/3
f 647/150/90 646/153/90 645/171/90
f 650/238/3 649/239/3 648/240/3
f 652/241/3 651/242/3 648/240/3
f 649/239/3 652/241/3 648/240/3
f 651/242/3 653/243/3 648/240/3
f 653/243/3 654/244/3 648/240/3
f 657/245/1 656/246/1 655/239/1
f 655/239/1 656/246/1 658/241/1
f 658/241/1 656/246/1 659/242/1
f 659/242/1 656/246/1 660/243/1
f 656/246/1 661/244/1 660/243/1
f 664/238/3 663/247/3 662/239/3
f 662/239/3 663/247/3 665/241/3
f 665/241/3 663/247/3 666/242/3
f 666/242/3 663/247/3 667/243/3
f 663/247/3 668/244/3 667/243/3
f 671/245/1 670/239/1 669/246/1
f 673/241/1 672/242/1 669/246/1
f 670/239/1 673/241/1 669/246/1
f 672/242/1 674/243/1 669/246/1
f 674/243/1 675/244/1 669/246/1
f 678/248/4 677/249/4 676/250/4
f 678/248/4 676/250/4 679/251/4
f 677/249/4 680/252/4 676/250/4
f 680/252/4 681/253/4 676/250/4
f 683/254/4 682/255/4 681/253/4
f 681/253/4 684/256/4 676/250/4
f 682/255/4 684/256/4 681/253/4
f 685/257/4 682/255/4 683/254/4
f 686/258/4 682/255/4 685/257/4
f 686/258/4 687/259/4 682/255/4
f 689/260/4 688/261/4 682/255/4
f 687/259/4 689/260/4 682/255/4
f 688/261/4 690/262/4 682/255/4
f 692/263/4 691/240/4 688/261/4
f 691/240/4 690/262/4 688/261/4
f 694/238/4 691/240/4 693/264/4
f 693/264/4 691/240/4 692/263/4
f 696/265/4 676/250/4 695/266/4
f 679/251/4 676/250/4 696/265/4
f 676/250/4 697/267/4 695/266/4
f 699/268/4 695/266/4 698/269/4
f 695/266/4 697/267/4 698/269/4
f 700/270/4 699/268/4 698/269/4
f 701/271/4 700/270/4 698/269/4
f 701/271/4 698/269/4 702/272/4
f 704/273/4 698/269/4 703/274/4
f 702/272/4 698/269/4 704/273/4
f 698/269/4 705/275/4 703/274/4
f 707/276/4 703/274/4 706/277/4
f 703/274/4 705/275/4 706/277/4
f 708/278/4 707/276/4 706/277/4
f 709/279/4 708/278/4 706/277/4
f 709/279/4 706/277/4 710/280/4
f 712/281/4 706/277/4 711/282/4
f 710/280/4 706/277/4 712/281/4
f 706/277/4 713/283/4 711/282/4
f 715/284/4 711/282/4 714/285/4
f 711/282/4 713/283/4 714/285/4
f 717/286/4 716/287/4 714/285/4
f 716/287/4 715/284/4 714/285/4
f 720/248/2 719/250/2 718/249/2
f 720/248/2 721/251/2 719/250/2
f 718/249/2 719/250/2 722/252/2
f 722/252/2 719/250/2 723/253/2
f 725/254/2 723/253/2 724/255/2
f 719/250/2 726/256/2 723/253/2
f 723/253/2 726/256/2 724/255/2
f 727/257/2 725/254/2 724/255/2
f 728/258/2 727/257/2 724/255/2
f 728/258/2 724/255/2 729/259/2
f 731/260/2 724/255/2 730/261/2
f 729/259/2 724/255/2 731/260/2
f 724/255/2 732/262/2 730/261/2
f 734/263/2 730/261/2 733/247/2
f 730/261/2 732/262/2 733/247/2
f 736/238/2 735/264/2 733/247/2
f 735/264/2 734/263/2 733/247/2
f 738/265/2 737/266/2 719/250/2
f 721/251/2 738/265/2 719/250/2
f 737/266/2 739/267/2 719/250/2
f 741/268/2 740/269/2 737/266/2
f 740/269/2 739/267/2 737/266/2
f 742/270/2 740/269/2 741/268/2
f 743/271/2 740/269/2 742/270/2
f 743/271/2 744/272/2 740/269/2
f 746/273/2 745/274/2 740/269/2
f 744/272/2 746/273/2 740/269/2
f 745/274/2 747/275/2 740/269/2
f 749/276/2 748/277/2 745/274/2
f 748/277/2 747/275/2 745/274/2
f 750/278/2 748/277/2 749/276/2
f 751/279/2 748/277/2 750/278/2
f 751/279/2 752/280/2 748/277/2
f 754/281/2 753/282/2 748/277/2
f 752/280/2 754/281/2 748/277/2
f 753/282/2 755/283/2 748/277/2
f 757/284/2 756/288/2 753/282/2
f 756/288/2 755/283/2 753/282/2
f 759/286/2 756/288/2 758/287/2
f 758/287/2 756/288/2 757/284/2
f 762/289/3 761/290/3 760/291/3
f 762/289/3 764/292/3 763/293/3
f 764/292/3 762/289/3 760/291/3
f 766/294/3 765/295/3 760/291/3
f 765/295/3 764/292/3 760/291/3
f 764/292/3 767/296/3 763/293/3
f 769/297/3 763/293/3 768/298/3
f 763/293/3 767/296/3 768/298/3
f 768/298/3 771/299/3 770/300/3
f 768/298/3 770/300/3 769/297/3
f 770/300/3 772/301/3 769/297/3
f 771/299/3 773/302/3 770/300/3
f 773/302/3 771/299/3 774/303/3
f 775/304/3 773/302/3 774/303/3
f 775/304/3 774/303/3 766/294/3
f 774/303/3 765/295/3 766/294/3
f 778/305/1 777/306/1 776/307/1
f 777/306/1 779/308/1 776/307/1
f 782/309/2 781/310/2 780/311/2
f 782/309/2 784/312/2 783/313/2
f 782/309/2 783/313/2 785/314/2
f 784/312/2 782/309/2 780/311/2
f 780/311/2 786/315/2 784/312/2
f 788/316/2 780/311/2 787/317/2
f 780/311/2 781/310/2 787/317/2
f 789/318/2 787/317/2 781/310/2
f 787/317/2 790/319/2 788/316/2
f 791/320/2 788/316/2 790/319/2
f 792/321/2 791/320/2 790/319/2
f 794/322/2 791/320/2 793/323/2
f 791/320/2 792/321/2 793/323/2
f 795/307/2 794/322/2 793/323/2
f 795/307/2 793/323/2 796/324/2
f 794/322/2 795/307/2 797/325/2
f 798/305/2 795/307/2 796/324/2
f 795/307/2 799/326/2 797/325/2
f 797/325/2 799/326/2 784/312/2
f 786/315/2 797/325/2 784/312/2
f 801/327/2 784/312/2 800/328/2
f 784/312/2 801/327/2 783/313/2
f 784/312/2 802/329/2 800/328/2
f 804/330/2 800/328/2 803/331/2
f 800/328/2 802/329/2 803/331/2
f 805/332/2 804/330/2 803/331/2
f 807/333/2 803/331/2 806/334/2
f 806/334/2 803/331/2 808/335/2
f 803/331/2 807/333/2 805/332/2
f 803/331/2 809/336/2 808/335/2
f 807/333/2 810/337/2 805/332/2
f 812/338/2 805/332/2 811/339/2
f 805/332/2 810/337/2 811/339/2
f 807/333/2 814/340/2 813/341/2
f 814/340/2 807/333/2 806/334/2
f 816/342/2 813/341/2 815/343/2
f 814/340/2 815/343/2 813/341/2
f 815/343/2 817/344/2 816/342/2
f 819/345/2 816/342/2 818/346/2
f 817/344/2 818/346/2 816/342/2
f 817/344/2 821/347/2 820/348/2
f 818/346/2 817/344/2 820/348/2
f 820/348/2 823/349/2 822/350/2
f 821/347/2 824/351/2 820/348/2
f 820/348/2 824/351/2 823/349/2
f 821/347/2 808/335/2 824/351/2
f 824/351/2 825/352/2 823/349/2
f 824/351/2 827/353/2 826/354/2
f 808/335/2 809/336/2 824/351/2
f 825/352/2 824/351/2 826/354/2
f 823/349/2 828/355/2 822/350/2
f 829/356/2 822/350/2 828/355/2
f 828/355/2 830/357/2 829/356/2
f 832/358/2 829/356/2 831/359/2
f 830/357/2 831/359/2 829/356/2
f 831/359/2 830/357/2 833/294/2
f 830/357/2 834/360/2 833/294/2
f 835/361/2 831/359/2 833/294/2
f 834/360/2 826/354/2 833/294/2
f 837/291/2 836/362/2 833/294/2
f 826/354/2 827/353/2 833/294/2
f 836/362/2 835/361/2 833/294/2
f 838/363/2 811/339/2 810/337/2
f 811/339/2 785/314/2 812/338/2
f 783/313/2 812/338/2 785/314/2
f 841/327/4 840/312/4 839/364/4
f 841/327/4 839/364/4 842/313/4
f 840/312/4 841/327/4 843/328/4
f 845/325/4 844/315/4 840/312/4
f 846/329/4 840/312/4 843/328/4
f 840/312/4 844/315/4 839/364/4
f 847/326/4 845/325/4 840/312/4
f 846/329/4 843/328/4 848/331/4
f 843/328/4 849/330/4 848/331/4
f 851/334/4 848/331/4 850/365/4
f 853/336/4 848/331/4 852/335/4
f 848/331/4 849/330/4 850/365/4
f 848/331/4 851/334/4 852/335/4
f 849/330/4 854/332/4 850/365/4
f 855/340/4 851/334/4 850/365/4
f 854/332/4 856/337/4 850/365/4
f 855/340/4 850/365/4 857/366/4
f 856/337/4 854/332/4 858/339/4
f 854/332/4 859/338/4 858/339/4
f 860/363/4 856/337/4 858/339/4
f 858/339/4 859/338/4 861/314/4
f 859/338/4 842/313/4 861/314/4
f 842/313/4 862/309/4 861/314/4
f 839/364/4 862/309/4 842/313/4
f 844/315/4 863/311/4 839/364/4
f 839/364/4 863/311/4 864/317/4
f 865/367/4 839/364/4 864/317/4
f 863/311/4 866/316/4 864/317/4
f 864/317/4 866/316/4 867/319/4
f 866/316/4 868/320/4 867/319/4
f 868/320/4 869/321/4 867/319/4
f 869/321/4 868/320/4 870/368/4
f 868/320/4 871/322/4 870/368/4
f 872/307/4 870/368/4 871/322/4
f 870/368/4 872/307/4 873/369/4
f 872/307/4 871/322/4 845/325/4
f 847/326/4 872/307/4 845/325/4
f 872/307/4 874/305/4 873/369/4
f 875/343/4 855/340/4 857/366/4
f 876/342/4 875/343/4 857/366/4
f 877/344/4 875/343/4 876/342/4
f 878/370/4 877/344/4 876/342/4
f 879/371/4 878/370/4 876/342/4
f 881/348/4 880/347/4 877/344/4
f 878/370/4 881/348/4 877/344/4
f 881/348/4 882/349/4 880/347/4
f 884/352/4 883/351/4 880/347/4
f 882/349/4 884/352/4 880/347/4
f 852/335/4 880/347/4 883/351/4
f 882/349/4 881/348/4 885/350/4
f 886/355/4 882/349/4 885/350/4
f 887/356/4 886/355/4 885/350/4
f 888/357/4 886/355/4 887/356/4
f 889/372/4 888/357/4 887/356/4
f 890/373/4 889/372/4 887/356/4
f 892/360/4 888/357/4 891/294/4
f 888/357/4 889/372/4 891/294/4
f 893/361/4 891/294/4 889/372/4
f 892/360/4 891/294/4 894/354/4
f 893/361/4 895/362/4 891/294/4
f 891/294/4 896/353/4 894/354/4
f 895/362/4 897/291/4 891/294/4
f 883/351/4 884/352/4 894/354/4
f 896/353/4 883/351/4 894/354/4
f 853/336/4 852/335/4 883/351/4
f 900/374/3 899/375/3 898/376/3
f 899/375/3 901/377/3 898/376/3
f 904/378/1 903/379/1 902/380/1
f 903/379/1 905/381/1 902/380/1
f 908/379/49 907/382/49 906/381/49
f 907/382/49 909/383/49 906/381/49
f 912/384/4 911/378/4 910/385/4
f 911/378/4 913/380/4 910/385/4
f 916/386/1 915/387/1 914/388/1
f 917/389/1 916/386/1 914/388/1
f 918/390/1 917/389/1 914/388/1
f 915/387/1 919/391/1 914/388/1
f 922/392/3 921/393/3 920/394/3
f 923/395/3 922/392/3 920/394/3
f 924/396/3 923/395/3 920/394/3
f 921/393/3 925/397/3 920/394/3
f 928/398/91 927/399/91 926/400/91
f 929/401/91 928/398/91 926/400/91
f 930/402/91 929/401/91 926/400/91
f 927/399/91 931/403/91 926/400/91
f 934/404/2 933/405/2 932/406/2
f 935/407/2 934/404/2 932/406/2
f 936/408/2 935/407/2 932/406/2
f 933/405/2 937/409/2 932/406/2
f 940/374/49 939/376/49 938/410/49
f 939/376/49 941/411/49 938/410/49
f 944/412/91 943/413/91 942/414/91
f 946/415/91 944/412/91 945/416/91
f 944/412/91 942/414/91 945/416/91
f 943/413/92 947/417/92 942/414/92
s 1
f 950/374/93 949/389/93 948/375/94
f 949/389/93 951/390/94 948/375/94
f 954/396/95 953/379/95 952/395/96
f 953/379/95 955/378/96 952/395/96
f 958/416/97 957/382/97 956/415/98
f 957/382/97 959/379/98 956/415/98
f 962/408/99 961/378/99 960/407/99
f 961/378/99 963/384/99 960/407/99
s 0
f 966/377/5 965/418/5 964/419/5
f 967/376/5 966/377/5 964/419/5
f 970/381/5 969/420/5 968/421/5
f 971/380/5 970/381/5 968/421/5
f 974/383/5 973/422/5 972/423/5
f 975/381/5 974/383/5 972/423/5
f 978/380/5 977/424/5 976/385/5
f 977/424/5 979/425/5 976/385/5
s 1
f 982/402/97 981/374/97 980/410/97
f 983/401/97 982/402/97 980/410/97
s 0
f 986/376/5 985/426/5 984/411/5
f 985/426/5 987/427/5 984/411/5
f 990/428/5 989/429/5 988/430/5
f 989/429/5 991/431/5 988/430/5
f 994/432/2 993/433/2 992/232/2
f 993/433/2 995/434/2 992/232/2
f 998/232/3 997/428/3 996/432/3
f 997/428/3 999/435/3 996/432/3
f 1002/428/4 1001/430/4 1000/435/4
f 1001/430/4 1003/436/4 1000/435/4
f 1006/437/1 1005/436/1 1004/438/1
f 1005/436/1 1007/430/1 1004/438/1
f 1010/439/100 1009/440/100 1008/441/100
f 1009/440/100 1011/442/100 1008/441/100
f 1014/443/1 1013/444/1 1012/445/1
f 1013/444/1 1015/446/1 1012/445/1
f 1018/447/4 1017/443/4 1016/448/4
f 1017/443/4 1019/445/4 1016/448/4
f 1022/449/6 1021/450/6 1020/451/6
f 1023/452/6 1022/449/6 1020/451/6
f 1024/453/6 1023/452/6 1020/451/6
f 1021/450/6 1025/454/6 1020/451/6
f 1028/455/3 1027/456/3 1026/457/3
f 1029/458/3 1028/455/3 1026/457/3
f 1030/459/3 1029/458/3 1026/457/3
f 1027/456/3 1031/460/3 1026/457/3
f 1034/461/4 1033/462/4 1032/463/4
f 1035/464/4 1034/461/4 1032/463/4
f 1036/465/4 1035/464/4 1032/463/4
f 1033/462/4 1037/466/4 1032/463/4
f 1040/467/2 1039/468/2 1038/469/2
f 1041/470/2 1040/467/2 1038/469/2
f 1042/471/2 1041/470/2 1038/469/2
f 1039/468/2 1043/472/2 1038/469/2
f 1046/473/2 1045/439/2 1044/474/2
f 1045/439/2 1047/441/2 1044/474/2
f 1050/475/1 1049/476/1 1048/477/1
f 1049/476/1 1051/478/1 1048/477/1
f 1054/479/3 1053/480/3 1052/481/3
f 1056/482/3 1054/479/3 1055/483/3
f 1054/479/3 1052/481/3 1055/483/3
f 1053/480/3 1057/484/3 1052/481/3
s 1
f 1060/439/101 1059/452/101 1058/440/102
f 1059/452/101 1061/453/102 1058/440/102
f 1064/483/95 1063/444/95 1062/482/103
f 1063/444/95 1065/443/103 1062/482/103
f 1068/471/104 1067/443/104 1066/470/104
f 1067/443/104 1069/447/104 1066/470/104
s 0
f 1072/442/5 1071/485/5 1070/486/5
f 1073/441/5 1072/442/5 1070/486/5
f 1076/445/5 1075/446/5 1074/487/5
f 1075/446/5 1077/488/5 1074/487/5
f 1080/445/5 1079/489/5 1078/448/5
f 1079/489/5 1081/490/5 1078/448/5
s 1
f 1084/439/105 1083/491/106 1082/492/106
f 1085/465/105 1084/439/105 1082/492/106
s 0
f 1088/493/5 1087/494/5 1086/441/5
f 1087/494/5 1089/495/5 1086/441/5
s 1
f 1092/458/96 1091/459/103 1090/477/96
f 1091/459/103 1093/475/103 1090/477/96
s 0
f 1096/476/5 1095/496/5 1094/478/5
f 1095/496/5 1097/497/5 1094/478/5
