# Blender 4.5.2 LTS
# www.blender.org
mtllib sponza_EmptyFrame.mtl
o EmptyFrame
v 0.305599 2.622083 -2.907865
v 0.342248 2.167083 -2.922602
v 0.305598 2.147117 -2.907865
v 0.882749 2.147117 -2.907865
v 0.305598 2.147117 -2.943415
v 0.305598 2.147117 -2.907865
v 0.882749 2.147117 -2.943415
v 0.882749 2.622083 -2.907865
v 0.882749 2.622083 -2.943415
v 0.882749 2.622083 -2.943415
v 0.305599 2.622083 -2.907865
v 0.305599 2.622083 -2.943415
v 0.305599 2.622083 -2.943415
v 0.305598 2.147117 -2.907865
v 0.305598 2.147117 -2.943415
v 0.843757 2.578193 -2.922602
v 0.342248 2.167083 -2.922602
v 0.342249 2.578193 -2.922602
v 0.882749 2.622083 -2.907865
v 0.342249 2.578193 -2.922602
v 0.305599 2.622083 -2.907865
v 0.882749 2.147117 -2.907865
v 0.305598 2.147117 -2.907865
v 0.342248 2.167083 -2.922602
v 0.843757 2.167083 -2.922602
v 0.882749 2.622083 -2.907865
v 0.882749 2.147117 -2.907865
v 0.342249 2.578193 -2.922602
v 0.882749 2.147117 -2.943415
v 0.882749 2.147117 -2.907865
v 0.882749 2.622083 -2.907865
v 0.305599 2.622083 -2.907865
v 0.843757 2.167083 -2.922602
v 0.843757 2.578193 -2.922602
v 0.882749 2.147117 -2.907865
v 0.342248 2.167083 -2.922602
v 0.843757 2.167083 -2.922602
v 0.843757 2.578193 -2.922602
vn 0.3731 -0.0000 0.9278
vn -0.0000 -1.0000 -0.0000
vn 1.0000 -0.0000 -0.0000
vn -0.0000 1.0000 -0.0000
vn -1.0000 -0.0000 -0.0000
vn -0.0000 -0.0000 1.0000
vn -0.0000 -0.3183 0.9480
vn -0.0000 0.5939 0.8046
vn -0.3535 -0.0000 0.9354
vt 0.068400 0.176300
vt 0.092900 0.208500
vt 0.068400 0.903700
vt 0.068400 0.119000
vt 0.937000 0.176300
vt 0.994300 0.903700
vt 0.937000 0.903700
vt 0.994300 0.176300
vt 0.068400 0.961000
vt 0.937000 0.961000
vt 0.011100 0.176300
vt 0.011100 0.903700
vt 0.092900 0.871400
vt 0.901500 0.871400
vt 0.901500 0.208500
vt 0.937000 0.119000
s 0
usemtl m2Material__47
f 3/1/1 2/2/1 1/3/1
f 6/1/2 5/4/2 4/5/2
f 9/6/3 8/7/3 7/8/3
f 12/9/4 11/3/4 10/10/4
f 15/11/5 14/1/5 13/12/5
f 18/13/6 17/2/6 16/14/6
f 21/3/7 20/13/7 19/7/7
f 24/2/8 23/1/8 22/5/8
f 27/5/9 26/7/9 25/15/9
f 2/2/1 28/13/1 1/3/1
f 5/4/2 29/16/2 4/5/2
f 8/7/3 30/5/3 7/8/3
f 11/3/4 31/7/4 10/10/4
f 14/1/5 32/3/5 13/12/5
f 17/2/6 33/15/6 16/14/6
f 20/13/7 34/14/7 19/7/7
f 37/15/8 36/2/8 35/5/8
f 26/7/9 38/14/9 25/15/9
