# Blender 4.4.3
# www.blender.org
mtllib cave_map_large.mtl
o cave_map_large.005
v -47.481201 14.177443 183.377289
v -49.729755 13.711127 184.479980
v -47.021320 13.711127 187.756470
v -44.772766 14.177443 186.653778
v -40.093719 14.565790 192.314178
v -39.117344 16.003460 193.495331
v -41.365898 16.003460 194.598022
v -42.342274 14.565790 193.416901
v -38.844002 17.829477 193.825989
v -41.092556 17.829477 194.928711
v -40.658314 19.655495 191.631165
v -42.906868 19.655495 192.733887
v -42.064331 21.481510 189.930237
v -44.312881 21.481510 191.032959
v -44.772766 21.481508 186.653778
v -47.021320 21.280077 187.756470
v -47.481201 20.236593 183.377289
v -49.729755 19.997492 184.479980
v -50.189636 21.205622 180.100800
v -52.438190 21.205622 181.203522
v -51.573757 20.146101 178.426392
v -54.388294 18.047377 178.305450
v -52.409637 17.829475 177.415192
v -54.384850 16.003458 178.848572
v -52.136295 16.003458 177.745850
v -51.381050 14.177442 178.659515
v -52.438194 14.177442 181.203522
v -53.029354 13.819634 189.682465
v -54.522629 14.170032 187.875977
v -52.475723 13.784742 188.040253
v -51.299973 13.709361 185.809448
v -54.008408 14.177442 182.532959
v -44.080452 14.286405 179.418365
v -42.569744 14.425777 181.401062
v -46.144798 14.195797 178.536011
v -43.380043 14.428349 181.880646
v -45.602409 14.462253 182.421143
v -49.199902 14.194900 178.069153
v -51.503159 13.819634 191.528748
v -50.062469 13.784742 190.959656
v -48.591537 13.834778 189.085938
v -41.642067 14.425777 182.513580
v -41.588192 14.428349 184.048309
v -43.189156 14.462254 185.340546
v -46.933216 14.194901 195.278015
v -40.321442 14.447032 185.580719
v -39.685677 14.194901 188.861176
v -49.647511 15.268888 193.773590
v -49.944046 14.170032 193.414856
v -46.491413 15.849042 195.812500
v -42.936111 16.003460 195.927490
v -43.912491 14.565790 194.746307
v -41.138073 14.444687 183.117950
v -41.011925 15.038548 183.269257
v -40.046295 15.485927 185.913574
v -39.243877 15.849041 189.395660
v -49.496696 16.326298 193.956055
v -46.241539 17.493191 196.114777
v -42.662773 17.829477 196.258148
v -41.033752 15.848014 183.208557
v -39.869228 16.727392 186.127808
v -38.994003 17.493191 189.697937
v -49.636749 17.368458 193.786591
v -47.186218 19.134678 194.439148
v -44.477081 19.655495 194.063324
v -40.642067 16.656431 183.678253
v -39.396904 17.950956 186.699158
v -40.312904 19.134676 188.820038
v -49.904625 18.407001 193.462524
v -47.613907 20.775043 193.921753
v -45.883099 21.481510 192.362396
v -40.807182 17.518845 183.480255
v -39.711411 19.170271 186.318695
v -40.740593 20.775038 188.302643
v -51.381451 18.547455 191.675964
v -50.036434 20.805637 190.991180
v -48.591537 21.280077 189.085938
v -41.726734 17.347696 182.377472
v -41.445293 19.335173 184.221161
v -43.163124 20.805632 185.372040
v -52.907646 18.547455 189.829712
v -52.449692 20.805635 188.071777
v -51.299973 19.997492 185.809448
v -42.654411 17.347696 181.264984
v -43.237144 19.335173 182.053497
v -45.576378 20.805632 182.452637
v -54.483212 18.407000 187.923676
v -54.853668 20.775042 185.163574
v -54.008408 21.481508 182.532959
v -43.749760 18.062155 180.013916
v -46.098518 19.170275 178.591980
v -48.128605 20.238832 179.365112
v -53.816856 17.368456 187.471863
v -55.302769 19.134676 184.620270
v -55.297073 19.655493 180.954346
v -44.930389 17.066080 178.730652
v -46.435028 17.950956 178.184906
v -49.620865 19.134676 177.559906
v -53.984856 16.326296 187.268646
v -55.554024 17.493189 184.316345
v -54.773766 17.829475 181.607056
v -45.003975 16.085876 178.573029
v -46.632275 16.727392 177.946289
v -49.872120 17.493189 177.255920
v -53.827614 15.268888 187.458862
v -55.316795 15.849041 184.603333
v -54.500423 16.003458 181.937744
v -44.517906 15.520671 178.949829
v -46.447662 15.485926 178.169647
v -49.634888 15.849040 177.542908
v -54.881809 14.194901 185.129517
v -54.008373 19.640120 179.047302
v -48.605480 13.944285 183.928650
v -48.375538 13.711127 186.118225
v -47.251259 13.944285 185.566895
v -45.897045 13.944285 187.205109
v -46.126984 14.177443 185.015533
v -42.433243 14.371616 189.483978
v -40.241619 16.003460 194.046661
v -41.854084 15.284624 194.007477
v -38.980675 16.916470 193.660645
v -39.968277 17.829477 194.377350
v -40.104950 16.916470 194.212006
v -41.229225 16.916470 194.763367
v -39.751160 18.742485 192.728577
v -41.782589 19.655495 192.182526
v -40.875435 18.742485 193.279938
v -41.999710 18.742485 193.831299
v -41.361320 20.568504 190.780731
v -43.188606 21.481510 190.481598
v -42.485600 20.568504 191.332092
v -43.609875 20.568504 191.883453
v -44.542824 21.380793 188.843384
v -43.418549 21.481508 188.292023
v -45.897041 21.380793 187.205109
v -45.667103 21.380793 189.394745
v -47.251259 20.739500 185.566895
v -46.126984 20.859053 185.015533
v -48.605480 20.117044 183.928650
v -48.375538 20.638784 186.118225
v -49.959698 20.721109 182.290405
v -48.835419 20.721109 181.739044
v -51.313915 21.205622 180.652161
v -51.083973 20.601557 182.841736
v -52.099007 20.422869 179.574066
v -50.881699 20.675863 179.263580
v -52.791065 19.893110 178.736816
v -53.223282 20.422869 180.125427
v -52.981026 19.096743 178.365906
v -53.398964 17.938425 177.860321
v -51.991699 18.987791 177.920776
v -53.397243 16.916468 178.131866
v -54.386570 17.025419 178.576996
v -53.260571 16.003458 178.297211
v -52.272964 16.916468 177.580505
v -53.411522 15.090450 180.026031
v -52.882950 15.090450 178.754059
v -51.909622 14.177442 179.931488
v -51.758675 15.090450 178.202698
v -53.775993 13.994833 188.779205
v -53.499176 13.977387 187.958130
v -52.752541 13.802189 188.861359
v -51.887848 13.747052 186.924866
v -52.654190 13.943402 184.171173
v -50.514862 13.710244 185.144714
v -43.481812 14.350684 180.097656
v -44.762421 14.312072 180.208313
v -44.377106 14.245881 179.064697
v -43.439770 14.329524 181.083344
v -42.974892 14.427063 181.640869
v -45.873604 14.329024 180.478577
v -47.401154 14.328576 180.245117
v -47.672352 14.195349 178.302551
v -44.491226 14.445300 182.150879
v -48.340553 14.186171 180.723206
v -46.541805 14.319847 182.899231
v -52.266258 13.819634 190.605591
v -51.545914 13.802189 190.321075
v -50.782814 13.802189 191.244202
v -51.269096 13.784742 189.499939
v -50.533630 13.809760 188.563080
v -49.327003 13.809760 190.022797
v -49.945755 13.772070 187.447662
v -49.160645 13.772953 186.782959
v -47.806427 13.772953 188.421204
v -42.105904 14.425777 181.957306
v -42.078968 14.427063 182.724670
v -42.484116 14.428349 182.964447
v -41.615128 14.427064 183.280945
v -42.388672 14.445301 184.694397
v -43.284599 14.445301 183.610565
v -44.395782 14.462254 183.880859
v -45.187588 14.319848 184.537445
v -43.980961 14.319848 185.997162
v -48.497841 13.989821 193.118866
v -47.762375 14.014839 192.181976
v -40.954819 14.437691 184.814514
v -41.437416 14.328577 187.100891
v -41.755299 14.454643 185.460632
v -40.003559 14.320967 187.220947
v -42.229225 14.186172 187.757477
v -39.889698 14.380345 190.587708
v -49.795776 14.719460 193.594238
v -48.069462 15.558965 194.793060
v -43.424301 15.284624 195.336914
v -44.713760 15.926250 195.869995
v -45.201950 15.207416 195.279419
v -42.151005 16.003460 195.262756
v -42.639191 15.284624 194.672211
v -43.127380 14.565790 194.081604
v -41.075001 14.741619 183.193573
v -40.529106 15.262238 184.591431
v -39.645088 15.667483 187.654602
v -39.180611 15.926250 191.445496
v -49.572105 15.797592 193.864807
v -46.366478 16.671116 195.963623
v -47.869118 16.909744 195.035400
v -47.994057 16.087669 194.884277
v -42.799438 16.916470 196.092834
v -44.452156 17.661335 196.186462
v -44.588825 16.748325 196.021118
v -41.877663 17.829477 195.593414
v -42.014332 16.916470 195.428101
v -41.022839 15.443281 183.238892
v -40.540024 15.666970 184.561035
v -39.957764 16.106657 186.020660
v -40.451492 16.287703 184.668182
v -39.556553 16.288214 187.761719
v -39.118938 16.671116 189.546783
v -39.431618 17.110289 187.912842
v -39.055672 16.748325 191.596619
v -38.919003 17.661333 191.761963
v -49.566723 16.847378 193.871307
v -47.939144 17.430824 194.950684
v -48.411484 18.251568 194.112885
v -46.713879 18.313936 195.276978
v -43.569927 18.742485 195.160736
v -45.831650 19.395088 194.251221
v -44.924492 18.482079 195.348663
v -43.691971 19.655495 193.398590
v -42.784817 18.742485 194.496002
v -40.837910 16.252222 183.443390
v -40.255646 16.691912 184.903015
v -39.633068 17.339174 186.413452
v -40.019485 17.303694 185.188690
v -39.195454 17.722073 188.198547
v -39.854904 18.542818 187.759583
v -39.653454 18.313932 189.259003
v -39.578453 18.482077 191.323029
v -40.485607 19.395084 190.225616
v -49.770687 17.887730 193.624573
v -48.545422 18.770840 193.950836
v -47.400063 19.954861 194.180450
v -48.759266 19.591022 193.692139
v -45.180092 20.568504 193.212860
v -46.748505 21.128277 193.142090
v -46.045494 20.215267 193.992554
v -45.097992 21.481510 191.697693
v -44.394981 20.568504 192.548157
v -40.724625 17.087637 183.579254
v -40.102043 17.734900 185.089691
v -39.554157 18.560614 186.508911
v -40.259293 18.344559 184.899475
v -40.012157 19.152475 187.569366
v -40.526749 19.954859 188.561371
v -40.225998 19.972654 187.310699
v -40.699451 20.215267 189.966919
v -41.402462 21.128275 189.116455
v -50.643036 18.477226 192.569275
v -48.825169 20.790340 192.456451
v -49.970531 19.606319 192.226868
v -50.708942 19.676544 191.333557
v -47.237320 21.380795 190.724152
v -48.102722 21.027561 191.503845
v -49.313988 21.042858 190.038544
v -46.452209 21.380795 190.059448
v -47.806427 21.280077 188.421204
v -41.266956 17.433271 182.928894
v -41.586014 18.341434 183.299316
v -41.126236 18.427008 183.850708
v -40.578354 19.252722 185.269897
v -42.304207 20.070402 184.796600
v -41.437263 19.987951 185.845367
v -41.951855 20.790335 186.837341
v -43.967945 21.143572 186.012909
v -42.756680 21.128275 187.478210
v -52.144547 18.547455 190.752838
v -51.472038 19.676544 190.410431
v -51.243061 20.805637 189.531464
v -52.678665 19.676542 188.950745
v -50.520615 21.042856 188.578857
v -49.945755 20.638784 187.447662
v -51.874832 20.401564 186.940582
v -49.160645 20.638784 186.782959
v -50.514862 19.997492 185.144714
v -42.190571 17.347696 181.821259
v -42.049850 18.341434 182.743103
v -42.341221 19.335173 183.137329
v -42.945778 18.341434 181.659271
v -43.200134 20.070402 183.712769
v -44.369751 20.805632 183.912323
v -44.406761 20.070402 182.253052
v -45.174572 21.143572 184.553223
v -46.528790 20.521112 182.914948
v -53.695427 18.477228 188.876678
v -53.466454 19.606318 187.997711
v -53.651680 20.790339 186.617645
v -54.668442 19.591021 186.543640
v -53.076820 20.386267 185.486481
v -52.654190 20.739500 184.171173
v -54.431038 21.128275 183.848267
v -51.869080 20.739500 183.506470
v -53.223297 21.343565 181.868225
v -43.122311 17.433271 180.703918
v -43.413681 18.427008 181.098114
v -44.667831 19.252722 180.322754
v -44.844364 18.344559 179.367401
v -45.837448 19.987951 180.522308
v -46.852493 20.522234 180.908875
v -47.113564 19.704554 178.978546
v -47.804905 20.237715 181.371185
v -49.159122 20.722227 179.732941
v -54.150032 17.887728 187.697754
v -54.892990 18.770838 186.272003
v -54.559814 18.251566 186.046082
v -55.078220 19.954859 184.891907
v -55.075375 20.215265 183.058960
v -55.299923 19.395086 182.787323
v -54.652740 20.568502 181.743652
v -54.008392 20.560812 180.790131
v -54.652725 19.647806 180.000824
v -44.324188 17.520693 179.385223
v -45.531170 17.478636 178.584625
v -45.168701 18.058981 179.035889
v -46.266773 18.560614 178.388428
v -48.027946 18.542818 177.872375
v -47.859692 19.152475 178.075928
v -48.874737 19.686754 178.462494
v -49.905251 20.170149 178.830322
v -50.597313 19.640390 177.993134
v -53.900856 16.847376 187.370239
v -54.685440 17.430822 185.894104
v -54.769440 16.909742 185.792480
v -55.428398 18.313934 184.468292
v -55.038269 18.482077 183.113678
v -55.163895 17.661333 182.961700
v -55.035423 18.742483 181.280701
v -54.581032 17.938425 179.956238
v -44.969830 16.488194 178.648804
v -45.646790 16.287703 178.402313
v -45.515953 16.691912 178.559235
v -46.533653 17.339174 178.065582
v -48.252197 17.110289 177.601105
v -48.153576 17.722073 177.720398
v -49.746494 18.313932 177.407898
v -51.015251 18.482075 177.487549
v -51.140881 17.661331 177.335571
v -53.906235 15.797592 187.363739
v -54.650826 16.087667 185.935974
v -54.572205 15.558965 186.031097
v -55.435410 16.671114 184.459808
v -55.027225 16.748323 183.127045
v -54.908607 15.926250 183.270508
v -54.637096 16.916468 181.772400
v -54.444359 17.025419 180.121582
v -54.442635 16.003458 180.393158
v -44.770336 15.823651 178.853912
v -45.370476 15.262237 178.751923
v -45.554482 15.666969 178.513977
v -46.539970 16.106657 178.057953
v -49.753506 16.671114 177.399445
v -48.133583 16.288214 177.744598
v -48.041275 15.667482 177.856262
v -51.004208 16.748323 177.500916
v -50.885590 15.926249 177.644379
v -54.354713 14.731894 186.294159
v -55.099300 15.021971 184.866455
v -53.469307 15.090450 181.570648
v -50.507969 15.013241 178.101227
v -51.083977 13.944284 182.841736
v -49.959698 14.177442 182.290405
v -49.431126 14.177442 181.018402
v -43.557518 14.371616 190.035339
v -44.681797 14.138458 190.586700
v -41.217995 14.565790 192.865540
v -39.605530 15.284624 192.904755
v -40.729809 15.284624 193.456116
v -53.678768 13.989821 186.584930
v -54.702221 14.182466 186.502747
v -53.090889 13.952130 185.469513
v -54.445107 14.186172 183.831238
v -53.223297 14.177442 181.868225
v -51.869083 13.943402 183.506470
v -50.290474 14.186171 178.364319
v -50.723602 13.994833 192.471802
v -50.003258 13.977387 192.187286
v -48.438629 14.182466 194.346436
v -45.422852 14.380345 195.012207
v -46.252014 14.200284 191.916107
v -45.466904 14.138458 191.251404
v -41.390068 14.435233 182.815765
v -41.363132 14.436520 183.583130
v -40.729759 14.445861 184.349335
v -46.712315 15.021971 195.545258
v -48.290363 14.731894 194.525818
v -40.666687 14.742790 184.424988
v -40.183868 14.966479 185.747162
v -39.464775 15.021971 189.128418
v -39.865986 14.840414 187.387421
v -39.668800 15.207416 190.854950
v -54.175121 14.719460 187.667419
v -54.662601 15.013242 183.568115
v -54.254417 15.090450 182.235352
v -46.296230 14.840861 178.352814
v -44.481163 14.848281 178.959198
v -49.417397 15.021970 177.806030
v -47.823784 14.840413 178.119385
v -54.198326 18.843748 178.676361
v -55.092300 17.946016 181.244690
v -43.373390 14.787838 180.288300
v -44.397713 16.863241 179.155029
v -44.070179 17.273245 179.770844
v -41.184402 17.002064 183.027863
v -43.573494 16.839663 180.108215
v -41.844082 16.597853 182.236755
v -41.380241 16.597853 182.792999
v -41.801750 15.136895 182.304779
v -42.612076 15.886738 181.333038
v -41.326996 14.732162 182.891418
v -41.337910 15.136895 182.861053
v -53.428486 14.544261 188.570648
v -52.665390 14.544261 189.493774
v -50.575336 14.544261 192.651154
v -52.744007 15.072965 189.398682
v -50.499928 15.072965 192.742371
v -50.439072 17.436876 192.816010
v -50.509098 17.957958 192.731293
v -52.683155 17.436874 189.472321
v -53.446251 17.436874 188.549164
v -51.442307 16.183544 191.602356
v -53.362251 17.957956 188.650787
v -43.380440 15.310054 180.263519
v -43.403214 15.933886 180.300201
v -44.142384 17.037506 179.463867
v -44.498703 16.133387 179.000092
vn 0.2981 0.9382 0.1757
vn -0.0127 0.9884 0.1512
vn -0.0479 0.9929 0.1092
vn -0.1069 0.9898 0.0941
vn -0.0033 1.0000 0.0027
vn -0.0409 0.9939 0.1026
vn -0.0497 0.9979 0.0411
vn -0.1202 0.9783 0.1686
vn -0.0790 0.9969 0.0008
vn -0.1709 0.9830 0.0671
vn -0.1449 0.9822 0.1198
vn -0.2239 0.9218 -0.3164
vn -0.1106 0.9937 -0.0173
vn -0.1360 0.9900 -0.0371
vn -0.1759 0.9168 -0.3586
vn -0.7627 0.4467 -0.4678
vn -0.6240 0.7034 -0.3403
vn -0.3834 0.4917 -0.7818
vn -0.4700 0.5083 -0.7216
vn -0.3057 0.7197 -0.6233
vn -0.3753 0.7271 -0.5748
vn -0.7939 -0.3218 -0.5158
vn -0.8372 0.2163 -0.5023
vn -0.4086 -0.3724 -0.8333
vn -0.5004 -0.3913 -0.7723
vn -0.4292 0.2228 -0.8753
vn -0.5330 0.2274 -0.8150
vn -0.5560 -0.7736 -0.3039
vn -0.5233 -0.8158 -0.2462
vn -0.2643 -0.7997 -0.5390
vn -0.3251 -0.8036 -0.4986
vn -0.2424 -0.8349 -0.4942
vn -0.2963 -0.8402 -0.4541
vn -0.3277 -0.9248 -0.1934
vn -0.4891 -0.7657 -0.4177
vn -0.1419 -0.9466 -0.2894
vn -0.1615 -0.9566 -0.2427
vn -0.2853 -0.7616 -0.5818
vn -0.3497 -0.7685 -0.5359
vn 0.0425 -0.9991 -0.0044
vn -0.0954 -0.9923 0.0789
vn -0.0171 -0.9923 0.1231
vn 0.1958 -0.9584 0.2078
vn 0.2632 -0.9538 0.1449
vn 0.1291 -0.9882 0.0828
vn 0.1314 -0.9912 0.0138
vn -0.0755 -0.9634 -0.2572
vn -0.2581 -0.9635 -0.0716
vn 0.0779 -0.9953 -0.0570
vn -0.1017 -0.9672 0.2330
vn 0.2503 -0.8809 0.4018
vn 0.0714 -0.8685 0.4905
vn 0.0674 -0.9882 0.1373
vn 0.1640 -0.7325 0.6607
vn 0.3082 -0.7200 0.6218
vn 0.3128 -0.4672 0.8270
vn 0.7675 -0.1378 0.6260
vn 0.3951 -0.1283 0.9096
vn 0.2679 -0.1061 0.9576
vn 0.4248 0.2282 0.8761
vn 0.7892 0.4321 0.4365
vn 0.4066 0.3838 0.8291
vn 0.5974 0.7928 0.1209
vn 0.4691 0.7184 0.5137
vn 0.2282 0.8504 0.4740
vn 0.2390 0.5118 0.8252
vn 0.8743 0.3005 -0.3813
vn 0.7435 0.3981 -0.5373
vn 0.1840 0.9828 0.0125
vn 0.0869 0.9962 0.0042
vn 0.1572 0.9875 0.0092
vn 0.7504 0.6582 -0.0597
vn 0.1277 0.9912 0.0351
vn 0.0519 0.9985 0.0195
vn 0.0992 0.9933 0.0599
vn 0.3860 0.8020 0.4559
vn 0.0703 0.9940 0.0837
vn 0.0251 0.9992 0.0310
vn -0.1608 0.7848 0.5986
vn 0.0071 0.9979 -0.0649
vn -0.1498 0.9046 0.3990
vn -0.1854 0.9816 0.0459
vn -0.0847 0.9953 -0.0479
vn -0.3893 0.8980 0.2048
vn -0.0549 0.9984 0.0105
vn 0.0045 0.9976 -0.0690
vn -0.0588 0.9982 -0.0127
vn -0.0672 0.9974 0.0250
vn -0.1166 0.9910 0.0660
vn 0.6858 0.5050 -0.5241
vn 0.6685 0.4978 -0.5526
vn 0.0183 0.9997 -0.0151
vn -0.0225 0.9982 -0.0559
vn 0.0008 1.0000 -0.0007
vn -0.0099 0.9999 -0.0109
vn -0.0217 0.9988 -0.0450
vn -0.0115 0.9995 -0.0287
vn 0.0142 0.9970 -0.0760
vn 0.0133 0.9995 -0.0301
vn -0.0050 1.0000 -0.0052
vn 0.0021 1.0000 -0.0018
vn 0.0074 1.0000 -0.0061
vn -0.0175 0.9998 -0.0011
vn -0.0394 0.9973 0.0623
vn 0.0097 0.9999 -0.0142
vn 0.0127 0.9999 -0.0105
vn -0.0005 0.9988 -0.0495
vn 0.0057 0.9992 -0.0394
vn -0.1128 0.9915 0.0647
vn -0.1057 0.9906 0.0874
vn -0.1254 0.9867 0.1036
vn -0.0845 0.9900 0.1128
vn 0.5633 0.6895 -0.4553
vn 0.5020 0.6752 -0.5404
vn -0.0092 0.9964 -0.0844
vn 0.5141 0.6202 -0.5925
vn 0.3768 0.6899 -0.6181
vn 0.0268 0.9874 -0.1562
vn -0.0485 0.9988 -0.0114
vn -0.1032 0.9942 -0.0302
vn 0.1290 0.7226 -0.6791
vn -0.1975 0.8033 -0.5618
vn -0.1861 0.8618 -0.4719
vn -0.0463 0.9938 -0.1009
vn -0.0721 0.9950 -0.0689
vn -0.2721 0.9070 -0.3214
vn -0.0080 1.0000 -0.0056
vn -0.0299 0.9995 0.0031
vn -0.6370 0.6732 0.3756
vn -0.5614 0.6968 0.4464
vn -0.0322 0.9937 0.1076
vn 0.0028 0.9996 0.0296
vn -0.6417 0.7377 0.2099
vn 0.0085 0.9971 -0.0754
vn -0.0113 0.9998 0.0182
vn -0.6284 0.7775 0.0237
vn 0.2302 0.2347 -0.9444
vn 0.1710 0.2613 -0.9500
vn 0.5266 0.1017 -0.8440
vn 0.6505 0.0594 -0.7572
vn 0.5205 0.1342 -0.8433
vn 0.6559 0.0684 -0.7518
vn -0.3038 0.4563 -0.8363
vn -0.2301 0.7063 -0.6695
vn 0.0111 0.4202 -0.9074
vn -0.1052 0.5019 -0.8585
vn -0.5595 0.5004 -0.6608
vn -0.4421 0.7293 -0.5222
vn -0.8827 0.0501 0.4672
vn -0.8719 0.0614 0.4858
vn -0.9397 0.1335 0.3149
vn -0.9509 0.1686 0.2596
vn -0.9680 0.2491 0.0294
vn -0.9608 0.1908 0.2011
vn -0.9547 0.1261 0.2697
vn -0.9736 0.2157 0.0749
vn -0.8979 0.4345 -0.0704
vn -0.4608 0.8524 -0.2471
vn 0.2609 -0.2486 -0.9328
vn 0.2890 0.1304 -0.9484
vn 0.5506 0.0082 -0.8347
vn 0.6516 0.0098 -0.7585
vn 0.5324 0.0719 -0.8434
vn 0.6602 0.0353 -0.7503
vn -0.3284 -0.3380 -0.8820
vn -0.3233 0.2153 -0.9215
vn 0.0651 -0.2854 -0.9562
vn 0.0236 0.1760 -0.9841
vn -0.5989 -0.3755 -0.7074
vn -0.6290 0.2287 -0.7430
vn -0.8485 0.0415 0.5276
vn -0.8705 0.0134 0.4920
vn -0.9372 0.0366 0.3470
vn -0.9552 0.0875 0.2827
vn -0.9502 0.1722 0.2597
vn -0.9712 0.1049 0.2140
vn -0.9845 0.1275 0.1205
vn -0.9714 -0.2196 0.0898
vn -0.9892 0.1447 0.0246
vn 0.6751 -0.0291 -0.7371
vn 0.6363 -0.1004 -0.7649
vn 0.4533 -0.3217 -0.8313
vn 0.5528 -0.2579 -0.7924
vn -0.2159 -0.7700 -0.6004
vn -0.1532 -0.8182 -0.5541
vn -0.0098 -0.5511 -0.8344
vn 0.2491 -0.4221 -0.8717
vn 0.0724 -0.7162 -0.6941
vn 0.3145 -0.5834 -0.7488
vn -0.3811 -0.8076 -0.4501
vn -0.3488 -0.8418 -0.4120
vn -0.8873 0.0955 0.4512
vn -0.8681 0.1448 0.4748
vn -0.9246 0.2533 0.2844
vn -0.9392 0.2555 0.2292
vn -0.9762 -0.1914 0.1019
vn -0.9611 0.1972 0.1933
vn -0.9861 -0.0657 0.1527
vn -0.8722 -0.4765 -0.1107
vn -0.7651 -0.6414 0.0573
vn -0.8896 -0.4512 -0.0708
vn -0.7901 -0.6114 0.0439
vn 0.5933 -0.0964 -0.7992
vn 0.2287 -0.6845 -0.6922
vn 0.1573 -0.2595 -0.9528
vn 0.5366 -0.3722 -0.7573
vn -0.0931 -0.9443 -0.3157
vn -0.3287 -0.7667 -0.5514
vn 0.0065 -0.9135 -0.4067
vn -0.1630 -0.5594 -0.8127
vn -0.2045 -0.9486 -0.2415
vn -0.4119 -0.7704 -0.4866
vn -0.7885 -0.2345 0.5686
vn -0.8470 -0.0405 0.5300
vn -0.9074 -0.0928 0.4100
vn -0.9706 -0.2198 0.0978
vn -0.8482 -0.4820 0.2197
vn -0.9232 -0.3104 -0.2264
vn -0.9447 -0.2928 -0.1475
vn -0.6762 -0.7345 0.0570
vn -0.8435 -0.5151 -0.1524
vn 0.4305 -0.8253 -0.3654
vn 0.4362 -0.8207 -0.3691
vn 0.6395 -0.5343 -0.5527
vn 0.6275 -0.2566 -0.7351
vn 0.7282 -0.2829 -0.6242
vn 0.1276 -0.9908 0.0459
vn 0.1438 -0.9879 -0.0581
vn 0.2010 -0.9693 -0.1419
vn 0.0306 -0.9989 0.0361
vn 0.0260 -0.9989 0.0399
vn -0.7440 -0.2212 0.6305
vn -0.7260 -0.2435 0.6431
vn -0.6657 -0.4547 0.5918
vn -0.8222 -0.2930 0.4879
vn -0.6702 -0.4698 0.5746
vn -0.5906 -0.6573 0.4681
vn -0.6045 -0.6587 0.4479
vn -0.4625 -0.8145 0.3503
vn -0.7838 -0.6144 0.0904
vn -0.4782 -0.8015 0.3591
vn -0.3569 -0.8900 0.2837
vn -0.3679 -0.8819 0.2949
vn -0.2429 -0.9501 0.1959
vn -0.4799 -0.8773 -0.0095
vn -0.2478 -0.9480 0.1999
vn 0.6456 -0.5463 -0.5336
vn 0.4333 -0.8271 -0.3581
vn 0.6358 -0.5446 -0.5469
vn 0.0918 -0.9893 0.1134
vn 0.1059 -0.9526 0.2853
vn 0.1507 -0.9800 -0.1297
vn 0.1213 -0.9848 0.1239
vn 0.1867 -0.9574 0.2205
vn 0.1892 -0.9574 0.2183
vn 0.1094 -0.9856 0.1293
vn -0.7587 -0.2136 0.6154
vn -0.7485 -0.2240 0.6241
vn -0.6931 -0.4342 0.5754
vn -0.5903 -0.6430 0.4880
vn -0.5852 -0.6473 0.4884
vn -0.4482 -0.8136 0.3705
vn -0.3484 -0.8920 0.2880
vn -0.1057 -0.9656 0.2376
vn 0.0439 -0.9876 0.1505
vn 0.3655 -0.9105 -0.1931
vn 0.6642 -0.5306 -0.5266
vn 0.2644 -0.9416 -0.2087
vn 0.8714 0.1147 -0.4770
vn 0.7684 0.0446 -0.6384
vn -0.0711 -0.9952 0.0676
vn -0.2056 -0.9776 -0.0458
vn -0.1822 -0.9435 -0.2767
vn -0.1121 -0.9525 0.2833
vn 0.0165 -0.9988 -0.0464
vn -0.2439 -0.9512 -0.1889
vn -0.1637 -0.9618 -0.2193
vn -0.0138 -0.9998 -0.0163
vn -0.6737 -0.4419 0.5923
vn -0.7870 0.0065 0.6169
vn -0.7084 -0.4724 0.5244
vn -0.5663 -0.6557 0.4994
vn -0.4365 -0.5378 0.7213
vn -0.3698 -0.8365 0.4044
vn -0.0178 -0.9807 0.1948
vn -0.2187 -0.8846 0.4118
vn -0.0735 -0.9972 0.0113
vn 0.7299 0.6059 -0.3163
vn 0.9582 0.2131 -0.1908
vn 0.9864 -0.0930 -0.1358
vn 0.9648 -0.2129 -0.1546
vn 0.6139 -0.7528 -0.2376
vn 0.8937 -0.4479 0.0250
vn 0.9181 -0.1812 0.3524
vn 0.6837 -0.6894 0.2393
vn 0.2872 -0.9565 0.0514
vn 0.4047 -0.8086 0.4271
vn 0.5701 -0.5820 0.5799
vn 0.2294 -0.8594 0.4569
vn -0.3741 -0.1709 0.9115
vn -0.4608 -0.2010 0.8645
vn -0.5442 -0.2739 0.7930
vn -0.6038 -0.3936 0.6931
vn -0.4216 -0.1862 0.8874
vn -0.2562 -0.1891 0.9479
vn -0.2379 -0.8240 0.5143
vn -0.2334 -0.5307 0.8148
vn -0.1052 -0.4792 0.8714
vn -0.1618 -0.7767 0.6088
vn -0.1437 -0.7826 0.6057
vn 0.9055 0.1819 -0.3835
vn 0.9128 -0.0686 -0.4027
vn 0.8744 -0.0455 -0.4831
vn 0.9982 0.0026 -0.0606
vn 0.9838 -0.1273 -0.1260
vn 0.9872 0.0507 0.1514
vn 0.9595 0.2776 0.0475
vn 0.9793 0.1683 0.1126
vn 0.8646 0.4890 -0.1159
vn 0.7113 -0.4097 0.5712
vn 0.8007 -0.2995 0.5189
vn -0.5182 0.1046 0.8489
vn -0.4873 -0.0934 0.8682
vn -0.3565 -0.0379 0.9335
vn -0.3537 -0.1175 0.9279
vn -0.3131 -0.0033 0.9497
vn -0.2088 -0.0017 0.9780
vn -0.1030 -0.1659 0.9808
vn 0.2405 -0.4599 0.8548
vn 0.0134 -0.6355 0.7720
vn 0.1004 -0.3189 0.9424
vn 0.8838 0.0173 -0.4675
vn 0.8820 0.0468 -0.4689
vn 0.8898 0.0500 -0.4536
vn 0.9803 0.1860 -0.0670
vn 0.9882 0.1279 -0.0844
vn 0.9362 0.1902 0.2956
vn 0.8962 0.3565 0.2641
vn 0.9606 0.1819 0.2103
vn 0.9624 0.1541 0.2237
vn 0.9925 0.0907 0.0817
vn 0.9103 0.4126 0.0341
vn -0.2832 0.0188 0.9589
vn -0.4570 0.0944 0.8844
vn -0.3563 0.0572 0.9326
vn -0.2772 0.1301 0.9520
vn -0.0611 -0.0024 0.9981
vn -0.0416 0.1660 0.9853
vn -0.1738 0.1471 0.9737
vn 0.2622 0.2098 0.9419
vn 0.0628 0.0014 0.9980
vn 0.0887 0.1870 0.9784
vn 0.8684 -0.2111 -0.4486
vn 0.7204 -0.5925 -0.3605
vn 0.9200 -0.2522 -0.3001
vn 0.9700 0.2297 -0.0797
vn 0.8950 0.3336 0.2962
vn 0.5501 0.7547 0.3575
vn 0.7704 0.3755 0.5153
vn 0.6839 0.6139 0.3942
vn -0.2810 0.1811 0.9425
vn -0.2651 0.1815 0.9470
vn -0.0084 0.2597 0.9656
vn 0.0432 0.3132 0.9487
vn -0.1662 0.2057 0.9644
vn -0.1521 0.2499 0.9563
vn 0.2596 0.3578 0.8970
vn 0.0967 0.3351 0.9372
vn 0.1720 0.4167 0.8927
vn -0.7680 -0.0000 0.6404
vn -0.5617 0.7140 0.4179
vn -0.8154 -0.0182 0.5786
vn -0.3481 -0.1328 0.9280
vn -0.4871 -0.2105 0.8476
vn -0.7497 -0.0683 0.6583
vn -0.6736 -0.0950 0.7330
vn -0.6397 -0.2914 0.7112
vn -0.7665 0.0039 0.6422
vn -0.7665 0.0117 0.6422
vn -0.7819 -0.0001 0.6234
vn -0.5414 0.7135 0.4448
vn -0.7730 0.0208 0.6340
vn -0.5381 0.7135 0.4487
vn 0.8087 0.1696 -0.5632
vn 0.8686 0.0183 -0.4952
vn 0.6232 -0.5338 -0.5716
vn 0.7708 -0.0000 -0.6371
vn 0.8075 -0.2300 -0.5431
vn 0.7562 -0.2678 -0.5970
vn 0.7656 -0.1156 -0.6329
vn 0.7777 -0.1129 -0.6184
vn 0.8384 0.2840 -0.4653
vn 0.8687 0.1299 -0.4780
vn 0.8192 -0.0032 -0.5735
vn -0.7731 0.0130 0.6341
vn -0.7442 -0.1909 0.6401
vn -0.7941 -0.0405 0.6064
vn -0.3962 -0.6808 0.6160
vn 0.1431 0.8210 0.5528
vn 0.0008 0.7733 0.6340
vn -0.0892 0.8081 0.5822
vn -0.2751 0.0453 0.9603
vn 0.9182 0.2627 0.2964
vn 0.6000 0.7754 0.1966
vn 0.8903 0.0716 -0.4498
vn 0.9162 0.3835 -0.1163
vn -0.3727 0.2498 0.8937
vn 0.8320 0.1438 0.5358
vn 0.9609 0.0009 0.2769
vn 0.8832 0.0013 -0.4689
vn -0.2402 -0.1447 0.9599
vn -0.3459 -0.1432 0.9273
vn 0.9998 0.0187 0.0042
vn 0.9116 0.2784 -0.3025
vn -0.2920 -0.8897 0.3510
vn 0.0403 -0.9833 0.1772
vn -0.0218 -0.9837 0.1784
vn 0.3695 -0.9203 -0.1284
vn 0.8327 -0.3600 -0.4206
vn 0.2964 -0.9548 0.0230
vn -0.4430 -0.8094 0.3854
vn -0.7105 -0.4295 0.5574
vn 0.6577 -0.5412 -0.5239
vn -0.8709 -0.4912 -0.0160
vn -0.9328 0.0736 0.3529
vn 0.3761 -0.1872 -0.9075
vn -0.9676 -0.2465 0.0552
vn -0.9313 0.1780 0.3179
vn -0.9322 0.3615 0.0152
vn -0.9671 0.1468 0.2076
vn -0.9407 0.0736 0.3311
vn -0.5658 0.8100 -0.1539
vn -0.6195 0.7644 0.1788
vn -0.6379 0.7407 0.2108
vn 0.0049 0.9952 -0.0981
vn -0.0466 0.9982 0.0386
vn -0.0334 0.9988 -0.0346
vn 0.0625 0.9980 -0.0008
vn 0.1004 0.9949 0.0127
vn 0.2704 0.9562 0.1124
vn -0.8086 -0.0135 0.5882
vt 0.792044 0.035021
vt 0.801106 0.091263
vt 0.770124 0.104164
vt 0.748203 0.173307
vt 0.735155 0.092325
vt 0.810167 0.147504
vt 0.819229 0.203746
vt 0.779185 0.160406
vt 0.828291 0.259988
vt 0.797309 0.272889
vt 0.788247 0.216647
vt 0.859600 0.454312
vt 0.812963 0.370051
vt 0.843945 0.357150
vt 0.828618 0.467213
vt 0.228689 0.502232
vt 0.207453 0.475959
vt 0.204942 0.525221
vt 0.185382 0.556052
vt 0.174782 0.504416
vt 0.149728 0.542079
vt 0.266496 0.538323
vt 0.249155 0.522031
vt 0.253770 0.557288
vt 0.242471 0.581122
vt 0.231129 0.543622
vt 0.216187 0.569612
vt 0.318628 0.568941
vt 0.291508 0.552541
vt 0.309248 0.589985
vt 0.301164 0.610860
vt 0.281867 0.574620
vt 0.273100 0.597005
vt 0.359222 0.596552
vt 0.340631 0.584166
vt 0.353074 0.614151
vt 0.347069 0.633091
vt 0.332026 0.602805
vt 0.324691 0.622191
vt 0.088875 0.004036
vt 0.132236 0.065024
vt 0.088828 0.057753
vt 0.132284 0.011307
vt 0.088781 0.111470
vt 0.132142 0.172457
vt 0.088733 0.165186
vt 0.132188 0.118740
vt 0.088686 0.218903
vt 0.132046 0.279890
vt 0.088639 0.272619
vt 0.132094 0.226174
vt 0.497506 0.683516
vt 0.509044 0.713010
vt 0.512075 0.692799
vt 0.489142 0.700652
vt 0.527099 0.703059
vt 0.524017 0.723711
vt 0.541653 0.731789
vt 0.553845 0.763193
vt 0.567347 0.748229
vt 0.580171 0.730565
vt 0.590076 0.766820
vt 0.593501 0.807410
vt 0.615387 0.784574
vt 0.622561 0.850015
vt 0.647784 0.809410
vt 0.725664 0.797893
vt 0.673812 0.773024
vt 0.963309 0.110989
vt 0.968305 0.141997
vt 0.946870 0.133058
vt 0.930432 0.155127
vt 0.922382 0.105164
vt 0.914332 0.055201
vt 0.889520 0.097288
vt 0.864708 0.139375
vt 0.855646 0.083134
vt 0.819314 0.030956
vt 0.828376 0.087198
vt 0.837438 0.143440
vt 0.627052 0.114643
vt 0.636302 0.172054
vt 0.606453 0.159599
vt 0.608333 0.171827
vt 0.630547 0.214168
vt 0.611434 0.195895
vt 0.695728 0.194252
vt 0.661390 0.154447
vt 0.683692 0.119548
vt 0.709929 0.109076
vt 0.721966 0.183779
vt 0.973301 0.173006
vt 0.978407 0.204698
vt 0.959940 0.214179
vt 0.946580 0.255352
vt 0.938506 0.205239
vt 0.906631 0.203493
vt 0.882831 0.251859
vt 0.873769 0.195617
vt 0.855561 0.255923
vt 0.846499 0.199681
vt 0.657542 0.303882
vt 0.639554 0.270597
vt 0.651547 0.266674
vt 0.642560 0.289774
vt 0.711876 0.294476
vt 0.684709 0.299179
vt 0.678714 0.261971
vt 0.645552 0.229465
vt 0.670640 0.211858
vt 0.766327 0.285790
vt 0.731027 0.240021
vt 0.757265 0.229549
vt 0.739101 0.290133
vt 0.983513 0.236390
vt 0.988730 0.268765
vt 0.965047 0.245871
vt 0.993946 0.301141
vt 0.986099 0.347936
vt 0.970263 0.278246
vt 0.914706 0.253605
vt 0.930542 0.323295
vt 0.978253 0.394731
vt 0.946197 0.420457
vt 0.914140 0.446183
vt 0.871215 0.353085
vt 0.898486 0.349021
vt 0.886870 0.450248
vt 0.661780 0.330187
vt 0.644192 0.300192
vt 0.630843 0.296503
vt 0.629210 0.286084
vt 0.716370 0.360884
vt 0.688947 0.325484
vt 0.666018 0.356491
vt 0.781981 0.382952
vt 0.743595 0.356541
vt 0.720863 0.427292
vt 0.167435 0.709414
vt 0.133371 0.726673
vt 0.172772 0.760667
vt 0.190259 0.813071
vt 0.141862 0.786932
vt 0.173147 0.834597
vt 0.172030 0.614135
vt 0.137334 0.614777
vt 0.163208 0.659681
vt 0.127851 0.672223
vt 0.176200 0.585416
vt 0.139837 0.578334
vt 0.490875 0.375055
vt 0.496241 0.360692
vt 0.454066 0.354993
vt 0.413750 0.337751
vt 0.408377 0.365353
vt 0.290872 0.344577
vt 0.298649 0.390634
vt 0.352561 0.364743
vt 0.403937 0.390966
vt 0.306916 0.429819
vt 0.248538 0.425425
vt 0.179620 0.438862
vt 0.220683 0.689293
vt 0.196507 0.698452
vt 0.217159 0.731569
vt 0.222369 0.780613
vt 0.191507 0.748454
vt 0.207057 0.796139
vt 0.227446 0.621078
vt 0.202400 0.617762
vt 0.221688 0.653623
vt 0.193347 0.656726
vt 0.233987 0.601760
vt 0.207536 0.593490
vt 0.485919 0.413371
vt 0.488498 0.394628
vt 0.445830 0.399651
vt 0.402271 0.418703
vt 0.400897 0.443936
vt 0.355871 0.432695
vt 0.317142 0.461498
vt 0.325592 0.488922
vt 0.276435 0.488407
vt 0.238882 0.770783
vt 0.254180 0.761527
vt 0.263935 0.725857
vt 0.233605 0.725716
vt 0.285934 0.645129
vt 0.256601 0.632965
vt 0.279529 0.669457
vt 0.276008 0.695132
vt 0.249215 0.658938
vt 0.248910 0.692879
vt 0.293157 0.627626
vt 0.264477 0.614882
vt 0.464549 0.445522
vt 0.474736 0.429955
vt 0.432493 0.442729
vt 0.395026 0.467084
vt 0.358243 0.485807
vt 0.359420 0.463944
vt 0.390164 0.487965
vt 0.371235 0.511288
vt 0.309406 0.532740
vt 0.356326 0.534135
vt 0.342425 0.512506
vt 0.269501 0.754778
vt 0.311400 0.690095
vt 0.295826 0.692345
vt 0.298085 0.715147
vt 0.332376 0.662152
vt 0.310721 0.653818
vt 0.321212 0.676373
vt 0.298874 0.670561
vt 0.339715 0.647659
vt 0.317338 0.637808
vt 0.464091 0.478199
vt 0.464576 0.462265
vt 0.425553 0.480359
vt 0.395980 0.505488
vt 0.400690 0.521357
vt 0.378312 0.526450
vt 0.366613 0.551938
vt 0.375334 0.567801
vt 0.348661 0.566738
vt 0.347757 0.718711
vt 0.328060 0.704081
vt 0.318431 0.734371
vt 0.283455 0.748181
vt 0.298625 0.761455
vt 0.248937 0.125242
vt 0.248985 0.071525
vt 0.290474 0.070184
vt 0.332010 0.015126
vt 0.331968 0.063173
vt 0.175692 0.018578
vt 0.212314 0.071910
vt 0.175644 0.072294
vt 0.212362 0.018193
vt 0.497276 0.481630
vt 0.480302 0.479457
vt 0.467698 0.511397
vt 0.428537 0.500301
vt 0.453327 0.509192
vt 0.442190 0.536513
vt 0.421111 0.527710
vt 0.433288 0.563730
vt 0.387079 0.545564
vt 0.414049 0.554580
vt 0.015441 0.110674
vt 0.015483 0.062628
vt 0.052111 0.111072
vt 0.015526 0.014582
vt 0.052201 0.009309
vt 0.052153 0.063026
vt 0.348361 0.753260
vt 0.369704 0.730923
vt 0.333099 0.743753
vt 0.290389 0.166093
vt 0.248891 0.178959
vt 0.290431 0.118231
vt 0.175596 0.126011
vt 0.212220 0.179343
vt 0.175550 0.179728
vt 0.212267 0.125627
vt 0.531024 0.494329
vt 0.513960 0.487417
vt 0.481330 0.516844
vt 0.465127 0.545997
vt 0.487276 0.557940
vt 0.453462 0.573191
vt 0.423995 0.588970
vt 0.448720 0.601216
vt 0.015357 0.206399
vt 0.015399 0.158537
vt 0.052069 0.158934
vt 0.392460 0.742708
vt 0.389602 0.774039
vt 0.414480 0.753309
vt 0.389934 0.805984
vt 0.372025 0.800585
vt 0.248843 0.232675
vt 0.290299 0.267488
vt 0.248795 0.286392
vt 0.290342 0.219810
vt 0.175502 0.233444
vt 0.212125 0.286777
vt 0.175454 0.287161
vt 0.212172 0.233060
vt 0.546960 0.542677
vt 0.543810 0.509379
vt 0.518638 0.540618
vt 0.521116 0.580708
vt 0.548120 0.608419
vt 0.508247 0.609700
vt 0.471655 0.614537
vt 0.496170 0.630844
vt 0.015267 0.307637
vt 0.015313 0.257018
vt 0.051977 0.263270
vt 0.388202 0.821620
vt 0.417145 0.803180
vt 0.444135 0.794921
vt 0.438684 0.776947
vt 0.434761 0.761940
vt 0.461378 0.766367
vt 0.489898 0.765808
vt 0.475235 0.751761
vt 0.461451 0.738964
vt 0.488091 0.740853
vt 0.521173 0.746657
vt 0.499805 0.730256
vt 0.586689 0.603611
vt 0.595671 0.575309
vt 0.569476 0.573793
vt 0.555393 0.571080
vt 0.566231 0.605733
vt 0.574027 0.641472
vt 0.534187 0.629511
vt 0.556016 0.640259
vt 0.558887 0.671959
vt 0.539871 0.659815
vt 0.526091 0.677576
vt 0.386404 0.840131
vt 0.384758 0.858245
vt 0.421823 0.842775
vt 0.456048 0.838363
vt 0.449577 0.815542
vt 0.474287 0.804383
vt 0.509867 0.807555
vt 0.499183 0.784923
vt 0.521181 0.746677
vt 0.511617 0.798052
vt 0.537229 0.753207
vt 0.503602 0.755848
vt 0.651567 0.543068
vt 0.632147 0.545771
vt 0.646877 0.565567
vt 0.608945 0.601040
vt 0.633523 0.599793
vt 0.621925 0.644505
vt 0.580905 0.675964
vt 0.552364 0.715076
vt 0.542679 0.688461
vt 0.571525 0.699913
vt 0.383043 0.878203
vt 0.375380 0.899438
vt 0.419613 0.891483
vt 0.458934 0.898059
vt 0.457674 0.865710
vt 0.492456 0.855046
vt 0.539791 0.867090
vt 0.522832 0.834469
vt 0.532642 0.786170
vt 0.549804 0.808221
vt 0.570965 0.837560
vt 0.676243 0.515011
vt 0.662276 0.528676
vt 0.696944 0.544527
vt 0.660212 0.593093
vt 0.605498 0.681781
vt 0.634250 0.684677
vt 0.654829 0.642160
vt 0.605266 0.741225
vt 0.593846 0.707990
vt 0.622989 0.715547
vt 0.366447 0.922935
vt 0.357392 0.954113
vt 0.405555 0.954434
vt 0.451299 0.983695
vt 0.456434 0.937261
vt 0.506971 0.931195
vt 0.572504 0.961562
vt 0.555103 0.909625
vt 0.592169 0.893233
vt 0.662361 0.913891
vt 0.689994 0.586550
vt 0.724229 0.577683
vt 0.667755 0.689138
vt 0.708795 0.692525
vt 0.683064 0.640699
vt 0.726401 0.635714
vt 0.634249 0.755184
vt 0.653515 0.724936
vt 0.698724 0.734834
vt 0.493228 0.448736
vt 0.481785 0.462798
vt 0.573983 0.360468
vt 0.611802 0.393932
vt 0.626389 0.373480
vt 0.643408 0.523267
vt 0.606218 0.552462
vt 0.576097 0.526406
vt 0.576579 0.543149
vt 0.605479 0.529594
vt 0.511293 0.453809
vt 0.527505 0.387333
vt 0.554010 0.433971
vt 0.501816 0.345885
vt 0.514577 0.347576
vt 0.527336 0.349550
vt 0.505767 0.382649
vt 0.550493 0.354569
vt 0.342299 0.824782
vt 0.301502 0.910667
vt 0.319850 0.947904
vt 0.270952 0.970552
vt 0.236345 0.954815
vt 0.198318 0.934859
vt 0.190676 0.869374
vt 0.173837 0.895849
vt 0.287458 0.933936
vt 0.272314 0.779259
vt 0.285376 0.769461
vt 0.315367 0.773683
vt 0.334118 0.783964
vt 0.207982 0.847919
vt 0.353274 0.792500
vt 0.367503 0.816244
vt 0.364436 0.832119
vt 0.268936 0.837179
vt 0.154971 0.858366
vt 0.308907 0.978748
vt 0.347283 0.985870
vt 0.508651 0.362325
vt 0.578050 0.499033
vt 0.590733 0.451661
vt 0.591123 0.524451
vt 0.747116 0.747323
vt 0.757618 0.695784
vt 0.764258 0.631506
vt 0.761015 0.568764
vt 0.715423 0.506943
vt 0.749815 0.498428
vt 0.618854 0.942133
vt 0.500421 0.886862
vt 0.511949 0.979772
vt 0.416183 0.914431
vt 0.397937 0.987985
vt 0.676498 0.555998
vt 0.572011 0.783847
vt 0.484072 0.825353
vt 0.424149 0.860300
vt 0.600185 0.642412
vt 0.627428 0.565078
vt 0.470127 0.781949
vt 0.419405 0.818541
vt 0.520209 0.649430
vt 0.508197 0.667407
vt 0.480695 0.717262
vt 0.470602 0.728495
vt 0.503583 0.755840
vt 0.448241 0.750557
vt 0.414750 0.783162
vt 0.088591 0.326336
vt 0.051929 0.316986
vt 0.052021 0.212651
vt 0.479432 0.588351
vt 0.507038 0.529724
vt 0.248749 0.340109
vt 0.212078 0.340493
vt 0.175408 0.340878
vt 0.331841 0.206944
vt 0.331798 0.254622
vt 0.331756 0.302301
vt 0.290252 0.321205
vt 0.373584 0.765880
vt 0.331925 0.111219
vt 0.331882 0.159082
vt 0.398707 0.577066
vt 0.249033 0.017809
vt 0.290521 0.016468
vt 0.366731 0.582678
vt 0.336702 0.550779
vt 0.423694 0.465395
vt 0.277808 0.721565
vt 0.290702 0.513231
vt 0.440437 0.426579
vt 0.259496 0.462387
vt 0.352716 0.406061
vt 0.446163 0.380596
vt 0.228903 0.382763
vt 0.353296 0.335709
vt 0.458311 0.339607
vt 0.105433 0.525881
vt 0.094321 0.571279
vt 0.092648 0.617160
vt 0.083478 0.683429
vt 0.093663 0.749057
vt 0.119296 0.807572
vt 0.797636 0.480115
vt 0.759250 0.453703
vt 0.693441 0.391891
vt 0.627578 0.275665
vt 0.648431 0.326497
vt 0.962417 0.325041
vt 0.703802 0.244364
vt 0.624572 0.256488
vt 0.621567 0.237311
vt 0.633559 0.233388
vt 0.897570 0.147251
vt 0.951867 0.164066
vt 0.671656 0.044845
vt 0.696882 0.028094
vt 0.722108 0.011343
vt 0.649354 0.079744
vt 0.846584 0.026892
vt 0.880458 0.041046
vt 0.938820 0.083095
vt 0.702154 0.859893
vt 0.537242 0.753190
vt 0.131999 0.333607
vt 0.136322 0.477382
vt 0.757076 0.023182
vt 0.603274 0.420392
s 1
usemtl Cave_Material.006
f 27/1/1 380/2/2 381/3/3
f 1/4/4 382/5/5 381/3/3
f 2/6/6 114/7/7 113/8/8
f 3/9/9 116/10/10 115/11/11
f 8/12/12 383/13/13 384/14/14
f 8/12/12 385/15/15 383/13/13
f 6/16/16 386/17/17 119/18/18
f 7/19/19 387/20/20 120/21/21
f 9/22/22 121/23/23 122/24/24
f 10/25/25 123/26/26 124/27/27
f 11/28/28 125/29/29 126/30/30
f 12/31/31 127/32/32 128/33/33
f 13/34/34 129/35/35 130/36/36
f 14/37/37 131/38/38 132/39/39
f 13/40/34 133/41/40 134/42/41
f 13/40/34 130/43/36 133/41/40
f 15/44/42 137/45/43 138/46/44
f 15/44/42 135/47/45 137/45/43
f 17/48/46 141/49/47 142/50/48
f 17/48/46 139/51/49 141/49/47
f 19/52/50 145/53/51 146/54/52
f 19/52/50 143/55/53 145/53/51
f 21/56/54 147/57/55 149/58/56
f 22/59/57 150/60/58 149/58/56
f 23/61/59 150/60/58 152/62/60
f 24/63/61 154/64/62 152/62/60
f 24/63/61 156/65/63 157/66/64
f 26/67/65 159/68/66 157/66/64
f 29/69/67 160/70/68 161/71/69
f 30/72/70 388/73/71 161/71/69
f 111/74/72 388/73/71 390/75/73
f 31/76/74 164/77/75 390/75/73
f 27/1/1 392/78/76 393/79/77
f 31/76/74 165/80/78 393/79/77
f 35/81/79 167/82/80 168/83/81
f 33/84/82 169/85/83 166/86/84
f 37/87/85 171/88/86 172/89/87
f 35/81/79 171/88/86 167/82/80
f 1/4/4 175/90/88 382/5/5
f 1/4/4 176/91/89 175/90/88
f 28/92/90 177/93/91 178/94/92
f 40/95/93 180/96/94 178/94/92
f 30/72/70 180/96/94 181/97/95
f 41/98/96 183/99/97 181/97/95
f 31/76/74 183/99/97 165/80/78
f 41/98/96 185/100/98 184/101/99
f 43/102/100 187/103/101 188/104/102
f 43/102/100 189/105/103 187/103/101
f 44/106/104 190/107/105 191/108/106
f 36/109/107 174/110/108 191/108/106
f 4/111/109 193/112/110 117/113/111
f 4/111/109 194/114/112 193/112/110
f 39/115/113 395/116/114 179/117/115
f 49/118/116 397/119/117 396/120/118
f 41/98/96 182/121/119 196/122/120
f 45/123/121 398/124/122 196/122/120
f 52/125/123 400/126/124 399/127/125
f 52/125/123 210/128/126 400/126/124
f 43/102/100 197/129/127 402/130/128
f 53/131/129 401/132/130 402/130/128
f 44/106/104 198/133/131 199/134/132
f 46/135/133 197/129/127 199/134/132
f 4/111/109 118/136/134 201/137/135
f 47/138/136 198/133/131 201/137/135
f 50/139/137 404/140/138 204/141/139
f 48/142/140 405/143/141 203/144/142
f 51/145/143 205/146/144 206/147/145
f 50/139/137 207/148/146 404/140/138
f 7/19/19 120/21/21 208/149/147
f 51/145/143 209/150/148 205/146/144
f 54/151/149 211/152/150 406/153/151
f 46/154/133 407/155/152 406/153/151
f 47/156/136 408/157/153 409/158/154
f 55/159/155 407/155/152 409/158/154
f 56/160/156 408/157/153 410/161/157
f 5/162/158 386/17/17 410/161/157
f 58/163/159 216/164/160 217/165/161
f 57/166/162 218/167/163 215/168/164
f 59/169/165 219/170/166 220/171/167
f 58/163/159 221/172/168 216/164/160
f 10/25/25 124/27/27 222/173/169
f 59/169/165 223/174/170 219/170/166
f 60/175/171 224/176/172 225/177/173
f 55/159/155 226/178/174 225/177/173
f 61/179/175 226/178/174 228/180/176
f 56/160/156 229/181/177 228/180/176
f 62/182/178 229/181/177 231/183/179
f 6/16/16 121/23/23 231/183/179
f 57/166/162 233/184/180 217/165/161
f 63/185/181 235/186/182 234/187/183
f 65/188/184 237/189/185 238/190/186
f 64/191/187 239/192/188 236/193/189
f 12/31/31 128/33/33 240/194/190
f 65/188/184 241/195/191 237/189/185
f 66/196/192 242/197/193 243/198/194
f 61/179/175 244/199/195 243/198/194
f 62/182/178 246/200/196 230/201/197
f 67/202/198 246/200/196 247/203/199
f 9/22/22 125/29/29 249/204/200
f 68/205/201 248/206/202 249/204/200
f 63/185/181 251/207/203 235/186/182
f 70/208/204 253/209/205 254/210/206
f 71/211/207 255/212/208 256/213/209
f 70/208/204 257/214/210 253/209/205
f 14/37/37 132/39/39 258/215/211
f 71/211/207 259/216/212 255/212/208
f 72/217/213 260/218/214 261/219/215
f 67/202/198 262/220/216 261/219/215
f 73/221/217 262/220/216 264/222/218
f 68/205/201 265/223/219 264/222/218
f 74/224/220 265/223/219 267/225/221
f 11/28/28 129/35/35 267/225/221
f 76/226/222 270/227/223 271/228/224
f 69/229/225 269/230/226 271/228/224
f 77/231/227 273/232/228 274/233/229
f 70/234/204 270/235/223 274/233/229
f 14/236/37 276/237/230 136/238/231
f 14/236/37 258/239/211 276/237/230
f 78/240/232 278/241/233 279/242/234
f 72/217/213 263/243/235 280/244/236
f 79/245/237 281/246/238 282/247/239
f 73/221/217 266/248/240 283/249/241
f 80/250/242 284/251/243 285/252/244
f 74/253/220 268/254/245 286/255/246
f 76/226/222 288/256/247 289/257/248
f 76/226/222 272/258/249 288/256/247
f 77/231/227 291/259/250 292/260/251
f 77/231/227 275/261/252 291/259/250
f 16/262/253 294/263/254 140/264/255
f 16/262/253 277/265/256 294/263/254
f 84/266/257 296/267/258 297/268/259
f 79/245/237 298/269/260 297/268/259
f 85/270/261 298/269/260 300/271/262
f 80/272/242 301/273/263 300/271/262
f 86/274/264 301/275/263 303/276/265
f 15/44/42 138/46/44 303/276/265
f 82/277/266 306/278/267 307/279/268
f 87/280/269 306/278/267 305/281/270
f 83/282/271 309/283/272 310/284/273
f 83/282/271 293/285/274 309/283/272
f 18/286/275 312/287/276 144/288/277
f 18/286/275 295/289/278 312/287/276
f 90/290/279 314/291/280 315/292/281
f 85/270/261 316/293/282 315/292/281
f 91/294/283 316/293/282 318/295/284
f 86/296/264 319/297/285 318/295/284
f 92/298/286 319/299/285 321/300/287
f 17/48/46 142/50/48 321/300/287
f 87/280/269 323/301/288 324/302/289
f 94/303/290 326/304/291 324/302/289
f 88/305/292 326/304/291 327/306/293
f 95/307/294 329/308/295 327/306/293
f 89/309/296 329/308/295 330/310/297
f 112/311/298 148/312/299 330/310/297
f 97/313/300 333/314/301 334/315/302
f 90/290/279 317/316/303 334/315/302
f 97/313/300 335/317/304 336/318/305
f 91/294/283 320/319/306 337/320/307
f 98/321/308 338/322/309 339/323/310
f 19/52/50 146/54/52 339/323/310
f 93/324/311 341/325/312 342/326/313
f 100/327/314 344/328/315 342/326/313
f 94/303/290 344/328/315 345/329/316
f 101/330/317 347/331/318 345/329/316
f 112/332/298 419/333/319 418/334/320
f 95/307/294 347/331/318 331/335/321
f 102/336/322 349/337/323 350/338/324
f 97/313/300 352/339/325 333/314/301
f 103/340/326 352/339/325 353/341/327
f 98/321/308 355/342/328 336/318/305
f 21/56/54 151/343/329 340/344/330
f 98/321/308 356/345/331 355/342/328
f 99/346/332 358/347/333 359/348/334
f 106/349/335 361/350/336 359/348/334
f 100/327/314 361/350/336 362/351/337
f 107/352/338 364/353/339 362/351/337
f 22/59/57 348/354/340 365/355/341
f 107/352/338 366/356/342 365/355/341
f 108/357/343 367/358/344 368/359/345
f 103/340/326 370/360/346 350/338/324
f 104/361/347 371/362/348 353/341/327
f 103/340/326 372/363/349 370/360/346
f 23/61/59 155/364/350 357/365/351
f 104/361/347 374/366/352 371/362/348
f 105/367/353 411/368/354 376/369/355
f 111/370/72 377/371/356 376/369/355
f 106/349/335 377/371/356 412/372/357
f 32/373/358 413/374/359 412/372/357
f 107/352/338 413/374/359 378/375/360
f 27/376/1 156/65/63 378/375/360
f 109/377/361 414/378/362 368/359/345
f 110/379/363 416/380/364 373/381/365
f 109/377/361 417/382/366 414/378/362
f 25/383/367 159/68/66 375/384/368
f 110/379/363 379/385/369 416/380/364
f 78/240/232 426/386/370 423/387/370
f 34/388/371 420/389/372 166/390/84
f 108/357/343 445/391/373 367/358/344
f 96/392/374 422/393/375 332/394/376
f 78/240/232 423/387/370 278/241/233
f 96/392/374 421/395/377 422/393/375
f 84/266/257 425/396/378 296/267/258
f 34/388/371 427/397/379 428/398/380
f 34/388/371 428/398/380 420/389/372
f 53/399/129 211/152/150 401/400/130
f 42/401/381 430/402/382 186/403/383
f 60/175/171 430/402/382 224/176/172
f 99/346/332 438/404/384 434/405/385
f 105/367/353 431/406/386 411/368/354
f 28/407/90 431/406/386 177/408/91
f 39/409/113 433/410/387 395/411/114
f 105/367/353 358/347/333 432/412/388
f 48/142/140 433/410/387 215/168/164
f 57/166/162 436/413/387 233/184/180
f 63/185/181 437/414/387 251/207/203
f 75/415/389 438/404/384 287/416/390
f 57/166/162 435/417/387 436/413/387
f 81/418/391 441/419/392 305/281/270
f 93/324/311 441/419/392 341/325/312
f 441/419/392 81/418/391 439/420/393
f 441/419/392 439/420/393 341/325/312
f 341/325/312 439/420/393 99/346/332
f 441/419/392 93/324/311 323/301/288
f 441/419/392 323/301/288 305/281/270
f 305/281/270 323/301/288 87/280/269
f 435/417/387 39/409/113 440/421/394
f 435/417/387 440/421/394 436/413/387
f 436/413/387 440/421/394 75/415/389
f 438/404/384 99/346/332 439/420/393
f 438/404/384 439/420/393 287/416/390
f 287/416/390 439/420/393 81/418/391
f 437/414/387 75/415/389 269/230/226
f 437/414/387 269/230/226 251/207/203
f 251/207/203 269/230/226 69/229/225
f 436/413/387 75/415/389 437/414/387
f 436/413/387 437/414/387 233/184/180
f 233/184/180 437/414/387 63/185/181
f 433/410/387 39/409/113 435/417/387
f 433/410/387 435/417/387 215/168/164
f 215/168/164 435/417/387 57/166/162
f 358/347/333 99/346/332 434/405/385
f 358/347/333 434/405/385 432/412/388
f 432/412/388 434/405/385 39/409/113
f 433/410/387 48/142/140 203/144/142
f 433/410/387 203/144/142 395/411/114
f 395/411/114 203/144/142 49/422/116
f 431/406/386 105/367/353 432/412/388
f 431/406/386 432/412/388 177/408/91
f 177/408/91 432/412/388 39/409/113
f 431/406/386 28/407/90 160/423/68
f 431/406/386 160/423/68 411/368/354
f 411/368/354 160/423/68 29/424/67
f 438/404/384 75/415/389 440/421/394
f 438/404/384 440/421/394 434/405/385
f 434/405/385 440/421/394 39/409/113
f 430/402/382 42/401/381 429/425/395
f 430/402/382 429/425/395 224/176/172
f 224/176/172 429/425/395 54/151/149
f 430/402/382 60/175/171 427/397/379
f 430/402/382 427/397/379 186/403/383
f 186/403/383 427/397/379 34/388/371
f 211/152/150 54/151/149 429/425/395
f 211/152/150 429/425/395 401/400/130
f 401/400/130 429/425/395 42/401/381
f 428/398/380 84/266/257 424/426/396
f 424/426/396 443/427/397 428/398/380
f 427/397/379 60/175/171 425/396/378
f 427/397/379 425/396/378 428/398/380
f 428/398/380 425/396/378 84/266/257
f 425/396/378 60/175/171 426/386/370
f 425/396/378 426/386/370 296/267/258
f 296/267/258 426/386/370 78/240/232
f 421/395/377 444/428/398 422/393/375
f 422/393/375 424/426/396 84/266/257
f 423/387/370 66/196/192 260/218/214
f 423/387/370 260/218/214 278/241/233
f 278/241/233 260/218/214 72/217/213
f 422/393/375 84/266/257 314/291/280
f 422/393/375 314/291/280 332/394/376
f 332/394/376 314/291/280 90/290/279
f 421/395/377 96/392/374 349/337/323
f 421/395/377 349/337/323 367/358/344
f 367/358/344 349/337/323 102/336/322
f 426/386/370 60/175/171 242/197/193
f 426/386/370 242/197/193 423/387/370
f 423/387/370 242/197/193 66/196/192
f 379/385/369 26/67/65 394/429/399
f 379/385/369 394/429/399 416/380/364
f 416/380/364 394/429/399 38/430/400
f 159/68/66 26/67/65 379/385/369
f 159/68/66 379/385/369 375/384/368
f 375/384/368 379/385/369 110/379/363
f 417/382/366 38/430/400 173/431/401
f 417/382/366 173/431/401 414/378/362
f 414/378/362 173/431/401 35/432/79
f 416/380/364 38/430/400 417/382/366
f 416/380/364 417/382/366 373/381/365
f 373/381/365 417/382/366 109/377/361
f 415/433/402 35/432/79 168/434/81
f 414/378/362 35/432/79 415/433/402
f 414/378/362 415/433/402 368/359/345
f 368/359/345 415/433/402 108/357/343
f 156/65/63 24/63/61 366/356/342
f 156/65/63 366/356/342 378/375/360
f 378/375/360 366/356/342 107/352/338
f 413/374/359 32/373/358 392/435/76
f 413/374/359 392/435/76 378/375/360
f 378/375/360 392/435/76 27/376/1
f 413/374/359 107/352/338 363/436/403
f 413/374/359 363/436/403 412/372/357
f 412/372/357 363/436/403 106/349/335
f 377/371/356 111/370/72 391/437/404
f 377/371/356 391/437/404 412/372/357
f 412/372/357 391/437/404 32/373/358
f 377/371/356 106/349/335 360/438/405
f 377/371/356 360/438/405 376/369/355
f 376/369/355 360/438/405 105/367/353
f 411/368/354 29/424/67 389/439/406
f 411/368/354 389/439/406 376/369/355
f 376/369/355 389/439/406 111/370/72
f 374/366/352 25/383/367 375/384/368
f 374/366/352 375/384/368 371/362/348
f 371/362/348 375/384/368 110/379/363
f 155/364/350 25/383/367 374/366/352
f 155/364/350 374/366/352 357/365/351
f 357/365/351 374/366/352 104/361/347
f 372/363/349 110/379/363 373/381/365
f 372/363/349 373/381/365 370/360/346
f 370/360/346 373/381/365 109/377/361
f 371/362/348 110/379/363 372/363/349
f 371/362/348 372/363/349 353/341/327
f 353/341/327 372/363/349 103/340/326
f 370/360/346 109/377/361 369/440/407
f 370/360/346 369/440/407 350/338/324
f 350/338/324 369/440/407 102/336/322
f 367/358/344 102/336/322 369/440/407
f 367/358/344 369/440/407 368/359/345
f 368/359/345 369/440/407 109/377/361
f 366/356/342 24/63/61 153/441/408
f 366/356/342 153/441/408 365/355/341
f 365/355/341 153/441/408 22/59/57
f 348/354/340 101/330/317 364/353/339
f 348/354/340 364/353/339 365/355/341
f 365/355/341 364/353/339 107/352/338
f 364/353/339 101/330/317 346/442/409
f 364/353/339 346/442/409 362/351/337
f 362/351/337 346/442/409 100/327/314
f 361/350/336 106/349/335 363/436/403
f 361/350/336 363/436/403 362/351/337
f 362/351/337 363/436/403 107/352/338
f 361/350/336 100/327/314 343/443/410
f 361/350/336 343/443/410 359/348/334
f 359/348/334 343/443/410 99/346/332
f 358/347/333 105/367/353 360/438/405
f 358/347/333 360/438/405 359/348/334
f 359/348/334 360/438/405 106/349/335
f 356/345/331 23/61/59 357/365/351
f 356/345/331 357/365/351 355/342/328
f 355/342/328 357/365/351 104/361/347
f 151/343/329 23/61/59 356/345/331
f 151/343/329 356/345/331 340/344/330
f 340/344/330 356/345/331 98/321/308
f 355/342/328 104/361/347 354/444/411
f 355/342/328 354/444/411 336/318/305
f 336/318/305 354/444/411 97/313/300
f 352/339/325 97/313/300 354/444/411
f 352/339/325 354/444/411 353/341/327
f 353/341/327 354/444/411 104/361/347
f 352/339/325 103/340/326 351/445/412
f 352/339/325 351/445/412 333/314/301
f 333/314/301 351/445/412 96/392/374
f 349/337/323 96/392/374 351/445/412
f 349/337/323 351/445/412 350/338/324
f 350/338/324 351/445/412 103/340/326
f 347/331/318 101/330/317 419/333/319
f 347/331/318 419/333/319 331/335/321
f 331/335/321 419/333/319 112/332/298
f 419/333/319 101/330/317 348/354/340
f 419/333/319 348/354/340 418/334/320
f 418/334/320 348/354/340 22/59/57
f 347/331/318 95/307/294 328/446/413
f 347/331/318 328/446/413 345/329/316
f 345/329/316 328/446/413 94/303/290
f 344/328/315 100/327/314 346/442/409
f 344/328/315 346/442/409 345/329/316
f 345/329/316 346/442/409 101/330/317
f 344/328/315 94/303/290 325/447/414
f 344/328/315 325/447/414 342/326/313
f 342/326/313 325/447/414 93/324/311
f 341/325/312 99/346/332 343/443/410
f 341/325/312 343/443/410 342/326/313
f 342/326/313 343/443/410 100/327/314
f 146/54/52 21/56/54 340/344/330
f 146/54/52 340/344/330 339/323/310
f 339/323/310 340/344/330 98/321/308
f 338/322/309 92/448/286 322/449/415
f 338/322/309 322/449/415 339/323/310
f 339/323/310 322/449/415 19/52/50
f 320/319/306 92/448/286 338/322/309
f 320/319/306 338/322/309 337/320/307
f 337/320/307 338/322/309 98/321/308
f 335/317/304 91/294/283 337/320/307
f 335/317/304 337/320/307 336/318/305
f 336/318/305 337/320/307 98/321/308
f 317/316/303 91/294/283 335/317/304
f 317/316/303 335/317/304 334/315/302
f 334/315/302 335/317/304 97/313/300
f 333/314/301 96/392/374 332/394/376
f 333/314/301 332/394/376 334/315/302
f 334/315/302 332/394/376 90/290/279
f 148/312/299 20/450/416 313/451/417
f 148/312/299 313/451/417 330/310/297
f 330/310/297 313/451/417 89/309/296
f 329/308/295 95/307/294 331/452/321
f 329/308/295 331/452/321 330/310/297
f 330/310/297 331/452/321 112/311/298
f 329/308/295 89/309/296 311/453/418
f 329/308/295 311/453/418 327/306/293
f 327/306/293 311/453/418 88/305/292
f 326/304/291 94/303/290 328/446/413
f 326/304/291 328/446/413 327/306/293
f 327/306/293 328/446/413 95/307/294
f 326/304/291 88/305/292 308/454/419
f 326/304/291 308/454/419 324/302/289
f 324/302/289 308/454/419 87/280/269
f 323/301/288 93/324/311 325/447/414
f 323/301/288 325/447/414 324/302/289
f 324/302/289 325/447/414 94/303/290
f 142/50/48 19/455/50 322/456/415
f 142/50/48 322/456/415 321/300/287
f 321/300/287 322/456/415 92/298/286
f 319/299/285 86/274/264 304/457/420
f 319/299/285 304/457/420 321/300/287
f 321/300/287 304/457/420 17/48/46
f 319/297/285 92/448/286 320/319/306
f 319/297/285 320/319/306 318/295/284
f 318/295/284 320/319/306 91/294/283
f 316/293/282 85/270/261 302/458/421
f 316/293/282 302/458/421 318/295/284
f 318/295/284 302/458/421 86/296/264
f 316/293/282 91/294/283 317/316/303
f 316/293/282 317/316/303 315/292/281
f 315/292/281 317/316/303 90/290/279
f 314/291/280 84/266/257 299/459/422
f 314/291/280 299/459/422 315/292/281
f 315/292/281 299/459/422 85/270/261
f 295/289/278 83/282/271 310/284/273
f 295/289/278 310/284/273 312/287/276
f 312/287/276 310/284/273 89/460/296
f 312/287/276 89/460/296 313/461/417
f 312/287/276 313/461/417 144/288/277
f 144/288/277 313/461/417 20/462/416
f 293/285/274 82/463/266 307/464/268
f 293/285/274 307/464/268 309/283/272
f 309/283/272 307/464/268 88/465/292
f 309/283/272 88/465/292 311/466/418
f 309/283/272 311/466/418 310/284/273
f 310/284/273 311/466/418 89/460/296
f 306/278/267 82/277/266 290/467/423
f 306/278/267 290/467/423 305/281/270
f 305/281/270 290/467/423 81/418/391
f 306/278/267 87/280/269 308/454/419
f 306/278/267 308/454/419 307/279/268
f 307/279/268 308/454/419 88/305/292
f 138/46/44 17/48/46 304/457/420
f 138/46/44 304/457/420 303/276/265
f 303/276/265 304/457/420 86/274/264
f 301/275/263 80/250/242 285/252/244
f 301/275/263 285/252/244 303/276/265
f 303/276/265 285/252/244 15/44/42
f 301/273/263 86/296/264 302/458/421
f 301/273/263 302/458/421 300/271/262
f 300/271/262 302/458/421 85/270/261
f 298/269/260 79/245/237 282/247/239
f 298/269/260 282/247/239 300/271/262
f 300/271/262 282/247/239 80/272/242
f 298/269/260 85/270/261 299/459/422
f 298/269/260 299/459/422 297/268/259
f 297/268/259 299/459/422 84/266/257
f 296/267/258 78/240/232 279/242/234
f 296/267/258 279/242/234 297/268/259
f 297/268/259 279/242/234 79/245/237
f 277/265/256 77/231/227 292/260/251
f 277/265/256 292/260/251 294/263/254
f 294/263/254 292/260/251 83/282/271
f 294/263/254 83/282/271 295/289/278
f 294/263/254 295/289/278 140/264/255
f 140/264/255 295/289/278 18/286/275
f 275/261/252 76/468/222 289/469/248
f 275/261/252 289/469/248 291/259/250
f 291/259/250 289/469/248 82/463/266
f 291/259/250 82/463/266 293/285/274
f 291/259/250 293/285/274 292/260/251
f 292/260/251 293/285/274 83/282/271
f 272/258/249 75/415/389 287/416/390
f 272/258/249 287/416/390 288/256/247
f 288/256/247 287/416/390 81/418/391
f 288/256/247 81/418/391 290/467/423
f 288/256/247 290/467/423 289/257/248
f 289/257/248 290/467/423 82/277/266
f 268/254/245 13/40/34 134/42/41
f 268/254/245 134/42/41 286/255/246
f 286/255/246 134/42/41 15/44/42
f 284/251/243 74/253/220 286/255/246
f 284/251/243 286/255/246 285/252/244
f 285/252/244 286/255/246 15/44/42
f 266/248/240 74/224/220 284/470/243
f 266/248/240 284/470/243 283/249/241
f 283/249/241 284/470/243 80/272/242
f 281/246/238 73/221/217 283/249/241
f 281/246/238 283/249/241 282/247/239
f 282/247/239 283/249/241 80/272/242
f 263/243/235 73/221/217 281/246/238
f 263/243/235 281/246/238 280/244/236
f 280/244/236 281/246/238 79/245/237
f 278/241/233 72/217/213 280/244/236
f 278/241/233 280/244/236 279/242/234
f 279/242/234 280/244/236 79/245/237
f 258/239/211 71/471/207 273/232/228
f 258/239/211 273/232/228 276/237/230
f 276/237/230 273/232/228 77/231/227
f 276/237/230 77/231/227 277/265/256
f 276/237/230 277/265/256 136/238/231
f 136/238/231 277/265/256 16/262/253
f 270/235/223 76/468/222 275/261/252
f 270/235/223 275/261/252 274/233/229
f 274/233/229 275/261/252 77/231/227
f 273/232/228 71/471/207 256/472/209
f 273/232/228 256/472/209 274/233/229
f 274/233/229 256/472/209 70/234/204
f 269/230/226 75/415/389 272/258/249
f 269/230/226 272/258/249 271/228/224
f 271/228/224 272/258/249 76/226/222
f 270/227/223 70/208/204 254/210/206
f 270/227/223 254/210/206 271/228/224
f 271/228/224 254/210/206 69/229/225
f 129/35/35 13/34/34 268/473/245
f 129/35/35 268/473/245 267/225/221
f 267/225/221 268/473/245 74/224/220
f 265/223/219 68/205/201 250/474/424
f 265/223/219 250/474/424 267/225/221
f 267/225/221 250/474/424 11/28/28
f 265/223/219 74/224/220 266/248/240
f 265/223/219 266/248/240 264/222/218
f 264/222/218 266/248/240 73/221/217
f 262/220/216 67/202/198 247/203/199
f 262/220/216 247/203/199 264/222/218
f 264/222/218 247/203/199 68/205/201
f 262/220/216 73/221/217 263/243/235
f 262/220/216 263/243/235 261/219/215
f 261/219/215 263/243/235 72/217/213
f 260/218/214 66/196/192 245/475/425
f 260/218/214 245/475/425 261/219/215
f 261/219/215 245/475/425 67/202/198
f 259/216/212 12/31/31 240/194/190
f 259/216/212 240/194/190 255/212/208
f 255/212/208 240/194/190 65/188/184
f 132/39/39 12/31/31 259/216/212
f 132/39/39 259/216/212 258/215/211
f 258/215/211 259/216/212 71/211/207
f 257/214/210 65/188/184 238/190/186
f 257/214/210 238/190/186 253/209/205
f 253/209/205 238/190/186 64/191/187
f 255/212/208 65/188/184 257/214/210
f 255/212/208 257/214/210 256/213/209
f 256/213/209 257/214/210 70/208/204
f 253/209/205 64/191/187 252/476/426
f 253/209/205 252/476/426 254/210/206
f 254/210/206 252/476/426 69/229/225
f 251/207/203 69/229/225 252/476/426
f 251/207/203 252/476/426 235/186/182
f 235/186/182 252/476/426 64/191/187
f 248/206/202 62/182/178 232/477/427
f 248/206/202 232/477/427 249/204/200
f 249/204/200 232/477/427 9/22/22
f 125/29/29 11/28/28 250/474/424
f 125/29/29 250/474/424 249/204/200
f 249/204/200 250/474/424 68/205/201
f 246/200/196 62/182/178 248/206/202
f 246/200/196 248/206/202 247/203/199
f 247/203/199 248/206/202 68/205/201
f 246/200/196 67/202/198 244/199/195
f 246/200/196 244/199/195 230/201/197
f 230/201/197 244/199/195 61/179/175
f 244/199/195 67/202/198 245/475/425
f 244/199/195 245/475/425 243/198/194
f 243/198/194 245/475/425 66/196/192
f 242/197/193 60/175/171 227/478/428
f 242/197/193 227/478/428 243/198/194
f 243/198/194 227/478/428 61/179/175
f 241/195/191 10/25/25 222/173/169
f 241/195/191 222/173/169 237/189/185
f 237/189/185 222/173/169 59/169/165
f 128/33/33 10/25/25 241/195/191
f 128/33/33 241/195/191 240/194/190
f 240/194/190 241/195/191 65/188/184
f 239/192/188 59/169/165 220/171/167
f 239/192/188 220/171/167 236/193/189
f 236/193/189 220/171/167 58/163/159
f 237/189/185 59/169/165 239/192/188
f 237/189/185 239/192/188 238/190/186
f 238/190/186 239/192/188 64/191/187
f 235/186/182 64/191/187 236/193/189
f 235/186/182 236/193/189 234/187/183
f 234/187/183 236/193/189 58/163/159
f 233/184/180 63/185/181 234/187/183
f 233/184/180 234/187/183 217/165/161
f 217/165/161 234/187/183 58/163/159
f 121/23/23 9/22/22 232/477/427
f 121/23/23 232/477/427 231/183/179
f 231/183/179 232/477/427 62/182/178
f 229/181/177 56/160/156 214/479/429
f 229/181/177 214/479/429 231/183/179
f 231/183/179 214/479/429 6/16/16
f 229/181/177 62/182/178 230/201/197
f 229/181/177 230/201/197 228/180/176
f 228/180/176 230/201/197 61/179/175
f 226/178/174 55/159/155 213/480/430
f 226/178/174 213/480/430 228/180/176
f 228/180/176 213/480/430 56/160/156
f 226/178/174 61/179/175 227/478/428
f 226/178/174 227/478/428 225/177/173
f 225/177/173 227/478/428 60/175/171
f 224/176/172 54/151/149 212/481/431
f 224/176/172 212/481/431 225/177/173
f 225/177/173 212/481/431 55/159/155
f 223/174/170 7/19/19 208/149/147
f 223/174/170 208/149/147 219/170/166
f 219/170/166 208/149/147 51/145/143
f 124/27/27 7/19/19 223/174/170
f 124/27/27 223/174/170 222/173/169
f 222/173/169 223/174/170 59/169/165
f 221/172/168 51/145/143 206/147/145
f 221/172/168 206/147/145 216/164/160
f 216/164/160 206/147/145 50/139/137
f 219/170/166 51/145/143 221/172/168
f 219/170/166 221/172/168 220/171/167
f 220/171/167 221/172/168 58/163/159
f 218/167/163 50/139/137 204/141/139
f 218/167/163 204/141/139 215/168/164
f 215/168/164 204/141/139 48/142/140
f 216/164/160 50/139/137 218/167/163
f 216/164/160 218/167/163 217/165/161
f 217/165/161 218/167/163 57/166/162
f 386/17/17 6/16/16 214/479/429
f 386/17/17 214/479/429 410/161/157
f 410/161/157 214/479/429 56/160/156
f 408/157/153 47/156/136 202/482/432
f 408/157/153 202/482/432 410/161/157
f 410/161/157 202/482/432 5/162/158
f 407/155/152 46/154/133 200/483/433
f 407/155/152 200/483/433 409/158/154
f 409/158/154 200/483/433 47/156/136
f 408/157/153 56/160/156 213/480/430
f 408/157/153 213/480/430 409/158/154
f 409/158/154 213/480/430 55/159/155
f 407/155/152 55/159/155 212/481/431
f 407/155/152 212/481/431 406/153/151
f 406/153/151 212/481/431 54/151/149
f 211/152/150 53/399/129 403/484/434
f 211/152/150 403/484/434 406/153/151
f 406/153/151 403/484/434 46/154/133
f 209/150/148 8/485/12 210/486/126
f 209/150/148 210/486/126 205/146/144
f 205/146/144 210/486/126 52/487/123
f 120/21/21 8/485/12 209/150/148
f 120/21/21 209/150/148 208/149/147
f 208/149/147 209/150/148 51/145/143
f 207/148/146 52/487/123 398/488/122
f 207/148/146 398/488/122 404/140/138
f 404/140/138 398/488/122 45/489/121
f 205/146/144 52/487/123 207/148/146
f 205/146/144 207/148/146 206/147/145
f 206/147/145 207/148/146 50/139/137
f 405/143/141 45/489/121 397/490/117
f 405/143/141 397/490/117 203/144/142
f 203/144/142 397/490/117 49/422/116
f 404/140/138 45/489/121 405/143/141
f 404/140/138 405/143/141 204/141/139
f 204/141/139 405/143/141 48/142/140
f 198/133/131 44/106/104 194/114/112
f 198/133/131 194/114/112 201/137/135
f 201/137/135 194/114/112 4/111/109
f 118/136/134 5/491/158 202/492/432
f 118/136/134 202/492/432 201/137/135
f 201/137/135 202/492/432 47/138/136
f 197/129/127 43/102/100 190/107/105
f 197/129/127 190/107/105 199/134/132
f 199/134/132 190/107/105 44/106/104
f 198/133/131 47/138/136 200/493/433
f 198/133/131 200/493/433 199/134/132
f 199/134/132 200/493/433 46/135/133
f 401/132/130 42/494/381 189/105/103
f 401/132/130 189/105/103 402/130/128
f 402/130/128 189/105/103 43/102/100
f 197/129/127 46/135/133 403/495/434
f 197/129/127 403/495/434 402/130/128
f 402/130/128 403/495/434 53/131/129
f 210/128/126 8/12/12 384/14/14
f 210/128/126 384/14/14 400/126/124
f 400/126/124 384/14/14 3/9/9
f 400/126/124 3/9/9 185/100/98
f 400/126/124 185/100/98 399/127/125
f 399/127/125 185/100/98 41/98/96
f 398/124/122 52/125/123 399/127/125
f 398/124/122 399/127/125 196/122/120
f 196/122/120 399/127/125 41/98/96
f 182/121/119 40/95/93 195/496/435
f 182/121/119 195/496/435 196/122/120
f 196/122/120 195/496/435 45/123/121
f 397/119/117 45/123/121 195/496/435
f 397/119/117 195/496/435 396/120/118
f 396/120/118 195/496/435 40/95/93
f 395/116/114 49/118/116 396/120/118
f 395/116/114 396/120/118 179/117/115
f 179/117/115 396/120/118 40/95/93
f 194/114/112 44/106/104 192/497/436
f 194/114/112 192/497/436 193/112/110
f 193/112/110 192/497/436 37/87/85
f 193/112/110 37/87/85 176/91/89
f 193/112/110 176/91/89 117/113/111
f 117/113/111 176/91/89 1/4/4
f 174/110/108 37/87/85 192/497/436
f 174/110/108 192/497/436 191/108/106
f 191/108/106 192/497/436 44/106/104
f 190/107/105 43/102/100 188/104/102
f 190/107/105 188/104/102 191/108/106
f 191/108/106 188/104/102 36/109/107
f 189/105/103 42/494/381 186/498/383
f 189/105/103 186/498/383 187/103/101
f 187/103/101 186/498/383 34/499/371
f 187/103/101 34/499/371 170/500/437
f 187/103/101 170/500/437 188/104/102
f 188/104/102 170/500/437 36/109/107
f 185/100/98 3/9/9 114/7/7
f 185/100/98 114/7/7 184/101/99
f 184/101/99 114/7/7 2/6/6
f 183/99/97 41/98/96 184/101/99
f 183/99/97 184/101/99 165/80/78
f 165/80/78 184/101/99 2/6/6
f 183/99/97 31/76/74 163/501/438
f 183/99/97 163/501/438 181/97/95
f 181/97/95 163/501/438 30/72/70
f 180/96/94 40/95/93 182/121/119
f 180/96/94 182/121/119 181/97/95
f 181/97/95 182/121/119 41/98/96
f 180/96/94 30/72/70 162/502/439
f 180/96/94 162/502/439 178/94/92
f 178/94/92 162/502/439 28/92/90
f 177/93/91 39/115/113 179/117/115
f 177/93/91 179/117/115 178/94/92
f 178/94/92 179/117/115 40/95/93
f 176/91/89 37/87/85 172/89/87
f 176/91/89 172/89/87 175/90/88
f 175/90/88 172/89/87 38/503/400
f 175/90/88 38/503/400 394/504/399
f 175/90/88 394/504/399 382/5/5
f 382/5/5 394/504/399 26/505/65
f 171/88/86 37/87/85 174/110/108
f 171/88/86 174/110/108 167/82/80
f 167/82/80 174/110/108 36/109/107
f 171/88/86 35/81/79 173/506/401
f 171/88/86 173/506/401 172/89/87
f 172/89/87 173/506/401 38/503/400
f 169/85/83 36/109/107 170/500/437
f 169/85/83 170/500/437 166/86/84
f 166/86/84 170/500/437 34/499/371
f 167/82/80 36/109/107 169/85/83
f 167/82/80 169/85/83 168/83/81
f 168/83/81 169/85/83 33/84/82
f 165/80/78 2/6/6 380/2/2
f 165/80/78 380/2/2 393/79/77
f 393/79/77 380/2/2 27/1/1
f 392/78/76 32/507/358 164/77/75
f 392/78/76 164/77/75 393/79/77
f 393/79/77 164/77/75 31/76/74
f 164/77/75 32/507/358 391/508/404
f 164/77/75 391/508/404 390/75/73
f 390/75/73 391/508/404 111/74/72
f 388/73/71 30/72/70 163/501/438
f 388/73/71 163/501/438 390/75/73
f 390/75/73 163/501/438 31/76/74
f 388/73/71 111/74/72 389/509/406
f 388/73/71 389/509/406 161/71/69
f 161/71/69 389/509/406 29/69/67
f 160/70/68 28/92/90 162/502/439
f 160/70/68 162/502/439 161/71/69
f 161/71/69 162/502/439 30/72/70
f 159/68/66 25/383/367 154/64/62
f 159/68/66 154/64/62 157/66/64
f 157/66/64 154/64/62 24/63/61
f 156/65/63 27/376/1 158/510/440
f 156/65/63 158/510/440 157/66/64
f 157/66/64 158/510/440 26/67/65
f 154/64/62 25/383/367 155/364/350
f 154/64/62 155/364/350 152/62/60
f 152/62/60 155/364/350 23/61/59
f 150/60/58 22/59/57 153/441/408
f 150/60/58 153/441/408 152/62/60
f 152/62/60 153/441/408 24/63/61
f 150/60/58 23/61/59 151/343/329
f 150/60/58 151/343/329 149/58/56
f 149/58/56 151/343/329 21/56/54
f 147/57/55 112/311/298 418/511/320
f 147/57/55 418/511/320 149/58/56
f 149/58/56 418/511/320 22/59/57
f 143/55/53 20/450/416 148/312/299
f 143/55/53 148/312/299 145/53/51
f 145/53/51 148/312/299 112/311/298
f 145/53/51 112/311/298 147/57/55
f 145/53/51 147/57/55 146/54/52
f 146/54/52 147/57/55 21/56/54
f 139/51/49 18/286/275 144/288/277
f 139/51/49 144/288/277 141/49/47
f 141/49/47 144/288/277 20/462/416
f 141/49/47 20/462/416 143/512/53
f 141/49/47 143/512/53 142/50/48
f 142/50/48 143/512/53 19/455/50
f 135/47/45 16/262/253 140/264/255
f 135/47/45 140/264/255 137/45/43
f 137/45/43 140/264/255 18/286/275
f 137/45/43 18/286/275 139/51/49
f 137/45/43 139/51/49 138/46/44
f 138/46/44 139/51/49 17/48/46
f 130/43/36 14/236/37 136/238/231
f 130/43/36 136/238/231 133/41/40
f 133/41/40 136/238/231 16/262/253
f 133/41/40 16/262/253 135/47/45
f 133/41/40 135/47/45 134/42/41
f 134/42/41 135/47/45 15/44/42
f 131/38/38 11/28/28 126/30/30
f 131/38/38 126/30/30 132/39/39
f 132/39/39 126/30/30 12/31/31
f 129/35/35 11/28/28 131/38/38
f 129/35/35 131/38/38 130/36/36
f 130/36/36 131/38/38 14/37/37
f 127/32/32 9/22/22 122/24/24
f 127/32/32 122/24/24 128/33/33
f 128/33/33 122/24/24 10/25/25
f 125/29/29 9/22/22 127/32/32
f 125/29/29 127/32/32 126/30/30
f 126/30/30 127/32/32 12/31/31
f 123/26/26 6/16/16 119/18/18
f 123/26/26 119/18/18 124/27/27
f 124/27/27 119/18/18 7/19/19
f 121/23/23 6/16/16 123/26/26
f 121/23/23 123/26/26 122/24/24
f 122/24/24 123/26/26 10/25/25
f 387/20/20 5/162/158 385/513/15
f 387/20/20 385/513/15 120/21/21
f 120/21/21 385/513/15 8/485/12
f 386/17/17 5/162/158 387/20/20
f 386/17/17 387/20/20 119/18/18
f 119/18/18 387/20/20 7/19/19
f 385/15/15 5/491/158 118/136/134
f 385/15/15 118/136/134 383/13/13
f 383/13/13 118/136/134 4/111/109
f 383/13/13 4/111/109 116/10/10
f 383/13/13 116/10/10 384/14/14
f 384/14/14 116/10/10 3/9/9
f 116/10/10 4/111/109 117/113/111
f 116/10/10 117/113/111 115/11/11
f 115/11/11 117/113/111 1/4/4
f 114/7/7 3/9/9 115/11/11
f 114/7/7 115/11/11 113/8/8
f 113/8/8 115/11/11 1/4/4
f 382/5/5 26/505/65 158/514/440
f 382/5/5 158/514/440 381/3/3
f 381/3/3 158/514/440 27/1/1
f 380/2/2 2/6/6 113/8/8
f 380/2/2 113/8/8 381/3/3
f 381/3/3 113/8/8 1/4/4
f 428/398/380 442/515/441 420/389/372
f 428/398/380 443/427/397 442/515/441
f 422/393/375 444/428/398 424/426/396
f 367/358/344 445/391/373 421/395/377
