# Blender 4.4.3
# www.blender.org
mtllib cave_map_large.mtl
o cave_map_large.010
v -31.759037 -32.636833 -188.934219
v -31.277676 -33.119976 -184.988449
v -28.190773 -33.119976 -185.689713
v -28.672140 -32.636833 -189.635483
v -23.339260 -32.234470 -190.846970
v -22.226444 -30.744923 -191.099777
v -21.745087 -30.744921 -187.154007
v -22.857895 -32.234470 -186.901199
v -21.914909 -28.853016 -191.170547
v -21.433544 -28.853014 -187.224777
v -23.982742 -26.961105 -190.700790
v -23.501381 -26.961103 -186.755020
v -25.585232 -25.069199 -190.336746
v -25.103870 -25.069197 -186.390976
v -28.672140 -25.069199 -189.635483
v -28.190773 -25.277899 -185.689713
v -31.759037 -26.359034 -188.934219
v -31.277676 -26.606760 -184.988449
v -34.845940 -25.355040 -188.232956
v -34.364578 -25.355040 -184.287186
v -36.423473 -26.452791 -187.874588
v -36.358597 -26.977034 -184.106522
v -36.052666 -28.953417 -183.105942
v -37.376152 -28.853014 -187.658157
v -36.341095 -30.526484 -183.655319
v -37.064617 -30.744921 -187.728928
v -36.203835 -32.636833 -187.924469
v -34.364578 -32.636833 -184.287186
v -27.438034 -33.007545 -176.670074
v -28.947073 -32.644508 -176.715744
v -28.927128 -33.043705 -178.222122
v -30.496080 -33.121803 -181.740829
v -33.582985 -32.636833 -181.039566
v -33.518040 -32.581650 -196.923080
v -32.466156 -32.379536 -197.172424
v -35.777199 -32.398289 -195.174362
v -32.227249 -32.376873 -195.678207
v -32.188934 -32.341743 -192.261734
v -36.289131 -32.618744 -191.330276
v -25.977669 -33.007545 -176.439743
v -26.176651 -33.043705 -178.846970
v -27.409182 -32.991859 -182.442093
v -31.416616 -32.379536 -197.421204
v -30.185015 -32.376873 -196.142136
v -29.438461 -32.341743 -192.886551
v -22.185848 -32.618744 -179.188370
v -28.741253 -32.357513 -196.470123
v -26.016865 -32.618744 -194.425095
v -23.956512 -31.456076 -176.914978
v -24.122509 -32.549400 -176.917526
v -21.682312 -30.904909 -179.302765
v -20.963490 -30.744921 -183.906387
v -22.076302 -32.234470 -183.653580
v -30.846418 -32.359943 -197.556351
v -30.703701 -31.744652 -197.590195
v -28.427656 -31.281132 -196.541367
v -25.513329 -30.904911 -194.539474
v -24.088989 -30.460032 -176.858032
v -21.397522 -29.201433 -179.367447
v -20.651951 -28.853014 -183.977158
v -30.755888 -30.905979 -197.614700
v -28.225847 -29.994869 -196.587219
v -25.228539 -29.201439 -194.604172
v -23.850456 -29.330667 -176.922989
v -22.898487 -27.500711 -179.591660
v -22.719784 -26.961103 -183.507401
v -30.312748 -30.068386 -197.719757
v -27.687521 -28.727150 -196.709503
v -26.160297 -27.500717 -193.631271
v -24.155762 -28.254648 -176.853622
v -23.385929 -25.801157 -179.480927
v -24.322273 -25.069197 -183.143356
v -30.499550 -29.174858 -197.675461
v -28.045979 -27.463837 -196.628067
v -26.647747 -25.801159 -193.520554
v -25.838951 -28.109129 -176.471252
v -26.146980 -25.769461 -178.853699
v -27.409182 -25.277899 -182.442093
v -31.539900 -29.352180 -197.428879
v -30.022146 -27.292984 -196.179153
v -29.408789 -25.769463 -192.893295
v -27.578411 -28.109129 -176.076096
v -28.897455 -25.769461 -178.228867
v -30.496080 -26.606760 -181.740829
v -32.589439 -29.352180 -197.180099
v -32.064384 -27.292984 -195.715195
v -32.159264 -25.769463 -192.268478
v -29.166222 -28.254648 -176.134140
v -31.637356 -25.801157 -177.606430
v -33.582985 -25.069197 -181.039566
v -33.648167 -29.174858 -196.929153
v -35.325592 -27.463837 -194.974350
v -35.068134 -26.356716 -191.607651
v -29.616352 -29.330667 -176.947495
v -32.149216 -27.500711 -177.490158
v -35.067360 -26.961103 -180.723190
v -34.563911 -30.068386 -196.712082
v -35.704384 -28.488750 -194.883835
v -36.768913 -27.500717 -191.221283
v -29.807831 -30.410433 -176.903992
v -32.435577 -29.201433 -177.425095
v -34.455292 -28.853014 -180.841400
v -35.078224 -30.346977 -196.722778
v -35.897289 -29.997955 -195.093872
v -37.055283 -29.201439 -191.156235
v -29.628616 -31.505999 -176.944702
v -32.165199 -30.904909 -177.486526
v -34.143753 -30.744921 -180.912170
v -34.416103 -31.744652 -196.710220
v -35.898674 -31.261448 -195.031128
v -36.784901 -30.904911 -191.217651
v -31.669426 -32.618744 -177.599136
v -36.060608 -31.732096 -183.127151
v -31.518358 -32.878403 -186.961334
v -29.734226 -33.119976 -185.339066
v -29.974909 -32.878403 -187.311966
v -28.431454 -32.878403 -187.662598
v -30.215588 -32.636833 -189.284836
v -26.005695 -32.435654 -190.241226
v -21.985764 -30.744921 -189.126877
v -22.301491 -31.489695 -187.027603
v -22.070675 -29.798969 -191.135162
v -21.674225 -28.853014 -189.197647
v -21.829998 -29.798967 -189.162277
v -21.589314 -29.798967 -187.189377
v -22.948826 -27.907059 -190.935654
v -23.742065 -26.961103 -188.727890
v -22.708145 -27.907057 -188.962784
v -22.467464 -27.907057 -186.989883
v -24.783989 -26.015152 -190.518753
v -25.344555 -25.069197 -188.363861
v -24.543308 -26.015150 -188.545883
v -24.302628 -26.015150 -186.572998
v -26.888004 -25.173548 -188.013229
v -27.128685 -25.069199 -189.986099
v -28.431454 -25.173548 -187.662598
v -26.647327 -25.173548 -186.040329
v -29.974909 -25.837980 -187.311966
v -30.215588 -25.714113 -189.284836
v -31.518358 -26.482897 -186.961334
v -29.734226 -25.942331 -185.339066
v -33.061810 -25.857035 -186.610703
v -33.302490 -25.857035 -188.583588
v -34.605263 -25.355040 -186.260056
v -32.821129 -25.980898 -184.637802
v -35.602268 -26.166037 -186.169739
v -35.634708 -25.903913 -188.053772
v -36.391037 -26.714911 -185.990555
v -35.361588 -26.166037 -184.196854
v -36.719910 -27.540018 -186.065521
v -36.250160 -29.278276 -183.499741
v -37.196251 -28.740133 -185.957321
v -36.899815 -27.652899 -187.766373
v -36.979706 -29.798967 -185.720657
v -36.300484 -29.895231 -183.575684
v -36.823936 -30.744921 -185.756042
v -37.220387 -29.798967 -187.693542
v -36.248177 -31.731604 -183.495926
v -36.393547 -31.690874 -185.853821
v -35.284210 -32.636833 -186.105820
v -36.634224 -31.690874 -187.826706
v -28.654215 -32.826027 -176.578323
v -29.173096 -32.844109 -176.940033
v -28.322130 -33.025627 -177.133347
v -29.711603 -33.082756 -179.981476
v -32.039532 -32.879318 -181.390198
v -30.886881 -33.120888 -183.364639
v -32.992100 -32.480595 -197.047760
v -33.802795 -32.497345 -195.320267
v -35.169868 -32.352066 -196.164902
v -32.872646 -32.479263 -196.300644
v -32.346703 -32.378204 -196.425308
v -33.783638 -32.479778 -193.612045
v -34.239033 -32.480244 -191.796005
v -35.833736 -32.618279 -193.146317
v -32.208092 -32.359310 -193.969955
v -34.024086 -32.627789 -190.132248
v -31.973988 -32.489288 -190.597977
v -26.657265 -33.007545 -176.668259
v -26.946888 -33.025627 -177.445786
v -26.077160 -33.025627 -177.643356
v -27.551888 -33.043705 -178.534531
v -28.168152 -33.017784 -180.332108
v -26.792912 -33.017784 -180.644516
v -28.952629 -33.056831 -182.091446
v -29.343430 -33.055916 -183.715271
v -27.799976 -33.055916 -184.065903
v -31.941387 -32.379536 -197.296814
v -31.325586 -32.378204 -196.657272
v -31.206131 -32.376873 -195.910172
v -30.800816 -32.378204 -196.781662
v -29.811737 -32.359310 -194.514359
v -30.832855 -32.359310 -194.282394
v -30.813700 -32.341743 -192.574142
v -30.430536 -32.489288 -190.948593
v -29.055298 -32.489288 -191.261032
v -24.181252 -32.831223 -179.017670
v -24.797512 -32.805302 -180.815231
v -29.463133 -32.367191 -196.306137
v -27.727663 -32.480244 -193.655838
v -29.089855 -32.349628 -194.678360
v -27.379057 -32.488129 -195.447601
v -27.344501 -32.627789 -192.030289
v -24.678062 -32.426609 -192.636032
v -23.908501 -32.063480 -176.943359
v -22.772514 -31.205458 -178.111481
v -21.519890 -31.489695 -183.779984
v -21.322899 -30.824919 -181.604568
v -21.879307 -31.569693 -181.478165
v -21.354286 -30.744921 -185.530197
v -21.910690 -31.489695 -185.403793
v -22.467094 -32.234470 -185.277390
v -30.775059 -32.052296 -197.573273
v -29.565680 -31.512890 -197.065781
v -26.970490 -31.093021 -195.540421
v -23.869888 -30.824921 -192.819626
v -23.893303 -30.849195 -176.907974
v -21.539913 -30.053171 -179.335098
v -22.544170 -29.805937 -178.163345
v -22.686569 -30.657675 -178.130997
v -20.807720 -29.798967 -183.941772
v -21.024731 -29.027224 -181.672302
v -21.180504 -29.973177 -181.636917
v -21.042747 -28.853014 -185.600967
v -21.198517 -29.798967 -185.565567
v -30.729795 -31.325317 -197.602432
v -29.591774 -31.093555 -197.078049
v -28.326752 -30.638000 -196.564285
v -29.490870 -30.450420 -197.100967
v -26.869587 -30.449890 -195.563339
v -25.370930 -30.053177 -194.571823
v -26.727192 -29.598152 -195.595688
v -23.727493 -29.973183 -192.851974
v -23.571724 -29.027225 -192.887360
v -24.423180 -30.101690 -176.782547
v -22.623985 -29.266050 -178.145218
v -23.374470 -28.415689 -178.257339
v -22.147999 -28.351072 -179.479568
v -21.685867 -27.907057 -183.742264
v -22.809135 -27.230909 -181.549545
v -21.775219 -28.176863 -181.784409
v -23.110584 -26.961103 -185.131210
v -22.076664 -27.907057 -185.366089
v -30.534317 -30.487183 -197.667221
v -29.269297 -30.031628 -197.153488
v -27.956686 -29.361012 -196.648361
v -29.000132 -29.397770 -197.214645
v -26.458031 -28.964294 -195.656845
v -26.923908 -28.113934 -195.170395
v -25.694416 -28.351078 -194.117722
v -24.037601 -28.176865 -192.400925
v -25.071518 -27.230911 -192.166031
v -24.003105 -28.792658 -176.888321
v -23.527119 -27.877680 -178.222641
v -23.142208 -26.650934 -179.536301
v -23.770847 -27.027903 -178.167282
v -23.521034 -26.015150 -183.325363
v -23.854103 -25.435175 -181.312134
v -23.052860 -26.381132 -181.494156
v -24.713074 -25.069197 -184.767166
v -23.911831 -26.015150 -184.949173
v -30.406147 -29.621620 -197.697617
v -29.093540 -28.951004 -197.192490
v -27.866747 -28.095493 -196.668793
v -29.272764 -28.319344 -197.151779
v -27.103134 -27.482277 -195.129684
v -26.404018 -26.650936 -193.575912
v -27.346861 -26.632496 -195.074326
v -25.315243 -26.381134 -192.110657
v -26.116493 -25.435177 -191.928650
v -24.997356 -28.181890 -176.662430
v -24.766457 -25.785307 -179.167313
v -25.151375 -27.012056 -177.853668
v -25.992962 -26.939291 -177.662476
v -25.865730 -25.173548 -182.792725
v -25.397556 -25.539526 -180.961502
v -26.778080 -25.523680 -180.647903
v -26.256527 -25.173548 -184.416534
v -27.799976 -25.277899 -184.065903
v -31.019722 -29.263519 -197.552170
v -30.781025 -28.322582 -196.804001
v -30.260851 -28.233921 -196.927292
v -29.034061 -27.378410 -196.403610
v -29.715469 -26.531223 -194.536240
v -28.727383 -26.616650 -194.760696
v -28.028271 -25.785313 -193.206924
v -29.040462 -25.419331 -191.264389
v -27.659939 -25.435177 -191.578003
v -26.708679 -28.109129 -176.273666
v -26.862694 -26.939291 -177.464905
v -27.522219 -25.769461 -178.541275
v -28.237930 -26.939291 -177.152481
v -28.153318 -25.523680 -180.335464
v -28.952629 -25.942331 -182.091446
v -29.696766 -26.188108 -179.984848
v -29.343430 -25.942331 -183.715271
v -30.886881 -26.606760 -183.364639
v -32.064667 -29.352180 -197.304489
v -31.305794 -28.322582 -196.679626
v -31.043270 -27.292984 -195.947159
v -32.326912 -28.322582 -196.447647
v -30.736591 -26.531223 -194.304245
v -30.784029 -25.769463 -192.580887
v -32.111824 -26.531223 -193.991837
v -30.415701 -25.419331 -190.951981
v -31.959152 -26.064247 -190.601334
v -28.476278 -28.181890 -175.872116
v -29.135796 -27.012053 -176.948502
v -30.267405 -25.785307 -177.917648
v -30.505751 -27.027903 -176.637299
v -31.066719 -26.203962 -179.673630
v -32.039532 -25.837980 -181.390198
v -32.610168 -25.435175 -179.322998
v -32.430328 -25.837980 -183.014023
v -33.973782 -25.212118 -182.663376
v -33.118805 -29.263519 -197.054611
v -32.856277 -28.233921 -196.322159
v -33.694988 -27.378407 -195.344772
v -34.486877 -28.319344 -195.951736
v -33.742432 -26.616650 -193.621414
v -33.613701 -26.063091 -191.938065
v -35.196865 -26.910275 -193.291000
v -33.413586 -26.357876 -190.270935
v -34.957039 -25.855881 -189.920303
v -29.495251 -28.792658 -176.307816
v -30.761677 -27.877680 -176.579147
v -30.882784 -28.415689 -177.218826
v -31.893286 -26.650934 -177.548294
v -33.352360 -26.381132 -179.164795
v -33.608284 -27.230909 -179.106674
v -34.325169 -26.015150 -180.881363
v -34.970787 -26.023115 -182.573044
v -35.848122 -28.961496 -182.706680
v -34.106041 -29.621620 -196.820602
v -34.864826 -28.893661 -196.159378
v -34.532600 -28.480793 -196.093155
v -35.517365 -28.095493 -194.930771
v -36.239021 -28.113934 -193.054245
v -36.047256 -27.482277 -193.097794
v -35.918526 -26.928715 -191.414474
v -35.807426 -26.427879 -189.727127
v -36.596195 -26.976753 -189.547928
v -29.712091 -29.870550 -176.925735
v -31.025967 -29.266050 -177.186295
v -31.121704 -29.805937 -177.164536
v -32.292397 -28.351072 -177.457626
v -33.302254 -28.176863 -179.165771
v -33.445435 -29.027224 -179.133240
v -34.761322 -27.907057 -180.782288
v -35.712990 -26.969069 -182.414841
v -34.939110 -30.014896 -196.676498
v -35.395397 -29.906357 -195.914963
v -35.095085 -29.146645 -195.887222
v -35.818703 -28.867802 -194.844894
v -36.494606 -29.598152 -192.996185
v -36.382202 -28.964294 -193.021713
v -36.912102 -28.351078 -191.188766
v -37.072536 -28.176863 -189.439713
v -37.215721 -29.027224 -189.407181
v -29.718224 -30.958216 -176.924347
v -30.986517 -30.657675 -177.195236
v -30.896908 -31.205458 -177.215622
v -32.300388 -30.053171 -177.455795
v -33.289665 -29.973177 -179.168625
v -33.154476 -30.824919 -179.199356
v -34.299522 -29.798967 -180.876785
v -35.635010 -29.294477 -182.299118
v -35.597168 -31.130663 -182.223358
v -34.638031 -31.325317 -196.676071
v -35.116661 -31.257442 -196.303864
v -35.213634 -30.262280 -196.193695
v -35.866669 -30.653965 -195.112305
v -36.920090 -30.053177 -191.186935
v -36.359417 -30.449890 -193.026901
v -36.254211 -31.093021 -193.050797
v -37.059948 -29.973181 -189.442581
v -36.924759 -30.824919 -189.473297
v -30.649021 -32.062370 -177.271927
v -31.917311 -31.761827 -177.542831
v -35.662144 -31.408937 -182.352158
v -36.494370 -31.770874 -189.571060
v -32.821129 -32.878403 -184.637802
v -33.061810 -32.636833 -186.610703
v -33.981438 -32.636833 -188.429337
v -25.765015 -32.435654 -188.268326
v -25.524338 -32.677223 -186.295456
v -23.098576 -32.234470 -188.874084
v -22.782852 -31.489697 -190.973373
v -22.542175 -31.489695 -189.000488
v -30.298275 -32.831223 -177.910629
v -30.413940 -32.631626 -176.920578
v -31.082754 -32.870274 -179.669983
v -32.626205 -32.627789 -179.319351
v -33.973782 -32.636833 -182.663376
v -32.430328 -32.879318 -183.014008
v -36.246483 -32.627789 -189.627380
v -25.309368 -32.586922 -176.690659
v -25.188671 -32.844109 -177.845200
v -23.193268 -32.631626 -178.015900
v -22.131077 -32.426609 -181.420975
v -24.742741 -32.613167 -183.047836
v -25.133541 -32.677223 -184.671646
v -31.131519 -32.369740 -197.488785
v -30.515715 -32.368408 -196.849243
v -29.793835 -32.358730 -197.013245
v -21.934082 -31.761827 -179.245560
v -23.024284 -32.062370 -178.054276
v -29.722475 -32.051086 -197.030167
v -28.584457 -31.819324 -196.505753
v -25.765095 -31.761829 -194.482285
v -27.222260 -31.949940 -195.483231
v -24.426292 -31.569695 -192.693222
v -29.393538 -32.075253 -176.593353
v -32.874092 -31.770872 -179.263046
v -33.863369 -31.690874 -180.975876
v -33.967072 -32.163151 -196.816666
v -35.890141 -31.868725 -195.015976
v -35.074326 -31.864544 -196.343674
v -36.537018 -31.761829 -191.273972
v -36.006325 -31.949940 -193.107101
v -36.614052 -27.362173 -184.003616
v -35.155777 -27.870821 -181.422501
v -33.441132 -32.062096 -196.941315
v -34.490005 -30.906521 -196.711136
v -33.576675 -29.710281 -196.946091
v -30.926323 -29.710281 -197.574310
v -33.502769 -30.548416 -196.945160
v -31.672663 -30.129078 -197.397400
v -31.147892 -30.129078 -197.521790
v -31.611021 -31.642757 -197.393570
v -32.527798 -30.865860 -197.176254
v -31.060160 -32.062096 -197.505692
v -31.086250 -31.642757 -197.517960
v -28.672874 -32.256775 -176.494644
v -27.803143 -32.256775 -176.692215
v -25.499462 -32.056004 -176.637375
v -27.685492 -31.130465 -176.318985
v -25.481560 -31.448912 -176.621719
v -24.877491 -29.942511 -176.690231
v -24.844700 -29.096205 -176.697128
v -27.823389 -29.259779 -176.687637
v -28.693121 -29.259779 -176.490036
v -25.852432 -29.993498 -176.658737
v -28.597382 -28.719900 -176.511795
v -25.406990 -30.186075 -176.596207
v -25.384613 -30.842188 -176.621170
v -24.455261 -32.668091 -176.857391
v -24.911537 -32.665951 -176.769638
v -35.835762 -31.453657 -182.691284
v -35.578812 -30.533449 -182.188950
v -36.287235 -31.119577 -183.570221
v -35.600109 -29.925497 -182.230728
v -35.336983 -32.473213 -195.887146
v -35.570946 -32.474415 -195.506348
v -35.632942 -29.750492 -195.535873
v -35.101967 -30.650043 -196.356842
vn 0.2555 0.9624 -0.0925
vn 0.1616 0.9863 0.0319
vn 0.0883 0.9949 0.0495
vn 0.0229 0.9968 0.0767
vn 0.0006 1.0000 0.0026
vn 0.0844 0.9956 0.0416
vn 0.0092 0.9991 0.0406
vn 0.1016 0.9889 0.1087
vn -0.0623 0.9965 0.0565
vn -0.0528 0.9904 0.1277
vn 0.0269 0.9926 0.1183
vn -0.4802 0.8712 0.1018
vn -0.1029 0.9920 0.0728
vn -0.1439 0.9858 0.0870
vn -0.4730 0.8792 0.0577
vn -0.8419 0.3752 0.3878
vn -0.7250 0.5992 0.3396
vn -0.9108 0.3975 0.1111
vn -0.9011 0.4020 0.1625
vn -0.7895 0.6062 0.0963
vn -0.7815 0.6078 0.1412
vn -0.8649 -0.3049 0.3988
vn -0.8928 0.1627 0.4201
vn -0.9369 -0.3303 0.1143
vn -0.9267 -0.3366 0.1668
vn -0.9789 0.1657 0.1194
vn -0.9704 0.1663 0.1754
vn -0.6723 -0.6789 0.2952
vn -0.6048 -0.7364 0.3032
vn -0.7083 -0.7006 0.0864
vn -0.7019 -0.7009 0.1268
vn -0.6628 -0.7445 0.0809
vn -0.6555 -0.7459 0.1184
vn -0.3891 -0.9043 0.1758
vn -0.7192 -0.6542 0.2341
vn -0.3829 -0.9226 0.0467
vn -0.3649 -0.9287 0.0664
vn -0.7511 -0.6538 0.0916
vn -0.7433 -0.6554 0.1343
vn 0.0270 -0.9992 -0.0297
vn 0.0180 -0.9967 0.0794
vn 0.1489 -0.9888 0.0092
vn 0.3695 -0.9240 -0.0985
vn 0.3512 -0.9237 -0.1530
vn 0.1856 -0.9798 -0.0745
vn 0.0821 -0.9952 -0.0529
vn -0.3402 -0.9403 0.0124
vn -0.2709 -0.9483 0.1652
vn -0.0078 -0.9981 -0.0617
vn 0.1755 -0.9784 0.1090
vn 0.5871 -0.8033 -0.1005
vn 0.5756 -0.8171 0.0308
vn 0.1838 -0.9827 -0.0224
vn 0.7625 -0.6470 0.0011
vn 0.7696 -0.6322 -0.0899
vn 0.9396 -0.3218 -0.1167
vn 0.9238 0.0213 -0.3822
vn 0.9665 -0.1334 -0.2194
vn 0.9954 -0.0926 -0.0224
vn 0.9679 0.1479 -0.2033
vn 0.9738 0.0939 -0.2072
vn 0.9368 0.2999 -0.1801
vn 0.9956 0.0694 -0.0637
vn 0.8147 0.5621 -0.1426
vn 0.5581 0.8283 -0.0502
vn 0.9088 0.4164 -0.0279
vn 0.4750 0.4846 -0.7345
vn 0.1884 0.6225 -0.7596
vn 0.1854 0.8840 -0.4291
vn 0.0672 0.9961 -0.0562
vn 0.1327 0.9834 -0.1238
vn 0.4701 0.6503 -0.5967
vn 0.1355 0.9874 -0.0815
vn 0.0555 0.9980 -0.0298
vn 0.1420 0.9881 -0.0583
vn 0.3978 0.9027 -0.1642
vn 0.1470 0.9885 -0.0351
vn 0.0538 0.9985 -0.0124
vn -0.0432 0.9864 0.1588
vn -0.0045 0.9999 0.0155
vn 0.1486 0.8407 0.5207
vn 0.1773 0.7761 0.6052
vn -0.1017 0.9946 -0.0219
vn 0.0344 0.7004 0.7129
vn -0.0273 0.9989 0.0388
vn -0.0528 0.9986 0.0040
vn -0.0587 0.9975 0.0383
vn 0.4365 0.8997 -0.0104
vn -0.0223 0.9985 0.0498
vn -0.0132 0.9959 0.0900
vn 0.0091 0.7771 -0.6293
vn 0.1266 0.8422 -0.5240
vn -0.0036 0.9998 -0.0191
vn -0.0676 0.9977 0.0022
vn -0.0002 1.0000 -0.0007
vn -0.0199 0.9998 0.0051
vn -0.0747 0.9971 0.0121
vn -0.0413 0.9991 0.0035
vn -0.0753 0.9969 -0.0212
vn -0.0241 0.9996 -0.0136
vn -0.0086 1.0000 0.0013
vn -0.0004 1.0000 -0.0017
vn -0.0014 1.0000 -0.0060
vn -0.0144 0.9998 0.0118
vn 0.0471 0.9981 0.0385
vn -0.0087 0.9999 -0.0088
vn -0.0023 0.9999 -0.0103
vn -0.0511 0.9986 -0.0133
vn -0.0404 0.9991 -0.0098
vn -0.0166 0.9971 0.0741
vn 0.0195 0.9961 0.0858
vn 0.0232 0.9945 0.1021
vn 0.0644 0.9951 0.0751
vn -0.2374 0.6933 -0.6805
vn -0.3202 0.7690 -0.5532
vn -0.1465 0.9882 -0.0456
vn -0.4397 0.8382 -0.3227
vn -0.5241 0.7270 -0.4437
vn -0.1432 0.9824 -0.1200
vn -0.0494 0.9983 0.0313
vn -0.1117 0.9916 0.0657
vn -0.6661 0.7040 -0.2464
vn -0.6471 0.7608 0.0496
vn -0.5511 0.8329 0.0505
vn -0.1486 0.9888 0.0162
vn -0.1319 0.9905 0.0386
vn -0.4989 0.8583 0.1201
vn -0.0124 0.9999 0.0046
vn -0.0190 0.9996 0.0209
vn -0.0651 0.6516 0.7558
vn 0.1418 0.7003 0.6996
vn 0.0978 0.9945 0.0384
vn 0.0356 0.9994 0.0025
vn -0.3247 0.7536 0.5715
vn -0.0791 0.9967 -0.0172
vn 0.0122 0.9999 0.0105
vn -0.4292 0.7791 0.4569
vn -0.9008 0.2094 -0.3804
vn -0.9082 0.2441 -0.3399
vn -0.7335 0.1317 -0.6668
vn -0.7437 0.0559 -0.6662
vn -0.7489 0.1642 -0.6420
vn -0.7646 0.1250 -0.6323
vn -0.9227 0.3827 0.0462
vn -0.7971 0.6024 0.0406
vn -0.9155 0.3809 -0.1297
vn -0.8965 0.4398 -0.0532
vn -0.8915 0.3991 0.2145
vn -0.7718 0.6081 0.1857
vn -0.1529 0.0685 0.9859
vn -0.1190 0.0820 0.9895
vn -0.4478 0.1702 0.8778
vn -0.5089 0.2036 0.8364
vn -0.6870 0.2474 0.6833
vn -0.5718 0.2198 0.7904
vn -0.5015 0.1505 0.8519
vn -0.6647 0.2111 0.7167
vn -0.7096 0.4170 0.5680
vn -0.5036 0.8355 0.2196
vn -0.8697 -0.2619 -0.4183
vn -0.8974 0.1341 -0.4204
vn -0.6807 0.0051 -0.7325
vn -0.5943 -0.2541 -0.7630
vn -0.7179 0.0793 -0.6916
vn -0.7025 -0.0886 -0.7061
vn -0.9480 -0.3159 0.0397
vn -0.9855 0.1639 0.0430
vn -0.9436 -0.2818 -0.1739
vn -0.9767 0.1565 -0.1466
vn -0.9174 -0.3311 0.2208
vn -0.9587 0.1665 0.2307
vn -0.0511 0.0655 0.9965
vn -0.1172 0.0217 0.9929
vn -0.4118 0.0482 0.9100
vn -0.4906 0.1078 0.8647
vn -0.5100 0.2107 0.8340
vn -0.5715 0.1225 0.8114
vn -0.6477 0.1368 0.7495
vn -0.6624 -0.2235 0.7151
vn -0.7190 0.1449 0.6798
vn -0.4185 -0.0307 -0.9077
vn -0.5941 0.0277 -0.8039
vn -0.7352 -0.4075 -0.5417
vn -0.6369 -0.3122 -0.7049
vn -0.7316 -0.6796 0.0543
vn -0.6734 -0.7392 0.0130
vn -0.8524 -0.5113 -0.1094
vn -0.8302 -0.4474 -0.3326
vn -0.7071 -0.6912 -0.1491
vn -0.6635 -0.6372 -0.3921
vn -0.6921 -0.7024 0.1666
vn -0.6473 -0.7462 0.1558
vn -0.1650 0.1148 0.9796
vn -0.1231 0.1874 0.9746
vn -0.4616 0.3119 0.8304
vn -0.5244 0.2996 0.7970
vn -0.6596 -0.1720 0.7317
vn -0.5783 0.2236 0.7846
vn -0.5832 -0.0401 0.8114
vn -0.7134 -0.4532 0.5345
vn -0.5239 -0.6559 0.5435
vn -0.6942 -0.4450 0.5657
vn -0.5540 -0.6208 0.5547
vn -0.5999 -0.1192 -0.7912
vn -0.5925 -0.7252 -0.3508
vn -0.9291 -0.2486 -0.2739
vn -0.5730 -0.5085 -0.6427
vn -0.3820 -0.9242 0.0046
vn -0.7460 -0.6550 0.1200
vn -0.4095 -0.9090 -0.0770
vn -0.8808 -0.4735 -0.0093
vn -0.3740 -0.9230 0.0900
vn -0.7340 -0.6557 0.1767
vn 0.0617 -0.3247 0.9438
vn -0.0397 -0.0577 0.9975
vn -0.3038 -0.1286 0.9440
vn -0.5949 -0.2187 0.7735
vn -0.3655 -0.5757 0.7314
vn -0.8173 -0.2663 0.5110
vn -0.7863 -0.2620 0.5596
vn -0.4101 -0.7682 0.4916
vn -0.7319 -0.4603 0.5024
vn -0.1069 -0.8977 -0.4275
vn -0.1090 -0.8939 -0.4347
vn -0.1903 -0.7035 -0.6847
vn -0.5049 -0.3416 -0.7927
vn -0.2360 -0.3853 -0.8921
vn 0.1735 -0.9820 -0.0751
vn 0.0425 -0.9932 -0.1087
vn -0.0093 -0.9868 -0.1617
vn 0.0640 -0.9978 -0.0154
vn 0.0648 -0.9978 -0.0117
vn 0.2366 -0.3116 0.9203
vn 0.2714 -0.3410 0.9000
vn 0.2316 -0.6238 0.7465
vn -0.0967 -0.4151 0.9046
vn 0.1992 -0.6404 0.7418
vn 0.1090 -0.7913 0.6016
vn 0.0691 -0.7926 0.6058
vn 0.0542 -0.9097 0.4117
vn -0.4364 -0.6968 0.5692
vn 0.0529 -0.9020 0.4285
vn 0.0601 -0.9483 0.3117
vn 0.0626 -0.9443 0.3231
vn 0.0401 -0.9787 0.2013
vn -0.3416 -0.8846 0.3174
vn 0.0411 -0.9778 0.2056
vn -0.1549 -0.7148 -0.6819
vn -0.0967 -0.8996 -0.4258
vn -0.1844 -0.7131 -0.6764
vn 0.1919 -0.9803 -0.0466
vn 0.3899 -0.9204 -0.0277
vn -0.0338 -0.9917 -0.1239
vn 0.2219 -0.9733 -0.0590
vn 0.3763 -0.9220 -0.0906
vn 0.3759 -0.9220 -0.0926
vn 0.2232 -0.9733 -0.0537
vn 0.1969 -0.2961 0.9347
vn 0.2185 -0.3194 0.9221
vn 0.1804 -0.6027 0.7773
vn 0.1389 -0.7791 0.6113
vn 0.1470 -0.7849 0.6019
vn 0.0919 -0.9098 0.4047
vn 0.0691 -0.9501 0.3043
vn 0.1696 -0.9751 0.1431
vn 0.1980 -0.9802 -0.0015
vn -0.0124 -0.9363 -0.3511
vn -0.1042 -0.6593 -0.7447
vn -0.0535 -0.9573 -0.2842
vn 0.2791 -0.1686 -0.9453
vn -0.0410 0.0302 -0.9987
vn 0.0071 -0.9989 0.0459
vn -0.1952 -0.9714 0.1354
vn -0.4301 -0.8994 0.0786
vn 0.2345 -0.9643 0.1231
vn -0.0181 -0.9997 -0.0165
vn -0.3823 -0.9144 0.1329
vn -0.3598 -0.9299 0.0758
vn -0.0266 -0.9996 0.0064
vn 0.2709 -0.3485 0.8973
vn 0.1693 -0.3123 0.9348
vn 0.1462 -0.6202 0.7707
vn 0.1742 -0.7929 0.5839
vn 0.5765 -0.6123 0.5410
vn 0.1959 -0.9178 0.3454
vn 0.2083 -0.9768 0.0490
vn 0.3504 -0.9172 0.1895
vn -0.0436 -0.9976 0.0531
vn 0.2011 0.5603 -0.8035
vn 0.4867 0.1901 -0.8526
vn 0.6160 -0.0950 -0.7820
vn 0.6019 -0.2335 -0.7637
vn 0.2754 -0.7827 -0.5582
vn 0.6826 -0.4293 -0.5914
vn 0.8587 -0.1640 -0.4855
vn 0.6933 -0.6085 -0.3862
vn 0.2041 -0.9631 -0.1754
vn 0.6851 -0.7056 -0.1810
vn 0.7388 -0.6397 -0.2120
vn 0.6247 -0.7768 -0.0791
vn 0.8381 -0.2804 0.4678
vn 0.6182 -0.3370 0.7101
vn 0.3798 -0.5810 0.7198
vn 0.3144 -0.6328 0.7076
vn 0.8006 -0.2693 0.5353
vn 0.9227 -0.2012 0.3287
vn 0.4218 -0.8704 0.2540
vn 0.7826 -0.5479 0.2956
vn 0.8493 -0.4841 0.2105
vn 0.5779 -0.7897 0.2059
vn 0.5835 -0.7893 0.1913
vn 0.3393 0.1878 -0.9217
vn 0.3094 -0.0930 -0.9464
vn 0.1637 -0.0670 -0.9842
vn 0.5977 -0.0060 -0.8017
vn 0.5530 -0.1246 -0.8238
vn 0.8110 0.0592 -0.5820
vn 0.7900 0.1740 -0.5879
vn 0.7997 0.2683 -0.5370
vn 0.8415 0.0475 -0.5382
vn 0.9404 -0.2030 -0.2730
vn 0.9050 -0.2395 -0.3517
vn 0.5827 0.0689 0.8097
vn 0.3379 -0.4127 0.8459
vn 0.8052 -0.2703 0.5278
vn 0.8860 -0.1899 0.4229
vn 0.9356 -0.1004 0.3386
vn 0.9597 -0.0029 0.2810
vn 0.9646 -0.1542 0.2140
vn 0.9283 -0.3709 -0.0270
vn 0.7919 -0.6013 0.1066
vn 0.9619 -0.2660 0.0630
vn 0.2280 0.0139 -0.9736
vn 0.2421 0.0917 -0.9659
vn 0.2250 0.0719 -0.9717
vn 0.5967 0.1719 -0.7838
vn 0.5915 0.1226 -0.7969
vn 0.8578 0.1567 -0.4895
vn 0.7664 0.1831 -0.6158
vn 0.8055 0.1540 -0.5722
vn 0.6435 0.1358 -0.7533
vn 0.6643 -0.0047 -0.7474
vn 0.3718 0.1176 0.9208
vn 0.4368 0.1313 0.8899
vn 0.5814 0.0617 0.8113
vn 0.9818 -0.0071 0.1899
vn 0.9747 0.1487 0.1669
vn 0.9593 0.1402 0.2452
vn 0.9783 0.0229 0.2057
vn 0.9863 0.1633 -0.0226
vn 0.9958 -0.0009 0.0914
vn 0.9850 0.1566 0.0732
vn 0.2328 -0.1150 -0.9657
vn 0.1972 -0.1684 -0.9658
vn 0.3539 -0.1023 -0.9297
vn 0.5864 0.2208 -0.7794
vn 0.8385 0.2768 -0.4695
vn 0.6334 0.7320 -0.2508
vn 0.7824 0.3642 -0.5052
vn 0.5497 0.6751 -0.4921
vn 0.7039 0.6962 -0.1405
vn 0.1975 0.8919 -0.4069
vn 0.4621 0.1279 0.8776
vn 0.3367 0.1231 0.9335
vn 0.9646 0.2206 0.1442
vn 0.9565 0.2693 0.1121
vn 0.9559 0.1970 0.2179
vn 0.9908 0.0280 0.1324
vn 0.9557 0.2391 0.1719
vn 0.9917 0.1156 0.0569
vn 0.9572 0.2881 -0.0266
vn 0.9567 0.2839 0.0637
vn 0.9384 0.3451 0.0159
vn 0.2306 -0.0000 0.9730
vn 0.1107 0.6905 0.7148
vn 0.2325 0.0060 0.9726
vn 0.1828 0.0243 0.9828
vn 0.2378 -0.1574 0.9585
vn 0.2271 0.0104 0.9738
vn 0.3577 -0.1596 0.9201
vn 0.2356 0.0061 0.9718
vn 0.2355 0.0183 0.9717
vn 0.2374 0.0121 0.9713
vn 0.1501 0.7165 0.6813
vn 0.2132 0.0326 0.9765
vn 0.1609 0.7163 0.6790
vn -0.0662 0.2041 -0.9767
vn 0.1162 0.0274 -0.9928
vn -0.0373 -0.2540 -0.9665
vn -0.4174 0.0211 -0.9085
vn 0.0454 -0.0503 -0.9977
vn -0.2201 -0.0015 -0.9755
vn -0.1605 -0.3298 -0.9303
vn -0.2193 -0.1404 -0.9655
vn -0.1790 -0.1327 -0.9749
vn 0.1501 0.3958 -0.9060
vn 0.1423 0.2101 -0.9673
vn -0.1577 -0.0490 -0.9863
vn -0.0190 -0.0211 -0.9996
vn 0.0685 -0.1612 -0.9845
vn -0.1379 -0.0053 -0.9904
vn 0.2133 0.0204 0.9768
vn 0.2289 0.0164 0.9733
vn 0.6007 0.7994 -0.0108
vn 0.6182 0.7808 0.0908
vn 0.5461 0.8301 0.1129
vn 0.8496 0.2173 -0.4806
vn 0.5789 0.7475 -0.3259
vn 0.2309 0.1024 -0.9676
vn 0.3889 0.4760 -0.7888
vn 0.7796 -0.2030 0.5925
vn 0.7917 -0.5485 0.2690
vn 0.0263 0.9915 -0.1274
vn 0.9161 0.3273 0.2315
vn 0.2349 -0.2788 0.9312
vn 0.7886 0.0593 -0.6121
vn 0.8608 -0.0010 -0.5090
vn 0.1950 0.0011 -0.9808
vn 0.9398 -0.1536 0.3054
vn 0.9157 0.1303 -0.3801
vn 0.7432 0.0110 -0.6690
vn 0.3944 0.2870 -0.8730
vn 0.1880 -0.9449 0.2681
vn 0.1825 -0.9832 0.0024
vn 0.1652 -0.9851 0.0469
vn 0.1337 -0.9511 -0.2785
vn 0.1453 -0.4404 -0.8860
vn 0.2464 -0.9489 -0.1974
vn 0.1155 -0.9073 0.4042
vn 0.1340 -0.5969 0.7910
vn -0.1288 -0.7098 -0.6925
vn -0.6551 -0.4882 0.5767
vn -0.3957 0.0859 0.9143
vn -0.8632 -0.2167 -0.4560
vn -0.6815 -0.2598 0.6841
vn -0.4345 0.2223 0.8728
vn -0.6831 0.3589 0.6361
vn -0.5728 0.1699 0.8019
vn -0.4324 0.0941 0.8968
vn -0.5376 0.7807 0.3185
vn -0.3165 0.7915 0.5228
vn -0.3023 0.7532 0.5842
vn -0.1074 0.9940 -0.0185
vn 0.0614 0.9820 -0.1785
vn 0.0086 0.9992 0.0378
vn -0.0918 0.9957 0.0129
vn 0.0461 0.9980 -0.0427
vn 0.0866 0.9870 -0.1351
vn 0.2874 0.9527 -0.0987
vn 0.9253 -0.0730 -0.3722
vn 0.9447 -0.0078 -0.3278
vn 0.0785 -0.0008 -0.9969
vn -0.2215 0.9751 -0.0093
vn 0.2673 0.8755 -0.4026
vn 0.6584 -0.0394 -0.7517
vt 0.689476 0.299402
vt 0.689406 0.261917
vt 0.736223 0.257039
vt 0.782971 0.214675
vt 0.783071 0.268649
vt 0.689337 0.224432
vt 0.689267 0.186947
vt 0.736154 0.219553
vt 0.689199 0.149462
vt 0.736015 0.144583
vt 0.736085 0.182068
vt 0.688960 0.019944
vt 0.735896 0.079824
vt 0.689079 0.084703
vt 0.735777 0.015066
vt 0.416309 0.391206
vt 0.419827 0.356866
vt 0.380876 0.390840
vt 0.342543 0.398903
vt 0.373860 0.354014
vt 0.326654 0.362778
vt 0.418248 0.445058
vt 0.417106 0.420479
vt 0.393966 0.449970
vt 0.366872 0.459469
vt 0.386876 0.423341
vt 0.355470 0.431497
vt 0.436326 0.505591
vt 0.427104 0.473732
vt 0.413021 0.515038
vt 0.390648 0.525354
vt 0.402812 0.483464
vt 0.378723 0.494084
vt 0.448698 0.555645
vt 0.442691 0.532932
vt 0.430668 0.565150
vt 0.411616 0.575937
vt 0.421848 0.541321
vt 0.401275 0.551297
vt 0.009381 0.268984
vt 0.052331 0.222775
vt 0.046862 0.269526
vt 0.014850 0.222232
vt 0.084343 0.270069
vt 0.127294 0.223859
vt 0.121825 0.270611
vt 0.089813 0.223316
vt 0.159306 0.271153
vt 0.202256 0.224943
vt 0.196787 0.271695
vt 0.164775 0.224401
vt 0.503238 0.717827
vt 0.492857 0.748580
vt 0.508989 0.734742
vt 0.484519 0.725940
vt 0.514295 0.752797
vt 0.497772 0.766715
vt 0.506239 0.785623
vt 0.471943 0.826107
vt 0.514927 0.814149
vt 0.537685 0.809649
vt 0.519225 0.843738
vt 0.485349 0.873612
vt 0.527467 0.874100
vt 0.490683 0.893875
vt 0.536190 0.911680
vt 0.598067 0.953401
vt 0.579388 0.903479
vt 0.486035 0.214385
vt 0.481314 0.208351
vt 0.492407 0.218417
vt 0.520704 0.205957
vt 0.520765 0.239258
vt 0.520827 0.272558
vt 0.565529 0.248062
vt 0.610232 0.223566
vt 0.610301 0.261051
vt 0.649923 0.298969
vt 0.649853 0.261484
vt 0.649784 0.223999
vt 0.962404 0.260497
vt 0.941204 0.228078
vt 0.967931 0.255170
vt 0.976698 0.213028
vt 0.958916 0.201421
vt 0.976794 0.200227
vt 0.862061 0.207000
vt 0.901668 0.236671
vt 0.862153 0.256789
vt 0.948278 0.274429
vt 0.822608 0.260627
vt 0.822516 0.210837
vt 0.476999 0.179791
vt 0.472828 0.161776
vt 0.492308 0.164350
vt 0.520580 0.139158
vt 0.520642 0.172558
vt 0.565399 0.177276
vt 0.610094 0.148596
vt 0.610163 0.186081
vt 0.649646 0.149029
vt 0.649715 0.186514
vt 0.941041 0.140215
vt 0.958966 0.163821
vt 0.941087 0.165015
vt 0.959062 0.151048
vt 0.861937 0.140200
vt 0.901489 0.140207
vt 0.901535 0.165007
vt 0.941132 0.189814
vt 0.901596 0.198407
vt 0.782833 0.139704
vt 0.822447 0.173352
vt 0.782902 0.177190
vt 0.822385 0.139952
vt 0.463958 0.147296
vt 0.466030 0.128573
vt 0.492269 0.143227
vt 0.465352 0.103818
vt 0.485616 0.074682
vt 0.492229 0.121649
vt 0.565337 0.143877
vt 0.558724 0.096910
vt 0.507354 0.045224
vt 0.558605 0.032151
vt 0.609855 0.019078
vt 0.649527 0.084270
vt 0.609975 0.083837
vt 0.649408 0.019511
vt 0.941009 0.122683
vt 0.959113 0.144109
vt 0.977186 0.148004
vt 0.977135 0.154942
vt 0.870647 0.096637
vt 0.901457 0.122676
vt 0.940977 0.105151
vt 0.782713 0.074946
vt 0.831095 0.096390
vt 0.879357 0.053075
vt 0.204143 0.494259
vt 0.165379 0.476840
vt 0.160225 0.533851
vt 0.116178 0.592441
vt 0.115568 0.520923
vt 0.085914 0.575195
vt 0.287126 0.430633
vt 0.261173 0.404712
vt 0.243590 0.456106
vt 0.207982 0.436638
vt 0.312890 0.413228
vt 0.291508 0.381119
vt 0.709284 0.483814
vt 0.724046 0.477570
vt 0.697002 0.443183
vt 0.679503 0.401944
vt 0.654929 0.418125
vt 0.580699 0.319831
vt 0.552673 0.359066
vt 0.612970 0.378188
vt 0.632663 0.433528
vt 0.530119 0.393622
vt 0.488649 0.349163
vt 0.426365 0.310289
vt 0.262207 0.524430
vt 0.235258 0.511100
vt 0.220849 0.554124
vt 0.165741 0.618603
vt 0.185371 0.543082
vt 0.148637 0.604124
vt 0.323823 0.478048
vt 0.307124 0.456471
vt 0.292957 0.498096
vt 0.268497 0.477960
vt 0.344190 0.468560
vt 0.330259 0.442573
vt 0.677151 0.506948
vt 0.692916 0.495774
vt 0.657728 0.469239
vt 0.611064 0.452456
vt 0.591669 0.469828
vt 0.565515 0.430173
vt 0.514640 0.424125
vt 0.500995 0.450346
vt 0.463317 0.415175
vt 0.180220 0.635695
vt 0.225563 0.614422
vt 0.266619 0.590209
vt 0.240159 0.564281
vt 0.351726 0.540984
vt 0.337434 0.509319
vt 0.327116 0.555554
vt 0.303230 0.573801
vt 0.310584 0.523766
vt 0.282100 0.550374
vt 0.371259 0.532572
vt 0.357979 0.501359
vt 0.638287 0.514856
vt 0.656937 0.510839
vt 0.616407 0.490828
vt 0.570450 0.482653
vt 0.528562 0.470922
vt 0.545401 0.455597
vt 0.551669 0.494659
vt 0.520152 0.498917
vt 0.455973 0.471625
vt 0.491876 0.505728
vt 0.496771 0.479751
vt 0.246477 0.621180
vt 0.338227 0.596660
vt 0.322788 0.586816
vt 0.306581 0.607919
vt 0.377596 0.588881
vt 0.365621 0.566350
vt 0.357292 0.592490
vt 0.342628 0.571131
vt 0.394586 0.582408
vt 0.383369 0.558362
vt 0.614867 0.537843
vt 0.626411 0.526769
vt 0.584259 0.513333
vt 0.543593 0.511647
vt 0.535930 0.526709
vt 0.514747 0.515176
vt 0.487094 0.526361
vt 0.482600 0.544509
vt 0.461973 0.525154
vt 0.348647 0.647156
vt 0.342164 0.620704
vt 0.310188 0.639842
vt 0.265836 0.626094
vt 0.269936 0.649881
vt 0.095414 0.097455
vt 0.057933 0.096912
vt 0.057376 0.052152
vt 0.019337 0.006849
vt 0.052862 0.007335
vt 0.020319 0.175480
vt 0.057867 0.136467
vt 0.057801 0.176022
vt 0.020385 0.135926
vt 0.636959 0.562150
vt 0.626040 0.549492
vt 0.594802 0.564164
vt 0.572451 0.529967
vt 0.585312 0.553102
vt 0.557848 0.566067
vt 0.547430 0.545331
vt 0.531881 0.580789
vt 0.507936 0.535634
vt 0.522958 0.560859
vt 0.083120 0.349162
vt 0.049595 0.348677
vt 0.083731 0.309616
vt 0.016070 0.348192
vt 0.012725 0.308588
vt 0.050207 0.309130
vt 0.324229 0.677679
vt 0.359788 0.672440
vt 0.316843 0.658716
vt 0.124297 0.053120
vt 0.132896 0.097997
vt 0.090900 0.052637
vt 0.095282 0.176565
vt 0.132829 0.137552
vt 0.132763 0.177107
vt 0.095348 0.137010
vt 0.652360 0.592253
vt 0.645004 0.576910
vt 0.601542 0.577029
vt 0.569397 0.588333
vt 0.579003 0.611753
vt 0.541536 0.601486
vt 0.506744 0.593964
vt 0.518359 0.620151
vt 0.149912 0.350129
vt 0.116516 0.349646
vt 0.117128 0.310099
vt 0.372098 0.697833
vt 0.348048 0.723714
vt 0.384467 0.721287
vt 0.322713 0.747507
vt 0.313859 0.734947
vt 0.170377 0.098540
vt 0.195046 0.054144
vt 0.207858 0.099081
vt 0.161778 0.053663
vt 0.170244 0.177649
vt 0.207792 0.138637
vt 0.207726 0.178192
vt 0.170311 0.138094
vt 0.655436 0.627501
vt 0.654395 0.609888
vt 0.614997 0.618172
vt 0.591748 0.650722
vt 0.596787 0.690022
vt 0.561959 0.665773
vt 0.528118 0.646069
vt 0.537653 0.674968
vt 0.220551 0.351151
vt 0.185232 0.350640
vt 0.189929 0.311152
vt 0.316001 0.763110
vt 0.354543 0.765112
vt 0.383249 0.774892
vt 0.390111 0.756563
vt 0.396524 0.741553
vt 0.416628 0.762056
vt 0.441507 0.779784
vt 0.438086 0.758853
vt 0.434662 0.739507
vt 0.456337 0.757920
vt 0.480620 0.779635
vt 0.473547 0.756218
vt 0.626556 0.707660
vt 0.649121 0.672227
vt 0.633057 0.663419
vt 0.626735 0.663682
vt 0.614575 0.699134
vt 0.596689 0.734921
vt 0.570640 0.698467
vt 0.581997 0.721721
vt 0.562173 0.749399
vt 0.554695 0.726849
vt 0.530966 0.731918
vt 0.302870 0.778548
vt 0.290319 0.793717
vt 0.333562 0.801797
vt 0.366253 0.818194
vt 0.374840 0.795349
vt 0.403013 0.801096
vt 0.429526 0.825118
vt 0.436471 0.800563
vt 0.446353 0.800166
vt 0.482902 0.788403
vt 0.460619 0.780224
vt 0.715447 0.668545
vt 0.699315 0.666483
vt 0.696278 0.698000
vt 0.638918 0.715948
vt 0.693280 0.733922
vt 0.636724 0.771298
vt 0.577682 0.767703
vt 0.526597 0.779287
vt 0.537189 0.751654
vt 0.552732 0.780201
vt 0.277000 0.810370
vt 0.258673 0.825605
vt 0.303047 0.842123
vt 0.333833 0.869131
vt 0.351275 0.841739
vt 0.387075 0.852971
vt 0.418253 0.888276
vt 0.424684 0.855165
vt 0.462511 0.897770
vt 0.459846 0.877428
vt 0.777335 0.629900
vt 0.758606 0.644019
vt 0.761611 0.668057
vt 0.593727 0.789573
vt 0.614699 0.812579
vt 0.666019 0.795799
vt 0.721879 0.759046
vt 0.549766 0.834769
vt 0.564916 0.801753
vt 0.582448 0.827785
vt 0.238942 0.841974
vt 0.212778 0.857816
vt 0.255814 0.888435
vt 0.280790 0.936852
vt 0.310091 0.900344
vt 0.356893 0.921274
vt 0.395930 0.977074
vt 0.408670 0.928669
vt 0.465919 0.907371
vt 0.493089 0.913253
vt 0.485213 0.915235
vt 0.482036 0.990481
vt 0.792332 0.658322
vt 0.792558 0.604671
vt 0.636877 0.840821
vt 0.663376 0.873941
vt 0.688698 0.818510
vt 0.742935 0.786793
vt 0.721984 0.851645
vt 0.764968 0.813892
vt 0.562421 0.864843
vt 0.598904 0.856133
vt 0.624243 0.894633
vt 0.656967 0.536600
vt 0.638731 0.538722
vt 0.780989 0.535187
vt 0.780094 0.583652
vt 0.794936 0.557128
vt 0.736589 0.642252
vt 0.699085 0.652479
vt 0.675718 0.620297
vt 0.676387 0.639105
vt 0.666329 0.552230
vt 0.726550 0.518704
vt 0.710282 0.567916
vt 0.739390 0.471147
vt 0.747539 0.481663
vt 0.755428 0.492449
vt 0.714451 0.499813
vt 0.768535 0.513171
vt 0.270275 0.738703
vt 0.182949 0.801345
vt 0.184615 0.844050
vt 0.117481 0.830004
vt 0.094199 0.805122
vt 0.074269 0.782315
vt 0.102863 0.731750
vt 0.073846 0.740194
vt 0.159156 0.816699
vt 0.234532 0.649220
vt 0.277876 0.673935
vt 0.289077 0.695957
vt 0.301657 0.716070
vt 0.299822 0.746080
vt 0.286990 0.758594
vt 0.130841 0.714213
vt 0.206523 0.693229
vt 0.187986 0.678149
vt 0.191400 0.654297
vt 0.162240 0.863423
vt 0.177534 0.866252
vt 0.731927 0.487721
vt 0.710054 0.608312
vt 0.807846 0.578806
vt 0.647478 0.936214
vt 0.692567 0.912275
vt 0.748302 0.880113
vt 0.789454 0.834034
vt 0.819388 0.657376
vt 0.441019 0.984141
vt 0.375369 0.882588
vt 0.335974 0.963258
vt 0.287263 0.859861
vt 0.228667 0.907965
vt 0.657916 0.683479
vt 0.685040 0.713491
vt 0.954850 0.267912
vt 0.714396 0.684229
vt 0.731359 0.673704
vt 0.458360 0.836581
vt 0.458377 0.836581
vt 0.397970 0.824235
vt 0.325059 0.818097
vt 0.618818 0.754055
vt 0.465168 0.826776
vt 0.413970 0.780297
vt 0.346539 0.779683
vt 0.545256 0.705479
vt 0.522991 0.711998
vt 0.465940 0.733888
vt 0.449577 0.736685
vt 0.415682 0.740700
vt 0.365122 0.746845
vt 0.234268 0.272238
vt 0.227410 0.311694
vt 0.154609 0.310640
vt 0.552343 0.630329
vt 0.612918 0.602970
vt 0.245339 0.099624
vt 0.245273 0.139179
vt 0.245207 0.178735
vt 0.153179 0.008786
vt 0.186447 0.009268
vt 0.219715 0.009749
vt 0.232527 0.054687
vt 0.338800 0.705734
vt 0.086387 0.007819
vt 0.119783 0.008303
vt 0.494775 0.567625
vt 0.020452 0.096371
vt 0.019894 0.051610
vt 0.464898 0.550039
vt 0.464163 0.504571
vt 0.593511 0.501166
vt 0.282862 0.597702
vt 0.455881 0.443724
vt 0.634019 0.484738
vt 0.469638 0.383991
vt 0.582645 0.408474
vt 0.672039 0.455867
vt 0.505140 0.304111
vt 0.634996 0.357496
vt 0.711715 0.435195
vt 0.306436 0.319273
vt 0.264009 0.342738
vt 0.227556 0.372792
vt 0.168845 0.409136
vt 0.120821 0.457280
vt 0.083515 0.511587
vt 0.056843 0.569524
vt 0.782594 0.010187
vt 0.830976 0.031631
vt 0.910166 0.079113
vt 0.977082 0.161882
vt 0.959082 0.126577
vt 0.513967 0.092191
vt 0.465870 0.120261
vt 0.861999 0.173600
vt 0.976986 0.174654
vt 0.976891 0.187426
vt 0.959012 0.188620
vt 0.565468 0.214762
vt 0.492370 0.197750
vt 0.862245 0.306579
vt 0.822707 0.314601
vt 0.783170 0.322624
vt 0.901760 0.286461
vt 0.610370 0.298536
vt 0.565598 0.285547
vt 0.498521 0.247165
vt 0.541773 0.978564
vt 0.480063 0.834779
vt 0.480950 0.853759
vt 0.239738 0.225486
vt 0.365440 0.307178
vt 0.736323 0.311013
vt 0.156626 0.694846
vt 0.465623 0.110741
vt 0.473707 0.907981
vt 0.458336 0.857275
s 1
usemtl Cave_Material.011
f 28/1/1 382/2/2 383/3/3
f 1/4/4 384/5/5 383/3/3
f 2/6/6 115/7/7 114/8/8
f 3/9/9 117/10/10 116/11/11
f 8/12/12 385/13/13 386/14/14
f 8/12/12 387/15/15 385/13/13
f 6/16/16 388/17/17 120/18/18
f 7/19/19 389/20/20 121/21/21
f 9/22/22 122/23/23 123/24/24
f 10/25/25 124/26/26 125/27/27
f 11/28/28 126/29/29 127/30/30
f 12/31/31 128/32/32 129/33/33
f 13/34/34 130/35/35 131/36/36
f 14/37/37 132/38/38 133/39/39
f 13/40/34 134/41/40 135/42/41
f 13/40/34 131/43/36 134/41/40
f 15/44/42 138/45/43 139/46/44
f 15/44/42 136/47/45 138/45/43
f 17/48/46 142/49/47 143/50/48
f 17/48/46 140/51/49 142/49/47
f 19/52/50 146/53/51 147/54/52
f 19/52/50 144/55/53 146/53/51
f 21/56/54 148/57/55 150/58/56
f 23/59/57 152/60/58 150/58/56
f 24/61/59 152/60/58 154/62/60
f 25/63/61 156/64/62 154/62/60
f 25/63/61 451/65/63 159/66/64
f 27/67/65 161/68/66 159/66/64
f 30/69/67 162/70/68 163/71/69
f 31/72/70 390/73/71 163/71/69
f 112/74/72 390/73/71 392/75/73
f 32/76/74 166/77/75 392/75/73
f 28/1/1 394/78/76 395/79/77
f 32/76/74 167/80/78 395/79/77
f 453/81/79 169/82/80 170/83/81
f 34/84/82 171/85/83 168/86/84
f 38/87/85 173/88/86 174/89/87
f 36/90/88 173/88/86 169/82/80
f 1/4/4 177/91/89 384/5/5
f 1/4/4 178/92/90 177/91/89
f 29/93/91 179/94/92 180/95/93
f 41/96/94 182/97/95 180/95/93
f 31/72/70 182/97/95 183/98/96
f 42/99/97 185/100/98 183/98/96
f 32/76/74 185/100/98 167/80/78
f 42/99/97 187/101/99 186/102/100
f 44/103/101 189/104/102 190/105/103
f 44/103/101 191/106/104 189/104/102
f 45/107/105 192/108/106 193/109/107
f 37/110/108 176/111/109 193/109/107
f 4/112/110 195/113/111 118/114/112
f 4/112/110 196/115/113 195/113/111
f 40/116/114 397/117/115 181/118/116
f 50/119/117 399/120/118 398/121/119
f 42/99/97 184/122/120 198/123/121
f 46/124/122 400/125/123 198/123/121
f 53/126/124 402/127/125 401/128/126
f 53/126/124 212/129/127 402/127/125
f 44/103/101 199/130/128 404/131/129
f 54/132/130 403/133/131 404/131/129
f 45/107/105 200/134/132 201/135/133
f 47/136/134 199/130/128 201/135/133
f 4/112/110 119/137/135 203/138/136
f 48/139/137 200/134/132 203/138/136
f 51/140/138 406/141/139 206/142/140
f 49/143/141 407/144/142 205/145/143
f 52/146/144 207/147/145 208/148/146
f 51/140/138 209/149/147 406/141/139
f 7/19/19 121/21/21 210/150/148
f 52/146/144 211/151/149 207/147/145
f 55/152/150 213/153/151 408/154/152
f 47/155/134 409/156/153 408/154/152
f 48/157/137 410/158/154 411/159/155
f 56/160/156 409/156/153 411/159/155
f 57/161/157 410/158/154 412/162/158
f 5/163/159 388/17/17 412/162/158
f 59/164/160 218/165/161 219/166/162
f 58/167/163 220/168/164 217/169/165
f 60/170/166 221/171/167 222/172/168
f 59/164/160 223/173/169 218/165/161
f 10/25/25 125/27/27 224/174/170
f 60/170/166 225/175/171 221/171/167
f 61/176/172 226/177/173 227/178/174
f 56/160/156 228/179/175 227/178/174
f 62/180/176 228/179/175 230/181/177
f 57/161/157 231/182/178 230/181/177
f 63/183/179 231/182/178 233/184/180
f 6/16/16 122/23/23 233/184/180
f 58/167/163 235/185/181 219/166/162
f 64/186/182 237/187/183 236/188/184
f 66/189/185 239/190/186 240/191/187
f 65/192/188 241/193/189 238/194/190
f 12/31/31 129/33/33 242/195/191
f 66/189/185 243/196/192 239/190/186
f 67/197/193 244/198/194 245/199/195
f 62/180/176 246/200/196 245/199/195
f 63/183/179 248/201/197 232/202/198
f 68/203/199 248/201/197 249/204/200
f 9/22/22 126/29/29 251/205/201
f 69/206/202 250/207/203 251/205/201
f 64/186/182 253/208/204 237/187/183
f 71/209/205 255/210/206 256/211/207
f 72/212/208 257/213/209 258/214/210
f 71/209/205 259/215/211 255/210/206
f 14/37/37 133/39/39 260/216/212
f 72/212/208 261/217/213 257/213/209
f 73/218/214 262/219/215 263/220/216
f 68/203/199 264/221/217 263/220/216
f 74/222/218 264/221/217 266/223/219
f 69/206/202 267/224/220 266/223/219
f 75/225/221 267/224/220 269/226/222
f 11/28/28 130/35/35 269/226/222
f 77/227/223 272/228/224 273/229/225
f 70/230/226 271/231/227 273/229/225
f 78/232/228 275/233/229 276/234/230
f 71/235/205 272/236/224 276/234/230
f 14/237/37 278/238/231 137/239/232
f 14/237/37 260/240/212 278/238/231
f 79/241/233 280/242/234 281/243/235
f 73/218/214 265/244/236 282/245/237
f 80/246/238 283/247/239 284/248/240
f 74/222/218 268/249/241 285/250/242
f 81/251/243 286/252/244 287/253/245
f 75/254/221 270/255/246 288/256/247
f 77/227/223 290/257/248 291/258/249
f 77/227/223 274/259/250 290/257/248
f 78/232/228 293/260/251 294/261/252
f 78/232/228 277/262/253 293/260/251
f 16/263/254 296/264/255 141/265/256
f 16/263/254 279/266/257 296/264/255
f 85/267/258 298/268/259 299/269/260
f 80/246/238 300/270/261 299/269/260
f 86/271/262 300/270/261 302/272/263
f 81/273/243 303/274/264 302/272/263
f 87/275/265 303/276/264 305/277/266
f 15/44/42 139/46/44 305/277/266
f 83/278/267 308/279/268 309/280/269
f 88/281/270 308/279/268 307/282/271
f 84/283/272 311/284/273 312/285/274
f 84/283/272 295/286/275 311/284/273
f 18/287/276 314/288/277 145/289/278
f 18/287/276 297/290/279 314/288/277
f 91/291/280 316/292/281 317/293/282
f 86/271/262 318/294/283 317/293/282
f 92/295/284 318/294/283 320/296/285
f 87/297/265 321/298/286 320/296/285
f 93/299/287 321/300/286 323/301/288
f 17/48/46 143/50/48 323/301/288
f 88/281/270 325/302/289 326/303/290
f 95/304/291 328/305/292 326/303/290
f 89/306/293 328/305/292 329/307/294
f 96/308/295 331/309/296 329/307/294
f 90/310/297 331/309/296 332/311/298
f 22/312/299 149/313/300 332/311/298
f 98/314/301 335/315/302 336/316/303
f 91/291/280 319/317/304 336/316/303
f 98/314/301 337/318/305 338/319/306
f 92/295/284 322/320/307 339/321/308
f 99/322/309 340/323/310 341/324/311
f 19/52/50 147/54/52 341/324/311
f 94/325/312 343/326/313 344/327/314
f 101/328/315 346/329/316 344/327/314
f 95/304/291 346/329/316 347/330/317
f 102/331/318 349/332/319 347/330/317
f 22/312/299 422/333/320 421/334/321
f 96/308/295 349/332/319 350/335/322
f 103/336/323 351/337/324 352/338/325
f 98/314/301 354/339/326 335/315/302
f 104/340/327 354/339/326 355/341/328
f 99/322/309 357/342/329 338/319/306
f 21/56/54 153/343/330 342/344/331
f 99/322/309 358/345/332 357/342/329
f 100/346/333 360/347/334 361/348/335
f 107/349/336 363/350/337 361/348/335
f 101/328/315 363/350/337 364/351/338
f 108/352/339 366/353/340 364/351/338
f 368/354/341 450/355/342 108/352/339
f 109/356/343 369/357/344 370/358/345
f 105/359/346 373/360/347 355/341/328
f 104/340/327 374/361/348 372/362/349
f 24/61/59 157/363/350 359/364/351
f 105/359/346 376/365/352 373/360/347
f 106/366/353 413/367/354 378/368/355
f 112/369/72 379/370/356 378/368/355
f 107/349/336 379/370/356 414/371/357
f 33/372/358 415/373/359 414/371/357
f 108/352/339 415/373/359 380/374/360
f 158/375/361 113/376/362 28/377/1
f 109/356/343 418/378/363 416/379/364
f 111/380/365 419/381/366 375/382/367
f 110/383/368 420/384/369 417/385/370
f 26/386/371 161/68/66 377/387/372
f 111/380/365 381/388/373 419/381/366
f 79/241/233 429/389/374 426/390/374
f 35/391/375 423/392/376 168/393/84
f 109/356/343 424/394/377 369/357/344
f 97/395/378 425/396/379 334/397/380
f 79/241/233 426/390/374 280/242/234
f 97/395/378 424/394/377 425/396/379
f 85/267/258 428/398/381 298/268/259
f 35/391/375 430/399/382 431/400/383
f 35/391/375 431/400/383 423/392/376
f 54/401/130 213/153/151 403/402/131
f 43/403/384 433/404/385 188/405/386
f 61/176/172 433/404/385 226/177/173
f 100/346/333 441/406/387 437/407/388
f 106/366/353 434/408/389 413/367/354
f 29/409/91 434/408/389 179/410/92
f 40/411/114 436/412/390 397/413/115
f 106/366/353 360/347/334 435/414/391
f 64/186/182 440/415/392 253/208/204
f 76/416/393 441/406/387 289/417/394
f 82/418/395 444/419/396 307/282/271
f 94/325/312 444/419/396 343/326/313
f 444/419/396 82/418/395 442/420/397
f 444/419/396 442/420/397 343/326/313
f 343/326/313 442/420/397 100/346/333
f 444/419/396 94/325/312 325/302/289
f 444/419/396 325/302/289 307/282/271
f 307/282/271 325/302/289 88/281/270
f 438/421/398 40/411/114 443/422/399
f 445/423/400 443/422/399 439/424/401
f 439/424/401 443/422/399 76/416/393
f 441/406/387 100/346/333 442/420/397
f 441/406/387 442/420/397 289/417/394
f 289/417/394 442/420/397 82/418/395
f 440/415/392 76/416/393 271/231/227
f 440/415/392 271/231/227 253/208/204
f 253/208/204 271/231/227 70/230/226
f 439/424/401 76/416/393 440/415/392
f 439/424/401 440/415/392 235/185/181
f 235/185/181 440/415/392 64/186/182
f 436/412/390 40/411/114 438/421/398
f 360/347/334 100/346/333 437/407/388
f 360/347/334 437/407/388 435/414/391
f 435/414/391 437/407/388 40/411/114
f 434/408/389 106/366/353 435/414/391
f 434/408/389 435/414/391 179/410/92
f 179/410/92 435/414/391 40/411/114
f 434/408/389 29/409/91 162/425/68
f 434/408/389 162/425/68 413/367/354
f 413/367/354 162/425/68 30/426/67
f 441/406/387 76/416/393 443/422/399
f 441/406/387 443/422/399 437/407/388
f 437/407/388 443/422/399 40/411/114
f 433/404/385 43/403/384 432/427/402
f 433/404/385 432/427/402 226/177/173
f 226/177/173 432/427/402 55/152/150
f 433/404/385 61/176/172 430/399/382
f 433/404/385 430/399/382 188/405/386
f 188/405/386 430/399/382 35/391/375
f 213/153/151 55/152/150 432/427/402
f 213/153/151 432/427/402 403/402/131
f 403/402/131 432/427/402 43/403/384
f 431/400/383 85/267/258 427/428/403
f 431/400/383 427/428/403 423/392/376
f 423/392/376 427/428/403 109/356/343
f 430/399/382 61/176/172 428/398/381
f 430/399/382 428/398/381 431/400/383
f 431/400/383 428/398/381 85/267/258
f 428/398/381 61/176/172 429/389/374
f 428/398/381 429/389/374 298/268/259
f 298/268/259 429/389/374 79/241/233
f 424/394/377 109/356/343 427/428/403
f 424/394/377 427/428/403 425/396/379
f 425/396/379 427/428/403 85/267/258
f 426/390/374 67/197/193 262/219/215
f 426/390/374 262/219/215 280/242/234
f 280/242/234 262/219/215 73/218/214
f 425/396/379 85/267/258 316/292/281
f 425/396/379 316/292/281 334/397/380
f 334/397/380 316/292/281 91/291/280
f 424/394/377 97/395/378 351/337/324
f 424/394/377 351/337/324 369/357/344
f 369/357/344 351/337/324 103/336/323
f 423/392/376 109/356/343 416/379/364
f 423/392/376 416/379/364 168/393/84
f 168/393/84 416/379/364 34/429/82
f 429/389/374 61/176/172 244/198/194
f 429/389/374 244/198/194 426/390/374
f 426/390/374 244/198/194 67/197/193
f 381/388/373 27/67/65 396/430/404
f 381/388/373 396/430/404 419/381/366
f 419/381/366 396/430/404 39/431/405
f 161/68/66 27/67/65 381/388/373
f 161/68/66 381/388/373 377/387/372
f 377/387/372 381/388/373 111/380/365
f 420/384/369 39/431/405 175/432/406
f 420/384/369 175/432/406 417/385/370
f 417/385/370 175/432/406 36/433/88
f 419/381/366 39/431/405 420/384/369
f 419/381/366 420/384/369 375/382/367
f 375/382/367 420/384/369 110/383/368
f 418/378/363 170/434/81 416/379/364
f 416/379/364 170/434/81 34/429/82
f 370/358/345 418/378/363 109/356/343
f 380/374/360 368/354/341 108/352/339
f 415/373/359 33/372/358 394/435/76
f 415/373/359 394/435/76 380/374/360
f 380/374/360 394/435/76 28/377/1
f 415/373/359 108/352/339 365/436/407
f 415/373/359 365/436/407 414/371/357
f 414/371/357 365/436/407 107/349/336
f 379/370/356 112/369/72 393/437/408
f 379/370/356 393/437/408 414/371/357
f 414/371/357 393/437/408 33/372/358
f 379/370/356 107/349/336 362/438/409
f 379/370/356 362/438/409 378/368/355
f 378/368/355 362/438/409 106/366/353
f 413/367/354 30/426/67 391/439/410
f 413/367/354 391/439/410 378/368/355
f 378/368/355 391/439/410 112/369/72
f 376/365/352 26/386/371 377/387/372
f 376/365/352 377/387/372 373/360/347
f 373/360/347 377/387/372 111/380/365
f 157/363/350 26/386/371 376/365/352
f 157/363/350 376/365/352 359/364/351
f 359/364/351 376/365/352 105/359/346
f 374/361/348 111/380/365 375/382/367
f 374/361/348 375/382/367 372/362/349
f 372/362/349 375/382/367 110/383/368
f 373/360/347 111/380/365 374/361/348
f 373/360/347 374/361/348 355/341/328
f 355/341/328 374/361/348 104/340/327
f 352/338/325 353/440/411 455/441/412
f 36/90/88 169/82/80 454/442/413
f 352/338/325 371/443/414 103/336/323
f 369/357/344 103/336/323 371/443/414
f 371/443/414 456/444/415 369/357/344
f 454/442/413 169/82/80 453/81/79
f 367/445/416 102/331/318 366/353/340
f 367/446/416 366/353/340 108/352/339
f 366/353/340 102/331/318 348/447/417
f 366/353/340 348/447/417 364/351/338
f 364/351/338 348/447/417 101/328/315
f 363/350/337 107/349/336 365/436/407
f 363/350/337 365/436/407 364/351/338
f 364/351/338 365/436/407 108/352/339
f 363/350/337 101/328/315 345/448/418
f 363/350/337 345/448/418 361/348/335
f 361/348/335 345/448/418 100/346/333
f 360/347/334 106/366/353 362/438/409
f 360/347/334 362/438/409 361/348/335
f 361/348/335 362/438/409 107/349/336
f 358/345/332 24/61/59 359/364/351
f 358/345/332 359/364/351 357/342/329
f 357/342/329 359/364/351 105/359/346
f 153/343/330 24/61/59 358/345/332
f 153/343/330 358/345/332 342/344/331
f 342/344/331 358/345/332 99/322/309
f 357/342/329 105/359/346 356/449/419
f 357/342/329 356/449/419 338/319/306
f 338/319/306 356/449/419 98/314/301
f 354/339/326 98/314/301 356/449/419
f 354/339/326 356/449/419 355/341/328
f 355/341/328 356/449/419 105/359/346
f 354/339/326 104/340/327 353/440/411
f 354/339/326 353/440/411 335/315/302
f 335/315/302 353/440/411 97/395/378
f 351/337/324 97/395/378 353/440/411
f 351/337/324 353/440/411 352/338/325
f 455/441/412 353/440/411 104/340/327
f 349/332/319 102/331/318 422/333/320
f 349/332/319 422/333/320 350/335/322
f 350/335/322 422/333/320 22/312/299
f 422/333/320 102/331/318 367/445/416
f 422/333/320 367/445/416 421/334/321
f 367/445/416 333/450/420 421/334/321
f 349/332/319 96/308/295 330/451/421
f 349/332/319 330/451/421 347/330/317
f 347/330/317 330/451/421 95/304/291
f 346/329/316 101/328/315 348/447/417
f 346/329/316 348/447/417 347/330/317
f 347/330/317 348/447/417 102/331/318
f 346/329/316 95/304/291 327/452/422
f 346/329/316 327/452/422 344/327/314
f 344/327/314 327/452/422 94/325/312
f 343/326/313 100/346/333 345/448/418
f 343/326/313 345/448/418 344/327/314
f 344/327/314 345/448/418 101/328/315
f 147/54/52 21/56/54 342/344/331
f 147/54/52 342/344/331 341/324/311
f 341/324/311 342/344/331 99/322/309
f 340/323/310 93/453/287 324/454/423
f 340/323/310 324/454/423 341/324/311
f 341/324/311 324/454/423 19/52/50
f 322/320/307 93/453/287 340/323/310
f 322/320/307 340/323/310 339/321/308
f 339/321/308 340/323/310 99/322/309
f 337/318/305 92/295/284 339/321/308
f 337/318/305 339/321/308 338/319/306
f 338/319/306 339/321/308 99/322/309
f 319/317/304 92/295/284 337/318/305
f 319/317/304 337/318/305 336/316/303
f 336/316/303 337/318/305 98/314/301
f 335/315/302 97/395/378 334/397/380
f 335/315/302 334/397/380 336/316/303
f 336/316/303 334/397/380 91/291/280
f 149/313/300 20/455/424 315/456/425
f 149/313/300 315/456/425 332/311/298
f 332/311/298 315/456/425 90/310/297
f 331/309/296 96/308/295 350/335/322
f 331/309/296 350/335/322 332/311/298
f 332/311/298 350/335/322 22/312/299
f 331/309/296 90/310/297 313/457/426
f 331/309/296 313/457/426 329/307/294
f 329/307/294 313/457/426 89/306/293
f 328/305/292 95/304/291 330/451/421
f 328/305/292 330/451/421 329/307/294
f 329/307/294 330/451/421 96/308/295
f 328/305/292 89/306/293 310/458/427
f 328/305/292 310/458/427 326/303/290
f 326/303/290 310/458/427 88/281/270
f 325/302/289 94/325/312 327/452/422
f 325/302/289 327/452/422 326/303/290
f 326/303/290 327/452/422 95/304/291
f 143/50/48 19/459/50 324/460/423
f 143/50/48 324/460/423 323/301/288
f 323/301/288 324/460/423 93/299/287
f 321/300/286 87/275/265 306/461/428
f 321/300/286 306/461/428 323/301/288
f 323/301/288 306/461/428 17/48/46
f 321/298/286 93/453/287 322/320/307
f 321/298/286 322/320/307 320/296/285
f 320/296/285 322/320/307 92/295/284
f 318/294/283 86/271/262 304/462/429
f 318/294/283 304/462/429 320/296/285
f 320/296/285 304/462/429 87/297/265
f 318/294/283 92/295/284 319/317/304
f 318/294/283 319/317/304 317/293/282
f 317/293/282 319/317/304 91/291/280
f 316/292/281 85/267/258 301/463/430
f 316/292/281 301/463/430 317/293/282
f 317/293/282 301/463/430 86/271/262
f 297/290/279 84/283/272 312/285/274
f 297/290/279 312/285/274 314/288/277
f 314/288/277 312/285/274 90/464/297
f 314/288/277 90/464/297 315/465/425
f 314/288/277 315/465/425 145/289/278
f 145/289/278 315/465/425 20/466/424
f 295/286/275 83/467/267 309/468/269
f 295/286/275 309/468/269 311/284/273
f 311/284/273 309/468/269 89/469/293
f 311/284/273 89/469/293 313/470/426
f 311/284/273 313/470/426 312/285/274
f 312/285/274 313/470/426 90/464/297
f 308/279/268 83/278/267 292/471/431
f 308/279/268 292/471/431 307/282/271
f 307/282/271 292/471/431 82/418/395
f 308/279/268 88/281/270 310/458/427
f 308/279/268 310/458/427 309/280/269
f 309/280/269 310/458/427 89/306/293
f 139/46/44 17/48/46 306/461/428
f 139/46/44 306/461/428 305/277/266
f 305/277/266 306/461/428 87/275/265
f 303/276/264 81/251/243 287/253/245
f 303/276/264 287/253/245 305/277/266
f 305/277/266 287/253/245 15/44/42
f 303/274/264 87/297/265 304/462/429
f 303/274/264 304/462/429 302/272/263
f 302/272/263 304/462/429 86/271/262
f 300/270/261 80/246/238 284/248/240
f 300/270/261 284/248/240 302/272/263
f 302/272/263 284/248/240 81/273/243
f 300/270/261 86/271/262 301/463/430
f 300/270/261 301/463/430 299/269/260
f 299/269/260 301/463/430 85/267/258
f 298/268/259 79/241/233 281/243/235
f 298/268/259 281/243/235 299/269/260
f 299/269/260 281/243/235 80/246/238
f 279/266/257 78/232/228 294/261/252
f 279/266/257 294/261/252 296/264/255
f 296/264/255 294/261/252 84/283/272
f 296/264/255 84/283/272 297/290/279
f 296/264/255 297/290/279 141/265/256
f 141/265/256 297/290/279 18/287/276
f 277/262/253 77/472/223 291/473/249
f 277/262/253 291/473/249 293/260/251
f 293/260/251 291/473/249 83/467/267
f 293/260/251 83/467/267 295/286/275
f 293/260/251 295/286/275 294/261/252
f 294/261/252 295/286/275 84/283/272
f 274/259/250 76/416/393 289/417/394
f 274/259/250 289/417/394 290/257/248
f 290/257/248 289/417/394 82/418/395
f 290/257/248 82/418/395 292/471/431
f 290/257/248 292/471/431 291/258/249
f 291/258/249 292/471/431 83/278/267
f 270/255/246 13/40/34 135/42/41
f 270/255/246 135/42/41 288/256/247
f 288/256/247 135/42/41 15/44/42
f 286/252/244 75/254/221 288/256/247
f 286/252/244 288/256/247 287/253/245
f 287/253/245 288/256/247 15/44/42
f 268/249/241 75/225/221 286/474/244
f 268/249/241 286/474/244 285/250/242
f 285/250/242 286/474/244 81/273/243
f 283/247/239 74/222/218 285/250/242
f 283/247/239 285/250/242 284/248/240
f 284/248/240 285/250/242 81/273/243
f 265/244/236 74/222/218 283/247/239
f 265/244/236 283/247/239 282/245/237
f 282/245/237 283/247/239 80/246/238
f 280/242/234 73/218/214 282/245/237
f 280/242/234 282/245/237 281/243/235
f 281/243/235 282/245/237 80/246/238
f 260/240/212 72/475/208 275/233/229
f 260/240/212 275/233/229 278/238/231
f 278/238/231 275/233/229 78/232/228
f 278/238/231 78/232/228 279/266/257
f 278/238/231 279/266/257 137/239/232
f 137/239/232 279/266/257 16/263/254
f 272/236/224 77/472/223 277/262/253
f 272/236/224 277/262/253 276/234/230
f 276/234/230 277/262/253 78/232/228
f 275/233/229 72/475/208 258/476/210
f 275/233/229 258/476/210 276/234/230
f 276/234/230 258/476/210 71/235/205
f 271/231/227 76/416/393 274/259/250
f 271/231/227 274/259/250 273/229/225
f 273/229/225 274/259/250 77/227/223
f 272/228/224 71/209/205 256/211/207
f 272/228/224 256/211/207 273/229/225
f 273/229/225 256/211/207 70/230/226
f 130/35/35 13/34/34 270/477/246
f 130/35/35 270/477/246 269/226/222
f 269/226/222 270/477/246 75/225/221
f 267/224/220 69/206/202 252/478/432
f 267/224/220 252/478/432 269/226/222
f 269/226/222 252/478/432 11/28/28
f 267/224/220 75/225/221 268/249/241
f 267/224/220 268/249/241 266/223/219
f 266/223/219 268/249/241 74/222/218
f 264/221/217 68/203/199 249/204/200
f 264/221/217 249/204/200 266/223/219
f 266/223/219 249/204/200 69/206/202
f 264/221/217 74/222/218 265/244/236
f 264/221/217 265/244/236 263/220/216
f 263/220/216 265/244/236 73/218/214
f 262/219/215 67/197/193 247/479/433
f 262/219/215 247/479/433 263/220/216
f 263/220/216 247/479/433 68/203/199
f 261/217/213 12/31/31 242/195/191
f 261/217/213 242/195/191 257/213/209
f 257/213/209 242/195/191 66/189/185
f 133/39/39 12/31/31 261/217/213
f 133/39/39 261/217/213 260/216/212
f 260/216/212 261/217/213 72/212/208
f 259/215/211 66/189/185 240/191/187
f 259/215/211 240/191/187 255/210/206
f 255/210/206 240/191/187 65/192/188
f 257/213/209 66/189/185 259/215/211
f 257/213/209 259/215/211 258/214/210
f 258/214/210 259/215/211 71/209/205
f 255/210/206 65/192/188 254/480/434
f 255/210/206 254/480/434 256/211/207
f 256/211/207 254/480/434 70/230/226
f 253/208/204 70/230/226 254/480/434
f 253/208/204 254/480/434 237/187/183
f 237/187/183 254/480/434 65/192/188
f 250/207/203 63/183/179 234/481/435
f 250/207/203 234/481/435 251/205/201
f 251/205/201 234/481/435 9/22/22
f 126/29/29 11/28/28 252/478/432
f 126/29/29 252/478/432 251/205/201
f 251/205/201 252/478/432 69/206/202
f 248/201/197 63/183/179 250/207/203
f 248/201/197 250/207/203 249/204/200
f 249/204/200 250/207/203 69/206/202
f 248/201/197 68/203/199 246/200/196
f 248/201/197 246/200/196 232/202/198
f 232/202/198 246/200/196 62/180/176
f 246/200/196 68/203/199 247/479/433
f 246/200/196 247/479/433 245/199/195
f 245/199/195 247/479/433 67/197/193
f 244/198/194 61/176/172 229/482/436
f 244/198/194 229/482/436 245/199/195
f 245/199/195 229/482/436 62/180/176
f 243/196/192 10/25/25 224/174/170
f 243/196/192 224/174/170 239/190/186
f 239/190/186 224/174/170 60/170/166
f 129/33/33 10/25/25 243/196/192
f 129/33/33 243/196/192 242/195/191
f 242/195/191 243/196/192 66/189/185
f 241/193/189 60/170/166 222/172/168
f 241/193/189 222/172/168 238/194/190
f 238/194/190 222/172/168 59/164/160
f 239/190/186 60/170/166 241/193/189
f 239/190/186 241/193/189 240/191/187
f 240/191/187 241/193/189 65/192/188
f 237/187/183 65/192/188 238/194/190
f 237/187/183 238/194/190 236/188/184
f 236/188/184 238/194/190 59/164/160
f 235/185/181 64/186/182 236/188/184
f 235/185/181 236/188/184 219/166/162
f 219/166/162 236/188/184 59/164/160
f 122/23/23 9/22/22 234/481/435
f 122/23/23 234/481/435 233/184/180
f 233/184/180 234/481/435 63/183/179
f 231/182/178 57/161/157 216/483/437
f 231/182/178 216/483/437 233/184/180
f 233/184/180 216/483/437 6/16/16
f 231/182/178 63/183/179 232/202/198
f 231/182/178 232/202/198 230/181/177
f 230/181/177 232/202/198 62/180/176
f 228/179/175 56/160/156 215/484/438
f 228/179/175 215/484/438 230/181/177
f 230/181/177 215/484/438 57/161/157
f 228/179/175 62/180/176 229/482/436
f 228/179/175 229/482/436 227/178/174
f 227/178/174 229/482/436 61/176/172
f 226/177/173 55/152/150 214/485/439
f 226/177/173 214/485/439 227/178/174
f 227/178/174 214/485/439 56/160/156
f 225/175/171 7/19/19 210/150/148
f 225/175/171 210/150/148 221/171/167
f 221/171/167 210/150/148 52/146/144
f 125/27/27 7/19/19 225/175/171
f 125/27/27 225/175/171 224/174/170
f 224/174/170 225/175/171 60/170/166
f 223/173/169 52/146/144 208/148/146
f 223/173/169 208/148/146 218/165/161
f 218/165/161 208/148/146 51/140/138
f 221/171/167 52/146/144 223/173/169
f 221/171/167 223/173/169 222/172/168
f 222/172/168 223/173/169 59/164/160
f 220/168/164 51/140/138 206/142/140
f 220/168/164 206/142/140 217/169/165
f 217/169/165 206/142/140 49/143/141
f 218/165/161 51/140/138 220/168/164
f 218/165/161 220/168/164 219/166/162
f 219/166/162 220/168/164 58/167/163
f 388/17/17 6/16/16 216/483/437
f 388/17/17 216/483/437 412/162/158
f 412/162/158 216/483/437 57/161/157
f 410/158/154 48/157/137 204/486/440
f 410/158/154 204/486/440 412/162/158
f 412/162/158 204/486/440 5/163/159
f 409/156/153 47/155/134 202/487/441
f 409/156/153 202/487/441 411/159/155
f 411/159/155 202/487/441 48/157/137
f 410/158/154 57/161/157 215/484/438
f 410/158/154 215/484/438 411/159/155
f 411/159/155 215/484/438 56/160/156
f 409/156/153 56/160/156 214/485/439
f 409/156/153 214/485/439 408/154/152
f 408/154/152 214/485/439 55/152/150
f 213/153/151 54/401/130 405/488/442
f 213/153/151 405/488/442 408/154/152
f 408/154/152 405/488/442 47/155/134
f 211/151/149 8/489/12 212/490/127
f 211/151/149 212/490/127 207/147/145
f 207/147/145 212/490/127 53/491/124
f 121/21/21 8/489/12 211/151/149
f 121/21/21 211/151/149 210/150/148
f 210/150/148 211/151/149 52/146/144
f 209/149/147 53/491/124 400/492/123
f 209/149/147 400/492/123 406/141/139
f 406/141/139 400/492/123 46/493/122
f 207/147/145 53/491/124 209/149/147
f 207/147/145 209/149/147 208/148/146
f 208/148/146 209/149/147 51/140/138
f 407/144/142 46/493/122 399/494/118
f 407/144/142 399/494/118 205/145/143
f 205/145/143 399/494/118 50/495/117
f 406/141/139 46/493/122 407/144/142
f 406/141/139 407/144/142 206/142/140
f 206/142/140 407/144/142 49/143/141
f 200/134/132 45/107/105 196/115/113
f 200/134/132 196/115/113 203/138/136
f 203/138/136 196/115/113 4/112/110
f 119/137/135 5/496/159 204/497/440
f 119/137/135 204/497/440 203/138/136
f 203/138/136 204/497/440 48/139/137
f 199/130/128 44/103/101 192/108/106
f 199/130/128 192/108/106 201/135/133
f 201/135/133 192/108/106 45/107/105
f 200/134/132 48/139/137 202/498/441
f 200/134/132 202/498/441 201/135/133
f 201/135/133 202/498/441 47/136/134
f 403/133/131 43/499/384 191/106/104
f 403/133/131 191/106/104 404/131/129
f 404/131/129 191/106/104 44/103/101
f 199/130/128 47/136/134 405/500/442
f 199/130/128 405/500/442 404/131/129
f 404/131/129 405/500/442 54/132/130
f 212/129/127 8/12/12 386/14/14
f 212/129/127 386/14/14 402/127/125
f 402/127/125 386/14/14 3/9/9
f 402/127/125 3/9/9 187/101/99
f 402/127/125 187/101/99 401/128/126
f 401/128/126 187/101/99 42/99/97
f 400/125/123 53/126/124 401/128/126
f 400/125/123 401/128/126 198/123/121
f 198/123/121 401/128/126 42/99/97
f 184/122/120 41/96/94 197/501/443
f 184/122/120 197/501/443 198/123/121
f 198/123/121 197/501/443 46/124/122
f 399/120/118 46/124/122 197/501/443
f 399/120/118 197/501/443 398/121/119
f 398/121/119 197/501/443 41/96/94
f 397/117/115 448/502/444 398/121/119
f 397/117/115 398/121/119 181/118/116
f 181/118/116 398/121/119 41/96/94
f 196/115/113 45/107/105 194/503/445
f 196/115/113 194/503/445 195/113/111
f 195/113/111 194/503/445 38/87/85
f 195/113/111 38/87/85 178/92/90
f 195/113/111 178/92/90 118/114/112
f 118/114/112 178/92/90 1/4/4
f 176/111/109 38/87/85 194/503/445
f 176/111/109 194/503/445 193/109/107
f 193/109/107 194/503/445 45/107/105
f 192/108/106 44/103/101 190/105/103
f 192/108/106 190/105/103 193/109/107
f 193/109/107 190/105/103 37/110/108
f 191/106/104 43/499/384 188/504/386
f 191/106/104 188/504/386 189/104/102
f 189/104/102 188/504/386 35/505/375
f 189/104/102 35/505/375 172/506/446
f 189/104/102 172/506/446 190/105/103
f 190/105/103 172/506/446 37/110/108
f 187/101/99 3/9/9 115/7/7
f 187/101/99 115/7/7 186/102/100
f 186/102/100 115/7/7 2/6/6
f 185/100/98 42/99/97 186/102/100
f 185/100/98 186/102/100 167/80/78
f 167/80/78 186/102/100 2/6/6
f 185/100/98 32/76/74 165/507/447
f 185/100/98 165/507/447 183/98/96
f 183/98/96 165/507/447 31/72/70
f 182/97/95 41/96/94 184/122/120
f 182/97/95 184/122/120 183/98/96
f 183/98/96 184/122/120 42/99/97
f 182/97/95 31/72/70 164/508/448
f 182/97/95 164/508/448 180/95/93
f 180/95/93 164/508/448 29/93/91
f 179/94/92 40/116/114 181/118/116
f 179/94/92 181/118/116 180/95/93
f 180/95/93 181/118/116 41/96/94
f 178/92/90 38/87/85 174/89/87
f 178/92/90 174/89/87 177/91/89
f 177/91/89 174/89/87 39/509/405
f 177/91/89 39/509/405 396/510/404
f 177/91/89 396/510/404 384/5/5
f 384/5/5 396/510/404 27/511/65
f 173/88/86 38/87/85 176/111/109
f 173/88/86 176/111/109 169/82/80
f 169/82/80 176/111/109 37/110/108
f 173/88/86 36/90/88 175/512/406
f 173/88/86 175/512/406 174/89/87
f 174/89/87 175/512/406 39/509/405
f 171/85/83 37/110/108 172/506/446
f 171/85/83 172/506/446 168/86/84
f 168/86/84 172/506/446 35/505/375
f 169/82/80 37/110/108 171/85/83
f 169/82/80 171/85/83 170/83/81
f 170/83/81 171/85/83 34/84/82
f 167/80/78 2/6/6 382/2/2
f 167/80/78 382/2/2 395/79/77
f 395/79/77 382/2/2 28/1/1
f 394/78/76 33/513/358 166/77/75
f 394/78/76 166/77/75 395/79/77
f 395/79/77 166/77/75 32/76/74
f 166/77/75 33/513/358 393/514/408
f 166/77/75 393/514/408 392/75/73
f 392/75/73 393/514/408 112/74/72
f 390/73/71 31/72/70 165/507/447
f 390/73/71 165/507/447 392/75/73
f 392/75/73 165/507/447 32/76/74
f 390/73/71 112/74/72 391/515/410
f 390/73/71 391/515/410 163/71/69
f 163/71/69 391/515/410 30/69/67
f 162/70/68 29/93/91 164/508/448
f 162/70/68 164/508/448 163/71/69
f 163/71/69 164/508/448 31/72/70
f 161/68/66 26/386/371 156/64/62
f 161/68/66 156/64/62 159/66/64
f 159/66/64 156/64/62 25/63/61
f 158/375/361 28/377/1 160/516/449
f 158/375/361 160/516/449 159/66/64
f 159/66/64 160/516/449 27/67/65
f 156/64/62 26/386/371 157/363/350
f 156/64/62 157/363/350 154/62/60
f 154/62/60 157/363/350 24/61/59
f 23/59/57 151/517/450 152/60/58
f 152/60/58 155/518/451 154/62/60
f 154/62/60 155/518/451 25/63/61
f 152/60/58 24/61/59 153/343/330
f 152/60/58 153/343/330 150/58/56
f 150/58/56 153/343/330 21/56/54
f 148/57/55 22/312/299 421/334/321
f 148/57/55 421/334/321 150/58/56
f 150/58/56 421/334/321 23/59/57
f 144/55/53 20/455/424 149/313/300
f 144/55/53 149/313/300 146/53/51
f 146/53/51 149/313/300 22/312/299
f 146/53/51 22/312/299 148/57/55
f 146/53/51 148/57/55 147/54/52
f 147/54/52 148/57/55 21/56/54
f 140/51/49 18/287/276 145/289/278
f 140/51/49 145/289/278 142/49/47
f 142/49/47 145/289/278 20/466/424
f 142/49/47 20/466/424 144/519/53
f 142/49/47 144/519/53 143/50/48
f 143/50/48 144/519/53 19/459/50
f 136/47/45 16/263/254 141/265/256
f 136/47/45 141/265/256 138/45/43
f 138/45/43 141/265/256 18/287/276
f 138/45/43 18/287/276 140/51/49
f 138/45/43 140/51/49 139/46/44
f 139/46/44 140/51/49 17/48/46
f 131/43/36 14/237/37 137/239/232
f 131/43/36 137/239/232 134/41/40
f 134/41/40 137/239/232 16/263/254
f 134/41/40 16/263/254 136/47/45
f 134/41/40 136/47/45 135/42/41
f 135/42/41 136/47/45 15/44/42
f 132/38/38 11/28/28 127/30/30
f 132/38/38 127/30/30 133/39/39
f 133/39/39 127/30/30 12/31/31
f 130/35/35 11/28/28 132/38/38
f 130/35/35 132/38/38 131/36/36
f 131/36/36 132/38/38 14/37/37
f 128/32/32 9/22/22 123/24/24
f 128/32/32 123/24/24 129/33/33
f 129/33/33 123/24/24 10/25/25
f 126/29/29 9/22/22 128/32/32
f 126/29/29 128/32/32 127/30/30
f 127/30/30 128/32/32 12/31/31
f 124/26/26 6/16/16 120/18/18
f 124/26/26 120/18/18 125/27/27
f 125/27/27 120/18/18 7/19/19
f 122/23/23 6/16/16 124/26/26
f 122/23/23 124/26/26 123/24/24
f 123/24/24 124/26/26 10/25/25
f 389/20/20 5/163/159 387/520/15
f 389/20/20 387/520/15 121/21/21
f 121/21/21 387/520/15 8/489/12
f 388/17/17 5/163/159 389/20/20
f 388/17/17 389/20/20 120/18/18
f 120/18/18 389/20/20 7/19/19
f 387/15/15 5/496/159 119/137/135
f 387/15/15 119/137/135 385/13/13
f 385/13/13 119/137/135 4/112/110
f 385/13/13 4/112/110 117/10/10
f 385/13/13 117/10/10 386/14/14
f 386/14/14 117/10/10 3/9/9
f 117/10/10 4/112/110 118/114/112
f 117/10/10 118/114/112 116/11/11
f 116/11/11 118/114/112 1/4/4
f 115/7/7 3/9/9 116/11/11
f 115/7/7 116/11/11 114/8/8
f 114/8/8 116/11/11 1/4/4
f 384/5/5 27/511/65 160/521/449
f 384/5/5 160/521/449 383/3/3
f 383/3/3 160/521/449 28/1/1
f 382/2/2 2/6/6 114/8/8
f 382/2/2 114/8/8 383/3/3
f 383/3/3 114/8/8 1/4/4
f 446/522/452 443/422/399 445/423/400
f 438/421/398 443/422/399 446/522/452
f 398/121/119 447/523/453 50/119/117
f 398/121/119 448/502/444 447/523/453
f 421/334/321 333/450/420 23/59/57
f 152/60/58 151/517/450 155/518/451
f 113/376/362 449/524/454 28/377/1
f 28/377/1 449/524/454 380/374/360
f 450/355/342 452/525/455 108/352/339
f 159/66/64 451/65/63 158/375/361
f 108/352/339 452/525/455 367/446/416
f 369/357/344 456/444/415 370/358/345
