# Blender 4.4.3
# www.blender.org
mtllib cave_map_small.mtl
o cave_map_small.019
v 280.320435 37.191216 47.204460
v 280.288361 35.826176 49.180641
v 277.652283 35.674702 49.033241
v 277.684357 37.039745 47.057045
v 275.696747 36.987690 46.988838
v 277.683472 41.447655 50.101768
v 275.468353 41.213051 49.903770
v 275.436279 39.848011 51.879982
v 277.651428 40.082615 52.077980
v 280.319580 41.428009 50.130974
v 280.287537 40.062969 52.107155
v 282.159668 41.129177 49.954414
v 282.127625 39.764137 51.930595
v 274.569214 37.803288 47.533928
v 275.664703 35.622650 48.965034
v 274.537170 36.438248 49.510109
v 274.302948 39.027798 48.375420
v 274.270874 37.662758 50.351601
v 274.568726 40.248341 49.222816
v 274.536682 38.883301 51.198997
v 282.387573 40.190071 49.309425
v 282.355499 38.825031 51.285637
v 282.653870 38.965565 48.467934
v 282.621796 37.600521 50.444115
v 283.435303 37.737209 47.632133
v 283.403229 36.372169 49.608315
v 281.758087 36.068623 49.371956
v 281.790161 37.433666 47.395775
v 279.810760 32.800709 55.622551
v 281.684052 32.792496 55.646172
v 279.842804 33.508629 53.698112
v 280.020630 34.273643 51.252296
v 280.803802 39.863785 43.613457
v 280.116882 38.261509 45.417061
v 277.937439 32.927673 55.641869
v 277.969513 33.547050 53.687813
v 277.855865 34.286346 51.226341
v 277.952087 38.277290 45.392830
v 276.064178 32.817142 55.575310
v 276.095551 37.309296 55.330635
v 276.566315 36.351337 56.860359
v 277.968689 38.132874 55.723625
v 277.936798 36.722733 57.014107
v 275.690338 38.346504 53.242790
v 277.854950 39.147900 53.679558
v 277.056793 42.861111 45.547585
v 277.951416 41.788315 47.742058
v 275.786530 42.349426 48.082726
v 279.841980 38.123005 55.746590
v 279.810089 36.714516 57.037712
v 280.019714 39.135193 53.705513
v 280.116180 41.772541 47.766289
v 281.336029 36.502872 56.982857
v 281.715424 37.279697 55.399605
v 282.184662 38.308392 53.320686
v 281.773987 41.518105 47.622658
v 275.755768 34.415958 54.041237
v 275.723694 33.811581 55.930046
v 276.096252 33.449123 53.616982
v 275.297668 35.080853 51.588997
v 276.139252 34.278904 51.196907
v 275.563751 40.786766 44.131172
v 275.393860 39.310020 46.042747
v 275.787323 38.293068 45.368599
v 276.515167 35.377003 54.478951
v 276.233307 34.802292 56.295509
v 276.027649 36.165886 52.147438
v 274.447144 40.331009 46.710686
v 276.704071 36.341053 54.909676
v 276.422180 35.794407 56.656914
v 276.245941 37.253922 52.699760
v 274.478516 41.344868 47.389565
v 282.023834 35.769844 56.727577
v 283.146362 36.307117 54.988731
v 283.668579 37.210365 52.788780
v 282.058502 42.485519 45.391594
v 282.084167 41.154438 47.384315
v 282.989868 34.772659 56.380714
v 283.335602 35.341080 54.562645
v 283.887238 36.119766 52.241707
v 282.060852 41.607960 44.804466
v 282.172852 40.274704 46.797112
v 282.800964 33.780544 56.019310
v 282.056244 34.382774 54.118523
v 282.578491 35.038128 51.676308
v 281.954590 39.262207 46.116142
v 281.149536 33.805157 53.848854
v 281.618896 34.328209 51.303719
v 282.281647 38.245735 45.441261
v 279.788940 36.718952 58.714775
v 275.702332 35.261700 58.129845
v 275.930786 34.267750 57.773689
v 275.702667 33.275806 57.411781
v 277.916992 32.288101 57.039330
v 282.192596 34.255234 57.811333
v 280.048340 29.518183 66.081429
v 281.486023 29.018660 68.441597
v 280.016296 28.721338 68.358040
v 281.518066 29.810503 66.181099
v 277.380219 28.524881 68.280083
v 277.412292 29.326269 65.992897
v 275.392639 28.450628 68.237083
v 277.411407 34.496540 67.395836
v 275.196259 34.209393 67.287285
v 275.164215 33.471317 69.306297
v 277.379364 33.763958 69.399055
v 280.047516 34.487740 67.429924
v 280.015472 33.757030 69.433556
v 281.887604 34.147167 67.362953
v 281.855530 33.413315 69.385262
v 274.297150 30.205034 66.188271
v 274.265076 29.412996 68.427254
v 275.424683 29.254469 65.945930
v 274.030884 31.639891 66.573921
v 273.998810 30.866747 68.734108
v 274.296661 33.072968 66.966469
v 274.264587 32.319092 69.047920
v 282.115509 33.046867 67.067543
v 282.083435 32.298546 69.150261
v 282.381805 31.612017 66.681892
v 282.349731 30.844797 68.843422
v 283.163269 30.175444 66.302879
v 283.131195 29.389692 68.543297
v 279.538696 27.953726 75.495430
v 281.411957 27.950319 75.520210
v 279.570740 28.234388 73.203300
v 279.748535 28.302782 70.721382
v 281.346832 28.368628 70.757286
v 279.731079 31.005146 61.474739
v 281.604370 30.998592 61.498878
v 279.763123 31.666389 59.002357
v 279.844788 30.030802 63.696571
v 277.665375 28.082006 75.489372
v 277.697449 28.268789 73.183327
v 277.583801 28.308474 70.693062
v 277.857788 31.011700 61.450600
v 277.895630 31.760429 58.549370
v 277.680023 30.038374 63.668694
v 275.792114 27.960543 75.445869
v 275.823486 32.329498 73.786598
v 276.294250 31.678488 76.010460
v 277.696625 33.227123 73.950844
v 277.664703 32.072868 76.088127
v 275.418274 32.747746 71.611641
v 277.582886 33.633823 71.830437
v 276.015869 35.576988 60.363167
v 275.983795 35.080212 62.583199
v 277.889160 35.731480 60.297356
v 277.857208 34.442604 62.427635
v 277.679352 34.073494 65.141548
v 275.514435 34.701584 65.332314
v 279.569916 33.223598 73.975594
v 279.538025 32.069462 76.112923
v 279.747650 33.628136 71.858772
v 279.762390 36.092087 60.426048
v 279.730499 34.436050 62.451759
v 279.844116 34.064220 65.168922
v 281.063995 31.851160 76.100746
v 281.443359 32.318932 73.860878
v 281.912567 32.730682 71.696648
v 281.096802 34.150822 62.389488
v 281.635742 35.718372 60.345634
v 281.501923 33.782104 65.092934
v 275.483704 29.199835 73.297539
v 275.451630 29.005335 75.598030
v 275.824158 28.155760 73.140511
v 275.025604 29.169058 70.841957
v 275.867188 28.293802 70.666496
v 276.247375 31.735367 58.977379
v 275.644012 32.034935 61.711266
v 275.108002 32.602135 59.274620
v 275.984497 31.018257 61.426460
v 275.121796 31.251043 64.110344
v 275.515259 30.045946 63.640785
v 276.243103 30.241842 73.469109
v 275.961243 30.048586 75.761421
v 275.755585 30.360380 71.106361
v 274.918762 33.595913 59.631279
v 274.726715 33.053635 61.988625
v 274.175079 32.405838 64.504051
v 276.432007 31.284925 73.633125
v 276.150116 31.092417 75.920586
v 275.973846 31.553049 71.364067
v 275.107666 34.588028 59.992683
v 274.728699 34.069118 62.277840
v 274.206451 33.556446 64.910118
v 281.751770 31.082228 75.994682
v 282.874298 31.272810 73.718269
v 283.396515 31.533545 71.461235
v 282.354126 34.556248 60.084068
v 281.354034 33.889713 62.318703
v 281.812103 33.370670 64.952278
v 282.717804 30.036295 75.850807
v 283.063538 30.229021 73.559258
v 283.615204 30.339724 71.209221
v 281.020264 33.569153 59.708199
v 281.413239 33.030239 62.074760
v 281.900787 32.372742 64.601738
v 282.528900 28.992464 75.691643
v 281.784180 29.187990 73.380821
v 282.306427 29.149920 70.937233
v 280.674683 32.577721 59.344810
v 281.224365 32.015411 61.783165
v 281.682495 31.222937 64.193291
v 280.877472 28.559992 73.271355
v 280.881378 31.751289 59.048927
v 282.009583 30.023226 63.724480
v 282.235077 33.262104 57.452827
v 281.824951 35.234840 58.207069
v 281.427582 32.398880 57.129234
v 281.950378 36.307091 58.596565
v 279.790283 32.279881 57.062965
v 277.915680 36.470341 58.598320
v 276.556488 32.475777 57.134651
v 276.525513 35.893002 58.369789
v 279.675293 32.396698 77.803596
v 281.836914 31.973558 77.742500
v 277.801880 32.126629 77.760994
v 276.411560 31.513075 77.667412
v 275.588318 30.845415 77.566322
v 275.816772 29.801237 77.409935
v 275.588654 28.757059 77.253014
v 276.442566 27.919695 77.128334
v 277.802612 27.712881 77.098808
v 279.676086 27.712881 77.100868
v 281.313507 27.672312 77.122581
v 282.121094 28.757059 77.260231
v 282.078583 29.801237 77.416832
v 281.711456 30.845411 77.573112
v 275.374542 41.665962 44.715813
v 278.632477 50.443439 37.079323
v 280.668365 48.792747 38.647789
v 280.530365 50.503166 36.828423
v 278.931274 49.073868 39.013481
v 276.247437 50.202599 37.327461
v 276.546234 48.833027 39.261635
v 275.012573 49.379704 37.173103
v 275.311371 48.010136 39.107277
v 276.927063 44.109283 37.292732
v 276.635712 45.822819 35.496834
v 278.831055 44.450993 37.155174
v 278.533600 45.882545 35.245934
v 281.465759 44.634003 36.847420
v 281.166931 46.003574 34.913246
v 282.306763 45.310432 36.999535
v 282.007965 46.680000 35.065376
v 282.520691 46.349014 37.389275
v 282.221893 47.718582 35.455116
v 282.351532 47.375538 37.829674
v 282.052734 48.745110 35.895500
v 274.452728 48.505939 36.900276
v 274.751526 47.136368 38.834419
v 275.067963 47.493450 36.400902
v 275.366791 46.123882 38.335075
v 275.237152 46.466927 35.960518
v 275.535950 45.097355 37.894676
v 275.829041 45.950180 35.665382
v 276.127869 44.580612 37.599525
v 279.230072 47.704300 40.947655
v 281.409973 45.619823 42.319466
v 281.147736 47.331535 40.518654
v 279.525208 46.165169 42.813606
v 278.018066 52.407932 32.899605
v 278.333649 51.813007 35.145164
v 279.915955 52.467663 32.648689
v 280.231567 51.872734 34.894249
v 277.315369 46.869926 40.887169
v 277.614197 45.500370 42.821281
v 276.262207 51.951206 34.130470
v 276.418945 50.978638 35.084694
v 275.641418 46.351372 40.919731
v 275.716278 45.440643 43.072212
v 274.493408 52.049622 33.265358
v 274.521057 50.918915 35.335594
v 275.626770 41.310432 41.411949
v 277.082397 43.473209 39.544853
v 277.521545 41.226383 41.103218
v 277.225861 42.739716 39.226906
v 276.336914 47.192390 33.562691
v 274.431549 46.788700 33.675331
v 274.567871 48.674461 31.887232
v 276.034241 48.384346 31.557123
v 279.283600 42.195377 40.041145
v 279.422577 41.429886 40.910118
v 278.234802 47.252113 33.311760
v 277.928528 48.277721 31.239344
v 280.820007 41.811211 40.862038
v 280.125244 46.967880 32.922585
v 279.826447 48.337448 30.988428
v 281.399445 43.400658 38.889671
v 281.687622 42.533016 41.028694
v 282.605591 43.940861 38.933708
v 281.709167 48.049572 33.131203
v 280.958893 49.404934 31.256739
v 282.900146 43.603024 41.286400
v 281.602753 44.941154 39.484291
v 281.002045 49.059170 33.642723
v 280.407501 50.419434 31.747660
v 282.786407 44.631290 41.719460
v 281.433563 45.967678 39.924675
v 281.753906 50.114677 33.961342
v 279.935883 51.436440 32.228035
v 275.050323 45.766800 40.768578
v 275.349121 44.397243 42.702721
v 273.855103 51.245079 33.031944
v 274.153931 49.875507 34.966118
v 276.163910 44.769993 40.203331
v 276.312988 43.395725 42.157280
v 273.070740 50.188545 32.717628
v 273.643250 48.813728 34.650078
v 276.333069 43.743469 39.762947
v 276.482147 42.369198 41.716881
v 273.810364 49.179974 32.201820
v 274.109161 47.810402 34.135979
v 280.803162 43.373947 45.962151
v 278.929962 42.844868 45.572395
v 275.690582 42.630604 45.367302
v 275.433502 42.407990 45.213417
v 275.184143 39.912537 43.538948
v 277.057373 39.896278 43.563774
v 278.930573 39.880013 43.588661
v 281.143921 40.738380 44.205116
v 276.962616 59.524200 20.324137
v 278.973877 58.114105 22.139704
v 278.862305 59.527988 20.079782
v 277.237732 58.463238 22.446558
v 274.574036 59.345345 20.590113
v 274.849152 58.284393 22.712534
v 273.332001 58.519592 20.554789
v 273.607086 57.458637 22.677225
v 275.193817 53.312294 21.489939
v 274.928833 54.734203 19.451746
v 277.101807 53.611996 21.314631
v 276.828522 54.737991 19.207392
v 279.739746 53.722366 21.000223
v 279.464630 54.783318 18.877817
v 280.586578 54.406551 21.053019
v 280.311462 55.467506 18.930582
v 280.808655 55.490494 21.281183
v 280.533539 56.551449 19.158747
v 280.647308 56.573673 21.558664
v 280.372192 57.634624 19.436228
v 272.765015 57.619457 20.414728
v 273.040131 56.558502 22.537134
v 273.372894 56.537170 20.079813
v 273.648010 55.476215 22.202219
v 273.534241 55.453987 19.802317
v 273.809357 54.393032 21.924738
v 274.122589 54.892986 19.593454
v 274.397705 53.832035 21.715860
v 277.512848 57.402287 24.568964
v 279.664856 55.532219 26.257334
v 279.428986 56.951313 24.214762
v 277.782959 56.163395 26.649836
v 276.389618 60.833191 15.889612
v 276.687500 60.585148 18.201700
v 278.289307 60.836979 15.645258
v 278.587189 60.588940 17.957361
v 275.590363 56.585587 24.623652
v 275.865479 55.524643 26.746042
v 274.622894 60.585361 17.163935
v 274.765015 59.768452 18.256372
v 273.911224 56.093040 24.723719
v 273.965790 55.520855 26.990381
v 272.859741 60.566380 16.282099
v 272.865356 59.764664 18.500727
v 273.844360 51.186607 25.979105
v 275.331024 53.026016 23.813715
v 275.739838 51.039520 25.699533
v 275.468933 52.251339 23.612360
v 274.653717 55.795158 17.329309
v 272.743896 55.430412 17.489450
v 272.908234 57.019894 15.435526
v 274.373383 56.669731 15.163402
v 277.516907 51.819298 24.513895
v 277.643738 51.194187 25.490396
v 276.553406 55.798946 17.084955
v 276.268188 56.498947 14.878322
v 279.045105 51.551216 25.394068
v 278.442993 55.441780 16.756388
v 278.167877 56.502735 14.633967
v 279.650543 52.815792 23.206263
v 279.918915 52.282223 25.454477
v 280.861694 53.345596 23.175440
v 280.036346 56.528461 16.808176
v 279.309357 57.588512 14.743876
v 281.140503 53.368164 25.554071
v 279.865875 54.427113 23.560266
v 279.336517 57.610569 17.154917
v 278.765411 58.670929 15.070566
v 281.034637 54.451450 25.824411
v 279.704498 55.510288 23.837732
v 280.097076 58.695580 17.313822
v 278.301270 59.753506 15.386988
v 273.315216 55.497547 24.659571
v 273.590332 54.436604 26.781946
v 272.214783 59.741367 16.169870
v 272.489899 58.680412 18.292292
v 274.421906 54.416252 24.260492
v 274.547150 53.355011 26.402155
v 271.421692 58.656284 16.015162
v 271.970490 57.587437 18.138529
v 274.583282 53.333073 23.983011
v 274.708496 52.271832 26.124674
v 272.154053 57.574245 15.664240
v 272.429169 56.513287 17.786646
v 272.780914 61.143429 13.746317
v 278.295685 61.632248 13.150202
v 275.980011 57.206490 12.400491
v 271.865875 58.281788 13.186396
v 272.707275 57.414570 12.872293
v 272.127747 59.365810 13.409449
v 271.926605 60.448910 13.692057
v 279.898499 53.634281 30.304255
v 277.717834 53.983799 30.761911
v 275.814178 53.657005 30.905451
v 274.392456 53.005962 30.847818
v 273.544037 52.319477 30.692698
v 273.752930 51.294201 30.247049
v 273.499268 50.254372 29.862574
v 274.346222 49.453548 29.415354
v 275.719574 49.292393 29.150995
v 277.617462 49.352116 28.900110
v 279.279144 49.535538 28.733530
v 280.116913 50.462627 28.987650
v 280.096436 51.493832 29.408411
v 279.747101 52.514687 29.872614
v 275.806000 58.055534 8.055552
v 273.857788 58.092270 8.225962
v 273.730286 58.382763 6.705577
v 275.678497 58.346027 6.535182
v 273.730286 62.266365 7.447611
v 273.857788 61.975868 8.967997
v 275.412903 62.292377 7.311472
v 275.540405 62.001884 8.831858
v 277.200470 60.334969 8.374125
v 277.401215 59.572315 6.625010
v 276.781342 60.620953 6.877360
v 277.528717 59.281822 8.145380
v 271.129578 60.533585 7.334635
v 270.932678 59.179852 8.679071
v 271.257080 60.243088 8.855021
v 270.805206 59.470345 7.158702
v 275.795410 57.611870 11.144831
v 274.112793 57.585861 11.280970
v 273.985321 57.876354 9.760599
v 275.667938 57.902370 9.624460
v 273.794128 59.143547 5.672130
v 274.112793 61.818741 12.089746
v 275.667938 62.575321 10.517313
v 273.985321 62.549309 10.653452
v 275.795410 61.844757 11.953608
v 275.091034 62.319023 6.553171
v 273.794128 62.369587 6.288523
v 278.418793 59.768871 11.336969
v 277.656219 58.991322 9.665766
v 277.327972 60.044472 9.894526
v 277.783722 58.700829 11.186152
v 275.962189 61.606823 5.960963
v 276.089966 60.812515 5.798487
v 276.611511 61.676548 7.093287
v 271.929291 59.951912 5.982982
v 271.801514 60.746216 6.145457
v 272.124512 60.729786 12.048426
v 271.997040 61.020279 10.528040
v 271.954712 59.668941 11.859964
v 272.391479 59.968155 10.293924
v 271.426910 61.303936 9.043467
v 276.725616 62.560081 7.252527
v 277.030640 61.390564 8.590067
v 277.223022 62.451759 8.776697
v 276.843414 58.559704 8.064875
v 276.715912 58.850197 6.544505
v 272.634369 62.108562 7.509363
v 272.175171 62.373722 9.185114
v 271.299408 61.594429 7.523096
v 277.267914 61.615597 11.786325
v 277.158142 61.100067 10.110453
v 276.830872 61.937428 10.297892
v 277.783722 60.817268 11.590540
v 276.556396 60.023441 5.608591
v 276.076416 62.206970 6.419306
v 271.929291 61.544479 6.287256
v 272.969482 61.931904 6.274042
v 271.997040 58.903839 10.123667
v 272.124512 58.613346 11.644037
v 272.591614 61.588310 12.173288
v 272.302673 62.083221 10.705500
v 271.026184 58.415543 6.938625
v 271.153687 58.125050 8.458994
v 276.923187 58.342041 9.603189
v 277.478058 57.637886 11.008692
v 272.725769 57.784554 11.435266
v 272.302673 57.850342 9.896738
v 272.528015 59.164883 5.782390
v 276.326385 59.223598 5.475063
v 274.208649 61.782925 13.713526
v 276.116180 62.066978 13.534571
v 274.080322 57.202702 12.644846
v 277.644257 57.347496 12.219049
v 278.489807 58.294994 12.334375
v 278.135529 60.461296 12.893396
v 273.498169 60.089695 5.261835
v 273.263733 60.882359 5.432947
v 273.029297 61.675018 5.604059
v 274.694244 60.108189 5.165064
v 275.060272 59.204033 5.577495
v 274.377686 60.899574 5.342814
v 274.061157 61.690964 5.520579
v 278.477264 59.378471 12.592737
vn -0.1353 0.8251 0.5485
vn -0.1219 0.8041 0.5819
vn -0.2494 0.7906 0.5592
vn -0.2775 0.7781 0.5635
vn -0.0564 0.8335 0.5497
vn -0.0539 0.8104 0.5835
vn 0.3480 0.8034 0.4831
vn 0.3307 0.7508 0.5718
vn 0.0140 -0.9085 -0.4176
vn 0.5020 -0.6349 -0.5873
vn 0.5117 -0.7397 -0.4369
vn 0.1106 -0.8131 -0.5715
vn -0.0938 -0.9262 -0.3651
vn -0.1280 -0.8135 -0.5673
vn -0.6749 -0.6973 -0.2413
vn -0.6805 -0.5597 -0.4730
vn 0.8773 0.2834 0.3872
vn 0.8728 0.4574 0.1702
vn 0.9945 0.0026 0.1048
vn 0.9648 0.1035 -0.2417
vn 0.9047 -0.3634 -0.2226
vn 0.9075 -0.1303 -0.3992
vn -0.9746 -0.2216 -0.0321
vn -0.9565 -0.2877 -0.0491
vn -0.9506 -0.3093 -0.0250
vn -0.9684 -0.2489 -0.0189
vn -0.8839 0.1699 0.4357
vn -0.9063 0.4106 0.0998
vn -0.0156 0.9331 0.3594
vn -0.3996 0.8429 0.3603
vn -0.3698 0.8735 0.3165
vn -0.1140 0.9428 0.3132
vn -0.0380 0.8992 0.4358
vn -0.3666 0.8542 0.3687
vn -0.0196 0.8173 0.5759
vn -0.8102 0.4268 0.4017
vn -0.5542 0.5955 0.5816
vn -0.0049 0.8142 0.5805
vn 0.0258 0.9415 0.3359
vn -0.0150 0.9535 0.3010
vn -0.0198 0.9015 0.4324
vn -0.0135 0.7841 0.6205
vn -0.0005 0.8193 0.5734
vn 0.5834 0.8009 0.1351
vn 0.5341 0.8161 0.2209
vn 0.3485 0.8619 0.3684
vn 0.4914 0.6552 0.5738
vn 0.8431 0.3949 0.3651
vn 0.9223 -0.1946 -0.3339
vn 0.1989 -0.7930 -0.5758
vn 0.7603 -0.6199 -0.1943
vn 0.1468 -0.8699 -0.4709
vn 0.8410 -0.1934 -0.5053
vn 0.2017 -0.8512 -0.4846
vn 0.0942 -0.8486 -0.5206
vn 0.1931 -0.8152 -0.5460
vn -0.0936 -0.9487 -0.3019
vn 0.3051 -0.9224 -0.2370
vn -0.1803 -0.8013 -0.5704
vn -0.0500 -0.9065 -0.4193
vn -0.1997 -0.8491 -0.4890
vn -0.2671 -0.7162 -0.6448
vn -0.1217 -0.9137 -0.3877
vn -0.5111 -0.7252 -0.4614
vn -0.5339 -0.7742 -0.3398
vn -0.5601 -0.7015 -0.4406
vn -0.8734 -0.3480 -0.3405
vn -0.5441 -0.7995 -0.2547
vn 0.9846 -0.1163 -0.1305
vn 0.9998 -0.0217 -0.0002
vn 0.9395 0.3111 -0.1437
vn 0.9123 0.2371 0.3339
vn 0.9741 -0.1707 0.1484
vn 0.9298 -0.3346 -0.1534
vn 0.9403 -0.3240 0.1046
vn 0.8626 -0.1370 -0.4869
vn 0.9462 0.1010 0.3073
vn 0.9430 -0.1370 0.3032
vn 0.9902 0.1395 -0.0118
vn 0.9370 -0.2850 0.2022
vn 0.9164 0.2642 -0.3008
vn 0.8739 -0.4856 -0.0222
vn 0.5039 -0.7230 -0.4726
vn 0.9077 -0.4058 -0.1072
vn -0.7622 -0.4628 -0.4527
vn -0.8251 -0.3264 -0.4612
vn -0.8869 -0.4478 -0.1136
vn -0.9324 -0.3460 -0.1046
vn -0.9586 -0.1341 -0.2513
vn -0.9118 0.3856 -0.1411
vn -0.9365 0.2405 0.2551
vn -0.9308 0.3409 0.1318
vn -0.9794 -0.0266 0.2002
vn -0.8952 0.4157 0.1606
vn -0.6362 0.7356 0.2326
vn -0.6872 0.6721 0.2758
vn -0.8763 0.3575 0.3229
vn -0.9508 -0.1304 0.2810
vn -0.0140 -0.9817 -0.1900
vn -0.8180 -0.5713 -0.0675
vn 0.2414 -0.9336 -0.2649
vn 0.4915 -0.8491 -0.1934
vn 0.8910 -0.4275 0.1527
vn 0.9640 -0.0920 0.2494
vn 0.9436 0.2262 0.2418
vn 0.4071 0.8550 0.3213
vn 0.0855 0.9270 0.3651
vn -0.0445 0.9454 0.3229
vn -0.4308 0.8872 0.1653
vn -0.8578 0.4308 -0.2802
vn -0.9405 -0.0104 -0.3395
vn -0.9669 -0.2550 -0.0038
vn -0.1364 0.9500 0.2810
vn -0.1200 0.9598 0.2537
vn -0.2513 0.9377 0.2398
vn -0.2750 0.9079 0.3165
vn -0.0562 0.9762 0.2097
vn -0.0550 0.9480 0.3134
vn 0.3419 0.9263 0.1584
vn 0.3321 0.8883 0.3171
vn 0.0133 -0.9902 -0.1391
vn 0.5148 -0.8042 -0.2970
vn 0.5108 -0.8337 -0.2099
vn 0.1059 -0.9651 -0.2397
vn -0.0934 -0.9921 -0.0834
vn -0.1242 -0.9637 -0.2362
vn -0.6719 -0.7400 -0.0310
vn -0.7040 -0.6755 -0.2192
vn 0.8795 0.3896 0.2733
vn 0.8650 0.5018 -0.0023
vn 0.9950 0.0315 0.0951
vn 0.9701 0.0176 -0.2421
vn 0.9031 -0.4145 -0.1125
vn 0.9142 -0.2630 -0.3082
vn -0.9753 -0.2182 0.0334
vn -0.9599 -0.2740 0.0589
vn -0.9527 -0.2986 0.0562
vn -0.9698 -0.2410 0.0385
vn -0.8907 0.2905 0.3497
vn -0.8905 0.4528 -0.0435
vn 0.0011 0.9865 0.1639
vn -0.3926 0.8905 0.2302
vn -0.3739 0.9245 0.0749
vn -0.1143 0.9912 0.0670
vn -0.0364 0.9962 0.0791
vn -0.3682 0.9291 0.0352
vn -0.0066 0.9414 0.3373
vn -0.8072 0.4531 0.3784
vn -0.6775 0.7294 0.0945
vn -0.0497 0.9599 0.2760
vn -0.0175 0.9567 0.2905
vn -0.7854 0.6010 0.1482
vn 0.0241 0.9920 0.1241
vn -0.0156 0.9984 0.0546
vn -0.0189 0.9972 0.0724
vn 0.0024 0.9429 0.3330
vn 0.0369 0.9526 0.3021
vn -0.0121 0.9416 0.3366
vn 0.5898 0.8055 -0.0578
vn 0.5380 0.8429 0.0085
vn 0.3508 0.9362 0.0202
vn 0.5818 0.7305 0.3576
vn 0.3903 0.8724 0.2942
vn 0.5515 0.7226 0.4167
vn 0.9251 -0.2840 -0.2521
vn 0.2029 -0.9267 -0.3163
vn 0.7514 -0.6556 -0.0750
vn 0.1505 -0.9605 -0.2340
vn 0.8556 -0.3922 -0.3379
vn 0.2005 -0.9698 -0.1391
vn 0.4420 -0.8920 -0.0945
vn 0.1256 -0.9208 -0.3692
vn 0.2073 -0.9564 -0.2059
vn -0.1405 -0.9243 -0.3548
vn -0.1445 -0.9895 0.0030
vn 0.2937 -0.9517 -0.0899
vn -0.1865 -0.9324 -0.3095
vn -0.0480 -0.9843 -0.1699
vn -0.2018 -0.9687 -0.1443
vn -0.0148 -0.8801 -0.4746
vn -0.1022 -0.9117 -0.3979
vn -0.0879 -0.9955 0.0367
vn -0.5101 -0.8233 -0.2487
vn -0.5190 -0.8472 -0.1136
vn -0.5478 -0.8210 -0.1608
vn -0.5911 -0.6957 -0.4081
vn -0.4939 -0.7989 -0.3432
vn -0.5565 -0.8288 0.0587
vn 0.9830 -0.1526 -0.1019
vn 0.9989 -0.0213 -0.0428
vn 0.9364 0.2256 -0.2689
vn 0.8835 0.4258 0.1952
vn 0.8659 0.4504 0.2176
vn 0.8807 0.3202 0.3490
vn 0.9297 -0.3600 -0.0785
vn 0.9508 -0.2905 0.1080
vn 0.8768 -0.2628 -0.4028
vn 0.9811 0.0135 0.1928
vn 0.9304 0.2871 0.2278
vn 0.9452 0.2451 0.2157
vn 0.9878 0.1446 -0.0575
vn 0.9532 -0.2336 0.1919
vn 0.9211 0.1814 -0.3444
vn 0.8861 -0.4576 0.0731
vn 0.8959 -0.4403 0.0590
vn 0.8985 -0.4390 -0.0057
vn -0.7739 -0.5723 -0.2712
vn -0.8301 -0.4519 -0.3268
vn -0.8797 -0.4753 0.0157
vn -0.9777 0.1336 -0.1621
vn -0.9420 -0.3257 -0.0810
vn -0.9151 -0.3930 0.0901
vn -0.9633 -0.2072 -0.1704
vn -0.9168 0.3341 -0.2188
vn -0.9465 0.2891 0.1433
vn -0.8460 0.5252 -0.0917
vn -0.9819 0.0099 0.1889
vn -0.9797 -0.0235 0.1991
vn -0.8974 0.4288 0.1043
vn -0.6338 0.7731 0.0254
vn -0.6882 0.7254 0.0165
vn -0.9765 0.0920 -0.1950
vn -0.9767 -0.1234 0.1754
vn -0.9862 -0.0419 0.1600
vn -0.0204 -0.9835 0.1799
vn -0.7294 -0.5651 0.3855
vn 0.1975 -0.9799 0.0268
vn 0.5193 -0.8459 -0.1212
vn 0.9439 -0.3176 0.0901
vn 0.9984 -0.0509 0.0265
vn 0.9536 0.2990 -0.0341
vn 0.4009 0.9154 0.0354
vn 0.0906 0.9762 0.1973
vn 0.0119 0.9890 0.1474
vn -0.3903 0.9171 0.0811
vn -0.9011 0.3719 -0.2228
vn -0.9225 -0.2400 -0.3022
vn -0.9579 -0.2678 0.1039
vn 0.0083 -0.8264 -0.5630
vn -0.4689 -0.7133 -0.5209
vn -0.4865 -0.7276 -0.4837
vn -0.0829 -0.7969 -0.5984
vn 0.2374 -0.7057 -0.6675
vn 0.2301 -0.8235 -0.5186
vn 0.6657 -0.5224 -0.5329
vn 0.6863 -0.5158 -0.5128
vn 0.4437 0.8034 0.3971
vn 0.6278 0.7209 0.2936
vn 0.2743 0.8130 0.5136
vn 0.1354 0.7848 0.6048
vn -0.0334 0.7936 0.6075
vn 0.0596 0.8265 0.5598
vn -0.2954 0.7728 0.5617
vn -0.3277 0.7562 0.5663
vn -0.8872 0.3798 0.2619
vn -0.8218 0.3892 0.4162
vn -0.9945 0.0603 -0.0856
vn -0.9733 -0.1201 0.1955
vn -0.9125 -0.3117 -0.2648
vn -0.9284 -0.3697 -0.0381
vn 0.9623 0.0087 -0.2718
vn 0.8885 0.4542 0.0659
vn 0.8722 0.4864 -0.0515
vn 0.0169 -0.7910 -0.6116
vn -0.6715 -0.5668 -0.4774
vn -0.5699 -0.7034 -0.4248
vn -0.0414 -0.7581 -0.6508
vn -0.0334 -0.9143 -0.4038
vn -0.7188 -0.6712 -0.1811
vn 0.1122 -0.8729 -0.4749
vn -0.4608 -0.8457 -0.2692
vn 0.1416 -0.7448 -0.6521
vn 0.2302 -0.7105 -0.6649
vn 0.1040 -0.8447 -0.5250
vn 0.1117 -0.8149 -0.5687
vn 0.4830 -0.6878 -0.5418
vn 0.4810 -0.6724 -0.5626
vn 0.5139 -0.7517 -0.4133
vn 0.5998 -0.6266 -0.4976
vn 0.8408 0.1671 0.5149
vn 0.0817 0.7858 0.6131
vn 0.7740 0.5624 0.2908
vn 0.6322 0.6581 0.4090
vn 0.0207 0.8361 0.5481
vn 0.4478 0.8072 0.3846
vn 0.5745 0.7370 0.3560
vn 0.1849 0.8911 0.4144
vn -0.0964 0.7953 0.5985
vn -0.0825 0.7692 0.6336
vn 0.1329 0.8602 0.4923
vn 0.0828 0.8856 0.4569
vn -0.4278 0.7608 0.4880
vn -0.2638 0.8206 0.5070
vn -0.1761 0.8176 0.5482
vn -0.3221 0.7607 0.5636
vn -0.6424 0.7117 0.2845
vn -0.9484 0.2089 0.2386
vn -0.9164 0.0806 0.3921
vn -0.9451 -0.0077 0.3266
vn -0.9661 0.2109 0.1489
vn -0.9338 -0.3545 -0.0479
vn -0.9515 -0.1383 0.2748
vn -0.9063 -0.3994 0.1380
vn -0.8945 -0.4419 -0.0685
vn -0.9676 -0.2053 -0.1469
vn -0.9526 -0.1904 0.2371
vn -0.9332 -0.3367 0.1260
vn 0.9945 0.0473 -0.0931
vn 0.9833 0.1789 0.0340
vn 0.9868 0.0259 -0.1601
vn 0.8393 -0.4669 -0.2786
vn 0.8809 -0.2771 -0.3838
vn 0.8970 0.4358 0.0745
vn 0.9209 0.2838 0.2671
vn 0.9306 0.3637 0.0409
vn 0.9950 -0.0522 -0.0850
vn 0.9588 0.1614 -0.2339
vn 0.9136 0.3956 -0.0939
vn 0.7903 0.5839 0.1859
vn 0.9653 -0.2449 0.0901
vn 0.7548 0.6211 0.2112
vn 0.9177 0.3964 -0.0266
vn 0.5142 -0.7752 -0.3670
vn 0.2254 -0.8705 -0.4376
vn -0.0486 -0.8556 -0.5153
vn -0.7772 -0.5090 -0.3699
vn -0.9903 -0.0431 -0.1325
vn -0.9927 -0.1063 -0.0576
vn -0.9250 0.2472 0.2887
vn -0.3940 0.7789 0.4879
vn -0.0066 0.9016 0.4326
vn 0.1114 0.9152 0.3873
vn 0.4551 0.8370 0.3040
vn 0.9587 0.2137 0.1878
vn 0.9846 -0.1163 0.1306
vn 0.9562 -0.2671 -0.1198
vn 0.0031 -0.9027 -0.4303
vn -0.4732 -0.7802 -0.4092
vn -0.4911 -0.7885 -0.3703
vn -0.0876 -0.8781 -0.4703
vn 0.2339 -0.8014 -0.5504
vn 0.2247 -0.8950 -0.3853
vn 0.6633 -0.6035 -0.4425
vn 0.6839 -0.5941 -0.4235
vn 0.4495 0.8506 0.2728
vn 0.6333 0.7516 0.1844
vn 0.2796 0.8794 0.3854
vn 0.1400 0.8666 0.4789
vn -0.0288 0.8773 0.4791
vn 0.0648 0.9017 0.4276
vn -0.2908 0.8521 0.4352
vn -0.3232 0.8367 0.4421
vn -0.8848 0.4232 0.1949
vn -0.8201 0.4555 0.3464
vn -0.9934 0.0554 -0.1005
vn -0.9755 -0.0801 0.2050
vn -0.9142 -0.3403 -0.2202
vn -0.9318 -0.3629 0.0125
vn 0.9638 -0.0414 -0.2635
vn 0.8925 0.4510 0.0018
vn 0.8772 0.4651 -0.1192
vn 0.0124 -0.8752 -0.4837
vn -0.6745 -0.6270 -0.3898
vn -0.5654 -0.7737 -0.2859
vn -0.0613 -0.8774 -0.4759
vn -0.0403 -0.9648 -0.2598
vn -0.7244 -0.6845 -0.0814
vn 0.1061 -0.9361 -0.3354
vn -0.4676 -0.8727 -0.1401
vn 0.1607 -0.8799 -0.4472
vn 0.2267 -0.8057 -0.5472
vn 0.0984 -0.9158 -0.3893
vn 0.1066 -0.8932 -0.4369
vn 0.4791 -0.7667 -0.4273
vn 0.5062 -0.7616 -0.4046
vn 0.5086 -0.8106 -0.2903
vn 0.5962 -0.7006 -0.3922
vn 0.8640 0.2405 0.4423
vn 0.1084 0.8428 0.5271
vn 0.7780 0.5932 0.2068
vn 0.6365 0.7071 0.3081
vn 0.0260 0.9098 0.4143
vn 0.4537 0.8524 0.2599
vn 0.5799 0.7776 0.2432
vn 0.1915 0.9422 0.2748
vn -0.0887 0.8498 0.5196
vn -0.0783 0.8576 0.5083
vn 0.1387 0.9241 0.3562
vn 0.0891 0.9442 0.3170
vn -0.3881 0.8068 0.4455
vn -0.2583 0.8907 0.3741
vn -0.1710 0.8932 0.4159
vn -0.3176 0.8406 0.4388
vn -0.6522 0.7229 0.2280
vn -0.9475 0.2513 0.1976
vn -0.9176 0.1477 0.3691
vn -0.9469 0.0507 0.3176
vn -0.9714 0.2242 0.0788
vn -0.9370 -0.3493 0.0005
vn -0.9542 -0.0863 0.2863
vn -0.9109 -0.3656 0.1913
vn -0.9120 -0.4102 -0.0068
vn -0.9688 -0.2166 -0.1203
vn -0.9557 -0.1435 0.2570
vn -0.9371 -0.3052 0.1696
vn 0.9954 0.0236 -0.0926
vn 0.9858 0.1679 -0.0023
vn 0.9878 -0.0077 -0.1555
vn 0.8361 -0.5115 -0.1984
vn 0.8801 -0.3403 -0.3311
vn 0.9008 0.4340 0.0132
vn 0.9193 0.3376 0.2021
vn 0.9339 0.3574 -0.0088
vn 0.9949 -0.0735 -0.0693
vn 0.9615 0.1152 -0.2493
vn 0.9179 0.3685 -0.1471
vn 0.7950 0.5983 0.0999
vn 0.9688 -0.2329 0.0844
vn 0.7597 0.6393 0.1190
vn 0.9217 0.3795 -0.0806
vn 0.5179 -0.8372 -0.1756
vn 0.1981 -0.9652 -0.1709
vn -0.0025 -0.9959 -0.0903
vn -0.7801 -0.6241 0.0435
vn -0.9865 -0.1425 0.0807
vn -0.9854 -0.1689 0.0209
vn -0.8814 0.2874 0.3749
vn -0.4254 0.8183 0.3866
vn -0.0032 0.9605 0.2781
vn 0.1126 0.9687 0.2213
vn 0.4776 0.8614 0.1729
vn 0.9544 0.2532 0.1582
vn 0.9986 -0.0440 0.0283
vn 0.9310 -0.3519 -0.0972
vn -0.2039 0.9667 0.1545
vn 0.0428 0.9126 0.4067
vn 0.0210 0.9867 0.1609
vn -0.1480 0.9035 0.4023
vn 0.1091 -0.9899 -0.0903
vn 0.0611 -0.9958 -0.0675
vn -0.0055 -0.9987 0.0503
vn 0.0559 -0.9984 -0.0105
vn -0.9579 -0.2719 0.0928
vn -0.8634 -0.3887 0.3217
vn -0.9360 0.0619 0.3466
vn -0.9691 0.2196 0.1126
vn 0.9510 -0.2251 0.2120
vn 0.9095 -0.1521 -0.3870
vn 0.9388 0.0276 -0.3433
vn 0.9454 -0.0745 0.3172
vn -0.0367 0.9590 0.2809
vn 0.0150 0.9896 0.1432
vn 0.0853 0.9694 0.2300
vn -0.1532 0.9774 0.1460
vn -0.0099 0.5602 0.8283
vn 0.0529 0.6344 0.7712
vn 0.0943 -0.9544 -0.2831
vn 0.1197 -0.9903 -0.0703
vn -0.2317 -0.9712 -0.0555
vn -0.1550 -0.9543 -0.2554
vn -0.0861 -0.9475 0.3079
vn 0.1808 -0.9265 0.3301
vn -0.9382 -0.1651 0.3040
vn -0.9202 -0.3030 0.2480
vn -0.9166 0.3159 0.2451
vn -0.8296 0.4094 0.3796
vn -0.4974 -0.4147 0.7620
vn -0.5427 -0.3599 0.7589
vn -0.9048 -0.1091 0.4115
vn 0.6194 0.0470 0.7837
vn 0.7168 -0.1183 0.6872
vn 0.9332 -0.3476 -0.0913
vn 0.9950 0.0666 0.0739
vn 0.9865 -0.0403 -0.1584
vn 0.9810 0.0472 -0.1881
vn 0.9020 -0.3482 -0.2552
vn -0.5651 -0.7601 0.3209
vn -0.9910 -0.0623 0.1186
vn -0.7174 -0.6882 -0.1081
vn -0.5878 0.7906 0.1713
vn -0.5754 0.7509 0.3241
vn 0.2487 -0.9643 0.0914
vn 0.4121 -0.9104 -0.0365
vn 0.7778 -0.6228 0.0846
vn 0.6532 0.7466 -0.1259
vn 0.6492 0.6068 0.4586
vn -0.4753 -0.8596 0.1876
vn -0.6580 -0.7520 -0.0390
vn -0.9386 -0.3099 0.1517
vn -0.8278 -0.4662 0.3123
vn -0.5743 0.7171 0.3949
vn -0.5141 0.8229 0.2420
vn -0.3100 0.3724 0.8748
vn -0.5687 -0.2413 0.7864
vn -0.3799 -0.6961 0.6092
vn 0.6152 -0.5846 0.5289
vn 0.3021 -0.9032 0.3048
vn 0.3030 0.4773 0.8249
vn 0.4856 0.8632 -0.1380
vn 0.9155 0.0736 -0.3956
vn 0.5142 0.8455 0.1440
vn 0.9534 0.2800 0.1127
vn 0.5838 -0.7478 -0.3161
vn 0.6494 -0.7340 -0.1991
vn 0.1944 0.1019 0.9756
vn 0.2626 -0.1326 0.9557
vn 0.2728 -0.5835 0.7649
vn -0.0891 0.0562 0.9944
vn -0.0827 -0.2441 0.9662
vn -0.0214 -0.5310 0.8471
vt 0.459429 0.107196
vt 0.366370 0.123364
vt 0.358679 0.078590
vt 0.451029 0.062707
vt 0.383967 0.206273
vt 0.472285 0.191812
vt 0.388190 0.267863
vt 0.484471 0.253145
vt 0.411009 0.656650
vt 0.499951 0.722161
vt 0.408831 0.716589
vt 0.501820 0.660594
vt 0.413896 0.586178
vt 0.503481 0.586703
vt 0.414012 0.538319
vt 0.502913 0.534236
vt 0.409554 0.922261
vt 0.505859 0.920164
vt 0.511349 0.977706
vt 0.408353 0.980000
vt 0.407548 0.849756
vt 0.500809 0.849737
vt 0.407385 0.777450
vt 0.498506 0.779791
vt 0.405564 0.489906
vt 0.499367 0.482361
vt 0.400126 0.420233
vt 0.495876 0.411028
vt 0.399457 0.346108
vt 0.493052 0.339038
vt 0.493255 0.289290
vt 0.390318 0.303774
vt 0.088199 0.177515
vt 0.079728 0.123316
vt 0.176622 0.125826
vt 0.182075 0.164109
vt 0.275759 0.147113
vt 0.267980 0.100509
vt 0.553791 0.104221
vt 0.545811 0.040859
vt 0.640130 0.039716
vt 0.648549 0.094122
vt 0.098770 0.233201
vt 0.189931 0.218420
vt 0.284032 0.210470
vt 0.563800 0.167332
vt 0.657016 0.148446
vt 0.106373 0.289463
vt 0.199110 0.275244
vt 0.290637 0.260664
vt 0.575005 0.230322
vt 0.665409 0.202671
vt 0.687222 0.720998
vt 0.682666 0.652254
vt 0.784784 0.715702
vt 0.785038 0.660963
vt 0.591525 0.725098
vt 0.592405 0.653631
vt 0.222046 0.709977
vt 0.215541 0.641264
vt 0.305381 0.641817
vt 0.317716 0.711935
vt 0.683831 0.599628
vt 0.786016 0.594615
vt 0.593422 0.597758
vt 0.211212 0.579434
vt 0.305904 0.575124
vt 0.690041 0.530903
vt 0.786535 0.537623
vt 0.593874 0.527221
vt 0.209408 0.526463
vt 0.307798 0.519326
vt 0.702688 0.882355
vt 0.797093 0.866372
vt 0.803521 0.919864
vt 0.709706 0.935398
vt 0.605535 0.903308
vt 0.613333 0.953660
vt 0.311265 0.910608
vt 0.308768 0.972268
vt 0.211970 0.948960
vt 0.216243 0.895784
vt 0.699995 0.825182
vt 0.791804 0.809705
vt 0.606790 0.839943
vt 0.314799 0.844195
vt 0.218488 0.865677
vt 0.696289 0.773303
vt 0.787104 0.751953
vt 0.602920 0.781263
vt 0.315761 0.783758
vt 0.223004 0.779578
vt 0.220732 0.835571
vt 0.784324 0.485995
vt 0.688821 0.464028
vt 0.596326 0.460068
vt 0.307260 0.491583
vt 0.780811 0.422350
vt 0.688695 0.410841
vt 0.594481 0.405077
vt 0.209459 0.500162
vt 0.209189 0.449141
vt 0.304460 0.435582
vt 0.785247 0.370025
vt 0.691236 0.346099
vt 0.591509 0.339224
vt 0.207463 0.392579
vt 0.300862 0.372096
vt 0.793300 0.308702
vt 0.693555 0.304494
vt 0.594287 0.291016
vt 0.206655 0.338021
vt 0.295205 0.314653
vt 0.852539 0.601263
vt 0.853710 0.535408
vt 0.847569 0.658337
vt 0.846117 0.710674
vt 0.851184 0.751639
vt 0.852758 0.805086
vt 0.857911 0.858482
vt 0.865500 0.906354
vt 0.037266 0.242511
vt 0.043841 0.281582
vt 0.028338 0.188074
vt 0.020000 0.140041
vt 0.855265 0.320735
vt 0.848184 0.373049
vt 0.845180 0.427858
vt 0.844424 0.482282
vt 0.735836 0.045977
vt 0.740708 0.078684
vt 0.765524 0.131836
vt 0.757288 0.184756
vt 0.129470 0.715391
vt 0.120940 0.662178
vt 0.108252 0.606188
vt 0.104763 0.551295
vt 0.118452 0.935135
vt 0.123587 0.879635
vt 0.127574 0.827852
vt 0.129834 0.774793
vt 0.110070 0.499599
vt 0.114838 0.440936
vt 0.114118 0.389634
vt 0.112729 0.347470
vt 0.049284 0.767957
vt 0.043415 0.823209
vt 0.043221 0.878789
vt 0.029925 0.446371
vt 0.024604 0.393364
vt 0.031457 0.493972
vt 0.033045 0.343167
vt 0.025520 0.549428
vt 0.818950 0.068227
vt 0.811989 0.020000
vt 0.030524 0.617574
vt 0.827034 0.122689
vt 0.041477 0.674471
vt 0.834452 0.163728
vt 0.048930 0.723897
vt 0.038792 0.929155
vt 0.393259 0.285088
vt 0.452000 0.279731
vt 0.466377 0.371665
vt 0.403111 0.370434
vt 0.323636 0.377228
vt 0.317012 0.293170
vt 0.267867 0.398883
vt 0.261283 0.309978
vt 0.935712 0.605488
vt 0.940193 0.690236
vt 0.904481 0.703105
vt 0.908812 0.607223
vt 0.841925 0.700543
vt 0.844513 0.604028
vt 0.751383 0.688424
vt 0.755857 0.600739
vt 0.729036 0.444099
vt 0.683074 0.430905
vt 0.728115 0.349497
vt 0.681023 0.339607
vt 0.626804 0.410348
vt 0.622601 0.323522
vt 0.569013 0.392124
vt 0.565014 0.308283
vt 0.211269 0.331576
vt 0.104125 0.472066
vt 0.061429 0.399478
vt 0.095598 0.383220
vt 0.070120 0.486982
vt 0.409836 0.455134
vt 0.480471 0.458982
vt 0.493929 0.554921
vt 0.419193 0.544815
vt 0.388999 0.120316
vt 0.460684 0.119743
vt 0.390058 0.200166
vt 0.445409 0.198319
vt 0.348507 0.566617
vt 0.334252 0.480244
vt 0.324703 0.162412
vt 0.319972 0.212806
vt 0.270693 0.494733
vt 0.289160 0.571767
vt 0.260594 0.137149
vt 0.262870 0.219683
vt 0.974227 0.888836
vt 0.903999 0.896844
vt 0.941923 0.770806
vt 0.906116 0.791945
vt 0.913258 0.520273
vt 0.968982 0.431362
vt 0.980000 0.531747
vt 0.920351 0.430664
vt 0.835330 0.877710
vt 0.835539 0.828574
vt 0.848809 0.516336
vt 0.850904 0.433414
vt 0.785837 0.866742
vt 0.758993 0.774413
vt 0.782041 0.518914
vt 0.786834 0.431680
vt 0.731550 0.635712
vt 0.684336 0.615918
vt 0.725098 0.536535
vt 0.679445 0.519631
vt 0.670805 0.250824
vt 0.656442 0.162386
vt 0.729202 0.167239
vt 0.750505 0.258022
vt 0.621532 0.592499
vt 0.617747 0.504436
vt 0.610930 0.231649
vt 0.591950 0.145402
vt 0.565235 0.574388
vt 0.557440 0.484614
vt 0.553215 0.224813
vt 0.527406 0.129775
vt 0.231919 0.509173
vt 0.237843 0.598701
vt 0.219887 0.420977
vt 0.211069 0.153433
vt 0.207624 0.242771
vt 0.163874 0.536985
vt 0.174112 0.623610
vt 0.160536 0.447324
vt 0.149812 0.176575
vt 0.150417 0.264650
vt 0.153006 0.358538
vt 0.106852 0.563826
vt 0.120042 0.652075
vt 0.088196 0.199151
vt 0.092156 0.288865
vt 0.071729 0.691552
vt 0.082802 0.571160
vt 0.035544 0.313608
vt 0.049840 0.211934
vt 0.241979 0.046509
vt 0.304565 0.030982
vt 0.374430 0.020244
vt 0.458282 0.024269
vt 0.529988 0.036897
vt 0.596474 0.051462
vt 0.659302 0.065447
vt 0.721011 0.069317
vt 0.805121 0.337300
vt 0.861823 0.340211
vt 0.925030 0.338803
vt 0.973398 0.339027
vt 0.020000 0.124061
vt 0.074581 0.105550
vt 0.132319 0.083530
vt 0.191802 0.061538
vt 0.502973 0.648873
vt 0.419939 0.643896
vt 0.349923 0.657486
vt 0.288888 0.676656
vt 0.240629 0.696483
vt 0.184047 0.724704
vt 0.131598 0.758195
vt 0.085452 0.777794
vt 0.903954 0.978315
vt 0.952837 0.980000
vt 0.840857 0.973669
vt 0.784568 0.968856
vt 0.744937 0.736960
vt 0.689186 0.714159
vt 0.632241 0.694790
vt 0.564414 0.678893
vt 0.200935 0.216878
vt 0.326425 0.176139
vt 0.277758 0.261524
vt 0.249344 0.134877
vt 0.657960 0.704147
vt 0.596287 0.726913
vt 0.628184 0.618107
vt 0.565879 0.638719
vt 0.422200 0.763515
vt 0.501001 0.833996
vt 0.465427 0.895154
vt 0.379058 0.822845
vt 0.810149 0.719291
vt 0.828476 0.619138
vt 0.897625 0.640200
vt 0.870827 0.746527
vt 0.112068 0.392690
vt 0.227985 0.346009
vt 0.179351 0.430894
vt 0.160303 0.307038
vt 0.306774 0.070874
vt 0.359613 0.100810
vt 0.575019 0.421301
vt 0.595117 0.516738
vt 0.523472 0.542571
vt 0.486109 0.452971
vt 0.617234 0.766905
vt 0.665810 0.767419
vt 0.293319 0.599431
vt 0.359825 0.681974
vt 0.306318 0.739254
vt 0.238151 0.657878
vt 0.584263 0.830318
vt 0.575485 0.873508
vt 0.531037 0.778253
vt 0.803724 0.829451
vt 0.774246 0.794120
vt 0.735140 0.404946
vt 0.818549 0.407431
vt 0.750408 0.503963
vt 0.826010 0.508885
vt 0.761249 0.603459
vt 0.551720 0.736562
vt 0.463143 0.707863
vt 0.506618 0.663413
vt 0.342593 0.869152
vt 0.445786 0.945931
vt 0.695253 0.694532
vt 0.691092 0.593754
vt 0.751947 0.694204
vt 0.969548 0.655283
vt 0.934002 0.778787
vt 0.411027 0.493817
vt 0.466736 0.580054
vt 0.414539 0.622871
vt 0.355296 0.540417
vt 0.181144 0.709543
vt 0.266925 0.780602
vt 0.556814 0.973161
vt 0.558134 0.921438
vt 0.581979 0.784134
vt 0.739850 0.767310
vt 0.697019 0.770236
vt 0.830025 0.881314
vt 0.980000 0.526659
vt 0.902464 0.521800
vt 0.966310 0.418565
vt 0.898726 0.415130
vt 0.660214 0.410329
vt 0.674564 0.506449
vt 0.150663 0.187924
vt 0.204670 0.101694
vt 0.434224 0.236358
vt 0.385274 0.322704
vt 0.044674 0.356923
vt 0.104768 0.275075
vt 0.235803 0.463537
vt 0.295113 0.384054
vt 0.411116 0.129320
vt 0.255053 0.045418
vt 0.368197 0.412960
vt 0.465245 0.361415
vt 0.561692 0.335718
vt 0.653272 0.324624
vt 0.729164 0.317820
vt 0.817134 0.320403
vt 0.898196 0.325528
vt 0.969635 0.330346
vt 0.145751 0.509333
vt 0.195723 0.537867
vt 0.079318 0.471793
vt 0.020000 0.439949
vt 0.123766 0.639555
vt 0.179558 0.590345
vt 0.207412 0.561165
vt 0.235266 0.531985
vt 0.299492 0.472052
vt 0.728699 0.891710
vt 0.758715 0.948624
vt 0.714292 0.849195
vt 0.700379 0.808070
vt 0.664402 0.917072
vt 0.659354 0.980000
vt 0.665401 0.870024
vt 0.668020 0.824779
s 1
usemtl Cave_Material.020
f 1/1/1 2/2/2 27/3/3
f 27/3/3 28/4/4 1/1/1
f 3/5/5 2/2/2 4/6/6
f 2/2/2 1/1/1 4/6/6
f 15/7/7 3/5/5 5/8/8
f 3/5/5 4/6/6 5/8/8
f 6/9/9 8/10/10 7/11/11
f 6/9/9 9/12/12 8/10/10
f 10/13/13 9/12/12 6/9/9
f 10/13/13 11/14/14 9/12/12
f 12/15/15 11/14/14 10/13/13
f 12/15/15 13/16/16 11/14/14
f 14/17/17 16/18/18 15/19/7
f 15/19/7 5/20/8 14/17/17
f 17/21/19 18/22/20 16/18/18
f 16/18/18 14/17/17 17/21/19
f 19/23/21 20/24/22 18/22/20
f 18/22/20 17/21/19 19/23/21
f 7/11/11 8/10/10 20/24/22
f 20/24/22 19/23/21 7/11/11
f 12/15/15 21/25/23 13/16/16
f 13/16/16 21/25/23 22/26/24
f 21/25/23 23/27/25 22/26/24
f 22/26/24 23/27/25 24/28/26
f 23/27/25 25/29/27 24/28/26
f 24/28/26 25/29/27 26/30/28
f 27/31/3 26/30/28 28/32/4
f 26/30/28 25/29/27 28/32/4
f 29/33/29 30/34/30 87/35/31
f 87/35/31 31/36/32 29/33/29
f 31/36/32 87/35/31 32/37/33
f 87/35/31 88/38/34 32/37/33
f 32/37/33 88/38/34 2/2/2
f 88/38/34 27/3/3 2/2/2
f 34/39/35 89/40/36 33/41/37
f 33/41/37 321/42/38 34/39/35
f 1/1/1 28/4/4 34/39/35
f 34/39/35 28/4/4 89/40/36
f 35/43/39 29/33/29 36/44/40
f 29/33/29 31/36/32 36/44/40
f 36/44/40 31/36/32 37/45/41
f 31/36/32 32/37/33 37/45/41
f 37/45/41 32/37/33 2/2/2
f 2/2/2 3/5/5 37/45/41
f 38/46/42 34/39/35 321/42/38
f 321/42/38 320/47/43 38/46/42
f 1/1/1 38/46/42 4/6/6
f 1/1/1 34/39/35 38/46/42
f 39/48/44 35/43/39 59/49/45
f 35/43/39 36/44/40 59/49/45
f 59/49/45 36/44/40 37/45/41
f 37/45/41 61/50/46 59/49/45
f 61/50/46 37/45/41 3/5/5
f 3/5/5 15/7/7 61/50/46
f 64/51/47 38/46/42 319/52/48
f 38/46/42 320/47/43 319/52/48
f 4/6/6 64/51/47 5/8/8
f 4/6/6 38/46/42 64/51/47
f 40/53/49 42/54/50 41/55/51
f 42/54/50 43/56/52 41/55/51
f 44/57/53 45/58/54 40/53/49
f 45/58/54 42/54/50 40/53/49
f 9/12/12 44/57/53 8/10/10
f 9/12/12 45/58/54 44/57/53
f 46/59/55 316/60/56 47/61/57
f 47/61/57 48/62/58 46/59/55
f 48/62/58 47/61/57 6/9/9
f 6/9/9 7/11/11 48/62/58
f 49/63/59 43/56/52 42/54/50
f 49/63/59 50/64/60 43/56/52
f 45/58/54 51/65/61 49/63/59
f 49/63/59 42/54/50 45/58/54
f 11/14/14 45/58/54 9/12/12
f 11/14/14 51/65/61 45/58/54
f 316/60/56 315/66/62 47/61/57
f 315/66/62 52/67/63 47/61/57
f 47/61/57 52/67/63 10/13/13
f 10/13/13 6/9/9 47/61/57
f 49/63/59 54/68/64 53/69/65
f 53/69/65 50/64/60 49/63/59
f 51/65/61 55/70/66 54/68/64
f 54/68/64 49/63/59 51/65/61
f 11/14/14 13/16/16 55/70/66
f 55/70/66 51/65/61 11/14/14
f 315/66/62 76/71/67 52/67/63
f 76/71/67 56/72/68 52/67/63
f 52/67/63 56/72/68 10/13/13
f 56/72/68 12/15/15 10/13/13
f 57/73/69 58/74/70 39/75/44
f 39/75/44 59/76/45 57/73/69
f 60/77/71 57/73/69 59/76/45
f 59/76/45 61/78/46 60/77/71
f 16/18/18 60/77/71 61/78/46
f 61/78/46 15/19/7 16/18/18
f 63/79/72 64/80/47 319/81/48
f 319/81/48 62/82/73 63/79/72
f 14/17/17 5/20/8 64/80/47
f 64/80/47 63/79/72 14/17/17
f 65/83/74 66/84/75 58/74/70
f 58/74/70 57/73/69 65/83/74
f 67/85/76 65/83/74 57/73/69
f 57/73/69 60/77/71 67/85/76
f 18/22/20 67/85/76 60/77/71
f 60/77/71 16/18/18 18/22/20
f 68/86/77 63/79/72 62/82/73
f 62/82/73 230/87/78 68/86/77
f 17/21/19 14/17/17 63/79/72
f 63/79/72 68/86/77 17/21/19
f 69/88/79 70/89/80 66/84/75
f 66/84/75 65/83/74 69/88/79
f 69/88/79 65/83/74 67/85/76
f 67/85/76 71/90/81 69/88/79
f 71/90/81 67/85/76 18/22/20
f 18/22/20 20/24/22 71/90/81
f 72/91/82 68/86/77 317/92/83
f 317/92/83 68/86/77 318/93/84
f 19/23/21 17/21/19 72/91/82
f 72/91/82 17/21/19 68/86/77
f 41/55/51 70/89/80 69/88/79
f 69/88/79 40/53/49 41/55/51
f 40/53/49 69/88/79 71/90/81
f 71/90/81 44/57/53 40/53/49
f 44/57/53 71/90/81 20/24/22
f 20/24/22 8/10/10 44/57/53
f 317/92/83 46/59/55 72/91/82
f 48/62/58 72/91/82 46/59/55
f 72/91/82 48/62/58 19/23/21
f 7/11/11 19/23/21 48/62/58
f 73/94/85 53/69/65 74/95/86
f 54/68/64 74/95/86 53/69/65
f 74/95/86 54/68/64 75/96/87
f 55/70/66 75/96/87 54/68/64
f 75/96/87 55/70/66 22/26/24
f 13/16/16 22/26/24 55/70/66
f 77/97/88 56/72/68 76/71/67
f 56/72/68 77/97/88 21/25/23
f 21/25/23 12/15/15 56/72/68
f 78/98/89 73/94/85 79/99/90
f 74/95/86 79/99/90 73/94/85
f 75/96/87 80/100/91 74/95/86
f 74/95/86 80/100/91 79/99/90
f 22/26/24 24/28/26 75/96/87
f 75/96/87 24/28/26 80/100/91
f 76/101/67 81/102/92 82/103/93
f 82/103/93 77/97/88 76/101/67
f 77/97/88 82/103/93 23/27/25
f 23/27/25 21/25/23 77/97/88
f 83/104/94 78/98/89 84/105/95
f 79/99/90 84/105/95 78/98/89
f 80/100/91 85/106/96 84/105/95
f 84/105/95 79/99/90 80/100/91
f 24/28/26 26/30/28 85/106/96
f 85/106/96 80/100/91 24/28/26
f 82/103/93 81/102/92 322/107/97
f 322/107/97 86/108/98 82/103/93
f 23/27/25 82/103/93 86/108/98
f 86/108/98 25/29/27 23/27/25
f 30/109/30 83/104/94 87/110/31
f 84/105/95 87/110/31 83/104/94
f 87/110/31 84/105/95 85/106/96
f 85/106/96 88/111/34 87/110/31
f 88/111/34 85/106/96 27/31/3
f 85/106/96 26/30/28 27/31/3
f 86/108/98 322/107/97 33/112/37
f 33/112/37 89/113/36 86/108/98
f 86/108/98 89/113/36 28/32/4
f 28/32/4 25/29/27 86/108/98
f 53/69/65 90/114/99 50/64/60
f 90/114/99 53/69/65 211/115/100
f 50/64/60 213/116/101 43/56/52
f 50/64/60 90/114/99 213/116/101
f 41/55/51 43/56/52 213/116/101
f 213/116/101 215/117/102 41/55/51
f 41/55/51 215/117/102 91/118/103
f 91/118/103 70/89/80 41/55/51
f 70/89/80 91/118/103 66/84/75
f 91/118/103 92/119/104 66/84/75
f 66/84/75 92/119/104 58/74/70
f 92/119/104 93/120/105 58/74/70
f 58/74/70 93/120/105 214/121/106
f 214/121/106 39/75/44 58/74/70
f 94/122/107 35/43/39 214/123/106
f 214/123/106 35/43/39 39/48/44
f 212/124/108 29/33/29 94/122/107
f 94/122/107 29/33/29 35/43/39
f 212/124/108 210/125/109 29/33/29
f 210/125/109 30/34/30 29/33/29
f 83/104/94 210/126/109 208/127/110
f 83/104/94 30/109/30 210/126/109
f 78/98/89 208/127/110 95/128/111
f 78/98/89 83/104/94 208/127/110
f 73/94/85 95/128/111 209/129/112
f 73/94/85 78/98/89 95/128/111
f 53/69/65 209/129/112 211/115/100
f 53/69/65 73/94/85 209/129/112
f 96/1/113 98/2/114 97/3/115
f 97/3/115 99/4/116 96/1/113
f 100/5/117 98/2/114 101/6/118
f 98/2/114 96/1/113 101/6/118
f 102/7/119 100/5/117 113/8/120
f 100/5/117 101/6/118 113/8/120
f 103/9/121 105/10/122 104/11/123
f 103/9/121 106/12/124 105/10/122
f 107/13/125 106/12/124 103/9/121
f 107/13/125 108/14/126 106/12/124
f 109/15/127 108/14/126 107/13/125
f 109/15/127 110/16/128 108/14/126
f 111/17/129 112/18/130 102/19/119
f 102/19/119 113/20/120 111/17/129
f 114/21/131 115/22/132 112/18/130
f 112/18/130 111/17/129 114/21/131
f 116/23/133 117/24/134 115/22/132
f 115/22/132 114/21/131 116/23/133
f 104/11/123 105/10/122 117/24/134
f 117/24/134 116/23/133 104/11/123
f 109/15/127 118/25/135 110/16/128
f 110/16/128 118/25/135 119/26/136
f 118/25/135 120/27/137 119/26/136
f 119/26/136 120/27/137 121/28/138
f 120/27/137 122/29/139 121/28/138
f 121/28/138 122/29/139 123/30/140
f 97/31/115 123/30/140 99/32/116
f 123/30/140 122/29/139 99/32/116
f 124/33/141 125/34/142 205/35/143
f 205/35/143 126/36/144 124/33/141
f 126/36/144 205/35/143 127/37/145
f 205/35/143 128/38/146 127/37/145
f 127/37/145 128/38/146 98/2/114
f 128/38/146 97/3/115 98/2/114
f 129/42/147 130/41/148 206/130/149
f 206/130/149 131/131/150 129/42/147
f 132/39/151 207/40/152 130/41/148
f 130/41/148 129/42/147 132/39/151
f 96/1/113 99/4/116 132/39/151
f 132/39/151 99/4/116 207/40/152
f 133/43/153 124/33/141 134/44/154
f 124/33/141 126/36/144 134/44/154
f 134/44/154 126/36/144 135/45/155
f 126/36/144 127/37/145 135/45/155
f 135/45/155 127/37/145 98/2/114
f 98/2/114 100/5/117 135/45/155
f 136/47/156 129/42/147 131/131/150
f 131/131/150 137/132/157 136/47/156
f 138/46/158 132/39/151 129/42/147
f 129/42/147 136/47/156 138/46/158
f 96/1/113 138/46/158 101/6/118
f 96/1/113 132/39/151 138/46/158
f 139/48/159 133/43/153 166/49/160
f 133/43/153 134/44/154 166/49/160
f 166/49/160 134/44/154 135/45/155
f 135/45/155 168/50/161 166/49/160
f 168/50/161 135/45/155 100/5/117
f 100/5/117 102/7/119 168/50/161
f 172/52/162 136/47/156 169/133/163
f 136/47/156 137/132/157 169/133/163
f 174/51/164 138/46/158 172/52/162
f 138/46/158 136/47/156 172/52/162
f 101/6/118 174/51/164 113/8/120
f 101/6/118 138/46/158 174/51/164
f 140/53/165 142/54/166 141/55/167
f 142/54/166 143/56/168 141/55/167
f 144/57/169 145/58/170 140/53/165
f 145/58/170 142/54/166 140/53/165
f 106/12/124 144/57/169 105/10/122
f 106/12/124 145/58/170 144/57/169
f 146/134/171 148/135/172 147/59/173
f 148/135/172 149/60/174 147/59/173
f 147/59/173 149/60/174 150/61/175
f 150/61/175 151/62/176 147/59/173
f 151/62/176 150/61/175 103/9/121
f 103/9/121 104/11/123 151/62/176
f 152/63/177 143/56/168 142/54/166
f 152/63/177 153/64/178 143/56/168
f 145/58/170 154/65/179 152/63/177
f 152/63/177 142/54/166 145/58/170
f 108/14/126 145/58/170 106/12/124
f 108/14/126 154/65/179 145/58/170
f 148/135/172 155/136/180 149/60/174
f 155/136/180 156/66/181 149/60/174
f 149/60/174 156/66/181 150/61/175
f 156/66/181 157/67/182 150/61/175
f 150/61/175 157/67/182 107/13/125
f 107/13/125 103/9/121 150/61/175
f 152/63/177 159/68/183 158/69/184
f 158/69/184 153/64/178 152/63/177
f 154/65/179 160/70/185 159/68/183
f 159/68/183 152/63/177 154/65/179
f 108/14/126 110/16/128 160/70/185
f 160/70/185 154/65/179 108/14/126
f 155/136/180 162/137/186 161/71/187
f 161/71/187 156/66/181 155/136/180
f 156/66/181 161/71/187 157/67/182
f 161/71/187 163/72/188 157/67/182
f 157/67/182 163/72/188 107/13/125
f 163/72/188 109/15/127 107/13/125
f 164/73/189 165/74/190 139/75/159
f 139/75/159 166/76/160 164/73/189
f 167/77/191 164/73/189 166/76/160
f 166/76/160 168/78/161 167/77/191
f 112/18/130 167/77/191 168/78/161
f 168/78/161 102/19/119 112/18/130
f 169/138/163 171/139/192 170/82/193
f 170/82/193 172/81/162 169/138/163
f 173/79/194 174/80/164 172/81/162
f 172/81/162 170/82/193 173/79/194
f 111/17/129 113/20/120 174/80/164
f 174/80/164 173/79/194 111/17/129
f 175/83/195 176/84/196 165/74/190
f 165/74/190 164/73/189 175/83/195
f 177/85/197 175/83/195 164/73/189
f 164/73/189 167/77/191 177/85/197
f 115/22/132 177/85/197 167/77/191
f 167/77/191 112/18/130 115/22/132
f 171/139/192 178/140/198 170/82/193
f 179/93/199 170/82/193 178/140/198
f 180/86/200 173/79/194 170/82/193
f 170/82/193 179/93/199 180/86/200
f 114/21/131 111/17/129 173/79/194
f 173/79/194 180/86/200 114/21/131
f 181/88/201 182/89/202 176/84/196
f 176/84/196 175/83/195 181/88/201
f 181/88/201 175/83/195 177/85/197
f 177/85/197 183/90/203 181/88/201
f 183/90/203 177/85/197 115/22/132
f 115/22/132 117/24/134 183/90/203
f 178/140/198 184/141/204 179/93/199
f 185/92/205 179/93/199 184/141/204
f 186/91/206 180/86/200 185/92/205
f 185/92/205 180/86/200 179/93/199
f 116/23/133 114/21/131 186/91/206
f 186/91/206 114/21/131 180/86/200
f 141/55/167 182/89/202 181/88/201
f 181/88/201 140/53/165 141/55/167
f 140/53/165 181/88/201 183/90/203
f 183/90/203 144/57/169 140/53/165
f 144/57/169 183/90/203 117/24/134
f 117/24/134 105/10/122 144/57/169
f 184/141/204 146/134/171 185/92/205
f 147/59/173 185/92/205 146/134/171
f 185/92/205 147/59/173 186/91/206
f 151/62/176 186/91/206 147/59/173
f 186/91/206 151/62/176 116/23/133
f 104/11/123 116/23/133 151/62/176
f 187/94/207 158/69/184 188/95/208
f 159/68/183 188/95/208 158/69/184
f 188/95/208 159/68/183 189/96/209
f 160/70/185 189/96/209 159/68/183
f 189/96/209 160/70/185 119/26/136
f 110/16/128 119/26/136 160/70/185
f 161/71/187 162/137/186 190/142/210
f 190/142/210 191/101/211 161/71/187
f 161/71/187 191/101/211 192/97/212
f 192/97/212 163/72/188 161/71/187
f 163/72/188 192/97/212 118/25/135
f 118/25/135 109/15/127 163/72/188
f 193/98/213 187/94/207 194/99/214
f 188/95/208 194/99/214 187/94/207
f 189/96/209 195/100/215 188/95/208
f 188/95/208 195/100/215 194/99/214
f 119/26/136 121/28/138 189/96/209
f 189/96/209 121/28/138 195/100/215
f 191/101/211 190/142/210 196/143/216
f 196/143/216 197/102/217 191/101/211
f 191/101/211 197/102/217 198/103/218
f 198/103/218 192/97/212 191/101/211
f 192/97/212 198/103/218 120/27/137
f 120/27/137 118/25/135 192/97/212
f 199/104/219 193/98/213 200/105/220
f 194/99/214 200/105/220 193/98/213
f 195/100/215 201/106/221 200/105/220
f 200/105/220 194/99/214 195/100/215
f 121/28/138 123/30/140 201/106/221
f 201/106/221 195/100/215 121/28/138
f 197/102/217 196/143/216 202/144/222
f 202/144/222 203/107/223 197/102/217
f 198/103/218 197/102/217 203/107/223
f 203/107/223 204/108/224 198/103/218
f 120/27/137 198/103/218 204/108/224
f 204/108/224 122/29/139 120/27/137
f 125/109/142 199/104/219 205/110/143
f 200/105/220 205/110/143 199/104/219
f 205/110/143 200/105/220 201/106/221
f 201/106/221 128/111/146 205/110/143
f 128/111/146 201/106/221 97/31/115
f 201/106/221 123/30/140 97/31/115
f 203/107/223 202/144/222 206/145/149
f 206/145/149 130/112/148 203/107/223
f 204/108/224 203/107/223 130/112/148
f 130/112/148 207/113/152 204/108/224
f 204/108/224 207/113/152 99/32/116
f 99/32/116 122/29/139 204/108/224
f 91/146/103 184/141/204 178/140/198
f 178/140/198 92/147/104 91/146/103
f 92/147/104 178/140/198 171/139/192
f 171/139/192 93/148/105 92/147/104
f 95/149/111 208/150/110 196/143/216
f 196/143/216 208/150/110 202/144/222
f 209/151/112 95/149/111 190/142/210
f 190/142/210 95/149/111 196/143/216
f 208/150/110 210/152/109 206/145/149
f 206/145/149 202/144/222 208/150/110
f 211/153/100 209/151/112 162/137/186
f 162/137/186 209/151/112 190/142/210
f 131/131/150 206/130/149 212/154/108
f 206/130/149 210/155/109 212/154/108
f 90/156/99 211/153/100 162/137/186
f 162/137/186 155/136/180 90/156/99
f 137/132/157 131/131/150 212/154/108
f 212/154/108 94/157/107 137/132/157
f 90/156/99 148/135/172 213/158/101
f 90/156/99 155/136/180 148/135/172
f 169/133/163 137/132/157 214/159/106
f 137/132/157 94/157/107 214/159/106
f 215/160/102 213/158/101 148/135/172
f 148/135/172 146/134/171 215/160/102
f 171/139/192 169/138/163 214/161/106
f 214/161/106 93/148/105 171/139/192
f 215/160/102 146/134/171 184/141/204
f 184/141/204 91/146/103 215/160/102
f 158/69/184 216/114/225 153/64/178
f 216/114/225 158/69/184 217/115/226
f 153/64/178 218/116/227 143/56/168
f 153/64/178 216/114/225 218/116/227
f 141/55/167 143/56/168 218/116/227
f 218/116/227 219/117/228 141/55/167
f 141/55/167 219/117/228 220/118/229
f 220/118/229 182/89/202 141/55/167
f 182/89/202 220/118/229 176/84/196
f 220/118/229 221/119/230 176/84/196
f 176/84/196 221/119/230 165/74/190
f 221/119/230 222/120/231 165/74/190
f 165/74/190 222/120/231 223/121/232
f 223/121/232 139/75/159 165/74/190
f 224/122/233 133/43/153 223/123/232
f 223/123/232 133/43/153 139/48/159
f 225/124/234 124/33/141 224/122/233
f 224/122/233 124/33/141 133/43/153
f 225/124/234 226/125/235 124/33/141
f 226/125/235 125/34/142 124/33/141
f 199/104/219 226/126/235 227/127/236
f 199/104/219 125/109/142 226/126/235
f 193/98/213 227/127/236 228/128/237
f 193/98/213 199/104/219 227/127/236
f 187/94/207 228/128/237 229/129/238
f 187/94/207 193/98/213 228/128/237
f 158/69/184 229/129/238 217/115/226
f 158/69/184 187/94/207 229/129/238
f 68/86/77 230/87/78 318/93/84
f 231/162/239 233/163/240 232/164/241
f 232/164/241 234/165/242 231/162/239
f 231/162/239 236/166/243 235/167/244
f 231/162/239 234/165/242 236/166/243
f 236/166/243 238/168/245 237/169/246
f 237/169/246 235/167/244 236/166/243
f 257/170/247 258/171/248 239/172/249
f 239/172/249 240/173/250 257/170/247
f 239/172/249 241/174/251 240/173/250
f 241/174/251 242/175/252 240/173/250
f 241/174/251 243/176/253 242/175/252
f 243/176/253 244/177/254 242/175/252
f 243/178/253 245/179/255 244/180/254
f 246/181/256 244/180/254 245/179/255
f 245/179/255 247/182/257 246/181/256
f 248/183/258 246/181/256 247/182/257
f 249/184/259 250/185/260 248/183/258
f 248/183/258 247/182/257 249/184/259
f 233/163/240 250/185/260 232/164/241
f 232/164/241 250/185/260 249/184/259
f 238/168/245 251/186/261 237/169/246
f 256/187/262 257/188/247 255/189/263
f 256/187/262 258/190/248 257/188/247
f 259/191/264 261/192/265 260/193/266
f 260/193/266 262/194/267 259/191/264
f 232/164/241 259/191/264 234/165/242
f 232/164/241 261/192/265 259/191/264
f 263/195/268 265/196/269 264/197/270
f 265/196/269 266/198/271 264/197/270
f 264/197/270 266/198/271 231/162/239
f 266/198/271 233/163/240 231/162/239
f 259/191/264 268/199/272 267/200/273
f 259/191/264 262/194/267 268/199/272
f 234/165/242 267/200/273 236/166/243
f 234/165/242 259/191/264 267/200/273
f 269/201/274 263/195/268 264/197/270
f 264/197/270 270/202/275 269/201/274
f 270/202/275 264/197/270 231/162/239
f 231/162/239 235/167/244 270/202/275
f 271/203/276 267/200/273 268/199/272
f 268/199/272 272/204/277 271/203/276
f 238/168/245 236/166/243 271/203/276
f 271/203/276 236/166/243 267/200/273
f 273/205/278 269/201/274 274/206/279
f 269/201/274 270/202/275 274/206/279
f 274/206/279 270/202/275 235/167/244
f 235/167/244 237/169/246 274/206/279
f 275/207/280 277/208/281 276/209/282
f 277/208/281 278/210/283 276/209/282
f 276/209/282 278/210/283 239/172/249
f 239/172/249 258/171/248 276/209/282
f 279/211/284 281/212/285 280/213/286
f 279/211/284 282/214/287 281/212/285
f 257/170/247 240/173/250 279/211/284
f 279/211/284 280/213/286 257/170/247
f 277/208/281 284/215/288 283/216/289
f 283/216/289 278/210/283 277/208/281
f 278/210/283 283/216/289 241/174/251
f 241/174/251 239/172/249 278/210/283
f 285/217/290 286/218/291 279/211/284
f 279/211/284 286/218/291 282/214/287
f 242/175/252 279/211/284 240/173/250
f 242/175/252 285/217/290 279/211/284
f 284/215/288 287/219/292 283/216/289
f 290/220/293 283/216/289 287/219/292
f 283/216/289 290/220/293 241/174/251
f 290/220/293 243/176/253 241/174/251
f 288/221/294 286/218/291 285/217/290
f 288/221/294 289/222/295 286/218/291
f 242/175/252 244/177/254 288/221/294
f 288/221/294 285/217/290 242/175/252
f 287/223/292 291/224/296 290/225/293
f 292/226/297 290/225/293 291/224/296
f 290/225/293 292/226/297 243/178/253
f 292/226/297 245/179/255 243/178/253
f 293/227/298 294/228/299 289/229/295
f 289/229/295 288/230/294 293/227/298
f 246/181/256 293/227/298 288/230/294
f 288/230/294 244/180/254 246/181/256
f 291/224/296 295/231/300 292/226/297
f 296/232/301 292/226/297 295/231/300
f 292/226/297 296/232/301 245/179/255
f 247/182/257 245/179/255 296/232/301
f 297/233/302 298/234/303 294/228/299
f 294/228/299 293/227/298 297/233/302
f 248/183/258 297/233/302 293/227/298
f 293/227/298 246/181/256 248/183/258
f 295/231/300 299/235/304 296/232/301
f 300/236/305 296/232/301 299/235/304
f 300/236/305 249/184/259 247/182/257
f 247/182/257 296/232/301 300/236/305
f 301/237/306 302/238/307 298/234/303
f 298/234/303 297/233/302 301/237/306
f 250/185/260 301/237/306 297/233/302
f 297/233/302 248/183/258 250/185/260
f 299/235/304 260/193/266 300/236/305
f 261/192/265 300/236/305 260/193/266
f 232/164/241 249/184/259 261/192/265
f 261/192/265 249/184/259 300/236/305
f 266/198/271 265/196/269 302/238/307
f 302/238/307 301/237/306 266/198/271
f 233/163/240 266/198/271 301/237/306
f 301/237/306 250/185/260 233/163/240
f 272/204/277 303/239/308 271/203/276
f 272/204/277 304/240/309 303/239/308
f 271/203/276 252/241/310 238/168/245
f 271/203/276 303/239/308 252/241/310
f 274/206/279 305/242/311 273/205/278
f 274/206/279 306/243/312 305/242/311
f 237/169/246 306/243/312 274/206/279
f 237/169/246 251/186/261 306/243/312
f 304/240/309 307/244/313 303/239/308
f 304/240/309 308/245/314 307/244/313
f 303/239/308 254/246/315 252/241/310
f 303/239/308 307/244/313 254/246/315
f 306/243/312 309/247/316 305/242/311
f 306/243/312 310/248/317 309/247/316
f 251/186/261 310/248/317 306/243/312
f 251/186/261 253/249/318 310/248/317
f 308/245/314 311/250/319 307/244/313
f 308/245/314 312/251/320 311/250/319
f 307/244/313 256/187/262 254/246/315
f 307/244/313 311/250/319 256/187/262
f 310/248/317 313/252/321 309/247/316
f 310/248/317 314/253/322 313/252/321
f 253/249/318 314/253/322 310/248/317
f 253/249/318 255/189/263 314/253/322
f 312/251/320 275/254/280 276/255/282
f 312/251/320 276/255/282 311/250/319
f 311/250/319 258/190/248 256/187/262
f 311/250/319 276/255/282 258/190/248
f 280/256/286 281/257/285 314/253/322
f 314/253/322 281/257/285 313/252/321
f 255/189/263 280/256/286 314/253/322
f 255/189/263 257/188/247 280/256/286
f 417/258/323 416/259/324 273/205/278
f 269/201/274 273/205/278 416/259/324
f 416/259/324 415/260/325 263/195/268
f 263/195/268 269/201/274 416/259/324
f 415/260/325 414/261/326 263/195/268
f 414/261/326 265/196/269 263/195/268
f 265/196/269 414/261/326 427/262/327
f 427/262/327 302/238/307 265/196/269
f 302/238/307 427/262/327 426/263/328
f 426/263/328 298/234/303 302/238/307
f 298/234/303 426/263/328 425/264/329
f 425/264/329 294/228/299 298/234/303
f 294/228/299 425/264/329 424/265/330
f 424/265/330 289/229/295 294/228/299
f 286/218/291 289/222/295 424/266/330
f 424/266/330 423/267/331 286/218/291
f 282/214/287 286/218/291 423/267/331
f 423/267/331 422/268/332 282/214/287
f 281/212/285 282/214/287 422/268/332
f 422/268/332 421/269/333 281/212/285
f 313/252/321 421/270/333 420/271/334
f 313/252/321 281/257/285 421/270/333
f 309/247/316 420/271/334 419/272/335
f 309/247/316 313/252/321 420/271/334
f 305/242/311 419/272/335 418/273/336
f 305/242/311 309/247/316 419/272/335
f 273/205/278 305/242/311 418/273/336
f 418/273/336 417/258/323 273/205/278
f 262/194/267 260/193/266 315/274/62
f 315/274/62 316/275/56 262/194/267
f 268/199/272 262/194/267 316/275/56
f 316/275/56 46/276/55 268/199/272
f 268/199/272 46/276/55 317/277/83
f 317/277/83 272/204/277 268/199/272
f 304/240/309 317/277/83 318/278/84
f 317/277/83 304/240/309 272/204/277
f 230/279/78 308/245/314 318/278/84
f 318/278/84 308/245/314 304/240/309
f 62/280/73 312/251/320 230/279/78
f 230/279/78 312/251/320 308/245/314
f 62/280/73 275/254/280 312/251/320
f 62/280/73 319/281/48 275/254/280
f 320/282/43 277/208/281 319/283/48
f 319/283/48 277/208/281 275/207/280
f 320/282/43 321/284/38 277/208/281
f 321/284/38 284/215/288 277/208/281
f 284/215/288 321/284/38 33/285/37
f 33/285/37 287/219/292 284/215/288
f 33/286/37 322/287/97 287/223/292
f 291/224/296 287/223/292 322/287/97
f 322/287/97 81/288/92 291/224/296
f 295/231/300 291/224/296 81/288/92
f 81/288/92 76/289/67 295/231/300
f 299/235/304 295/231/300 76/289/67
f 76/289/67 315/274/62 299/235/304
f 260/193/266 299/235/304 315/274/62
f 254/246/315 253/249/318 252/241/310
f 238/168/245 252/241/310 251/186/261
f 251/186/261 252/241/310 253/249/318
f 253/249/318 254/246/315 255/189/263
f 255/189/263 254/246/315 256/187/262
f 323/162/337 325/163/338 324/164/339
f 324/164/339 326/165/340 323/162/337
f 323/162/337 328/166/341 327/167/342
f 323/162/337 326/165/340 328/166/341
f 328/166/341 330/168/343 329/169/344
f 329/169/344 327/167/342 328/166/341
f 349/170/345 350/171/346 331/172/347
f 331/172/347 332/173/348 349/170/345
f 331/172/347 333/174/349 332/173/348
f 333/174/349 334/175/350 332/173/348
f 333/174/349 335/176/351 334/175/350
f 335/176/351 336/177/352 334/175/350
f 335/178/351 337/179/353 336/180/352
f 338/181/354 336/180/352 337/179/353
f 337/179/353 339/182/355 338/181/354
f 340/183/356 338/181/354 339/182/355
f 341/184/357 342/185/358 340/183/356
f 340/183/356 339/182/355 341/184/357
f 325/163/338 342/185/358 324/164/339
f 324/164/339 342/185/358 341/184/357
f 330/168/343 343/186/359 329/169/344
f 348/187/360 349/188/345 347/189/361
f 348/187/360 350/190/346 349/188/345
f 351/191/362 353/192/363 352/193/364
f 352/193/364 354/194/365 351/191/362
f 324/164/339 351/191/362 326/165/340
f 324/164/339 353/192/363 351/191/362
f 355/195/366 357/196/367 356/197/368
f 357/196/367 358/198/369 356/197/368
f 356/197/368 358/198/369 323/162/337
f 358/198/369 325/163/338 323/162/337
f 351/191/362 360/199/370 359/200/371
f 351/191/362 354/194/365 360/199/370
f 326/165/340 359/200/371 328/166/341
f 326/165/340 351/191/362 359/200/371
f 361/201/372 355/195/366 356/197/368
f 356/197/368 362/202/373 361/201/372
f 362/202/373 356/197/368 323/162/337
f 323/162/337 327/167/342 362/202/373
f 363/203/374 359/200/371 360/199/370
f 360/199/370 364/204/375 363/203/374
f 330/168/343 328/166/341 363/203/374
f 363/203/374 328/166/341 359/200/371
f 365/205/376 361/201/372 366/206/377
f 361/201/372 362/202/373 366/206/377
f 366/206/377 362/202/373 327/167/342
f 327/167/342 329/169/344 366/206/377
f 367/207/378 369/208/379 368/209/380
f 369/208/379 370/210/381 368/209/380
f 368/209/380 370/210/381 331/172/347
f 331/172/347 350/171/346 368/209/380
f 371/211/382 373/212/383 372/213/384
f 371/211/382 374/214/385 373/212/383
f 349/170/345 332/173/348 371/211/382
f 371/211/382 372/213/384 349/170/345
f 369/208/379 376/215/386 375/216/387
f 375/216/387 370/210/381 369/208/379
f 370/210/381 375/216/387 333/174/349
f 333/174/349 331/172/347 370/210/381
f 377/217/388 378/218/389 371/211/382
f 371/211/382 378/218/389 374/214/385
f 334/175/350 371/211/382 332/173/348
f 334/175/350 377/217/388 371/211/382
f 376/215/386 379/219/390 375/216/387
f 382/220/391 375/216/387 379/219/390
f 375/216/387 382/220/391 333/174/349
f 382/220/391 335/176/351 333/174/349
f 380/221/392 378/218/389 377/217/388
f 380/221/392 381/222/393 378/218/389
f 334/175/350 336/177/352 380/221/392
f 380/221/392 377/217/388 334/175/350
f 379/223/390 383/224/394 382/225/391
f 384/226/395 382/225/391 383/224/394
f 382/225/391 384/226/395 335/178/351
f 384/226/395 337/179/353 335/178/351
f 385/227/396 386/228/397 381/229/393
f 381/229/393 380/230/392 385/227/396
f 338/181/354 385/227/396 380/230/392
f 380/230/392 336/180/352 338/181/354
f 383/224/394 387/231/398 384/226/395
f 388/232/399 384/226/395 387/231/398
f 384/226/395 388/232/399 337/179/353
f 339/182/355 337/179/353 388/232/399
f 389/233/400 390/234/401 386/228/397
f 386/228/397 385/227/396 389/233/400
f 340/183/356 389/233/400 385/227/396
f 385/227/396 338/181/354 340/183/356
f 387/231/398 391/235/402 388/232/399
f 392/236/403 388/232/399 391/235/402
f 392/236/403 341/184/357 339/182/355
f 339/182/355 388/232/399 392/236/403
f 393/237/404 394/238/405 390/234/401
f 390/234/401 389/233/400 393/237/404
f 342/185/358 393/237/404 389/233/400
f 389/233/400 340/183/356 342/185/358
f 391/235/402 352/193/364 392/236/403
f 353/192/363 392/236/403 352/193/364
f 324/164/339 341/184/357 353/192/363
f 353/192/363 341/184/357 392/236/403
f 358/198/369 357/196/367 394/238/405
f 394/238/405 393/237/404 358/198/369
f 325/163/338 358/198/369 393/237/404
f 393/237/404 342/185/358 325/163/338
f 364/204/375 395/239/406 363/203/374
f 364/204/375 396/240/407 395/239/406
f 363/203/374 344/241/408 330/168/343
f 363/203/374 395/239/406 344/241/408
f 366/206/377 397/242/409 365/205/376
f 366/206/377 398/243/410 397/242/409
f 329/169/344 398/243/410 366/206/377
f 329/169/344 343/186/359 398/243/410
f 396/240/407 399/244/411 395/239/406
f 396/240/407 400/245/412 399/244/411
f 395/239/406 346/246/413 344/241/408
f 395/239/406 399/244/411 346/246/413
f 398/243/410 401/247/414 397/242/409
f 398/243/410 402/248/415 401/247/414
f 343/186/359 402/248/415 398/243/410
f 343/186/359 345/249/416 402/248/415
f 400/245/412 403/250/417 399/244/411
f 400/245/412 404/251/418 403/250/417
f 399/244/411 348/187/360 346/246/413
f 399/244/411 403/250/417 348/187/360
f 402/248/415 405/252/419 401/247/414
f 402/248/415 406/253/420 405/252/419
f 345/249/416 406/253/420 402/248/415
f 345/249/416 347/189/361 406/253/420
f 404/251/418 367/254/378 368/255/380
f 404/251/418 368/255/380 403/250/417
f 403/250/417 350/190/346 348/187/360
f 403/250/417 368/255/380 350/190/346
f 372/256/384 373/257/383 406/253/420
f 406/253/420 373/257/383 405/252/419
f 347/189/361 372/256/384 406/253/420
f 347/189/361 349/188/345 372/256/384
f 407/258/421 497/259/422 365/205/376
f 361/201/372 365/205/376 497/259/422
f 497/259/422 498/260/423 355/195/366
f 355/195/366 361/201/372 497/259/422
f 498/260/423 408/261/424 355/195/366
f 408/261/424 357/196/367 355/195/366
f 357/196/367 408/261/424 502/262/425
f 502/262/425 394/238/405 357/196/367
f 394/238/405 502/262/425 510/263/426
f 510/263/426 390/234/401 394/238/405
f 390/234/401 510/263/426 501/264/427
f 501/264/427 386/228/397 390/234/401
f 386/228/397 501/264/427 500/265/428
f 500/265/428 381/229/393 386/228/397
f 378/218/389 381/222/393 500/266/428
f 500/266/428 409/267/429 378/218/389
f 374/214/385 378/218/389 409/267/429
f 409/267/429 499/268/430 374/214/385
f 373/212/383 374/214/385 499/268/430
f 499/268/430 411/269/431 373/212/383
f 405/252/419 411/270/431 410/271/432
f 405/252/419 373/257/383 411/270/431
f 401/247/414 410/271/432 412/272/433
f 401/247/414 405/252/419 410/271/432
f 397/242/409 412/272/433 413/273/434
f 397/242/409 401/247/414 412/272/433
f 365/205/376 397/242/409 413/273/434
f 413/273/434 407/258/421 365/205/376
f 354/194/365 352/193/364 414/274/326
f 414/274/326 415/275/325 354/194/365
f 360/199/370 354/194/365 415/275/325
f 415/275/325 416/276/324 360/199/370
f 360/199/370 416/276/324 417/277/323
f 417/277/323 364/204/375 360/199/370
f 396/240/407 417/277/323 418/278/336
f 417/277/323 396/240/407 364/204/375
f 419/279/335 400/245/412 418/278/336
f 418/278/336 400/245/412 396/240/407
f 420/280/334 404/251/418 419/279/335
f 419/279/335 404/251/418 400/245/412
f 420/280/334 367/254/378 404/251/418
f 420/280/334 421/281/333 367/254/378
f 422/282/332 369/208/379 421/283/333
f 421/283/333 369/208/379 367/207/378
f 422/282/332 423/284/331 369/208/379
f 423/284/331 376/215/386 369/208/379
f 376/215/386 423/284/331 424/285/330
f 424/285/330 379/219/390 376/215/386
f 424/286/330 425/287/329 379/223/390
f 383/224/394 379/223/390 425/287/329
f 425/287/329 426/288/328 383/224/394
f 387/231/398 383/224/394 426/288/328
f 426/288/328 427/289/327 387/231/398
f 391/235/402 387/231/398 427/289/327
f 427/289/327 414/274/326 391/235/402
f 352/193/364 391/235/402 414/274/326
f 346/246/413 345/249/416 344/241/408
f 330/168/343 344/241/408 343/186/359
f 343/186/359 344/241/408 345/249/416
f 345/249/416 346/246/413 347/189/361
f 347/189/361 346/246/413 348/187/360
f 428/290/435 430/291/436 429/292/437
f 428/290/435 431/293/438 430/291/436
f 432/294/439 434/295/440 433/296/441
f 434/295/440 435/297/442 433/296/441
f 436/298/443 438/299/444 437/300/445
f 437/300/445 439/301/446 436/298/443
f 440/302/447 442/303/448 441/304/449
f 441/304/449 443/305/450 440/302/447
f 444/306/451 446/307/452 445/308/453
f 444/306/451 447/309/454 446/307/452
f 447/309/454 429/292/437 446/307/452
f 447/309/454 428/290/435 429/292/437
f 430/291/436 431/293/438 507/310/455
f 507/310/455 448/311/456 430/291/436
f 449/312/457 451/313/458 450/314/459
f 450/314/459 452/315/460 449/312/457
f 433/296/441 435/297/442 451/313/458
f 435/297/442 450/314/459 451/313/458
f 453/316/461 432/294/439 454/317/462
f 432/294/439 453/316/461 434/295/440
f 455/318/463 457/319/464 456/320/465
f 456/320/465 458/321/466 455/318/463
f 457/319/464 436/298/443 439/301/446
f 439/301/446 456/320/465 457/319/464
f 459/322/467 460/323/468 438/299/444
f 438/299/444 461/324/469 459/322/467
f 440/302/447 443/305/450 462/325/470
f 462/325/470 463/326/471 440/302/447
f 464/327/472 466/328/473 465/329/474
f 465/329/474 466/328/473 467/330/475
f 465/329/474 467/330/475 468/331/476
f 468/331/476 467/330/475 442/303/448
f 469/332/477 461/324/469 470/333/478
f 470/333/478 471/334/479 469/332/477
f 470/333/478 461/324/469 438/299/444
f 438/299/444 436/298/443 470/333/478
f 472/335/480 439/301/446 473/336/481
f 437/300/445 473/336/481 439/301/446
f 474/337/482 475/338/483 468/331/476
f 468/331/476 476/339/484 474/337/482
f 476/339/484 468/331/476 442/303/448
f 442/303/448 440/302/447 476/339/484
f 441/304/449 490/340/485 443/305/450
f 443/305/450 490/340/485 489/341/486
f 477/342/487 479/343/488 478/344/489
f 478/344/489 480/345/490 477/342/487
f 480/345/490 478/344/489 457/319/464
f 457/319/464 455/318/463 480/345/490
f 492/346/491 458/321/466 491/347/492
f 456/320/465 491/347/492 458/321/466
f 479/343/488 471/334/479 470/333/478
f 470/333/478 478/344/489 479/343/488
f 478/344/489 470/333/478 436/298/443
f 436/298/443 457/319/464 478/344/489
f 491/347/492 456/320/465 439/301/446
f 439/301/446 472/335/480 491/347/492
f 473/336/481 437/300/445 496/348/493
f 481/349/494 496/348/493 437/300/445
f 460/323/468 481/349/494 438/299/444
f 438/299/444 481/349/494 437/300/445
f 461/324/469 469/332/477 482/350/495
f 482/350/495 459/322/467 461/324/469
f 483/351/496 484/352/497 474/337/482
f 474/337/482 476/339/484 483/351/496
f 483/351/496 476/339/484 440/302/447
f 440/302/447 463/326/471 483/351/496
f 443/305/450 489/341/486 495/353/498
f 495/353/498 462/325/470 443/305/450
f 494/354/499 485/355/500 493/356/501
f 486/357/502 493/356/501 485/355/500
f 466/328/473 486/357/502 467/330/475
f 467/330/475 486/357/502 485/355/500
f 487/358/503 464/327/472 465/329/474
f 465/329/474 488/359/504 487/358/503
f 485/355/500 494/354/499 441/304/449
f 441/304/449 494/354/499 490/340/485
f 467/330/475 485/355/500 442/303/448
f 442/303/448 485/355/500 441/304/449
f 475/338/483 488/359/504 465/329/474
f 465/329/474 468/331/476 475/338/483
f 428/290/435 472/360/480 431/293/438
f 472/360/480 473/361/481 431/293/438
f 489/362/486 490/363/485 429/292/437
f 429/292/437 430/291/436 489/362/486
f 474/337/482 432/294/439 433/296/441
f 433/296/441 475/338/483 474/337/482
f 469/332/477 435/297/442 434/295/440
f 435/297/442 469/332/477 471/334/479
f 444/306/451 492/364/491 491/365/492
f 491/365/492 447/309/454 444/306/451
f 493/366/501 445/308/453 446/307/452
f 446/307/452 494/367/499 493/366/501
f 447/309/454 491/365/492 428/290/435
f 491/365/492 472/360/480 428/290/435
f 494/367/499 446/307/452 429/292/437
f 429/292/437 490/363/485 494/367/499
f 489/362/486 430/291/436 495/368/498
f 430/291/436 448/311/456 495/368/498
f 431/293/438 473/361/481 496/369/493
f 496/369/493 507/310/455 431/293/438
f 487/358/503 488/359/504 451/313/458
f 451/313/458 449/312/457 487/358/503
f 450/314/459 479/343/488 452/315/460
f 452/315/460 479/343/488 477/342/487
f 475/338/483 433/296/441 488/359/504
f 433/296/441 451/313/458 488/359/504
f 435/297/442 471/334/479 479/343/488
f 479/343/488 450/314/459 435/297/442
f 482/350/495 434/295/440 453/316/461
f 434/295/440 482/350/495 469/332/477
f 484/352/497 454/317/462 432/294/439
f 432/294/439 474/337/482 484/352/497
f 477/342/487 498/370/423 497/371/422
f 497/371/422 452/315/460 477/342/487
f 449/312/457 452/315/460 497/371/422
f 497/371/422 407/372/421 449/312/457
f 487/358/503 449/312/457 407/372/421
f 487/358/503 407/373/421 464/327/472
f 407/373/421 413/374/434 464/327/472
f 466/328/473 464/327/472 413/374/434
f 413/374/434 412/375/433 466/328/473
f 466/328/473 412/375/433 486/357/502
f 412/375/433 410/376/432 486/357/502
f 410/376/432 411/377/431 493/356/501
f 493/356/501 486/357/502 410/376/432
f 499/378/430 445/308/453 493/366/501
f 493/366/501 411/379/431 499/378/430
f 499/378/430 409/380/429 445/308/453
f 409/380/429 444/306/451 445/308/453
f 409/380/429 500/381/428 444/306/451
f 500/381/428 492/364/491 444/306/451
f 458/321/466 500/382/428 501/383/427
f 458/321/466 492/346/491 500/382/428
f 501/383/427 510/384/426 455/318/463
f 455/318/463 458/321/466 501/383/427
f 480/345/490 502/385/425 408/386/424
f 480/345/490 455/318/463 502/385/425
f 477/342/487 408/386/424 498/370/423
f 477/342/487 480/345/490 408/386/424
f 462/325/470 495/353/498 503/387/505
f 503/387/505 495/353/498 448/388/456
f 463/326/471 462/325/470 504/389/506
f 504/389/506 462/325/470 503/387/505
f 483/351/496 463/326/471 505/390/507
f 505/390/507 463/326/471 504/389/506
f 484/352/497 483/351/496 505/390/507
f 506/391/508 503/387/505 448/388/456
f 448/388/456 507/392/455 506/391/508
f 508/393/509 504/389/506 503/387/505
f 503/387/505 506/391/508 508/393/509
f 509/394/510 505/390/507 504/389/506
f 504/389/506 508/393/509 509/394/510
f 454/317/462 484/352/497 509/394/510
f 484/352/497 505/390/507 509/394/510
f 481/349/494 506/391/508 507/392/455
f 507/392/455 496/348/493 481/349/494
f 460/323/468 508/393/509 506/391/508
f 506/391/508 481/349/494 460/323/468
f 459/322/467 509/394/510 508/393/509
f 508/393/509 460/323/468 459/322/467
f 459/322/467 482/350/495 453/316/461
f 453/316/461 454/317/462 509/394/510
f 509/394/510 459/322/467 453/316/461
f 455/318/463 510/384/426 502/385/425
