# Blender 4.4.3
# www.blender.org
mtllib cave_map_large.mtl
o cave_map_large.006
v -156.871429 -19.625971 231.473328
v -153.067474 -20.121107 236.863800
v -150.859085 -20.121107 235.164825
v -154.663055 -19.625971 229.774384
v -150.847900 -19.213617 226.839233
v -150.051788 -17.687086 226.226746
v -146.247803 -17.687086 231.617188
v -147.043930 -19.213617 232.229675
v -149.828918 -15.748201 226.055267
v -146.024933 -15.748201 231.445709
v -151.308243 -13.809318 227.193390
v -147.504272 -13.809318 232.583862
v -152.454666 -11.870436 228.075378
v -148.650696 -11.870436 233.465851
v -154.663055 -11.870436 229.774384
v -150.859085 -12.084320 235.164825
v -156.871429 -13.192299 231.473328
v -153.067474 -11.752598 236.863800
v -159.079803 -12.163377 233.172333
v -155.275848 -12.163376 238.562805
v -160.208374 -13.288382 234.040588
v -157.660660 -15.516830 239.224976
v -160.889923 -15.748200 234.564911
v -156.863083 -17.687086 239.783905
v -160.667053 -17.687086 234.393463
v -160.051239 -19.625971 233.919708
v -155.275848 -19.625971 238.562805
v -142.479645 -20.005894 247.568054
v -145.271454 -19.425266 248.566956
v -145.157654 -20.042942 245.751312
v -149.586151 -20.122982 241.210480
v -151.794525 -19.625969 242.909485
v -165.286377 -19.569418 220.742645
v -164.353790 -19.477560 219.790466
v -165.305008 -19.606482 223.911682
v -163.050720 -19.359556 222.177338
v -160.101135 -19.323553 226.933105
v -163.034424 -19.607431 229.189819
v -140.955353 -20.005894 247.548187
v -143.189957 -20.042942 244.237488
v -147.377762 -19.989813 239.511475
v -163.800720 -19.362284 219.557159
v -161.589691 -19.359556 221.053345
v -158.133453 -19.323553 225.419281
v -139.852753 -19.607430 242.829254
v -160.556824 -19.339716 220.258698
v -156.335052 -19.607431 222.474457
v -139.442307 -18.467060 246.384155
v -139.684082 -19.633839 246.570160
v -139.492508 -17.851048 242.552094
v -142.766479 -17.687086 235.963867
v -143.562607 -19.213617 236.576324
v -163.397583 -19.342203 219.235504
v -163.296677 -18.711641 219.154968
v -160.332474 -18.236609 220.086090
v -155.974823 -17.851049 222.197296
v -139.319336 -17.344292 246.289551
v -139.288757 -16.105274 242.395355
v -142.543610 -15.748200 235.792389
v -163.365051 -17.852140 219.132996
v -160.188110 -16.918406 219.975037
v -155.771088 -16.105276 222.040558
v -139.433533 -16.237717 246.377380
v -140.844757 -14.362324 242.433228
v -144.022949 -13.809317 236.930511
v -163.051758 -16.993753 218.882996
v -159.802979 -15.619215 219.678741
v -155.788239 -14.362327 223.615021
v -139.651947 -15.134980 246.545441
v -141.193481 -12.620570 242.701538
v -145.169373 -11.870435 237.812500
v -163.183823 -16.078035 218.988373
v -160.059418 -14.324532 219.876007
v -156.136963 -12.620573 223.883301
v -140.856110 -14.985845 247.471832
v -143.168732 -12.588086 244.221161
v -147.377762 -12.084320 239.511475
v -163.919342 -16.259764 219.575256
v -161.473175 -14.149437 220.963684
v -158.112213 -12.588088 225.402954
v -142.100525 -14.985845 248.429230
v -145.136444 -12.588086 245.734985
v -149.586151 -12.391567 241.210480
v -164.644348 -16.829969 220.051575
v -162.934204 -14.149436 222.087738
v -160.079910 -12.588088 226.916779
v -143.593704 -15.134980 248.719116
v -147.096558 -12.620569 247.242981
v -151.794525 -11.870435 242.909485
v -165.409866 -16.078032 220.764618
v -165.267273 -14.324531 223.882629
v -162.160919 -13.189920 228.517792
v -144.696869 -16.237717 247.689941
v -147.462738 -14.362323 247.524719
v -152.874207 -13.809317 243.697418
v -166.057281 -16.993753 221.281219
v -165.541656 -15.619214 224.093719
v -163.377670 -14.362327 229.453857
v -145.019135 -17.023056 248.615448
v -147.667603 -16.105274 247.682312
v -152.418579 -15.748200 243.389587
v -166.266586 -17.852140 221.448242
v -165.702484 -16.918406 224.217468
v -163.582550 -16.105276 229.611481
v -145.020126 -18.282234 248.639771
v -147.474182 -17.851048 247.533508
v -152.195694 -17.687084 243.218109
v -165.921310 -18.711641 221.249298
v -165.551956 -18.236609 224.101654
v -163.389099 -17.851049 229.462646
v -147.119507 -19.607430 247.260651
v -156.934677 -13.825642 239.280518
v -154.969452 -19.873537 234.168579
v -151.963272 -20.121107 236.014313
v -153.865265 -19.873537 233.319092
v -152.761078 -19.873537 232.469574
v -155.767242 -19.625971 230.623840
v -152.755463 -19.419794 228.306793
v -148.149796 -17.687086 228.921967
v -146.645874 -18.450350 231.923431
v -149.940353 -16.717646 226.140991
v -147.926941 -15.748201 228.750519
v -148.038361 -16.717646 228.836243
v -146.136383 -16.717646 231.531464
v -150.568573 -14.778762 226.624329
v -149.406250 -13.809318 229.888611
v -148.666595 -14.778762 229.319550
v -146.764618 -14.778762 232.014771
v -151.881454 -12.839877 227.634369
v -150.552689 -11.870436 230.770630
v -149.979477 -12.839877 230.329620
v -148.077484 -12.839877 233.024841
v -151.656876 -11.977378 231.620087
v -153.558868 -11.870436 228.924866
v -152.761078 -11.977378 232.469574
v -149.754898 -11.977377 234.315338
v -153.865265 -12.658307 233.319092
v -155.767242 -12.531367 230.623840
v -154.969452 -12.264627 234.168579
v -151.963272 -11.227386 236.014313
v -156.073639 -12.677836 235.018097
v -157.975616 -12.677837 232.322845
v -157.177826 -12.163376 235.867584
v -154.171646 -12.804777 237.713287
v -158.007248 -12.994509 236.226410
v -159.644104 -12.725880 233.606445
v -158.571533 -13.557011 236.660522
v -156.105255 -12.994509 238.921631
v -158.934525 -14.402605 236.632782
v -159.275299 -15.632515 236.894958
v -160.549149 -14.518294 234.302765
v -158.876495 -16.717646 237.174438
v -157.261871 -16.601961 239.504456
v -158.765076 -17.687086 237.088684
v -160.778488 -16.717646 234.479187
v -156.069458 -18.656527 239.173370
v -158.457153 -18.656527 236.851837
v -157.663544 -19.625971 236.241241
v -160.359146 -18.656527 234.156586
v -143.507141 -19.819862 247.980042
v -144.287506 -19.838390 247.596802
v -143.678711 -20.024418 247.128418
v -147.371902 -20.082962 243.480896
v -150.690323 -19.874474 242.059967
v -151.326797 -20.122046 239.037140
v -165.218140 -19.434439 220.567108
v -164.177856 -19.483015 223.044495
v -165.295700 -19.587950 222.327179
v -164.168549 -19.464487 221.460022
v -163.796722 -19.360918 221.163330
v -162.703064 -19.465017 225.422394
v -161.567780 -19.465494 228.061462
v -164.169708 -19.606955 226.550720
v -161.575928 -19.341555 224.555237
v -159.952927 -19.616701 230.331573
v -158.486282 -19.474760 229.203217
v -141.768219 -20.005894 247.388214
v -142.694855 -20.024418 246.371521
v -142.072662 -20.024418 245.892853
v -144.173798 -20.042942 244.994415
v -146.267715 -20.016376 242.631409
v -145.283859 -20.016376 241.874481
v -148.481949 -20.056396 240.360992
v -150.222610 -20.055460 238.187653
v -149.118423 -20.055460 237.338135
v -163.977173 -19.362295 219.673004
v -163.066208 -19.360918 220.601288
v -162.320206 -19.359556 221.615326
v -162.695206 -19.360918 220.305237
v -159.861572 -19.341555 223.236298
v -160.592072 -19.341555 223.798309
v -159.117294 -19.323553 226.176208
v -157.382095 -19.474760 228.353699
v -156.398254 -19.474760 227.596832
v -141.521362 -19.825184 243.533356
v -143.615265 -19.798622 241.170349
v -161.073257 -19.349634 220.656036
v -157.234253 -19.465494 223.946869
v -159.345123 -19.331636 222.839020
v -158.445953 -19.473574 221.366577
v -155.499054 -19.616701 226.124420
v -153.591476 -19.410524 224.656830
v -139.563202 -19.050449 246.477173
v -139.467407 -18.159054 244.468140
v -143.164551 -18.450350 236.270081
v -141.129501 -17.769068 239.257996
v -141.527557 -18.532335 239.564240
v -144.507156 -17.687086 233.790527
v -144.905212 -18.450350 234.096802
v -145.303268 -19.213617 234.403015
v -163.347137 -19.026922 219.195251
v -161.814575 -18.474123 219.620575
v -158.153656 -18.043829 221.141724
v -153.013306 -17.769068 224.212006
v -139.380829 -17.905678 246.336853
v -139.390625 -16.978161 242.473724
v -139.304047 -16.724781 244.342468
v -139.405914 -17.597672 244.420837
v -142.655060 -16.717646 235.878143
v -140.916199 -15.926739 239.093872
v -141.027649 -16.896181 239.179596
v -144.284271 -15.748201 233.619049
v -144.395721 -16.717646 233.704803
v -163.330872 -18.281889 219.143982
v -161.848755 -18.044374 219.609528
v -160.260284 -17.577509 220.030548
v -161.776581 -17.385271 219.554016
v -158.081451 -17.384729 221.086151
v -155.872955 -16.978163 222.118927
v -157.979599 -16.511843 221.007782
v -152.911438 -16.896181 224.133636
v -152.800003 -15.926740 224.047913
v -139.376434 -16.791004 246.333466
v -139.361145 -16.171494 244.386383
v -140.139145 -15.300020 244.405304
v -140.066772 -15.233799 242.414307
v -143.283295 -14.778761 236.361481
v -142.433853 -14.085821 239.681885
v -141.694183 -15.055264 239.112823
v -145.763611 -13.809317 234.757172
v -145.023956 -14.778761 234.188110
v -163.208405 -17.422945 219.007965
v -161.619934 -16.956079 219.429016
v -159.995544 -16.268812 219.826874
v -161.427368 -16.306482 219.280853
v -157.787048 -15.862246 220.859650
v -157.795609 -14.990769 221.646881
v -155.779663 -15.233802 222.827789
v -152.808563 -15.055264 224.835175
v -153.548248 -14.085824 225.404205
v -139.542740 -15.686347 246.461426
v -140.248352 -14.748653 244.489349
v -141.019119 -13.491447 242.567383
v -140.422714 -13.877775 244.623474
v -144.596161 -12.839876 237.371521
v -143.181427 -12.245502 240.256989
v -142.608215 -13.214944 239.816010
v -146.910049 -11.870435 235.639160
v -146.336838 -12.839876 235.198181
v -163.117798 -16.535894 218.935669
v -161.493408 -15.848625 219.333557
v -159.931198 -14.971872 219.777374
v -161.621613 -15.201284 219.432190
v -157.923828 -14.343429 221.745514
v -155.962585 -13.491450 223.749176
v -158.098190 -13.472552 221.879669
v -153.722595 -13.214945 225.538330
v -154.295807 -12.245503 225.979340
v -140.254028 -15.060411 247.008636
v -142.181091 -12.604328 243.461334
v -141.410339 -13.861532 245.383301
v -142.012421 -13.786964 245.846497
v -146.273575 -11.977377 238.662018
v -144.285614 -12.352445 241.106476
v -145.273254 -12.336203 241.866333
v -148.014236 -11.977377 236.488647
v -149.118423 -12.084320 237.338135
v -163.551575 -16.168898 219.281830
v -162.696259 -15.204602 220.269470
v -162.328506 -15.113735 219.976044
v -160.766296 -14.236986 220.419861
v -159.792694 -13.368763 223.183319
v -159.085815 -13.456308 222.639496
v -157.124588 -12.604330 224.643127
v -156.387634 -12.229263 227.588654
v -155.399994 -12.245503 226.828827
v -141.478317 -14.985845 247.950531
v -142.634628 -13.786963 246.325195
v -144.152588 -12.588086 244.978088
v -143.618469 -13.786963 247.082092
v -146.257095 -12.336203 242.623230
v -148.481949 -11.740561 240.360992
v -147.361282 -11.962522 243.472717
v -150.222610 -11.740561 238.187653
v -151.326797 -11.752598 239.037140
v -164.290344 -16.259764 219.871307
v -163.067261 -15.204602 220.565521
v -162.203705 -14.149436 221.525726
v -163.797791 -15.204601 221.127533
v -160.523209 -13.368763 223.745331
v -159.096069 -12.588088 226.159851
v -161.507050 -13.368763 224.502258
v -157.371490 -12.229263 228.345551
v -158.475677 -12.890195 229.195068
v -142.742859 -15.060411 248.923370
v -144.260803 -13.861531 247.576263
v -146.116501 -12.107471 246.488983
v -145.240875 -13.877774 248.330261
v -148.341354 -12.536517 244.226746
v -150.690323 -12.161449 242.059967
v -149.445541 -12.245502 245.076263
v -152.431000 -12.161449 239.886627
v -153.535187 -12.016905 240.736115
v -165.035614 -16.168898 220.465973
v -164.172028 -15.113734 221.426147
v -164.100739 -14.236985 222.985168
v -165.338562 -15.201283 222.323608
v -162.673599 -13.456308 225.399689
v -161.120422 -12.889006 227.717255
v -163.714111 -13.757226 226.200195
v -159.516174 -13.191110 229.995575
v -160.620361 -12.676649 230.845032
v -144.041031 -15.686347 248.553741
v -145.423981 -14.748652 248.471130
v -146.079803 -15.300019 247.607330
v -147.279663 -13.491446 247.383850
v -149.985382 -13.214944 245.470184
v -150.168488 -14.085821 245.611053
v -152.334366 -12.839876 243.303436
v -154.364594 -12.848038 241.095001
v -154.904449 -13.817480 241.488953
v -165.733582 -16.535894 221.022919
v -165.799469 -16.306482 222.687469
v -165.475769 -15.848624 222.429169
v -165.404465 -14.971871 223.988159
v -164.459656 -14.990769 226.773804
v -164.322479 -14.343429 226.668243
v -162.769287 -13.776124 228.985840
v -161.228745 -13.262851 231.313110
v -161.793030 -13.825355 231.747223
v -144.765366 -16.791004 247.742645
v -146.182251 -16.171494 247.686127
v -146.031906 -16.914051 248.231750
v -147.565186 -15.233798 247.603516
v -149.940659 -15.055264 245.457153
v -150.043091 -15.926739 245.535919
v -152.646393 -14.778761 243.543488
v -155.039612 -15.632515 241.307281
v -166.161926 -17.422945 221.364716
v -165.984528 -17.385271 222.832855
v -165.879883 -16.956079 222.749329
v -165.622070 -16.268812 224.155579
v -164.642517 -16.511843 226.914459
v -164.562103 -15.862245 226.852600
v -163.480103 -15.233802 229.532684
v -162.133789 -15.055264 232.009399
v -162.236237 -15.926740 232.088196
v -145.083664 -17.678322 248.604645
v -146.400269 -17.263866 248.100189
v -146.680695 -18.860020 248.030090
v -147.570892 -16.978161 247.607910
v -149.931656 -16.896179 245.450195
v -149.834946 -17.769066 245.375824
v -152.307129 -16.717644 243.303833
v -154.928177 -16.601959 241.221558
v -154.529388 -17.687084 241.501007
v -166.093964 -18.281889 221.348755
v -165.736633 -18.474123 222.675476
v -165.909271 -18.044374 222.774933
v -165.627228 -17.577509 224.159546
v -163.485825 -16.978163 229.537079
v -164.545807 -17.384729 226.840057
v -164.470520 -18.043829 226.782135
v -162.124802 -16.896181 232.002441
v -162.028076 -17.769068 231.928070
v -146.497284 -19.353172 248.106628
v -147.296844 -18.729240 247.397064
v -153.735764 -18.656525 240.890442
v -161.720169 -18.738512 231.691193
v -154.171646 -19.873537 237.713287
v -156.073639 -19.625971 235.018097
v -158.461334 -19.625971 232.696533
v -150.853485 -19.419794 231.002014
v -148.951508 -19.667364 233.697235
v -148.945908 -19.213617 229.534424
v -150.449829 -18.450350 226.532990
v -148.547852 -18.450350 229.228210
v -146.138580 -19.825184 246.505981
v -146.160461 -19.480156 248.236145
v -148.352814 -19.865204 244.235565
v -149.457001 -19.616699 245.085052
v -153.535172 -19.625969 240.736115
v -152.431000 -19.874475 239.886627
v -161.542847 -19.616701 231.554749
v -140.319733 -19.819862 247.059174
v -141.437027 -19.838390 245.403839
v -139.768417 -19.620636 244.699707
v -141.707672 -19.410524 239.702789
v -145.470184 -19.601717 238.043915
v -147.210846 -19.667364 235.870575
v -163.599152 -19.352243 219.396332
v -162.493637 -19.350882 220.144409
v -161.977203 -19.340960 219.747101
v -139.672623 -18.729240 242.690674
v -139.647522 -19.037247 244.606720
v -161.926758 -19.025679 219.706848
v -160.444641 -18.788164 220.172394
v -156.154938 -18.729242 222.335876
v -158.333771 -18.922022 221.280273
v -153.411362 -18.532335 224.518280
v -145.053497 -18.908463 248.628815
v -149.634354 -18.738510 245.221497
v -151.995102 -18.656525 243.063782
v -165.603851 -19.140528 220.996002
v -165.428497 -18.921545 224.006653
v -165.613159 -19.159060 222.580475
v -163.211761 -18.729242 229.326233
v -164.293198 -18.922022 226.645721
v -157.297668 -14.671236 239.252747
v -152.644394 -15.624456 243.613342
v -165.369629 -18.947309 220.703247
v -165.989288 -17.852697 221.265259
v -165.223511 -17.344011 220.571930
v -163.485550 -16.626757 219.229126
v -165.369629 -17.732420 220.703247
v -163.947464 -17.037798 219.587036
v -163.642197 -17.055952 219.354126
v -163.817978 -18.588610 219.512878
v -164.283081 -17.732420 219.726959
v -163.548706 -19.036963 219.356079
v -163.582886 -18.607214 219.345093
v -143.452713 -19.236477 248.101105
v -142.830490 -19.236477 247.622437
v -140.198822 -19.236477 246.966187
v -142.894592 -18.675091 247.671722
v -140.137329 -18.675091 246.918884
v -140.087723 -16.165070 246.880707
v -140.144821 -15.611781 246.924622
v -142.844971 -16.165070 247.633575
v -143.467194 -16.165070 248.112274
v -140.905731 -17.495869 247.510010
v -143.398697 -15.611781 248.059601
v -145.551727 -16.766323 248.409546
v -145.688171 -19.489449 248.414215
v -146.627289 -17.647957 248.022552
v -146.600159 -18.256161 248.045319
v -164.260803 -17.076128 219.706940
v -164.976807 -16.987082 220.350281
v -164.217972 -18.339865 219.668427
v -164.210480 -18.947309 219.661713
v -164.644348 -19.554750 220.051575
v -164.976791 -19.554750 220.350281
v -165.329132 -18.339865 220.666840
vn 0.3280 0.8887 -0.3203
vn 0.1623 0.9838 -0.0757
vn 0.0942 0.9953 -0.0212
vn 0.0293 0.9991 0.0318
vn 0.0010 1.0000 0.0013
vn 0.0889 0.9957 -0.0251
vn 0.0157 0.9997 0.0204
vn 0.1171 0.9931 0.0086
vn -0.0529 0.9957 0.0755
vn -0.0304 0.9932 0.1127
vn 0.0457 0.9972 0.0594
vn -0.4242 0.8414 0.3350
vn -0.0882 0.9903 0.1074
vn -0.1255 0.9821 0.1405
vn -0.4182 0.8591 0.2951
vn -0.6623 0.3437 0.6657
vn -0.5907 0.5463 0.5938
vn -0.7639 0.3549 0.5391
vn -0.7467 0.3565 0.5616
vn -0.6827 0.5494 0.4818
vn -0.6676 0.5497 0.5022
vn -0.6720 -0.2930 0.6801
vn -0.6951 0.1422 0.7047
vn -0.7778 -0.3060 0.5489
vn -0.7602 -0.3087 0.5717
vn -0.8086 0.1434 0.5706
vn -0.7909 0.1435 0.5949
vn -0.5578 -0.6322 0.5377
vn -0.5035 -0.6897 0.5205
vn -0.6232 -0.6467 0.4398
vn -0.6098 -0.6464 0.4587
vn -0.5889 -0.6932 0.4156
vn -0.5757 -0.6935 0.4331
vn -0.3202 -0.8923 0.3182
vn -0.6044 -0.5972 0.5273
vn -0.3382 -0.9103 0.2387
vn -0.3244 -0.9139 0.2441
vn -0.6551 -0.5976 0.4623
vn -0.6406 -0.5979 0.4818
vn 0.0214 -0.9992 -0.0350
vn 0.0309 -0.9987 0.0402
vn 0.1573 -0.9824 -0.1011
vn 0.1740 -0.9841 0.0362
vn 0.3107 -0.9211 -0.2347
vn 0.1625 -0.9852 -0.0545
vn 0.1472 -0.9891 -0.0025
vn -0.0409 -0.9962 0.0770
vn -0.2335 -0.9360 0.2634
vn 0.1368 -0.9892 0.0521
vn 0.1800 -0.9833 -0.0278
vn 0.5235 -0.7575 -0.3900
vn 0.5422 -0.7817 -0.3081
vn 0.1624 -0.9800 -0.1146
vn 0.6870 -0.5955 -0.4164
vn 0.6649 -0.5768 -0.4745
vn 0.7859 -0.3252 -0.5260
vn 0.7459 -0.0934 -0.6595
vn 0.8206 -0.0919 -0.5641
vn 0.8435 -0.0871 -0.5301
vn 0.8088 0.1472 -0.5694
vn 0.6262 0.3836 -0.6787
vn 0.7891 0.2594 -0.5568
vn 0.4546 0.7105 -0.5372
vn 0.6385 0.5568 -0.5312
vn 0.4771 0.8201 -0.3161
vn 0.7843 0.3707 -0.4974
vn -0.0945 0.7469 -0.6582
vn -0.1225 0.6991 -0.7044
vn 0.1167 0.9650 -0.2349
vn 0.0551 0.9957 -0.0741
vn 0.1073 0.9820 -0.1554
vn 0.4533 0.7512 -0.4797
vn 0.1183 0.9841 -0.1321
vn 0.0469 0.9977 -0.0498
vn 0.1283 0.9843 -0.1212
vn 0.5298 0.7344 -0.4243
vn 0.1369 0.9845 -0.1095
vn 0.0502 0.9979 -0.0398
vn 0.6059 0.7797 -0.1580
vn -0.0892 0.9957 0.0259
vn 0.4070 0.9133 0.0131
vn 0.3592 0.8409 0.4048
vn -0.1300 0.9871 0.0938
vn 0.3291 0.8587 0.3929
vn -0.0193 0.9990 0.0402
vn -0.0751 0.9965 0.0360
vn -0.0509 0.9969 0.0593
vn -0.0137 0.9989 0.0450
vn 0.0019 0.9979 0.0651
vn -0.1320 0.8158 -0.5630
vn 0.0299 0.8716 -0.4892
vn -0.0069 0.9999 -0.0099
vn -0.0593 0.9976 0.0371
vn -0.0003 1.0000 -0.0003
vn -0.0185 0.9997 0.0151
vn -0.0750 0.9955 0.0571
vn -0.0396 0.9989 0.0268
vn -0.0767 0.9966 0.0313
vn -0.0257 0.9997 0.0057
vn -0.0076 1.0000 0.0050
vn -0.0188 0.9998 -0.0047
vn -0.0023 1.0000 -0.0030
vn -0.0121 0.9998 0.0160
vn 0.0561 0.9984 -0.0045
vn -0.0099 1.0000 -0.0004
vn -0.0039 1.0000 -0.0051
vn -0.0493 0.9986 0.0176
vn -0.0409 0.9990 0.0178
vn -0.0105 0.9986 0.0524
vn 0.0331 0.9985 0.0430
vn 0.0394 0.9979 0.0512
vn 0.0751 0.9971 0.0094
vn -0.2980 0.6782 -0.6718
vn -0.5613 0.6808 -0.4706
vn -0.1000 0.9934 0.0555
vn -0.7293 0.5924 -0.3424
vn -0.6750 0.7369 0.0356
vn -0.1590 0.9851 0.0662
vn -0.0429 0.9979 0.0492
vn -0.0979 0.9893 0.1080
vn -0.6739 0.7082 0.2105
vn -0.5572 0.7397 0.3772
vn -0.4720 0.8204 0.3228
vn -0.1416 0.9850 0.0985
vn -0.1218 0.9872 0.1028
vn -0.4327 0.8323 0.3466
vn -0.0113 0.9999 0.0103
vn -0.0151 0.9996 0.0246
vn 0.1597 0.6333 0.7572
vn 0.4221 0.7026 0.5729
vn 0.1015 0.9943 -0.0339
vn 0.0351 0.9992 -0.0196
vn -0.2474 0.7634 0.5967
vn -0.0798 0.9962 0.0362
vn 0.0136 0.9999 -0.0006
vn -0.3132 0.7913 0.5252
vn -0.9451 0.1944 0.2628
vn -0.9293 0.2355 0.2845
vn -0.9864 0.1597 0.0386
vn -0.9062 0.0981 -0.4113
vn -0.9769 0.2087 0.0459
vn -0.8983 0.1187 -0.4230
vn -0.7876 0.3481 0.5084
vn -0.7016 0.5484 0.4549
vn -0.8349 0.3514 0.4236
vn -0.7969 0.4017 0.4512
vn -0.7297 0.3550 0.5844
vn -0.6521 0.5496 0.5222
vn 0.1116 0.0873 0.9899
vn 0.1664 0.0987 0.9811
vn -0.3288 0.1910 0.9249
vn -0.3833 0.2184 0.8974
vn -0.5305 0.2372 0.8138
vn -0.4411 0.2265 0.8684
vn -0.3749 0.1624 0.9127
vn -0.5145 0.1975 0.8344
vn -0.5575 0.3932 0.7312
vn -0.4004 0.8322 0.3835
vn -0.9379 -0.2813 0.2031
vn -0.9609 0.1339 0.2422
vn -0.9999 0.0096 -0.0048
vn -0.9115 0.0159 -0.4110
vn -0.9929 0.1150 0.0304
vn -0.9015 0.0627 -0.4283
vn -0.8050 -0.2998 0.5119
vn -0.8332 0.1430 0.5341
vn -0.8692 -0.2707 0.4138
vn -0.8849 0.1420 0.4436
vn -0.7430 -0.3061 0.5951
vn -0.7724 0.1435 0.6187
vn 0.2384 0.0906 0.9669
vn 0.1498 0.0372 0.9880
vn -0.2929 0.0561 0.9545
vn -0.3646 0.1178 0.9237
vn -0.3846 0.2249 0.8953
vn -0.4406 0.1272 0.8887
vn -0.5009 0.1352 0.8549
vn -0.5148 -0.2258 0.8270
vn -0.5599 0.1377 0.8170
vn -0.8863 -0.0550 -0.4598
vn -0.9038 -0.1435 -0.4031
vn -0.8815 -0.4623 0.0956
vn -0.9146 -0.4016 -0.0466
vn -0.6417 -0.6337 0.4320
vn -0.6126 -0.6918 0.3823
vn -0.7800 -0.4794 0.4023
vn -0.8498 -0.4479 0.2777
vn -0.6821 -0.6611 0.3125
vn -0.7378 -0.6616 0.1342
vn -0.5952 -0.6469 0.4767
vn -0.5624 -0.6935 0.4504
vn 0.1139 0.1185 0.9864
vn 0.1665 0.2192 0.9614
vn -0.3429 0.3402 0.8756
vn -0.3984 0.3146 0.8616
vn -0.5132 -0.1560 0.8440
vn -0.4466 0.2282 0.8651
vn -0.4240 -0.0127 0.9056
vn -0.5611 -0.4275 0.7088
vn -0.4135 -0.6430 0.6447
vn -0.5398 -0.4287 0.7245
vn -0.4375 -0.6051 0.6651
vn -0.9325 -0.1335 -0.3355
vn -0.6473 -0.7579 0.0813
vn -0.9057 -0.2356 0.3524
vn -0.7630 -0.6368 -0.1106
vn -0.3491 -0.9127 0.2125
vn -0.6455 -0.5979 0.4753
vn -0.3866 -0.9054 0.1754
vn -0.7733 -0.4284 0.4674
vn -0.3230 -0.9104 0.2587
vn -0.6256 -0.5979 0.5011
vn 0.3364 -0.4309 0.8374
vn 0.2443 -0.0760 0.9667
vn -0.1766 -0.1600 0.9712
vn -0.4219 -0.2177 0.8801
vn -0.1842 -0.6505 0.7368
vn -0.6407 -0.2394 0.7295
vn -0.6148 -0.2389 0.7517
vn -0.2955 -0.7811 0.5501
vn -0.5808 -0.4235 0.6952
vn -0.1970 -0.9507 -0.2394
vn -0.2028 -0.9485 -0.2433
vn -0.3584 -0.8491 -0.3881
vn -0.8225 -0.4280 -0.3745
vn -0.5690 -0.4896 -0.6607
vn -0.0981 -0.9952 -0.0030
vn 0.0235 -0.9952 -0.0948
vn -0.0357 -0.9945 -0.0981
vn 0.0598 -0.9971 -0.0479
vn 0.0612 -0.9971 -0.0460
vn 0.5910 -0.4166 0.6907
vn 0.6226 -0.4483 0.6414
vn 0.4395 -0.7903 0.4269
vn 0.0716 -0.5491 0.8327
vn 0.3954 -0.8046 0.4431
vn 0.2428 -0.8942 0.3760
vn 0.1983 -0.8941 0.4016
vn 0.1269 -0.9619 0.2422
vn -0.2925 -0.7428 0.6022
vn 0.1293 -0.9581 0.2555
vn 0.1165 -0.9789 0.1681
vn 0.1190 -0.9772 0.1756
vn 0.0729 -0.9918 0.1053
vn -0.2613 -0.8840 0.3877
vn 0.0746 -0.9914 0.1076
vn -0.3143 -0.8569 -0.4085
vn -0.1864 -0.9521 -0.2423
vn -0.3479 -0.8555 -0.3835
vn -0.1730 -0.9848 -0.0153
vn 0.0284 -0.9975 -0.0640
vn -0.0535 -0.9968 -0.0588
vn -0.2010 -0.9743 0.1017
vn -0.1471 -0.9891 -0.0102
vn -0.0005 -0.9960 0.0895
vn -0.0644 -0.9966 0.0516
vn 0.5568 -0.3481 0.7542
vn 0.7754 -0.5450 0.3190
vn 0.4213 -0.7589 0.4965
vn 0.2816 -0.8870 0.3660
vn 0.2889 -0.8918 0.3482
vn 0.1646 -0.9629 0.2140
vn 0.1216 -0.9799 0.1581
vn 0.1804 -0.9835 0.0108
vn 0.1896 -0.9751 -0.1146
vn -0.3497 -0.9209 -0.1722
vn -0.3279 -0.7948 -0.5107
vn -0.1470 -0.9486 -0.2804
vn 0.1638 -0.2134 -0.9631
vn -0.3559 0.0400 -0.9337
vn 0.0602 -0.9886 -0.1378
vn 0.0875 -0.9934 -0.0736
vn -0.1700 -0.9851 0.0271
vn 0.0429 -0.9954 -0.0852
vn 0.4267 -0.8946 -0.1327
vn 0.1429 -0.9897 -0.0071
vn 0.1269 -0.9918 0.0161
vn 0.0453 -0.9841 -0.1720
vn 0.6659 -0.4753 0.5750
vn 0.3745 -0.4452 0.8133
vn 0.3403 -0.7884 0.5125
vn 0.3096 -0.8972 0.3149
vn 0.7331 -0.6781 0.0519
vn 0.2579 -0.9601 0.1084
vn 0.2116 -0.9731 -0.0908
vn 0.3890 -0.9141 -0.1147
vn -0.0338 -0.9976 0.0597
vn 0.0153 0.6662 -0.7456
vn 0.3444 0.1678 -0.9237
vn 0.4502 -0.1054 -0.8867
vn 0.4613 -0.2354 -0.8555
vn 0.2943 -0.6780 -0.6736
vn 0.5373 -0.4046 -0.7400
vn 0.6670 -0.1555 -0.7287
vn 0.5632 -0.5604 -0.6073
vn 0.2406 -0.9219 -0.3035
vn 0.5871 -0.6513 -0.4807
vn 0.6691 -0.4901 -0.5588
vn 0.5587 -0.7286 -0.3963
vn 0.9638 -0.2061 -0.1693
vn 0.9393 -0.3430 -0.0046
vn 0.9244 -0.3712 0.0877
vn 0.7744 -0.5660 0.2829
vn 0.9661 -0.2253 -0.1259
vn 0.9247 -0.1931 -0.3280
vn 0.4562 -0.8854 -0.0890
vn 0.7959 -0.5401 -0.2736
vn 0.8082 -0.4800 -0.3413
vn 0.5892 -0.7799 -0.2110
vn 0.5897 -0.7764 -0.2225
vn 0.2229 0.1914 -0.9559
vn 0.1901 -0.6951 -0.6933
vn -0.0490 -0.3315 -0.9422
vn 0.4312 -0.0522 -0.9007
vn 0.3508 -0.1251 -0.9281
vn 0.6299 0.0584 -0.7745
vn 0.4677 0.3562 -0.8089
vn 0.5943 0.1611 -0.7879
vn 0.0205 0.4213 -0.9067
vn 0.7126 -0.2756 -0.6452
vn 0.7132 -0.2351 -0.6604
vn 0.9480 0.0832 0.3071
vn 0.8935 -0.1345 0.4285
vn 0.9819 -0.0636 -0.1786
vn 0.9628 -0.1411 -0.2306
vn 0.9624 -0.0165 -0.2712
vn 0.9310 -0.0069 -0.3649
vn 0.9034 -0.1428 -0.4043
vn 0.7978 -0.3288 -0.5054
vn 0.7311 -0.5725 -0.3711
vn 0.8465 -0.2374 -0.4764
vn 0.5999 0.1393 -0.7879
vn 0.5367 0.1235 -0.8347
vn 0.4094 -0.0301 -0.9119
vn 0.6702 0.1389 -0.7290
vn 0.6628 0.2278 -0.7133
vn 0.6450 0.1406 -0.7512
vn 0.6527 0.1147 -0.7489
vn 0.6076 0.0751 -0.7907
vn 0.5468 0.3857 -0.7431
vn 0.8929 0.3098 0.3266
vn 0.8801 0.2619 0.3959
vn 0.9379 0.3013 -0.1716
vn 0.9410 0.1347 -0.3104
vn 0.9063 -0.0068 -0.4226
vn 0.8917 0.1356 -0.4318
vn 0.9152 0.1358 -0.3795
vn 0.8382 0.1429 -0.5264
vn 0.8786 -0.0014 -0.4775
vn 0.8653 0.1395 -0.4814
vn 0.6950 0.2404 -0.6776
vn 0.5958 0.5209 -0.6113
vn 0.6591 0.2465 -0.7105
vn 0.5063 0.7215 -0.4723
vn 0.7085 0.2515 -0.6594
vn 0.6127 0.4987 -0.6131
vn 0.9377 0.1857 -0.2936
vn 0.9392 0.2073 -0.2739
vn 0.9116 0.4041 -0.0752
vn 0.8461 0.3929 0.3602
vn 0.8770 0.1963 -0.4386
vn 0.8600 0.2433 -0.4486
vn 0.9059 0.1888 -0.3791
vn 0.8958 0.2273 -0.3820
vn 0.8173 0.2563 -0.5161
vn 0.8430 0.2547 -0.4738
vn 0.8163 0.3081 -0.4886
vn 0.6160 -0.0059 0.7877
vn 0.6237 -0.0000 0.7817
vn 0.0244 0.9639 -0.2652
vn -0.0858 0.9959 0.0302
vn -0.1716 0.9843 -0.0408
vn 0.6087 0.0313 0.7928
vn 0.8967 -0.2258 0.3808
vn 0.6602 -0.0119 0.7510
vn 0.8176 -0.3080 0.4864
vn 0.5348 -0.0502 0.8435
vn 0.3407 -0.0396 0.9393
vn 0.4839 0.0343 0.8745
vn 0.3862 -0.0124 0.9223
vn -0.0975 0.9263 0.3639
vn 0.2426 0.1333 0.9609
vn 0.3753 0.7392 0.5592
vn 0.5747 0.0615 0.8161
vn 0.1549 0.7153 0.6814
vn -0.2649 -0.5883 -0.7640
vn -0.3476 0.3240 -0.8799
vn -0.2313 0.0211 -0.9727
vn -0.4141 -0.0764 -0.9070
vn -0.4389 -0.1369 -0.8881
vn -0.2862 0.1285 -0.9495
vn -0.6097 -0.0000 -0.7926
vn -0.3992 0.0037 -0.9169
vn -0.3302 -0.1981 -0.9229
vn -0.6098 -0.0000 -0.7926
vn -0.4795 -0.4375 -0.7607
vn -0.6036 -0.1423 -0.7845
vn -0.5493 -0.1309 -0.8253
vn -0.0079 0.5206 -0.8538
vn -0.1150 0.2384 -0.9643
vn -0.3564 -0.0072 -0.9343
vn 0.5969 0.0332 0.8017
vn 0.6967 -0.0511 0.7156
vn 0.7332 0.0515 0.6780
vn 0.7009 0.0010 0.7132
vn 0.3726 -0.3131 0.8736
vn 0.6770 0.0073 0.7360
vn 0.5209 0.7892 -0.3254
vn 0.5500 0.7898 -0.2717
vn 0.5468 0.8036 -0.2351
vn 0.6656 0.1932 -0.7209
vn 0.4638 0.7303 -0.5015
vn 0.6763 0.1327 -0.7246
vn 0.1735 0.9459 -0.2742
vn 0.9389 0.2696 -0.2138
vn 0.7118 0.0820 -0.6976
vn 0.6704 -0.0013 -0.7420
vn 0.0653 -0.6078 -0.7914
vn 0.0754 0.9572 -0.2794
vn 0.0201 -0.9980 0.0606
vn 0.5140 -0.0887 -0.8532
vn 0.9285 -0.1438 -0.3423
vn 0.9744 -0.1946 -0.1127
vn 0.5779 0.0074 -0.8161
vn 0.2375 0.2680 -0.9337
vn 0.2297 -0.9713 0.0622
vn 0.1535 -0.9838 -0.0921
vn 0.2825 -0.9519 -0.1184
vn 0.1825 -0.9163 -0.3564
vn -0.0379 -0.5285 -0.8481
vn 0.2051 -0.9410 -0.2692
vn 0.1892 -0.9616 0.1991
vn 0.3370 -0.7305 0.5940
vn -0.2865 -0.8530 -0.4363
vn -0.5148 -0.4699 0.7171
vn -0.2712 0.0860 0.9587
vn -0.9464 -0.2241 0.2324
vn -0.5303 -0.2575 0.8078
vn -0.3152 0.2457 0.9167
vn -0.5349 0.3428 0.7723
vn -0.4418 0.1756 0.8798
vn -0.3134 0.1060 0.9437
vn -0.4341 0.7644 0.4767
vn -0.2345 0.8055 0.5442
vn -0.2209 0.7597 0.6115
vn -0.1076 0.9928 0.0521
vn 0.0146 0.9997 0.0189
vn 0.0378 0.9978 -0.0544
vn 0.0624 0.9895 -0.1303
vn 0.2632 0.9260 -0.2707
vn 0.4945 -0.0306 -0.8687
vt 0.678973 0.026474
vt 0.679681 0.051797
vt 0.619839 0.055944
vt 0.560704 0.085413
vt 0.559685 0.048950
vt 0.680389 0.077121
vt 0.681096 0.102445
vt 0.620546 0.081267
vt 0.681804 0.127768
vt 0.621962 0.131914
vt 0.621254 0.106591
vt 0.684250 0.215265
vt 0.623185 0.175663
vt 0.683027 0.171517
vt 0.624408 0.219412
vt 0.523597 0.903248
vt 0.513270 0.937715
vt 0.564069 0.901968
vt 0.609074 0.892187
vt 0.565447 0.938145
vt 0.620773 0.926885
vt 0.531877 0.849478
vt 0.528263 0.874033
vt 0.560652 0.843827
vt 0.593306 0.833680
vt 0.563385 0.870006
vt 0.600551 0.860756
vt 0.524256 0.788743
vt 0.527734 0.820895
vt 0.553625 0.779067
vt 0.581802 0.768948
vt 0.557801 0.810674
vt 0.587554 0.799860
vt 0.522387 0.735683
vt 0.523492 0.760511
vt 0.547479 0.727094
vt 0.573297 0.717351
vt 0.550438 0.752189
vt 0.577014 0.742813
vt 0.008995 0.327050
vt 0.035531 0.270797
vt 0.032843 0.327202
vt 0.011683 0.270644
vt 0.056691 0.327355
vt 0.083227 0.271101
vt 0.080539 0.327507
vt 0.059379 0.270949
vt 0.104387 0.327659
vt 0.130923 0.271406
vt 0.128235 0.327812
vt 0.107075 0.271254
vt 0.506682 0.567609
vt 0.526589 0.533701
vt 0.503116 0.549604
vt 0.531377 0.558563
vt 0.500053 0.530259
vt 0.524113 0.513676
vt 0.516138 0.494275
vt 0.536773 0.456692
vt 0.508625 0.461969
vt 0.478875 0.470095
vt 0.505170 0.429888
vt 0.541245 0.388708
vt 0.497604 0.397359
vt 0.551964 0.330097
vt 0.489134 0.354520
vt 0.403079 0.320500
vt 0.430102 0.373426
vt 0.931328 0.050464
vt 0.946910 0.084208
vt 0.932544 0.077609
vt 0.896533 0.086540
vt 0.895904 0.064044
vt 0.895275 0.041547
vt 0.838464 0.058908
vt 0.781652 0.076270
vt 0.780945 0.050946
vt 0.729605 0.026048
vt 0.730313 0.051372
vt 0.731021 0.076695
vt 0.357234 0.053381
vt 0.357957 0.079232
vt 0.335004 0.071713
vt 0.312774 0.090044
vt 0.335727 0.097563
vt 0.311084 0.093023
vt 0.459602 0.092035
vt 0.408418 0.072708
vt 0.458662 0.058399
vt 0.509213 0.055088
vt 0.510153 0.088724
vt 0.952905 0.103425
vt 0.958541 0.115519
vt 0.933565 0.114134
vt 0.897794 0.131668
vt 0.897164 0.109104
vt 0.839800 0.106728
vt 0.783068 0.126917
vt 0.782360 0.101593
vt 0.732436 0.127343
vt 0.731728 0.102019
vt 0.359616 0.138589
vt 0.336284 0.122967
vt 0.359148 0.121835
vt 0.336372 0.131597
vt 0.460864 0.137162
vt 0.410240 0.137876
vt 0.409771 0.121122
vt 0.358679 0.105082
vt 0.409141 0.098558
vt 0.562120 0.136061
vt 0.510861 0.114048
vt 0.561412 0.110737
vt 0.511492 0.136612
vt 0.970133 0.125141
vt 0.970541 0.139719
vt 0.933964 0.128404
vt 0.970948 0.154296
vt 0.943611 0.174592
vt 0.934371 0.142982
vt 0.840431 0.129292
vt 0.849671 0.160903
vt 0.916275 0.194889
vt 0.850894 0.204651
vt 0.785514 0.214414
vt 0.733659 0.171091
vt 0.784291 0.170665
vt 0.734882 0.214840
vt 0.359947 0.150433
vt 0.336420 0.136286
vt 0.313223 0.133983
vt 0.313176 0.129294
vt 0.450435 0.166751
vt 0.410571 0.149720
vt 0.360278 0.162277
vt 0.563343 0.179809
vt 0.501064 0.166200
vt 0.440007 0.196340
vt 0.775624 0.793753
vt 0.814755 0.805697
vt 0.823968 0.755099
vt 0.866561 0.708606
vt 0.868883 0.759623
vt 0.897752 0.707448
vt 0.676716 0.858489
vt 0.701439 0.881880
vt 0.728435 0.831727
vt 0.764626 0.847273
vt 0.645008 0.876693
vt 0.663643 0.906791
vt 0.188383 0.829925
vt 0.170064 0.838682
vt 0.199997 0.870244
vt 0.216465 0.910345
vt 0.247586 0.891271
vt 0.320757 0.984778
vt 0.359623 0.943219
vt 0.291844 0.928307
vt 0.276289 0.873214
vt 0.391864 0.906679
vt 0.432454 0.949200
vt 0.497550 0.984566
vt 0.720046 0.769731
vt 0.745507 0.780701
vt 0.766325 0.742563
vt 0.814665 0.705520
vt 0.799966 0.749792
vt 0.839736 0.707006
vt 0.645019 0.814503
vt 0.659187 0.834647
vt 0.682491 0.794734
vt 0.705035 0.812676
vt 0.620561 0.824197
vt 0.630937 0.848967
vt 0.229987 0.800132
vt 0.209347 0.814705
vt 0.250406 0.838349
vt 0.305136 0.851585
vt 0.331564 0.831820
vt 0.356309 0.871428
vt 0.415523 0.874667
vt 0.436611 0.847135
vt 0.473850 0.881302
vt 0.794265 0.699482
vt 0.774868 0.693972
vt 0.729917 0.711499
vt 0.749591 0.734445
vt 0.628946 0.754380
vt 0.636814 0.784792
vt 0.659063 0.741009
vt 0.688692 0.724694
vt 0.669035 0.770972
vt 0.704794 0.746483
vt 0.605353 0.762164
vt 0.612394 0.792594
vt 0.280670 0.787206
vt 0.256240 0.793483
vt 0.304525 0.811330
vt 0.359742 0.816874
vt 0.407979 0.827101
vt 0.384890 0.843861
vt 0.384952 0.803225
vt 0.423812 0.797631
vt 0.493765 0.823788
vt 0.458910 0.789813
vt 0.447541 0.816749
vt 0.757855 0.686729
vt 0.658455 0.701962
vt 0.671949 0.711896
vt 0.695077 0.693089
vt 0.614693 0.707997
vt 0.620780 0.729712
vt 0.637011 0.705245
vt 0.646689 0.725928
vt 0.594680 0.712470
vt 0.599154 0.736640
vt 0.314612 0.759907
vt 0.297776 0.773022
vt 0.348637 0.784789
vt 0.398386 0.784942
vt 0.411168 0.768792
vt 0.433869 0.780524
vt 0.469139 0.768463
vt 0.478371 0.750002
vt 0.498641 0.769011
vt 0.661808 0.650819
vt 0.661058 0.678462
vt 0.702209 0.662522
vt 0.741577 0.680426
vt 0.746719 0.658755
vt 0.060814 0.119220
vt 0.036966 0.119068
vt 0.035855 0.065142
vt 0.010895 0.011065
vt 0.032226 0.011201
vt 0.014371 0.214239
vt 0.037593 0.166729
vt 0.038219 0.214391
vt 0.013745 0.166577
vt 0.290304 0.733900
vt 0.302350 0.747555
vt 0.346496 0.729172
vt 0.366890 0.766085
vt 0.355950 0.741140
vt 0.055904 0.517980
vt 0.040637 0.517882
vt 0.056577 0.470327
vt 0.025370 0.517785
vt 0.019979 0.470093
vt 0.041310 0.470229
vt 0.057250 0.422673
vt 0.035919 0.422537
vt 0.056971 0.375014
vt 0.014589 0.422401
vt 0.011792 0.374725
vt 0.035640 0.374878
vt 0.703510 0.622879
vt 0.660771 0.621685
vt 0.702780 0.643237
vt 0.078434 0.065414
vt 0.084662 0.119373
vt 0.057185 0.065279
vt 0.062067 0.214543
vt 0.085289 0.167034
vt 0.085915 0.214696
vt 0.061441 0.166882
vt 0.248168 0.709567
vt 0.282211 0.717397
vt 0.341013 0.714964
vt 0.393412 0.726117
vt 0.383852 0.702535
vt 0.087459 0.518181
vt 0.071681 0.518081
vt 0.072354 0.470428
vt 0.078499 0.422809
vt 0.099748 0.422945
vt 0.078220 0.375150
vt 0.659026 0.593041
vt 0.699766 0.570624
vt 0.648027 0.570473
vt 0.742614 0.549927
vt 0.746516 0.566055
vt 0.108510 0.119525
vt 0.123450 0.065702
vt 0.132358 0.119677
vt 0.102282 0.065567
vt 0.109764 0.214848
vt 0.132985 0.167339
vt 0.133612 0.215001
vt 0.109137 0.167187
vt 0.294011 0.656074
vt 0.286686 0.675668
vt 0.338192 0.670750
vt 0.377485 0.679729
vt 0.379128 0.639043
vt 0.137848 0.518504
vt 0.112654 0.518343
vt 0.118798 0.470724
vt 0.122221 0.423088
vt 0.144693 0.423232
vt 0.124540 0.375446
vt 0.759458 0.533792
vt 0.712371 0.522590
vt 0.678496 0.506979
vt 0.661808 0.528480
vt 0.647669 0.545826
vt 0.628137 0.520209
vt 0.600661 0.498983
vt 0.598516 0.523209
vt 0.596158 0.545572
vt 0.574946 0.523580
vt 0.550751 0.494565
vt 0.553019 0.524701
vt 0.349974 0.576603
vt 0.307336 0.595037
vt 0.319544 0.613297
vt 0.343041 0.622234
vt 0.368389 0.588123
vt 0.396651 0.553249
vt 0.385344 0.597841
vt 0.418058 0.590200
vt 0.410690 0.566122
vt 0.439881 0.536722
vt 0.444187 0.560085
vt 0.474652 0.553736
vt 0.783023 0.519660
vt 0.803629 0.507763
vt 0.764349 0.480531
vt 0.722633 0.452017
vt 0.699231 0.481990
vt 0.660449 0.472996
vt 0.627396 0.443162
vt 0.613009 0.473461
vt 0.550765 0.494540
vt 0.615088 0.451515
vt 0.542396 0.477318
vt 0.577035 0.498444
vt 0.223886 0.596243
vt 0.241225 0.608206
vt 0.266390 0.572145
vt 0.329294 0.565045
vt 0.307495 0.551582
vt 0.358204 0.520599
vt 0.424381 0.518857
vt 0.489211 0.502438
vt 0.470984 0.532881
vt 0.456459 0.503587
vt 0.791185 0.371986
vt 0.756981 0.416978
vt 0.818287 0.421037
vt 0.699619 0.404320
vt 0.656946 0.360948
vt 0.642641 0.406225
vt 0.581378 0.448701
vt 0.586755 0.415426
vt 0.593849 0.372625
vt 0.166470 0.601000
vt 0.195997 0.598613
vt 0.205658 0.563839
vt 0.278581 0.541981
vt 0.408008 0.498127
vt 0.384710 0.477840
vt 0.326893 0.503012
vt 0.465629 0.444342
vt 0.443990 0.481975
vt 0.424303 0.456923
vt 0.862157 0.263083
vt 0.827281 0.319354
vt 0.881851 0.285309
vt 0.754025 0.306628
vt 0.701372 0.244894
vt 0.678330 0.306932
vt 0.622979 0.304233
vt 0.568146 0.246943
vt 0.246585 0.531320
vt 0.208000 0.521256
vt 0.163750 0.557488
vt 0.128145 0.613186
vt 0.358083 0.453796
vt 0.322946 0.426790
vt 0.300088 0.487994
vt 0.255558 0.468124
vt 0.451330 0.413563
vt 0.404616 0.429831
vt 0.371131 0.394070
vt 0.259621 0.764751
vt 0.283860 0.760667
vt 0.310799 0.098916
vt 0.335815 0.106213
vt 0.310407 0.107034
vt 0.214343 0.611356
vt 0.258934 0.619199
vt 0.216825 0.671810
vt 0.275122 0.639681
vt 0.252251 0.750441
vt 0.176449 0.779197
vt 0.174756 0.802771
vt 0.206816 0.756776
vt 0.108785 0.810759
vt 0.143519 0.799755
vt 0.151315 0.847626
vt 0.142161 0.838293
vt 0.133230 0.828863
vt 0.182762 0.814026
vt 0.126546 0.820935
vt 0.834931 0.468867
vt 0.796446 0.575378
vt 0.916869 0.563565
vt 0.903847 0.459312
vt 0.950332 0.529906
vt 0.937897 0.454511
vt 0.988172 0.574825
vt 0.985126 0.605535
vt 0.981401 0.632737
vt 0.922705 0.673919
vt 0.956770 0.670457
vt 0.870887 0.462715
vt 0.946917 0.564334
vt 0.783159 0.667641
vt 0.764184 0.663887
vt 0.750260 0.636173
vt 0.750845 0.612344
vt 0.892590 0.674024
vt 0.749361 0.589299
vt 0.770423 0.557524
vt 0.794478 0.545906
vt 0.849344 0.632752
vt 0.930999 0.705593
vt 0.982228 0.527589
vt 0.966285 0.446969
vt 0.161037 0.829537
vt 0.237970 0.687049
vt 0.126184 0.636202
vt 0.160821 0.649715
vt 0.243807 0.738363
vt 0.198399 0.656478
vt 0.090219 0.637201
vt 0.088413 0.625750
vt 0.336612 0.354575
vt 0.279734 0.395784
vt 0.215770 0.451065
vt 0.164797 0.511091
vt 0.123943 0.568169
vt 0.636433 0.242027
vt 0.723052 0.362036
vt 0.783485 0.250504
vt 0.862394 0.316525
vt 0.894140 0.277100
vt 0.233216 0.564201
vt 0.539739 0.425049
vt 0.675076 0.443501
vt 0.811019 0.446125
vt 0.926940 0.047858
vt 0.819990 0.456096
vt 0.826368 0.394949
vt 0.375157 0.535784
vt 0.282097 0.583523
vt 0.638086 0.498497
vt 0.730915 0.506392
vt 0.450309 0.582595
vt 0.479962 0.574972
vt 0.556083 0.550043
vt 0.576733 0.547662
vt 0.577044 0.498466
vt 0.621611 0.545042
vt 0.690173 0.542185
vt 0.152083 0.327964
vt 0.148388 0.375598
vt 0.102068 0.375302
vt 0.141271 0.470868
vt 0.093603 0.470563
vt 0.335069 0.687081
vt 0.156206 0.119830
vt 0.156833 0.167491
vt 0.157460 0.215153
vt 0.096055 0.011609
vt 0.117222 0.011744
vt 0.138389 0.011879
vt 0.147298 0.065854
vt 0.701288 0.591291
vt 0.053557 0.011337
vt 0.074806 0.011473
vt 0.401714 0.748453
vt 0.013118 0.118915
vt 0.012007 0.064990
vt 0.500521 0.742968
vt 0.491389 0.790302
vt 0.446710 0.759121
vt 0.334801 0.798498
vt 0.716004 0.703982
vt 0.488094 0.852107
vt 0.281670 0.819442
vt 0.460695 0.913080
vt 0.332331 0.894982
vt 0.231414 0.854047
vt 0.405729 0.995396
vt 0.263022 0.951140
vt 0.181694 0.880288
vt 0.636580 0.968660
vt 0.688788 0.942642
vt 0.734676 0.910351
vt 0.805035 0.869484
vt 0.861773 0.817661
vt 0.902476 0.761818
vt 0.564566 0.223558
vt 0.502286 0.209949
vt 0.400143 0.179308
vt 0.313128 0.124605
vt 0.336751 0.148130
vt 0.907035 0.163278
vt 0.460233 0.114599
vt 0.312733 0.120787
vt 0.310064 0.114129
vt 0.839093 0.081405
vt 0.932934 0.091571
vt 0.457722 0.024763
vt 0.508194 0.018625
vt 0.558666 0.012487
vt 0.407478 0.039072
vt 0.780237 0.025622
vt 0.837756 0.033585
vt 0.921906 0.044967
vt 0.481478 0.276227
vt 0.542365 0.477326
vt 0.154772 0.271558
vt 0.566964 0.984224
vt 0.618820 0.019480
vt 0.847133 0.355385
s 1
usemtl Cave_Material.007
f 27/1/1 380/2/2 381/3/3
f 1/4/4 382/5/5 381/3/3
f 2/6/6 114/7/7 113/8/8
f 3/9/9 116/10/10 115/11/11
f 8/12/12 383/13/13 384/14/14
f 8/12/12 385/15/15 383/13/13
f 6/16/16 386/17/17 119/18/18
f 7/19/19 387/20/20 120/21/21
f 9/22/22 121/23/23 122/24/24
f 10/25/25 123/26/26 124/27/27
f 11/28/28 125/29/29 126/30/30
f 12/31/31 127/32/32 128/33/33
f 13/34/34 129/35/35 130/36/36
f 14/37/37 131/38/38 132/39/39
f 13/40/34 133/41/40 134/42/41
f 13/40/34 130/43/36 133/41/40
f 15/44/42 137/45/43 138/46/44
f 15/44/42 135/47/45 137/45/43
f 17/48/46 141/49/47 142/50/48
f 17/48/46 139/51/49 141/49/47
f 19/52/50 145/53/51 146/54/52
f 19/52/50 143/55/53 145/53/51
f 21/56/54 147/57/55 149/58/56
f 22/59/57 150/60/58 149/58/56
f 23/61/59 150/60/58 152/62/60
f 24/63/61 154/64/62 152/62/60
f 24/63/61 156/65/63 157/66/64
f 26/67/65 159/68/66 157/66/64
f 29/69/67 160/70/68 161/71/69
f 30/72/70 388/73/71 161/71/69
f 111/74/72 388/73/71 390/75/73
f 31/76/74 164/77/75 390/75/73
f 27/1/1 392/78/76 393/79/77
f 31/76/74 165/80/78 393/79/77
f 35/81/79 167/82/80 168/83/81
f 33/84/82 169/85/83 166/86/84
f 37/87/85 171/88/86 172/89/87
f 35/81/79 171/88/86 167/82/80
f 1/4/4 175/90/88 382/5/5
f 1/4/4 176/91/89 175/90/88
f 28/92/90 177/93/91 178/94/92
f 40/95/93 180/96/94 178/94/92
f 30/72/70 180/96/94 181/97/95
f 41/98/96 183/99/97 181/97/95
f 31/76/74 183/99/97 165/80/78
f 41/98/96 185/100/98 184/101/99
f 43/102/100 187/103/101 188/104/102
f 43/102/100 189/105/103 187/103/101
f 44/106/104 190/107/105 191/108/106
f 36/109/107 174/110/108 191/108/106
f 4/111/109 193/112/110 117/113/111
f 4/111/109 194/114/112 193/112/110
f 39/115/113 395/116/114 179/117/115
f 49/118/116 397/119/117 396/120/118
f 41/98/96 182/121/119 196/122/120
f 45/123/121 398/124/122 196/122/120
f 52/125/123 400/126/124 399/127/125
f 52/125/123 210/128/126 400/126/124
f 43/102/100 197/129/127 402/130/128
f 53/131/129 401/132/130 402/130/128
f 44/106/104 198/133/131 199/134/132
f 46/135/133 197/129/127 199/134/132
f 4/111/109 118/136/134 201/137/135
f 47/138/136 198/133/131 201/137/135
f 50/139/137 404/140/138 204/141/139
f 48/142/140 405/143/141 203/144/142
f 51/145/143 205/146/144 206/147/145
f 50/139/137 207/148/146 404/140/138
f 7/19/19 120/21/21 208/149/147
f 51/145/143 209/150/148 205/146/144
f 54/151/149 211/152/150 406/153/151
f 46/154/133 407/155/152 406/153/151
f 47/156/136 408/157/153 409/158/154
f 55/159/155 407/155/152 409/158/154
f 56/160/156 408/157/153 410/161/157
f 5/162/158 386/17/17 410/161/157
f 58/163/159 216/164/160 217/165/161
f 57/166/162 218/167/163 215/168/164
f 59/169/165 219/170/166 220/171/167
f 58/163/159 221/172/168 216/164/160
f 10/25/25 124/27/27 222/173/169
f 59/169/165 223/174/170 219/170/166
f 60/175/171 224/176/172 225/177/173
f 55/159/155 226/178/174 225/177/173
f 61/179/175 226/178/174 228/180/176
f 56/160/156 229/181/177 228/180/176
f 62/182/178 229/181/177 231/183/179
f 6/16/16 121/23/23 231/183/179
f 57/166/162 233/184/180 217/165/161
f 63/185/181 235/186/182 234/187/183
f 65/188/184 237/189/185 238/190/186
f 64/191/187 239/192/188 236/193/189
f 12/31/31 128/33/33 240/194/190
f 65/188/184 241/195/191 237/189/185
f 66/196/192 242/197/193 243/198/194
f 61/179/175 244/199/195 243/198/194
f 62/182/178 246/200/196 230/201/197
f 67/202/198 246/200/196 247/203/199
f 9/22/22 125/29/29 249/204/200
f 68/205/201 248/206/202 249/204/200
f 63/185/181 251/207/203 235/186/182
f 70/208/204 253/209/205 254/210/206
f 71/211/207 255/212/208 256/213/209
f 70/208/204 257/214/210 253/209/205
f 14/37/37 132/39/39 258/215/211
f 71/211/207 259/216/212 255/212/208
f 72/217/213 260/218/214 261/219/215
f 67/202/198 262/220/216 261/219/215
f 73/221/217 262/220/216 264/222/218
f 68/205/201 265/223/219 264/222/218
f 74/224/220 265/223/219 267/225/221
f 11/28/28 129/35/35 267/225/221
f 76/226/222 270/227/223 271/228/224
f 69/229/225 269/230/226 271/228/224
f 77/231/227 273/232/228 274/233/229
f 70/234/204 270/235/223 274/233/229
f 14/236/37 276/237/230 136/238/231
f 14/236/37 258/239/211 276/237/230
f 78/240/232 278/241/233 279/242/234
f 72/217/213 263/243/235 280/244/236
f 79/245/237 281/246/238 282/247/239
f 73/248/217 266/249/240 283/250/241
f 80/251/242 284/252/243 285/253/244
f 74/254/220 268/255/245 286/256/246
f 76/226/222 288/257/247 289/258/248
f 76/226/222 272/259/249 288/257/247
f 77/231/227 291/260/250 292/261/251
f 77/231/227 275/262/252 291/260/250
f 16/263/253 294/264/254 140/265/255
f 16/263/253 277/266/256 294/264/254
f 84/267/257 296/268/258 297/269/259
f 79/270/237 298/271/260 297/269/259
f 85/272/261 298/273/260 300/274/262
f 80/251/242 301/275/263 300/274/262
f 86/276/264 301/275/263 303/277/265
f 15/44/42 138/46/44 303/277/265
f 82/278/266 306/279/267 307/280/268
f 87/281/269 306/279/267 305/282/270
f 83/283/271 309/284/272 310/285/273
f 83/283/271 293/286/274 309/284/272
f 18/287/275 312/288/276 144/289/277
f 18/287/275 295/290/278 312/288/276
f 90/291/279 314/292/280 315/293/281
f 85/294/261 316/295/282 315/293/281
f 91/296/283 316/297/282 318/298/284
f 86/276/264 319/299/285 318/298/284
f 92/300/286 319/299/285 321/301/287
f 17/48/46 142/50/48 321/301/287
f 87/281/269 323/302/288 324/303/289
f 94/304/290 326/305/291 324/303/289
f 88/306/292 326/305/291 327/307/293
f 95/308/294 329/309/295 327/307/293
f 89/310/296 329/309/295 330/311/297
f 112/312/298 148/313/299 330/311/297
f 97/314/300 333/315/301 334/316/302
f 90/291/279 317/317/303 334/316/302
f 97/314/300 335/318/304 336/319/305
f 91/320/283 320/321/306 337/322/307
f 98/323/308 338/324/309 339/325/310
f 19/52/50 146/54/52 339/325/310
f 93/326/311 341/327/312 342/328/313
f 100/329/314 344/330/315 342/328/313
f 94/304/290 344/330/315 345/331/316
f 101/332/317 347/333/318 345/331/316
f 112/334/298 420/335/319 419/336/320
f 95/308/294 347/333/318 331/337/321
f 102/338/322 349/339/323 350/340/324
f 97/314/300 352/341/325 333/315/301
f 103/342/326 352/341/325 353/343/327
f 98/323/308 355/344/328 336/319/305
f 21/56/54 151/345/329 340/346/330
f 98/323/308 356/347/331 355/344/328
f 106/348/332 361/349/333 359/350/334
f 100/329/314 361/349/333 362/351/335
f 107/352/336 364/353/337 362/351/335
f 22/59/57 348/354/338 365/355/339
f 107/352/336 366/356/340 365/355/339
f 108/357/341 367/358/342 368/359/343
f 103/342/326 370/360/344 350/340/324
f 104/361/345 371/362/346 353/343/327
f 103/342/326 372/363/347 370/360/344
f 23/61/59 155/364/348 357/365/349
f 104/361/345 374/366/350 371/362/346
f 111/367/72 377/368/351 376/369/352
f 106/348/332 377/368/351 412/370/353
f 32/371/354 413/372/355 412/370/353
f 107/352/336 413/372/355 378/373/356
f 27/374/1 156/65/63 378/373/356
f 109/375/357 415/376/358 368/359/343
f 108/357/341 416/377/359 414/378/360
f 110/379/361 417/380/362 373/381/363
f 109/375/357 418/382/364 415/376/358
f 25/383/365 159/68/66 375/384/366
f 110/379/361 379/385/367 417/380/362
f 78/240/232 427/386/368 424/387/369
f 452/388/370 170/389/371 451/390/372
f 108/357/341 422/391/373 367/358/342
f 96/392/374 423/393/375 332/394/376
f 78/240/232 424/387/369 278/241/233
f 96/392/374 422/391/373 423/393/375
f 84/267/257 426/395/377 296/268/258
f 449/396/378 428/397/379 429/398/380
f 34/399/381 428/397/379 450/400/382
f 53/401/129 211/152/150 401/402/130
f 42/403/383 431/404/384 186/405/385
f 60/175/171 431/404/384 224/176/172
f 99/406/386 439/407/387 435/408/388
f 105/409/389 432/410/390 411/411/391
f 28/412/90 432/410/390 177/413/91
f 39/414/113 434/415/392 395/416/114
f 105/409/389 358/417/393 433/418/394
f 48/142/140 434/415/392 215/168/164
f 57/166/162 437/419/395 233/184/180
f 63/185/181 438/420/395 251/207/203
f 75/421/396 439/407/387 287/422/397
f 57/166/162 436/423/395 437/419/395
f 81/424/398 442/425/399 305/282/270
f 93/326/311 442/425/399 341/327/312
f 442/425/399 81/424/398 440/426/400
f 442/425/399 440/426/400 341/327/312
f 341/327/312 440/426/400 99/406/386
f 442/425/399 93/326/311 323/302/288
f 442/425/399 323/302/288 305/282/270
f 305/282/270 323/302/288 87/281/269
f 436/423/395 39/414/113 441/427/401
f 436/423/395 441/427/401 437/419/395
f 437/419/395 441/427/401 75/421/396
f 439/407/387 99/406/386 440/426/400
f 439/407/387 440/426/400 287/422/397
f 287/422/397 440/426/400 81/424/398
f 438/420/395 75/421/396 269/230/226
f 438/420/395 269/230/226 251/207/203
f 251/207/203 269/230/226 69/229/225
f 437/419/395 75/421/396 438/420/395
f 437/419/395 438/420/395 233/184/180
f 233/184/180 438/420/395 63/185/181
f 434/415/392 39/414/113 436/423/395
f 434/415/392 436/423/395 215/168/164
f 215/168/164 436/423/395 57/166/162
f 358/417/393 99/406/386 435/408/388
f 358/417/393 435/408/388 433/418/394
f 433/418/394 435/408/388 39/414/113
f 434/415/392 48/142/140 203/144/142
f 434/415/392 203/144/142 395/416/114
f 395/416/114 203/144/142 49/428/116
f 432/410/390 105/409/389 433/418/394
f 432/410/390 433/418/394 177/413/91
f 177/413/91 433/418/394 39/414/113
f 432/410/390 28/412/90 160/429/68
f 432/410/390 160/429/68 411/411/391
f 411/411/391 160/429/68 29/430/67
f 439/407/387 75/421/396 441/427/401
f 439/407/387 441/427/401 435/408/388
f 435/408/388 441/427/401 39/414/113
f 431/404/384 42/403/383 430/431/402
f 431/404/384 430/431/402 224/176/172
f 224/176/172 430/431/402 54/151/149
f 431/404/384 60/175/171 428/397/379
f 431/404/384 428/397/379 186/405/385
f 186/405/385 428/397/379 34/399/381
f 211/152/150 54/151/149 430/431/402
f 211/152/150 430/431/402 401/402/130
f 401/402/130 430/431/402 42/403/383
f 450/400/382 428/397/379 449/396/378
f 314/292/280 448/432/403 84/267/257
f 421/433/404 453/434/405 108/357/341
f 428/397/379 60/175/171 426/395/377
f 428/397/379 426/395/377 429/398/380
f 447/435/406 426/395/377 84/267/257
f 426/395/377 60/175/171 427/386/368
f 426/395/377 427/386/368 296/268/258
f 296/268/258 427/386/368 78/240/232
f 422/391/373 108/357/341 425/436/407
f 422/391/373 425/436/407 423/393/375
f 429/398/380 426/395/377 447/435/406
f 424/387/369 66/196/192 260/218/214
f 424/387/369 260/218/214 278/241/233
f 278/241/233 260/218/214 72/217/213
f 423/393/375 448/432/403 314/292/280
f 423/393/375 314/292/280 332/394/376
f 332/394/376 314/292/280 90/291/279
f 422/391/373 96/392/374 349/339/323
f 422/391/373 349/339/323 367/358/342
f 367/358/342 349/339/323 102/338/322
f 421/433/404 108/357/341 414/378/360
f 421/433/404 414/378/360 166/437/84
f 166/437/84 414/378/360 33/438/82
f 427/386/368 60/175/171 242/197/193
f 427/386/368 242/197/193 424/387/369
f 424/387/369 242/197/193 66/196/192
f 379/385/367 26/67/65 394/439/408
f 379/385/367 394/439/408 417/380/362
f 417/380/362 394/439/408 38/440/409
f 159/68/66 26/67/65 379/385/367
f 159/68/66 379/385/367 375/384/366
f 375/384/366 379/385/367 110/379/361
f 418/382/364 38/440/409 173/441/410
f 418/382/364 173/441/410 415/376/358
f 415/376/358 173/441/410 35/442/79
f 417/380/362 38/440/409 418/382/364
f 417/380/362 418/382/364 373/381/363
f 373/381/363 418/382/364 109/375/357
f 416/377/359 35/442/79 168/443/81
f 416/377/359 168/443/81 414/378/360
f 414/378/360 168/443/81 33/438/82
f 415/376/358 35/442/79 416/377/359
f 415/376/358 416/377/359 368/359/343
f 368/359/343 416/377/359 108/357/341
f 156/65/63 24/63/61 366/356/340
f 156/65/63 366/356/340 378/373/356
f 378/373/356 366/356/340 107/352/336
f 413/372/355 32/371/354 392/444/76
f 413/372/355 392/444/76 378/373/356
f 378/373/356 392/444/76 27/374/1
f 413/372/355 107/352/336 363/445/411
f 413/372/355 363/445/411 412/370/353
f 412/370/353 363/445/411 106/348/332
f 377/368/351 111/367/72 391/446/412
f 377/368/351 391/446/412 412/370/353
f 412/370/353 391/446/412 32/371/354
f 377/368/351 106/348/332 360/447/413
f 377/368/351 360/447/413 376/369/352
f 376/369/352 389/448/414 111/367/72
f 374/366/350 25/383/365 375/384/366
f 374/366/350 375/384/366 371/362/346
f 371/362/346 375/384/366 110/379/361
f 155/364/348 25/383/365 374/366/350
f 155/364/348 374/366/350 357/365/349
f 357/365/349 374/366/350 104/361/345
f 372/363/347 110/379/361 373/381/363
f 372/363/347 373/381/363 370/360/344
f 370/360/344 373/381/363 109/375/357
f 371/362/346 110/379/361 372/363/347
f 371/362/346 372/363/347 353/343/327
f 353/343/327 372/363/347 103/342/326
f 370/360/344 109/375/357 369/449/415
f 370/360/344 369/449/415 350/340/324
f 350/340/324 369/449/415 102/338/322
f 367/358/342 102/338/322 369/449/415
f 367/358/342 369/449/415 368/359/343
f 368/359/343 369/449/415 109/375/357
f 366/356/340 24/63/61 153/450/416
f 366/356/340 153/450/416 365/355/339
f 365/355/339 153/450/416 22/59/57
f 348/354/338 101/332/317 364/353/337
f 348/354/338 364/353/337 365/355/339
f 365/355/339 364/353/337 107/352/336
f 364/353/337 101/332/317 346/451/417
f 364/353/337 346/451/417 362/351/335
f 362/351/335 346/451/417 100/329/314
f 361/349/333 106/348/332 363/445/411
f 361/349/333 363/445/411 362/351/335
f 362/351/335 363/445/411 107/352/336
f 361/349/333 100/329/314 343/452/418
f 361/349/333 343/452/418 359/350/334
f 161/71/69 444/453/419 29/69/67
f 341/327/312 443/454/420 343/452/418
f 359/350/334 445/455/421 106/348/332
f 356/347/331 23/61/59 357/365/349
f 356/347/331 357/365/349 355/344/328
f 355/344/328 357/365/349 104/361/345
f 151/345/329 23/61/59 356/347/331
f 151/345/329 356/347/331 340/346/330
f 340/346/330 356/347/331 98/323/308
f 355/344/328 104/361/345 354/456/422
f 355/344/328 354/456/422 336/319/305
f 336/319/305 354/456/422 97/314/300
f 352/341/325 97/314/300 354/456/422
f 352/341/325 354/456/422 353/343/327
f 353/343/327 354/456/422 104/361/345
f 352/341/325 103/342/326 351/457/423
f 352/341/325 351/457/423 333/315/301
f 333/315/301 351/457/423 96/392/374
f 349/339/323 96/392/374 351/457/423
f 349/339/323 351/457/423 350/340/324
f 350/340/324 351/457/423 103/342/326
f 347/333/318 101/332/317 420/335/319
f 347/333/318 420/335/319 331/337/321
f 331/337/321 420/335/319 112/334/298
f 420/335/319 101/332/317 348/354/338
f 420/335/319 348/354/338 419/336/320
f 419/336/320 348/354/338 22/59/57
f 347/333/318 95/308/294 328/458/424
f 347/333/318 328/458/424 345/331/316
f 345/331/316 328/458/424 94/304/290
f 344/330/315 100/329/314 346/451/417
f 344/330/315 346/451/417 345/331/316
f 345/331/316 346/451/417 101/332/317
f 344/330/315 94/304/290 325/459/425
f 344/330/315 325/459/425 342/328/313
f 342/328/313 325/459/425 93/326/311
f 99/406/386 443/454/420 341/327/312
f 341/327/312 343/452/418 342/328/313
f 342/328/313 343/452/418 100/329/314
f 146/54/52 21/56/54 340/346/330
f 146/54/52 340/346/330 339/325/310
f 339/325/310 340/346/330 98/323/308
f 338/324/309 92/460/286 322/461/426
f 338/324/309 322/461/426 339/325/310
f 339/325/310 322/461/426 19/52/50
f 320/321/306 92/460/286 338/324/309
f 320/321/306 338/324/309 337/322/307
f 337/322/307 338/324/309 98/323/308
f 335/318/304 91/320/283 337/322/307
f 335/318/304 337/322/307 336/319/305
f 336/319/305 337/322/307 98/323/308
f 317/317/303 91/320/283 335/318/304
f 317/317/303 335/318/304 334/316/302
f 334/316/302 335/318/304 97/314/300
f 333/315/301 96/392/374 332/394/376
f 333/315/301 332/394/376 334/316/302
f 334/316/302 332/394/376 90/291/279
f 148/313/299 20/462/427 313/463/428
f 148/313/299 313/463/428 330/311/297
f 330/311/297 313/463/428 89/310/296
f 329/309/295 95/308/294 331/464/321
f 329/309/295 331/464/321 330/311/297
f 330/311/297 331/464/321 112/312/298
f 329/309/295 89/310/296 311/465/429
f 329/309/295 311/465/429 327/307/293
f 327/307/293 311/465/429 88/306/292
f 326/305/291 94/304/290 328/458/424
f 326/305/291 328/458/424 327/307/293
f 327/307/293 328/458/424 95/308/294
f 326/305/291 88/306/292 308/466/430
f 326/305/291 308/466/430 324/303/289
f 324/303/289 308/466/430 87/281/269
f 323/302/288 93/326/311 325/459/425
f 323/302/288 325/459/425 324/303/289
f 324/303/289 325/459/425 94/304/290
f 142/50/48 19/467/50 322/468/426
f 142/50/48 322/468/426 321/301/287
f 321/301/287 322/468/426 92/300/286
f 319/299/285 86/276/264 304/469/431
f 319/299/285 304/469/431 321/301/287
f 321/301/287 304/469/431 17/48/46
f 319/299/285 92/300/286 320/470/306
f 319/299/285 320/470/306 318/298/284
f 318/298/284 320/470/306 91/296/283
f 316/297/282 85/272/261 302/471/432
f 316/297/282 302/471/432 318/298/284
f 318/298/284 302/471/432 86/276/264
f 316/295/282 91/320/283 317/317/303
f 316/295/282 317/317/303 315/293/281
f 315/293/281 317/317/303 90/291/279
f 314/292/280 84/267/257 299/472/433
f 314/292/280 299/472/433 315/293/281
f 315/293/281 299/472/433 85/294/261
f 295/290/278 83/283/271 310/285/273
f 295/290/278 310/285/273 312/288/276
f 312/288/276 310/285/273 89/473/296
f 312/288/276 89/473/296 313/474/428
f 312/288/276 313/474/428 144/289/277
f 144/289/277 313/474/428 20/475/427
f 293/286/274 82/476/266 307/477/268
f 293/286/274 307/477/268 309/284/272
f 309/284/272 307/477/268 88/478/292
f 309/284/272 88/478/292 311/479/429
f 309/284/272 311/479/429 310/285/273
f 310/285/273 311/479/429 89/473/296
f 306/279/267 82/278/266 290/480/434
f 306/279/267 290/480/434 305/282/270
f 305/282/270 290/480/434 81/424/398
f 306/279/267 87/281/269 308/466/430
f 306/279/267 308/466/430 307/280/268
f 307/280/268 308/466/430 88/306/292
f 138/46/44 17/48/46 304/469/431
f 138/46/44 304/469/431 303/277/265
f 303/277/265 304/469/431 86/276/264
f 301/275/263 80/251/242 285/253/244
f 301/275/263 285/253/244 303/277/265
f 303/277/265 285/253/244 15/44/42
f 301/275/263 86/276/264 302/471/432
f 301/275/263 302/471/432 300/274/262
f 300/274/262 302/471/432 85/272/261
f 298/273/260 79/245/237 282/247/239
f 298/273/260 282/247/239 300/274/262
f 300/274/262 282/247/239 80/251/242
f 298/271/260 85/294/261 299/472/433
f 298/271/260 299/472/433 297/269/259
f 297/269/259 299/472/433 84/267/257
f 296/268/258 78/240/232 279/242/234
f 296/268/258 279/242/234 297/269/259
f 297/269/259 279/242/234 79/270/237
f 277/266/256 77/231/227 292/261/251
f 277/266/256 292/261/251 294/264/254
f 294/264/254 292/261/251 83/283/271
f 294/264/254 83/283/271 295/290/278
f 294/264/254 295/290/278 140/265/255
f 140/265/255 295/290/278 18/287/275
f 275/262/252 76/481/222 289/482/248
f 275/262/252 289/482/248 291/260/250
f 291/260/250 289/482/248 82/476/266
f 291/260/250 82/476/266 293/286/274
f 291/260/250 293/286/274 292/261/251
f 292/261/251 293/286/274 83/283/271
f 272/259/249 75/421/396 287/422/397
f 272/259/249 287/422/397 288/257/247
f 288/257/247 287/422/397 81/424/398
f 288/257/247 81/424/398 290/480/434
f 288/257/247 290/480/434 289/258/248
f 289/258/248 290/480/434 82/278/266
f 268/255/245 13/40/34 134/42/41
f 268/255/245 134/42/41 286/256/246
f 286/256/246 134/42/41 15/44/42
f 284/252/243 74/254/220 286/256/246
f 284/252/243 286/256/246 285/253/244
f 285/253/244 286/256/246 15/44/42
f 266/249/240 74/254/220 284/252/243
f 266/249/240 284/252/243 283/250/241
f 283/250/241 284/252/243 80/251/242
f 281/246/238 73/248/217 283/250/241
f 281/246/238 283/250/241 282/247/239
f 282/247/239 283/250/241 80/251/242
f 263/243/235 73/221/217 281/483/238
f 263/243/235 281/483/238 280/244/236
f 280/244/236 281/483/238 79/270/237
f 278/241/233 72/217/213 280/244/236
f 278/241/233 280/244/236 279/242/234
f 279/242/234 280/244/236 79/270/237
f 258/239/211 71/484/207 273/232/228
f 258/239/211 273/232/228 276/237/230
f 276/237/230 273/232/228 77/231/227
f 276/237/230 77/231/227 277/266/256
f 276/237/230 277/266/256 136/238/231
f 136/238/231 277/266/256 16/263/253
f 270/235/223 76/481/222 275/262/252
f 270/235/223 275/262/252 274/233/229
f 274/233/229 275/262/252 77/231/227
f 273/232/228 71/484/207 256/485/209
f 273/232/228 256/485/209 274/233/229
f 274/233/229 256/485/209 70/234/204
f 269/230/226 75/421/396 272/259/249
f 269/230/226 272/259/249 271/228/224
f 271/228/224 272/259/249 76/226/222
f 270/227/223 70/208/204 254/210/206
f 270/227/223 254/210/206 271/228/224
f 271/228/224 254/210/206 69/229/225
f 129/35/35 13/34/34 268/486/245
f 129/35/35 268/486/245 267/225/221
f 267/225/221 268/486/245 74/224/220
f 265/223/219 68/205/201 250/487/435
f 265/223/219 250/487/435 267/225/221
f 267/225/221 250/487/435 11/28/28
f 265/223/219 74/224/220 266/488/240
f 265/223/219 266/488/240 264/222/218
f 264/222/218 266/488/240 73/221/217
f 262/220/216 67/202/198 247/203/199
f 262/220/216 247/203/199 264/222/218
f 264/222/218 247/203/199 68/205/201
f 262/220/216 73/221/217 263/243/235
f 262/220/216 263/243/235 261/219/215
f 261/219/215 263/243/235 72/217/213
f 260/218/214 66/196/192 245/489/436
f 260/218/214 245/489/436 261/219/215
f 261/219/215 245/489/436 67/202/198
f 259/216/212 12/31/31 240/194/190
f 259/216/212 240/194/190 255/212/208
f 255/212/208 240/194/190 65/188/184
f 132/39/39 12/31/31 259/216/212
f 132/39/39 259/216/212 258/215/211
f 258/215/211 259/216/212 71/211/207
f 257/214/210 65/188/184 238/190/186
f 257/214/210 238/190/186 253/209/205
f 253/209/205 238/190/186 64/191/187
f 255/212/208 65/188/184 257/214/210
f 255/212/208 257/214/210 256/213/209
f 256/213/209 257/214/210 70/208/204
f 253/209/205 64/191/187 252/490/437
f 253/209/205 252/490/437 254/210/206
f 254/210/206 252/490/437 69/229/225
f 251/207/203 69/229/225 252/490/437
f 251/207/203 252/490/437 235/186/182
f 235/186/182 252/490/437 64/191/187
f 248/206/202 62/182/178 232/491/438
f 248/206/202 232/491/438 249/204/200
f 249/204/200 232/491/438 9/22/22
f 125/29/29 11/28/28 250/487/435
f 125/29/29 250/487/435 249/204/200
f 249/204/200 250/487/435 68/205/201
f 246/200/196 62/182/178 248/206/202
f 246/200/196 248/206/202 247/203/199
f 247/203/199 248/206/202 68/205/201
f 246/200/196 67/202/198 244/199/195
f 246/200/196 244/199/195 230/201/197
f 230/201/197 244/199/195 61/179/175
f 244/199/195 67/202/198 245/489/436
f 244/199/195 245/489/436 243/198/194
f 243/198/194 245/489/436 66/196/192
f 242/197/193 60/175/171 227/492/439
f 242/197/193 227/492/439 243/198/194
f 243/198/194 227/492/439 61/179/175
f 241/195/191 10/25/25 222/173/169
f 241/195/191 222/173/169 237/189/185
f 237/189/185 222/173/169 59/169/165
f 128/33/33 10/25/25 241/195/191
f 128/33/33 241/195/191 240/194/190
f 240/194/190 241/195/191 65/188/184
f 239/192/188 59/169/165 220/171/167
f 239/192/188 220/171/167 236/193/189
f 236/193/189 220/171/167 58/163/159
f 237/189/185 59/169/165 239/192/188
f 237/189/185 239/192/188 238/190/186
f 238/190/186 239/192/188 64/191/187
f 235/186/182 64/191/187 236/193/189
f 235/186/182 236/193/189 234/187/183
f 234/187/183 236/193/189 58/163/159
f 233/184/180 63/185/181 234/187/183
f 233/184/180 234/187/183 217/165/161
f 217/165/161 234/187/183 58/163/159
f 121/23/23 9/22/22 232/491/438
f 121/23/23 232/491/438 231/183/179
f 231/183/179 232/491/438 62/182/178
f 229/181/177 56/160/156 214/493/440
f 229/181/177 214/493/440 231/183/179
f 231/183/179 214/493/440 6/16/16
f 229/181/177 62/182/178 230/201/197
f 229/181/177 230/201/197 228/180/176
f 228/180/176 230/201/197 61/179/175
f 226/178/174 55/159/155 213/494/441
f 226/178/174 213/494/441 228/180/176
f 228/180/176 213/494/441 56/160/156
f 226/178/174 61/179/175 227/492/439
f 226/178/174 227/492/439 225/177/173
f 225/177/173 227/492/439 60/175/171
f 224/176/172 54/151/149 212/495/442
f 224/176/172 212/495/442 225/177/173
f 225/177/173 212/495/442 55/159/155
f 223/174/170 7/19/19 208/149/147
f 223/174/170 208/149/147 219/170/166
f 219/170/166 208/149/147 51/145/143
f 124/27/27 7/19/19 223/174/170
f 124/27/27 223/174/170 222/173/169
f 222/173/169 223/174/170 59/169/165
f 221/172/168 51/145/143 206/147/145
f 221/172/168 206/147/145 216/164/160
f 216/164/160 206/147/145 50/139/137
f 219/170/166 51/145/143 221/172/168
f 219/170/166 221/172/168 220/171/167
f 220/171/167 221/172/168 58/163/159
f 218/167/163 50/139/137 204/141/139
f 218/167/163 204/141/139 215/168/164
f 215/168/164 204/141/139 48/142/140
f 216/164/160 50/139/137 218/167/163
f 216/164/160 218/167/163 217/165/161
f 217/165/161 218/167/163 57/166/162
f 386/17/17 6/16/16 214/493/440
f 386/17/17 214/493/440 410/161/157
f 410/161/157 214/493/440 56/160/156
f 408/157/153 47/156/136 202/496/443
f 408/157/153 202/496/443 410/161/157
f 410/161/157 202/496/443 5/162/158
f 407/155/152 46/154/133 200/497/444
f 407/155/152 200/497/444 409/158/154
f 409/158/154 200/497/444 47/156/136
f 408/157/153 56/160/156 213/494/441
f 408/157/153 213/494/441 409/158/154
f 409/158/154 213/494/441 55/159/155
f 407/155/152 55/159/155 212/495/442
f 407/155/152 212/495/442 406/153/151
f 406/153/151 212/495/442 54/151/149
f 211/152/150 53/401/129 403/498/445
f 211/152/150 403/498/445 406/153/151
f 406/153/151 403/498/445 46/154/133
f 209/150/148 8/499/12 210/500/126
f 209/150/148 210/500/126 205/146/144
f 205/146/144 210/500/126 52/501/123
f 120/21/21 8/499/12 209/150/148
f 120/21/21 209/150/148 208/149/147
f 208/149/147 209/150/148 51/145/143
f 207/148/146 52/501/123 398/502/122
f 207/148/146 398/502/122 404/140/138
f 404/140/138 398/502/122 45/503/121
f 205/146/144 52/501/123 207/148/146
f 205/146/144 207/148/146 206/147/145
f 206/147/145 207/148/146 50/139/137
f 405/143/141 45/503/121 397/504/117
f 405/143/141 397/504/117 203/144/142
f 203/144/142 397/504/117 49/428/116
f 404/140/138 45/503/121 405/143/141
f 404/140/138 405/143/141 204/141/139
f 204/141/139 405/143/141 48/142/140
f 198/133/131 44/106/104 194/114/112
f 198/133/131 194/114/112 201/137/135
f 201/137/135 194/114/112 4/111/109
f 118/136/134 5/505/158 202/506/443
f 118/136/134 202/506/443 201/137/135
f 201/137/135 202/506/443 47/138/136
f 197/129/127 43/102/100 190/107/105
f 197/129/127 190/107/105 199/134/132
f 199/134/132 190/107/105 44/106/104
f 198/133/131 47/138/136 200/507/444
f 198/133/131 200/507/444 199/134/132
f 199/134/132 200/507/444 46/135/133
f 401/132/130 42/508/383 189/105/103
f 401/132/130 189/105/103 402/130/128
f 402/130/128 189/105/103 43/102/100
f 197/129/127 46/135/133 403/509/445
f 197/129/127 403/509/445 402/130/128
f 402/130/128 403/509/445 53/131/129
f 210/128/126 8/12/12 384/14/14
f 210/128/126 384/14/14 400/126/124
f 400/126/124 384/14/14 3/9/9
f 400/126/124 3/9/9 185/100/98
f 400/126/124 185/100/98 399/127/125
f 399/127/125 185/100/98 41/98/96
f 398/124/122 52/125/123 399/127/125
f 398/124/122 399/127/125 196/122/120
f 196/122/120 399/127/125 41/98/96
f 182/121/119 40/95/93 195/510/446
f 182/121/119 195/510/446 196/122/120
f 196/122/120 195/510/446 45/123/121
f 397/119/117 45/123/121 195/510/446
f 397/119/117 195/510/446 396/120/118
f 396/120/118 195/510/446 40/95/93
f 395/116/114 49/118/116 396/120/118
f 395/116/114 396/120/118 179/117/115
f 179/117/115 396/120/118 40/95/93
f 194/114/112 44/106/104 192/511/447
f 194/114/112 192/511/447 193/112/110
f 193/112/110 192/511/447 37/87/85
f 193/112/110 37/87/85 176/91/89
f 193/112/110 176/91/89 117/113/111
f 117/113/111 176/91/89 1/4/4
f 174/110/108 37/87/85 192/511/447
f 174/110/108 192/511/447 191/108/106
f 191/108/106 192/511/447 44/106/104
f 190/107/105 43/102/100 188/104/102
f 190/107/105 188/104/102 191/108/106
f 191/108/106 188/104/102 36/109/107
f 189/105/103 42/508/383 186/512/385
f 189/105/103 186/512/385 187/103/101
f 187/103/101 186/512/385 34/513/381
f 187/103/101 34/513/381 170/389/371
f 187/103/101 170/389/371 188/104/102
f 188/104/102 170/389/371 36/109/107
f 185/100/98 3/9/9 114/7/7
f 185/100/98 114/7/7 184/101/99
f 184/101/99 114/7/7 2/6/6
f 183/99/97 41/98/96 184/101/99
f 183/99/97 184/101/99 165/80/78
f 165/80/78 184/101/99 2/6/6
f 183/99/97 31/76/74 163/514/448
f 183/99/97 163/514/448 181/97/95
f 181/97/95 163/514/448 30/72/70
f 180/96/94 40/95/93 182/121/119
f 180/96/94 182/121/119 181/97/95
f 181/97/95 182/121/119 41/98/96
f 180/96/94 30/72/70 162/515/449
f 180/96/94 162/515/449 178/94/92
f 178/94/92 162/515/449 28/92/90
f 177/93/91 39/115/113 179/117/115
f 177/93/91 179/117/115 178/94/92
f 178/94/92 179/117/115 40/95/93
f 176/91/89 37/87/85 172/89/87
f 176/91/89 172/89/87 175/90/88
f 175/90/88 172/89/87 38/516/409
f 175/90/88 38/516/409 394/517/408
f 175/90/88 394/517/408 382/5/5
f 382/5/5 394/517/408 26/518/65
f 171/88/86 37/87/85 174/110/108
f 171/88/86 174/110/108 167/82/80
f 167/82/80 174/110/108 36/109/107
f 171/88/86 35/81/79 173/519/410
f 171/88/86 173/519/410 172/89/87
f 172/89/87 173/519/410 38/516/409
f 169/85/83 36/109/107 170/389/371
f 169/85/83 170/389/371 166/86/84
f 451/390/372 170/389/371 34/513/381
f 167/82/80 36/109/107 169/85/83
f 167/82/80 169/85/83 168/83/81
f 168/83/81 169/85/83 33/84/82
f 165/80/78 2/6/6 380/2/2
f 165/80/78 380/2/2 393/79/77
f 393/79/77 380/2/2 27/1/1
f 392/78/76 32/520/354 164/77/75
f 392/78/76 164/77/75 393/79/77
f 393/79/77 164/77/75 31/76/74
f 164/77/75 32/520/354 391/521/412
f 164/77/75 391/521/412 390/75/73
f 390/75/73 391/521/412 111/74/72
f 388/73/71 30/72/70 163/514/448
f 388/73/71 163/514/448 390/75/73
f 390/75/73 163/514/448 31/76/74
f 388/73/71 111/74/72 389/522/414
f 388/73/71 389/522/414 161/71/69
f 389/522/414 444/453/419 161/71/69
f 160/70/68 28/92/90 162/515/449
f 160/70/68 162/515/449 161/71/69
f 161/71/69 162/515/449 30/72/70
f 159/68/66 25/383/365 154/64/62
f 159/68/66 154/64/62 157/66/64
f 157/66/64 154/64/62 24/63/61
f 156/65/63 27/374/1 158/523/450
f 156/65/63 158/523/450 157/66/64
f 157/66/64 158/523/450 26/67/65
f 154/64/62 25/383/365 155/364/348
f 154/64/62 155/364/348 152/62/60
f 152/62/60 155/364/348 23/61/59
f 150/60/58 22/59/57 153/450/416
f 150/60/58 153/450/416 152/62/60
f 152/62/60 153/450/416 24/63/61
f 150/60/58 23/61/59 151/345/329
f 150/60/58 151/345/329 149/58/56
f 149/58/56 151/345/329 21/56/54
f 147/57/55 112/312/298 419/524/320
f 147/57/55 419/524/320 149/58/56
f 149/58/56 419/524/320 22/59/57
f 143/55/53 20/462/427 148/313/299
f 143/55/53 148/313/299 145/53/51
f 145/53/51 148/313/299 112/312/298
f 145/53/51 112/312/298 147/57/55
f 145/53/51 147/57/55 146/54/52
f 146/54/52 147/57/55 21/56/54
f 139/51/49 18/287/275 144/289/277
f 139/51/49 144/289/277 141/49/47
f 141/49/47 144/289/277 20/475/427
f 141/49/47 20/475/427 143/525/53
f 141/49/47 143/525/53 142/50/48
f 142/50/48 143/525/53 19/467/50
f 135/47/45 16/263/253 140/265/255
f 135/47/45 140/265/255 137/45/43
f 137/45/43 140/265/255 18/287/275
f 137/45/43 18/287/275 139/51/49
f 137/45/43 139/51/49 138/46/44
f 138/46/44 139/51/49 17/48/46
f 130/43/36 14/236/37 136/238/231
f 130/43/36 136/238/231 133/41/40
f 133/41/40 136/238/231 16/263/253
f 133/41/40 16/263/253 135/47/45
f 133/41/40 135/47/45 134/42/41
f 134/42/41 135/47/45 15/44/42
f 131/38/38 11/28/28 126/30/30
f 131/38/38 126/30/30 132/39/39
f 132/39/39 126/30/30 12/31/31
f 129/35/35 11/28/28 131/38/38
f 129/35/35 131/38/38 130/36/36
f 130/36/36 131/38/38 14/37/37
f 127/32/32 9/22/22 122/24/24
f 127/32/32 122/24/24 128/33/33
f 128/33/33 122/24/24 10/25/25
f 125/29/29 9/22/22 127/32/32
f 125/29/29 127/32/32 126/30/30
f 126/30/30 127/32/32 12/31/31
f 123/26/26 6/16/16 119/18/18
f 123/26/26 119/18/18 124/27/27
f 124/27/27 119/18/18 7/19/19
f 121/23/23 6/16/16 123/26/26
f 121/23/23 123/26/26 122/24/24
f 122/24/24 123/26/26 10/25/25
f 387/20/20 5/162/158 385/526/15
f 387/20/20 385/526/15 120/21/21
f 120/21/21 385/526/15 8/499/12
f 386/17/17 5/162/158 387/20/20
f 386/17/17 387/20/20 119/18/18
f 119/18/18 387/20/20 7/19/19
f 385/15/15 5/505/158 118/136/134
f 385/15/15 118/136/134 383/13/13
f 383/13/13 118/136/134 4/111/109
f 383/13/13 4/111/109 116/10/10
f 383/13/13 116/10/10 384/14/14
f 384/14/14 116/10/10 3/9/9
f 116/10/10 4/111/109 117/113/111
f 116/10/10 117/113/111 115/11/11
f 115/11/11 117/113/111 1/4/4
f 114/7/7 3/9/9 115/11/11
f 114/7/7 115/11/11 113/8/8
f 113/8/8 115/11/11 1/4/4
f 382/5/5 26/518/65 158/527/450
f 382/5/5 158/527/450 381/3/3
f 381/3/3 158/527/450 27/1/1
f 380/2/2 2/6/6 113/8/8
f 380/2/2 113/8/8 381/3/3
f 381/3/3 113/8/8 1/4/4
f 445/455/421 446/528/451 106/348/332
f 106/348/332 446/528/451 360/447/413
f 166/86/84 170/389/371 452/388/370
f 108/357/341 453/434/405 425/436/407
