# Blender 4.4.3
# www.blender.org
mtllib cave_map_small.mtl
o cave_map_small.026
v -210.596924 -6.681835 -79.652519
v -210.553253 -8.685499 -79.652519
v -210.324432 -8.680512 -81.932991
v -210.368134 -6.676849 -81.932991
v -210.982239 -6.674899 -83.652451
v -216.965332 -6.805300 -81.932983
v -216.629547 -6.797982 -83.849319
v -216.585907 -8.801648 -83.849319
v -216.921661 -8.808964 -81.932983
v -216.965332 -6.805299 -79.652512
v -216.921661 -8.808963 -79.652512
v -216.584106 -6.796988 -78.060730
v -216.540405 -8.800653 -78.060730
v -212.061523 -6.698423 -84.627731
v -210.938568 -8.678564 -83.652451
v -212.017853 -8.702087 -84.627731
v -213.696136 -6.734049 -84.857887
v -213.652435 -8.737714 -84.857887
v -215.330719 -6.769675 -84.627724
v -215.287048 -8.773340 -84.627724
v -215.330719 -6.769672 -77.863731
v -215.287048 -8.773336 -77.863731
v -213.696136 -6.734047 -77.633591
v -213.652435 -8.737711 -77.633591
v -212.061523 -6.698419 -76.957779
v -212.017853 -8.702084 -76.957779
v -211.595581 -8.692882 -78.381042
v -211.639252 -6.689217 -78.381042
v -210.494720 -14.698074 -79.982468
v -211.198242 -14.698074 -78.361908
v -210.633789 -12.696486 -79.982468
v -210.602356 -10.691184 -79.856392
v -210.756775 -2.676088 -79.982475
v -211.396973 -2.676088 -78.636292
v -210.351593 -4.671872 -79.856400
v -210.633667 -14.701102 -81.603035
v -210.668152 -12.697237 -81.603035
v -210.602356 -10.691184 -81.729111
v -210.756775 -2.676088 -81.603035
v -210.351593 -4.671872 -81.729111
v -211.198242 -14.698077 -83.223602
v -211.460297 -2.676090 -83.223610
v -215.888306 -12.795676 -83.223595
v -215.335297 -14.788241 -82.788651
v -216.891479 -12.817540 -81.603027
v -216.618164 -14.797864 -81.603027
v -216.293457 -10.799889 -83.601830
v -217.296631 -10.821752 -81.729103
v -216.106628 -2.777355 -83.223595
v -216.485382 -2.761619 -81.573715
v -216.510071 -4.773162 -81.729103
v -216.424438 -4.788896 -83.601830
v -216.891479 -12.817538 -79.982460
v -216.618164 -14.797864 -79.982460
v -217.296631 -10.821752 -79.856384
v -216.485382 -2.761619 -79.953148
v -216.510071 -4.773162 -79.856384
v -215.537048 -14.792637 -78.662392
v -215.888306 -12.795673 -78.361900
v -216.293457 -10.799886 -77.983665
v -215.063995 -2.754629 -78.800522
v -215.381805 -4.766170 -78.422279
v -212.403534 -12.719727 -83.517990
v -212.359863 -14.723394 -83.517990
v -211.241943 -12.694410 -83.223602
v -212.266449 -10.712121 -83.942039
v -211.284332 -10.690716 -83.214127
v -212.621857 -2.701405 -83.517990
v -212.397461 -4.701128 -83.942039
v -211.055145 -4.671872 -83.601837
v -213.585480 -12.745043 -83.298553
v -213.541779 -14.748710 -83.250015
v -213.588409 -10.741377 -83.717506
v -213.783447 -2.726723 -84.311394
v -213.739807 -4.730385 -84.760880
v -214.747070 -12.770360 -83.104454
v -214.683014 -14.774027 -82.913422
v -214.981628 -10.770633 -83.508148
v -214.945068 -2.752038 -84.309517
v -215.082123 -4.759640 -84.733559
v -214.683014 -14.774025 -78.067513
v -214.726715 -12.770357 -77.124153
v -214.951111 -10.770629 -76.700104
v -214.766357 -2.748143 -78.578041
v -214.903412 -4.755744 -78.153999
v -213.521454 -14.748708 -77.231949
v -213.565094 -12.745041 -76.960594
v -213.608795 -10.741374 -76.511116
v -213.846802 -2.726719 -78.463615
v -213.739777 -4.730383 -78.077438
v -212.359863 -14.723391 -77.395508
v -212.403534 -12.719724 -78.067520
v -212.266449 -10.712118 -77.643471
v -212.854034 -2.701404 -78.416100
v -212.397461 -4.701127 -78.266434
v -211.702515 -12.704446 -78.851974
v -211.384705 -10.692901 -78.473740
v -211.055145 -4.671871 -77.983673
v -216.380096 -16.126076 -79.982460
v -215.909393 -16.115816 -78.112694
v -216.079681 -16.119528 -81.603027
v -214.654388 -16.088465 -83.517982
v -213.492798 -16.063148 -83.320503
v -212.331207 -16.037832 -83.517990
v -210.466095 -16.012514 -81.603035
v -211.400482 -15.980850 -82.779495
v -210.466888 -15.975836 -79.982498
v -211.318024 -15.979052 -78.566063
v -212.332001 -16.001150 -77.867371
v -213.493591 -16.026468 -77.903984
v -214.654388 -16.088465 -78.221359
v -210.226440 -23.680780 -79.652550
v -211.225098 -25.691828 -78.381065
v -210.182739 -25.684446 -79.652550
v -211.268768 -23.688166 -78.381065
v -209.953949 -25.679461 -81.933014
v -209.997650 -23.675795 -81.933014
v -210.568115 -25.677511 -83.652473
v -216.594849 -23.804247 -81.933006
v -216.259064 -23.796930 -83.849350
v -216.215424 -25.800592 -83.849342
v -216.551147 -25.807909 -81.933006
v -216.594849 -23.804247 -79.652534
v -216.551147 -25.807909 -79.652534
v -216.213593 -23.795935 -78.060753
v -216.169952 -25.799601 -78.060753
v -211.691040 -23.697371 -84.627769
v -211.647369 -25.701033 -84.627769
v -210.611755 -23.673849 -83.652473
v -213.325623 -23.732996 -84.857910
v -213.281982 -25.736658 -84.857910
v -214.960205 -23.768621 -84.627762
v -214.916565 -25.772287 -84.627762
v -214.960205 -23.768618 -77.863762
v -214.916565 -25.772284 -77.863762
v -213.325623 -23.732992 -77.633614
v -213.281952 -25.736658 -77.633614
v -211.691040 -23.697367 -76.957787
v -211.647369 -25.701029 -76.957787
v -210.124237 -31.697023 -79.982498
v -210.827759 -31.697023 -78.361938
v -210.263275 -29.695436 -79.982498
v -210.231873 -27.690134 -79.856422
v -211.014221 -27.691854 -78.473763
v -210.386261 -19.675032 -79.982498
v -211.089813 -19.675032 -78.361938
v -210.520721 -17.673342 -79.982498
v -209.981110 -21.670820 -79.856422
v -210.263153 -31.700048 -81.603058
v -210.297668 -29.696188 -81.603058
v -210.231873 -27.690134 -81.729134
v -210.386261 -19.675032 -81.603065
v -210.456757 -17.310583 -81.603065
v -209.981110 -21.670820 -81.729141
v -210.827789 -31.697023 -83.223625
v -215.517822 -29.794626 -83.223618
v -214.964783 -31.787188 -82.788673
v -216.520996 -29.816488 -81.603050
v -216.186768 -31.796808 -81.573738
v -215.922974 -27.798838 -83.601852
v -216.926117 -27.820704 -81.729126
v -215.779816 -17.772631 -83.223625
v -215.736176 -19.776297 -83.223625
v -215.779816 -17.772631 -81.603058
v -215.738068 -19.760565 -81.573738
v -215.913879 -21.772112 -81.699814
v -216.053986 -21.787844 -83.601852
v -216.520996 -29.816488 -79.982491
v -216.078796 -31.796808 -79.953171
v -216.926117 -27.820704 -79.856415
v -216.199799 -17.781786 -79.982491
v -215.794769 -19.760565 -79.953171
v -215.836670 -21.772112 -79.827095
v -215.166534 -31.791586 -78.662415
v -215.517822 -29.794626 -78.361931
v -215.922974 -27.798834 -77.983688
v -214.693481 -19.753572 -78.800545
v -215.779816 -17.772631 -78.361931
v -215.011322 -21.765120 -78.422310
v -212.033051 -29.718676 -83.518005
v -211.989349 -31.722342 -83.518005
v -210.871460 -29.693357 -83.223625
v -211.895966 -27.711069 -83.942062
v -210.913849 -27.689665 -83.214157
v -211.286926 -17.674711 -83.023941
v -212.251404 -19.700350 -83.518013
v -212.295044 -17.696684 -84.009460
v -211.089813 -19.675032 -83.223633
v -212.026978 -21.700075 -83.942070
v -210.684662 -21.670820 -83.601868
v -213.347290 -29.743994 -83.115372
v -213.150970 -31.747656 -83.077011
v -213.238281 -27.740328 -83.310394
v -213.456665 -17.721998 -84.173019
v -213.412964 -19.725664 -84.311417
v -213.369324 -21.729334 -84.760902
v -214.325684 -29.769312 -82.900917
v -214.312561 -31.772970 -82.913452
v -214.580627 -27.769583 -83.121399
v -214.618225 -17.747316 -84.009460
v -214.574554 -19.750982 -84.309547
v -214.711639 -21.758589 -84.733582
v -214.312531 -31.772970 -78.067535
v -214.356201 -29.769308 -77.124184
v -214.580627 -27.769579 -76.700134
v -214.618225 -17.747313 -77.740631
v -214.395874 -19.747087 -78.578079
v -214.532928 -21.754690 -78.154030
v -213.150970 -31.747652 -77.231979
v -213.194611 -29.743990 -76.960632
v -213.238281 -27.740324 -76.511139
v -213.371155 -17.721998 -78.674820
v -213.412964 -19.725664 -78.526962
v -213.369324 -21.729330 -78.077469
v -211.989349 -31.722338 -77.395531
v -212.033051 -29.718676 -78.067535
v -211.895935 -27.711065 -77.643494
v -212.331696 -17.696680 -78.766281
v -212.251373 -19.700350 -78.653862
v -212.026978 -21.700075 -78.266464
v -211.332031 -29.703398 -78.852005
v -211.329315 -17.675634 -79.015106
v -210.684662 -21.670820 -77.983704
v -215.397125 -16.104654 -82.805756
v -216.314819 -33.125027 -79.982483
v -215.861877 -33.118481 -81.603050
v -214.283875 -33.087418 -83.518005
v -211.029205 -33.016479 -82.779488
v -214.177979 -37.276127 -83.610725
v -212.291412 -37.258633 -83.534935
v -212.278412 -38.658131 -83.535454
v -214.164978 -38.675625 -83.611244
v -212.278381 -38.659767 -79.132240
v -212.291382 -37.260265 -79.131721
v -213.907776 -38.674900 -79.132233
v -213.920776 -37.275402 -79.131714
v -215.528290 -37.289616 -81.050735
v -215.833160 -38.691620 -82.251068
v -215.232880 -38.686493 -81.051262
v -215.846161 -37.292122 -82.250542
v -209.760010 -38.635666 -81.051292
v -209.458893 -37.232803 -82.250580
v -209.773010 -37.236164 -81.050766
v -209.445892 -38.632301 -82.251099
v -213.946777 -34.474785 -83.449326
v -212.317413 -34.459652 -83.449326
v -212.304413 -35.859150 -83.449844
v -213.933807 -35.874287 -83.449844
v -212.421936 -39.694874 -82.919632
v -212.317383 -34.461437 -78.650101
v -213.933746 -35.876251 -78.151672
v -212.304382 -35.861122 -78.151672
v -213.946747 -34.476566 -78.650101
v -213.651123 -39.369720 -79.261833
v -212.421906 -39.696236 -79.261963
v -216.487091 -34.499271 -81.049698
v -215.859161 -35.892612 -82.250023
v -215.541290 -35.890106 -81.050217
v -215.872131 -34.493111 -82.249504
v -214.521332 -39.715401 -80.164780
v -214.645111 -39.716213 -81.067596
v -215.068420 -38.685413 -79.851448
v -210.616119 -39.678459 -81.970444
v -210.492371 -39.677643 -81.067619
v -210.392059 -34.443108 -79.849915
v -210.379059 -35.842606 -79.850433
v -210.227600 -34.441135 -81.049728
v -210.761047 -35.845707 -81.050247
v -209.937439 -37.238140 -79.850960
v -215.178925 -38.686810 -78.851715
v -215.363831 -37.288536 -79.850929
v -215.550110 -37.290710 -78.651123
v -215.182556 -37.285660 -83.057274
v -215.169556 -38.685162 -83.057793
v -211.217163 -38.649853 -79.291946
v -210.661987 -37.245316 -78.651146
v -209.924438 -38.637638 -79.851479
v -215.372620 -34.489704 -78.935715
v -215.376831 -35.889027 -79.850410
v -215.059875 -35.886436 -78.895287
v -215.872101 -34.494003 -79.849892
v -215.096771 -39.720074 -81.970413
v -214.607391 -39.404839 -79.412384
v -210.616119 -39.679131 -80.164795
v -211.623383 -39.688641 -79.743759
v -210.379059 -35.841717 -82.250053
v -210.392059 -34.442215 -82.249535
v -210.844330 -34.447670 -78.884705
v -210.674988 -35.845802 -78.650627
v -209.659882 -38.633842 -83.450897
v -209.672882 -37.234344 -83.450378
v -215.149323 -35.885750 -82.973335
v -215.576141 -34.489918 -83.449310
v -210.974274 -34.447269 -83.199745
v -210.675049 -35.844017 -83.449852
v -211.195892 -39.683506 -82.873260
v -214.874054 -39.717667 -82.873238
v -214.283875 -33.087418 -78.221397
v -210.946716 -33.014683 -78.566078
v -210.095581 -33.011467 -79.982475
v -210.095581 -33.011463 -81.603058
v -213.122284 -33.062092 -83.320541
v -211.960693 -33.036774 -83.518005
v -215.026611 -33.103600 -82.805786
v -215.538910 -33.114769 -78.112724
v -212.178223 -40.236282 -81.970634
v -211.951202 -40.234512 -81.067818
v -211.724182 -40.232738 -80.164993
v -213.336426 -40.247040 -81.970627
v -213.648010 -39.706284 -82.873253
v -213.029938 -40.244530 -81.067810
v -212.723389 -40.242020 -80.164993
v -211.960724 -33.036781 -77.867371
v -213.122284 -33.062103 -77.903976
vn -0.9225 0.0149 -0.3857
vn -0.9322 0.0093 -0.3619
vn -0.8636 0.0138 -0.5039
vn -0.8488 -0.0267 -0.5280
vn -0.9880 0.0741 0.1354
vn -0.9913 -0.0161 0.1305
vn -0.8234 0.1168 0.5554
vn -0.8301 -0.0312 0.5567
vn 0.9936 -0.0857 0.0734
vn 0.8171 0.1013 0.5676
vn 0.8207 -0.0656 0.5676
vn 0.9906 -0.0264 0.1342
vn 0.9747 -0.1546 -0.1614
vn 0.9869 -0.0340 -0.1577
vn 0.6879 -0.2245 -0.6903
vn 0.6903 0.0369 -0.7226
vn -0.3801 -0.1337 0.9152
vn -0.4142 0.1543 0.8970
vn -0.0507 -0.0584 0.9970
vn 0.0186 0.2265 0.9738
vn 0.3610 -0.0177 0.9324
vn 0.2785 0.2075 0.9377
vn 0.1634 -0.1092 -0.9805
vn 0.2215 -0.1483 -0.9638
vn 0.2128 -0.1511 -0.9653
vn 0.1605 -0.1352 -0.9777
vn -0.3956 -0.2640 -0.8797
vn -0.4260 0.1547 -0.8914
vn -0.9704 -0.0692 -0.2315
vn -0.7923 -0.0820 -0.6046
vn -0.7646 -0.0291 -0.6439
vn -0.9332 -0.0110 -0.3591
vn -0.9589 0.0704 -0.2749
vn -0.7716 0.1115 -0.6262
vn -0.9767 -0.0304 -0.2125
vn -0.5028 -0.0208 -0.8642
vn -0.5544 -0.2410 -0.7966
vn -0.9548 -0.2073 -0.2130
vn -0.9663 -0.0237 0.2562
vn -0.9829 0.0057 0.1840
vn -0.9792 0.0717 0.1897
vn -0.9816 -0.0976 0.1644
vn -0.9584 -0.2070 0.1964
vn -0.6606 0.1570 0.7341
vn -0.6918 0.0384 0.7211
vn -0.7868 0.1231 0.6048
vn -0.6907 -0.2065 0.6930
vn -0.6300 -0.2532 0.7341
vn 0.4315 0.2716 0.8603
vn 0.9351 0.2010 0.2917
vn 0.5282 0.0421 0.8481
vn 0.8934 0.2345 0.3832
vn 0.5598 0.2530 0.7891
vn 0.9700 0.0330 0.2410
vn 0.8799 -0.1614 0.4469
vn 0.9941 -0.0205 0.1070
vn 0.9889 -0.1417 0.0440
vn 0.8657 -0.1812 0.4667
vn 0.9422 0.1854 -0.2792
vn 0.9350 0.1738 -0.3091
vn 0.9700 0.0330 -0.2410
vn 0.9066 -0.0314 -0.4209
vn 0.9228 -0.1666 -0.3473
vn 0.7716 0.2322 -0.5922
vn 0.7018 0.0444 -0.7110
vn 0.7726 0.0716 -0.6308
vn 0.6376 -0.1737 -0.7505
vn 0.6160 -0.2739 -0.7386
vn -0.0302 0.1077 0.9937
vn -0.0713 0.0489 0.9963
vn -0.2327 0.2832 0.9304
vn -0.3336 -0.2501 0.9089
vn -0.3872 -0.2216 0.8950
vn 0.1735 0.1114 0.9785
vn 0.1926 -0.0523 0.9799
vn 0.1431 0.3519 0.9250
vn -0.2576 -0.1366 0.9565
vn -0.2953 -0.2152 0.9309
vn 0.0541 0.1543 0.9865
vn 0.2345 -0.1559 0.9595
vn 0.0251 0.3430 0.9390
vn 0.3554 -0.1245 0.9264
vn 0.3650 -0.2202 0.9046
vn 0.4911 0.2583 -0.8319
vn 0.4113 0.3009 -0.8604
vn 0.4154 -0.0897 -0.9052
vn 0.3596 -0.2051 -0.9103
vn 0.2828 -0.2198 -0.9337
vn 0.1721 0.1979 -0.9650
vn -0.2718 0.2207 -0.9367
vn -0.2571 -0.1300 -0.9576
vn 0.0898 -0.1839 -0.9788
vn -0.0163 -0.1918 -0.9813
vn -0.3849 -0.0128 -0.9229
vn -0.6850 0.0107 -0.7284
vn -0.6267 0.0836 -0.7747
vn -0.0730 -0.1361 -0.9880
vn -0.0437 -0.1854 -0.9817
vn 0.9921 0.0882 -0.0897
vn 0.5708 -0.1312 -0.8105
vn 0.9101 0.1940 0.3662
vn 0.8171 -0.0939 0.5687
vn 0.3299 -0.2654 0.9059
vn -0.0116 -0.2222 0.9749
vn -0.2504 -0.1507 0.9563
vn -0.7357 0.0036 0.6773
vn -0.9406 -0.0500 0.3359
vn -0.9583 0.0176 -0.2851
vn -0.7370 0.1712 -0.6538
vn -0.2778 0.3691 -0.8869
vn 0.0919 0.2971 -0.9504
vn 0.2198 -0.0913 -0.9713
vn 0.9909 -0.1211 0.0594
vn 0.9704 -0.1929 -0.1455
vn 0.0357 0.2692 0.9624
vn 0.2583 0.2508 0.9330
vn -0.9704 -0.0693 -0.2312
vn -0.7922 -0.0845 -0.6044
vn -0.9608 -0.1663 -0.2217
vn -0.4059 -0.2823 -0.8693
vn -0.5903 0.0443 -0.8059
vn -0.9334 -0.0134 -0.3587
vn -0.9773 -0.0271 -0.2099
vn -0.5167 0.0214 -0.8559
vn -0.9664 -0.0238 0.2558
vn -0.9681 -0.1399 0.2078
vn -0.9621 -0.0305 0.2712
vn -0.6611 0.1528 0.7345
vn -0.6359 -0.1990 0.7457
vn -0.7617 -0.0695 0.6442
vn 0.3507 0.2441 0.9041
vn 0.9339 0.2123 0.2876
vn 0.5142 0.0062 0.8577
vn 0.9163 0.1963 0.3490
vn 0.4721 0.2862 0.8338
vn 0.8760 -0.1575 0.4559
vn 0.9846 0.0296 0.1726
vn 0.9213 -0.0822 0.3801
vn 0.9990 -0.0073 0.0431
vn 0.9780 -0.2062 -0.0331
vn 0.8821 -0.1947 0.4288
vn 0.9395 0.2050 -0.2745
vn 0.9507 0.0675 -0.3028
vn 0.9814 0.1805 -0.0657
vn 0.9275 0.0612 -0.3687
vn 0.9240 -0.2343 -0.3021
vn 0.6969 0.0172 -0.7169
vn 0.7347 0.2527 -0.6295
vn 0.6933 0.0984 -0.7139
vn 0.6487 -0.2908 -0.7033
vn 0.0468 0.0857 0.9952
vn -0.0194 0.0358 0.9992
vn -0.1338 0.3164 0.9391
vn -0.3880 -0.0551 0.9200
vn -0.4122 -0.1062 0.9049
vn 0.2554 0.0560 0.9652
vn 0.2234 -0.1078 0.9688
vn 0.2484 0.3663 0.8967
vn -0.0664 -0.1895 0.9796
vn -0.2814 -0.1599 0.9462
vn -0.0080 0.0784 0.9969
vn 0.1651 -0.2127 0.9631
vn -0.0951 0.3521 0.9311
vn 0.3538 -0.1944 0.9149
vn 0.3490 -0.1623 0.9230
vn 0.3553 -0.1245 0.9264
vn 0.4922 0.2574 -0.8315
vn 0.4155 -0.0897 -0.9052
vn 0.0266 0.1529 -0.9879
vn 0.2737 0.0107 -0.9618
vn 0.1726 0.1929 -0.9659
vn -0.2792 0.2218 -0.9343
vn -0.0224 -0.1453 -0.9891
vn -0.0301 -0.2142 -0.9763
vn -0.3851 -0.0169 -0.9227
vn -0.1687 0.2089 -0.9633
vn 0.0276 -0.1666 -0.9856
vn -0.0067 -0.1898 -0.9818
vn 0.9836 -0.0715 -0.1654
vn 0.4925 0.0227 -0.8700
vn 0.9009 -0.1054 0.4211
vn 0.7140 -0.1569 0.6823
vn 0.3231 -0.0740 0.9435
vn -0.0263 -0.1105 0.9935
vn -0.1765 0.0723 0.9816
vn -0.7292 -0.0292 0.6837
vn -0.9512 -0.0316 0.3070
vn -0.9612 0.0571 -0.2700
vn -0.7004 0.2109 -0.6819
vn -0.2988 0.4254 -0.8543
vn 0.1850 0.4458 -0.8758
vn 0.1533 0.2084 -0.9659
vn 0.2262 -0.0557 0.9725
vn -0.0299 0.2739 0.9613
vn -0.0260 -0.0318 0.9992
vn 0.1831 0.2536 0.9498
vn -0.1180 0.1259 -0.9850
vn -0.0580 0.1518 -0.9867
vn 0.0227 0.2818 -0.9592
vn -0.0476 0.2174 -0.9749
vn 0.9719 0.0800 -0.2216
vn 0.8941 0.3482 -0.2817
vn 0.9540 0.2740 0.1215
vn 0.9752 -0.0018 0.2215
vn -0.9305 0.3328 -0.1530
vn -0.9337 -0.3012 -0.1934
vn -0.9571 -0.2879 -0.0322
vn -0.9121 0.4098 -0.0082
vn 0.1072 0.0137 0.9941
vn -0.0220 -0.0535 0.9983
vn -0.1167 -0.0722 0.9905
vn 0.1700 -0.0634 0.9834
vn 0.0550 0.7676 0.6385
vn -0.0066 0.7075 0.7067
vn -0.0976 0.0381 -0.9945
vn -0.1246 0.1417 -0.9820
vn 0.2644 0.1247 -0.9563
vn 0.1423 0.0411 -0.9890
vn 0.1255 0.5285 -0.8396
vn -0.1573 0.5541 -0.8174
vn 0.9894 0.1454 0.0052
vn 0.9417 0.2518 -0.2231
vn 0.9339 0.1072 0.3412
vn 0.8965 -0.0994 0.4318
vn 0.5505 0.8046 -0.2226
vn 0.5890 0.7879 -0.1795
vn 0.9261 0.3762 -0.0278
vn -0.5401 0.8270 0.1562
vn -0.6400 0.7682 0.0124
vn -0.9504 0.0631 -0.3044
vn -0.9787 0.1985 0.0525
vn -0.9931 -0.0890 -0.0763
vn -0.9919 -0.1262 0.0116
vn -0.9264 -0.1226 -0.3559
vn 0.5648 0.4486 -0.6926
vn 0.9971 0.0633 -0.0417
vn 0.6962 -0.0312 -0.7172
vn 0.6382 -0.0277 0.7694
vn 0.6341 0.1549 0.7575
vn -0.2522 0.3480 -0.9029
vn -0.4125 0.1929 -0.8903
vn -0.7742 0.2772 -0.5691
vn -0.6799 -0.2302 0.6962
vn -0.6252 0.3992 0.6707
vn 0.5938 0.3148 -0.7405
vn 0.6877 0.0559 -0.7239
vn 0.9581 0.1500 -0.2442
vn 0.8575 0.3286 -0.3959
vn 0.6221 -0.0501 0.7813
vn 0.5718 0.0595 0.8183
vn 0.3779 0.7798 0.4992
vn 0.6072 0.7906 -0.0786
vn 0.4134 0.7507 -0.5154
vn -0.5617 0.7071 -0.4295
vn -0.2854 0.5637 -0.7751
vn -0.2420 0.7872 0.5672
vn -0.5063 -0.2891 0.8125
vn -0.9376 -0.3478 0.0039
vn -0.5713 -0.1366 0.8093
vn -0.9416 0.0259 0.3358
vn -0.6597 -0.0347 -0.7507
vn -0.6683 -0.0087 -0.7438
vn -0.1229 0.9635 0.2377
vn -0.1813 0.9826 0.0401
vn -0.1997 0.8969 -0.3946
vn 0.1475 0.9671 0.2070
vn 0.1456 0.9882 -0.0468
vn 0.0864 0.9451 -0.3153
vt 0.459429 0.107196
vt 0.366370 0.123364
vt 0.358679 0.078590
vt 0.451029 0.062707
vt 0.383967 0.206273
vt 0.472285 0.191812
vt 0.388190 0.267863
vt 0.484471 0.253145
vt 0.411009 0.656650
vt 0.499951 0.722161
vt 0.408831 0.716589
vt 0.501820 0.660594
vt 0.413896 0.586178
vt 0.503481 0.586703
vt 0.414012 0.538319
vt 0.502913 0.534236
vt 0.409554 0.922261
vt 0.505859 0.920164
vt 0.511349 0.977706
vt 0.408353 0.980000
vt 0.407548 0.849756
vt 0.500809 0.849737
vt 0.407385 0.777450
vt 0.498506 0.779791
vt 0.405564 0.489906
vt 0.499367 0.482361
vt 0.400126 0.420233
vt 0.495876 0.411028
vt 0.399457 0.346108
vt 0.493052 0.339038
vt 0.493255 0.289290
vt 0.390318 0.303774
vt 0.088199 0.177515
vt 0.079728 0.123316
vt 0.176622 0.125826
vt 0.182075 0.164109
vt 0.275759 0.147113
vt 0.267980 0.100509
vt 0.553791 0.104221
vt 0.545811 0.040859
vt 0.640130 0.039716
vt 0.648549 0.094122
vt 0.098770 0.233201
vt 0.189931 0.218420
vt 0.284032 0.210470
vt 0.563800 0.167332
vt 0.657016 0.148446
vt 0.106373 0.289463
vt 0.199110 0.275244
vt 0.290637 0.260664
vt 0.575005 0.230322
vt 0.665409 0.202671
vt 0.687222 0.720998
vt 0.682666 0.652254
vt 0.784784 0.715702
vt 0.785038 0.660963
vt 0.591525 0.725098
vt 0.592405 0.653631
vt 0.222046 0.709977
vt 0.215541 0.641264
vt 0.305381 0.641817
vt 0.317716 0.711935
vt 0.683831 0.599628
vt 0.786016 0.594615
vt 0.593422 0.597758
vt 0.211212 0.579434
vt 0.305904 0.575124
vt 0.690041 0.530903
vt 0.786535 0.537623
vt 0.593874 0.527221
vt 0.209408 0.526463
vt 0.307798 0.519326
vt 0.702688 0.882355
vt 0.797093 0.866372
vt 0.803521 0.919864
vt 0.709706 0.935398
vt 0.605535 0.903308
vt 0.613333 0.953660
vt 0.311265 0.910608
vt 0.308768 0.972268
vt 0.211970 0.948960
vt 0.216243 0.895784
vt 0.699995 0.825182
vt 0.791804 0.809705
vt 0.606790 0.839943
vt 0.314799 0.844195
vt 0.220732 0.835571
vt 0.696289 0.773303
vt 0.787104 0.751953
vt 0.602920 0.781263
vt 0.315761 0.783758
vt 0.223004 0.779578
vt 0.784324 0.485995
vt 0.688821 0.464028
vt 0.596326 0.460068
vt 0.209459 0.500162
vt 0.307260 0.491583
vt 0.780811 0.422350
vt 0.688695 0.410841
vt 0.594481 0.405077
vt 0.209189 0.449141
vt 0.304460 0.435582
vt 0.785247 0.370025
vt 0.691236 0.346099
vt 0.591509 0.339224
vt 0.207463 0.392579
vt 0.300862 0.372096
vt 0.793300 0.308702
vt 0.693555 0.304494
vt 0.594287 0.291016
vt 0.206655 0.338021
vt 0.295205 0.314653
vt 0.852539 0.601263
vt 0.853710 0.535408
vt 0.847569 0.658337
vt 0.846117 0.710674
vt 0.851184 0.751639
vt 0.852758 0.805086
vt 0.857911 0.858482
vt 0.865500 0.906354
vt 0.037266 0.242511
vt 0.043841 0.281582
vt 0.028338 0.188074
vt 0.020000 0.140041
vt 0.855265 0.320735
vt 0.848184 0.373049
vt 0.845180 0.427858
vt 0.844424 0.482282
vt 0.735836 0.045977
vt 0.740708 0.078684
vt 0.765524 0.131836
vt 0.757288 0.184756
vt 0.129470 0.715391
vt 0.120940 0.662178
vt 0.108252 0.606188
vt 0.104763 0.551295
vt 0.118452 0.935135
vt 0.123587 0.879635
vt 0.127574 0.827852
vt 0.129834 0.774793
vt 0.110070 0.499599
vt 0.114838 0.440936
vt 0.114118 0.389634
vt 0.112729 0.347470
vt 0.049284 0.767957
vt 0.043415 0.823209
vt 0.043221 0.878789
vt 0.029925 0.446371
vt 0.024604 0.393364
vt 0.031457 0.493972
vt 0.033045 0.343167
vt 0.025520 0.549428
vt 0.818950 0.068227
vt 0.811989 0.020000
vt 0.030524 0.617574
vt 0.827034 0.122689
vt 0.041477 0.674471
vt 0.834452 0.163728
vt 0.048930 0.723897
vt 0.038792 0.929155
vt 0.200935 0.216878
vt 0.326425 0.176139
vt 0.277758 0.261524
vt 0.249344 0.134877
vt 0.657960 0.704147
vt 0.596287 0.726913
vt 0.628184 0.618107
vt 0.565879 0.638719
vt 0.422200 0.763515
vt 0.501001 0.833996
vt 0.465427 0.895154
vt 0.379058 0.822845
vt 0.810149 0.719291
vt 0.828476 0.619138
vt 0.897625 0.640200
vt 0.870827 0.746527
vt 0.112068 0.392690
vt 0.227985 0.346009
vt 0.179351 0.430894
vt 0.160303 0.307038
vt 0.306774 0.070874
vt 0.359613 0.100810
vt 0.575019 0.421301
vt 0.595117 0.516738
vt 0.523472 0.542571
vt 0.486109 0.452971
vt 0.617234 0.766905
vt 0.665810 0.767419
vt 0.293319 0.599431
vt 0.359825 0.681974
vt 0.306318 0.739254
vt 0.238151 0.657878
vt 0.584263 0.830318
vt 0.575485 0.873508
vt 0.531037 0.778253
vt 0.803724 0.829451
vt 0.774246 0.794120
vt 0.735140 0.404946
vt 0.818549 0.407431
vt 0.750408 0.503963
vt 0.826010 0.508885
vt 0.761249 0.603459
vt 0.551720 0.736562
vt 0.463143 0.707863
vt 0.506618 0.663413
vt 0.342593 0.869152
vt 0.445786 0.945931
vt 0.695253 0.694532
vt 0.691092 0.593754
vt 0.751947 0.694204
vt 0.969548 0.655283
vt 0.934002 0.778787
vt 0.411027 0.493817
vt 0.466736 0.580054
vt 0.414539 0.622871
vt 0.355296 0.540417
vt 0.181144 0.709543
vt 0.266925 0.780602
vt 0.556814 0.973161
vt 0.558134 0.921438
vt 0.581979 0.784134
vt 0.739850 0.767310
vt 0.697019 0.770236
vt 0.830025 0.881314
vt 0.980000 0.526659
vt 0.902464 0.521800
vt 0.966310 0.418565
vt 0.898726 0.415130
vt 0.660214 0.410329
vt 0.674564 0.506449
vt 0.150663 0.187924
vt 0.204670 0.101694
vt 0.434224 0.236358
vt 0.385274 0.322704
vt 0.044674 0.356923
vt 0.104768 0.275075
vt 0.235803 0.463537
vt 0.295113 0.384054
vt 0.411116 0.129320
vt 0.255053 0.045418
vt 0.368197 0.412960
vt 0.465245 0.361415
vt 0.489357 0.354991
vt 0.561692 0.335718
vt 0.653272 0.324624
vt 0.729164 0.317820
vt 0.817134 0.320403
vt 0.898196 0.325528
vt 0.969635 0.330346
vt 0.145751 0.509333
vt 0.195723 0.537867
vt 0.079318 0.471793
vt 0.020000 0.439949
vt 0.123766 0.639555
vt 0.179558 0.590345
vt 0.235266 0.531985
vt 0.299492 0.472052
vt 0.728699 0.891710
vt 0.758715 0.948624
vt 0.714292 0.849195
vt 0.700379 0.808070
vt 0.664402 0.917072
vt 0.659354 0.980000
vt 0.665401 0.870024
vt 0.668020 0.824779
vt 0.207412 0.561165
vt 0.513468 0.348567
s 1
usemtl Cave_Material.020
f 1/1/1 2/2/2 27/3/3
f 27/3/3 28/4/4 1/1/1
f 3/5/5 2/2/2 4/6/6
f 2/2/2 1/1/1 4/6/6
f 15/7/7 3/5/5 5/8/8
f 3/5/5 4/6/6 5/8/8
f 6/9/9 8/10/10 7/11/11
f 6/9/9 9/12/12 8/10/10
f 10/13/13 9/12/12 6/9/9
f 10/13/13 11/14/14 9/12/12
f 12/15/15 11/14/14 10/13/13
f 12/15/15 13/16/16 11/14/14
f 14/17/17 16/18/18 15/19/7
f 15/19/7 5/20/8 14/17/17
f 17/21/19 18/22/20 16/18/18
f 16/18/18 14/17/17 17/21/19
f 19/23/21 20/24/22 18/22/20
f 18/22/20 17/21/19 19/23/21
f 7/11/11 8/10/10 20/24/22
f 20/24/22 19/23/21 7/11/11
f 12/15/15 21/25/23 13/16/16
f 13/16/16 21/25/23 22/26/24
f 21/25/23 23/27/25 22/26/24
f 22/26/24 23/27/25 24/28/26
f 23/27/25 25/29/27 24/28/26
f 24/28/26 25/29/27 26/30/28
f 27/31/3 26/30/28 28/32/4
f 26/30/28 25/29/27 28/32/4
f 29/33/29 30/34/30 96/35/31
f 96/35/31 31/36/32 29/33/29
f 31/36/32 96/35/31 32/37/33
f 96/35/31 97/38/34 32/37/33
f 32/37/33 97/38/34 2/2/2
f 97/38/34 27/3/3 2/2/2
f 35/39/35 98/40/36 34/41/37
f 34/41/37 33/42/38 35/39/35
f 1/1/1 28/4/4 35/39/35
f 35/39/35 28/4/4 98/40/36
f 36/43/39 29/33/29 37/44/40
f 29/33/29 31/36/32 37/44/40
f 37/44/40 31/36/32 38/45/41
f 31/36/32 32/37/33 38/45/41
f 38/45/41 32/37/33 2/2/2
f 2/2/2 3/5/5 38/45/41
f 40/46/42 35/39/35 33/42/38
f 33/42/38 39/47/43 40/46/42
f 1/1/1 40/46/42 4/6/6
f 1/1/1 35/39/35 40/46/42
f 41/48/44 36/43/39 65/49/45
f 36/43/39 37/44/40 65/49/45
f 65/49/45 37/44/40 38/45/41
f 38/45/41 67/50/46 65/49/45
f 67/50/46 38/45/41 3/5/5
f 3/5/5 15/7/7 67/50/46
f 70/51/47 40/46/42 42/52/48
f 40/46/42 39/47/43 42/52/48
f 4/6/6 70/51/47 5/8/8
f 4/6/6 40/46/42 70/51/47
f 43/53/49 45/54/50 44/55/51
f 45/54/50 46/56/52 44/55/51
f 47/57/53 48/58/54 43/53/49
f 48/58/54 45/54/50 43/53/49
f 9/12/12 47/57/53 8/10/10
f 9/12/12 48/58/54 47/57/53
f 49/59/55 50/60/56 51/61/57
f 51/61/57 52/62/58 49/59/55
f 52/62/58 51/61/57 6/9/9
f 6/9/9 7/11/11 52/62/58
f 53/63/59 46/56/52 45/54/50
f 53/63/59 54/64/60 46/56/52
f 48/58/54 55/65/61 53/63/59
f 53/63/59 45/54/50 48/58/54
f 11/14/14 48/58/54 9/12/12
f 11/14/14 55/65/61 48/58/54
f 50/60/56 56/66/62 51/61/57
f 56/66/62 57/67/63 51/61/57
f 51/61/57 57/67/63 10/13/13
f 10/13/13 6/9/9 51/61/57
f 53/63/59 59/68/64 58/69/65
f 58/69/65 54/64/60 53/63/59
f 55/65/61 60/70/66 59/68/64
f 59/68/64 53/63/59 55/65/61
f 11/14/14 13/16/16 60/70/66
f 60/70/66 55/65/61 11/14/14
f 56/66/62 61/71/67 57/67/63
f 61/71/67 62/72/68 57/67/63
f 57/67/63 62/72/68 10/13/13
f 62/72/68 12/15/15 10/13/13
f 63/73/69 64/74/70 41/75/44
f 41/75/44 65/76/45 63/73/69
f 66/77/71 63/73/69 65/76/45
f 65/76/45 67/78/46 66/77/71
f 16/18/18 66/77/71 67/78/46
f 67/78/46 15/19/7 16/18/18
f 69/79/72 70/80/47 42/81/48
f 42/81/48 68/82/73 69/79/72
f 14/17/17 5/20/8 70/80/47
f 70/80/47 69/79/72 14/17/17
f 71/83/74 72/84/75 64/74/70
f 64/74/70 63/73/69 71/83/74
f 73/85/76 71/83/74 63/73/69
f 63/73/69 66/77/71 73/85/76
f 18/22/20 73/85/76 66/77/71
f 66/77/71 16/18/18 18/22/20
f 75/86/77 69/79/72 68/82/73
f 68/82/73 74/87/78 75/86/77
f 17/21/19 14/17/17 69/79/72
f 69/79/72 75/86/77 17/21/19
f 76/88/79 77/89/80 72/84/75
f 72/84/75 71/83/74 76/88/79
f 76/88/79 71/83/74 73/85/76
f 73/85/76 78/90/81 76/88/79
f 78/90/81 73/85/76 18/22/20
f 18/22/20 20/24/22 78/90/81
f 80/91/82 75/86/77 79/92/83
f 79/92/83 75/86/77 74/87/78
f 19/23/21 17/21/19 80/91/82
f 80/91/82 17/21/19 75/86/77
f 44/55/51 77/89/80 76/88/79
f 76/88/79 43/53/49 44/55/51
f 43/53/49 76/88/79 78/90/81
f 78/90/81 47/57/53 43/53/49
f 47/57/53 78/90/81 20/24/22
f 20/24/22 8/10/10 47/57/53
f 79/92/83 49/59/55 80/91/82
f 52/62/58 80/91/82 49/59/55
f 80/91/82 52/62/58 19/23/21
f 7/11/11 19/23/21 52/62/58
f 81/93/84 58/69/65 82/94/85
f 59/68/64 82/94/85 58/69/65
f 82/94/85 59/68/64 83/95/86
f 60/70/66 83/95/86 59/68/64
f 83/95/86 60/70/66 22/26/24
f 13/16/16 22/26/24 60/70/66
f 61/71/67 84/96/87 85/97/88
f 85/97/88 62/72/68 61/71/67
f 62/72/68 85/97/88 21/25/23
f 21/25/23 12/15/15 62/72/68
f 86/98/89 81/93/84 87/99/90
f 82/94/85 87/99/90 81/93/84
f 83/95/86 88/100/91 82/94/85
f 82/94/85 88/100/91 87/99/90
f 22/26/24 24/28/26 83/95/86
f 83/95/86 24/28/26 88/100/91
f 84/96/87 89/101/92 90/102/93
f 90/102/93 85/97/88 84/96/87
f 85/97/88 90/102/93 23/27/25
f 23/27/25 21/25/23 85/97/88
f 91/103/94 86/98/89 92/104/95
f 87/99/90 92/104/95 86/98/89
f 88/100/91 93/105/96 92/104/95
f 92/104/95 87/99/90 88/100/91
f 24/28/26 26/30/28 93/105/96
f 93/105/96 88/100/91 24/28/26
f 90/102/93 89/101/92 94/106/97
f 94/106/97 95/107/98 90/102/93
f 23/27/25 90/102/93 95/107/98
f 95/107/98 25/29/27 23/27/25
f 30/108/30 91/103/94 96/109/31
f 92/104/95 96/109/31 91/103/94
f 96/109/31 92/104/95 93/105/96
f 93/105/96 97/110/34 96/109/31
f 97/110/34 93/105/96 27/31/3
f 93/105/96 26/30/28 27/31/3
f 95/107/98 94/106/97 34/111/37
f 34/111/37 98/112/36 95/107/98
f 95/107/98 98/112/36 28/32/4
f 28/32/4 25/29/27 95/107/98
f 58/69/65 99/113/99 54/64/60
f 99/113/99 58/69/65 100/114/100
f 54/64/60 101/115/101 46/56/52
f 54/64/60 99/113/99 101/115/101
f 44/55/51 46/56/52 101/115/101
f 101/115/101 224/116/102 44/55/51
f 44/55/51 224/116/102 102/117/103
f 102/117/103 77/89/80 44/55/51
f 77/89/80 102/117/103 72/84/75
f 102/117/103 103/118/104 72/84/75
f 72/84/75 103/118/104 64/74/70
f 103/118/104 104/119/105 64/74/70
f 64/74/70 104/119/105 106/120/106
f 106/120/106 41/75/44 64/74/70
f 105/121/107 36/43/39 106/122/106
f 106/122/106 36/43/39 41/48/44
f 107/123/108 29/33/29 105/121/107
f 105/121/107 29/33/29 36/43/39
f 107/123/108 108/124/109 29/33/29
f 108/124/109 30/34/30 29/33/29
f 91/103/94 108/125/109 109/126/110
f 91/103/94 30/108/30 108/125/109
f 86/98/89 109/126/110 110/127/111
f 86/98/89 91/103/94 109/126/110
f 81/93/84 110/127/111 111/128/112
f 81/93/84 86/98/89 110/127/111
f 58/69/65 111/128/112 100/114/100
f 58/69/65 81/93/84 111/128/112
f 112/1/1 114/2/2 113/3/3
f 113/3/3 115/4/4 112/1/1
f 116/5/5 114/2/2 117/6/6
f 114/2/2 112/1/1 117/6/6
f 118/7/7 116/5/5 129/8/8
f 116/5/5 117/6/6 129/8/8
f 119/9/113 121/10/10 120/11/11
f 119/9/113 122/12/12 121/10/10
f 123/13/114 122/12/12 119/9/113
f 123/13/114 124/14/14 122/12/12
f 125/15/15 124/14/14 123/13/114
f 125/15/15 126/16/16 124/14/14
f 127/17/17 128/18/18 118/19/7
f 118/19/7 129/20/8 127/17/17
f 130/21/19 131/22/115 128/18/18
f 128/18/18 127/17/17 130/21/19
f 132/23/21 133/24/116 131/22/115
f 131/22/115 130/21/19 132/23/21
f 120/11/11 121/10/10 133/24/116
f 133/24/116 132/23/21 120/11/11
f 125/15/15 134/25/23 126/16/16
f 126/16/16 134/25/23 135/26/24
f 134/25/23 136/27/25 135/26/24
f 135/26/24 136/27/25 137/28/26
f 136/27/25 138/29/27 137/28/26
f 137/28/26 138/29/27 139/30/28
f 113/31/3 139/30/28 115/32/4
f 139/30/28 138/29/27 115/32/4
f 140/33/117 141/34/118 221/35/31
f 221/35/31 142/36/32 140/33/117
f 142/36/32 221/35/31 143/37/33
f 221/35/31 144/38/34 143/37/33
f 143/37/33 144/38/34 114/2/2
f 144/38/34 113/3/3 114/2/2
f 145/42/119 146/41/120 222/129/121
f 222/129/121 147/130/122 145/42/119
f 148/39/123 223/40/124 146/41/120
f 146/41/120 145/42/119 148/39/123
f 112/1/1 115/4/4 148/39/123
f 148/39/123 115/4/4 223/40/124
f 149/43/125 140/33/117 150/44/40
f 140/33/117 142/36/32 150/44/40
f 150/44/40 142/36/32 151/45/41
f 142/36/32 143/37/33 151/45/41
f 151/45/41 143/37/33 114/2/2
f 114/2/2 116/5/5 151/45/41
f 152/47/126 145/42/119 147/130/122
f 147/130/122 153/131/127 152/47/126
f 154/46/42 148/39/123 145/42/119
f 145/42/119 152/47/126 154/46/42
f 112/1/1 154/46/42 117/6/6
f 112/1/1 148/39/123 154/46/42
f 155/48/128 149/43/125 182/49/45
f 149/43/125 150/44/40 182/49/45
f 182/49/45 150/44/40 151/45/41
f 151/45/41 184/50/46 182/49/45
f 184/50/46 151/45/41 116/5/5
f 116/5/5 118/7/7 184/50/46
f 188/52/129 152/47/126 185/132/130
f 152/47/126 153/131/127 185/132/130
f 190/51/47 154/46/42 188/52/129
f 154/46/42 152/47/126 188/52/129
f 117/6/6 190/51/47 129/8/8
f 117/6/6 154/46/42 190/51/47
f 156/53/131 158/54/132 157/55/133
f 158/54/132 159/56/134 157/55/133
f 160/57/135 161/58/54 156/53/131
f 161/58/54 158/54/132 156/53/131
f 122/12/12 160/57/135 121/10/10
f 122/12/12 161/58/54 160/57/135
f 162/133/136 164/134/137 163/59/138
f 164/134/137 165/60/139 163/59/138
f 163/59/138 165/60/139 166/61/140
f 166/61/140 167/62/141 163/59/138
f 167/62/141 166/61/140 119/9/113
f 119/9/113 120/11/11 167/62/141
f 168/63/142 159/56/134 158/54/132
f 168/63/142 169/64/143 159/56/134
f 161/58/54 170/65/61 168/63/142
f 168/63/142 158/54/132 161/58/54
f 124/14/14 161/58/54 122/12/12
f 124/14/14 170/65/61 161/58/54
f 164/134/137 171/135/144 165/60/139
f 171/135/144 172/66/145 165/60/139
f 165/60/139 172/66/145 166/61/140
f 172/66/145 173/67/146 166/61/140
f 166/61/140 173/67/146 123/13/114
f 123/13/114 119/9/113 166/61/140
f 168/63/142 175/68/64 174/69/147
f 174/69/147 169/64/143 168/63/142
f 170/65/61 176/70/66 175/68/64
f 175/68/64 168/63/142 170/65/61
f 124/14/14 126/16/16 176/70/66
f 176/70/66 170/65/61 124/14/14
f 171/135/144 178/136/148 177/71/149
f 177/71/149 172/66/145 171/135/144
f 172/66/145 177/71/149 173/67/146
f 177/71/149 179/72/150 173/67/146
f 173/67/146 179/72/150 123/13/114
f 179/72/150 125/15/15 123/13/114
f 180/73/151 181/74/152 155/75/128
f 155/75/128 182/76/45 180/73/151
f 183/77/153 180/73/151 182/76/45
f 182/76/45 184/78/46 183/77/153
f 128/18/18 183/77/153 184/78/46
f 184/78/46 118/19/7 128/18/18
f 185/137/130 187/138/154 186/82/155
f 186/82/155 188/81/129 185/137/130
f 189/79/72 190/80/47 188/81/129
f 188/81/129 186/82/155 189/79/72
f 127/17/17 129/20/8 190/80/47
f 190/80/47 189/79/72 127/17/17
f 191/83/156 192/84/157 181/74/152
f 181/74/152 180/73/151 191/83/156
f 193/85/158 191/83/156 180/73/151
f 180/73/151 183/77/153 193/85/158
f 131/22/115 193/85/158 183/77/153
f 183/77/153 128/18/18 131/22/115
f 187/138/154 194/139/159 186/82/155
f 195/87/160 186/82/155 194/139/159
f 196/86/77 189/79/72 186/82/155
f 186/82/155 195/87/160 196/86/77
f 130/21/19 127/17/17 189/79/72
f 189/79/72 196/86/77 130/21/19
f 197/88/161 198/89/162 192/84/157
f 192/84/157 191/83/156 197/88/161
f 197/88/161 191/83/156 193/85/158
f 193/85/158 199/90/163 197/88/161
f 199/90/163 193/85/158 131/22/115
f 131/22/115 133/24/116 199/90/163
f 194/139/159 200/140/164 195/87/160
f 201/92/165 195/87/160 200/140/164
f 202/91/166 196/86/77 201/92/165
f 201/92/165 196/86/77 195/87/160
f 132/23/21 130/21/19 202/91/166
f 202/91/166 130/21/19 196/86/77
f 157/55/133 198/89/162 197/88/161
f 197/88/161 156/53/131 157/55/133
f 156/53/131 197/88/161 199/90/163
f 199/90/163 160/57/135 156/53/131
f 160/57/135 199/90/163 133/24/116
f 133/24/116 121/10/10 160/57/135
f 200/140/164 162/133/136 201/92/165
f 163/59/138 201/92/165 162/133/136
f 201/92/165 163/59/138 202/91/166
f 167/62/141 202/91/166 163/59/138
f 202/91/166 167/62/141 132/23/21
f 120/11/11 132/23/21 167/62/141
f 203/93/167 174/69/147 204/94/85
f 175/68/64 204/94/85 174/69/147
f 204/94/85 175/68/64 205/95/168
f 176/70/66 205/95/168 175/68/64
f 205/95/168 176/70/66 135/26/24
f 126/16/16 135/26/24 176/70/66
f 177/71/149 178/136/148 206/141/169
f 206/141/169 207/96/170 177/71/149
f 177/71/149 207/96/170 208/97/88
f 208/97/88 179/72/150 177/71/149
f 179/72/150 208/97/88 134/25/23
f 134/25/23 125/15/15 179/72/150
f 209/98/171 203/93/167 210/99/90
f 204/94/85 210/99/90 203/93/167
f 205/95/168 211/100/91 204/94/85
f 204/94/85 211/100/91 210/99/90
f 135/26/24 137/28/26 205/95/168
f 205/95/168 137/28/26 211/100/91
f 207/96/170 206/141/169 212/142/172
f 212/142/172 213/101/173 207/96/170
f 207/96/170 213/101/173 214/102/174
f 214/102/174 208/97/88 207/96/170
f 208/97/88 214/102/174 136/27/25
f 136/27/25 134/25/23 208/97/88
f 215/103/175 209/98/171 216/104/95
f 210/99/90 216/104/95 209/98/171
f 211/100/91 217/105/96 216/104/95
f 216/104/95 210/99/90 211/100/91
f 137/28/26 139/30/28 217/105/96
f 217/105/96 211/100/91 137/28/26
f 213/101/173 212/142/172 218/143/176
f 218/143/176 219/106/177 213/101/173
f 214/102/174 213/101/173 219/106/177
f 219/106/177 220/107/178 214/102/174
f 136/27/25 214/102/174 220/107/178
f 220/107/178 138/29/27 136/27/25
f 141/108/118 215/103/175 221/109/31
f 216/104/95 221/109/31 215/103/175
f 221/109/31 216/104/95 217/105/96
f 217/105/96 144/110/34 221/109/31
f 144/110/34 217/105/96 113/31/3
f 217/105/96 139/30/28 113/31/3
f 219/106/177 218/143/176 222/144/121
f 222/144/121 146/111/120 219/106/177
f 220/107/178 219/106/177 146/111/120
f 146/111/120 223/112/124 220/107/178
f 220/107/178 223/112/124 115/32/4
f 115/32/4 138/29/27 220/107/178
f 102/145/103 200/140/164 194/139/159
f 194/139/159 103/146/104 102/145/103
f 103/146/104 194/139/159 187/138/154
f 187/138/154 104/147/105 103/146/104
f 110/148/111 109/149/110 212/142/172
f 212/142/172 109/149/110 218/143/176
f 111/150/112 110/148/111 206/141/169
f 206/141/169 110/148/111 212/142/172
f 109/149/110 108/151/109 222/144/121
f 222/144/121 218/143/176 109/149/110
f 100/152/100 111/150/112 178/136/148
f 178/136/148 111/150/112 206/141/169
f 147/130/122 222/129/121 107/153/108
f 222/129/121 108/154/109 107/153/108
f 99/155/99 100/152/100 178/136/148
f 178/136/148 171/135/144 99/155/99
f 153/131/127 147/130/122 107/153/108
f 107/153/108 105/156/107 153/131/127
f 99/155/99 164/134/137 101/157/101
f 99/155/99 171/135/144 164/134/137
f 185/132/130 153/131/127 106/158/106
f 153/131/127 105/156/107 106/158/106
f 224/159/102 101/157/101 164/134/137
f 164/134/137 162/133/136 224/159/102
f 187/138/154 185/137/130 106/160/106
f 106/160/106 104/147/105 187/138/154
f 224/159/102 162/133/136 200/140/164
f 200/140/164 102/145/103 224/159/102
f 174/69/147 225/113/179 169/64/143
f 225/113/179 174/69/147 305/114/180
f 169/64/143 226/115/181 159/56/134
f 169/64/143 225/113/179 226/115/181
f 157/55/133 159/56/134 226/115/181
f 226/115/181 304/116/182 157/55/133
f 157/55/133 304/116/182 227/117/183
f 227/117/183 198/89/162 157/55/133
f 198/89/162 227/117/183 192/84/157
f 227/117/183 302/118/184 192/84/157
f 192/84/157 302/118/184 181/74/152
f 302/118/184 303/119/185 181/74/152
f 181/74/152 303/119/185 228/120/186
f 228/120/186 155/75/128 181/74/152
f 301/121/187 149/43/125 228/122/186
f 228/122/186 149/43/125 155/48/128
f 300/123/188 140/33/117 301/121/187
f 301/121/187 140/33/117 149/43/125
f 300/123/188 299/124/189 140/33/117
f 299/124/189 141/34/118 140/33/117
f 215/103/175 299/125/189 313/126/190
f 215/103/175 141/108/118 299/125/189
f 209/98/171 313/126/190 314/127/191
f 209/98/171 215/103/175 313/126/190
f 203/93/167 314/127/191 298/128/192
f 203/93/167 209/98/171 314/127/191
f 174/69/147 298/128/192 305/114/180
f 174/69/147 203/93/167 298/128/192
f 229/161/193 231/162/194 230/163/195
f 229/161/193 232/164/196 231/162/194
f 233/165/197 235/166/198 234/167/199
f 235/166/198 236/168/200 234/167/199
f 237/169/201 239/170/202 238/171/203
f 238/171/203 240/172/204 237/169/201
f 241/173/205 243/174/206 242/175/207
f 242/175/207 244/176/208 241/173/205
f 245/177/209 247/178/210 246/179/211
f 245/177/209 248/180/212 247/178/210
f 248/180/212 230/163/195 247/178/210
f 248/180/212 229/161/193 230/163/195
f 231/162/194 232/164/196 310/181/213
f 310/181/213 249/182/214 231/162/194
f 250/183/215 252/184/216 251/185/217
f 251/185/217 253/186/218 250/183/215
f 234/167/199 236/168/200 252/184/216
f 236/168/200 251/185/217 252/184/216
f 254/187/219 233/165/197 255/188/220
f 233/165/197 254/187/219 235/166/198
f 256/189/221 258/190/222 257/191/223
f 257/191/223 259/192/224 256/189/221
f 258/190/222 237/169/201 240/172/204
f 240/172/204 257/191/223 258/190/222
f 260/193/225 261/194/226 239/170/202
f 239/170/202 262/195/227 260/193/225
f 241/173/205 244/176/208 263/196/228
f 263/196/228 264/197/229 241/173/205
f 265/198/230 267/199/231 266/200/232
f 266/200/232 267/199/231 268/201/233
f 266/200/232 268/201/233 269/202/234
f 269/202/234 268/201/233 243/174/206
f 270/203/235 262/195/227 271/204/236
f 271/204/236 272/205/237 270/203/235
f 271/204/236 262/195/227 239/170/202
f 239/170/202 237/169/201 271/204/236
f 273/206/238 240/172/204 274/207/239
f 238/171/203 274/207/239 240/172/204
f 275/208/240 276/209/241 269/202/234
f 269/202/234 277/210/242 275/208/240
f 277/210/242 269/202/234 243/174/206
f 243/174/206 241/173/205 277/210/242
f 242/175/207 291/211/243 244/176/208
f 244/176/208 291/211/243 290/212/244
f 278/213/245 280/214/246 279/215/247
f 279/215/247 281/216/248 278/213/245
f 281/216/248 279/215/247 258/190/222
f 258/190/222 256/189/221 281/216/248
f 293/217/249 259/192/224 292/218/250
f 257/191/223 292/218/250 259/192/224
f 280/214/246 272/205/237 271/204/236
f 271/204/236 279/215/247 280/214/246
f 279/215/247 271/204/236 237/169/201
f 237/169/201 258/190/222 279/215/247
f 292/218/250 257/191/223 240/172/204
f 240/172/204 273/206/238 292/218/250
f 274/207/239 238/171/203 297/219/251
f 282/220/252 297/219/251 238/171/203
f 261/194/226 282/220/252 239/170/202
f 239/170/202 282/220/252 238/171/203
f 262/195/227 270/203/235 283/221/253
f 283/221/253 260/193/225 262/195/227
f 284/222/254 285/223/255 275/208/240
f 275/208/240 277/210/242 284/222/254
f 284/222/254 277/210/242 241/173/205
f 241/173/205 264/197/229 284/222/254
f 244/176/208 290/212/244 296/224/256
f 296/224/256 263/196/228 244/176/208
f 295/225/257 286/226/258 294/227/259
f 287/228/260 294/227/259 286/226/258
f 267/199/231 287/228/260 268/201/233
f 268/201/233 287/228/260 286/226/258
f 288/229/261 265/198/230 266/200/232
f 266/200/232 289/230/262 288/229/261
f 286/226/258 295/225/257 242/175/207
f 242/175/207 295/225/257 291/211/243
f 268/201/233 286/226/258 243/174/206
f 243/174/206 286/226/258 242/175/207
f 276/209/241 289/230/262 266/200/232
f 266/200/232 269/202/234 276/209/241
f 229/161/193 273/231/238 232/164/196
f 273/231/238 274/232/239 232/164/196
f 290/233/244 291/234/243 230/163/195
f 230/163/195 231/162/194 290/233/244
f 275/208/240 233/165/197 234/167/199
f 234/167/199 276/209/241 275/208/240
f 270/203/235 236/168/200 235/166/198
f 236/168/200 270/203/235 272/205/237
f 245/177/209 293/235/249 292/236/250
f 292/236/250 248/180/212 245/177/209
f 294/237/259 246/179/211 247/178/210
f 247/178/210 295/238/257 294/237/259
f 248/180/212 292/236/250 229/161/193
f 292/236/250 273/231/238 229/161/193
f 295/238/257 247/178/210 230/163/195
f 230/163/195 291/234/243 295/238/257
f 290/233/244 231/162/194 296/239/256
f 231/162/194 249/182/214 296/239/256
f 232/164/196 274/232/239 297/240/251
f 297/240/251 310/181/213 232/164/196
f 288/229/261 289/230/262 252/184/216
f 252/184/216 250/183/215 288/229/261
f 251/185/217 280/214/246 253/186/218
f 253/186/218 280/214/246 278/213/245
f 276/209/241 234/167/199 289/230/262
f 234/167/199 252/184/216 289/230/262
f 236/168/200 272/205/237 280/214/246
f 280/214/246 251/185/217 236/168/200
f 283/221/253 235/166/198 254/187/219
f 235/166/198 283/221/253 270/203/235
f 285/223/255 255/188/220 233/165/197
f 233/165/197 275/208/240 285/223/255
f 278/213/245 305/241/180 298/242/192
f 298/242/192 253/186/218 278/213/245
f 250/183/215 253/186/218 298/242/192
f 298/242/192 314/243/191 250/183/215
f 288/229/261 250/183/215 299/244/189
f 288/229/261 299/245/189 265/198/230
f 299/245/189 300/246/188 265/198/230
f 267/199/231 265/198/230 300/246/188
f 300/246/188 301/247/187 267/199/231
f 267/199/231 301/247/187 287/228/260
f 301/247/187 228/248/186 287/228/260
f 228/248/186 303/249/185 294/227/259
f 294/227/259 287/228/260 228/248/186
f 302/250/184 246/179/211 294/237/259
f 294/237/259 303/251/185 302/250/184
f 302/250/184 227/252/183 246/179/211
f 227/252/183 245/177/209 246/179/211
f 227/252/183 304/253/182 245/177/209
f 304/253/182 293/235/249 245/177/209
f 259/192/224 304/254/182 226/255/181
f 259/192/224 293/217/249 304/254/182
f 256/189/221 259/192/224 226/255/181
f 281/216/248 225/256/179 305/257/180
f 281/216/248 256/189/221 225/256/179
f 278/213/245 281/216/248 305/257/180
f 263/196/228 296/224/256 306/258/263
f 306/258/263 296/224/256 249/259/214
f 264/197/229 263/196/228 307/260/264
f 307/260/264 263/196/228 306/258/263
f 284/222/254 264/197/229 308/261/265
f 308/261/265 264/197/229 307/260/264
f 285/223/255 284/222/254 308/261/265
f 309/262/266 306/258/263 249/259/214
f 249/259/214 310/263/213 309/262/266
f 311/264/267 307/260/264 306/258/263
f 306/258/263 309/262/266 311/264/267
f 312/265/268 308/261/265 307/260/264
f 307/260/264 311/264/267 312/265/268
f 255/188/220 285/223/255 312/265/268
f 285/223/255 308/261/265 312/265/268
f 282/220/252 309/262/266 310/263/213
f 310/263/213 297/219/251 282/220/252
f 261/194/226 311/264/267 309/262/266
f 309/262/266 282/220/252 261/194/226
f 260/193/225 312/265/268 311/264/267
f 311/264/267 261/194/226 260/193/225
f 260/193/225 283/221/253 254/187/219
f 254/187/219 255/188/220 312/265/268
f 312/265/268 260/193/225 254/187/219
f 256/189/221 226/266/181 225/256/179
f 250/183/215 313/267/190 299/244/189
f 250/183/215 314/243/191 313/267/190
