# Blender 4.4.3
# www.blender.org
mtllib cave_map_large.mtl
o cave_map_large.004
v 55.821701 1.731712 156.695480
v 57.869110 1.248570 160.102676
v 60.740372 1.237811 158.260101
v 58.692970 1.720952 154.852890
v 63.069374 2.123312 151.573532
v 63.982597 3.612860 150.889206
v 66.345993 4.273168 153.945908
v 66.341789 2.443644 153.824417
v 64.238266 5.504769 150.697632
v 66.117264 5.628394 153.718765
v 62.541298 7.396678 151.969223
v 64.588707 7.396679 155.376419
v 61.226219 9.288588 152.954636
v 63.273628 9.288588 156.361832
v 58.692970 9.288588 154.852890
v 60.740372 9.079885 158.260101
v 56.159714 7.998751 156.751144
v 58.207123 7.751022 160.158356
v 53.626465 9.002745 158.649414
v 55.335846 9.013505 162.000931
v 52.331871 7.904994 159.619492
v 52.926735 5.741295 163.109512
v 51.550049 5.504770 160.205307
v 53.866638 3.623621 163.365280
v 51.805717 3.612861 160.013733
v 52.174103 1.731712 159.428757
v 54.959152 1.748152 161.801895
v 64.765083 1.360993 166.134567
v 63.368401 1.724034 166.707779
v 62.772797 1.324841 165.323990
v 59.242958 1.251377 162.996536
v 55.467926 2.463096 165.696426
v 50.987877 1.888279 150.470856
v 51.659409 2.029033 149.542389
v 50.398186 1.739969 152.720963
v 52.984100 1.980912 150.783234
v 54.411240 2.016041 153.887589
v 51.046425 1.739040 156.408951
v 66.530571 1.350232 165.805496
v 65.367981 1.314081 163.688278
v 62.777473 1.365923 160.907364
v 53.014153 1.978248 148.861176
v 54.660065 1.980912 149.527390
v 56.668404 2.016040 152.196228
v 68.873322 1.739040 161.750336
v 55.844879 2.000269 148.639557
v 59.166138 1.739039 149.396988
v 68.266205 2.851784 164.504944
v 67.988861 1.713273 164.712769
v 69.286545 3.452870 161.440689
v 68.067101 3.612861 156.943680
v 67.153877 2.123313 157.627991
v 53.479797 1.997841 148.505417
v 53.596336 2.613130 148.416367
v 56.102226 3.076652 148.446716
v 59.579361 3.452869 149.087357
v 68.407265 3.947347 164.399231
v 69.520248 5.156349 161.265549
v 68.322777 5.504770 156.752106
v 53.538689 3.451805 148.415237
v 56.267853 4.362916 148.322617
v 59.813080 5.156346 148.912216
v 68.276276 5.027115 164.497406
v 68.058189 6.857071 161.672424
v 66.625809 7.396679 158.023682
v 53.900574 4.289395 148.138733
v 56.709610 5.630633 147.991577
v 59.358620 6.857069 150.180344
v 68.025719 6.103135 164.685135
v 67.658165 8.556626 161.972153
v 65.310730 9.288589 159.009125
v 53.748024 5.182929 148.255295
v 56.292633 7.513215 148.143936
v 58.990761 8.663025 150.546921
v 66.644417 6.248655 165.720200
v 65.392326 8.588325 163.670029
v 62.777473 9.079885 160.907364
v 52.898445 5.005603 148.904419
v 54.703667 7.665518 149.404068
v 56.692749 8.588322 152.177979
v 65.216942 6.248655 166.789856
v 63.135155 8.588325 165.361404
v 60.244217 7.751022 162.805634
v 51.982491 4.673104 149.309265
v 53.046555 7.648344 150.684586
v 54.435585 8.588322 153.869339
v 63.743279 6.103136 167.383850
v 59.868401 8.681840 167.336670
v 57.152428 9.383494 164.462051
v 51.176773 5.182930 150.219849
v 50.385834 7.451994 152.708313
v 52.111061 8.042925 155.758072
v 62.662773 5.037875 166.768829
v 58.267433 7.030890 167.746552
v 54.566803 7.588475 165.425400
v 50.428955 4.289395 150.791214
v 50.126717 5.630633 152.924362
v 50.652695 6.857070 156.703995
v 62.505630 3.958108 166.886581
v 57.932426 5.346391 167.977356
v 55.131371 5.668638 165.160339
v 50.187187 3.451805 150.975937
v 49.942230 4.362916 153.062607
v 50.417694 5.156347 156.880081
v 62.652710 2.862543 166.776382
v 58.155518 3.631226 167.883301
v 55.391083 4.207516 165.626953
v 50.564682 2.613129 150.732681
v 50.114899 3.076653 152.933228
v 50.639580 3.452870 156.713821
v 58.604301 1.894421 167.658051
v 53.588501 7.391511 162.978439
v 56.845406 1.490141 158.399063
v 59.135727 1.248570 159.153564
v 58.112030 1.490141 157.449951
v 59.716675 1.479381 156.556488
v 57.426346 1.720952 155.802017
v 60.881172 1.922133 153.213196
v 65.378883 4.256874 152.355774
v 66.424416 3.637698 154.034943
v 64.110428 4.558815 150.793427
v 65.261963 5.504769 152.401230
v 65.703438 5.043689 152.938354
v 66.343750 4.961131 153.985291
v 63.389786 6.900651 151.333420
v 63.565010 7.396678 153.672806
v 64.413483 6.900651 153.037018
v 65.437195 6.900652 154.740616
v 61.883766 8.342633 152.461929
v 62.249924 9.288588 154.658234
v 62.907471 8.342633 154.165527
v 63.931168 8.342633 155.869110
v 60.983299 9.184237 155.607361
v 59.959595 9.288588 153.903763
v 59.716675 9.184237 156.556488
v 62.006996 9.184237 157.310959
v 58.450050 8.519804 157.505615
v 57.426346 8.643669 155.802017
v 57.183411 7.874887 158.454758
v 59.473747 8.415455 159.209229
v 55.916786 8.500749 159.403885
v 54.893089 8.500748 157.700272
v 54.650162 9.002745 160.352997
v 56.602478 8.387643 161.051804
v 53.776489 8.191749 160.841736
v 52.979164 8.453870 159.134430
v 53.129196 7.642872 161.326797
v 54.462181 8.202508 162.489685
v 52.798302 6.817765 161.392334
v 52.069382 5.628413 161.629578
v 51.940956 6.704882 159.912415
v 52.363571 4.569576 161.757462
v 53.220917 4.682458 163.237381
v 52.491394 3.623621 161.661667
v 51.677879 4.558816 160.109528
v 54.425476 2.677667 162.683090
v 52.844604 2.677667 161.397018
v 53.754974 1.731712 160.714844
v 52.158905 2.666907 159.749084
v 63.691833 1.542514 166.713913
v 63.070595 1.524438 166.595032
v 63.768936 1.342918 166.071732
v 60.676262 1.290427 164.283554
v 57.439926 1.525638 163.901001
v 58.224411 1.252292 161.672882
v 51.505997 1.860526 150.061523
v 51.691139 1.860440 151.752090
v 50.848122 1.758050 151.446655
v 52.141083 1.878522 150.477798
v 52.336609 1.965239 150.153412
v 52.404709 1.878005 153.304260
v 52.728828 1.877540 155.148270
v 50.722305 1.739505 154.564941
v 53.697670 1.998476 152.335434
v 53.603065 1.729996 156.580048
v 55.285477 1.868497 155.319366
v 65.816833 1.350232 165.873734
v 65.235535 1.332157 165.281693
v 65.949287 1.332157 164.746902
v 63.901382 1.324841 164.478317
v 62.606133 1.350762 163.087860
v 64.072723 1.340002 162.297821
v 61.172829 1.311711 161.800827
v 60.154282 1.312627 160.477188
v 61.758926 1.301866 159.583740
v 52.561989 2.062008 148.889984
v 53.408569 1.979580 149.521713
v 53.822083 1.980912 150.155319
v 53.837112 1.979580 149.194290
v 55.664230 1.998476 150.861786
v 54.826256 1.998476 151.489716
v 55.539825 2.016040 153.041901
v 56.552109 1.868497 154.370255
v 57.680695 1.868497 153.524567
v 67.120644 1.526561 162.719299
v 65.825394 1.552481 161.328842
v 55.252472 1.990590 149.083466
v 57.917267 1.877539 150.796616
v 56.256638 2.008154 150.417892
v 57.505508 1.869654 149.018280
v 58.929550 1.729995 152.124954
v 61.117767 1.931176 150.485260
v 68.127525 2.282528 164.608871
v 68.776367 3.152326 162.972809
v 67.610504 2.868087 157.285843
v 68.676826 3.532866 159.192200
v 68.220207 2.788092 159.534332
v 67.048553 3.612861 155.620026
v 66.591942 2.868087 155.962189
v 66.135330 2.123313 156.304352
v 53.538071 2.305486 148.460892
v 54.849289 2.844891 148.431549
v 57.840797 3.264761 148.767014
v 61.780983 3.532865 149.988281
v 68.336739 3.399565 164.452087
v 69.403397 4.304609 161.353119
v 68.963760 4.551848 162.832382
v 68.846901 3.700109 162.919952
v 68.194939 4.558816 156.847885
v 68.921509 5.330559 159.008835
v 68.793686 4.384605 159.104630
v 67.304214 5.504770 155.428452
v 67.176376 4.558816 155.524246
v 53.567520 3.032467 148.415802
v 54.820465 3.264229 148.431000
v 56.185043 3.719784 148.384674
v 54.903267 3.907361 148.368927
v 57.923599 3.907892 148.704987
v 59.696220 4.304608 148.999786
v 58.040459 4.759632 148.617416
v 61.897842 4.384604 149.900711
v 62.025665 5.330557 149.804916
v 68.341774 4.487231 164.448318
v 68.898262 5.091733 162.881454
v 68.167236 5.942092 163.084900
v 68.789223 6.006711 161.468979
v 67.474281 6.450725 157.387909
v 67.342003 7.126875 159.848068
v 68.190475 6.180920 159.212250
v 65.607262 7.396679 156.700043
v 66.455734 6.450725 156.064255
v 53.719627 3.870600 148.276993
v 55.084213 4.326155 148.230667
v 56.488724 4.996774 148.157104
v 55.305099 4.960014 148.065170
v 58.261353 5.393490 148.451920
v 58.034119 6.243852 149.085968
v 59.585854 6.006709 149.546280
v 61.798431 6.180920 150.438995
v 60.949959 7.126874 151.074768
v 68.150986 5.565125 164.591248
v 68.041962 6.480103 163.178772
v 67.858177 7.706849 161.822281
v 67.841949 7.329880 163.328659
v 65.968269 8.342634 158.516418
v 66.484451 8.922608 160.490662
v 67.141991 7.976653 159.997925
v 64.292183 9.288588 157.685486
v 64.949722 8.342633 157.192780
v 53.824295 4.736162 148.197021
v 55.228821 5.406781 148.123444
v 56.562538 6.262291 148.101807
v 55.081741 6.038439 148.233673
v 57.887039 6.875508 149.196198
v 59.158607 7.706848 150.330231
v 57.641693 8.088120 149.345428
v 60.749947 7.976653 151.224655
v 60.092407 8.922606 151.717377
v 67.335068 6.175895 165.202682
v 66.525253 8.572475 162.821106
v 66.709015 7.345729 164.177582
v 66.018372 7.418490 164.695099
v 64.044098 9.184237 159.958252
v 65.217819 8.818256 161.439774
v 64.084892 8.834105 162.288696
v 63.025551 9.184237 158.634613
v 61.758926 9.079885 159.583740
v 53.323235 5.094266 148.579834
v 53.846085 6.035203 149.165833
v 54.270866 6.123866 148.841263
v 55.498146 7.589367 148.774002
v 55.743240 7.826561 150.802612
v 56.554100 7.741136 150.195007
v 57.825676 8.572474 151.329025
v 57.692863 8.938455 153.515442
v 58.825775 8.922606 152.666504
v 65.930672 6.248655 166.255020
v 65.304634 7.418490 165.229950
v 64.263741 8.588325 164.515732
v 64.176048 7.418490 166.075623
v 62.956314 8.834105 163.134384
v 61.510841 8.415455 161.856491
v 61.689682 8.169673 164.083511
v 60.492302 8.415455 160.532867
v 59.225662 7.751022 161.481979
v 52.469910 5.005603 149.231842
v 53.417542 6.035203 149.493240
v 53.875107 7.656931 150.044327
v 52.579567 6.035203 150.121170
v 54.905266 7.826561 151.430527
v 55.564171 8.588322 153.023651
v 53.776680 7.826561 152.276215
v 56.564278 8.938455 154.361130
v 55.297653 8.293535 155.310242
v 64.480110 6.175895 167.341980
v 63.439217 7.345729 166.627731
v 61.242317 8.628989 166.536453
v 62.314972 7.329881 167.470184
v 60.036171 8.187346 165.027237
v 58.678185 8.538174 163.589935
v 58.133720 9.049108 165.700348
v 57.621025 8.530565 162.375443
v 56.354401 9.156426 163.324570
v 51.609070 5.094266 149.889557
v 52.147270 6.123866 150.451462
v 51.716194 7.550169 151.696457
v 50.809120 6.038439 151.454178
v 52.438530 7.741136 153.278931
v 53.242012 8.294695 154.763718
v 51.248451 7.747459 154.233200
v 54.104073 7.999911 156.204620
v 52.837448 8.501907 157.153748
v 63.372025 5.565125 167.359314
v 61.766930 6.490863 167.571899
v 60.664650 6.050674 167.568634
v 59.211182 7.862267 167.318817
v 57.360870 8.141059 166.158234
v 56.417114 7.309682 166.585983
v 56.002884 8.491887 164.720932
v 55.480736 8.345429 163.813324
v 50.802856 4.736163 150.505539
v 50.277832 4.960014 151.857803
v 50.651749 5.406782 151.572113
v 50.284088 6.262291 152.806442
v 50.389702 6.243852 154.814178
v 50.547081 6.875509 154.696259
v 51.350563 7.429070 156.181061
v 52.139580 7.929907 157.676682
v 51.492279 7.381032 158.161743
v 62.584198 4.497992 166.827698
v 60.120468 5.224865 167.485016
v 60.009270 4.690373 167.561127
v 58.099922 6.188640 167.861969
v 56.699402 6.349763 166.453445
v 56.531898 5.507514 166.568848
v 54.849083 6.628557 165.292862
v 53.827461 7.420552 164.307770
v 53.751976 5.649490 164.194611
v 50.308075 3.870600 150.883575
v 50.064713 3.907362 152.019287
v 50.185585 4.326156 151.926910
v 50.034477 4.996775 152.993484
v 50.179962 4.759632 154.971344
v 50.272202 5.393491 154.902237
v 50.535187 6.006709 156.792038
v 51.101364 6.180920 158.454651
v 50.983864 5.330558 158.542709
v 62.579170 3.410326 166.831482
v 60.120819 3.832791 167.514069
v 60.195229 3.281118 167.482269
v 58.043983 4.488808 167.930359
v 56.045998 4.959407 166.221451
v 56.423309 4.217812 166.563828
v 55.366280 4.863580 165.604507
v 53.879807 4.703537 164.098831
v 54.173988 3.644698 164.226700
v 50.375938 3.032467 150.854324
v 50.339798 2.844892 151.832962
v 50.151047 3.264230 151.954575
v 50.028557 3.719784 152.997910
v 50.528633 4.304609 156.796951
v 50.290894 3.907893 154.888229
v 50.377235 3.264762 154.823517
v 51.111702 4.384605 158.446930
v 51.222641 3.532866 158.363785
v 60.419609 2.412715 167.369629
v 58.379913 2.762824 167.770691
v 54.715408 2.767657 163.388947
v 51.575844 2.586911 158.099121
v 56.602478 1.490141 161.051804
v 55.578773 1.731712 159.348206
v 53.997902 1.731712 158.062119
v 62.718491 1.922133 154.537643
v 62.928566 1.680562 156.620392
v 65.571014 2.475860 152.559937
v 63.525993 2.868086 151.231354
v 61.012909 1.592355 166.818176
v 60.721367 1.845569 167.669739
v 58.792404 1.550230 165.333618
v 56.288826 2.514406 166.441498
v 55.160187 1.808684 163.260696
v 56.700775 1.489082 162.368896
v 51.779274 1.729996 157.946686
v 67.259712 1.531754 165.259140
v 66.678406 1.513677 164.200516
v 68.431091 1.726157 163.231552
v 68.013596 1.931177 159.689148
v 64.965675 1.744618 159.267700
v 63.947128 1.680562 157.944031
v 53.246979 1.988045 148.683304
v 54.069939 1.989376 149.016403
v 54.662338 1.999055 148.572510
v 69.079941 2.595955 161.595505
v 68.569763 2.295411 163.127625
v 54.720612 2.306699 148.527969
v 55.973557 2.538461 148.543152
v 59.372749 2.595954 149.242172
v 57.634186 2.407846 148.921844
v 61.324364 2.788091 150.330444
v 63.010551 2.293289 167.001450
v 55.328827 2.991975 165.570267
v 50.931381 2.194631 150.452515
v 50.256546 2.408310 152.827087
v 50.481438 2.176549 151.726837
v 50.843002 2.595955 156.561386
v 50.580658 2.407847 154.671066
v 53.257622 6.566404 163.043961
v 54.794090 6.182302 165.382111
v 51.360878 2.295689 150.124344
v 50.496826 3.451262 150.761963
v 51.235153 4.647501 150.175232
v 53.399513 4.647501 148.521561
v 51.303024 4.415852 150.145981
v 52.583214 4.152287 148.874954
v 53.218567 4.228704 148.659821
v 52.723778 2.547340 148.773102
v 51.598640 3.774931 149.586609
v 53.305244 2.295689 148.638763
v 53.276421 2.715027 148.638214
v 63.708893 2.111769 166.797913
v 64.422630 2.111769 166.263123
v 67.398392 2.101008 165.155197
v 64.349091 2.659550 166.318192
v 67.468933 2.648790 165.102386
v 67.525841 5.098001 165.059708
v 67.460335 5.637887 165.108795
v 64.744026 5.098001 166.331223
v 64.030296 5.098001 166.866043
v 66.587494 3.799444 165.762863
v 64.108856 5.637887 166.807175
v 66.451538 3.001364 154.039658
v 65.789864 2.353423 152.911850
v 65.495857 4.666019 152.573608
v 65.994064 5.213289 153.426514
v 65.419762 2.983979 152.343231
v 65.435356 3.621033 152.408783
v 66.085777 2.358410 153.398376
v 55.744400 2.388661 165.947357
v 55.332603 3.599473 165.573776
v 56.388191 3.610002 166.531891
v 56.430046 3.002959 166.569763
v 55.729301 5.113368 165.934067
v 56.282364 4.604827 166.435959
v 56.060219 2.391811 166.234009
v 52.328331 4.512096 149.059250
v 51.580269 4.431458 149.599991
v 51.526138 3.168277 149.638931
v 52.686005 3.155233 148.800461
v 52.309174 1.944533 149.072693
v 51.513756 2.560946 149.647781
v 52.732826 3.762176 148.766724
v 51.962151 1.948435 149.323532
vn 0.3264 0.9263 -0.1880
vn 0.1683 0.9857 0.0028
vn 0.1014 0.9948 0.0111
vn 0.0481 0.9968 0.0640
vn -0.0004 1.0000 -0.0005
vn 0.0914 0.9957 0.0175
vn 0.0267 0.9990 0.0359
vn 0.1370 0.9889 0.0579
vn -0.0357 0.9966 0.0737
vn 0.0078 0.9913 0.1317
vn 0.0688 0.9923 0.1033
vn -0.5074 0.8610 0.0353
vn -0.0855 0.9889 0.1212
vn -0.1041 0.9876 0.1179
vn -0.1394 0.9897 -0.0329
vn -0.5939 0.3889 0.7043
vn -0.4415 0.5389 0.7174
vn -0.6540 -0.0592 0.7541
vn -0.6308 -0.2319 0.7405
vn -0.6280 0.1521 0.7632
vn -0.7772 -0.3435 0.5272
vn -0.8032 -0.1241 0.5827
vn -0.8416 -0.1208 0.5264
vn -0.7626 -0.4213 0.4909
vn -0.4038 -0.7868 0.4668
vn -0.3888 -0.7398 0.5491
vn -0.5180 -0.7968 0.3113
vn -0.5021 -0.7942 0.3422
vn -0.5401 -0.7765 0.3245
vn -0.5485 -0.7789 0.3040
vn -0.2837 -0.9043 0.3191
vn -0.5614 -0.6542 0.5068
vn -0.3306 -0.9226 0.1987
vn -0.3061 -0.9287 0.2093
vn -0.6486 -0.6538 0.3897
vn -0.6240 -0.6554 0.4255
vn 0.0126 -0.9992 -0.0382
vn 0.0488 -0.9967 0.0652
vn 0.1398 -0.9888 -0.0523
vn 0.2973 -0.9240 -0.2406
vn 0.2584 -0.9237 -0.2828
vn 0.1391 -0.9798 -0.1436
vn 0.0534 -0.9952 -0.0818
vn -0.3227 -0.9378 0.1279
vn -0.1801 -0.9483 0.2613
vn -0.0305 -0.9976 -0.0622
vn 0.2047 -0.9784 0.0280
vn 0.5207 -0.8024 -0.2915
vn 0.5382 -0.8171 -0.2064
vn 0.1454 -0.9867 -0.0722
vn 0.6968 -0.6470 -0.3097
vn 0.6898 -0.6346 -0.3485
vn 0.8164 -0.4372 -0.3772
vn 0.8429 -0.1334 -0.5212
vn 0.8913 -0.1612 -0.4237
vn 0.9338 -0.0863 -0.3473
vn 0.8629 0.1952 -0.4661
vn 0.7399 0.5352 -0.4076
vn 0.8210 0.2924 -0.4904
vn 0.5545 0.7075 -0.4382
vn 0.6462 0.5814 -0.4943
vn 0.6055 0.7485 -0.2704
vn 0.8928 0.2800 -0.3528
vn 0.1236 0.4886 -0.8637
vn -0.1374 0.6225 -0.7705
vn -0.0296 0.8884 -0.4581
vn 0.0201 0.9974 -0.0697
vn 0.0325 0.9784 -0.2040
vn 0.1794 0.6547 -0.7343
vn 0.1520 0.9773 -0.1479
vn 0.0394 0.9981 -0.0473
vn 0.1575 0.9741 -0.1623
vn 0.5786 0.7919 -0.1953
vn 0.1428 0.9882 -0.0553
vn 0.0661 0.9974 -0.0276
vn 0.6389 0.7687 0.0286
vn -0.0935 0.9956 -0.0010
vn 0.4091 0.8975 0.1647
vn 0.6224 0.6694 0.4056
vn -0.1099 0.9910 0.0768
vn 0.3719 0.8517 0.3693
vn -0.0092 0.9989 0.0466
vn -0.0739 0.9971 0.0182
vn -0.0380 0.9975 0.0589
vn -0.0019 0.9987 0.0519
vn 0.0254 0.9959 0.0873
vn -0.1348 0.8467 -0.5147
vn -0.0827 0.8095 -0.5813
vn -0.0048 0.9998 -0.0200
vn -0.0589 0.9979 0.0285
vn 0.0045 1.0000 -0.0006
vn -0.0095 0.9999 0.0076
vn -0.0585 0.9976 0.0377
vn -0.0262 0.9996 0.0107
vn -0.0730 0.9973 0.0079
vn -0.0198 0.9997 -0.0108
vn -0.0074 1.0000 0.0047
vn 0.0062 0.9995 0.0318
vn -0.0062 1.0000 -0.0052
vn 0.0026 0.9999 0.0164
vn 0.0587 0.9981 0.0159
vn -0.0115 0.9999 -0.0045
vn -0.0063 0.9999 -0.0084
vn -0.0506 0.9987 0.0055
vn -0.0409 0.9991 0.0075
vn 0.0217 0.9969 0.0757
vn 0.0528 0.9961 0.0704
vn 0.0613 0.9940 0.0903
vn 0.0894 0.9951 0.0424
vn -0.3516 0.6803 -0.6431
vn -0.5411 0.6786 -0.4967
vn -0.0957 0.9948 0.0345
vn -0.6516 0.6103 -0.4504
vn -0.6664 0.7202 -0.1927
vn -0.1602 0.9868 0.0253
vn -0.0306 0.9984 0.0472
vn -0.0753 0.9916 0.1055
vn -0.7087 0.7040 0.0464
vn -0.5708 0.7608 0.3090
vn -0.4827 0.8329 0.2707
vn -0.1291 0.9888 0.0754
vn -0.1047 0.9905 0.0890
vn -0.3975 0.8964 0.1961
vn -0.0094 0.9999 0.0092
vn -0.0089 0.9996 0.0268
vn 0.2485 0.6516 0.7167
vn 0.4145 0.7003 0.5812
vn 0.1049 0.9945 -0.0048
vn 0.0336 0.9994 -0.0122
vn -0.0636 0.7536 0.6542
vn -0.0829 0.9961 0.0293
vn 0.0154 0.9999 0.0047
vn -0.2057 0.7791 0.5921
vn -0.9776 0.2094 0.0197
vn -0.9679 0.2441 0.0596
vn -0.9477 0.1354 -0.2890
vn -0.8226 0.0797 -0.5630
vn -0.9435 0.1778 -0.2798
vn -0.8155 0.0944 -0.5710
vn -0.8238 0.3827 0.4182
vn -0.7114 0.6024 0.3619
vn -0.8889 0.3809 0.2546
vn -0.8404 0.4398 0.3167
vn -0.7734 0.5572 0.3024
vn 0.2621 0.0685 0.9626
vn 0.2945 0.0820 0.9521
vn -0.0513 0.1702 0.9841
vn -0.1239 0.2036 0.9712
vn -0.3489 0.2474 0.9039
vn -0.2001 0.2199 0.9548
vn -0.1109 0.1505 0.9824
vn -0.3150 0.2111 0.9253
vn -0.4166 0.4170 0.8078
vn -0.2833 0.8703 0.4028
vn -0.9647 -0.2619 -0.0276
vn -0.9908 0.1340 -0.0183
vn -0.9435 0.0098 -0.3313
vn -0.8243 0.0147 -0.5660
vn -0.9496 0.0965 -0.2983
vn -0.8149 0.0492 -0.5775
vn -0.8495 -0.3159 0.4225
vn -0.8825 0.1639 0.4409
vn -0.9326 -0.2818 0.2257
vn -0.9517 0.1565 0.2641
vn -0.8545 -0.0257 0.5188
vn -0.7768 -0.3372 0.5319
vn -0.8293 0.1544 0.5371
vn 0.2572 0.0564 0.9647
vn 0.2976 0.0217 0.9544
vn -0.0052 0.0482 0.9988
vn -0.0957 0.1078 0.9896
vn -0.1260 0.2107 0.9694
vn -0.1912 0.1225 0.9739
vn -0.2861 0.1368 0.9484
vn -0.3135 -0.2235 0.9229
vn -0.3796 0.1449 0.9137
vn -0.7957 -0.0416 -0.6043
vn -0.8241 -0.1297 -0.5514
vn -0.8921 -0.4075 -0.1951
vn -0.8733 -0.3392 -0.3497
vn -0.6460 -0.6796 0.3477
vn -0.6096 -0.7392 0.2863
vn -0.8230 -0.5113 0.2475
vn -0.8937 -0.4474 0.0346
vn -0.7065 -0.6912 0.1520
vn -0.7657 -0.6372 -0.0877
vn -0.5670 -0.7219 0.3967
vn -0.5830 -0.7326 0.3513
vn 0.2485 0.1148 0.9618
vn 0.2847 0.1873 0.9401
vn -0.0832 0.3119 0.9465
vn -0.1542 0.2996 0.9415
vn -0.3042 -0.1721 0.9369
vn -0.2084 0.2236 0.9521
vn -0.2019 -0.0401 0.9786
vn -0.4337 -0.4532 0.7788
vn -0.2220 -0.6223 0.7506
vn -0.4035 -0.4451 0.7995
vn -0.2799 -0.6208 0.7323
vn -0.8702 -0.1192 -0.4781
vn -0.6840 -0.7252 -0.0789
vn -0.9600 -0.2486 0.1285
vn -0.7852 -0.5085 -0.3535
vn -0.3469 -0.9242 0.1598
vn -0.6324 -0.6550 0.4135
vn -0.4054 -0.9090 0.0966
vn -0.8081 -0.4735 0.3504
vn -0.3049 -0.9230 0.2346
vn -0.5983 -0.6557 0.4604
vn 0.4409 -0.3247 0.8367
vn 0.3702 -0.0577 0.9272
vn 0.1072 -0.1286 0.9859
vn -0.2474 -0.1612 0.9554
vn -0.0270 -0.6052 0.7956
vn -0.5606 -0.2345 0.7942
vn -0.5012 -0.2618 0.8247
vn -0.2031 -0.7992 0.5657
vn -0.4661 -0.4584 0.7567
vn -0.2718 -0.8977 -0.3469
vn -0.2767 -0.8939 -0.3526
vn -0.4528 -0.7035 -0.5478
vn -0.7841 -0.3416 -0.5182
vn -0.5790 -0.3853 -0.7185
vn 0.1278 -0.9820 -0.1392
vn -0.0055 -0.9932 -0.1166
vn -0.0744 -0.9868 -0.1439
vn 0.0521 -0.9978 -0.0401
vn 0.0544 -0.9978 -0.0371
vn 0.5911 -0.3116 0.7440
vn 0.6146 -0.3410 0.7113
vn 0.5540 -0.5272 0.6443
vn 0.2996 -0.2958 0.9070
vn 0.5320 -0.5240 0.6652
vn 0.3332 -0.8196 0.4661
vn 0.3085 -0.8130 0.4938
vn 0.1227 -0.9656 0.2294
vn -0.1587 -0.7721 0.6154
vn 0.2094 -0.9583 0.1942
vn 0.1819 -0.9483 0.2602
vn 0.2143 -0.9530 0.2144
vn 0.1187 -0.9787 0.1675
vn -0.1990 -0.8872 0.4163
vn 0.1227 -0.9793 0.1609
vn -0.4194 -0.7148 -0.5596
vn -0.2619 -0.8996 -0.3495
vn -0.4440 -0.7131 -0.5426
vn 0.1563 -0.9803 -0.1207
vn 0.3448 -0.9204 -0.1842
vn -0.0814 -0.9917 -0.0994
vn 0.1786 -0.9733 -0.1443
vn 0.3068 -0.9220 -0.2361
vn 0.3055 -0.9220 -0.2377
vn 0.1820 -0.9733 -0.1400
vn 0.5351 -0.4773 0.6970
vn 0.4853 -0.4996 0.7176
vn 0.5224 -0.5057 0.6865
vn 0.3605 -0.8115 0.4599
vn 0.3661 -0.8165 0.4465
vn 0.1571 -0.9654 0.2082
vn 0.1871 -0.9501 0.2497
vn 0.2132 -0.9751 0.0616
vn 0.1802 -0.9802 -0.0821
vn -0.1605 -0.9331 -0.3218
vn -0.3894 -0.6655 -0.6368
vn -0.1630 -0.9625 -0.2168
vn -0.1162 -0.1683 -0.9789
vn -0.4444 0.0302 -0.8953
vn 0.0414 -0.9989 0.0236
vn -0.1404 -0.9735 0.1808
vn -0.3576 -0.9116 0.2028
vn 0.2489 -0.9679 0.0357
vn -0.0042 -0.9998 -0.0179
vn -0.2704 -0.9211 0.2800
vn -0.3026 -0.9344 0.1879
vn -0.0041 -1.0000 0.0078
vn 0.6422 -0.3534 0.6802
vn 0.5540 -0.4171 0.7205
vn 0.4913 -0.5188 0.6996
vn 0.3853 -0.8152 0.4324
vn 0.7445 -0.6337 0.2102
vn 0.1871 -0.9681 0.1668
vn 0.1721 -0.9844 -0.0366
vn 0.3553 -0.9344 -0.0252
vn -0.0224 -0.9977 0.0643
vn -0.1989 0.5861 -0.7855
vn -0.0449 -0.0046 -0.9990
vn 0.2544 -0.3539 -0.9000
vn 0.1906 -0.3721 -0.9084
vn 0.0292 -0.7379 -0.6743
vn 0.3722 -0.6851 -0.6262
vn 0.6798 -0.3693 -0.6336
vn 0.4527 -0.8233 -0.3425
vn 0.0897 -0.9885 -0.1216
vn 0.5198 -0.8258 -0.2189
vn 0.7584 -0.5636 -0.3274
vn 0.5620 -0.7768 -0.2843
vn 0.9735 -0.1943 0.1209
vn 0.9097 -0.2811 0.3056
vn 0.8722 -0.2979 0.3880
vn 0.7753 -0.3254 0.5413
vn 0.9760 -0.1458 0.1618
vn 0.9775 -0.1984 -0.0716
vn 0.4515 -0.8918 -0.0289
vn 0.8791 -0.4627 -0.1149
vn 0.8614 -0.4841 -0.1538
vn 0.6164 -0.7833 -0.0801
vn 0.6108 -0.7893 -0.0631
vn -0.0780 0.2708 -0.9595
vn -0.1021 -0.0936 -0.9904
vn -0.2127 0.0436 -0.9761
vn 0.3011 -0.0600 -0.9517
vn 0.2882 -0.1669 -0.9429
vn 0.6309 0.0200 -0.7756
vn 0.5516 0.0525 -0.8325
vn 0.5454 0.1010 -0.8321
vn 0.1565 0.1045 -0.9821
vn 0.8240 -0.3588 -0.4385
vn 0.9211 -0.2612 -0.2888
vn 0.8903 0.0805 0.4482
vn 0.8214 -0.1138 0.5589
vn 0.9890 -0.0515 0.1386
vn 0.9887 -0.1372 0.0612
vn 0.9999 -0.0135 0.0074
vn 0.9925 -0.0055 -0.1225
vn 0.9681 -0.1542 -0.1976
vn 0.8402 -0.3895 -0.3774
vn 0.7666 -0.6013 -0.2253
vn 0.9041 -0.2660 -0.3345
vn -0.2348 0.0305 -0.9716
vn -0.2577 0.0610 -0.9643
vn -0.2234 0.0266 -0.9744
vn 0.2302 0.1135 -0.9665
vn 0.2535 0.0779 -0.9642
vn 0.6559 -0.0728 -0.7513
vn 0.7634 -0.0348 -0.6450
vn 0.7516 0.1421 -0.6441
vn 0.7927 0.1184 -0.5980
vn 0.6534 0.5064 -0.5627
vn 0.8166 0.2525 0.5190
vn 0.8267 0.2221 0.5170
vn 0.9497 0.2828 0.1346
vn 0.9895 0.1374 -0.0449
vn 0.9740 -0.0071 -0.2266
vn 0.9581 0.1487 -0.2447
vn 0.9780 0.1443 -0.1508
vn 0.9203 0.1605 -0.3567
vn 0.9466 -0.0009 -0.3223
vn 0.9293 0.1566 -0.3345
vn -0.2571 -0.1748 -0.9504
vn -0.2949 -0.1783 -0.9387
vn -0.1549 -0.2144 -0.9644
vn 0.1807 0.1662 -0.9694
vn 0.5614 0.0590 -0.8254
vn 0.9658 -0.0464 -0.2551
vn 0.7430 0.5784 -0.3369
vn 0.9810 0.1920 -0.0292
vn 0.9781 0.2079 -0.0041
vn 0.9067 0.3529 0.2309
vn 0.7667 0.1909 0.6130
vn 0.9397 0.2206 -0.2614
vn 0.9192 0.2693 -0.2874
vn 0.9674 0.2008 -0.1542
vn 0.9564 0.2422 -0.1631
vn 0.8920 0.2855 -0.3504
vn 0.8997 0.2839 -0.3317
vn 0.8848 0.3177 -0.3408
vn 0.4966 -0.0927 0.8630
vn 0.6071 -0.0000 0.7946
vn 0.4222 0.8749 0.2371
vn 0.7796 0.0853 0.6205
vn 0.5807 0.0196 0.8139
vn 0.8161 -0.1788 0.5496
vn 0.6517 0.0137 0.7584
vn 0.7484 -0.2282 0.6227
vn 0.2428 -0.3816 0.8919
vn 0.9406 0.0588 0.3345
vn 0.2753 0.8891 0.3656
vn 0.3793 0.1379 0.9149
vn -0.0174 0.8139 0.5808
vn -0.4131 0.2830 -0.8656
vn -0.2444 0.0478 -0.9685
vn -0.4198 -0.2562 -0.8707
vn -0.5997 -0.0000 -0.8002
vn -0.3718 -0.2625 -0.8904
vn -0.5997 -0.0000 -0.8003
vn -0.5996 -0.0000 -0.8003
vn -0.5254 -0.3541 -0.7737
vn -0.5937 -0.1404 -0.7923
vn -0.5607 -0.1327 -0.8173
vn -0.2128 0.4035 -0.8899
vn -0.2471 0.2769 -0.9286
vn -0.4404 0.0046 -0.8978
vn 0.5928 0.0204 0.8051
vn 0.2383 0.1375 0.9614
vn 0.9048 0.0079 0.4257
vn 0.7974 -0.4591 0.3917
vn 0.7268 0.0283 0.6862
vn 0.3762 -0.0696 0.9239
vn 0.3180 -0.2632 0.9109
vn 0.5427 0.8155 -0.2011
vn 0.6015 0.7808 -0.1690
vn 0.5824 0.8065 -0.1022
vn 0.9616 0.1351 -0.2389
vn 0.6074 -0.0005 -0.7944
vn 0.3044 0.7677 -0.5638
vn -0.2224 0.0497 -0.9737
vn -0.0824 0.3552 -0.9311
vn 0.9627 0.2568 0.0848
vn 0.8091 0.2625 -0.5258
vn 0.6845 -0.1109 -0.7205
vn 0.6817 -0.1989 -0.7041
vn -0.2951 -0.5983 0.7449
vn 0.6303 0.0071 -0.7763
vn 0.6456 -0.0269 -0.7632
vn -0.2325 -0.0286 -0.9722
vn 0.9847 -0.1493 -0.0903
vn 0.9619 -0.1732 0.2117
vn 0.4893 -0.2415 -0.8380
vn -0.1021 0.1822 -0.9780
vn 0.2808 -0.9452 0.1669
vn 0.1950 -0.9785 -0.0666
vn 0.1897 -0.9817 0.0162
vn 0.0488 -0.9557 -0.2902
vn -0.2620 -0.4290 -0.8645
vn 0.1446 -0.9489 -0.2806
vn 0.1825 -0.9625 0.2006
vn 0.4865 -0.5088 0.7102
vn -0.3998 -0.7098 -0.5800
vn -0.3372 -0.4982 0.7988
vn 0.0112 0.0859 0.9962
vn -0.9741 -0.2167 -0.0647
vn -0.3436 -0.2598 0.9024
vn -0.0411 0.2223 0.9741
vn -0.3646 0.3589 0.8592
vn -0.1963 0.1699 0.9657
vn -0.0295 0.0941 0.9951
vn -0.9037 -0.0078 0.4281
vn -0.7916 0.3947 0.4664
vn -0.3612 0.7807 0.5099
vn -0.0760 0.7915 0.6064
vn -0.0380 0.7532 0.6567
vn -0.9639 0.0344 0.2639
vn -0.9948 0.0667 0.0773
vn -0.1056 0.9940 0.0269
vn 0.0233 0.9992 0.0310
vn -0.0692 0.9934 0.0920
vn -0.0722 0.9910 0.1127
vn 0.0218 0.9978 -0.0628
vn 0.0260 0.9868 -0.1600
vn 0.6416 0.7402 -0.2012
vn 0.2753 0.9460 -0.1709
vn 0.2184 0.9385 -0.2674
vn -0.5550 -0.3833 0.7383
vn -0.4564 0.1405 0.8786
vn -0.1749 0.8407 0.5125
vn -0.5201 -0.0163 0.8539
vn -0.0416 0.9824 0.1820
vn 0.0185 0.9408 -0.3384
vn 0.9811 -0.0909 0.1706
vn 0.4121 -0.0015 0.9111
vn 0.0135 0.9680 -0.2508
vt 0.688861 0.305238
vt 0.721530 0.278657
vt 0.746541 0.317667
vt 0.804483 0.340025
vt 0.757064 0.364001
vt 0.754462 0.262007
vt 0.787395 0.245355
vt 0.779473 0.301016
vt 0.822659 0.221066
vt 0.847669 0.260075
vt 0.812404 0.284365
vt 0.975645 0.152879
vt 0.920899 0.218231
vt 0.879552 0.192301
vt 0.980350 0.160685
vt 0.668423 0.842744
vt 0.682115 0.876155
vt 0.693014 0.799785
vt 0.634440 0.789364
vt 0.651544 0.813907
vt 0.657529 0.765934
vt 0.684139 0.765607
vt 0.681168 0.752820
vt 0.666014 0.740011
vt 0.571474 0.749434
vt 0.597037 0.762335
vt 0.581659 0.722084
vt 0.590163 0.695893
vt 0.608696 0.736515
vt 0.617873 0.708203
vt 0.519590 0.715784
vt 0.543313 0.730855
vt 0.526893 0.694918
vt 0.533426 0.672198
vt 0.552971 0.707760
vt 0.560764 0.683907
vt 0.019916 0.191691
vt 0.046872 0.159815
vt 0.044708 0.190887
vt 0.022081 0.160620
vt 0.069499 0.190083
vt 0.096455 0.158207
vt 0.094290 0.189279
vt 0.071664 0.159011
vt 0.119081 0.188474
vt 0.146037 0.156599
vt 0.143872 0.187670
vt 0.121246 0.157403
vt 0.345269 0.636429
vt 0.323934 0.604208
vt 0.325544 0.629332
vt 0.351631 0.614150
vt 0.304729 0.621260
vt 0.302420 0.594157
vt 0.276875 0.589226
vt 0.244245 0.551590
vt 0.233982 0.579685
vt 0.227735 0.607436
vt 0.193540 0.571418
vt 0.151949 0.518877
vt 0.151260 0.570984
vt 0.085024 0.518693
vt 0.100535 0.575099
vt 0.046500 0.638657
vt 0.100397 0.624230
vt 0.673320 0.078786
vt 0.676536 0.071964
vt 0.672596 0.086174
vt 0.696075 0.105542
vt 0.646653 0.126863
vt 0.604192 0.168506
vt 0.654708 0.188615
vt 0.708202 0.203371
vt 0.670656 0.231692
vt 0.660458 0.285950
vt 0.695026 0.262982
vt 0.725326 0.238343
vt 0.831442 0.494457
vt 0.865058 0.477460
vt 0.862722 0.498235
vt 0.884557 0.505406
vt 0.896339 0.481237
vt 0.898469 0.498813
vt 0.848568 0.398537
vt 0.840005 0.446497
vt 0.804826 0.420654
vt 0.783950 0.387579
vt 0.827692 0.365462
vt 0.699742 0.055529
vt 0.716070 0.036250
vt 0.722428 0.054519
vt 0.757094 0.068232
vt 0.725418 0.090706
vt 0.741077 0.132151
vt 0.788411 0.151121
vt 0.753146 0.175411
vt 0.805534 0.186094
vt 0.770270 0.210383
vt 0.942250 0.438432
vt 0.929425 0.464641
vt 0.920462 0.449447
vt 0.940699 0.459073
vt 0.907253 0.368865
vt 0.924752 0.403648
vt 0.902965 0.414664
vt 0.898676 0.460463
vt 0.873622 0.429500
vt 0.872679 0.299085
vt 0.860623 0.348811
vt 0.839747 0.315736
vt 0.889966 0.333975
vt 0.724877 0.022042
vt 0.743834 0.012457
vt 0.740985 0.045137
vt 0.762792 0.002871
vt 0.798316 0.008950
vt 0.759943 0.035552
vt 0.772752 0.109677
vt 0.811125 0.083075
vt 0.833840 0.015028
vt 0.868018 0.054310
vt 0.902196 0.093590
vt 0.862427 0.157328
vt 0.845303 0.122356
vt 0.919320 0.128563
vt 0.957652 0.430644
vt 0.946824 0.456047
vt 0.951398 0.473663
vt 0.945273 0.476688
vt 0.949415 0.357244
vt 0.940154 0.395861
vt 0.973055 0.422856
vt 0.929572 0.270319
vt 0.932128 0.322354
vt 0.991576 0.345623
vt 0.723041 0.553026
vt 0.751677 0.527200
vt 0.705966 0.503339
vt 0.680171 0.455339
vt 0.730440 0.472188
vt 0.693422 0.432414
vt 0.752658 0.655513
vt 0.788130 0.636985
vt 0.742821 0.602693
vt 0.773222 0.577452
vt 0.807147 0.673734
vt 0.400273 0.965368
vt 0.397567 0.979541
vt 0.437181 0.978998
vt 0.475593 0.990862
vt 0.478547 0.965230
vt 0.585275 0.982281
vt 0.580482 0.940744
vt 0.530252 0.963540
vt 0.481124 0.940839
vt 0.575266 0.903211
vt 0.630247 0.913478
vt 0.691282 0.915625
vt 0.672141 0.587853
vt 0.695939 0.572001
vt 0.666705 0.541678
vt 0.653112 0.491861
vt 0.689782 0.519204
vt 0.666208 0.474197
vt 0.682838 0.670390
vt 0.715551 0.665451
vt 0.680254 0.628787
vt 0.711583 0.616483
vt 0.697774 0.745553
vt 0.680323 0.698711
vt 0.720136 0.698973
vt 0.398594 0.927622
vt 0.399295 0.946373
vt 0.439976 0.935902
vt 0.481203 0.913817
vt 0.481330 0.888468
vt 0.526969 0.898696
vt 0.567271 0.870823
vt 0.560013 0.841496
vt 0.613364 0.846737
vt 0.637438 0.504218
vt 0.622597 0.515973
vt 0.617300 0.556045
vt 0.650320 0.551028
vt 0.605301 0.652403
vt 0.643358 0.662325
vt 0.609019 0.622518
vt 0.608724 0.592394
vt 0.646644 0.629264
vt 0.639842 0.590083
vt 0.598862 0.674743
vt 0.636905 0.686519
vt 0.416037 0.892349
vt 0.407475 0.909485
vt 0.449135 0.891885
vt 0.486290 0.864380
vt 0.524854 0.843922
vt 0.523511 0.866932
vt 0.490602 0.842136
vt 0.510690 0.816437
vt 0.580523 0.793671
vt 0.526596 0.790740
vt 0.542326 0.815078
vt 0.607077 0.525264
vt 0.569036 0.603422
vt 0.586566 0.598615
vt 0.580682 0.572966
vt 0.549253 0.637855
vt 0.574743 0.645158
vt 0.559802 0.620464
vt 0.586301 0.624151
vt 0.541634 0.654469
vt 0.568512 0.664619
vt 0.412974 0.858186
vt 0.414117 0.874968
vt 0.453260 0.852299
vt 0.483669 0.823370
vt 0.474725 0.792742
vt 0.502703 0.800046
vt 0.513989 0.771210
vt 0.501206 0.751475
vt 0.534268 0.752528
vt 0.522156 0.575303
vt 0.547759 0.589727
vt 0.555154 0.553664
vt 0.592724 0.534212
vt 0.574621 0.521445
vt 0.071462 0.075646
vt 0.046671 0.076450
vt 0.044914 0.046881
vt 0.018366 0.018117
vt 0.040540 0.017398
vt 0.024246 0.129548
vt 0.047854 0.102597
vt 0.049037 0.128744
vt 0.023063 0.103401
vt 0.377191 0.858044
vt 0.395672 0.858535
vt 0.406092 0.823346
vt 0.448375 0.831359
vt 0.421328 0.824318
vt 0.071756 0.295889
vt 0.055894 0.296839
vt 0.070976 0.268591
vt 0.040031 0.297790
vt 0.033507 0.270241
vt 0.055105 0.269106
vt 0.071143 0.242401
vt 0.048969 0.243120
vt 0.070321 0.216242
vt 0.026982 0.242692
vt 0.023356 0.217765
vt 0.048147 0.216961
vt 0.519150 0.534060
vt 0.494646 0.561216
vt 0.537412 0.544250
vt 0.089177 0.045446
vt 0.096253 0.074841
vt 0.067088 0.046162
vt 0.073828 0.127940
vt 0.097437 0.100988
vt 0.098620 0.127135
vt 0.072645 0.101792
vt 0.338225 0.863030
vt 0.358295 0.853620
vt 0.391425 0.818667
vt 0.433885 0.778935
vt 0.411453 0.769008
vt 0.104538 0.294339
vt 0.088147 0.295114
vt 0.087377 0.268059
vt 0.093233 0.241684
vt 0.115322 0.240967
vt 0.092410 0.215525
vt 0.467482 0.547836
vt 0.470349 0.509733
vt 0.425621 0.533023
vt 0.477531 0.473960
vt 0.492224 0.480086
vt 0.121045 0.074037
vt 0.143679 0.047383
vt 0.148199 0.078039
vt 0.113969 0.044641
vt 0.123411 0.126331
vt 0.150858 0.103132
vt 0.152042 0.129279
vt 0.122228 0.100184
vt 0.314013 0.818289
vt 0.327099 0.832607
vt 0.350701 0.797373
vt 0.387916 0.758329
vt 0.350516 0.741775
vt 0.156885 0.292265
vt 0.130711 0.293302
vt 0.135657 0.266493
vt 0.138683 0.240210
vt 0.162139 0.237606
vt 0.140563 0.213963
vt 0.474319 0.456464
vt 0.432443 0.475055
vt 0.355061 0.490492
vt 0.383500 0.509879
vt 0.398338 0.526369
vt 0.358293 0.529395
vt 0.314450 0.536048
vt 0.346124 0.553238
vt 0.372683 0.563951
vt 0.339098 0.564558
vt 0.297756 0.566234
vt 0.327061 0.580824
vt 0.271005 0.748301
vt 0.267464 0.783843
vt 0.289478 0.783478
vt 0.309135 0.772273
vt 0.290677 0.740719
vt 0.271720 0.706420
vt 0.317783 0.725107
vt 0.322270 0.704213
vt 0.291161 0.702141
vt 0.277560 0.668160
vt 0.302833 0.675927
vt 0.313307 0.651396
vt 0.471368 0.434182
vt 0.473895 0.415011
vt 0.397016 0.430016
vt 0.331627 0.438755
vt 0.343688 0.466699
vt 0.316388 0.486707
vt 0.268887 0.494910
vt 0.293703 0.520443
vt 0.279919 0.515433
vt 0.272572 0.558985
vt 0.305482 0.546480
vt 0.232389 0.837719
vt 0.249489 0.830568
vt 0.229032 0.802135
vt 0.250587 0.757715
vt 0.228380 0.767533
vt 0.221947 0.720974
vt 0.251669 0.671810
vt 0.269349 0.614767
vt 0.290591 0.643714
vt 0.252477 0.640786
vt 0.476854 0.394532
vt 0.485825 0.374229
vt 0.398974 0.376141
vt 0.329993 0.366890
vt 0.328756 0.404689
vt 0.265889 0.441171
vt 0.249383 0.526649
vt 0.210357 0.512202
vt 0.196297 0.446283
vt 0.161480 0.496647
vt 0.213973 0.876006
vt 0.223333 0.856176
vt 0.197054 0.839270
vt 0.207213 0.783815
vt 0.222661 0.675921
vt 0.191579 0.686497
vt 0.191466 0.737316
vt 0.191473 0.609726
vt 0.223114 0.641536
vt 0.187081 0.648593
vt 0.495418 0.352943
vt 0.509783 0.330055
vt 0.418152 0.315779
vt 0.351235 0.284177
vt 0.339135 0.326276
vt 0.274840 0.334247
vt 0.162978 0.439140
vt 0.096478 0.497744
vt 0.013272 0.530470
vt 0.184480 0.802011
vt 0.160355 0.824934
vt 0.175403 0.864914
vt 0.210124 0.904039
vt 0.156620 0.699243
vt 0.117303 0.717914
vt 0.166292 0.751602
vt 0.130608 0.776979
vt 0.150458 0.613697
vt 0.150490 0.656622
vt 0.102666 0.674363
vt 0.385566 0.892655
vt 0.395923 0.876353
vt 0.236933 0.945933
vt 0.228727 0.918323
vt 0.216928 0.937412
vt 0.241285 0.848465
vt 0.266118 0.823193
vt 0.302578 0.837137
vt 0.290420 0.821662
vt 0.352419 0.874765
vt 0.250725 0.922275
vt 0.394830 0.993919
vt 0.383048 0.994470
vt 0.371285 0.994932
vt 0.384990 0.960731
vt 0.355312 0.990512
vt 0.525161 0.453882
vt 0.555959 0.365371
vt 0.537581 0.330628
vt 0.596093 0.316412
vt 0.633890 0.332156
vt 0.659132 0.343068
vt 0.672478 0.401866
vt 0.685001 0.375715
vt 0.568308 0.343919
vt 0.601135 0.499422
vt 0.588202 0.511335
vt 0.555238 0.509639
vt 0.534329 0.498825
vt 0.658650 0.423816
vt 0.512985 0.489389
vt 0.497531 0.462644
vt 0.501495 0.445811
vt 0.599574 0.439475
vt 0.707097 0.407848
vt 0.547397 0.306247
vt 0.534191 0.309762
vt 0.385904 0.980089
vt 0.363568 0.967934
vt 0.294518 0.883988
vt 0.315343 0.860390
vt 0.297716 0.846322
vt 0.366511 0.911323
vt 0.360780 0.893147
vt 0.199309 0.915295
vt 0.054496 0.691736
vt 0.073257 0.741038
vt 0.100272 0.799627
vt 0.134960 0.850996
vt 0.169880 0.893924
vt 0.130037 0.430204
vt 0.036205 0.486385
vt 0.272180 0.366068
vt 0.272191 0.308639
vt 0.274855 0.334180
vt 0.403940 0.353068
vt 0.427712 0.289055
vt 0.208328 0.821309
vt 0.203827 0.535975
vt 0.238113 0.457882
vt 0.196366 0.446283
vt 0.295925 0.460010
vt 0.258692 0.456358
vt 0.273571 0.398898
vt 0.271263 0.420540
vt 0.393281 0.409787
vt 0.244447 0.714564
vt 0.245825 0.795872
vt 0.330239 0.513640
vt 0.408945 0.459229
vt 0.328689 0.680661
vt 0.336663 0.658378
vt 0.353669 0.592480
vt 0.364179 0.576633
vt 0.380674 0.547105
vt 0.440679 0.499406
vt 0.168664 0.186866
vt 0.165354 0.213159
vt 0.117202 0.214721
vt 0.159512 0.264935
vt 0.109466 0.267343
vt 0.363623 0.807485
vt 0.175625 0.080552
vt 0.175650 0.102328
vt 0.176833 0.128475
vt 0.106893 0.015245
vt 0.141755 0.017167
vt 0.166585 0.019239
vt 0.174153 0.055836
vt 0.489518 0.519762
vt 0.062714 0.016678
vt 0.084804 0.015962
vt 0.454829 0.786570
vt 0.021880 0.077254
vt 0.020123 0.047686
vt 0.511083 0.734399
vt 0.549003 0.771185
vt 0.488220 0.772365
vt 0.456379 0.867856
vt 0.602570 0.562896
vt 0.600880 0.817244
vt 0.442564 0.908918
vt 0.626487 0.876656
vt 0.529955 0.924768
vt 0.441705 0.954207
vt 0.734958 0.747465
vt 0.764591 0.691020
vt 0.641349 0.953473
vt 0.530042 0.989771
vt 0.435103 0.993530
vt 0.832088 0.745681
vt 0.849315 0.651177
vt 0.826823 0.612802
vt 0.768414 0.742691
vt 0.802195 0.742178
vt 0.809728 0.552195
vt 0.782621 0.496701
vt 0.747459 0.449024
vt 0.986465 0.241554
vt 0.989021 0.293588
vt 0.982316 0.384240
vt 0.939148 0.479714
vt 0.962226 0.448260
vt 0.795467 0.041630
vt 0.877911 0.383701
vt 0.933871 0.488864
vt 0.927438 0.492257
vt 0.910903 0.500976
vt 0.905139 0.480507
vt 0.696133 0.160111
vt 0.690752 0.076994
vt 0.761084 0.442770
vt 0.736531 0.411554
vt 0.709646 0.387976
vt 0.796263 0.468614
vt 0.612745 0.254329
vt 0.610361 0.245957
vt 0.605666 0.229470
vt 0.625843 0.124148
vt 0.023451 0.578580
vt 0.170828 0.155794
vt 0.687155 0.782760
vt 0.723905 0.842744
vt 0.740215 0.858755
vt 0.708921 0.820496
vt 0.989484 0.176258
vt 0.699122 0.341642
vt 0.985683 0.169668
vt 0.607638 0.236393
vt 0.129912 0.430151
vt 0.101114 0.417290
vt 0.271750 0.902018
vt 0.362550 0.939552
vt 0.918607 0.496914
s 1
usemtl Cave_Material.005
f 27/1/1 380/2/2 381/3/3
f 1/4/4 382/5/5 381/3/3
f 2/6/6 114/7/7 113/8/8
f 3/9/9 116/10/10 115/11/11
f 8/12/12 383/13/13 384/14/14
f 8/12/12 447/15/15 383/13/13
f 6/16/16 386/17/17 119/18/18
f 9/19/19 121/20/20 122/21/21
f 123/22/22 444/23/23 10/24/24
f 11/25/25 125/26/26 126/27/27
f 12/28/28 127/29/29 128/30/30
f 13/31/31 129/32/32 130/33/33
f 14/34/34 131/35/35 132/36/36
f 13/37/31 133/38/37 134/39/38
f 13/37/31 130/40/33 133/38/37
f 15/41/39 137/42/40 138/43/41
f 15/41/39 135/44/42 137/42/40
f 17/45/43 141/46/44 142/47/45
f 17/45/43 139/48/46 141/46/44
f 19/49/47 145/50/48 146/51/49
f 19/49/47 143/52/50 145/50/48
f 21/53/51 147/54/52 149/55/53
f 22/56/54 150/57/55 149/55/53
f 23/58/56 150/57/55 152/59/57
f 24/60/58 154/61/59 152/59/57
f 24/60/58 156/62/60 157/63/61
f 26/64/62 159/65/63 157/63/61
f 29/66/64 160/67/65 161/68/66
f 30/69/67 387/70/68 161/68/66
f 111/71/69 387/70/68 389/72/70
f 31/73/71 164/74/72 389/72/70
f 27/1/1 391/75/73 392/76/74
f 31/73/71 165/77/75 392/76/74
f 35/78/76 167/79/77 168/80/78
f 33/81/79 169/82/80 166/83/81
f 37/84/82 171/85/83 172/86/84
f 35/78/76 171/85/83 167/79/77
f 1/4/4 175/87/85 382/5/5
f 1/4/4 176/88/86 175/87/85
f 28/89/87 177/90/88 178/91/89
f 40/92/90 180/93/91 178/91/89
f 30/69/67 180/93/91 181/94/92
f 41/95/93 183/96/94 181/94/92
f 31/73/71 183/96/94 165/77/75
f 41/95/93 185/97/95 184/98/96
f 43/99/97 187/100/98 188/101/99
f 43/99/97 189/102/100 187/100/98
f 44/103/101 190/104/102 191/105/103
f 36/106/104 174/107/105 191/105/103
f 4/108/106 193/109/107 117/110/108
f 4/108/106 194/111/109 193/109/107
f 39/112/110 394/113/111 179/114/112
f 49/115/113 396/116/114 395/117/115
f 41/95/93 182/118/116 196/119/117
f 45/120/118 397/121/119 196/119/117
f 52/122/120 399/123/121 398/124/122
f 52/122/120 210/125/123 399/123/121
f 43/99/97 197/126/124 401/127/125
f 53/128/126 400/129/127 401/127/125
f 44/103/101 198/130/128 199/131/129
f 46/132/130 197/126/124 199/131/129
f 4/108/106 118/133/131 201/134/132
f 47/135/133 198/130/128 201/134/132
f 50/136/134 403/137/135 204/138/136
f 48/139/137 404/140/138 203/141/139
f 51/142/140 205/143/141 206/144/142
f 50/136/134 207/145/143 403/137/135
f 51/142/140 209/146/144 205/143/141
f 54/147/145 211/148/146 405/149/147
f 46/150/130 406/151/148 405/149/147
f 47/152/133 407/153/149 408/154/150
f 55/155/151 406/151/148 408/154/150
f 56/156/152 407/153/149 409/157/153
f 5/158/154 386/17/17 409/157/153
f 58/159/155 216/160/156 217/161/157
f 57/162/158 218/163/159 215/164/160
f 59/165/161 219/166/162 220/167/163
f 58/159/155 221/168/164 216/160/156
f 10/24/24 124/169/165 222/170/166
f 59/165/161 223/171/167 219/166/162
f 60/172/168 224/173/169 225/174/170
f 55/155/151 226/175/171 225/174/170
f 61/176/172 226/175/171 228/177/173
f 56/156/152 229/178/174 228/177/173
f 62/179/175 229/178/174 231/180/176
f 6/16/16 121/20/20 231/180/176
f 57/162/158 233/181/177 217/161/157
f 63/182/178 235/183/179 234/184/180
f 65/185/181 237/186/182 238/187/183
f 64/188/184 239/189/185 236/190/186
f 12/28/28 128/30/30 240/191/187
f 65/185/181 241/192/188 237/186/182
f 66/193/189 242/194/190 243/195/191
f 61/176/172 244/196/192 243/195/191
f 62/179/175 246/197/193 230/198/194
f 67/199/195 246/197/193 247/200/196
f 9/19/19 125/26/26 249/201/197
f 68/202/198 248/203/199 249/201/197
f 63/182/178 251/204/200 235/183/179
f 70/205/201 253/206/202 254/207/203
f 71/208/204 255/209/205 256/210/206
f 70/205/201 257/211/207 253/206/202
f 14/34/34 132/36/36 258/212/208
f 71/208/204 259/213/209 255/209/205
f 72/214/210 260/215/211 261/216/212
f 67/199/195 262/217/213 261/216/212
f 73/218/214 262/217/213 264/219/215
f 68/202/198 265/220/216 264/219/215
f 74/221/217 265/220/216 267/222/218
f 11/25/25 129/32/32 267/222/218
f 76/223/219 270/224/220 271/225/221
f 69/226/222 269/227/223 271/225/221
f 77/228/224 273/229/225 274/230/226
f 70/231/201 270/232/220 274/230/226
f 14/233/34 276/234/227 136/235/228
f 14/233/34 258/236/208 276/234/227
f 78/237/229 278/238/230 279/239/231
f 72/214/210 263/240/232 280/241/233
f 79/242/234 281/243/235 282/244/236
f 73/245/214 266/246/237 283/247/238
f 80/248/239 284/249/240 285/250/241
f 74/251/217 268/252/242 286/253/243
f 76/223/219 288/254/244 289/255/245
f 76/223/219 272/256/246 288/254/244
f 77/228/224 291/257/247 292/258/248
f 77/228/224 275/259/249 291/257/247
f 16/260/250 294/261/251 140/262/252
f 16/260/250 277/263/253 294/261/251
f 84/264/254 296/265/255 297/266/256
f 79/267/234 298/268/257 297/266/256
f 85/269/258 298/270/257 300/271/259
f 80/248/239 301/272/260 300/271/259
f 86/273/261 301/272/260 303/274/262
f 15/41/39 138/43/41 303/274/262
f 82/275/263 306/276/264 307/277/265
f 87/278/266 306/276/264 305/279/267
f 83/280/268 309/281/269 310/282/270
f 83/280/268 293/283/271 309/281/269
f 18/284/272 312/285/273 144/286/274
f 18/284/272 295/287/275 312/285/273
f 90/288/276 314/289/277 315/290/278
f 85/291/258 316/292/279 315/290/278
f 91/293/280 316/294/279 318/295/281
f 86/273/261 319/296/282 318/295/281
f 92/297/283 319/296/282 321/298/284
f 17/45/43 142/47/45 321/298/284
f 87/278/266 323/299/285 324/300/286
f 94/301/287 326/302/288 324/300/286
f 88/303/289 326/302/288 327/304/290
f 95/305/291 329/306/292 327/304/290
f 89/307/293 329/306/292 330/308/294
f 112/309/295 148/310/296 330/308/294
f 97/311/297 332/312/298 333/313/299
f 90/288/276 317/314/300 333/313/299
f 97/311/297 334/315/301 335/316/302
f 91/317/280 320/318/303 336/319/304
f 98/320/305 337/321/306 338/322/307
f 19/49/47 146/51/49 338/322/307
f 93/323/308 340/324/309 341/325/310
f 100/326/311 343/327/312 341/325/310
f 94/301/287 343/327/312 344/328/313
f 101/329/314 346/330/315 344/328/313
f 112/309/295 418/331/316 417/332/317
f 95/305/291 346/330/315 347/333/318
f 102/334/319 349/335/320 350/336/321
f 97/311/297 352/337/322 332/312/298
f 103/338/323 352/337/322 353/339/324
f 98/320/305 355/340/325 335/316/302
f 21/53/51 151/341/326 339/342/327
f 98/320/305 356/343/328 355/340/325
f 99/344/329 358/345/330 359/346/331
f 106/347/332 361/348/333 359/346/331
f 100/326/311 361/348/333 362/349/334
f 22/56/54 348/350/335 365/351/336
f 107/352/337 366/353/338 365/351/336
f 108/354/339 367/355/340 368/356/341
f 103/338/323 370/357/342 350/336/321
f 104/358/343 371/359/344 353/339/324
f 103/338/323 372/360/345 370/357/342
f 23/58/56 155/361/346 357/362/347
f 104/358/343 374/363/348 371/359/344
f 105/364/349 410/365/350 376/366/351
f 111/367/69 377/368/352 376/366/351
f 106/347/332 377/368/352 451/369/353
f 107/352/337 449/370/354 378/371/355
f 27/372/1 156/62/60 378/371/355
f 109/373/356 413/374/357 368/356/341
f 108/354/339 414/375/358 412/376/359
f 110/377/360 415/378/361 373/379/362
f 109/373/356 416/380/363 413/374/357
f 25/381/364 159/65/63 375/382/365
f 110/377/360 379/383/366 415/378/361
f 78/237/229 425/384/367 422/385/368
f 34/386/369 419/387/370 166/388/81
f 108/354/339 420/389/371 367/355/340
f 96/390/372 421/391/373 331/392/374
f 78/237/229 422/385/368 278/238/230
f 96/390/372 420/389/371 421/391/373
f 84/264/254 455/393/375 296/265/255
f 34/386/369 460/394/376 419/387/370
f 53/395/126 211/148/146 400/396/127
f 42/397/377 429/398/378 186/399/379
f 60/172/168 429/398/378 224/173/169
f 99/344/329 437/400/380 433/401/381
f 105/364/349 430/402/382 410/365/350
f 28/403/87 430/402/382 177/404/88
f 39/405/110 432/406/383 394/407/111
f 105/364/349 358/345/330 431/408/384
f 48/139/137 432/406/383 215/164/160
f 57/162/158 435/409/385 233/181/177
f 63/182/178 436/410/386 251/204/200
f 75/411/387 437/400/380 287/412/388
f 57/162/158 434/413/383 435/409/385
f 81/414/389 440/415/390 305/279/267
f 93/323/308 440/415/390 340/324/309
f 440/415/390 81/414/389 438/416/391
f 440/415/390 438/416/391 340/324/309
f 340/324/309 438/416/391 99/344/329
f 440/415/390 93/323/308 323/299/285
f 440/415/390 323/299/285 305/279/267
f 305/279/267 323/299/285 87/278/266
f 434/413/383 39/405/110 439/417/392
f 434/413/383 439/417/392 435/409/385
f 435/409/385 439/417/392 75/411/387
f 437/400/380 99/344/329 438/416/391
f 437/400/380 438/416/391 287/412/388
f 287/412/388 438/416/391 81/414/389
f 436/410/386 75/411/387 269/227/223
f 436/410/386 269/227/223 251/204/200
f 251/204/200 269/227/223 69/226/222
f 435/409/385 75/411/387 436/410/386
f 435/409/385 436/410/386 233/181/177
f 233/181/177 436/410/386 63/182/178
f 432/406/383 39/405/110 434/413/383
f 432/406/383 434/413/383 215/164/160
f 215/164/160 434/413/383 57/162/158
f 358/345/330 99/344/329 433/401/381
f 358/345/330 433/401/381 431/408/384
f 431/408/384 433/401/381 39/405/110
f 432/406/383 48/139/137 203/141/139
f 432/406/383 203/141/139 394/407/111
f 394/407/111 203/141/139 49/418/113
f 430/402/382 105/364/349 431/408/384
f 430/402/382 431/408/384 177/404/88
f 177/404/88 431/408/384 39/405/110
f 430/402/382 28/403/87 160/419/65
f 430/402/382 160/419/65 410/365/350
f 410/365/350 160/419/65 29/420/64
f 437/400/380 75/411/387 439/417/392
f 437/400/380 439/417/392 433/401/381
f 433/401/381 439/417/392 39/405/110
f 429/398/378 42/397/377 428/421/393
f 429/398/378 428/421/393 224/173/169
f 224/173/169 428/421/393 54/147/145
f 429/398/378 60/172/168 426/422/394
f 429/398/378 426/422/394 186/399/379
f 211/148/146 54/147/145 428/421/393
f 211/148/146 428/421/393 400/396/127
f 400/396/127 428/421/393 42/397/377
f 427/423/395 456/424/396 423/425/397
f 427/423/395 423/425/397 419/387/370
f 419/387/370 423/425/397 108/354/339
f 461/426/398 60/172/168 424/427/399
f 424/427/399 60/172/168 425/384/367
f 424/427/399 425/384/367 296/265/255
f 296/265/255 425/384/367 78/237/229
f 420/389/371 108/354/339 423/425/397
f 420/389/371 423/425/397 421/391/373
f 421/391/373 423/425/397 84/264/254
f 422/385/368 66/193/189 260/215/211
f 422/385/368 260/215/211 278/238/230
f 278/238/230 260/215/211 72/214/210
f 421/391/373 84/264/254 314/289/277
f 421/391/373 314/289/277 331/392/374
f 331/392/374 314/289/277 90/288/276
f 420/389/371 96/390/372 349/335/320
f 420/389/371 349/335/320 367/355/340
f 367/355/340 349/335/320 102/334/319
f 419/387/370 108/354/339 412/376/359
f 419/387/370 412/376/359 166/388/81
f 166/388/81 412/376/359 33/428/79
f 425/384/367 60/172/168 242/194/190
f 425/384/367 242/194/190 422/385/368
f 422/385/368 242/194/190 66/193/189
f 379/383/366 26/64/62 393/429/400
f 379/383/366 393/429/400 415/378/361
f 415/378/361 393/429/400 38/430/401
f 159/65/63 26/64/62 379/383/366
f 159/65/63 379/383/366 375/382/365
f 375/382/365 379/383/366 110/377/360
f 416/380/363 38/430/401 173/431/402
f 416/380/363 173/431/402 413/374/357
f 413/374/357 173/431/402 35/432/76
f 415/378/361 38/430/401 416/380/363
f 415/378/361 416/380/363 373/379/362
f 373/379/362 416/380/363 109/373/356
f 414/375/358 35/432/76 168/433/78
f 414/375/358 168/433/78 412/376/359
f 412/376/359 168/433/78 33/428/79
f 413/374/357 35/432/76 414/375/358
f 413/374/357 414/375/358 368/356/341
f 368/356/341 414/375/358 108/354/339
f 156/62/60 24/60/58 366/353/338
f 156/62/60 366/353/338 378/371/355
f 378/371/355 366/353/338 107/352/337
f 411/434/403 391/435/73 378/371/355
f 378/371/355 391/435/73 27/372/1
f 451/369/353 450/436/404 106/347/332
f 377/368/352 111/367/69 390/437/405
f 390/437/405 451/438/353 377/368/352
f 377/368/352 106/347/332 360/439/406
f 377/368/352 360/439/406 376/366/351
f 376/366/351 360/439/406 105/364/349
f 410/365/350 29/420/64 388/440/407
f 410/365/350 388/440/407 376/366/351
f 376/366/351 388/440/407 111/367/69
f 374/363/348 25/381/364 375/382/365
f 374/363/348 375/382/365 371/359/344
f 371/359/344 375/382/365 110/377/360
f 155/361/346 25/381/364 374/363/348
f 155/361/346 374/363/348 357/362/347
f 357/362/347 374/363/348 104/358/343
f 372/360/345 110/377/360 373/379/362
f 372/360/345 373/379/362 370/357/342
f 370/357/342 373/379/362 109/373/356
f 371/359/344 110/377/360 372/360/345
f 371/359/344 372/360/345 353/339/324
f 353/339/324 372/360/345 103/338/323
f 370/357/342 109/373/356 369/441/408
f 370/357/342 369/441/408 350/336/321
f 350/336/321 369/441/408 102/334/319
f 367/355/340 102/334/319 369/441/408
f 367/355/340 369/441/408 368/356/341
f 368/356/341 369/441/408 109/373/356
f 366/353/338 24/60/58 153/442/409
f 366/353/338 153/442/409 365/351/336
f 365/351/336 153/442/409 22/56/54
f 348/350/335 101/329/314 364/443/410
f 348/350/335 364/443/410 365/351/336
f 364/443/410 107/444/337 365/351/336
f 364/443/410 101/329/314 345/445/411
f 452/446/412 345/445/411 362/349/334
f 362/349/334 345/445/411 100/326/311
f 361/348/333 106/347/332 363/447/413
f 363/447/413 453/448/414 361/348/333
f 361/348/333 100/326/311 342/449/415
f 361/348/333 342/449/415 359/346/331
f 359/346/331 342/449/415 99/344/329
f 358/345/330 105/364/349 360/439/406
f 358/345/330 360/439/406 359/346/331
f 359/346/331 360/439/406 106/347/332
f 356/343/328 23/58/56 357/362/347
f 356/343/328 357/362/347 355/340/325
f 355/340/325 357/362/347 104/358/343
f 151/341/326 23/58/56 356/343/328
f 151/341/326 356/343/328 339/342/327
f 339/342/327 356/343/328 98/320/305
f 355/340/325 104/358/343 354/450/416
f 355/340/325 354/450/416 335/316/302
f 335/316/302 354/450/416 97/311/297
f 352/337/322 97/311/297 354/450/416
f 352/337/322 354/450/416 353/339/324
f 353/339/324 354/450/416 104/358/343
f 352/337/322 103/338/323 351/451/417
f 352/337/322 351/451/417 332/312/298
f 332/312/298 351/451/417 96/390/372
f 349/335/320 96/390/372 351/451/417
f 349/335/320 351/451/417 350/336/321
f 350/336/321 351/451/417 103/338/323
f 346/330/315 101/329/314 418/331/316
f 346/330/315 418/331/316 347/333/318
f 347/333/318 418/331/316 112/309/295
f 418/331/316 101/329/314 348/350/335
f 418/331/316 348/350/335 417/332/317
f 417/332/317 348/350/335 22/56/54
f 346/330/315 95/305/291 328/452/418
f 346/330/315 328/452/418 344/328/313
f 344/328/313 328/452/418 94/301/287
f 343/327/312 100/326/311 345/445/411
f 343/327/312 345/445/411 344/328/313
f 344/328/313 345/445/411 101/329/314
f 343/327/312 94/301/287 325/453/419
f 343/327/312 325/453/419 341/325/310
f 341/325/310 325/453/419 93/323/308
f 340/324/309 99/344/329 342/449/415
f 340/324/309 342/449/415 341/325/310
f 341/325/310 342/449/415 100/326/311
f 146/51/49 21/53/51 339/342/327
f 146/51/49 339/342/327 338/322/307
f 338/322/307 339/342/327 98/320/305
f 337/321/306 92/454/283 322/455/420
f 337/321/306 322/455/420 338/322/307
f 338/322/307 322/455/420 19/49/47
f 320/318/303 92/454/283 337/321/306
f 320/318/303 337/321/306 336/319/304
f 336/319/304 337/321/306 98/320/305
f 334/315/301 91/317/280 336/319/304
f 334/315/301 336/319/304 335/316/302
f 335/316/302 336/319/304 98/320/305
f 317/314/300 91/317/280 334/315/301
f 317/314/300 334/315/301 333/313/299
f 333/313/299 334/315/301 97/311/297
f 332/312/298 96/390/372 331/392/374
f 332/312/298 331/392/374 333/313/299
f 333/313/299 331/392/374 90/288/276
f 148/310/296 20/456/421 313/457/422
f 148/310/296 313/457/422 330/308/294
f 330/308/294 313/457/422 89/307/293
f 329/306/292 95/305/291 347/333/318
f 329/306/292 347/333/318 330/308/294
f 330/308/294 347/333/318 112/309/295
f 329/306/292 89/307/293 311/458/423
f 329/306/292 311/458/423 327/304/290
f 327/304/290 311/458/423 88/303/289
f 326/302/288 94/301/287 328/452/418
f 326/302/288 328/452/418 327/304/290
f 327/304/290 328/452/418 95/305/291
f 326/302/288 88/303/289 308/459/424
f 326/302/288 308/459/424 324/300/286
f 324/300/286 308/459/424 87/278/266
f 323/299/285 93/323/308 325/453/419
f 323/299/285 325/453/419 324/300/286
f 324/300/286 325/453/419 94/301/287
f 142/47/45 19/460/47 322/461/420
f 142/47/45 322/461/420 321/298/284
f 321/298/284 322/461/420 92/297/283
f 319/296/282 86/273/261 304/462/425
f 319/296/282 304/462/425 321/298/284
f 321/298/284 304/462/425 17/45/43
f 319/296/282 92/297/283 320/463/303
f 319/296/282 320/463/303 318/295/281
f 318/295/281 320/463/303 91/293/280
f 316/294/279 85/269/258 302/464/426
f 316/294/279 302/464/426 318/295/281
f 318/295/281 302/464/426 86/273/261
f 316/292/279 91/317/280 317/314/300
f 316/292/279 317/314/300 315/290/278
f 315/290/278 317/314/300 90/288/276
f 314/289/277 84/264/254 299/465/427
f 314/289/277 299/465/427 315/290/278
f 315/290/278 299/465/427 85/291/258
f 295/287/275 83/280/268 310/282/270
f 295/287/275 310/282/270 312/285/273
f 312/285/273 310/282/270 89/466/293
f 312/285/273 89/466/293 313/467/422
f 312/285/273 313/467/422 144/286/274
f 144/286/274 313/467/422 20/468/421
f 293/283/271 82/469/263 307/470/265
f 293/283/271 307/470/265 309/281/269
f 309/281/269 307/470/265 88/471/289
f 309/281/269 88/471/289 311/472/423
f 309/281/269 311/472/423 310/282/270
f 310/282/270 311/472/423 89/466/293
f 306/276/264 82/275/263 290/473/428
f 306/276/264 290/473/428 305/279/267
f 305/279/267 290/473/428 81/414/389
f 306/276/264 87/278/266 308/459/424
f 306/276/264 308/459/424 307/277/265
f 307/277/265 308/459/424 88/303/289
f 138/43/41 17/45/43 304/462/425
f 138/43/41 304/462/425 303/274/262
f 303/274/262 304/462/425 86/273/261
f 301/272/260 80/248/239 285/250/241
f 301/272/260 285/250/241 303/274/262
f 303/274/262 285/250/241 15/41/39
f 301/272/260 86/273/261 302/464/426
f 301/272/260 302/464/426 300/271/259
f 300/271/259 302/464/426 85/269/258
f 298/270/257 79/242/234 282/244/236
f 298/270/257 282/244/236 300/271/259
f 300/271/259 282/244/236 80/248/239
f 298/268/257 85/291/258 299/465/427
f 298/268/257 299/465/427 297/266/256
f 297/266/256 299/465/427 84/264/254
f 296/265/255 78/237/229 279/239/231
f 296/265/255 279/239/231 297/266/256
f 297/266/256 279/239/231 79/267/234
f 277/263/253 77/228/224 292/258/248
f 277/263/253 292/258/248 294/261/251
f 294/261/251 292/258/248 83/280/268
f 294/261/251 83/280/268 295/287/275
f 294/261/251 295/287/275 140/262/252
f 140/262/252 295/287/275 18/284/272
f 275/259/249 76/474/219 289/475/245
f 275/259/249 289/475/245 291/257/247
f 291/257/247 289/475/245 82/469/263
f 291/257/247 82/469/263 293/283/271
f 291/257/247 293/283/271 292/258/248
f 292/258/248 293/283/271 83/280/268
f 272/256/246 75/411/387 287/412/388
f 272/256/246 287/412/388 288/254/244
f 288/254/244 287/412/388 81/414/389
f 288/254/244 81/414/389 290/473/428
f 288/254/244 290/473/428 289/255/245
f 289/255/245 290/473/428 82/275/263
f 268/252/242 13/37/31 134/39/38
f 268/252/242 134/39/38 286/253/243
f 286/253/243 134/39/38 15/41/39
f 284/249/240 74/251/217 286/253/243
f 284/249/240 286/253/243 285/250/241
f 285/250/241 286/253/243 15/41/39
f 266/246/237 74/251/217 284/249/240
f 266/246/237 284/249/240 283/247/238
f 283/247/238 284/249/240 80/248/239
f 281/243/235 73/245/214 283/247/238
f 281/243/235 283/247/238 282/244/236
f 282/244/236 283/247/238 80/248/239
f 263/240/232 73/218/214 281/476/235
f 263/240/232 281/476/235 280/241/233
f 280/241/233 281/476/235 79/267/234
f 278/238/230 72/214/210 280/241/233
f 278/238/230 280/241/233 279/239/231
f 279/239/231 280/241/233 79/267/234
f 258/236/208 71/477/204 273/229/225
f 258/236/208 273/229/225 276/234/227
f 276/234/227 273/229/225 77/228/224
f 276/234/227 77/228/224 277/263/253
f 276/234/227 277/263/253 136/235/228
f 136/235/228 277/263/253 16/260/250
f 270/232/220 76/474/219 275/259/249
f 270/232/220 275/259/249 274/230/226
f 274/230/226 275/259/249 77/228/224
f 273/229/225 71/477/204 256/478/206
f 273/229/225 256/478/206 274/230/226
f 274/230/226 256/478/206 70/231/201
f 269/227/223 75/411/387 272/256/246
f 269/227/223 272/256/246 271/225/221
f 271/225/221 272/256/246 76/223/219
f 270/224/220 70/205/201 254/207/203
f 270/224/220 254/207/203 271/225/221
f 271/225/221 254/207/203 69/226/222
f 129/32/32 13/31/31 268/479/242
f 129/32/32 268/479/242 267/222/218
f 267/222/218 268/479/242 74/221/217
f 265/220/216 68/202/198 250/480/429
f 265/220/216 250/480/429 267/222/218
f 267/222/218 250/480/429 11/25/25
f 265/220/216 74/221/217 266/481/237
f 265/220/216 266/481/237 264/219/215
f 264/219/215 266/481/237 73/218/214
f 262/217/213 67/199/195 247/200/196
f 262/217/213 247/200/196 264/219/215
f 264/219/215 247/200/196 68/202/198
f 262/217/213 73/218/214 263/240/232
f 262/217/213 263/240/232 261/216/212
f 261/216/212 263/240/232 72/214/210
f 260/215/211 66/193/189 245/482/430
f 260/215/211 245/482/430 261/216/212
f 261/216/212 245/482/430 67/199/195
f 259/213/209 12/28/28 240/191/187
f 259/213/209 240/191/187 255/209/205
f 255/209/205 240/191/187 65/185/181
f 132/36/36 12/28/28 259/213/209
f 132/36/36 259/213/209 258/212/208
f 258/212/208 259/213/209 71/208/204
f 257/211/207 65/185/181 238/187/183
f 257/211/207 238/187/183 253/206/202
f 253/206/202 238/187/183 64/188/184
f 255/209/205 65/185/181 257/211/207
f 255/209/205 257/211/207 256/210/206
f 256/210/206 257/211/207 70/205/201
f 253/206/202 64/188/184 252/483/431
f 253/206/202 252/483/431 254/207/203
f 254/207/203 252/483/431 69/226/222
f 251/204/200 69/226/222 252/483/431
f 251/204/200 252/483/431 235/183/179
f 235/183/179 252/483/431 64/188/184
f 248/203/199 62/179/175 232/484/432
f 248/203/199 232/484/432 249/201/197
f 249/201/197 232/484/432 9/19/19
f 125/26/26 11/25/25 250/480/429
f 125/26/26 250/480/429 249/201/197
f 249/201/197 250/480/429 68/202/198
f 246/197/193 62/179/175 248/203/199
f 246/197/193 248/203/199 247/200/196
f 247/200/196 248/203/199 68/202/198
f 246/197/193 67/199/195 244/196/192
f 246/197/193 244/196/192 230/198/194
f 230/198/194 244/196/192 61/176/172
f 244/196/192 67/199/195 245/482/430
f 244/196/192 245/482/430 243/195/191
f 243/195/191 245/482/430 66/193/189
f 242/194/190 60/172/168 227/485/433
f 242/194/190 227/485/433 243/195/191
f 243/195/191 227/485/433 61/176/172
f 241/192/188 10/24/24 222/170/166
f 241/192/188 222/170/166 237/186/182
f 237/186/182 222/170/166 59/165/161
f 128/30/30 10/24/24 241/192/188
f 128/30/30 241/192/188 240/191/187
f 240/191/187 241/192/188 65/185/181
f 239/189/185 59/165/161 220/167/163
f 239/189/185 220/167/163 236/190/186
f 236/190/186 220/167/163 58/159/155
f 237/186/182 59/165/161 239/189/185
f 237/186/182 239/189/185 238/187/183
f 238/187/183 239/189/185 64/188/184
f 235/183/179 64/188/184 236/190/186
f 235/183/179 236/190/186 234/184/180
f 234/184/180 236/190/186 58/159/155
f 233/181/177 63/182/178 234/184/180
f 233/181/177 234/184/180 217/161/157
f 217/161/157 234/184/180 58/159/155
f 121/20/20 9/19/19 232/484/432
f 121/20/20 232/484/432 231/180/176
f 231/180/176 232/484/432 62/179/175
f 229/178/174 56/156/152 214/486/434
f 229/178/174 214/486/434 231/180/176
f 231/180/176 214/486/434 6/16/16
f 229/178/174 62/179/175 230/198/194
f 229/178/174 230/198/194 228/177/173
f 228/177/173 230/198/194 61/176/172
f 226/175/171 55/155/151 213/487/435
f 226/175/171 213/487/435 228/177/173
f 228/177/173 213/487/435 56/156/152
f 226/175/171 61/176/172 227/485/433
f 226/175/171 227/485/433 225/174/170
f 225/174/170 227/485/433 60/172/168
f 224/173/169 54/147/145 212/488/436
f 224/173/169 212/488/436 225/174/170
f 225/174/170 212/488/436 55/155/151
f 223/171/167 7/489/437 208/490/438
f 223/171/167 208/490/438 219/166/162
f 219/166/162 208/490/438 51/142/140
f 124/169/165 223/171/167 222/170/166
f 222/170/166 223/171/167 59/165/161
f 221/168/164 51/142/140 206/144/142
f 221/168/164 206/144/142 216/160/156
f 216/160/156 206/144/142 50/136/134
f 219/166/162 51/142/140 221/168/164
f 219/166/162 221/168/164 220/167/163
f 220/167/163 221/168/164 58/159/155
f 218/163/159 50/136/134 204/138/136
f 218/163/159 204/138/136 215/164/160
f 215/164/160 204/138/136 48/139/137
f 216/160/156 50/136/134 218/163/159
f 216/160/156 218/163/159 217/161/157
f 217/161/157 218/163/159 57/162/158
f 386/17/17 6/16/16 214/486/434
f 386/17/17 214/486/434 409/157/153
f 409/157/153 214/486/434 56/156/152
f 407/153/149 47/152/133 202/491/439
f 407/153/149 202/491/439 409/157/153
f 409/157/153 202/491/439 5/158/154
f 406/151/148 46/150/130 200/492/440
f 406/151/148 200/492/440 408/154/150
f 408/154/150 200/492/440 47/152/133
f 407/153/149 56/156/152 213/487/435
f 407/153/149 213/487/435 408/154/150
f 408/154/150 213/487/435 55/155/151
f 406/151/148 55/155/151 212/488/436
f 406/151/148 212/488/436 405/149/147
f 405/149/147 212/488/436 54/147/145
f 211/148/146 53/395/126 402/493/441
f 211/148/146 402/493/441 405/149/147
f 405/149/147 402/493/441 46/150/130
f 209/146/144 8/494/12 210/495/123
f 209/146/144 210/495/123 205/143/141
f 205/143/141 210/495/123 52/496/120
f 120/497/442 441/498/443 209/146/144
f 120/497/442 209/146/144 208/490/438
f 208/490/438 209/146/144 51/142/140
f 207/145/143 52/496/120 397/499/119
f 207/145/143 397/499/119 403/137/135
f 403/137/135 397/499/119 45/500/118
f 205/143/141 52/496/120 207/145/143
f 205/143/141 207/145/143 206/144/142
f 206/144/142 207/145/143 50/136/134
f 404/140/138 45/500/118 396/501/114
f 404/140/138 396/501/114 203/141/139
f 203/141/139 396/501/114 49/418/113
f 403/137/135 45/500/118 404/140/138
f 403/137/135 404/140/138 204/138/136
f 204/138/136 404/140/138 48/139/137
f 198/130/128 44/103/101 194/111/109
f 198/130/128 194/111/109 201/134/132
f 201/134/132 194/111/109 4/108/106
f 118/133/131 5/502/154 202/503/439
f 118/133/131 202/503/439 201/134/132
f 201/134/132 202/503/439 47/135/133
f 197/126/124 43/99/97 190/104/102
f 197/126/124 190/104/102 199/131/129
f 199/131/129 190/104/102 44/103/101
f 198/130/128 47/135/133 200/504/440
f 198/130/128 200/504/440 199/131/129
f 199/131/129 200/504/440 46/132/130
f 400/129/127 42/505/377 189/102/100
f 400/129/127 189/102/100 401/127/125
f 401/127/125 189/102/100 43/99/97
f 197/126/124 46/132/130 402/506/441
f 197/126/124 402/506/441 401/127/125
f 401/127/125 402/506/441 53/128/126
f 210/125/123 8/12/12 384/14/14
f 210/125/123 384/14/14 399/123/121
f 399/123/121 384/14/14 3/9/9
f 399/123/121 3/9/9 185/97/95
f 399/123/121 185/97/95 398/124/122
f 398/124/122 185/97/95 41/95/93
f 397/121/119 52/122/120 398/124/122
f 397/121/119 398/124/122 196/119/117
f 196/119/117 398/124/122 41/95/93
f 182/118/116 40/92/90 195/507/444
f 182/118/116 195/507/444 196/119/117
f 196/119/117 195/507/444 45/120/118
f 396/116/114 45/120/118 195/507/444
f 396/116/114 195/507/444 395/117/115
f 395/117/115 195/507/444 40/92/90
f 394/113/111 49/115/113 395/117/115
f 394/113/111 395/117/115 179/114/112
f 179/114/112 395/117/115 40/92/90
f 194/111/109 44/103/101 192/508/445
f 194/111/109 192/508/445 193/109/107
f 193/109/107 192/508/445 37/84/82
f 193/109/107 37/84/82 176/88/86
f 193/109/107 176/88/86 117/110/108
f 117/110/108 176/88/86 1/4/4
f 174/107/105 37/84/82 192/508/445
f 174/107/105 192/508/445 191/105/103
f 191/105/103 192/508/445 44/103/101
f 190/104/102 43/99/97 188/101/99
f 190/104/102 188/101/99 191/105/103
f 191/105/103 188/101/99 36/106/104
f 189/102/100 42/505/377 186/509/379
f 189/102/100 186/509/379 187/100/98
f 186/509/379 459/510/446 187/100/98
f 187/100/98 34/511/369 170/512/447
f 187/100/98 170/512/447 188/101/99
f 188/101/99 170/512/447 36/106/104
f 185/97/95 3/9/9 114/7/7
f 185/97/95 114/7/7 184/98/96
f 184/98/96 114/7/7 2/6/6
f 183/96/94 41/95/93 184/98/96
f 183/96/94 184/98/96 165/77/75
f 165/77/75 184/98/96 2/6/6
f 183/96/94 31/73/71 163/513/448
f 183/96/94 163/513/448 181/94/92
f 181/94/92 163/513/448 30/69/67
f 180/93/91 40/92/90 182/118/116
f 180/93/91 182/118/116 181/94/92
f 181/94/92 182/118/116 41/95/93
f 180/93/91 30/69/67 162/514/449
f 180/93/91 162/514/449 178/91/89
f 178/91/89 162/514/449 28/89/87
f 177/90/88 39/112/110 179/114/112
f 177/90/88 179/114/112 178/91/89
f 178/91/89 179/114/112 40/92/90
f 176/88/86 37/84/82 172/86/84
f 176/88/86 172/86/84 175/87/85
f 175/87/85 172/86/84 38/515/401
f 175/87/85 38/515/401 393/516/400
f 175/87/85 393/516/400 382/5/5
f 382/5/5 393/516/400 26/517/62
f 171/85/83 37/84/82 174/107/105
f 171/85/83 174/107/105 167/79/77
f 167/79/77 174/107/105 36/106/104
f 171/85/83 35/78/76 173/518/402
f 171/85/83 173/518/402 172/86/84
f 172/86/84 173/518/402 38/515/401
f 169/82/80 36/106/104 170/512/447
f 169/82/80 170/512/447 166/83/81
f 166/83/81 170/512/447 34/511/369
f 167/79/77 36/106/104 169/82/80
f 167/79/77 169/82/80 168/80/78
f 168/80/78 169/82/80 33/81/79
f 165/77/75 2/6/6 380/2/2
f 165/77/75 380/2/2 392/76/74
f 392/76/74 380/2/2 27/1/1
f 391/75/73 32/519/450 164/74/72
f 391/75/73 164/74/72 392/76/74
f 392/76/74 164/74/72 31/73/71
f 32/519/450 448/520/451 164/74/72
f 164/74/72 390/521/405 389/72/70
f 389/72/70 390/521/405 111/71/69
f 387/70/68 30/69/67 163/513/448
f 387/70/68 163/513/448 389/72/70
f 389/72/70 163/513/448 31/73/71
f 387/70/68 111/71/69 388/522/407
f 387/70/68 388/522/407 161/68/66
f 161/68/66 388/522/407 29/66/64
f 160/67/65 28/89/87 162/514/449
f 160/67/65 162/514/449 161/68/66
f 161/68/66 162/514/449 30/69/67
f 159/65/63 25/381/364 154/61/59
f 159/65/63 154/61/59 157/63/61
f 157/63/61 154/61/59 24/60/58
f 156/62/60 27/372/1 158/523/452
f 156/62/60 158/523/452 157/63/61
f 157/63/61 158/523/452 26/64/62
f 154/61/59 25/381/364 155/361/346
f 154/61/59 155/361/346 152/59/57
f 152/59/57 155/361/346 23/58/56
f 150/57/55 22/56/54 153/442/409
f 150/57/55 153/442/409 152/59/57
f 152/59/57 153/442/409 24/60/58
f 150/57/55 23/58/56 151/341/326
f 150/57/55 151/341/326 149/55/53
f 149/55/53 151/341/326 21/53/51
f 147/54/52 112/309/295 417/332/317
f 147/54/52 417/332/317 149/55/53
f 149/55/53 417/332/317 22/56/54
f 143/52/50 20/456/421 148/310/296
f 143/52/50 148/310/296 145/50/48
f 145/50/48 148/310/296 112/309/295
f 145/50/48 112/309/295 147/54/52
f 145/50/48 147/54/52 146/51/49
f 146/51/49 147/54/52 21/53/51
f 139/48/46 18/284/272 144/286/274
f 139/48/46 144/286/274 141/46/44
f 141/46/44 144/286/274 20/468/421
f 141/46/44 20/468/421 143/524/50
f 141/46/44 143/524/50 142/47/45
f 142/47/45 143/524/50 19/460/47
f 135/44/42 16/260/250 140/262/252
f 135/44/42 140/262/252 137/42/40
f 137/42/40 140/262/252 18/284/272
f 137/42/40 18/284/272 139/48/46
f 137/42/40 139/48/46 138/43/41
f 138/43/41 139/48/46 17/45/43
f 130/40/33 14/233/34 136/235/228
f 130/40/33 136/235/228 133/38/37
f 133/38/37 136/235/228 16/260/250
f 133/38/37 16/260/250 135/44/42
f 133/38/37 135/44/42 134/39/38
f 134/39/38 135/44/42 15/41/39
f 131/35/35 11/25/25 126/27/27
f 131/35/35 126/27/27 132/36/36
f 132/36/36 126/27/27 12/28/28
f 129/32/32 11/25/25 131/35/35
f 129/32/32 131/35/35 130/33/33
f 130/33/33 131/35/35 14/34/34
f 127/29/29 9/19/19 122/21/21
f 127/29/29 122/21/21 128/30/30
f 128/30/30 122/21/21 10/24/24
f 125/26/26 9/19/19 127/29/29
f 125/26/26 127/29/29 126/27/27
f 126/27/27 127/29/29 12/28/28
f 443/525/453 6/16/16 119/18/18
f 121/20/20 6/16/16 123/22/22
f 121/20/20 123/22/22 122/21/21
f 122/21/21 123/22/22 10/24/24
f 445/526/454 5/158/154 385/527/455
f 386/17/17 5/158/154 445/526/454
f 445/526/454 446/528/456 386/17/17
f 385/529/455 5/502/154 118/133/131
f 385/529/455 118/133/131 383/13/13
f 383/13/13 118/133/131 4/108/106
f 383/13/13 4/108/106 116/10/10
f 383/13/13 116/10/10 384/14/14
f 384/14/14 116/10/10 3/9/9
f 116/10/10 4/108/106 117/110/108
f 116/10/10 117/110/108 115/11/11
f 115/11/11 117/110/108 1/4/4
f 114/7/7 3/9/9 115/11/11
f 114/7/7 115/11/11 113/8/8
f 113/8/8 115/11/11 1/4/4
f 382/5/5 26/517/62 158/530/452
f 382/5/5 158/530/452 381/3/3
f 381/3/3 158/530/452 27/1/1
f 380/2/2 2/6/6 113/8/8
f 380/2/2 113/8/8 381/3/3
f 381/3/3 113/8/8 1/4/4
f 386/17/17 446/528/456 119/18/18
f 123/22/22 6/16/16 443/525/453
f 209/146/144 441/498/443 8/494/12
f 223/171/167 124/169/165 7/489/437
f 208/490/438 7/489/437 120/497/442
f 10/24/24 444/23/23 124/169/165
f 383/13/13 442/531/457 385/529/455
f 383/13/13 447/15/15 442/531/457
f 448/520/451 454/532/458 164/74/72
f 361/348/333 453/448/414 362/349/334
f 364/443/410 345/445/411 452/446/412
f 106/347/332 450/436/404 363/447/413
f 391/435/73 411/533/403 32/534/450
f 378/371/355 449/370/354 411/434/403
f 164/74/72 454/532/458 390/521/405
f 296/265/255 455/393/375 424/427/399
f 423/425/397 456/424/396 84/264/254
f 419/387/370 457/535/459 427/423/395
f 426/422/394 60/172/168 458/536/460
f 459/510/446 462/537/461 187/100/98
f 419/387/370 460/394/376 457/535/459
f 458/536/460 60/172/168 461/426/398
f 187/100/98 462/537/461 34/511/369
