# Blender 4.4.3
# www.blender.org
mtllib cave_map_large.mtl
o cave_map_large.002
v 126.812256 -4.315648 -17.759184
v 126.102844 -5.340135 -13.101127
v 131.852921 -5.340135 -13.181281
v 132.562332 -4.315648 -17.839346
v 142.496078 -3.462453 -17.977827
v 144.568924 -0.303913 -18.006720
v 143.859528 -0.303913 -13.348662
v 141.786652 -3.462453 -13.319770
v 145.149246 3.707819 -18.014814
v 144.439835 3.707820 -13.356750
v 141.297409 7.719554 -17.961119
v 140.587997 7.719555 -13.303047
v 138.312408 11.731289 -17.919508
v 137.602997 11.731289 -13.261444
v 132.562332 11.731289 -17.839346
v 131.852921 11.288739 -13.181282
v 126.812256 10.197087 -17.759184
v 126.102844 9.671786 -13.101128
v 121.062195 11.125165 -17.679022
v 120.352783 11.125165 -13.020966
v 118.123657 8.797421 -17.638060
v 117.826080 7.747332 -13.026688
v 117.338226 4.375166 -12.600013
v 117.333969 3.122208 -17.613325
v 118.846268 3.656779 -13.171523
v 119.177460 2.374889 -17.844069
v 121.408646 -4.166556 -17.725027
v 121.259048 -4.157560 -13.086822
v 128.684494 -3.081242 -2.878029
v 125.484833 -2.674889 -2.986862
v 127.330124 -3.194338 -4.733497
v 126.132233 -4.883516 -8.947944
v 121.381546 -4.158003 -9.163108
v 126.858017 -3.978635 -27.216043
v 128.741974 -4.351756 -29.641813
v 124.642990 -1.953467 -25.555208
v 128.653229 -3.764410 -25.637041
v 127.368042 -3.689921 -21.693029
v 123.963684 -4.120503 -21.654165
v 130.655533 -3.318660 -2.691520
v 132.414810 -3.752948 -5.299170
v 131.886292 -4.695065 -8.912795
v 131.068909 -3.787935 -27.453516
v 132.457367 -3.764410 -25.690069
v 132.491440 -3.689921 -21.764448
v 139.729065 -2.819330 -4.021743
v 135.146713 -3.723363 -25.727560
v 139.166458 -4.277294 -22.730062
v 135.876801 -0.584679 -2.034263
v 135.155289 -2.288969 -2.032165
v 140.861267 -0.643168 -4.291053
v 143.958878 -0.303913 -9.423949
v 141.846680 -3.272348 -9.121840
v 131.844986 -3.728511 -27.474802
v 132.111374 -2.423812 -27.480131
v 135.730865 -1.440927 -25.735708
v 140.104401 -0.643170 -22.743132
v 136.286911 1.044077 -2.032211
v 141.391754 2.969004 -4.298454
v 144.539185 3.707820 -9.432029
v 132.028580 -0.645426 -27.520670
v 136.106781 1.286555 -25.740946
v 140.634888 2.969000 -22.750525
v 136.075150 2.694969 -2.061111
v 138.819717 6.575332 -4.910447
v 140.687363 7.719555 -9.378342
v 132.855759 1.130657 -27.537214
v 137.109528 3.974710 -25.754923
v 138.597778 6.575328 -21.849577
v 135.506439 4.976634 -2.053185
v 137.911728 10.179188 -4.897790
v 137.702347 11.731289 -9.336731
v 132.507065 3.025367 -27.530245
v 136.441833 6.653532 -25.745615
v 137.689804 10.179182 -21.836912
v 132.371109 5.285207 -2.009475
v 132.768631 10.246402 -4.826096
v 131.952255 11.288739 -9.256569
v 130.565109 2.649355 -27.491407
v 132.760742 7.015816 -25.694304
v 132.546692 10.246393 -21.765219
v 129.130966 5.285207 -1.964310
v 127.645233 10.246402 -4.754670
v 126.202194 9.671786 -9.176407
v 128.606003 2.649355 -27.452234
v 128.956619 7.015816 -25.641272
v 127.423309 10.246393 -21.693800
v 125.785980 4.976635 -1.917671
v 122.541519 10.179188 -4.683526
v 120.452103 11.731289 -9.096251
v 126.629730 3.025368 -27.412718
v 122.881851 6.653533 -25.556585
v 122.004868 9.001146 -21.618261
v 125.863297 2.694969 -3.448250
v 121.588074 6.575332 -4.670228
v 117.852585 7.366973 -9.805580
v 124.920364 1.130657 -27.378542
v 122.167435 3.974710 -25.546625
v 118.836761 6.575328 -21.574095
v 125.506622 0.405354 -3.443283
v 121.054642 2.969004 -4.662796
v 118.827240 4.306042 -9.073600
v 124.367767 -0.645426 -27.367491
v 121.748672 -0.052220 -25.540785
v 118.712906 1.405709 -22.073500
v 125.717621 -0.991196 -3.417602
v 121.508026 -0.276783 -4.634216
v 120.099686 3.791685 -9.983573
v 125.181656 -1.673408 -27.341566
v 122.724716 -0.405132 -25.546255
v 122.287399 -0.093052 -21.526663
v 122.283539 -2.768612 -4.657814
v 117.792542 4.369959 -9.815749
v 126.457550 -4.827891 -15.430160
v 128.977890 -5.340135 -13.141204
v 129.332581 -4.827891 -15.470237
v 132.207626 -4.827891 -15.510306
v 129.687302 -4.315648 -17.799261
v 137.529205 -3.889050 -17.908590
v 144.214233 -0.303913 -15.677695
v 142.823090 -1.883183 -13.334212
v 144.859085 1.701954 -18.010771
v 144.794540 3.707820 -15.685782
v 144.504379 1.701954 -15.681739
v 144.149689 1.701954 -13.352706
v 143.223343 5.713687 -17.987967
v 140.942719 7.719555 -15.632095
v 142.868622 5.713688 -15.658942
v 142.513931 5.713688 -13.329894
v 139.804916 9.725423 -17.940313
v 137.957703 11.731289 -15.590477
v 139.450211 9.725423 -15.611282
v 139.095505 9.725423 -13.282248
v 135.082672 11.510014 -15.550392
v 135.437363 11.731289 -17.879423
v 132.207626 11.510014 -15.510307
v 134.727966 10.725206 -13.221359
v 129.332581 10.101107 -15.470238
v 129.687302 10.363759 -17.799261
v 126.457550 9.934438 -15.430161
v 128.977890 9.879832 -13.141205
v 123.582520 10.060697 -15.390076
v 123.937210 10.060697 -17.719099
v 120.707474 11.125165 -15.349999
v 123.227814 9.798047 -13.061043
v 118.904236 9.405472 -15.480927
v 119.592926 9.961292 -17.658545
v 117.434982 8.241599 -15.460442
v 118.549545 9.405472 -13.151894
v 116.881653 6.491985 -15.624321
v 117.493134 5.986625 -13.091392
v 116.979248 3.947185 -15.611945
v 117.236374 6.252620 -17.625692
v 117.975754 3.596474 -15.466918
v 117.807648 4.129836 -13.454162
v 118.900635 3.232071 -15.507796
v 118.030090 2.817261 -17.803190
v 120.337799 0.033458 -13.275939
v 120.336060 -1.512806 -15.532516
v 121.538818 -4.162059 -15.405921
v 120.369934 -1.463829 -17.868803
v 127.046524 -2.878894 -2.539634
v 126.407288 -2.933051 -3.313278
v 127.969147 -3.138402 -3.337059
v 126.765976 -4.281538 -6.799925
v 123.602112 -4.656092 -9.175330
v 126.152527 -5.342074 -11.138770
v 127.839767 -3.984348 -27.394709
v 125.718399 -2.612419 -25.596125
v 124.820816 -2.143263 -26.465139
v 127.755630 -3.981525 -26.506063
v 128.737366 -3.767234 -26.525694
v 125.075821 -1.974430 -23.624113
v 125.740997 -3.805464 -21.670057
v 124.113220 -1.149218 -23.641447
v 128.010635 -3.727166 -23.665037
v 123.432068 -4.120371 -19.706938
v 127.090149 -4.002783 -19.726110
v 129.605942 -3.256387 -2.524475
v 129.870331 -3.424060 -3.953506
v 131.522064 -3.276733 -4.107109
v 129.858246 -3.716817 -5.137137
v 129.643005 -4.187314 -6.782348
v 132.204300 -4.222543 -6.737388
v 129.009247 -4.789291 -8.930373
v 129.027557 -5.204306 -11.178847
v 131.902603 -5.204306 -11.218932
v 130.482529 -4.362504 -28.741758
v 130.639450 -3.767234 -26.552210
v 130.555313 -3.764410 -25.663557
v 131.619003 -3.767234 -26.571791
v 132.474396 -3.727166 -23.727262
v 130.572342 -3.727166 -23.700750
v 129.929733 -3.689921 -21.728743
v 129.965179 -4.002783 -19.766188
v 132.526886 -4.002783 -19.801901
v 136.125687 -3.093898 -4.291854
v 135.807678 -3.757199 -6.467268
v 133.802048 -3.743886 -25.708815
v 135.828934 -3.983608 -22.247252
v 133.819077 -3.706642 -23.746008
v 137.156586 -4.000328 -24.228811
v 135.864380 -4.296471 -20.284697
v 140.831268 -3.869874 -20.353941
v 135.516052 -1.436824 -2.033218
v 138.294540 -0.049727 -3.148445
v 142.910675 -1.753244 -9.480659
v 142.410065 -0.473541 -6.857505
v 141.288651 -1.821924 -6.997337
v 143.909210 -0.303913 -11.386306
v 142.872757 -1.883183 -11.371856
v 141.836319 -3.462453 -11.357406
v 131.978180 -3.076161 -27.477461
v 133.921112 -1.932369 -26.607916
v 137.917633 -1.042049 -24.239424
v 142.336670 -0.473542 -20.374929
v 136.081863 0.229699 -2.033241
v 141.126511 1.162918 -4.294746
v 138.834686 2.031558 -3.146049
v 138.499603 0.764651 -3.147415
v 144.249008 1.701954 -9.427993
v 142.965469 3.338413 -6.865250
v 142.675308 1.332546 -6.861206
v 144.489517 3.707820 -11.394393
v 144.199356 1.701954 -11.390349
v 132.069977 -1.534618 -27.500402
v 133.879715 -1.043177 -26.628183
v 135.918823 -0.077186 -25.738325
v 134.067688 0.320564 -26.630816
v 138.105591 0.321692 -24.242041
v 140.369659 1.162915 -22.746832
v 138.370819 2.127777 -24.245733
v 142.601913 1.332543 -20.378630
v 142.892059 3.338411 -20.382666
v 136.223831 1.550162 -2.063186
v 138.733444 2.831987 -3.179779
v 137.447449 4.635149 -3.485779
v 140.105728 4.772168 -4.604446
v 142.613251 5.713688 -9.405189
v 139.753525 7.147443 -7.144393
v 141.679443 5.141575 -7.171241
v 140.637680 7.719555 -11.340698
v 142.563599 5.713688 -11.367545
v 132.442169 0.242616 -27.528940
v 134.481277 1.208606 -26.639078
v 136.608154 2.630633 -25.747938
v 134.982651 2.552683 -26.646070
v 138.872223 3.471855 -24.252729
v 137.853668 5.275019 -23.802252
v 139.616333 4.772164 -22.300055
v 141.873505 5.141573 -19.932196
v 139.947601 7.147441 -19.905348
v 135.790787 3.835802 -2.057144
v 137.163086 5.775982 -3.481812
v 138.365723 8.377259 -4.904121
v 136.709091 7.577909 -3.475487
v 139.194855 9.725423 -9.357529
v 137.807037 10.955237 -7.117264
v 139.299530 8.949370 -7.138076
v 137.652664 11.731289 -11.299088
v 139.145172 9.725423 -11.319893
v 132.681396 2.078012 -27.533720
v 134.808304 3.500039 -26.642580
v 136.775681 5.314121 -25.750269
v 134.474457 4.839450 -26.637934
v 137.519806 6.614430 -23.797598
v 138.143784 8.377254 -21.843245
v 137.065826 8.416357 -23.791265
v 139.493607 8.949369 -19.899023
v 138.001099 10.955235 -19.878210
v 133.938782 5.130920 -2.031327
v 135.340179 10.212795 -4.861947
v 134.137527 7.611516 -3.439645
v 132.569870 7.765803 -3.417778
v 134.827301 11.510014 -9.296646
v 134.931992 10.733963 -7.077172
v 132.360443 10.767569 -7.041329
v 134.777634 11.510014 -11.259010
v 131.902603 10.503932 -11.218933
v 131.536087 2.837361 -27.510820
v 131.662933 4.832585 -26.592855
v 132.633896 5.020592 -26.612268
v 134.601288 6.834674 -25.719957
v 132.653732 8.631105 -23.729757
v 134.494263 8.449963 -23.755415
v 135.118256 10.212788 -21.801062
v 132.554520 10.988842 -19.802282
v 135.126068 10.955235 -19.838133
v 130.751038 5.285207 -1.986893
v 130.949799 7.765803 -3.395195
v 130.206924 10.246402 -4.790383
v 128.388107 7.765803 -3.359483
v 129.798737 10.767569 -7.005616
v 129.077209 9.879832 -9.216492
v 126.923706 9.358665 -6.965539
v 129.027557 9.879832 -11.178848
v 126.152527 9.671786 -11.138771
v 129.585571 2.649355 -27.471823
v 130.683365 4.832585 -26.573271
v 130.858688 7.015816 -25.667788
v 128.781311 4.832585 -26.546759
v 130.751648 8.631105 -23.703245
v 129.985016 10.246393 -21.729506
v 128.189957 8.631105 -23.667532
v 129.992828 10.988842 -19.766577
v 127.117798 9.621310 -19.726492
v 127.458481 5.130920 -1.940994
v 126.715622 7.611517 -3.336174
v 125.093384 10.212795 -4.719086
v 124.163757 7.577910 -3.300591
v 124.371857 9.325056 -6.929969
v 123.327148 10.101107 -9.136330
v 121.496811 10.955237 -6.889878
v 123.277496 10.101107 -11.098686
v 120.402451 11.428227 -11.058609
v 127.617874 2.837361 -27.432474
v 127.793167 5.020592 -26.526999
v 125.919220 6.834675 -25.598921
v 124.755798 4.839451 -26.484655
v 125.152588 8.449963 -23.625189
v 124.714081 9.623770 -21.656034
v 122.443359 7.827340 -23.587416
v 124.408554 8.998687 -19.688726
v 121.533524 10.063155 -19.648642
v 125.824646 3.835802 -2.682968
v 123.687027 5.775983 -3.293946
v 123.725677 4.635149 -4.059242
v 122.064804 8.377259 -4.676872
v 120.118454 8.949370 -6.882598
v 119.641708 7.147443 -6.875961
v 119.073746 9.725423 -9.088974
v 118.599213 9.708533 -11.189545
v 117.846756 8.101716 -11.744705
v 125.775055 2.078012 -27.395628
v 123.543900 2.552683 -26.462584
v 124.398575 3.500039 -26.479677
v 122.524628 5.314122 -25.551600
v 120.502106 5.275019 -23.560362
v 120.859314 6.614430 -23.565336
v 120.420822 7.788238 -21.596174
v 119.949463 8.850246 -19.626562
v 118.480209 7.686374 -19.606085
v 125.684967 1.550162 -3.445770
v 123.458984 2.831987 -4.055526
v 123.280624 1.687179 -4.053039
v 121.321381 4.772168 -4.666512
v 120.207657 5.141575 -6.871911
v 118.261307 6.190969 -9.077643
v 117.811890 5.068930 -9.310866
v 117.942978 4.199434 -11.342086
v 124.644073 0.242615 -27.373014
v 123.058212 0.320564 -26.454134
v 123.334518 1.208606 -26.459658
v 121.958038 2.630633 -25.543703
v 120.026001 0.833567 -23.553724
v 120.235382 3.471855 -23.556639
v 118.570053 4.772164 -21.570379
v 117.592926 5.141573 -19.593710
v 117.326202 2.191702 -19.589987
v 125.597321 -0.189696 -3.411896
v 123.492538 0.167511 -4.020195
v 123.612808 -0.633989 -4.025909
v 121.306473 1.162918 -4.666297
v 119.886261 3.666310 -7.916740
v 121.432190 1.346225 -7.924469
v 119.838837 4.074134 -9.374175
v 118.412430 4.180054 -11.551734
v 119.451065 3.907523 -11.269088
v 124.774719 -1.534619 -27.354528
v 123.661133 -1.435994 -26.443911
v 123.254181 -1.043176 -26.456873
v 121.944626 -0.120704 -25.543516
v 120.850342 0.982732 -21.790533
v 121.860870 0.235846 -23.557226
v 122.783875 -0.348776 -23.618238
v 117.986252 1.996637 -19.775007
v 119.900894 1.690548 -19.368277
v 124.000565 -1.879904 -4.037704
v 121.895782 -1.522696 -4.646011
v 122.026566 0.558791 -10.920737
v 121.003174 -1.404930 -19.815580
v 123.479630 -4.653707 -13.099036
v 123.722229 -4.138900 -15.423263
v 122.993423 -4.143399 -17.742369
v 137.174484 -3.889050 -15.579558
v 136.819794 -4.401294 -13.250518
v 142.141342 -3.462453 -15.648795
v 143.532486 -1.883183 -17.992270
v 143.177780 -1.883183 -15.663245
v 124.806824 -2.981474 -4.695648
v 123.883972 -2.720187 -3.275429
v 124.308990 -3.630807 -6.983352
v 122.093033 -3.108022 -7.184227
v 121.320312 -4.157782 -11.124969
v 123.540878 -4.655870 -11.137183
v 122.013199 -4.143529 -19.689604
v 132.207458 -3.308201 -2.830032
v 133.772217 -3.366569 -4.265112
v 137.395569 -2.184439 -3.145874
v 140.787857 -3.045840 -6.571792
v 136.866486 -3.983707 -9.017318
v 136.869461 -4.401294 -11.288161
v 131.312790 -3.749284 -27.464159
v 132.151169 -3.746461 -26.582438
v 133.495834 -3.725937 -26.601183
v 140.229843 -1.560844 -4.447296
v 137.756317 -1.332294 -3.146919
v 133.629044 -3.073588 -26.603842
v 135.438782 -2.582145 -25.731630
v 139.635437 -2.460232 -22.736601
v 137.448669 -2.859110 -24.232878
v 141.300232 -2.052811 -20.360479
v 125.601013 -1.831479 -2.655334
v 122.054001 -0.899341 -7.995407
v 121.855148 -0.679043 -9.470557
v 126.019852 -2.337750 -26.944399
v 123.785629 -1.185836 -25.550734
v 123.982620 -1.653299 -26.448389
v 123.295486 -0.837430 -22.697645
v 123.721817 -0.722017 -23.238081
v 117.780518 4.196545 -10.622519
v 118.175430 4.284863 -9.205443
v 127.001572 -3.096935 -27.377958
v 125.051010 -0.646578 -27.360052
v 126.763184 1.890006 -27.415388
v 131.710434 1.890006 -27.514307
v 126.893829 0.112771 -27.396898
v 130.317291 1.001964 -27.486452
v 131.296844 1.001964 -27.506041
v 130.189163 -1.651497 -28.729349
v 128.319519 -1.484337 -29.355917
v 131.445999 -3.096934 -27.466825
v 131.404587 -2.207742 -27.487093
v 127.162872 -2.036830 -2.679123
v 128.830063 -1.970913 -3.146316
v 132.020432 -2.190078 -3.028496
v 128.710846 -1.169358 -3.132484
v 131.885635 -1.194224 -3.014961
v 134.371811 2.845281 -2.037361
v 134.223129 3.990088 -2.035293
v 128.938858 2.845280 -2.726379
v 127.318787 2.845280 -2.703796
v 131.146301 -0.680183 -2.940849
v 127.497131 3.990088 -2.706283
v 117.854065 7.877744 -10.632172
v 117.808090 6.806507 -12.949669
v 117.280243 5.147071 -13.064612
v 117.827835 5.939650 -9.448661
v 117.846680 6.810679 -9.315445
v 128.202164 -2.926072 -29.582373
v 130.111389 -2.650277 -28.801500
v 128.438278 -3.729943 -29.711340
v 129.892166 -4.464573 -29.051817
v 129.218933 -4.472146 -29.405432
v 128.468063 -2.227644 -29.449728
v 128.959396 -1.087427 -29.158991
v 129.617828 -0.821187 -29.036440
v 130.197983 -3.648578 -28.654322
v 130.685074 -1.582635 -2.894607
v 130.656601 -0.926342 -2.891784
v 130.601959 -2.190078 -2.886276
v 131.571701 -3.370189 -2.826820
v 131.570663 -0.837296 -2.983421
v 132.072174 -1.582635 -3.033676
v 132.082443 -2.577342 -2.992714
v 131.081177 -3.391894 -2.731323
v 130.592361 -2.797522 -2.885330
v 117.768723 4.195269 -11.734450
vn 0.7474 0.6643 -0.0085
vn 0.2330 0.9656 0.1158
vn 0.1187 0.9866 0.1117
vn 0.0345 0.9872 0.1555
vn 0.0106 0.9999 0.0036
vn 0.1257 0.9862 0.1079
vn 0.0010 0.9973 0.0739
vn 0.1222 0.9655 0.2299
vn -0.0813 0.9941 0.0721
vn -0.0889 0.9755 0.2010
vn 0.0030 0.9766 0.2152
vn -0.5221 0.8528 -0.0129
vn -0.1337 0.9872 0.0865
vn -0.1836 0.9784 0.0953
vn -0.5096 0.8569 -0.0776
vn -0.9067 0.3250 0.2687
vn -0.8075 0.5323 0.2541
vn -0.9259 0.3505 -0.1410
vn -0.9320 0.3576 -0.0595
vn -0.8299 0.5435 -0.1264
vn -0.8351 0.5476 -0.0528
vn -0.9225 -0.2753 0.2704
vn -0.9462 0.1375 0.2929
vn -0.9420 -0.3034 -0.1435
vn -0.9479 -0.3126 -0.0613
vn -0.9787 0.1413 -0.1490
vn -0.9878 0.1428 -0.0622
vn -0.7623 -0.6070 0.2246
vn -0.6970 -0.6725 0.2489
vn -0.7588 -0.6410 -0.1156
vn -0.7641 -0.6432 -0.0483
vn -0.7177 -0.6877 -0.1093
vn -0.7209 -0.6915 -0.0456
vn -0.4482 -0.8820 0.1455
vn -0.7965 -0.5938 0.1138
vn -0.3814 -0.9195 -0.0956
vn -0.3018 -0.9529 0.0310
vn -0.7970 -0.5917 -0.1214
vn -0.8015 -0.5958 -0.0507
vn 0.0020 -0.9842 -0.1772
vn 0.0020 -0.9901 0.1403
vn 0.1474 -0.9849 0.0903
vn 0.2531 -0.9654 -0.0620
vn 0.3109 -0.9462 -0.0897
vn 0.2252 -0.9726 -0.0581
vn 0.0698 -0.9889 0.1313
vn -0.1986 -0.9762 -0.0866
vn -0.1548 -0.9630 0.2206
vn 0.0055 -0.9938 -0.1112
vn 0.1532 -0.9594 0.2369
vn 0.6800 -0.7331 0.0142
vn 0.6036 -0.7576 0.2484
vn 0.1978 -0.9798 0.0301
vn 0.7546 -0.6038 0.2569
vn 0.8422 -0.5343 -0.0725
vn 0.9869 -0.1613 -0.0100
vn 0.5510 0.8245 -0.1285
vn 0.8472 0.5196 -0.1106
vn 0.8149 0.5611 -0.1451
vn 0.3572 0.9027 -0.2396
vn 0.7032 0.6693 -0.2397
vn 0.7106 0.6886 -0.1444
vn 0.8588 0.3323 -0.3899
vn 0.9269 0.3577 -0.1133
vn 0.5875 0.8044 0.0884
vn 0.9316 0.3244 0.1639
vn 0.1690 0.6521 -0.7390
vn 0.0327 0.5596 -0.8281
vn 0.1271 0.9752 -0.1811
vn 0.0968 0.9570 -0.2736
vn 0.1060 0.9648 -0.2409
vn 0.6024 0.5964 -0.5305
vn 0.2098 0.9143 -0.3464
vn 0.0916 0.9623 -0.2562
vn 0.1679 0.9563 -0.2392
vn 0.8233 0.5672 -0.0238
vn 0.2146 0.9763 -0.0277
vn 0.1030 0.9897 -0.0998
vn 0.5757 0.8083 -0.1231
vn 0.4947 0.8629 -0.1035
vn 0.5127 0.7922 0.3310
vn 0.4864 0.7482 0.4512
vn 0.1103 0.9598 -0.2581
vn 0.2361 0.9630 0.1296
vn 0.0815 0.9755 0.2043
vn 0.5566 0.8129 0.1715
vn -0.0448 0.8912 0.4513
vn -0.0222 0.9994 0.0268
vn -0.0188 0.9885 0.1498
vn 0.2082 0.8630 -0.4603
vn -0.0168 0.4868 -0.8733
vn 0.0093 0.9781 -0.2081
vn -0.0431 0.9468 -0.3189
vn 0.0671 0.9645 -0.2556
vn 0.0138 0.9570 -0.2898
vn -0.0688 0.9755 -0.2088
vn -0.0332 0.9740 -0.2242
vn -0.0788 0.9872 -0.1386
vn -0.0220 0.9922 -0.1228
vn -0.0111 0.9999 -0.0000
vn 0.0082 0.9922 -0.1246
vn -0.0002 0.9999 -0.0111
vn -0.0527 0.9985 -0.0124
vn 0.0411 0.9958 0.0822
vn -0.0079 0.9998 -0.0189
vn -0.0003 0.9998 -0.0190
vn 0.0892 0.9937 -0.0679
vn 0.2350 0.9715 0.0298
vn -0.0343 0.9899 0.1377
vn 0.0022 0.9875 0.1574
vn 0.0026 0.9825 0.1864
vn 0.0556 0.9862 0.1562
vn 0.0549 0.9284 -0.3675
vn 0.1069 0.9874 0.1169
vn -0.0429 0.9768 -0.2099
vn -0.0771 0.4750 -0.8766
vn -0.2667 0.5327 -0.8032
vn -0.1206 0.9581 -0.2599
vn -0.0473 0.9675 -0.2484
vn -0.1169 0.9714 -0.2067
vn -0.4998 0.5741 -0.6486
vn -0.6165 0.7191 -0.3207
vn -0.5833 0.7766 -0.2379
vn -0.1705 0.9817 -0.0850
vn -0.1459 0.9754 -0.1651
vn -0.5500 0.8348 -0.0241
vn -0.0152 0.9999 0.0032
vn -0.0266 0.9992 0.0292
vn -0.1646 0.6549 0.7375
vn -0.0476 0.6663 0.7441
vn 0.1023 0.9892 0.1052
vn 0.0401 0.9990 0.0184
vn -0.3305 0.7246 0.6047
vn -0.0863 0.9944 -0.0612
vn 0.0113 0.9997 0.0230
vn -0.4628 0.7618 0.4533
vn -0.6351 0.3229 -0.7017
vn -0.6754 0.2991 -0.6741
vn -0.4199 0.1520 -0.8948
vn -0.1044 0.0472 -0.9934
vn -0.4215 0.1509 -0.8942
vn -0.0799 0.0333 -0.9962
vn -0.9082 0.3474 -0.2334
vn -0.7983 0.5581 -0.2264
vn -0.7998 0.3735 -0.4699
vn -0.8002 0.4352 -0.4127
vn -0.9348 0.3544 0.0237
vn -0.8331 0.5531 0.0051
vn -0.2492 0.0431 0.9675
vn -0.2304 0.0510 0.9718
vn -0.4615 0.1094 0.8804
vn -0.5188 0.1358 0.8440
vn -0.7088 0.1854 0.6806
vn -0.5772 0.1512 0.8025
vn -0.5107 0.0992 0.8540
vn -0.6751 0.1647 0.7191
vn -0.7499 0.3316 0.5725
vn -0.5948 0.7868 0.1648
vn -0.6601 -0.2023 -0.7234
vn -0.6652 0.1002 -0.7399
vn -0.4003 0.0068 -0.9163
vn -0.1785 0.0314 -0.9834
vn -0.4180 0.1042 -0.9024
vn -0.0981 0.0295 -0.9947
vn -0.9274 -0.2866 -0.2404
vn -0.9583 0.1381 -0.2500
vn -0.8136 -0.2337 -0.5324
vn -0.8535 0.1234 -0.5063
vn -0.9518 -0.3057 0.0241
vn -0.9894 0.1432 0.0250
vn -0.3507 -0.0083 0.9364
vn -0.2241 0.0118 0.9745
vn -0.4288 0.0302 0.9029
vn -0.4998 0.0705 0.8632
vn -0.5205 0.1417 0.8420
vn -0.5719 0.0830 0.8161
vn -0.6527 0.0974 0.7513
vn -0.6713 -0.1669 0.7222
vn -0.7276 0.1074 0.6775
vn -0.2153 -0.0660 -0.9743
vn -0.2447 -0.0876 -0.9656
vn -0.4802 -0.2725 -0.8337
vn -0.3634 -0.2379 -0.9007
vn -0.7757 -0.6053 -0.1785
vn -0.7062 -0.6752 -0.2127
vn -0.7872 -0.4323 -0.4398
vn -0.6629 -0.3392 -0.6674
vn -0.6614 -0.5912 -0.4617
vn -0.5223 -0.4908 -0.6974
vn -0.7630 -0.6461 0.0193
vn -0.7211 -0.6926 0.0182
vn -0.2611 0.0793 0.9621
vn -0.2395 0.1205 0.9634
vn -0.4807 0.2077 0.8519
vn -0.5394 0.2055 0.8166
vn -0.6658 -0.1513 0.7306
vn -0.5840 0.1560 0.7966
vn -0.5964 -0.0619 0.8003
vn -0.7613 -0.3670 0.5345
vn -0.5889 -0.5325 0.6079
vn -0.7435 -0.3524 0.5683
vn -0.6148 -0.4997 0.6102
vn -0.3265 -0.0781 -0.9420
vn -0.4671 -0.6506 -0.5988
vn -0.7614 -0.1897 -0.6200
vn -0.3304 -0.3306 -0.8840
vn -0.3945 -0.9087 -0.1364
vn -0.8004 -0.5948 -0.0742
vn -0.4105 -0.8666 -0.2836
vn -0.8578 -0.4145 -0.3038
vn -0.4141 -0.9102 0.0105
vn -0.8020 -0.5970 0.0203
vn -0.0905 -0.2028 0.9750
vn -0.1665 -0.0343 0.9854
vn -0.3448 -0.0780 0.9355
vn -0.6405 -0.1623 0.7506
vn -0.4538 -0.4379 0.7761
vn -0.8561 -0.2162 0.4694
vn -0.8188 -0.2082 0.5350
vn -0.4522 -0.6911 0.5638
vn -0.7843 -0.3903 0.4823
vn -0.0177 -0.7986 -0.6016
vn -0.0188 -0.7941 -0.6075
vn -0.0394 -0.4812 -0.8757
vn -0.2649 -0.2182 -0.9393
vn -0.0384 -0.2529 -0.9667
vn 0.2291 -0.9712 0.0655
vn 0.0733 -0.9828 -0.1694
vn 0.0260 -0.9597 -0.2799
vn 0.2003 -0.9638 0.1761
vn 0.1070 -0.9939 -0.0250
vn 0.0324 -0.1921 0.9808
vn 0.0613 -0.2158 0.9745
vn 0.0591 -0.4052 0.9123
vn -0.1904 -0.2593 0.9469
vn 0.0357 -0.4196 0.9070
vn -0.0147 -0.6103 0.7921
vn -0.0490 -0.6103 0.7907
vn -0.0292 -0.7729 0.6339
vn -0.4984 -0.5586 0.6630
vn -0.0338 -0.7581 0.6512
vn -0.0047 -0.8622 0.5065
vn -0.0039 -0.8537 0.5208
vn -0.0012 -0.9353 0.3538
vn -0.4117 -0.8230 0.3915
vn -0.0011 -0.9327 0.3607
vn -0.0121 -0.4929 -0.8700
vn -0.0084 -0.8004 -0.5995
vn -0.0362 -0.4912 -0.8703
vn 0.2260 -0.9741 -0.0093
vn 0.2692 -0.9587 0.0918
vn -0.0095 -0.9738 -0.2273
vn 0.1358 -0.9689 -0.2071
vn 0.1805 -0.9828 -0.0395
vn 0.2491 -0.9680 -0.0311
vn 0.2323 -0.9724 0.0197
vn 0.0083 -0.2788 0.9603
vn 0.0196 -0.1981 0.9800
vn 0.0156 -0.3862 0.9223
vn 0.0112 -0.5957 0.8031
vn 0.0206 -0.6018 0.7984
vn 0.0089 -0.7722 0.6354
vn 0.0070 -0.8653 0.5012
vn 0.1779 -0.9482 0.2631
vn 0.2254 -0.9715 0.0737
vn 0.1040 -0.8945 -0.4349
vn 0.0131 -0.4776 -0.8785
vn 0.0076 -0.9389 -0.3440
vn 0.2440 0.1205 -0.9622
vn -0.0178 0.0421 -0.9990
vn -0.0239 -0.9953 -0.0941
vn -0.1817 -0.9823 0.0458
vn -0.3532 -0.9331 -0.0679
vn 0.1643 -0.9783 0.1258
vn -0.0078 -0.9992 -0.0391
vn -0.2840 -0.9555 0.0793
vn -0.2421 -0.9702 0.0041
vn -0.0380 -0.9993 0.0010
vn 0.0929 -0.2228 0.9704
vn -0.0171 -0.1932 0.9810
vn -0.0079 -0.4019 0.9157
vn 0.0473 -0.6070 0.7933
vn 0.3766 -0.4929 0.7843
vn 0.1260 -0.7959 0.5921
vn 0.2235 -0.9636 0.1466
vn 0.2883 -0.8482 0.4444
vn 0.0168 -0.9888 0.1481
vn 0.2880 0.5402 -0.7907
vn 0.5847 0.1695 -0.7933
vn 0.6412 -0.0522 -0.7656
vn 0.6144 -0.1654 -0.7715
vn 0.2661 -0.7476 -0.6085
vn 0.7531 -0.3238 -0.5727
vn 0.8226 -0.3101 -0.4766
vn 0.8225 -0.4418 -0.3582
vn 0.2396 -0.9537 -0.1818
vn 0.8358 -0.5475 -0.0403
vn 0.9440 -0.3252 -0.0563
vn 0.8242 -0.5580 0.0960
vn 0.5730 -0.1324 0.8088
vn 0.4128 -0.1760 0.8936
vn 0.3455 -0.1847 0.9201
vn 0.2081 -0.2665 0.9411
vn 0.5405 -0.1411 0.8294
vn 0.7098 -0.1441 0.6895
vn 0.3663 -0.7611 0.5353
vn 0.6324 -0.4457 0.6336
vn 0.7407 -0.3946 0.5437
vn 0.5281 -0.6804 0.5081
vn 0.5397 -0.6841 0.4907
vn 0.3650 0.1205 -0.9232
vn 0.3538 -0.0571 -0.9336
vn 0.2426 -0.0389 -0.9693
vn 0.6989 0.0016 -0.7152
vn 0.6331 -0.0757 -0.7704
vn 0.8322 0.1520 -0.5333
vn 0.4607 0.7618 -0.4555
vn 0.6957 0.0404 -0.7172
vn 0.6284 0.7202 -0.2938
vn 0.3671 0.6812 -0.6334
vn -0.0656 0.9971 -0.0397
vn 0.6641 -0.0436 -0.7464
vn 0.5468 0.0912 -0.8323
vn 0.3448 0.0577 0.9369
vn 0.2492 -0.0715 0.9658
vn 0.5738 -0.0603 0.8168
vn 0.6298 -0.0738 0.7732
vn 0.6168 0.6111 0.4961
vn 0.7095 0.6165 0.3413
vn 0.8177 -0.0925 0.5682
vn 0.9587 -0.1643 0.2323
vn 0.7452 -0.5138 0.4251
vn 0.9401 -0.1405 0.3105
vn 0.2198 0.0099 -0.9755
vn 0.1829 0.0040 -0.9831
vn 0.2835 0.0311 -0.9585
vn 0.8147 0.1860 -0.5492
vn 0.7718 0.1613 -0.6151
vn 0.8790 0.4337 -0.1981
vn 0.7164 0.6856 -0.1296
vn 0.5417 0.8393 0.0457
vn 0.0069 0.9996 0.0261
vn 0.1873 0.9815 -0.0388
vn 0.5653 0.7869 -0.2473
vn 0.2280 0.4577 0.8594
vn 0.2745 0.5375 0.7973
vn 0.6053 0.7769 0.1731
vn 0.4150 0.8701 0.2657
vn 0.7202 0.6151 0.3208
vn 0.4193 0.9018 -0.1045
vn 0.4505 0.8872 -0.0992
vn 0.3035 0.8881 -0.3451
vn 0.8184 0.5747 0.0069
vn 0.2195 0.9413 -0.2565
vn 0.2146 -0.2680 -0.9392
vn 0.2517 -0.3065 -0.9180
vn 0.4510 -0.2800 -0.8475
vn 0.7871 0.2103 -0.5799
vn 0.9935 0.1013 -0.0512
vn 0.7753 0.5787 -0.2530
vn 0.9983 0.0546 -0.0204
vn 0.9478 0.2882 -0.1361
vn 0.4259 0.8764 -0.2246
vn 0.6117 0.7641 -0.2048
vn 0.5521 0.8084 0.2042
vn 0.5748 0.5539 0.6024
vn 0.7752 0.4994 0.3867
vn 0.6644 0.5702 0.4832
vn 0.4652 0.8852 0.0098
vn 0.6246 0.7184 0.3062
vn 0.6897 0.7105 -0.1398
vn 0.6497 0.7566 0.0743
vn 0.8287 0.2686 0.4911
vn 0.0200 -0.0000 0.9998
vn 0.5286 0.8489 0.0034
vn 0.7202 0.4345 0.5409
vn -0.0001 0.0132 0.9999
vn 0.2505 -0.1055 0.9624
vn 0.0176 0.0058 0.9998
vn 0.1744 -0.1397 0.9747
vn -0.1725 -0.2100 0.9624
vn -0.7168 0.0250 0.6968
vn -0.5622 -0.1826 0.8066
vn -0.4058 0.0926 0.9093
vn 0.8374 0.3484 0.4211
vn -0.7773 0.1068 0.6200
vn -0.4357 0.8922 0.1188
vn 0.0488 0.2074 -0.9770
vn 0.1141 0.0371 -0.9928
vn -0.1308 -0.4334 -0.8917
vn 0.0374 -0.2411 -0.9698
vn 0.2737 -0.0453 -0.9607
vn 0.0630 0.0717 -0.9954
vn -0.0139 -0.0000 -0.9999
vn 0.0123 -0.1995 -0.9798
vn -0.0139 -0.1057 -0.9943
vn 0.1486 0.1440 -0.9784
vn 0.0134 -0.0995 -0.9949
vn 0.2178 0.2636 -0.9397
vn 0.2345 0.1183 -0.9649
vn 0.0475 0.2145 -0.9756
vn 0.0706 0.1090 -0.9915
vn 0.1172 -0.0119 -0.9930
vn 0.1221 -0.0131 -0.9924
vn 0.2241 0.0416 -0.9737
vn 0.2994 -0.1033 -0.9485
vn 0.0440 0.8901 -0.4537
vn 0.1566 -0.3333 -0.9297
vn 0.0074 0.0120 0.9999
vn -0.6452 -0.1014 0.7573
vn 0.8769 -0.1020 0.4697
vn 0.8332 -0.1186 0.5400
vn 0.6323 -0.1770 0.7543
vn 0.3155 -0.0977 0.9439
vn 0.2006 -0.6884 0.6971
vn 0.5316 0.7801 0.3301
vn 0.2028 0.8317 0.5168
vn 0.7155 0.6757 0.1777
vn 0.9211 0.3890 -0.0145
vn 0.7761 0.5556 -0.2982
vn 0.2886 0.0747 -0.9545
vn 0.5305 0.3705 -0.7624
vn 0.7306 0.5176 0.4452
vn 0.3276 0.9280 -0.1775
vn 0.2640 -0.0077 -0.9645
vn 0.7342 -0.0833 0.6738
vn 0.5133 -0.1007 0.8523
vn -0.9106 -0.0804 0.4053
vn 0.7941 -0.0196 -0.6074
vn 0.4504 0.2240 -0.8643
vn 0.1206 -0.8614 0.4933
vn 0.2055 -0.9753 0.0812
vn 0.1628 -0.9757 0.1466
vn 0.8801 -0.4469 -0.1605
vn 0.8942 -0.4476 0.0061
vn 0.1452 -0.9098 -0.3888
vn 0.2627 -0.3201 -0.9102
vn 0.2633 -0.9644 -0.0243
vn 0.0317 -0.7674 0.6404
vn -0.0204 -0.3816 0.9241
vn 0.0101 -0.4879 -0.8728
vn -0.6971 -0.3930 0.5996
vn -0.4191 0.0592 0.9060
vn -0.6037 -0.1486 -0.7832
vn -0.6927 -0.2031 0.6920
vn -0.4530 0.1462 0.8794
vn -0.7085 0.2803 0.6477
vn -0.5752 0.1162 0.8097
vn -0.4466 0.0604 0.8927
vn -0.5777 0.7692 0.2729
vn -0.3193 0.7583 0.5684
vn -0.3199 0.7313 0.6024
vn -0.0784 0.9029 -0.4226
vn 0.0010 0.9976 0.0695
vn 0.1053 0.9493 -0.2963
vn -0.0851 0.9932 -0.0789
vn 0.0879 0.9281 -0.3618
vn 0.1098 0.9775 -0.1801
vn 0.5447 0.8384 -0.0181
vn 0.9437 -0.2066 -0.2583
vn 0.9219 -0.2642 -0.2832
vn 0.9752 -0.0929 -0.2007
vn -0.2712 -0.4976 -0.8240
vn 0.3544 0.8513 -0.3868
vn -0.2820 -0.5564 0.7816
vn -0.1102 -0.2724 -0.9559
vn -0.0618 0.9953 0.0750
vt 0.684176 0.335369
vt 0.707660 0.307170
vt 0.739860 0.328491
vt 0.802122 0.313612
vt 0.761788 0.362153
vt 0.735245 0.273726
vt 0.765960 0.237470
vt 0.768683 0.293669
vt 0.796675 0.201214
vt 0.830113 0.221157
vt 0.799398 0.257413
vt 0.902801 0.075943
vt 0.883176 0.158521
vt 0.849738 0.138579
vt 0.936238 0.095886
vt 0.425437 0.900332
vt 0.412725 0.935102
vt 0.467852 0.907309
vt 0.515473 0.905655
vt 0.467997 0.946518
vt 0.527233 0.945333
vt 0.436556 0.845393
vt 0.431732 0.870366
vt 0.466185 0.845199
vt 0.499920 0.840726
vt 0.468211 0.873207
vt 0.507064 0.870553
vt 0.431573 0.781925
vt 0.433614 0.815114
vt 0.460567 0.777650
vt 0.488405 0.772219
vt 0.464136 0.810409
vt 0.494289 0.804642
vt 0.431722 0.731037
vt 0.431939 0.754096
vt 0.454464 0.726068
vt 0.478421 0.720140
vt 0.457649 0.750592
vt 0.483188 0.745435
vt 0.057318 0.306755
vt 0.102863 0.251781
vt 0.106842 0.293581
vt 0.053338 0.264954
vt 0.156367 0.280407
vt 0.201913 0.225433
vt 0.205892 0.267234
vt 0.152388 0.238607
vt 0.255417 0.254060
vt 0.300963 0.199086
vt 0.304942 0.240886
vt 0.251438 0.212260
vt 0.418718 0.574803
vt 0.435902 0.549868
vt 0.416858 0.559353
vt 0.439575 0.570984
vt 0.414999 0.543341
vt 0.433249 0.534157
vt 0.427793 0.518132
vt 0.462060 0.494756
vt 0.422533 0.495110
vt 0.396555 0.489930
vt 0.425135 0.483422
vt 0.459769 0.477788
vt 0.425036 0.470835
vt 0.460395 0.417187
vt 0.414285 0.388963
vt 0.345954 0.325521
vt 0.365210 0.396371
vt 0.599724 0.175355
vt 0.610425 0.150734
vt 0.613579 0.167017
vt 0.641391 0.170163
vt 0.614400 0.201957
vt 0.587409 0.233749
vt 0.638355 0.232341
vt 0.682571 0.229721
vt 0.658892 0.264386
vt 0.659792 0.313977
vt 0.683276 0.285778
vt 0.710733 0.252478
vt 0.171840 0.486160
vt 0.133217 0.480545
vt 0.161078 0.506263
vt 0.923245 0.412377
vt 0.923617 0.393467
vt 0.935838 0.401730
vt 0.099940 0.383185
vt 0.175658 0.441363
vt 0.149169 0.378690
vt 0.791459 0.377195
vt 0.830133 0.330730
vt 0.631950 0.133393
vt 0.637120 0.117924
vt 0.658127 0.129564
vt 0.702025 0.111241
vt 0.673100 0.142153
vt 0.691827 0.162182
vt 0.742572 0.155946
vt 0.712572 0.192833
vt 0.772163 0.179965
vt 0.741448 0.216221
vt 0.962601 0.324914
vt 0.954501 0.357163
vt 0.942281 0.348900
vt 0.965042 0.344872
vt 0.912880 0.283239
vt 0.937741 0.304077
vt 0.917420 0.328063
vt 0.921961 0.372887
vt 0.890052 0.360368
vt 0.863551 0.241099
vt 0.860848 0.294474
vt 0.832836 0.277356
vt 0.888215 0.262169
vt 0.650277 0.106289
vt 0.655256 0.101277
vt 0.677439 0.110106
vt 0.689137 0.041958
vt 0.726880 0.025079
vt 0.703094 0.083061
vt 0.718161 0.129035
vt 0.752570 0.080229
vt 0.762569 0.004512
vt 0.806223 0.017794
vt 0.849878 0.031076
vt 0.825226 0.117329
vt 0.796225 0.093511
vt 0.878288 0.054694
vt 0.976967 0.307957
vt 0.970768 0.338195
vt 0.978936 0.351476
vt 0.973209 0.358153
vt 0.954101 0.245734
vt 0.952106 0.287120
vt 0.991332 0.290999
vt 0.916614 0.178464
vt 0.929437 0.224664
vt 0.995322 0.208229
vt 0.691517 0.828239
vt 0.719159 0.836490
vt 0.720159 0.777595
vt 0.757172 0.731430
vt 0.756110 0.780770
vt 0.781885 0.729497
vt 0.587238 0.881830
vt 0.611302 0.910628
vt 0.642308 0.862023
vt 0.679128 0.884257
vt 0.553637 0.895739
vt 0.573375 0.931780
vt 0.092932 0.733558
vt 0.071920 0.737555
vt 0.097320 0.781175
vt 0.107228 0.829560
vt 0.142821 0.818073
vt 0.205116 0.939484
vt 0.251125 0.904605
vt 0.182607 0.870447
vt 0.175426 0.807135
vt 0.288781 0.873750
vt 0.326759 0.929120
vt 0.393207 0.982716
vt 0.630931 0.793878
vt 0.658752 0.809394
vt 0.673665 0.767242
vt 0.715494 0.729432
vt 0.700773 0.773133
vt 0.735822 0.730387
vt 0.553471 0.829607
vt 0.568534 0.853331
vt 0.592288 0.814815
vt 0.616699 0.837539
vt 0.528126 0.835636
vt 0.538924 0.863604
vt 0.143067 0.713866
vt 0.118135 0.723238
vt 0.155671 0.762215
vt 0.208346 0.792674
vt 0.238001 0.779693
vt 0.256845 0.827513
vt 0.316446 0.845877
vt 0.340499 0.822343
vt 0.375353 0.866354
vt 0.705142 0.726047
vt 0.682822 0.718738
vt 0.637037 0.733363
vt 0.660348 0.759975
vt 0.535464 0.764642
vt 0.544445 0.797198
vt 0.565695 0.755246
vt 0.595289 0.742349
vt 0.577365 0.787744
vt 0.613510 0.767110
vt 0.511838 0.769041
vt 0.519530 0.801343
vt 0.197569 0.718633
vt 0.171975 0.716672
vt 0.215223 0.750852
vt 0.268069 0.772250
vt 0.314086 0.794980
vt 0.289153 0.806357
vt 0.294547 0.765152
vt 0.332904 0.769071
vt 0.399520 0.811123
vt 0.367809 0.769284
vt 0.354243 0.793821
vt 0.663377 0.709846
vt 0.562949 0.715419
vt 0.577202 0.727179
vt 0.599147 0.710905
vt 0.518611 0.715176
vt 0.526127 0.738330
vt 0.541431 0.715705
vt 0.552281 0.738100
vt 0.498674 0.717830
vt 0.504745 0.742392
vt 0.236073 0.702636
vt 0.217339 0.710129
vt 0.262645 0.737205
vt 0.309823 0.750356
vt 0.323858 0.737571
vt 0.344417 0.754381
vt 0.379656 0.750244
vt 0.390358 0.733757
vt 0.407884 0.757277
vt 0.564198 0.667334
vt 0.564525 0.692735
vt 0.603019 0.681451
vt 0.645265 0.702107
vt 0.647067 0.680413
vt 0.129654 0.129394
vt 0.080129 0.142568
vt 0.068685 0.104656
vt 0.007715 0.079918
vt 0.052012 0.068134
vt 0.049359 0.223154
vt 0.089507 0.176275
vt 0.098884 0.209981
vt 0.039982 0.189448
vt 0.221020 0.670087
vt 0.227951 0.686946
vt 0.270854 0.683541
vt 0.282815 0.724093
vt 0.277021 0.697422
vt 0.313215 0.693599
vt 0.317268 0.716351
vt 0.347215 0.687081
vt 0.358848 0.736143
vt 0.350264 0.708145
vt 0.173680 0.348204
vt 0.129383 0.359987
vt 0.165024 0.314306
vt 0.085087 0.371770
vt 0.071202 0.339263
vt 0.120727 0.326088
vt 0.597954 0.644466
vt 0.558466 0.642296
vt 0.600856 0.663161
vt 0.157109 0.081135
vt 0.179179 0.116220
vt 0.112982 0.092873
vt 0.148409 0.196807
vt 0.188556 0.149927
vt 0.197934 0.183633
vt 0.139032 0.163100
vt 0.218099 0.633769
vt 0.218738 0.652136
vt 0.268995 0.668948
vt 0.309159 0.669219
vt 0.308469 0.645068
vt 0.344068 0.665421
vt 0.378970 0.681384
vt 0.374920 0.654766
vt 0.261935 0.324728
vt 0.217808 0.336466
vt 0.209151 0.302568
vt 0.551413 0.616736
vt 0.583811 0.597657
vt 0.543642 0.592722
vt 0.613928 0.574848
vt 0.624495 0.592778
vt 0.228704 0.103047
vt 0.250591 0.056268
vt 0.278229 0.089873
vt 0.206634 0.067961
vt 0.247459 0.170460
vt 0.287606 0.123579
vt 0.296984 0.157286
vt 0.238081 0.136753
vt 0.239417 0.601512
vt 0.228446 0.616694
vt 0.274056 0.626890
vt 0.311912 0.607771
vt 0.322573 0.575495
vt 0.346154 0.604186
vt 0.372997 0.629581
vt 0.372652 0.602780
vt 0.355272 0.299900
vt 0.308604 0.312313
vt 0.305345 0.276980
vt 0.630334 0.564849
vt 0.587567 0.556156
vt 0.556789 0.542105
vt 0.545492 0.558584
vt 0.535215 0.571659
vt 0.517729 0.549501
vt 0.488790 0.526636
vt 0.494639 0.549453
vt 0.494364 0.567223
vt 0.475315 0.547827
vt 0.457163 0.530103
vt 0.457452 0.546391
vt 0.298431 0.550240
vt 0.262332 0.554288
vt 0.268391 0.572336
vt 0.285413 0.585676
vt 0.310683 0.563799
vt 0.336749 0.542619
vt 0.348906 0.575782
vt 0.345731 0.555452
vt 0.370282 0.538528
vt 0.371563 0.557224
vt 0.394919 0.557746
vt 0.649507 0.552506
vt 0.668510 0.540040
vt 0.619390 0.523878
vt 0.584645 0.502662
vt 0.570359 0.523207
vt 0.538307 0.513968
vt 0.506944 0.496601
vt 0.499424 0.517911
vt 0.491992 0.501712
vt 0.498214 0.500534
vt 0.485860 0.499273
vt 0.492778 0.514478
vt 0.494553 0.506997
vt 0.196818 0.532453
vt 0.207921 0.547352
vt 0.235545 0.523749
vt 0.285131 0.535942
vt 0.257449 0.502503
vt 0.303838 0.493263
vt 0.360661 0.522474
vt 0.408054 0.520485
vt 0.393380 0.540880
vt 0.384914 0.516651
vt 0.689520 0.525755
vt 0.703109 0.519736
vt 0.659160 0.491801
vt 0.627049 0.461928
vt 0.606138 0.480941
vt 0.532101 0.490666
vt 0.507602 0.477399
vt 0.511358 0.484616
vt 0.478830 0.495216
vt 0.478483 0.489814
vt 0.487555 0.478785
vt 0.161877 0.529051
vt 0.174168 0.526810
vt 0.198498 0.505734
vt 0.253234 0.502244
vt 0.334573 0.491450
vt 0.311800 0.467187
vt 0.271538 0.475638
vt 0.392175 0.481064
vt 0.371635 0.490989
vt 0.365704 0.485245
vt 0.722610 0.510975
vt 0.746961 0.495749
vt 0.703812 0.465775
vt 0.675922 0.421514
vt 0.649417 0.443341
vt 0.581105 0.417594
vt 0.584094 0.338557
vt 0.550002 0.412112
vt 0.514137 0.425036
vt 0.479762 0.322885
vt 0.234689 0.496603
vt 0.202698 0.489908
vt 0.189134 0.505437
vt 0.128942 0.522517
vt 0.286757 0.443523
vt 0.244802 0.443682
vt 0.249683 0.466263
vt 0.230054 0.451749
vt 0.387179 0.465049
vt 0.356255 0.459738
vt 0.319943 0.405761
vt 0.184035 0.688845
vt 0.207647 0.693402
vt 0.006558 0.584735
vt 0.087564 0.533554
vt 0.044025 0.532779
vt 0.185061 0.542490
vt 0.219880 0.561174
vt 0.215330 0.596484
vt 0.228350 0.581963
vt 0.180385 0.668838
vt 0.060926 0.672091
vt 0.030199 0.683299
vt 0.090260 0.714176
vt 0.027668 0.590059
vt 0.050451 0.741685
vt 0.042439 0.728615
vt 0.037957 0.722937
vt 0.008109 0.693830
vt 0.675250 0.599245
vt 0.770686 0.567236
vt 0.775082 0.523900
vt 0.825360 0.542358
vt 0.840859 0.562206
vt 0.793132 0.560639
vt 0.826537 0.652505
vt 0.687191 0.691450
vt 0.666180 0.686565
vt 0.646337 0.657877
vt 0.640930 0.635204
vt 0.799750 0.644459
vt 0.632887 0.613526
vt 0.643753 0.585075
vt 0.662150 0.575787
vt 0.790537 0.636856
vt 0.786809 0.627213
vt 0.807255 0.607015
vt 0.823142 0.598408
vt 0.809373 0.650465
vt 0.855446 0.586731
vt 0.836901 0.656146
vt 0.856656 0.663809
vt 0.807802 0.727033
vt 0.794706 0.510123
vt 0.763628 0.479732
vt 0.788263 0.613515
vt 0.064084 0.724720
vt 0.094059 0.667468
vt 0.054151 0.594802
vt 0.074919 0.605802
vt 0.098587 0.612135
vt 0.173848 0.583268
vt 0.108998 0.629196
vt 0.069834 0.509816
vt 0.284243 0.339827
vt 0.203624 0.366604
vt 0.212203 0.452586
vt 0.533188 0.328149
vt 0.557774 0.454996
vt 0.625888 0.380616
vt 0.674548 0.481110
vt 0.729905 0.449281
vt 0.212035 0.507889
vt 0.451961 0.491639
vt 0.632904 0.508926
vt 0.323521 0.524680
vt 0.244873 0.538128
vt 0.473919 0.496261
vt 0.523311 0.533128
vt 0.599655 0.543401
vt 0.374485 0.576041
vt 0.397503 0.575505
vt 0.460525 0.567154
vt 0.478063 0.567408
vt 0.480457 0.531030
vt 0.469861 0.533000
vt 0.514596 0.569257
vt 0.571205 0.572065
vt 0.354467 0.227712
vt 0.354869 0.263806
vt 0.258676 0.289394
vt 0.343107 0.636801
vt 0.268629 0.641167
vt 0.327754 0.076699
vt 0.337131 0.110406
vt 0.346508 0.144112
vt 0.184563 0.032876
vt 0.228521 0.021183
vt 0.272479 0.009490
vt 0.300116 0.043094
vt 0.589419 0.615823
vt 0.096309 0.056352
vt 0.140437 0.044614
vt 0.383895 0.708813
vt 0.030604 0.155742
vt 0.019160 0.117830
vt 0.411950 0.732619
vt 0.399394 0.776829
vt 0.246993 0.746866
vt 0.621678 0.724130
vt 0.391944 0.839022
vt 0.190992 0.752156
vt 0.359327 0.896988
vt 0.229177 0.845911
vt 0.133003 0.773197
vt 0.294098 0.972898
vt 0.149089 0.887106
vt 0.076352 0.786579
vt 0.543280 0.993756
vt 0.599685 0.975293
vt 0.653757 0.941870
vt 0.716863 0.898344
vt 0.760844 0.843285
vt 0.782785 0.782174
vt 0.969677 0.115828
vt 0.982500 0.162029
vt 0.993327 0.249614
vt 0.970512 0.361153
vt 0.985134 0.321238
vt 0.728159 0.053318
vt 0.668347 0.087946
vt 0.885512 0.315544
vt 0.858145 0.347849
vt 0.980785 0.382167
vt 0.978538 0.392955
vt 0.973982 0.413827
vt 0.934181 0.381149
vt 0.661826 0.199070
vt 0.630290 0.147341
vt 0.840759 0.368364
vt 0.821884 0.390870
vt 0.776331 0.395114
vt 0.744918 0.382187
vt 0.070684 0.421810
vt 0.038371 0.459189
vt 0.052653 0.486638
vt 0.635408 0.292586
vt 0.617637 0.262720
vt 0.586588 0.198809
vt 0.416351 0.318541
vt 0.457846 0.521345
vt 0.455663 0.512727
vt 0.455577 0.503786
vt 0.350488 0.185912
vt 0.467945 0.997000
vt 0.716701 0.356163
vt 0.492005 0.521458
vt 0.975978 0.405259
vt 0.115218 0.646470
vt 0.839741 0.591463
vt 0.661628 0.096023
s 1
usemtl Cave_Material.003
f 28/1/1 382/2/2 383/3/3
f 1/4/4 384/5/5 383/3/3
f 2/6/6 115/7/7 114/8/8
f 3/9/9 117/10/10 116/11/11
f 8/12/12 385/13/13 386/14/14
f 8/12/12 387/15/15 385/13/13
f 6/16/16 388/17/17 120/18/18
f 7/19/19 389/20/20 121/21/21
f 9/22/22 122/23/23 123/24/24
f 10/25/25 124/26/26 125/27/27
f 11/28/28 126/29/29 127/30/30
f 12/31/31 128/32/32 129/33/33
f 13/34/34 130/35/35 131/36/36
f 14/37/37 132/38/38 133/39/39
f 13/40/34 134/41/40 135/42/41
f 13/40/34 131/43/36 134/41/40
f 15/44/42 138/45/43 139/46/44
f 15/44/42 136/47/45 138/45/43
f 17/48/46 142/49/47 143/50/48
f 17/48/46 140/51/49 142/49/47
f 19/52/50 146/53/51 147/54/52
f 19/52/50 144/55/53 146/53/51
f 21/56/54 148/57/55 150/58/56
f 23/59/57 152/60/58 150/58/56
f 24/61/59 152/60/58 154/62/60
f 25/63/61 156/64/62 154/62/60
f 25/63/61 158/65/63 159/66/64
f 27/67/65 161/68/66 159/66/64
f 30/69/67 162/70/68 163/71/69
f 31/72/70 390/73/71 163/71/69
f 112/74/72 390/73/71 392/75/73
f 32/76/74 166/77/75 392/75/73
f 28/1/1 394/78/76 395/79/77
f 32/76/74 167/80/78 395/79/77
f 36/81/79 169/82/80 170/83/81
f 34/84/82 171/85/83 168/86/84
f 38/87/85 173/88/86 174/89/87
f 36/81/79 173/88/86 169/82/80
f 1/4/4 177/90/88 384/5/5
f 1/4/4 178/91/89 177/90/88
f 29/92/90 179/93/91 180/94/92
f 41/95/93 182/96/94 180/94/92
f 31/72/70 182/96/94 183/97/95
f 42/98/96 185/99/97 183/97/95
f 32/76/74 185/99/97 167/80/78
f 42/98/96 187/100/98 186/101/99
f 44/102/100 189/103/101 190/104/102
f 44/102/100 191/105/103 189/103/101
f 45/106/104 192/107/105 193/108/106
f 37/109/107 176/110/108 193/108/106
f 4/111/109 195/112/110 118/113/111
f 4/111/109 196/114/112 195/112/110
f 40/115/113 466/116/114 181/117/115
f 50/118/116 399/119/117 398/120/118
f 42/98/96 184/121/119 198/122/120
f 46/123/121 400/124/122 198/122/120
f 53/125/123 402/126/124 401/127/125
f 53/125/123 212/128/126 402/126/124
f 44/102/100 199/129/127 404/130/128
f 54/131/129 403/132/130 404/130/128
f 45/106/104 200/133/131 201/134/132
f 47/135/133 199/129/127 201/134/132
f 4/111/109 119/136/134 203/137/135
f 48/138/136 200/133/131 203/137/135
f 51/139/137 406/140/138 206/141/139
f 49/142/140 407/143/141 205/144/142
f 52/145/143 207/146/144 208/147/145
f 51/139/137 209/148/146 406/140/138
f 7/19/19 121/21/21 210/149/147
f 52/145/143 211/150/148 207/146/144
f 55/151/149 213/152/150 408/153/151
f 47/154/133 409/155/152 408/153/151
f 48/156/136 410/157/153 411/158/154
f 56/159/155 409/155/152 411/158/154
f 57/160/156 410/157/153 412/161/157
f 5/162/158 388/17/17 412/161/157
f 59/163/159 218/164/160 219/165/161
f 58/166/162 220/167/163 217/168/164
f 60/169/165 221/170/166 222/171/167
f 59/163/159 223/172/168 218/164/160
f 10/25/25 125/27/27 224/173/169
f 60/169/165 225/174/170 221/170/166
f 61/175/171 226/176/172 227/177/173
f 56/159/155 228/178/174 227/177/173
f 62/179/175 228/178/174 230/180/176
f 57/160/156 231/181/177 230/180/176
f 63/182/178 231/181/177 233/183/179
f 6/16/16 122/23/23 233/183/179
f 58/166/162 235/184/180 219/165/161
f 64/185/181 237/186/182 236/187/183
f 66/188/184 239/189/185 240/190/186
f 65/191/187 241/192/188 238/193/189
f 12/31/31 129/33/33 242/194/190
f 66/188/184 243/195/191 239/189/185
f 67/196/192 244/197/193 245/198/194
f 62/179/175 246/199/195 245/198/194
f 63/182/178 248/200/196 232/201/197
f 68/202/198 248/200/196 249/203/199
f 9/22/22 126/29/29 251/204/200
f 69/205/201 250/206/202 251/204/200
f 64/185/181 253/207/203 237/186/182
f 71/208/204 255/209/205 256/210/206
f 72/211/207 257/212/208 258/213/209
f 71/208/204 259/214/210 255/209/205
f 14/37/37 133/39/39 260/215/211
f 72/211/207 261/216/212 257/212/208
f 73/217/213 262/218/214 263/219/215
f 68/202/198 264/220/216 263/219/215
f 74/221/217 264/220/216 266/222/218
f 69/205/201 267/223/219 266/222/218
f 75/224/220 267/223/219 269/225/221
f 11/28/28 130/35/35 269/225/221
f 77/226/222 272/227/223 273/228/224
f 70/229/225 271/230/226 273/228/224
f 78/231/227 275/232/228 276/233/229
f 71/234/204 272/235/223 276/233/229
f 14/236/37 278/237/230 137/238/231
f 14/236/37 260/239/211 278/237/230
f 79/240/232 280/241/233 281/242/234
f 73/217/213 265/243/235 282/244/236
f 80/245/237 283/246/238 284/247/239
f 74/221/217 268/248/240 285/249/241
f 81/250/242 286/251/243 287/252/244
f 75/253/220 270/254/245 288/255/246
f 77/226/222 290/256/247 291/257/248
f 77/226/222 274/258/249 290/256/247
f 78/231/227 293/259/250 294/260/251
f 78/231/227 277/261/252 293/259/250
f 16/262/253 296/263/254 141/264/255
f 16/262/253 279/265/256 296/263/254
f 85/266/257 298/267/258 299/268/259
f 80/245/237 300/269/260 299/268/259
f 86/270/261 300/269/260 302/271/262
f 81/272/242 303/273/263 302/271/262
f 87/274/264 303/275/263 305/276/265
f 15/44/42 139/46/44 305/276/265
f 83/277/266 308/278/267 309/279/268
f 88/280/269 308/278/267 307/281/270
f 84/282/271 311/283/272 312/284/273
f 84/282/271 295/285/274 311/283/272
f 18/286/275 314/287/276 145/288/277
f 18/286/275 297/289/278 314/287/276
f 91/290/279 316/291/280 317/292/281
f 86/270/261 318/293/282 317/292/281
f 92/294/283 318/293/282 320/295/284
f 87/296/264 321/297/285 320/295/284
f 93/298/286 321/299/285 323/300/287
f 17/48/46 143/50/48 323/300/287
f 88/280/269 325/301/288 326/302/289
f 95/303/290 328/304/291 326/302/289
f 89/305/292 328/304/291 329/306/293
f 96/307/294 331/308/295 329/306/293
f 90/309/296 331/308/295 332/310/297
f 22/311/298 149/312/299 332/310/297
f 98/313/300 335/314/301 336/315/302
f 91/290/279 319/316/303 336/315/302
f 98/313/300 337/317/304 338/318/305
f 92/294/283 322/319/306 339/320/307
f 99/321/308 340/322/309 341/323/310
f 19/52/50 147/54/52 341/323/310
f 94/324/311 343/325/312 344/326/313
f 101/327/314 346/328/315 344/326/313
f 95/303/290 346/328/315 347/329/316
f 102/330/317 348/331/318 347/329/316
f 113/332/319 422/333/320 421/334/321
f 448/335/322 348/331/318 349/336/323
f 103/337/324 351/338/325 352/339/326
f 98/313/300 354/340/327 335/314/301
f 104/341/328 354/340/327 355/342/329
f 99/321/308 357/343/330 338/318/305
f 21/56/54 153/344/331 342/345/332
f 99/321/308 358/346/333 357/343/330
f 100/347/334 360/348/335 361/349/336
f 107/350/337 363/351/338 361/349/336
f 101/327/314 363/351/338 364/352/339
f 108/353/340 366/354/341 364/352/339
f 23/59/57 350/355/342 367/356/343
f 108/353/340 368/357/344 367/356/343
f 109/358/345 369/359/346 370/360/347
f 104/341/328 372/361/348 352/339/326
f 105/362/349 373/363/350 355/342/329
f 104/341/328 374/364/351 372/361/348
f 24/61/59 157/365/352 359/366/353
f 105/362/349 376/367/354 373/363/350
f 106/368/355 413/369/356 378/370/357
f 112/371/72 379/372/358 378/370/357
f 107/350/337 379/372/358 414/373/359
f 33/374/360 415/375/361 414/373/359
f 108/353/340 415/375/361 380/376/362
f 28/377/1 158/65/63 380/376/362
f 110/378/363 417/379/364 370/360/347
f 109/358/345 418/380/365 416/381/366
f 111/382/367 419/383/368 375/384/369
f 110/378/363 420/385/370 417/379/364
f 26/386/371 161/68/66 377/387/372
f 111/382/367 381/388/373 419/383/368
f 79/240/232 429/389/374 426/390/374
f 35/391/375 423/392/376 168/393/84
f 109/358/345 424/394/377 369/359/346
f 97/395/378 425/396/379 334/397/380
f 79/240/232 426/390/374 280/241/233
f 97/395/378 424/394/377 425/396/379
f 85/266/257 428/398/381 298/267/258
f 451/399/382 458/400/383 433/401/384
f 35/391/375 452/402/385 423/392/376
f 54/403/129 213/152/150 403/404/130
f 43/405/386 433/401/384 188/406/387
f 61/175/171 433/401/384 226/176/172
f 100/347/334 441/407/388 437/408/389
f 106/368/355 434/409/390 413/369/356
f 29/410/90 434/409/390 179/411/91
f 106/368/355 360/348/335 435/412/391
f 49/142/140 436/413/392 217/168/164
f 58/166/162 439/414/393 235/184/180
f 64/185/181 440/415/394 253/207/203
f 76/416/395 441/407/388 289/417/396
f 58/166/162 438/418/397 439/414/393
f 82/419/398 444/420/399 307/281/270
f 94/324/311 444/420/399 343/325/312
f 444/420/399 82/419/398 442/421/400
f 444/420/399 442/421/400 343/325/312
f 343/325/312 442/421/400 100/347/334
f 444/420/399 94/324/311 325/301/288
f 444/420/399 325/301/288 307/281/270
f 307/281/270 325/301/288 88/280/269
f 438/418/397 463/422/401 439/414/393
f 439/414/393 443/423/402 76/416/395
f 441/407/388 100/347/334 442/421/400
f 441/407/388 442/421/400 289/417/396
f 289/417/396 442/421/400 82/419/398
f 440/415/394 76/416/395 271/230/226
f 440/415/394 271/230/226 253/207/203
f 253/207/203 271/230/226 70/229/225
f 439/414/393 76/416/395 440/415/394
f 439/414/393 440/415/394 235/184/180
f 235/184/180 440/415/394 64/185/181
f 459/424/403 461/425/404 437/408/389
f 436/413/392 464/426/405 217/168/164
f 217/168/164 438/418/397 58/166/162
f 360/348/335 100/347/334 437/408/389
f 360/348/335 437/408/389 435/412/391
f 435/412/391 437/408/389 40/427/113
f 436/413/392 49/142/140 205/144/142
f 465/428/406 205/144/142 397/429/407
f 397/429/407 205/144/142 50/430/116
f 434/409/390 106/368/355 435/412/391
f 434/409/390 435/412/391 179/411/91
f 179/411/91 435/412/391 40/427/113
f 434/409/390 29/410/90 162/431/68
f 434/409/390 162/431/68 413/369/356
f 413/369/356 162/431/68 30/432/67
f 441/407/388 76/416/395 443/423/402
f 441/407/388 443/423/402 437/408/389
f 443/423/402 460/433/408 437/408/389
f 433/401/384 43/405/386 432/434/409
f 433/401/384 432/434/409 226/176/172
f 226/176/172 432/434/409 55/151/149
f 433/401/384 61/175/171 430/435/410
f 430/435/410 451/399/382 433/401/384
f 450/436/411 455/437/412 423/392/376
f 213/152/150 55/151/149 432/434/409
f 213/152/150 432/434/409 403/404/130
f 403/404/130 432/434/409 43/405/386
f 431/438/413 85/266/257 427/439/414
f 431/438/413 427/439/414 423/392/376
f 423/392/376 427/439/414 109/358/345
f 430/435/410 61/175/171 428/398/381
f 456/440/415 428/398/381 431/438/413
f 431/438/413 428/398/381 85/266/257
f 428/398/381 61/175/171 429/389/374
f 428/398/381 429/389/374 298/267/258
f 298/267/258 429/389/374 79/240/232
f 424/394/377 109/358/345 427/439/414
f 424/394/377 427/439/414 425/396/379
f 425/396/379 427/439/414 85/266/257
f 426/390/374 67/196/192 262/218/214
f 426/390/374 262/218/214 280/241/233
f 280/241/233 262/218/214 73/217/213
f 425/396/379 85/266/257 316/291/280
f 425/396/379 316/291/280 334/397/380
f 334/397/380 316/291/280 91/290/279
f 424/394/377 97/395/378 351/338/325
f 424/394/377 351/338/325 369/359/346
f 369/359/346 351/338/325 103/337/324
f 423/392/376 109/358/345 416/381/366
f 423/392/376 416/381/366 168/393/84
f 168/393/84 416/381/366 34/441/82
f 429/389/374 61/175/171 244/197/193
f 429/389/374 244/197/193 426/390/374
f 426/390/374 244/197/193 67/196/192
f 381/388/373 27/67/65 396/442/416
f 381/388/373 396/442/416 419/383/368
f 419/383/368 396/442/416 39/443/417
f 161/68/66 27/67/65 381/388/373
f 161/68/66 381/388/373 377/387/372
f 377/387/372 381/388/373 111/382/367
f 420/385/370 39/443/417 175/444/418
f 420/385/370 175/444/418 417/379/364
f 417/379/364 175/444/418 36/81/79
f 419/383/368 39/443/417 420/385/370
f 419/383/368 420/385/370 375/384/369
f 375/384/369 420/385/370 110/378/363
f 418/380/365 36/81/79 170/83/81
f 418/380/365 170/83/81 416/381/366
f 416/381/366 170/83/81 34/441/82
f 417/379/364 36/81/79 418/380/365
f 417/379/364 418/380/365 370/360/347
f 370/360/347 418/380/365 109/358/345
f 158/65/63 25/63/61 368/357/344
f 158/65/63 368/357/344 380/376/362
f 380/376/362 368/357/344 108/353/340
f 415/375/361 33/374/360 394/445/76
f 415/375/361 394/445/76 380/376/362
f 380/376/362 394/445/76 28/377/1
f 415/375/361 108/353/340 365/446/419
f 415/375/361 365/446/419 414/373/359
f 414/373/359 365/446/419 107/350/337
f 379/372/358 112/371/72 393/447/420
f 379/372/358 393/447/420 414/373/359
f 414/373/359 393/447/420 33/374/360
f 379/372/358 107/350/337 362/448/421
f 379/372/358 362/448/421 378/370/357
f 378/370/357 362/448/421 106/368/355
f 413/369/356 30/432/67 391/449/422
f 413/369/356 391/449/422 378/370/357
f 378/370/357 391/449/422 112/371/72
f 376/367/354 26/386/371 377/387/372
f 376/367/354 377/387/372 373/363/350
f 373/363/350 377/387/372 111/382/367
f 157/365/352 26/386/371 376/367/354
f 157/365/352 376/367/354 359/366/353
f 359/366/353 376/367/354 105/362/349
f 374/364/351 111/382/367 375/384/369
f 374/364/351 375/384/369 372/361/348
f 372/361/348 375/384/369 110/378/363
f 373/363/350 111/382/367 374/364/351
f 373/363/350 374/364/351 355/342/329
f 355/342/329 374/364/351 104/341/328
f 372/361/348 110/378/363 371/450/423
f 372/361/348 371/450/423 352/339/326
f 352/339/326 371/450/423 103/337/324
f 369/359/346 103/337/324 371/450/423
f 369/359/346 371/450/423 370/360/347
f 370/360/347 371/450/423 110/378/363
f 368/357/344 25/63/61 155/451/424
f 368/357/344 155/451/424 367/356/343
f 367/356/343 155/451/424 23/59/57
f 350/355/342 102/330/317 366/354/341
f 350/355/342 366/354/341 367/356/343
f 367/356/343 366/354/341 108/353/340
f 366/354/341 102/330/317 364/352/339
f 363/351/338 107/350/337 365/446/419
f 363/351/338 365/446/419 364/352/339
f 364/352/339 365/446/419 108/353/340
f 363/351/338 101/327/314 345/452/425
f 363/351/338 345/452/425 361/349/336
f 361/349/336 345/452/425 100/347/334
f 360/348/335 106/368/355 362/448/421
f 360/348/335 362/448/421 361/349/336
f 361/349/336 362/448/421 107/350/337
f 358/346/333 24/61/59 359/366/353
f 358/346/333 359/366/353 357/343/330
f 357/343/330 359/366/353 105/362/349
f 153/344/331 24/61/59 358/346/333
f 153/344/331 358/346/333 342/345/332
f 342/345/332 358/346/333 99/321/308
f 357/343/330 105/362/349 356/453/426
f 357/343/330 356/453/426 338/318/305
f 338/318/305 356/453/426 98/313/300
f 354/340/327 98/313/300 356/453/426
f 354/340/327 356/453/426 355/342/329
f 355/342/329 356/453/426 105/362/349
f 354/340/327 104/341/328 353/454/427
f 354/340/327 353/454/427 335/314/301
f 335/314/301 353/454/427 97/395/378
f 351/338/325 97/395/378 353/454/427
f 351/338/325 353/454/427 352/339/326
f 352/339/326 353/454/427 104/341/328
f 348/331/318 102/330/317 422/333/320
f 348/331/318 422/333/320 349/336/323
f 349/336/323 422/333/320 113/332/319
f 422/333/320 102/330/317 350/355/342
f 422/333/320 350/355/342 421/334/321
f 468/455/428 350/355/342 23/59/57
f 348/331/318 96/307/294 330/456/429
f 348/331/318 330/456/429 347/329/316
f 347/329/316 330/456/429 95/303/290
f 346/328/315 101/327/314 364/352/339
f 346/328/315 364/352/339 347/329/316
f 347/329/316 364/352/339 102/330/317
f 346/328/315 95/303/290 327/457/430
f 346/328/315 327/457/430 344/326/313
f 344/326/313 327/457/430 94/324/311
f 343/325/312 100/347/334 345/452/425
f 343/325/312 345/452/425 344/326/313
f 344/326/313 345/452/425 101/327/314
f 147/54/52 21/56/54 342/345/332
f 147/54/52 342/345/332 341/323/310
f 341/323/310 342/345/332 99/321/308
f 340/322/309 93/458/286 324/459/431
f 340/322/309 324/459/431 341/323/310
f 341/323/310 324/459/431 19/52/50
f 322/319/306 93/458/286 340/322/309
f 322/319/306 340/322/309 339/320/307
f 339/320/307 340/322/309 99/321/308
f 337/317/304 92/294/283 339/320/307
f 337/317/304 339/320/307 338/318/305
f 338/318/305 339/320/307 99/321/308
f 319/316/303 92/294/283 337/317/304
f 319/316/303 337/317/304 336/315/302
f 336/315/302 337/317/304 98/313/300
f 335/314/301 97/395/378 334/397/380
f 335/314/301 334/397/380 336/315/302
f 336/315/302 334/397/380 91/290/279
f 149/312/299 20/460/432 315/461/433
f 149/312/299 315/461/433 332/310/297
f 332/310/297 315/461/433 90/309/296
f 96/307/294 445/462/434 331/308/295
f 331/308/295 333/463/435 332/310/297
f 332/310/297 333/463/435 22/311/298
f 331/308/295 90/309/296 313/464/436
f 331/308/295 313/464/436 329/306/293
f 329/306/293 313/464/436 89/305/292
f 328/304/291 95/303/290 330/456/429
f 328/304/291 330/456/429 329/306/293
f 329/306/293 330/456/429 96/307/294
f 328/304/291 89/305/292 310/465/437
f 328/304/291 310/465/437 326/302/289
f 326/302/289 310/465/437 88/280/269
f 325/301/288 94/324/311 327/457/430
f 325/301/288 327/457/430 326/302/289
f 326/302/289 327/457/430 95/303/290
f 143/50/48 19/466/50 324/467/431
f 143/50/48 324/467/431 323/300/287
f 323/300/287 324/467/431 93/298/286
f 321/299/285 87/274/264 306/468/438
f 321/299/285 306/468/438 323/300/287
f 323/300/287 306/468/438 17/48/46
f 321/297/285 93/458/286 322/319/306
f 321/297/285 322/319/306 320/295/284
f 320/295/284 322/319/306 92/294/283
f 318/293/282 86/270/261 304/469/439
f 318/293/282 304/469/439 320/295/284
f 320/295/284 304/469/439 87/296/264
f 318/293/282 92/294/283 319/316/303
f 318/293/282 319/316/303 317/292/281
f 317/292/281 319/316/303 91/290/279
f 316/291/280 85/266/257 301/470/440
f 316/291/280 301/470/440 317/292/281
f 317/292/281 301/470/440 86/270/261
f 297/289/278 84/282/271 312/284/273
f 297/289/278 312/284/273 314/287/276
f 314/287/276 312/284/273 90/471/296
f 314/287/276 90/471/296 315/472/433
f 314/287/276 315/472/433 145/288/277
f 145/288/277 315/472/433 20/473/432
f 295/285/274 83/474/266 309/475/268
f 295/285/274 309/475/268 311/283/272
f 311/283/272 309/475/268 89/476/292
f 311/283/272 89/476/292 313/477/436
f 311/283/272 313/477/436 312/284/273
f 312/284/273 313/477/436 90/471/296
f 308/278/267 83/277/266 292/478/441
f 308/278/267 292/478/441 307/281/270
f 307/281/270 292/478/441 82/419/398
f 308/278/267 88/280/269 310/465/437
f 308/278/267 310/465/437 309/279/268
f 309/279/268 310/465/437 89/305/292
f 139/46/44 17/48/46 306/468/438
f 139/46/44 306/468/438 305/276/265
f 305/276/265 306/468/438 87/274/264
f 303/275/263 81/250/242 287/252/244
f 303/275/263 287/252/244 305/276/265
f 305/276/265 287/252/244 15/44/42
f 303/273/263 87/296/264 304/469/439
f 303/273/263 304/469/439 302/271/262
f 302/271/262 304/469/439 86/270/261
f 300/269/260 80/245/237 284/247/239
f 300/269/260 284/247/239 302/271/262
f 302/271/262 284/247/239 81/272/242
f 300/269/260 86/270/261 301/470/440
f 300/269/260 301/470/440 299/268/259
f 299/268/259 301/470/440 85/266/257
f 298/267/258 79/240/232 281/242/234
f 298/267/258 281/242/234 299/268/259
f 299/268/259 281/242/234 80/245/237
f 279/265/256 78/231/227 294/260/251
f 279/265/256 294/260/251 296/263/254
f 296/263/254 294/260/251 84/282/271
f 296/263/254 84/282/271 297/289/278
f 296/263/254 297/289/278 141/264/255
f 141/264/255 297/289/278 18/286/275
f 277/261/252 77/479/222 291/480/248
f 277/261/252 291/480/248 293/259/250
f 293/259/250 291/480/248 83/474/266
f 293/259/250 83/474/266 295/285/274
f 293/259/250 295/285/274 294/260/251
f 294/260/251 295/285/274 84/282/271
f 274/258/249 76/416/395 289/417/396
f 274/258/249 289/417/396 290/256/247
f 290/256/247 289/417/396 82/419/398
f 290/256/247 82/419/398 292/478/441
f 290/256/247 292/478/441 291/257/248
f 291/257/248 292/478/441 83/277/266
f 270/254/245 13/40/34 135/42/41
f 270/254/245 135/42/41 288/255/246
f 288/255/246 135/42/41 15/44/42
f 286/251/243 75/253/220 288/255/246
f 286/251/243 288/255/246 287/252/244
f 287/252/244 288/255/246 15/44/42
f 268/248/240 75/224/220 286/481/243
f 268/248/240 286/481/243 285/249/241
f 285/249/241 286/481/243 81/272/242
f 283/246/238 74/221/217 285/249/241
f 283/246/238 285/249/241 284/247/239
f 284/247/239 285/249/241 81/272/242
f 265/243/235 74/221/217 283/246/238
f 265/243/235 283/246/238 282/244/236
f 282/244/236 283/246/238 80/245/237
f 280/241/233 73/217/213 282/244/236
f 280/241/233 282/244/236 281/242/234
f 281/242/234 282/244/236 80/245/237
f 260/239/211 72/482/207 275/232/228
f 260/239/211 275/232/228 278/237/230
f 278/237/230 275/232/228 78/231/227
f 278/237/230 78/231/227 279/265/256
f 278/237/230 279/265/256 137/238/231
f 137/238/231 279/265/256 16/262/253
f 272/235/223 77/479/222 277/261/252
f 272/235/223 277/261/252 276/233/229
f 276/233/229 277/261/252 78/231/227
f 275/232/228 72/482/207 258/483/209
f 275/232/228 258/483/209 276/233/229
f 276/233/229 258/483/209 71/234/204
f 271/230/226 76/416/395 274/258/249
f 271/230/226 274/258/249 273/228/224
f 273/228/224 274/258/249 77/226/222
f 272/227/223 71/208/204 256/210/206
f 272/227/223 256/210/206 273/228/224
f 273/228/224 256/210/206 70/229/225
f 130/35/35 13/34/34 270/484/245
f 130/35/35 270/484/245 269/225/221
f 269/225/221 270/484/245 75/224/220
f 267/223/219 69/205/201 252/485/442
f 267/223/219 252/485/442 269/225/221
f 269/225/221 252/485/442 11/28/28
f 267/223/219 75/224/220 268/248/240
f 267/223/219 268/248/240 266/222/218
f 266/222/218 268/248/240 74/221/217
f 264/220/216 68/202/198 249/203/199
f 264/220/216 249/203/199 266/222/218
f 266/222/218 249/203/199 69/205/201
f 264/220/216 74/221/217 265/243/235
f 264/220/216 265/243/235 263/219/215
f 263/219/215 265/243/235 73/217/213
f 262/218/214 67/196/192 247/486/443
f 262/218/214 247/486/443 263/219/215
f 263/219/215 247/486/443 68/202/198
f 261/216/212 12/31/31 242/194/190
f 261/216/212 242/194/190 257/212/208
f 257/212/208 242/194/190 66/188/184
f 133/39/39 12/31/31 261/216/212
f 133/39/39 261/216/212 260/215/211
f 260/215/211 261/216/212 72/211/207
f 259/214/210 66/188/184 240/190/186
f 259/214/210 240/190/186 255/209/205
f 255/209/205 240/190/186 65/191/187
f 257/212/208 66/188/184 259/214/210
f 257/212/208 259/214/210 258/213/209
f 258/213/209 259/214/210 71/208/204
f 255/209/205 65/191/187 254/487/444
f 255/209/205 254/487/444 256/210/206
f 256/210/206 254/487/444 70/229/225
f 253/207/203 70/229/225 254/487/444
f 253/207/203 254/487/444 237/186/182
f 237/186/182 254/487/444 65/191/187
f 250/206/202 63/182/178 234/488/445
f 250/206/202 234/488/445 251/204/200
f 251/204/200 234/488/445 9/22/22
f 126/29/29 11/28/28 252/485/442
f 126/29/29 252/485/442 251/204/200
f 251/204/200 252/485/442 69/205/201
f 248/200/196 63/182/178 250/206/202
f 248/200/196 250/206/202 249/203/199
f 249/203/199 250/206/202 69/205/201
f 248/200/196 68/202/198 246/199/195
f 248/200/196 246/199/195 232/201/197
f 232/201/197 246/199/195 62/179/175
f 246/199/195 68/202/198 247/486/443
f 246/199/195 247/486/443 245/198/194
f 245/198/194 247/486/443 67/196/192
f 244/197/193 61/175/171 229/489/446
f 244/197/193 229/489/446 245/198/194
f 245/198/194 229/489/446 62/179/175
f 243/195/191 10/25/25 224/173/169
f 243/195/191 224/173/169 239/189/185
f 239/189/185 224/173/169 60/169/165
f 129/33/33 10/25/25 243/195/191
f 129/33/33 243/195/191 242/194/190
f 242/194/190 243/195/191 66/188/184
f 241/192/188 60/169/165 222/171/167
f 241/192/188 222/171/167 238/193/189
f 238/193/189 222/171/167 59/163/159
f 239/189/185 60/169/165 241/192/188
f 239/189/185 241/192/188 240/190/186
f 240/190/186 241/192/188 65/191/187
f 237/186/182 65/191/187 238/193/189
f 237/186/182 238/193/189 236/187/183
f 236/187/183 238/193/189 59/163/159
f 235/184/180 64/185/181 236/187/183
f 235/184/180 236/187/183 219/165/161
f 219/165/161 236/187/183 59/163/159
f 122/23/23 9/22/22 234/488/445
f 122/23/23 234/488/445 233/183/179
f 233/183/179 234/488/445 63/182/178
f 231/181/177 57/160/156 216/490/447
f 231/181/177 216/490/447 233/183/179
f 233/183/179 216/490/447 6/16/16
f 231/181/177 63/182/178 232/201/197
f 231/181/177 232/201/197 230/180/176
f 230/180/176 232/201/197 62/179/175
f 228/178/174 56/159/155 215/491/448
f 228/178/174 215/491/448 230/180/176
f 230/180/176 215/491/448 57/160/156
f 228/178/174 62/179/175 229/489/446
f 228/178/174 229/489/446 227/177/173
f 227/177/173 229/489/446 61/175/171
f 226/176/172 55/151/149 214/492/449
f 226/176/172 214/492/449 227/177/173
f 227/177/173 214/492/449 56/159/155
f 225/174/170 7/19/19 210/149/147
f 225/174/170 210/149/147 221/170/166
f 221/170/166 210/149/147 52/145/143
f 125/27/27 7/19/19 225/174/170
f 125/27/27 225/174/170 224/173/169
f 224/173/169 225/174/170 60/169/165
f 223/172/168 52/145/143 208/147/145
f 223/172/168 208/147/145 218/164/160
f 218/164/160 208/147/145 51/139/137
f 221/170/166 52/145/143 223/172/168
f 221/170/166 223/172/168 222/171/167
f 222/171/167 223/172/168 59/163/159
f 220/167/163 51/139/137 206/141/139
f 220/167/163 206/141/139 217/168/164
f 217/168/164 206/141/139 49/142/140
f 218/164/160 51/139/137 220/167/163
f 218/164/160 220/167/163 219/165/161
f 219/165/161 220/167/163 58/166/162
f 388/17/17 6/16/16 216/490/447
f 388/17/17 216/490/447 412/161/157
f 412/161/157 216/490/447 57/160/156
f 410/157/153 48/156/136 204/493/450
f 410/157/153 204/493/450 412/161/157
f 412/161/157 204/493/450 5/162/158
f 409/155/152 47/154/133 202/494/451
f 409/155/152 202/494/451 411/158/154
f 411/158/154 202/494/451 48/156/136
f 410/157/153 57/160/156 215/491/448
f 410/157/153 215/491/448 411/158/154
f 411/158/154 215/491/448 56/159/155
f 409/155/152 56/159/155 214/492/449
f 409/155/152 214/492/449 408/153/151
f 408/153/151 214/492/449 55/151/149
f 213/152/150 54/403/129 405/495/452
f 213/152/150 405/495/452 408/153/151
f 408/153/151 405/495/452 47/154/133
f 211/150/148 8/496/12 212/497/126
f 211/150/148 212/497/126 207/146/144
f 207/146/144 212/497/126 53/498/123
f 121/21/21 8/496/12 211/150/148
f 121/21/21 211/150/148 210/149/147
f 210/149/147 211/150/148 52/145/143
f 209/148/146 53/498/123 400/499/122
f 209/148/146 400/499/122 406/140/138
f 406/140/138 400/499/122 46/500/121
f 207/146/144 53/498/123 209/148/146
f 207/146/144 209/148/146 208/147/145
f 208/147/145 209/148/146 51/139/137
f 407/143/141 46/500/121 399/501/117
f 407/143/141 399/501/117 205/144/142
f 205/144/142 399/501/117 50/430/116
f 406/140/138 46/500/121 407/143/141
f 406/140/138 407/143/141 206/141/139
f 206/141/139 407/143/141 49/142/140
f 200/133/131 45/106/104 196/114/112
f 200/133/131 196/114/112 203/137/135
f 203/137/135 196/114/112 4/111/109
f 119/136/134 5/502/158 204/503/450
f 119/136/134 204/503/450 203/137/135
f 203/137/135 204/503/450 48/138/136
f 199/129/127 44/102/100 192/107/105
f 199/129/127 192/107/105 201/134/132
f 201/134/132 192/107/105 45/106/104
f 200/133/131 48/138/136 202/504/451
f 200/133/131 202/504/451 201/134/132
f 201/134/132 202/504/451 47/135/133
f 403/132/130 43/505/386 191/105/103
f 403/132/130 191/105/103 404/130/128
f 404/130/128 191/105/103 44/102/100
f 199/129/127 47/135/133 405/506/452
f 199/129/127 405/506/452 404/130/128
f 404/130/128 405/506/452 54/131/129
f 212/128/126 8/12/12 386/14/14
f 212/128/126 386/14/14 402/126/124
f 402/126/124 386/14/14 3/9/9
f 402/126/124 3/9/9 187/100/98
f 402/126/124 187/100/98 401/127/125
f 401/127/125 187/100/98 42/98/96
f 400/124/122 53/125/123 401/127/125
f 400/124/122 401/127/125 198/122/120
f 198/122/120 401/127/125 42/98/96
f 184/121/119 41/95/93 197/507/453
f 184/121/119 197/507/453 198/122/120
f 198/122/120 197/507/453 46/123/121
f 399/119/117 46/123/121 197/507/453
f 399/119/117 197/507/453 398/120/118
f 398/120/118 197/507/453 41/95/93
f 397/508/407 50/118/116 398/120/118
f 397/508/407 398/120/118 181/117/115
f 181/117/115 398/120/118 41/95/93
f 196/114/112 45/106/104 194/509/454
f 196/114/112 194/509/454 195/112/110
f 195/112/110 194/509/454 38/510/85
f 195/112/110 38/510/85 178/91/89
f 195/112/110 178/91/89 118/113/111
f 118/113/111 178/91/89 1/4/4
f 176/110/108 38/510/85 194/509/454
f 176/110/108 194/509/454 193/108/106
f 193/108/106 194/509/454 45/106/104
f 192/107/105 44/102/100 190/104/102
f 192/107/105 190/104/102 193/108/106
f 193/108/106 190/104/102 37/109/107
f 191/105/103 43/505/386 188/511/387
f 191/105/103 188/511/387 189/103/101
f 188/511/387 453/512/455 189/103/101
f 189/103/101 35/513/375 172/514/456
f 189/103/101 172/514/456 190/104/102
f 190/104/102 172/514/456 37/109/107
f 187/100/98 3/9/9 115/7/7
f 187/100/98 115/7/7 186/101/99
f 186/101/99 115/7/7 2/6/6
f 185/99/97 42/98/96 186/101/99
f 185/99/97 186/101/99 167/80/78
f 167/80/78 186/101/99 2/6/6
f 185/99/97 32/76/74 165/515/457
f 185/99/97 165/515/457 183/97/95
f 183/97/95 165/515/457 31/72/70
f 182/96/94 41/95/93 184/121/119
f 182/96/94 184/121/119 183/97/95
f 183/97/95 184/121/119 42/98/96
f 182/96/94 31/72/70 164/516/458
f 182/96/94 164/516/458 180/94/92
f 180/94/92 164/516/458 29/92/90
f 179/93/91 40/115/113 181/117/115
f 179/93/91 181/117/115 180/94/92
f 180/94/92 181/117/115 41/95/93
f 178/91/89 38/510/85 174/517/87
f 178/91/89 174/517/87 177/90/88
f 177/90/88 174/517/87 39/518/417
f 177/90/88 39/518/417 396/519/416
f 177/90/88 396/519/416 384/5/5
f 384/5/5 396/519/416 27/520/65
f 173/88/86 38/87/85 176/521/108
f 173/88/86 176/521/108 169/82/80
f 169/82/80 176/521/108 37/522/107
f 173/88/86 36/81/79 175/444/418
f 173/88/86 175/444/418 174/89/87
f 174/89/87 175/444/418 39/443/417
f 171/85/83 37/109/107 172/514/456
f 171/85/83 172/514/456 168/86/84
f 168/86/84 172/514/456 35/513/375
f 169/82/80 37/522/107 171/523/83
f 169/82/80 171/523/83 170/83/81
f 170/83/81 171/523/83 34/441/82
f 167/80/78 2/6/6 382/2/2
f 167/80/78 382/2/2 395/79/77
f 395/79/77 382/2/2 28/1/1
f 394/78/76 33/524/360 166/77/75
f 394/78/76 166/77/75 395/79/77
f 395/79/77 166/77/75 32/76/74
f 166/77/75 33/524/360 393/525/420
f 166/77/75 393/525/420 392/75/73
f 392/75/73 393/525/420 112/74/72
f 390/73/71 31/72/70 165/515/457
f 390/73/71 165/515/457 392/75/73
f 392/75/73 165/515/457 32/76/74
f 390/73/71 112/74/72 391/526/422
f 390/73/71 391/526/422 163/71/69
f 163/71/69 391/526/422 30/69/67
f 162/70/68 29/92/90 164/516/458
f 162/70/68 164/516/458 163/71/69
f 163/71/69 164/516/458 31/72/70
f 161/68/66 26/386/371 156/64/62
f 161/68/66 156/64/62 159/66/64
f 159/66/64 156/64/62 25/63/61
f 158/65/63 28/377/1 160/527/459
f 158/65/63 160/527/459 159/66/64
f 159/66/64 160/527/459 27/67/65
f 156/64/62 26/386/371 157/365/352
f 156/64/62 157/365/352 154/62/60
f 154/62/60 157/365/352 24/61/59
f 152/60/58 23/59/57 155/451/424
f 152/60/58 155/451/424 154/62/60
f 154/62/60 155/451/424 25/63/61
f 152/60/58 24/61/59 153/344/331
f 152/60/58 153/344/331 150/58/56
f 150/58/56 153/344/331 21/56/54
f 22/311/298 446/528/460 148/57/55
f 148/57/55 151/529/461 150/58/56
f 151/529/461 447/530/462 150/58/56
f 144/55/53 20/460/432 149/312/299
f 144/55/53 149/312/299 146/53/51
f 146/53/51 149/312/299 22/311/298
f 146/53/51 22/311/298 148/57/55
f 146/53/51 148/57/55 147/54/52
f 147/54/52 148/57/55 21/56/54
f 140/51/49 18/286/275 145/288/277
f 140/51/49 145/288/277 142/49/47
f 142/49/47 145/288/277 20/473/432
f 142/49/47 20/473/432 144/531/53
f 142/49/47 144/531/53 143/50/48
f 143/50/48 144/531/53 19/466/50
f 136/47/45 16/262/253 141/264/255
f 136/47/45 141/264/255 138/45/43
f 138/45/43 141/264/255 18/286/275
f 138/45/43 18/286/275 140/51/49
f 138/45/43 140/51/49 139/46/44
f 139/46/44 140/51/49 17/48/46
f 131/43/36 14/236/37 137/238/231
f 131/43/36 137/238/231 134/41/40
f 134/41/40 137/238/231 16/262/253
f 134/41/40 16/262/253 136/47/45
f 134/41/40 136/47/45 135/42/41
f 135/42/41 136/47/45 15/44/42
f 132/38/38 11/28/28 127/30/30
f 132/38/38 127/30/30 133/39/39
f 133/39/39 127/30/30 12/31/31
f 130/35/35 11/28/28 132/38/38
f 130/35/35 132/38/38 131/36/36
f 131/36/36 132/38/38 14/37/37
f 128/32/32 9/22/22 123/24/24
f 128/32/32 123/24/24 129/33/33
f 129/33/33 123/24/24 10/25/25
f 126/29/29 9/22/22 128/32/32
f 126/29/29 128/32/32 127/30/30
f 127/30/30 128/32/32 12/31/31
f 124/26/26 6/16/16 120/18/18
f 124/26/26 120/18/18 125/27/27
f 125/27/27 120/18/18 7/19/19
f 122/23/23 6/16/16 124/26/26
f 122/23/23 124/26/26 123/24/24
f 123/24/24 124/26/26 10/25/25
f 389/20/20 5/162/158 387/532/15
f 389/20/20 387/532/15 121/21/21
f 121/21/21 387/532/15 8/496/12
f 388/17/17 5/162/158 389/20/20
f 388/17/17 389/20/20 120/18/18
f 120/18/18 389/20/20 7/19/19
f 387/15/15 5/502/158 119/136/134
f 387/15/15 119/136/134 385/13/13
f 385/13/13 119/136/134 4/111/109
f 385/13/13 4/111/109 117/10/10
f 385/13/13 117/10/10 386/14/14
f 386/14/14 117/10/10 3/9/9
f 117/10/10 4/111/109 118/113/111
f 117/10/10 118/113/111 116/11/11
f 116/11/11 118/113/111 1/4/4
f 115/7/7 3/9/9 116/11/11
f 115/7/7 116/11/11 114/8/8
f 114/8/8 116/11/11 1/4/4
f 384/5/5 27/520/65 160/533/459
f 384/5/5 160/533/459 383/3/3
f 383/3/3 160/533/459 28/1/1
f 382/2/2 2/6/6 114/8/8
f 382/2/2 114/8/8 383/3/3
f 383/3/3 114/8/8 1/4/4
f 331/308/295 445/462/434 333/463/435
f 148/57/55 446/528/460 151/529/461
f 150/58/56 447/530/462 23/59/57
f 449/534/463 348/331/318 448/335/322
f 96/307/294 348/331/318 449/534/463
f 423/392/376 452/402/385 450/436/411
f 453/512/455 454/535/464 189/103/101
f 189/103/101 454/535/464 35/513/375
f 423/392/376 455/437/412 431/438/413
f 457/536/465 428/398/381 456/440/415
f 430/435/410 428/398/381 457/536/465
f 433/401/384 458/400/383 188/406/387
f 437/408/389 460/433/408 459/424/403
f 436/413/392 205/144/142 465/428/406
f 217/168/164 464/426/405 438/418/397
f 461/425/404 467/537/466 437/408/389
f 439/414/393 463/422/401 443/423/402
f 181/117/115 462/538/467 397/508/407
f 181/117/115 466/116/114 462/538/467
f 437/408/389 467/537/466 40/427/113
f 421/334/321 350/355/342 468/455/428
