# Blender 4.4.3
# www.blender.org
mtllib cave_map_large.mtl
o cave_map_large.003
v 0.000237 -0.757174 -3.821441
v -2.760368 -1.391860 0.998756
v 1.858261 -1.391725 1.737274
v 3.999355 -0.757039 -1.616592
v 14.739006 -2.198295 2.008751
v 14.852760 0.303083 2.246017
v 9.704590 1.475528 6.808319
v 8.882668 -1.090014 5.379455
v 14.907600 2.228398 2.165642
v 10.946030 2.717850 6.975112
v 11.965988 4.747665 0.989441
v 7.599060 5.879924 5.875717
v 8.928505 8.323975 0.165908
v 5.206985 9.201300 4.921988
v 3.999905 9.200151 -1.618417
v 1.040569 8.926561 2.717200
v 0.000626 7.502900 -3.822953
v -2.759960 7.177961 0.997191
v -5.384666 8.324876 -6.354980
v -8.575581 7.461793 -1.711724
v -8.532177 5.265337 -7.709838
v -11.501999 1.056468 -3.539589
v -9.822857 1.677504 -8.197043
v -11.494293 -0.813817 -3.610641
v -8.633224 -0.205888 -7.609863
v -6.117294 -1.708946 -6.432334
v -8.826962 -1.817973 -1.015671
v -3.560558 -1.328926 9.915847
v -5.157711 -0.851412 8.762870
v -6.416519 -1.377022 7.001403
v -3.812218 -1.393396 4.297241
v -9.768417 -1.676045 2.341812
v 4.443230 -0.683707 -14.300910
v 6.074730 -0.420720 -13.643172
v 2.073673 -0.489542 -13.056304
v 5.088394 -0.416826 -11.771857
v 2.303280 -0.369766 -7.905799
v -2.916466 -1.441157 -10.138030
v -2.136223 -1.328724 12.568122
v -0.781712 -1.376901 9.188415
v -0.011765 -1.222287 6.017532
v 7.451767 -1.246564 -13.011558
v 8.481224 -1.280200 -10.088317
v 5.564087 -0.369644 -5.888450
v 3.743431 -0.817444 10.624076
v 9.584381 -1.681566 -9.340362
v 13.146172 -2.460075 -4.938453
v -0.361000 0.647048 12.703422
v -0.057655 -1.192767 12.082107
v 4.360928 1.890888 12.169868
v 7.105835 1.734428 10.590995
v 5.066483 0.985874 8.697013
v 8.158104 -1.246031 -12.698333
v 8.363564 -0.443290 -12.619849
v 10.348251 -0.406457 -9.173591
v 14.025726 -0.560143 -3.812111
v -0.755836 3.092374 14.127608
v 2.899845 3.766353 15.332946
v 7.489502 4.223738 10.764167
v 8.368988 0.660724 -12.689727
v 10.939148 0.774173 -9.038032
v 14.747444 1.653636 -4.494651
v 1.519394 6.003890 13.861632
v 4.943794 6.712946 9.611311
v 8.956551 1.742480 -12.446189
v 11.863815 2.404077 -8.766875
v 11.992775 4.024892 -4.072464
v -2.056473 5.012436 15.913924
v 0.919373 8.240075 13.589561
v 2.971001 9.202173 8.717779
v 8.767418 2.925672 -12.548659
v 11.424011 4.090321 -8.952826
v 11.142799 7.602723 -4.317399
v -3.757732 4.508770 15.142692
v -2.479900 8.281661 12.050817
v -0.829464 8.927434 6.997505
v 7.472015 2.738537 -13.120177
v 8.952415 5.396402 -9.996238
v 5.621628 8.277899 -5.873497
v -5.866154 8.281541 10.517981
v -4.629993 7.178833 5.277488
v 5.952644 3.562538 -13.752646
v 5.289230 5.806643 -11.682319
v 2.340214 8.277778 -7.890853
v -9.491356 8.017621 8.891020
v -10.417183 7.967994 2.581908
v 4.640564 3.795812 -14.331000
v 0.674675 6.099781 -13.844512
v -2.129242 7.457034 -10.012505
v -8.729809 4.577694 10.768577
v -10.383923 6.119597 8.470489
v -13.132450 4.734467 1.427399
v 3.505623 2.620098 -14.830993
v 0.463840 4.335850 -13.901267
v -5.566071 4.030157 -11.482940
v -6.856632 3.386089 12.669143
v -10.686035 3.793211 8.402579
v -11.339119 2.661569 2.311332
v 3.138680 1.518019 -14.992507
v 0.491425 2.630036 -13.850257
v -5.673233 1.703770 -11.472884
v -5.743229 0.646467 9.331580
v -9.440979 1.772480 8.999999
v -12.293938 0.423562 2.508629
v 4.240768 1.018400 -14.286994
v 1.174629 1.075319 -13.502761
v -4.437725 0.467604 -10.865157
v -8.404068 -1.040089 5.532592
v -11.983528 4.310677 -3.563408
v -1.380066 -1.074517 -1.411346
v -0.041962 -1.391792 0.877106
v 0.520161 -1.074450 -0.551178
v 2.420383 -1.074382 0.308990
v 1.900459 -0.757106 -2.961273
v 7.776939 -1.333546 -0.071487
v 13.048111 -0.286587 4.345809
v 8.912247 0.263561 6.990997
v 14.895370 0.933934 1.962852
v 13.839996 2.172513 4.494728
v 13.444054 0.942963 4.420272
v 10.442741 1.557681 6.891723
v 13.990845 3.407446 1.502167
v 10.483917 5.387428 3.436737
v 11.815132 3.512732 3.981994
v 10.096588 4.196745 6.424560
v 10.414581 6.066239 0.591545
v 6.392532 9.200794 2.511954
v 8.263786 7.101950 3.020813
v 5.778908 7.956686 5.368759
v 4.603432 9.063424 1.651809
v 5.582535 9.200218 -0.758256
v 2.420864 9.063356 0.307136
v 3.001213 9.063931 4.061851
v 0.520596 8.189056 -0.552873
v 1.900890 8.351526 -2.962945
v -1.379665 7.340431 -1.412873
v -0.859692 8.052261 1.857200
v -3.279854 8.163846 -2.273194
v -1.899570 8.163340 -4.683242
v -6.887424 8.285618 -3.989220
v -4.660149 8.001377 0.136870
v -8.776794 5.925495 -5.003335
v -7.051121 6.402824 -7.076545
v -10.257851 4.788008 -5.636628
v -10.279552 5.886236 -2.637558
v -10.556549 3.566643 -5.963790
v -11.201889 1.772727 -6.207397
v -9.177517 3.471420 -7.953437
v -10.730797 0.519241 -5.537689
v -11.516930 0.400507 -3.512375
v -10.135983 -0.266697 -5.244094
v -9.228043 0.558499 -7.903457
v -11.690506 -1.420759 -3.046493
v -8.970715 -1.566266 -4.699462
v -6.404675 -1.371177 -3.523910
v -7.467960 -1.527007 -7.065223
v -4.931549 -1.090187 9.084785
v -5.634747 -1.114110 8.026809
v -4.211754 -1.352911 8.907119
v -4.046345 -1.428913 5.621238
v -8.051838 -1.074410 2.969139
v -2.877201 -1.392628 2.157089
v 5.601616 -0.728822 -14.210235
v 3.148655 -0.575407 -12.649871
v 2.990009 -0.710344 -13.872787
v 4.929756 -0.551763 -12.994773
v 5.581558 -0.418773 -12.707511
v 1.756096 -0.551877 -10.716849
v -0.220711 -0.552089 -9.048285
v -0.042217 -0.751470 -11.445708
v 3.877651 -0.393296 -9.354316
v -1.372238 -0.745794 -7.006103
v 1.151756 -0.563469 -5.863616
v -2.719959 -1.328848 10.495673
v -2.525433 -1.352850 9.687507
v -1.458969 -1.352812 10.181029
v -2.468033 -1.376962 8.408034
v -1.960773 -1.343359 6.579055
v -0.274452 -1.343298 7.359436
v -1.911991 -1.307842 5.157394
v -0.976974 -1.307074 3.017235
v 0.923252 -1.114177 3.877403
v 6.802544 -1.223344 -13.299819
v 6.913132 -1.225675 -12.081458
v 7.024277 -1.228108 -10.661017
v 7.562355 -1.248895 -11.793197
v 7.367050 -1.217522 -7.960708
v 5.843018 -0.393236 -8.587905
v 4.226551 -0.369705 -6.654876
v 3.130268 -0.563402 -4.518943
v 5.095634 -0.563342 -3.752517
v 1.480858 -1.097172 10.536422
v 3.681530 -1.135641 9.381827
v 9.511658 -1.304298 -9.683455
v 9.386833 -1.449153 -5.299095
v 8.502365 -1.245362 -7.555572
v 11.848129 -2.552577 -7.098686
v 7.904236 -1.590716 -3.166893
v 14.714249 -2.135680 -0.320587
v -0.568230 -0.101961 13.259551
v 1.590870 2.030240 12.013404
v 6.420769 1.311463 10.281096
v 5.726723 1.921386 12.054770
v 5.566475 1.549223 10.363173
v 8.139816 2.125547 8.511397
v 7.173683 0.806430 8.252723
v 8.260834 -0.844660 -12.659087
v 10.158699 -0.202531 -10.617805
v 12.795967 -0.755854 -6.900611
v 14.780640 -0.566637 -0.444633
v -0.255596 2.933692 13.404021
v 2.724480 2.645663 15.253798
v 0.707821 2.971156 15.753257
v 0.532455 2.770345 14.490790
v 7.297668 2.979083 10.677588
v 5.194672 3.995045 13.048560
v 5.002838 2.750390 12.961974
v 8.611549 3.352631 8.686240
v 8.375679 2.957438 8.598815
v 8.366272 0.108717 -12.654784
v 10.158669 0.349573 -10.652740
v 10.683411 0.383965 -9.119529
v 10.332848 1.190093 -10.596061
v 13.054993 0.080552 -6.852455
v 14.386589 0.546746 -3.844314
v 13.415848 1.187443 -6.784362
v 14.847618 0.575112 -0.115417
v 14.368301 2.017203 -1.101631
v -1.018433 3.433273 15.551192
v 0.609596 3.681510 15.880240
v -0.080631 4.800279 14.972976
v 2.209618 4.885121 14.597289
v 6.216652 5.468342 10.187736
v 3.231594 6.358418 11.736471
v 4.504444 5.113814 12.312896
v 6.411621 6.712510 7.955665
v 8.121094 4.615547 8.593352
v 8.662766 1.201602 -12.567954
v 10.276657 1.300689 -10.533278
v 11.401482 1.589125 -8.902450
v 10.590080 1.575297 -10.360946
v 14.016472 1.996004 -6.653137
v 12.639137 3.181632 -6.442039
v 13.370110 2.839264 -4.283554
v 14.004242 3.046060 -1.028778
v 11.979370 4.386279 -1.541504
v -1.868565 4.304552 15.999145
v -0.268543 5.508163 14.887778
v 1.219383 7.121983 13.725599
v -0.568550 7.001476 15.463606
v 3.957397 7.957559 9.164541
v 1.945187 8.721124 11.153677
v 2.931583 7.476511 11.600431
v 4.121620 9.201737 7.062149
v 5.266624 7.957123 7.508894
v 8.861984 2.334076 -12.497428
v 10.484406 2.169362 -10.408637
v 11.643913 3.247198 -8.859847
v 10.786621 3.495174 -10.531730
v 12.327179 4.029007 -6.532119
v 11.567787 5.165122 -4.194939
v 11.902199 5.169237 -6.654603
v 11.554390 5.526508 -1.663986
v 10.103325 7.800427 -2.049607
v -3.258278 5.116214 15.439765
v -0.780262 8.260869 12.820196
v -2.268185 6.690519 15.231977
v -3.316216 6.987393 15.405302
v 1.070770 9.064803 7.857635
v 0.044956 8.583755 10.293524
v -1.654678 8.604549 9.524153
v 2.005787 9.064366 5.717491
v 0.105556 8.926997 4.857353
v 8.119713 2.832104 -12.834418
v 7.791946 4.082532 -11.801513
v 8.439644 4.176099 -11.515754
v 10.358208 5.233670 -9.442069
v 7.778183 6.441038 -7.905869
v 9.466095 6.268239 -7.351006
v 8.634659 7.947783 -5.041061
v 5.117348 8.739025 -3.745957
v 7.147034 7.906064 -2.917130
v -4.418205 4.629083 14.749846
v -4.424416 6.719511 14.746161
v -4.173027 8.281601 11.284399
v -6.068211 6.856628 13.511808
v -3.347805 8.604487 8.757742
v -2.729729 8.053133 6.137488
v -5.248077 7.730186 7.897727
v -1.794716 8.052697 3.997344
v -3.694977 7.178397 3.137336
v 6.822792 2.761757 -13.408431
v 7.142723 4.105752 -12.089767
v 7.495476 5.448493 -10.568938
v 5.620934 4.917447 -12.717483
v 5.981010 7.275127 -8.535652
v 4.269424 8.277837 -6.639915
v 4.015652 7.275067 -9.302071
v 3.151978 8.738965 -4.512383
v 1.170425 7.890338 -5.856904
v -6.270275 5.203756 14.006454
v -7.173626 6.937322 13.011450
v -7.552776 8.260627 9.754507
v -8.437077 6.701419 12.247984
v -6.934700 7.709273 7.134262
v -6.530170 8.190299 4.417129
v -10.019905 8.661137 5.668457
v -5.595158 8.189863 2.276992
v -9.496380 7.714894 0.435088
v 5.296600 3.679175 -14.041823
v 4.964893 5.034084 -13.006660
v 3.281700 6.159886 -12.591033
v 2.957371 4.921614 -13.915374
v 1.807194 7.162596 -10.695297
v 0.549568 7.891374 -8.701332
v -0.727280 6.778408 -11.928513
v -0.620228 7.503933 -6.667388
v -3.542427 8.061393 -8.099968
v -7.878849 5.012115 12.651565
v -9.426022 5.936788 10.831260
v -9.929981 6.899507 8.698698
v -11.465454 6.259809 5.041907
v -11.948360 5.034750 4.865820
v -11.677341 6.351231 2.043632
v -11.200356 6.139336 -0.490753
v 4.073093 3.207955 -14.581000
v 2.153763 3.502638 -14.272086
v 2.721233 4.090495 -14.022094
v 0.569256 5.217815 -13.872893
v -1.939339 4.826078 -12.438994
v -1.833916 5.708044 -12.410628
v -3.235870 6.386670 -10.494621
v -5.382668 6.569799 -8.874825
v -7.049126 4.647747 -9.596389
v -7.603638 3.959374 12.035331
v -9.975674 4.656415 9.004317
v -10.484985 3.323139 9.166717
v -10.437504 4.956405 8.475524
v -10.856743 3.998302 5.385765
v -11.105278 2.835109 5.312828
v -12.235783 3.698018 1.869362
v -12.460510 4.522573 -1.029014
v -11.817345 1.145807 -2.605430
v 3.322151 2.069059 -14.911750
v 1.831863 2.117588 -14.415343
v 2.015335 2.668627 -14.334586
v 0.477631 3.482943 -13.875762
v -1.895657 2.832001 -12.374152
v -1.909454 3.684908 -12.399650
v -5.619652 2.866963 -11.477920
v -7.694462 2.853830 -9.839995
v -7.748047 1.690637 -9.834960
v -7.063175 2.704925 10.905738
v -8.666782 3.055636 10.157546
v -8.918446 0.819627 8.096007
v -10.160984 2.782846 8.662299
v -11.169193 2.500669 5.694686
v -12.129860 1.555980 5.476242
v -12.701168 1.542565 2.604927
v -11.996517 0.401020 -2.095169
v -11.942841 -1.300235 -2.297745
v 3.398434 0.966285 -14.850478
v 2.221100 0.719651 -14.214515
v 1.961342 1.271386 -14.356551
v 0.833031 1.852677 -13.676513
v -4.962780 1.477969 -11.124885
v -1.449436 1.800836 -12.146834
v -1.107834 1.023477 -11.973083
v -7.153229 0.571633 -9.541373
v -6.628174 -0.438732 -9.281646
v -7.293713 -0.307857 8.126403
v -8.396935 0.087393 5.686027
v -9.742268 -1.885034 -0.235344
v -5.277504 -0.620671 -8.648742
v -4.660580 -1.074078 0.138542
v -3.280273 -0.756735 -2.271553
v -2.735878 -0.757272 -5.059982
v 5.585373 -0.491710 2.279403
v 5.953621 -0.809054 4.689491
v 11.157303 -1.651284 3.762207
v 14.777443 -1.438377 2.488373
v 11.853737 -1.214294 4.073112
v -8.097820 -1.097510 6.223297
v -7.467896 -1.056750 7.131454
v -7.796825 -1.149401 4.298881
v -8.811871 -1.097574 3.932647
v -8.888599 -1.747009 0.172165
v -4.972363 -1.074846 1.218887
v -4.516880 -1.575052 -8.285178
v -1.046753 -1.089847 11.677794
v -0.369492 -1.113936 10.685180
v 1.893078 -0.834207 11.136092
v 3.739384 -1.065009 7.503456
v 4.338367 -0.808617 5.847824
v 7.804932 -1.246297 -12.854949
v 7.915535 -1.248629 -11.636588
v 9.792747 -1.303075 -10.745093
v 4.052181 1.616028 10.980163
v 1.282127 -0.085198 11.725852
v 9.909691 -0.902211 -10.705817
v 9.966316 -1.044012 -9.256972
v 13.889969 -1.663668 -4.118568
v 12.212112 -1.859376 -7.022674
v -6.412170 0.288425 8.908835
v -10.574986 0.401798 4.460380
v -11.440273 -0.284174 2.916130
v 4.240364 -0.196300 -14.308333
v 1.624153 0.292888 -13.279532
v 2.433548 -0.159719 -14.118171
v -3.677097 -0.486777 -10.501594
v -0.491741 0.030961 -11.668929
v -12.241894 2.912368 -3.232307
v -12.413696 3.550331 -0.400757
v 5.784012 0.408383 -14.175864
v 3.581902 1.517324 -14.769721
v 4.729126 3.091318 -14.291823
v 8.214287 2.240508 -12.783179
v 4.767498 1.762714 -14.232314
v 7.271286 1.722850 -13.193213
v 7.920502 1.699630 -12.904952
v 7.261154 -0.269700 -13.138900
v 6.013687 2.272490 -13.697906
v 7.907661 -0.844927 -12.815703
v 7.910370 -0.292920 -12.850638
v -5.006195 -0.341166 10.269416
v -4.757908 0.233137 11.138274
v -0.839520 -0.340838 14.141906
v -4.049583 0.379618 12.846602
v -1.888351 3.736867 13.685676
v -2.350582 4.089165 14.854774
v -2.904690 4.400250 15.530097
v -4.388172 4.821067 13.316504
v -2.654667 3.837105 13.660316
v 14.714241 -2.308357 0.338478
v 14.816017 -0.567673 2.463562
v 14.878281 1.112972 0.150436
v 14.745293 0.069604 -0.228012
v 14.740540 -1.437295 -0.291954
v 14.898903 1.161188 1.038025
v 14.720657 -2.308668 1.330711
v 4.436718 1.406412 -14.264655
v 5.727058 1.672024 -14.158134
v 5.793869 -0.198983 -14.185744
v 4.766628 -0.804559 -14.277480
v 5.212158 -0.805329 -14.242332
v 5.213089 1.919032 -14.194381
v 5.696953 1.015884 -14.172065
v 4.294857 0.410956 -14.293365
v -11.492893 -0.206669 -3.599083
v -11.561661 -1.343741 -3.425239
v -11.669392 1.302685 -3.038604
v -11.837254 -1.420601 -2.612839
v -12.005936 -0.813271 -2.098709
v -11.929012 0.789171 -2.284645
v -11.983349 -0.206145 -2.149765
v -3.423260 4.585961 15.341636
v -4.592598 5.116214 14.646140
v -4.592598 6.331101 14.646139
v -3.266926 5.723657 15.434600
v -3.341873 6.331101 15.390028
v -4.140411 7.076439 14.915083
v -3.757732 7.233552 15.142675
v -4.140415 4.508770 14.915084
v -4.545967 5.723657 14.673850
vn -0.0712 0.9958 0.0577
vn -0.0423 0.9981 0.0456
vn -0.0484 0.9966 0.0669
vn -0.0259 0.9972 0.0696
vn -0.1159 0.9915 -0.0587
vn 0.0650 0.9956 0.0673
vn -0.0346 0.9971 0.0682
vn 0.0236 0.9878 0.1539
vn -0.0807 0.9964 0.0274
vn -0.1352 0.9845 0.1113
vn -0.0654 0.9874 0.1444
vn -0.0004 0.9228 -0.3854
vn -0.0178 0.9996 0.0226
vn -0.0442 0.9926 -0.1134
vn -0.0102 0.9395 -0.3423
vn -0.8101 -0.0948 -0.5786
vn -0.7321 -0.0627 -0.6783
vn -0.5156 0.4272 -0.7428
vn -0.3562 0.5695 -0.7408
vn -0.2688 0.6722 -0.6899
vn -0.4290 0.5524 -0.7147
vn -0.9179 -0.3452 -0.1955
vn -0.9629 -0.0453 -0.2660
vn -0.7786 -0.2960 -0.5533
vn -0.6457 -0.1260 -0.7531
vn -0.7082 0.2533 -0.6591
vn -0.3053 0.5796 -0.7555
vn -0.6091 -0.7912 -0.0544
vn -0.6703 -0.7296 -0.1355
vn -0.5955 -0.7110 -0.3740
vn -0.6120 -0.7447 -0.2663
vn -0.5721 -0.7460 -0.3409
vn -0.6073 -0.7234 -0.3284
vn -0.5400 -0.8116 -0.2229
vn -0.6805 -0.6883 -0.2512
vn -0.3371 -0.9391 -0.0663
vn -0.3909 -0.8913 -0.2296
vn -0.6207 -0.7248 -0.2990
vn -0.7013 -0.6090 -0.3706
vn -0.0074 -0.9999 0.0156
vn -0.1518 -0.9825 0.1082
vn 0.0404 -0.9931 0.1102
vn 0.3455 -0.9267 0.1477
vn 0.3472 -0.9338 0.0865
vn 0.1962 -0.9776 0.0760
vn 0.0936 -0.9956 0.0100
vn -0.1249 -0.9826 -0.1377
vn -0.2090 -0.9779 0.0039
vn 0.0294 -0.9983 -0.0505
vn 0.2913 -0.9203 0.2613
vn 0.5778 -0.7499 0.3222
vn 0.5541 -0.7252 0.4087
vn 0.3543 -0.9309 0.0890
vn 0.6012 -0.6236 0.4998
vn 0.6972 -0.5876 0.4107
vn 0.8357 -0.2949 0.4633
vn 0.9712 0.0813 0.2238
vn 0.9273 0.0255 0.3734
vn 0.7508 0.1077 0.6517
vn 0.7252 0.5234 0.4474
vn 0.6365 0.3204 0.7015
vn 0.5525 0.6569 0.5131
vn 0.3357 0.7655 0.5489
vn 0.2569 0.9497 0.1790
vn -0.0504 0.9950 0.0865
vn 0.2746 0.8903 0.3633
vn 0.7628 0.5178 -0.3872
vn 0.5073 0.8029 -0.3130
vn 0.3723 0.7934 -0.4816
vn 0.2113 0.9596 -0.1857
vn 0.8644 0.2233 -0.4506
vn 0.7354 0.6363 -0.2332
vn 0.0685 0.9976 0.0072
vn 0.0184 0.9994 0.0292
vn -0.0981 0.9922 -0.0769
vn -0.0520 0.9868 -0.1532
vn 0.0076 1.0000 -0.0012
vn 0.0391 0.9991 0.0136
vn 0.3687 0.8785 0.3038
vn 0.0089 0.9980 -0.0622
vn 0.1913 0.8865 0.4214
vn -0.0835 0.9727 -0.2166
vn -0.0621 0.9883 -0.1392
vn -0.4502 0.8929 -0.0064
vn -0.0444 0.9990 0.0067
vn -0.0558 0.9977 -0.0378
vn -0.1633 0.9855 -0.0462
vn -0.1460 0.9886 -0.0373
vn -0.0684 0.9960 0.0579
vn 0.2289 0.9266 -0.2984
vn 0.2196 0.9641 -0.1491
vn 0.0117 0.9997 -0.0231
vn -0.0578 0.9974 -0.0428
vn 0.0005 1.0000 -0.0008
vn -0.0290 0.9994 0.0201
vn -0.0605 0.9975 0.0360
vn -0.0455 0.9990 0.0029
vn -0.0510 0.9977 -0.0454
vn -0.0484 0.9984 -0.0304
vn 0.0272 0.9996 -0.0004
vn 0.3093 0.9510 0.0007
vn 0.2545 0.9666 -0.0293
vn 0.0187 0.9998 0.0026
vn 0.1377 0.9894 0.0470
vn 0.2297 0.9683 -0.0986
vn 0.2682 0.9631 -0.0243
vn 0.1038 0.9945 -0.0119
vn -0.0181 0.9995 -0.0270
vn 0.0269 0.9986 0.0450
vn -0.0427 0.9962 0.0759
vn -0.0506 0.9945 0.0918
vn 0.1367 0.9791 0.1504
vn 0.1811 0.8554 -0.4852
vn -0.1466 0.9722 -0.1827
vn -0.0750 0.9951 -0.0639
vn -0.1080 0.8988 -0.4248
vn -0.2354 0.7646 -0.5999
vn -0.0787 0.9927 -0.0911
vn -0.0523 0.9980 0.0352
vn -0.4848 0.8708 -0.0822
vn -0.5564 0.6235 -0.5493
vn -0.4038 0.8385 -0.3660
vn -0.2265 0.9618 -0.1539
vn -0.4498 0.8928 -0.0241
vn -0.2722 0.8163 -0.5094
vn 0.5464 0.8202 0.1695
vn 0.0052 0.9999 0.0132
vn -0.4141 0.6814 0.6035
vn -0.2854 0.7112 0.6424
vn 0.2845 0.9559 0.0730
vn 0.2448 0.9684 -0.0478
vn 0.1310 0.8694 0.4764
vn 0.1767 0.9798 -0.0934
vn 0.2118 0.9736 0.0850
vn -0.4518 0.8626 0.2277
vn 0.0025 0.9717 -0.2361
vn -0.3156 0.7766 -0.5453
vn -0.2107 0.6715 -0.7105
vn -0.7579 0.0129 -0.6523
vn -0.4966 0.1384 -0.8569
vn -0.8461 0.3054 -0.4368
vn -0.6771 0.5353 -0.5049
vn -0.0983 0.9342 -0.3429
vn -0.4549 0.6792 -0.5759
vn 0.0917 0.9539 -0.2858
vn -0.7233 0.3809 -0.5760
vn -0.6184 0.0770 0.7821
vn -0.5972 0.0755 0.7985
vn -0.8940 0.2699 0.3576
vn -0.7977 0.3987 0.4524
vn -0.9128 0.2644 0.3113
vn -0.7332 0.3167 0.6017
vn -0.7942 0.3333 0.5081
vn -0.9429 0.1775 0.2817
vn -0.9749 0.0533 0.2163
vn -0.4743 -0.2605 -0.8409
vn -0.2827 0.6560 -0.6998
vn 0.0653 0.6728 -0.7369
vn 0.3884 0.9206 -0.0403
vn 0.2221 0.9610 -0.1648
vn -0.0550 0.7626 -0.6446
vn -0.7978 -0.3619 -0.4823
vn -0.8022 0.1707 -0.5721
vn -0.6620 -0.2842 -0.6935
vn -0.7052 0.1506 -0.6928
vn -0.6718 0.0616 -0.7381
vn -0.6527 0.3856 -0.6522
vn -0.5600 0.0711 0.8255
vn -0.6036 0.0532 0.7955
vn -0.8671 0.1126 0.4852
vn -0.7798 0.3119 0.5428
vn -0.7397 0.3238 0.5899
vn -0.8054 0.2280 0.5471
vn -0.9102 0.3394 0.2374
vn -0.9623 -0.1757 0.2075
vn -0.9894 -0.0165 0.1445
vn 0.2276 0.6380 -0.7356
vn -0.2472 -0.3980 -0.8835
vn -0.0056 -0.2384 -0.9711
vn -0.5799 -0.6560 -0.4831
vn -0.5616 -0.7233 -0.4018
vn -0.6238 -0.5145 -0.5884
vn -0.4794 -0.4550 -0.7504
vn -0.4833 -0.6955 -0.5317
vn -0.3158 -0.6575 -0.6840
vn -0.6348 -0.6953 -0.3371
vn -0.6564 -0.5007 -0.5643
vn -0.6534 0.0799 0.7528
vn -0.5960 0.1385 0.7909
vn -0.8507 -0.0216 0.5252
vn -0.7405 0.3343 0.5830
vn -0.8719 -0.1766 0.4568
vn -0.7618 0.3446 0.5486
vn -0.7998 -0.0276 0.5997
vn -0.7866 -0.5816 0.2076
vn -0.7832 -0.6019 0.1558
vn -0.8231 -0.5670 0.0327
vn -0.6593 -0.7448 0.1027
vn 0.0149 0.2290 -0.9733
vn -0.3435 -0.7706 -0.5369
vn -0.6728 -0.2231 -0.7054
vn -0.2534 -0.4446 -0.8592
vn -0.2640 -0.9329 -0.2452
vn -0.6162 -0.6533 -0.4399
vn -0.2841 -0.9108 -0.2995
vn -0.7032 -0.4748 -0.5291
vn -0.3528 -0.9181 -0.1805
vn -0.6515 -0.6942 -0.3059
vn -0.5028 -0.3248 0.8011
vn -0.6169 -0.0311 0.7864
vn -0.7859 0.0315 0.6176
vn -0.8823 -0.1430 0.4485
vn -0.8207 -0.4259 0.3810
vn -0.9375 -0.3297 0.1112
vn -0.9622 -0.2677 -0.0501
vn -0.6438 -0.7491 0.1562
vn -0.8844 -0.4577 -0.0911
vn 0.1012 -0.9612 -0.2565
vn 0.1194 -0.9517 -0.2828
vn 0.0363 -0.6053 -0.7951
vn 0.0297 -0.1603 -0.9866
vn 0.2798 -0.0825 -0.9565
vn 0.1840 -0.9817 0.0482
vn 0.0952 -0.9939 -0.0552
vn 0.0865 -0.9883 -0.1260
vn 0.0544 -0.9981 0.0280
vn 0.0519 -0.9982 0.0305
vn -0.3776 -0.3120 0.8718
vn -0.3372 -0.3433 0.8766
vn -0.2791 -0.6572 0.7001
vn -0.7503 -0.1818 0.6356
vn -0.2985 -0.6750 0.6747
vn -0.2661 -0.8179 0.5102
vn -0.5567 -0.7349 0.3873
vn -0.3266 -0.8626 0.3864
vn -0.8002 -0.5447 0.2511
vn -0.3766 -0.8350 0.4012
vn -0.1955 -0.9415 0.2744
vn -0.2389 -0.9395 0.2455
vn -0.1992 -0.9763 0.0847
vn -0.5213 -0.8485 -0.0912
vn -0.2202 -0.9704 0.0990
vn 0.5375 -0.7166 -0.4445
vn 0.1212 -0.9582 -0.2592
vn -0.2776 -0.6460 -0.7111
vn 0.0688 -0.9531 -0.2947
vn 0.1808 -0.9804 0.0788
vn 0.3287 -0.9208 0.2098
vn 0.0448 -0.9927 -0.1122
vn 0.2089 -0.9742 0.0854
vn 0.3542 -0.9222 0.1549
vn 0.3550 -0.9222 0.1532
vn 0.2088 -0.9736 0.0925
vn -0.4967 -0.3331 0.8015
vn -0.4392 -0.1954 0.8769
vn -0.4568 -0.5951 0.6612
vn -0.3498 -0.7733 0.5288
vn -0.3451 -0.8093 0.4753
vn -0.3278 -0.8732 0.3607
vn -0.1422 -0.9558 0.2575
vn 0.0151 -0.9769 0.2133
vn 0.1485 -0.9824 0.1130
vn 0.1245 -0.9808 -0.1501
vn 0.4174 -0.5903 -0.6909
vn 0.1287 -0.9856 -0.1098
vn 0.6774 0.2840 -0.6786
vn 0.4274 0.2638 -0.8647
vn -0.0215 -0.9991 0.0372
vn -0.1551 -0.9879 0.0065
vn -0.2130 -0.9728 -0.0910
vn 0.1166 -0.9660 0.2308
vn -0.0042 -0.9998 -0.0219
vn -0.1722 -0.9845 -0.0329
vn -0.1141 -0.9926 -0.0418
vn -0.0251 -0.9996 -0.0108
vn -0.2795 -0.3682 0.8867
vn -0.4292 -0.3259 0.8423
vn -0.3553 -0.6908 0.6298
vn -0.2672 -0.8161 0.5124
vn 0.1287 -0.5696 0.8118
vn -0.0952 -0.9302 0.3544
vn 0.1166 -0.9826 0.1446
vn 0.2089 -0.8968 0.3900
vn -0.0147 -0.9995 0.0286
vn 0.9176 -0.1836 -0.3526
vn 0.8761 -0.3374 -0.3444
vn 0.8997 0.0479 -0.4338
vn 0.5477 -0.7890 -0.2782
vn 0.8830 -0.4163 -0.2168
vn 0.9992 -0.0135 0.0378
vn 0.7625 -0.6423 0.0776
vn 0.4641 -0.8726 0.1522
vn 0.6476 -0.7159 0.2610
vn 0.8290 -0.3830 0.4076
vn 0.5619 -0.7636 0.3181
vn 0.3292 -0.0393 0.9435
vn 0.1472 -0.2697 0.9516
vn 0.0610 -0.2839 0.9569
vn -0.1356 -0.4386 0.8884
vn 0.2740 -0.0693 0.9592
vn 0.3846 -0.0260 0.9227
vn 0.2184 -0.8578 0.4652
vn 0.4589 -0.4511 0.7655
vn 0.4789 -0.3130 0.8202
vn 0.4248 -0.6982 0.5763
vn 0.4691 -0.6980 0.5411
vn 0.7976 0.3594 -0.4843
vn 0.7153 0.2588 -0.6492
vn 0.7935 -0.0255 -0.6080
vn 0.9596 -0.0204 -0.2805
vn 0.9149 -0.0779 -0.3961
vn 0.9510 0.1756 -0.2546
vn 0.9820 -0.1446 -0.1211
vn 0.7978 0.5753 -0.1803
vn 0.9753 0.2088 -0.0717
vn 0.9503 0.0851 0.2993
vn 0.9508 -0.2531 0.1784
vn 0.0519 0.0823 0.9953
vn -0.0810 -0.1181 0.9897
vn 0.4163 -0.0291 0.9088
vn 0.3960 0.0227 0.9180
vn 0.4572 0.1845 0.8700
vn 0.3650 0.1941 0.9105
vn 0.4427 -0.0145 0.8966
vn 0.7251 -0.3420 0.5977
vn 0.5976 -0.5192 0.6110
vn 0.6620 -0.1824 0.7270
vn 0.5213 0.4620 -0.7175
vn 0.5090 0.7316 -0.4535
vn 0.3972 0.7454 -0.5354
vn 0.4248 0.6047 -0.6738
vn 0.7721 0.4120 -0.4838
vn 0.8822 -0.4494 -0.1404
vn 0.8449 0.5082 -0.1668
vn 0.9700 -0.2040 -0.1322
vn 0.6147 0.7677 -0.1811
vn 0.9972 0.0594 0.0464
vn -0.2794 0.2729 0.9206
vn -0.1814 0.6315 0.7538
vn 0.4365 0.4069 0.8025
vn 0.5245 0.3727 0.7655
vn 0.3049 0.4486 0.8401
vn 0.1421 0.6284 0.7648
vn 0.3801 0.3579 0.8529
vn 0.6078 0.5644 0.5586
vn 0.6020 0.2308 0.7644
vn 0.5011 0.4935 0.7109
vn 0.6629 0.3341 -0.6700
vn 0.8628 -0.4494 -0.2316
vn 0.3481 0.7007 -0.6228
vn 0.7196 0.5698 -0.3969
vn 0.3642 0.7979 -0.4804
vn 0.3012 0.9446 -0.1307
vn 0.5605 0.7770 -0.2867
vn 0.1611 0.9729 -0.1659
vn 0.0992 0.9884 0.1154
vn 0.5518 0.4566 0.6979
vn 0.5959 0.4817 0.6425
vn 0.0982 -0.0148 0.9951
vn 0.4455 0.4258 0.7875
vn 0.1816 0.1028 0.9780
vn 0.3209 0.5192 0.7921
vn 0.3986 0.5815 0.7092
vn 0.3693 0.4180 0.8300
vn 0.3782 0.4677 0.7989
vn 0.5695 0.6512 0.5016
vn 0.2799 0.7271 0.6269
vn 0.2570 0.8254 0.5026
vn -0.4053 0.0144 0.9141
vn -0.8685 -0.0231 0.4952
vn -0.8653 0.1037 0.4903
vn -0.4760 0.6554 0.5864
vn -0.4687 0.0588 0.8814
vn -0.0744 -0.1864 0.9797
vn -0.4083 0.0139 0.9127
vn -0.1743 -0.2381 0.9555
vn -0.3842 0.0222 0.9230
vn -0.3959 0.0307 0.9178
vn -0.4333 -0.0533 0.8997
vn -0.2674 0.7269 0.6326
vn -0.4209 0.0496 0.9057
vn 0.1691 0.7509 0.6384
vn 0.2747 0.7554 -0.5949
vn 0.4346 0.4944 -0.7528
vn 0.6397 0.5640 -0.5222
vn -0.2471 0.4596 -0.8531
vn 0.6568 0.6562 -0.3715
vn 0.3598 0.9213 -0.1475
vn 0.4226 0.5931 -0.6853
vn 0.0007 0.9815 0.1916
vn 0.3886 0.9134 -0.1216
vn 0.3058 0.6954 -0.6504
vn 0.2579 0.6487 -0.7160
vn 0.2827 0.9468 -0.1539
vn 0.4045 0.2318 -0.8847
vn -0.4216 0.0367 0.9061
vn -0.3975 0.0088 0.9176
vn 0.1765 -0.9137 0.3659
vn 0.2272 0.9428 0.2438
vn 0.2068 0.9546 -0.2144
vn -0.4598 0.2856 0.8409
vn -0.6998 -0.1931 0.6878
vn -0.7083 -0.0859 0.7007
vn 0.2016 0.9499 0.2389
vn 0.1147 0.9018 0.4166
vn 0.1403 0.8942 0.4251
vn 0.2550 0.9663 -0.0360
vn 0.9685 0.0428 -0.2451
vn 0.2593 0.9120 -0.3177
vn 0.6815 0.6610 -0.3140
vn 0.4575 0.7997 -0.3888
vn 0.5158 0.3104 0.7985
vn 0.9809 0.1306 0.1444
vn 0.9768 -0.1251 0.1735
vn 0.9932 -0.0137 0.1155
vn 0.9296 -0.3477 -0.1221
vn 0.8399 0.2699 -0.4709
vn 0.3838 0.0360 0.9227
vn 0.2898 -0.1638 0.9430
vn 0.8946 0.3514 0.2759
vn 0.9103 0.1610 -0.3814
vn 0.0930 -0.9362 0.3389
vn 0.3800 -0.9136 0.1447
vn 0.3136 -0.9186 0.2404
vn 0.4078 -0.9085 -0.0910
vn 0.6623 -0.3985 -0.6344
vn 0.3044 -0.9526 -0.0031
vn -0.1989 -0.8997 0.3886
vn -0.4469 -0.6669 0.5963
vn 0.3407 -0.6675 -0.6621
vn 0.3058 0.0830 -0.9485
vn -0.1682 -0.0327 -0.9852
vn -0.7895 -0.6081 0.0827
vn -0.7879 0.2716 0.5527
vn -0.5241 -0.0539 -0.8500
vn -0.9260 -0.3666 0.0897
vn -0.8520 -0.2349 0.4679
vn -0.9379 -0.3080 0.1596
vn -0.9863 0.0310 0.1621
vn -0.9928 0.0561 0.1059
vn -0.7829 0.2584 0.5659
vn -0.9113 0.1548 0.3815
vn -0.3969 0.8967 0.1957
vn -0.2930 0.8817 0.3697
vn -0.6419 0.7204 0.2626
vn -0.0434 0.9133 -0.4050
vn 0.1568 0.9833 -0.0924
vn -0.0544 0.9709 -0.2330
vn -0.0186 0.9993 0.0326
vn 0.1199 0.9928 0.0062
vn 0.0062 1.0000 0.0003
vn 0.1455 0.9818 -0.1219
vn -0.1252 0.9912 -0.0428
vn 0.9590 0.0652 0.2759
vn 0.9321 -0.0114 0.3621
vn -0.5164 0.3740 -0.7704
vn 0.1312 0.9841 0.1201
vn -0.5789 -0.7964 -0.1751
vn 0.9976 -0.0098 0.0678
vn 0.3545 -0.0336 -0.9344
vn 0.3616 -0.0024 -0.9323
vn -0.1324 -0.0399 -0.9904
vn 0.6206 -0.7835 0.0301
vt 0.946494 0.178196
vt 0.878123 0.220738
vt 0.840781 0.184937
vt 0.774012 0.174502
vt 0.816384 0.137978
vt 0.848696 0.246105
vt 0.799484 0.258233
vt 0.811354 0.210304
vt 0.770056 0.283599
vt 0.752499 0.261036
vt 0.781926 0.235670
vt 0.663707 0.385630
vt 0.706313 0.312893
vt 0.712413 0.357893
vt 0.614557 0.368700
vt 0.746465 0.747458
vt 0.781043 0.738345
vt 0.760997 0.689816
vt 0.690421 0.625617
vt 0.793425 0.651585
vt 0.721779 0.594620
vt 0.677005 0.737467
vt 0.720511 0.753935
vt 0.683297 0.708966
vt 0.660277 0.660993
vt 0.719102 0.703131
vt 0.689107 0.644153
vt 0.589785 0.723676
vt 0.640617 0.733782
vt 0.580230 0.693555
vt 0.557754 0.656653
vt 0.631654 0.696406
vt 0.616158 0.662123
vt 0.505708 0.698543
vt 0.550480 0.711425
vt 0.489672 0.670756
vt 0.490697 0.651703
vt 0.531965 0.680833
vt 0.512240 0.651935
vt 0.111415 0.020631
vt 0.170050 0.074733
vt 0.124937 0.079660
vt 0.168440 0.040139
vt 0.124837 0.111085
vt 0.170013 0.155682
vt 0.121577 0.154448
vt 0.167480 0.119382
vt 0.124110 0.190748
vt 0.175074 0.228283
vt 0.126638 0.227049
vt 0.172547 0.191981
vt 0.294585 0.647701
vt 0.248118 0.615875
vt 0.255553 0.639801
vt 0.295114 0.627758
vt 0.224715 0.629962
vt 0.217348 0.604392
vt 0.191093 0.599098
vt 0.126395 0.544458
vt 0.147329 0.593037
vt 0.143713 0.620425
vt 0.104320 0.586112
vt 0.045932 0.549998
vt 0.068244 0.596586
vt 0.022496 0.546702
vt 0.007254 0.628724
vt 0.378560 0.629879
vt 0.392749 0.657180
vt 0.423412 0.650269
vt 0.932377 0.372220
vt 0.930029 0.379162
vt 0.937028 0.356559
vt 0.945602 0.334124
vt 0.971549 0.311376
vt 0.973388 0.297424
vt 0.956047 0.278575
vt 0.884843 0.299508
vt 0.953608 0.253474
vt 0.953845 0.199097
vt 0.889377 0.238401
vt 0.856877 0.266187
vt 0.688381 0.020404
vt 0.671311 0.033321
vt 0.667713 0.010636
vt 0.626063 0.015723
vt 0.637673 0.036529
vt 0.619274 0.018346
vt 0.711374 0.113640
vt 0.706363 0.060534
vt 0.750462 0.079948
vt 0.781780 0.110379
vt 0.742693 0.144071
vt 0.909905 0.401224
vt 0.897936 0.416006
vt 0.890208 0.402590
vt 0.856426 0.402846
vt 0.882451 0.380030
vt 0.863766 0.350019
vt 0.825987 0.350239
vt 0.855415 0.324874
vt 0.798022 0.316919
vt 0.827449 0.291553
vt 0.589507 0.107144
vt 0.607039 0.063282
vt 0.612526 0.089247
vt 0.596955 0.071848
vt 0.663724 0.166840
vt 0.620607 0.139299
vt 0.644539 0.120074
vt 0.641272 0.059214
vt 0.675623 0.096040
vt 0.714156 0.234937
vt 0.714416 0.178506
vt 0.744584 0.199868
vt 0.683331 0.202539
vt 0.898408 0.456107
vt 0.874258 0.445931
vt 0.873749 0.417018
vt 0.858712 0.458358
vt 0.818880 0.451717
vt 0.856935 0.431758
vt 0.837741 0.372834
vt 0.777696 0.429781
vt 0.660452 0.438244
vt 0.673537 0.507125
vt 0.681710 0.431294
vt 0.673610 0.507119
vt 0.735854 0.451261
vt 0.710189 0.435542
vt 0.689698 0.560858
vt 0.573225 0.119800
vt 0.591469 0.076505
vt 0.581549 0.058809
vt 0.587035 0.054153
vt 0.598521 0.197481
vt 0.602453 0.152510
vt 0.573730 0.126312
vt 0.654787 0.282417
vt 0.636229 0.227779
vt 0.533247 0.223703
vt 0.617810 0.531843
vt 0.626451 0.510574
vt 0.581154 0.485568
vt 0.566953 0.437703
vt 0.602886 0.431136
vt 0.564625 0.417947
vt 0.644841 0.572947
vt 0.653274 0.555677
vt 0.626133 0.556743
vt 0.644799 0.537294
vt 0.657979 0.601952
vt 0.408988 0.958928
vt 0.406444 0.972905
vt 0.476737 0.968656
vt 0.501529 0.996151
vt 0.505542 0.970680
vt 0.660985 0.958340
vt 0.673056 0.917814
vt 0.599972 0.965130
vt 0.509361 0.946197
vt 0.660758 0.881810
vt 0.745334 0.864293
vt 0.568052 0.552748
vt 0.579554 0.537097
vt 0.555835 0.523613
vt 0.532377 0.495139
vt 0.555655 0.507263
vt 0.540231 0.487635
vt 0.599097 0.606223
vt 0.621844 0.592743
vt 0.584803 0.578344
vt 0.602378 0.560580
vt 0.627644 0.624529
vt 0.637859 0.617050
vt 0.407121 0.922608
vt 0.407906 0.940430
vt 0.476725 0.926304
vt 0.510434 0.918724
vt 0.513217 0.904784
vt 0.591716 0.896590
vt 0.645981 0.848711
vt 0.623045 0.824746
vt 0.705823 0.798957
vt 0.528360 0.511862
vt 0.522971 0.541531
vt 0.546707 0.532799
vt 0.536378 0.616745
vt 0.568602 0.613905
vt 0.531361 0.593063
vt 0.524004 0.570538
vt 0.561083 0.588324
vt 0.546247 0.561916
vt 0.544205 0.634898
vt 0.596190 0.631229
vt 0.422637 0.888601
vt 0.415192 0.904991
vt 0.476076 0.896473
vt 0.516738 0.878562
vt 0.584799 0.837273
vt 0.584270 0.863313
vt 0.520195 0.852440
vt 0.550771 0.815016
vt 0.626690 0.765534
vt 0.556666 0.780712
vt 0.588916 0.801467
vt 0.508934 0.520695
vt 0.495290 0.587302
vt 0.508626 0.579910
vt 0.496506 0.565795
vt 0.487590 0.621134
vt 0.510761 0.619461
vt 0.491942 0.603696
vt 0.514253 0.599929
vt 0.490894 0.635087
vt 0.516099 0.635097
vt 0.416825 0.856311
vt 0.419544 0.872092
vt 0.477027 0.870746
vt 0.507871 0.833331
vt 0.496564 0.815295
vt 0.534825 0.799578
vt 0.536232 0.763934
vt 0.505900 0.734819
vt 0.552152 0.737647
vt 0.451601 0.575924
vt 0.474839 0.581875
vt 0.480530 0.552348
vt 0.499618 0.530092
vt 0.480653 0.521883
vt 0.297125 0.113878
vt 0.294594 0.077578
vt 0.340491 0.073154
vt 0.383857 0.032430
vt 0.386121 0.064899
vt 0.215263 0.038383
vt 0.253989 0.080946
vt 0.220324 0.079374
vt 0.257112 0.037323
vt 0.384458 0.859513
vt 0.400896 0.858263
vt 0.405680 0.823850
vt 0.473811 0.836410
vt 0.420430 0.822553
vt 0.442790 0.793316
vt 0.469374 0.796914
vt 0.440588 0.762061
vt 0.515755 0.780635
vt 0.470391 0.766934
vt 0.046072 0.121425
vt 0.033899 0.068268
vt 0.082915 0.111547
vt 0.024238 0.023764
vt 0.067668 0.020942
vt 0.078831 0.073519
vt 0.451746 0.541408
vt 0.427863 0.570863
vt 0.467502 0.550018
vt 0.460686 0.551192
vt 0.345009 0.137967
vt 0.299658 0.150178
vt 0.342754 0.105623
vt 0.215916 0.120615
vt 0.259054 0.153546
vt 0.218450 0.156915
vt 0.256520 0.117247
vt 0.348750 0.831953
vt 0.368127 0.857346
vt 0.391080 0.822165
vt 0.413620 0.790021
vt 0.369622 0.776202
vt 0.409182 0.745742
vt 0.424390 0.719612
vt 0.401691 0.717182
vt 0.042274 0.188516
vt 0.045503 0.148534
vt 0.087425 0.148072
vt 0.402634 0.565885
vt 0.405617 0.534660
vt 0.377280 0.561626
vt 0.395979 0.498742
vt 0.430119 0.505593
vt 0.302192 0.186478
vt 0.349789 0.206487
vt 0.304719 0.222779
vt 0.347542 0.174267
vt 0.220983 0.193214
vt 0.264115 0.226147
vt 0.223511 0.229516
vt 0.261587 0.189846
vt 0.321465 0.814793
vt 0.334811 0.823780
vt 0.348716 0.791152
vt 0.334405 0.757859
vt 0.293042 0.737267
vt 0.336914 0.727845
vt 0.369208 0.711290
vt 0.341038 0.704472
vt 0.046714 0.274713
vt 0.044660 0.222723
vt 0.085578 0.223839
vt 0.331352 0.525139
vt 0.341644 0.535792
vt 0.361953 0.517475
vt 0.350536 0.550506
vt 0.297469 0.542121
vt 0.246616 0.547977
vt 0.276201 0.562698
vt 0.305040 0.575085
vt 0.261394 0.576985
vt 0.213051 0.577487
vt 0.251374 0.592816
vt 0.265803 0.760023
vt 0.275522 0.794783
vt 0.294152 0.790368
vt 0.308656 0.777068
vt 0.280298 0.748065
vt 0.250257 0.724024
vt 0.294975 0.713909
vt 0.266346 0.715390
vt 0.208765 0.679352
vt 0.270985 0.689399
vt 0.262150 0.661784
vt 0.367426 0.491551
vt 0.394872 0.475216
vt 0.334752 0.497166
vt 0.315088 0.482666
vt 0.324942 0.504374
vt 0.284010 0.499262
vt 0.232939 0.497537
vt 0.238553 0.525768
vt 0.217808 0.543089
vt 0.188084 0.565340
vt 0.229100 0.561246
vt 0.256470 0.848015
vt 0.269698 0.838743
vt 0.245917 0.818412
vt 0.251791 0.774096
vt 0.236280 0.789360
vt 0.211339 0.750585
vt 0.184191 0.686860
vt 0.187474 0.625302
vt 0.216200 0.653850
vt 0.175556 0.653296
vt 0.400284 0.459465
vt 0.394225 0.443915
vt 0.360184 0.458231
vt 0.329066 0.429805
vt 0.319232 0.458294
vt 0.269299 0.467991
vt 0.192029 0.446391
vt 0.206315 0.474842
vt 0.081523 0.453140
vt 0.095086 0.465242
vt 0.271341 0.884107
vt 0.252880 0.864246
vt 0.225574 0.858714
vt 0.225238 0.810371
vt 0.156531 0.694370
vt 0.153325 0.711966
vt 0.192732 0.775272
vt 0.111187 0.629875
vt 0.147183 0.657617
vt 0.116401 0.675181
vt 0.407460 0.387337
vt 0.388815 0.375822
vt 0.357766 0.360650
vt 0.291521 0.334987
vt 0.298685 0.372535
vt 0.243266 0.406313
vt 0.191951 0.343257
vt 0.196277 0.411168
vt 0.130021 0.358125
vt 0.986976 0.126846
vt 0.966954 0.187323
vt 0.213530 0.833591
vt 0.202706 0.861164
vt 0.259104 0.901251
vt 0.211507 0.884038
vt 0.243975 0.916139
vt 0.127146 0.734320
vt 0.104341 0.767509
vt 0.177637 0.795813
vt 0.159468 0.829529
vt 0.083820 0.643609
vt 0.028389 0.680329
vt 0.086026 0.693064
vt 0.074620 0.735022
vt 0.394339 0.890127
vt 0.402747 0.874630
vt 0.322406 0.927468
vt 0.320059 0.948073
vt 0.334206 0.957346
vt 0.265960 0.856005
vt 0.282509 0.829029
vt 0.315998 0.832900
vt 0.302557 0.822584
vt 0.376424 0.888390
vt 0.372825 0.953723
vt 0.342630 0.866728
vt 0.403902 0.987222
vt 0.392017 0.987767
vt 0.380117 0.988077
vt 0.393962 0.954325
vt 0.358268 0.987411
vt 0.456116 0.494708
vt 0.483561 0.399593
vt 0.438276 0.363439
vt 0.473427 0.335499
vt 0.499566 0.340753
vt 0.536958 0.361070
vt 0.555528 0.413146
vt 0.569108 0.373552
vt 0.451380 0.384026
vt 0.499417 0.504585
vt 0.491667 0.512110
vt 0.468838 0.506691
vt 0.463952 0.506371
vt 0.504819 0.490412
vt 0.490118 0.488366
vt 0.475526 0.507671
vt 0.481326 0.511791
vt 0.589901 0.389715
vt 0.428858 0.334748
vt 0.417822 0.339594
vt 0.394848 0.973401
vt 0.300288 0.872493
vt 0.313757 0.872843
vt 0.639495 0.010632
vt 0.633839 0.012752
vt 0.285158 0.876798
vt 0.313221 0.965699
vt 0.326533 0.884854
vt 0.322898 0.906891
vt 0.015251 0.731778
vt 0.046909 0.770861
vt 0.081365 0.804856
vt 0.144096 0.857538
vt 0.191866 0.889923
vt 0.208633 0.908408
vt 0.237041 0.932300
vt 0.991879 0.133822
vt 0.150933 0.333895
vt 0.246760 0.448326
vt 0.251665 0.339291
vt 0.326222 0.401112
vt 0.339345 0.334921
vt 0.231869 0.839667
vt 0.137274 0.528269
vt 0.131473 0.514330
vt 0.123615 0.501113
vt 0.269205 0.477343
vt 0.323653 0.470943
vt 0.229299 0.738841
vt 0.259258 0.809549
vt 0.138313 0.538461
vt 0.280567 0.526123
vt 0.298004 0.690295
vt 0.300540 0.668657
vt 0.288093 0.604822
vt 0.297542 0.590090
vt 0.327233 0.562544
vt 0.384861 0.529160
vt 0.129834 0.294406
vt 0.087783 0.280572
vt 0.083192 0.189632
vt 0.376353 0.738234
vt 0.361579 0.797742
vt 0.308732 0.297661
vt 0.268144 0.301302
vt 0.227555 0.304944
vt 0.392894 0.162056
vt 0.395139 0.194276
vt 0.397936 0.231193
vt 0.352834 0.265998
vt 0.423355 0.536794
vt 0.388384 0.097368
vt 0.390639 0.129712
vt 0.450897 0.533962
vt 0.470655 0.730096
vt 0.292063 0.041278
vt 0.337960 0.036854
vt 0.476131 0.531723
vt 0.508156 0.717547
vt 0.574309 0.752727
vt 0.482770 0.886783
vt 0.513327 0.549877
vt 0.649592 0.783446
vt 0.476808 0.899963
vt 0.694846 0.780452
vt 0.725473 0.837660
vt 0.714329 0.816350
vt 0.597772 0.923647
vt 0.479928 0.944047
vt 0.757775 0.887681
vt 0.600949 0.992416
vt 0.475193 0.983199
vt 0.773890 0.575051
vt 0.623396 0.416523
vt 0.541335 0.356213
vt 0.538096 0.344001
vt 0.529523 0.314463
vt 0.545075 0.178275
vt 0.592522 0.049497
vt 0.562617 0.102309
vt 0.757573 0.483625
vt 0.747368 0.370093
vt 0.775148 0.394060
vt 0.823091 0.438834
vt 0.783125 0.452303
vt 0.683591 0.146109
vt 0.602605 0.040931
vt 0.613803 0.030967
vt 0.627538 0.045091
vt 0.895991 0.321933
vt 0.916233 0.379774
vt 0.792896 0.046295
vt 0.831239 0.070982
vt 0.869582 0.095668
vt 0.734660 0.038051
vt 0.980979 0.233234
vt 0.972257 0.266691
vt 0.965072 0.330917
vt 0.890018 0.146123
vt 0.929683 0.111619
vt 0.098857 0.544010
vt 0.071621 0.547804
vt 0.178605 0.297886
vt 0.844087 0.722992
vt 0.810016 0.627779
vt 0.814004 0.730079
vt 0.532990 0.326239
vt 0.704521 0.764927
vt 0.995423 0.138897
vt 0.108533 0.483712
vt 0.982681 0.120756
vt 0.457582 0.513375
vt 0.454924 0.524002
vt 0.470907 0.540516
vt 0.456301 0.547584
s 1
usemtl Cave_Material.004
f 27/1/1 375/2/2 376/3/3
f 1/4/4 377/5/5 376/3/3
f 2/6/6 111/7/7 110/8/8
f 3/9/9 113/10/10 112/11/11
f 8/12/12 378/13/13 379/14/14
f 8/12/12 380/15/15 378/13/13
f 6/16/16 435/17/17 116/18/18
f 7/19/19 382/20/20 117/21/21
f 9/22/22 118/23/23 119/24/24
f 10/25/25 120/26/26 121/27/27
f 11/28/28 122/29/29 123/30/30
f 12/31/31 124/32/32 125/33/33
f 13/34/34 126/35/35 127/36/36
f 14/37/37 128/38/38 129/39/39
f 13/40/34 130/41/40 131/42/41
f 13/40/34 127/43/36 130/41/40
f 15/44/42 134/45/43 135/46/44
f 15/44/42 132/47/45 134/45/43
f 17/48/46 138/49/47 139/50/48
f 17/48/46 136/51/49 138/49/47
f 19/52/50 142/53/51 143/54/52
f 19/52/50 140/55/53 142/53/51
f 21/56/54 144/57/55 146/58/56
f 22/59/57 147/60/58 146/58/56
f 23/61/59 147/60/58 149/62/60
f 24/63/61 151/64/62 149/62/60
f 24/63/61 450/65/63 154/66/64
f 26/67/65 156/68/66 154/69/64
f 29/70/67 157/71/68 158/72/69
f 30/73/70 383/74/71 158/72/69
f 108/75/72 383/74/71 385/76/73
f 31/77/74 161/78/75 385/76/73
f 27/1/1 387/79/76 388/80/77
f 31/77/74 162/81/78 388/80/77
f 35/82/79 164/83/80 165/84/81
f 445/85/82 166/86/83 163/87/84
f 37/88/85 168/89/86 169/90/87
f 35/82/79 168/89/86 164/83/80
f 1/4/4 172/91/88 377/5/5
f 1/4/4 173/92/89 172/91/88
f 28/93/90 174/94/91 175/95/92
f 40/96/93 177/97/94 175/95/92
f 30/73/70 177/97/94 178/98/95
f 41/99/96 180/100/97 178/98/95
f 31/77/74 180/100/97 162/81/78
f 41/99/96 182/101/98 181/102/99
f 43/103/100 184/104/101 185/105/102
f 43/103/100 186/106/103 184/104/101
f 44/107/104 187/108/105 188/109/106
f 36/110/107 171/111/108 188/109/106
f 4/112/109 190/113/110 114/114/111
f 4/112/109 191/115/112 190/113/110
f 39/116/113 390/117/114 176/118/115
f 49/119/116 392/120/117 391/121/118
f 41/99/96 179/122/119 193/123/120
f 45/124/121 52/125/122 193/126/120
f 52/127/122 394/128/123 393/129/124
f 52/127/122 206/130/125 394/128/123
f 43/103/100 194/131/126 396/132/127
f 53/133/128 395/134/129 396/132/127
f 44/107/104 195/135/130 196/136/131
f 46/137/132 194/131/126 196/136/131
f 4/112/109 115/138/133 198/139/134
f 47/140/135 195/135/130 198/139/134
f 50/141/136 398/142/137 201/143/138
f 48/144/139 399/145/140 200/146/141
f 51/147/142 202/148/143 203/149/144
f 50/141/136 204/150/145 398/142/137
f 7/19/19 117/21/21 205/151/146
f 51/147/142 206/130/125 202/148/143
f 54/152/147 207/153/148 400/154/149
f 46/155/132 401/156/150 400/154/149
f 47/157/135 402/158/151 403/159/152
f 55/160/153 401/156/150 403/159/152
f 56/161/154 402/158/151 438/162/155
f 58/163/156 212/164/157 213/165/158
f 57/166/159 214/167/160 211/168/161
f 59/169/162 215/170/163 216/171/164
f 58/163/156 217/172/165 212/164/157
f 10/25/25 121/27/27 218/173/166
f 59/169/162 219/174/167 215/170/163
f 60/175/168 220/176/169 221/177/170
f 55/160/153 222/178/171 221/177/170
f 61/179/172 222/178/171 224/180/173
f 56/161/154 225/181/174 224/180/173
f 62/182/175 225/181/174 227/183/176
f 57/166/159 229/184/177 213/165/158
f 229/184/177 231/185/178 230/186/179
f 64/187/180 233/188/181 234/189/182
f 63/190/183 235/191/184 232/192/185
f 12/31/31 125/33/33 236/193/186
f 64/187/180 237/194/187 233/188/181
f 65/195/188 238/196/189 239/197/190
f 61/179/172 240/198/191 239/197/190
f 62/182/175 242/199/192 226/200/193
f 66/201/194 242/199/192 243/202/195
f 9/22/22 122/29/29 245/203/196
f 67/204/197 244/205/198 245/203/196
f 229/184/177 247/206/199 231/185/178
f 69/207/200 249/208/201 250/209/202
f 70/210/203 251/211/204 252/212/205
f 69/207/200 253/213/206 249/208/201
f 14/37/37 129/39/39 254/214/207
f 70/210/203 255/215/208 251/211/204
f 71/216/209 256/217/210 257/218/211
f 66/201/194 258/219/212 257/218/211
f 72/220/213 258/219/212 260/221/214
f 67/204/197 261/222/215 260/221/214
f 73/223/216 261/222/215 263/224/217
f 11/28/28 126/35/35 263/224/217
f 75/225/218 266/226/219 267/227/220
f 68/228/221 265/229/222 267/227/220
f 76/230/223 269/231/224 270/232/225
f 69/233/200 266/234/219 270/232/225
f 14/235/37 272/236/226 133/237/227
f 14/235/37 254/238/207 272/236/226
f 77/239/228 274/240/229 275/241/230
f 71/216/209 259/242/231 276/243/232
f 78/244/233 277/245/234 278/246/235
f 72/220/213 262/247/236 279/248/237
f 79/249/238 280/250/239 281/251/240
f 73/252/216 264/253/241 282/254/242
f 75/225/218 284/255/243 285/256/244
f 268/257/245 462/258/246 75/225/218
f 76/230/223 287/259/247 288/260/248
f 76/230/223 271/261/249 287/259/247
f 16/262/250 290/263/251 137/264/252
f 16/262/250 273/265/253 290/263/251
f 82/266/254 292/267/255 293/268/256
f 78/244/233 294/269/257 293/268/256
f 83/270/258 294/269/257 296/271/259
f 79/272/238 297/273/260 296/271/259
f 84/274/261 297/275/260 299/276/262
f 15/44/42 135/46/44 299/276/262
f 80/277/263 302/278/264 303/279/265
f 319/280/266 302/278/264 301/281/267
f 81/282/268 305/283/269 306/284/270
f 81/282/268 289/285/271 305/283/269
f 18/286/272 308/287/273 141/288/274
f 18/286/272 291/289/275 308/287/273
f 87/290/276 310/291/277 311/292/278
f 83/270/258 312/293/279 311/292/278
f 88/294/280 312/293/279 314/295/281
f 84/296/261 315/297/282 314/295/281
f 89/298/283 315/299/282 317/300/284
f 17/48/46 139/50/48 317/300/284
f 91/301/285 321/302/286 320/303/287
f 85/304/288 321/302/286 322/305/289
f 92/306/290 324/307/291 322/305/289
f 86/308/292 324/307/291 325/309/293
f 109/310/294 145/311/295 325/309/293
f 94/312/296 327/313/297 328/314/298
f 87/290/276 313/315/299 328/314/298
f 94/312/296 329/316/300 330/317/301
f 88/294/280 316/318/302 331/319/303
f 95/320/304 332/321/305 333/322/306
f 19/52/50 143/54/52 333/322/306
f 90/323/307 335/324/308 336/325/309
f 97/326/310 338/327/311 336/325/309
f 91/301/285 338/327/311 339/328/312
f 98/329/313 341/330/314 339/328/312
f 109/310/294 413/331/315 412/332/316
f 92/306/290 341/330/314 342/333/317
f 99/334/318 344/335/319 345/336/320
f 94/312/296 347/337/321 327/313/297
f 100/338/322 347/337/321 348/339/323
f 95/320/304 350/340/324 330/317/301
f 21/56/54 148/341/325 334/342/326
f 95/320/304 351/343/327 350/340/324
f 96/344/328 353/345/329 354/346/330
f 103/347/331 356/348/332 354/346/330
f 97/326/310 356/348/332 357/349/333
f 104/350/334 359/351/335 357/349/333
f 361/352/336 453/353/337 104/350/334
f 105/354/338 362/355/339 363/356/340
f 100/338/322 365/357/341 345/336/320
f 101/358/342 366/359/343 348/339/323
f 100/338/322 367/360/344 365/357/341
f 23/61/59 152/361/345 352/362/346
f 101/358/342 369/363/347 366/359/343
f 102/364/348 404/365/349 371/366/350
f 108/367/72 372/368/351 371/366/350
f 103/347/331 372/368/351 405/369/352
f 32/370/353 406/371/354 405/369/352
f 104/350/334 406/371/354 373/372/355
f 27/1/1 153/373/356 373/374/355
f 106/375/357 408/376/358 363/356/340
f 448/377/359 409/378/360 407/379/361
f 107/380/362 410/381/363 368/382/364
f 106/375/357 411/383/365 408/376/358
f 25/384/366 156/385/66 370/386/367
f 107/380/362 374/387/368 410/381/363
f 77/239/228 420/388/369 417/389/369
f 414/390/370 443/391/371 34/392/372
f 105/354/338 415/393/373 362/355/339
f 93/394/374 416/395/375 326/396/376
f 77/239/228 417/389/369 274/240/229
f 93/394/374 415/393/373 416/395/375
f 82/266/254 419/397/377 292/267/255
f 34/392/372 421/398/378 422/399/379
f 34/392/372 422/399/379 414/390/370
f 53/400/128 207/153/148 395/401/129
f 42/402/380 424/403/381 183/404/382
f 60/175/168 424/403/381 220/176/169
f 96/344/328 432/405/383 428/406/384
f 102/364/348 425/407/385 404/365/349
f 28/408/90 425/407/385 174/409/91
f 39/410/113 427/411/386 390/412/114
f 102/364/348 353/345/329 426/413/387
f 48/144/139 427/411/386 211/168/161
f 57/166/159 430/414/388 229/184/177
f 229/184/177 431/415/389 247/206/199
f 463/416/390 432/405/383 283/417/391
f 57/166/159 429/418/392 430/414/388
f 90/323/307 319/280/266 335/324/308
f 319/280/266 301/281/267 335/324/308
f 335/324/308 301/281/267 96/344/328
f 429/418/392 39/410/113 433/419/393
f 429/418/392 433/419/393 430/414/388
f 430/414/388 433/419/393 74/420/394
f 432/405/383 96/344/328 301/281/267
f 432/405/383 301/281/267 283/417/391
f 74/420/394 456/421/395 431/415/389
f 431/415/389 265/229/222 247/206/199
f 247/206/199 265/229/222 68/228/221
f 430/414/388 74/420/394 431/415/389
f 430/414/388 431/415/389 229/184/177
f 427/411/386 39/410/113 429/418/392
f 427/411/386 429/418/392 211/168/161
f 211/168/161 429/418/392 57/166/159
f 353/345/329 96/344/328 428/406/384
f 353/345/329 428/406/384 426/413/387
f 426/413/387 428/406/384 39/410/113
f 427/411/386 48/144/139 200/146/141
f 427/411/386 200/146/141 390/412/114
f 390/412/114 200/146/141 49/422/116
f 425/407/385 102/364/348 426/413/387
f 425/407/385 426/413/387 174/409/91
f 174/409/91 426/413/387 39/410/113
f 425/407/385 28/408/90 157/423/68
f 425/407/385 157/423/68 404/365/349
f 404/365/349 157/423/68 29/424/67
f 432/405/383 74/420/394 433/419/393
f 432/405/383 433/419/393 428/406/384
f 428/406/384 433/419/393 39/410/113
f 424/403/381 42/402/380 423/425/396
f 424/403/381 423/425/396 220/176/169
f 220/176/169 423/425/396 54/152/147
f 424/403/381 60/175/168 421/398/378
f 424/403/381 421/398/378 183/404/382
f 183/404/382 421/398/378 34/392/372
f 207/153/148 54/152/147 423/425/396
f 207/153/148 423/425/396 395/401/129
f 395/401/129 423/425/396 42/402/380
f 422/399/379 82/266/254 418/426/397
f 418/426/397 446/427/398 422/399/379
f 33/428/399 166/86/83 444/429/400
f 421/398/378 60/175/168 419/397/377
f 421/398/378 419/397/377 422/399/379
f 422/399/379 419/397/377 82/266/254
f 419/397/377 60/175/168 420/388/369
f 419/397/377 420/388/369 292/267/255
f 292/267/255 420/388/369 77/239/228
f 105/354/338 441/430/401 415/393/373
f 415/393/373 418/426/397 416/395/375
f 416/395/375 418/426/397 82/266/254
f 417/389/369 65/195/188 256/217/210
f 417/389/369 256/217/210 274/240/229
f 274/240/229 256/217/210 71/216/209
f 416/395/375 82/266/254 310/291/277
f 416/395/375 310/291/277 326/396/376
f 326/396/376 310/291/277 87/290/276
f 415/393/373 93/394/374 344/335/319
f 415/393/373 344/335/319 362/355/339
f 362/355/339 344/335/319 99/334/318
f 34/392/372 443/391/371 163/431/84
f 442/432/402 447/433/403 422/399/379
f 415/393/373 441/430/401 418/426/397
f 420/388/369 60/175/168 238/196/189
f 420/388/369 238/196/189 417/389/369
f 417/389/369 238/196/189 65/195/188
f 374/387/368 26/434/65 389/435/404
f 374/387/368 389/435/404 410/381/363
f 410/381/363 389/435/404 38/436/405
f 156/385/66 26/434/65 374/387/368
f 156/385/66 374/387/368 370/386/367
f 370/386/367 374/387/368 107/380/362
f 411/383/365 38/436/405 170/437/406
f 411/383/365 170/437/406 408/376/358
f 408/376/358 170/437/406 35/438/79
f 410/381/363 38/436/405 411/383/365
f 410/381/363 411/383/365 368/382/364
f 368/382/364 411/383/365 106/375/357
f 409/378/360 35/438/79 165/439/81
f 409/378/360 165/439/81 407/379/361
f 407/379/361 165/439/81 33/440/399
f 408/376/358 35/438/79 409/378/360
f 408/376/358 409/378/360 363/356/340
f 363/356/340 409/378/360 105/354/338
f 153/373/356 452/441/407 373/374/355
f 373/372/355 361/352/336 104/350/334
f 406/371/354 32/370/353 387/442/76
f 406/371/354 387/442/76 373/372/355
f 373/374/355 387/79/76 27/1/1
f 406/371/354 104/350/334 358/443/408
f 406/371/354 358/443/408 405/369/352
f 405/369/352 358/443/408 103/347/331
f 372/368/351 108/367/72 386/444/409
f 372/368/351 386/444/409 405/369/352
f 405/369/352 386/444/409 32/370/353
f 372/368/351 103/347/331 355/445/410
f 372/368/351 355/445/410 371/366/350
f 371/366/350 355/445/410 102/364/348
f 404/365/349 29/424/67 384/446/411
f 404/365/349 384/446/411 371/366/350
f 371/366/350 384/446/411 108/367/72
f 369/363/347 25/384/366 370/386/367
f 369/363/347 370/386/367 366/359/343
f 366/359/343 370/386/367 107/380/362
f 152/361/345 25/384/366 369/363/347
f 152/361/345 369/363/347 352/362/346
f 352/362/346 369/363/347 101/358/342
f 367/360/344 107/380/362 368/382/364
f 367/360/344 368/382/364 365/357/341
f 365/357/341 368/382/364 106/375/357
f 366/359/343 107/380/362 367/360/344
f 366/359/343 367/360/344 348/339/323
f 348/339/323 367/360/344 100/338/322
f 365/357/341 106/375/357 364/447/412
f 365/357/341 364/447/412 345/336/320
f 345/336/320 364/447/412 99/334/318
f 362/355/339 99/334/318 364/447/412
f 362/355/339 364/447/412 363/356/340
f 363/356/340 364/447/412 106/375/357
f 343/448/413 98/329/313 359/351/335
f 454/449/414 359/351/335 360/450/415
f 360/450/415 359/351/335 104/350/334
f 359/351/335 98/329/313 340/451/416
f 359/351/335 340/451/416 357/349/333
f 357/349/333 340/451/416 97/326/310
f 356/348/332 103/347/331 358/443/408
f 356/348/332 358/443/408 357/349/333
f 357/349/333 358/443/408 104/350/334
f 356/348/332 97/326/310 337/452/417
f 356/348/332 337/452/417 354/346/330
f 354/346/330 337/452/417 96/344/328
f 353/345/329 102/364/348 355/445/410
f 353/345/329 355/445/410 354/346/330
f 354/346/330 355/445/410 103/347/331
f 351/343/327 23/61/59 352/362/346
f 351/343/327 352/362/346 350/340/324
f 350/340/324 352/362/346 101/358/342
f 148/341/325 23/61/59 351/343/327
f 148/341/325 351/343/327 334/342/326
f 334/342/326 351/343/327 95/320/304
f 350/340/324 101/358/342 349/453/418
f 350/340/324 349/453/418 330/317/301
f 330/317/301 349/453/418 94/312/296
f 347/337/321 94/312/296 349/453/418
f 347/337/321 349/453/418 348/339/323
f 348/339/323 349/453/418 101/358/342
f 347/337/321 100/338/322 346/454/419
f 347/337/321 346/454/419 327/313/297
f 327/313/297 346/454/419 93/394/374
f 344/335/319 93/394/374 346/454/419
f 344/335/319 346/454/419 345/336/320
f 345/336/320 346/454/419 100/338/322
f 341/330/314 98/329/313 413/331/315
f 341/330/314 413/331/315 342/333/317
f 342/333/317 413/331/315 109/310/294
f 413/331/315 98/329/313 343/448/413
f 413/331/315 343/448/413 412/332/316
f 343/448/413 451/455/420 412/332/316
f 341/330/314 92/306/290 323/456/421
f 341/330/314 323/456/421 339/328/312
f 339/328/312 323/456/421 91/301/285
f 338/327/311 97/326/310 340/451/416
f 338/327/311 340/451/416 339/328/312
f 339/328/312 340/451/416 98/329/313
f 338/327/311 91/301/285 90/323/307
f 338/327/311 90/323/307 336/325/309
f 335/324/308 96/344/328 337/452/417
f 335/324/308 337/452/417 336/325/309
f 336/325/309 337/452/417 97/326/310
f 143/54/52 21/56/54 334/342/326
f 143/54/52 334/342/326 333/322/306
f 333/322/306 334/342/326 95/320/304
f 332/321/305 89/457/283 318/458/422
f 332/321/305 318/458/422 333/322/306
f 333/322/306 318/458/422 19/52/50
f 316/318/302 89/457/283 332/321/305
f 316/318/302 332/321/305 331/319/303
f 331/319/303 332/321/305 95/320/304
f 329/316/300 88/294/280 331/319/303
f 329/316/300 331/319/303 330/317/301
f 330/317/301 331/319/303 95/320/304
f 313/315/299 88/294/280 329/316/300
f 313/315/299 329/316/300 328/314/298
f 328/314/298 329/316/300 94/312/296
f 327/313/297 93/394/374 326/396/376
f 327/313/297 326/396/376 328/314/298
f 328/314/298 326/396/376 87/290/276
f 145/311/295 20/459/423 309/460/424
f 145/311/295 309/460/424 325/309/293
f 325/309/293 309/460/424 86/308/292
f 324/307/291 92/306/290 342/333/317
f 324/307/291 342/333/317 325/309/293
f 325/309/293 342/333/317 109/310/294
f 324/307/291 86/308/292 307/461/425
f 324/307/291 307/461/425 322/305/289
f 322/305/289 307/461/425 85/304/288
f 321/302/286 91/301/285 323/456/421
f 321/302/286 323/456/421 322/305/289
f 322/305/289 323/456/421 92/306/290
f 321/302/286 85/304/288 304/462/426
f 321/302/286 304/462/426 320/303/287
f 320/303/287 304/462/426 319/280/266
f 319/280/266 90/323/307 320/303/287
f 320/303/287 90/323/307 91/301/285
f 139/50/48 19/463/50 318/464/422
f 139/50/48 318/464/422 317/300/284
f 317/300/284 318/464/422 89/298/283
f 315/299/282 84/274/261 300/465/427
f 315/299/282 300/465/427 317/300/284
f 317/300/284 300/465/427 17/48/46
f 315/297/282 89/457/283 316/318/302
f 315/297/282 316/318/302 314/295/281
f 314/295/281 316/318/302 88/294/280
f 312/293/279 83/270/258 298/466/428
f 312/293/279 298/466/428 314/295/281
f 314/295/281 298/466/428 84/296/261
f 312/293/279 88/294/280 313/315/299
f 312/293/279 313/315/299 311/292/278
f 311/292/278 313/315/299 87/290/276
f 310/291/277 82/266/254 295/467/429
f 310/291/277 295/467/429 311/292/278
f 311/292/278 295/467/429 83/270/258
f 291/289/275 81/282/268 306/284/270
f 291/289/275 306/284/270 308/287/273
f 308/287/273 306/284/270 86/468/292
f 308/287/273 86/468/292 309/469/424
f 308/287/273 309/469/424 141/288/274
f 141/288/274 309/469/424 20/470/423
f 289/285/271 80/471/263 303/472/265
f 289/285/271 303/472/265 305/283/269
f 305/283/269 303/472/265 85/473/288
f 305/283/269 85/473/288 307/474/425
f 305/283/269 307/474/425 306/284/270
f 306/284/270 307/474/425 86/468/292
f 302/278/264 80/277/263 286/475/430
f 302/278/264 286/475/430 301/281/267
f 302/278/264 319/280/266 304/462/426
f 302/278/264 304/462/426 303/279/265
f 303/279/265 304/462/426 85/304/288
f 135/46/44 17/48/46 300/465/427
f 135/46/44 300/465/427 299/276/262
f 299/276/262 300/465/427 84/274/261
f 297/275/260 79/249/238 281/251/240
f 297/275/260 281/251/240 299/276/262
f 299/276/262 281/251/240 15/44/42
f 297/273/260 84/296/261 298/466/428
f 297/273/260 298/466/428 296/271/259
f 296/271/259 298/466/428 83/270/258
f 294/269/257 78/244/233 278/246/235
f 294/269/257 278/246/235 296/271/259
f 296/271/259 278/246/235 79/272/238
f 294/269/257 83/270/258 295/467/429
f 294/269/257 295/467/429 293/268/256
f 293/268/256 295/467/429 82/266/254
f 292/267/255 77/239/228 275/241/230
f 292/267/255 275/241/230 293/268/256
f 293/268/256 275/241/230 78/244/233
f 273/265/253 76/230/223 288/260/248
f 273/265/253 288/260/248 290/263/251
f 290/263/251 288/260/248 81/282/268
f 290/263/251 81/282/268 291/289/275
f 290/263/251 291/289/275 137/264/252
f 137/264/252 291/289/275 18/286/272
f 271/261/249 75/476/218 285/477/244
f 271/261/249 285/477/244 287/259/247
f 287/259/247 285/477/244 80/471/263
f 287/259/247 80/471/263 289/285/271
f 287/259/247 289/285/271 288/260/248
f 288/260/248 289/285/271 81/282/268
f 284/255/243 458/478/431 301/281/267
f 284/255/243 301/281/267 286/475/430
f 284/255/243 286/475/430 285/256/244
f 285/256/244 286/475/430 80/277/263
f 264/253/241 13/40/34 131/42/41
f 264/253/241 131/42/41 282/254/242
f 282/254/242 131/42/41 15/44/42
f 280/250/239 73/252/216 282/254/242
f 280/250/239 282/254/242 281/251/240
f 281/251/240 282/254/242 15/44/42
f 262/247/236 73/223/216 280/479/239
f 262/247/236 280/479/239 279/248/237
f 279/248/237 280/479/239 79/272/238
f 277/245/234 72/220/213 279/248/237
f 277/245/234 279/248/237 278/246/235
f 278/246/235 279/248/237 79/272/238
f 259/242/231 72/220/213 277/245/234
f 259/242/231 277/245/234 276/243/232
f 276/243/232 277/245/234 78/244/233
f 274/240/229 71/216/209 276/243/232
f 274/240/229 276/243/232 275/241/230
f 275/241/230 276/243/232 78/244/233
f 254/238/207 70/480/203 269/231/224
f 254/238/207 269/231/224 272/236/226
f 272/236/226 269/231/224 76/230/223
f 272/236/226 76/230/223 273/265/253
f 272/236/226 273/265/253 133/237/227
f 133/237/227 273/265/253 16/262/250
f 266/234/219 75/476/218 271/261/249
f 266/234/219 271/261/249 270/232/225
f 270/232/225 271/261/249 76/230/223
f 269/231/224 70/480/203 252/481/205
f 269/231/224 252/481/205 270/232/225
f 270/232/225 252/481/205 69/233/200
f 265/229/222 459/482/432 267/227/220
f 267/227/220 268/257/245 75/225/218
f 266/226/219 69/207/200 250/209/202
f 266/226/219 250/209/202 267/227/220
f 267/227/220 250/209/202 68/228/221
f 126/35/35 13/34/34 264/483/241
f 126/35/35 264/483/241 263/224/217
f 263/224/217 264/483/241 73/223/216
f 261/222/215 67/204/197 246/484/433
f 261/222/215 246/484/433 263/224/217
f 263/224/217 246/484/433 11/28/28
f 261/222/215 73/223/216 262/247/236
f 261/222/215 262/247/236 260/221/214
f 260/221/214 262/247/236 72/220/213
f 258/219/212 66/201/194 243/202/195
f 258/219/212 243/202/195 260/221/214
f 260/221/214 243/202/195 67/204/197
f 258/219/212 72/220/213 259/242/231
f 258/219/212 259/242/231 257/218/211
f 257/218/211 259/242/231 71/216/209
f 256/217/210 65/195/188 241/485/434
f 256/217/210 241/485/434 257/218/211
f 257/218/211 241/485/434 66/201/194
f 255/215/208 12/31/31 236/193/186
f 255/215/208 236/193/186 251/211/204
f 251/211/204 236/193/186 64/187/180
f 129/39/39 12/31/31 255/215/208
f 129/39/39 255/215/208 254/214/207
f 254/214/207 255/215/208 70/210/203
f 253/213/206 64/187/180 234/189/182
f 253/213/206 234/189/182 249/208/201
f 249/208/201 234/189/182 63/190/183
f 251/211/204 64/187/180 253/213/206
f 251/211/204 253/213/206 252/212/205
f 252/212/205 253/213/206 69/207/200
f 249/208/201 63/190/183 248/486/435
f 249/208/201 248/486/435 250/209/202
f 250/209/202 248/486/435 68/228/221
f 247/206/199 68/228/221 248/486/435
f 247/206/199 248/486/435 231/185/178
f 231/185/178 248/486/435 63/190/183
f 244/205/198 62/182/175 228/487/436
f 244/205/198 228/487/436 245/203/196
f 245/203/196 228/487/436 9/22/22
f 122/29/29 11/28/28 246/484/433
f 122/29/29 246/484/433 245/203/196
f 245/203/196 246/484/433 67/204/197
f 242/199/192 62/182/175 244/205/198
f 242/199/192 244/205/198 243/202/195
f 243/202/195 244/205/198 67/204/197
f 242/199/192 66/201/194 240/198/191
f 242/199/192 240/198/191 226/200/193
f 226/200/193 240/198/191 61/179/172
f 240/198/191 66/201/194 241/485/434
f 240/198/191 241/485/434 239/197/190
f 239/197/190 241/485/434 65/195/188
f 238/196/189 60/175/168 223/488/437
f 238/196/189 223/488/437 239/197/190
f 239/197/190 223/488/437 61/179/172
f 237/194/187 10/25/25 218/173/166
f 237/194/187 218/173/166 233/188/181
f 233/188/181 218/173/166 59/169/162
f 125/33/33 10/25/25 237/194/187
f 125/33/33 237/194/187 236/193/186
f 236/193/186 237/194/187 64/187/180
f 235/191/184 59/169/162 216/171/164
f 235/191/184 216/171/164 232/192/185
f 232/192/185 216/171/164 58/163/156
f 233/188/181 59/169/162 235/191/184
f 233/188/181 235/191/184 234/189/182
f 234/189/182 235/191/184 63/190/183
f 231/185/178 63/190/183 232/192/185
f 231/185/178 232/192/185 230/186/179
f 230/186/179 232/192/185 58/163/156
f 229/184/177 230/186/179 213/165/158
f 213/165/158 230/186/179 58/163/156
f 118/23/23 9/22/22 228/487/436
f 436/489/438 228/487/436 227/183/176
f 227/183/176 228/487/436 62/182/175
f 225/181/174 56/161/154 210/490/439
f 210/490/439 437/491/440 225/181/174
f 225/181/174 62/182/175 226/200/193
f 225/181/174 226/200/193 224/180/173
f 224/180/173 226/200/193 61/179/172
f 222/178/171 55/160/153 209/492/441
f 222/178/171 209/492/441 224/180/173
f 224/180/173 209/492/441 56/161/154
f 222/178/171 61/179/172 223/488/437
f 222/178/171 223/488/437 221/177/170
f 221/177/170 223/488/437 60/175/168
f 220/176/169 54/152/147 208/493/442
f 220/176/169 208/493/442 221/177/170
f 221/177/170 208/493/442 55/160/153
f 219/174/167 7/19/19 205/151/146
f 219/174/167 205/151/146 215/170/163
f 215/170/163 205/151/146 51/147/142
f 121/27/27 7/19/19 219/174/167
f 121/27/27 219/174/167 218/173/166
f 218/173/166 219/174/167 59/169/162
f 217/172/165 51/147/142 203/149/144
f 217/172/165 203/149/144 212/164/157
f 212/164/157 203/149/144 50/141/136
f 215/170/163 51/147/142 217/172/165
f 215/170/163 217/172/165 216/171/164
f 216/171/164 217/172/165 58/163/156
f 214/167/160 50/141/136 201/143/138
f 214/167/160 201/143/138 211/168/161
f 211/168/161 201/143/138 48/144/139
f 212/164/157 50/141/136 214/167/160
f 212/164/157 214/167/160 213/165/158
f 213/165/158 214/167/160 57/166/159
f 402/158/151 47/157/135 199/494/443
f 199/494/443 438/162/155 402/158/151
f 401/156/150 46/155/132 197/495/444
f 401/156/150 197/495/444 403/159/152
f 403/159/152 197/495/444 47/157/135
f 402/158/151 56/161/154 209/492/441
f 402/158/151 209/492/441 403/159/152
f 403/159/152 209/492/441 55/160/153
f 401/156/150 55/160/153 208/493/442
f 401/156/150 208/493/442 400/154/149
f 400/154/149 208/493/442 54/152/147
f 207/153/148 53/400/128 397/496/445
f 207/153/148 397/496/445 400/154/149
f 400/154/149 397/496/445 46/155/132
f 202/148/143 206/130/125 52/127/122
f 117/21/21 8/497/12 206/130/125
f 117/21/21 206/130/125 205/151/146
f 205/151/146 206/130/125 51/147/142
f 204/150/145 52/125/122 398/142/137
f 398/142/137 52/125/122 45/124/121
f 202/148/143 52/127/122 204/150/145
f 202/148/143 204/150/145 203/149/144
f 203/149/144 204/150/145 50/141/136
f 399/145/140 45/124/121 392/498/117
f 399/145/140 392/498/117 200/146/141
f 200/146/141 392/498/117 49/422/116
f 398/142/137 45/124/121 399/145/140
f 398/142/137 399/145/140 201/143/138
f 201/143/138 399/145/140 48/144/139
f 195/135/130 44/107/104 191/115/112
f 195/135/130 191/115/112 198/139/134
f 198/139/134 191/115/112 4/112/109
f 5/499/446 440/500/447 115/138/133
f 115/138/133 199/501/443 198/139/134
f 198/139/134 199/501/443 47/140/135
f 194/131/126 43/103/100 187/108/105
f 194/131/126 187/108/105 196/136/131
f 196/136/131 187/108/105 44/107/104
f 195/135/130 47/140/135 197/502/444
f 195/135/130 197/502/444 196/136/131
f 196/136/131 197/502/444 46/137/132
f 395/134/129 42/503/380 186/106/103
f 395/134/129 186/106/103 396/132/127
f 396/132/127 186/106/103 43/103/100
f 194/131/126 46/137/132 397/504/445
f 194/131/126 397/504/445 396/132/127
f 396/132/127 397/504/445 53/133/128
f 206/130/125 8/497/12 379/505/14
f 206/130/125 379/505/14 394/128/123
f 394/506/123 379/14/14 3/9/9
f 394/506/123 3/9/9 182/101/98
f 394/506/123 182/101/98 393/507/124
f 393/507/124 182/101/98 41/99/96
f 52/125/122 393/129/124 193/126/120
f 193/123/120 393/507/124 41/99/96
f 179/122/119 40/96/93 192/508/448
f 179/122/119 192/508/448 193/123/120
f 193/123/120 192/508/448 45/509/121
f 392/120/117 45/509/121 192/508/448
f 392/120/117 192/508/448 391/121/118
f 391/121/118 192/508/448 40/96/93
f 390/117/114 49/119/116 391/121/118
f 390/117/114 391/121/118 176/118/115
f 176/118/115 391/121/118 40/96/93
f 191/115/112 44/107/104 189/510/449
f 191/115/112 189/510/449 190/113/110
f 190/113/110 189/510/449 37/88/85
f 190/113/110 37/88/85 173/92/89
f 190/113/110 173/92/89 114/114/111
f 114/114/111 173/92/89 1/4/4
f 171/111/108 37/88/85 189/510/449
f 171/111/108 189/510/449 188/109/106
f 188/109/106 189/510/449 44/107/104
f 187/108/105 43/103/100 185/105/102
f 187/108/105 185/105/102 188/109/106
f 188/109/106 185/105/102 36/110/107
f 186/106/103 42/503/380 183/511/382
f 186/106/103 183/511/382 184/104/101
f 184/104/101 183/511/382 34/512/372
f 184/104/101 34/512/372 167/513/450
f 184/104/101 167/513/450 185/105/102
f 185/105/102 167/513/450 36/110/107
f 182/101/98 3/9/9 111/7/7
f 182/101/98 111/7/7 181/102/99
f 181/102/99 111/7/7 2/6/6
f 180/100/97 41/99/96 181/102/99
f 180/100/97 181/102/99 162/81/78
f 162/81/78 181/102/99 2/6/6
f 180/100/97 31/77/74 160/514/451
f 180/100/97 160/514/451 178/98/95
f 178/98/95 160/514/451 30/73/70
f 177/97/94 40/96/93 179/122/119
f 177/97/94 179/122/119 178/98/95
f 178/98/95 179/122/119 41/99/96
f 177/97/94 30/73/70 159/515/452
f 177/97/94 159/515/452 175/95/92
f 175/95/92 159/515/452 28/93/90
f 174/94/91 39/116/113 176/118/115
f 174/94/91 176/118/115 175/95/92
f 175/95/92 176/118/115 40/96/93
f 173/92/89 37/88/85 169/90/87
f 173/92/89 169/90/87 172/91/88
f 172/91/88 169/90/87 38/516/405
f 172/91/88 38/516/405 389/517/404
f 172/91/88 389/517/404 377/5/5
f 377/5/5 389/517/404 26/518/65
f 168/89/86 37/88/85 171/111/108
f 168/89/86 171/111/108 164/83/80
f 164/83/80 171/111/108 36/110/107
f 168/89/86 35/82/79 170/519/406
f 168/89/86 170/519/406 169/90/87
f 169/90/87 170/519/406 38/516/405
f 166/86/83 36/110/107 167/513/450
f 166/86/83 167/513/450 163/87/84
f 163/87/84 167/513/450 34/512/372
f 164/83/80 36/110/107 166/86/83
f 164/83/80 166/86/83 165/84/81
f 165/84/81 166/86/83 33/428/399
f 162/81/78 2/6/6 375/2/2
f 162/81/78 375/2/2 388/80/77
f 388/80/77 375/2/2 27/1/1
f 387/79/76 32/520/353 161/78/75
f 387/79/76 161/78/75 388/80/77
f 388/80/77 161/78/75 31/77/74
f 161/78/75 32/520/353 386/521/409
f 161/78/75 386/521/409 385/76/73
f 385/76/73 386/521/409 108/75/72
f 383/74/71 30/73/70 160/514/451
f 383/74/71 160/514/451 385/76/73
f 385/76/73 160/514/451 31/77/74
f 383/74/71 108/75/72 384/522/411
f 383/74/71 384/522/411 158/72/69
f 158/72/69 384/522/411 29/70/67
f 157/71/68 28/93/90 159/515/452
f 157/71/68 159/515/452 158/72/69
f 158/72/69 159/515/452 30/73/70
f 156/385/66 25/384/366 151/64/62
f 156/385/66 151/64/62 154/66/64
f 154/66/64 151/64/62 24/63/61
f 153/373/356 27/1/1 155/523/453
f 153/373/356 155/523/453 154/524/64
f 154/524/64 155/523/453 26/518/65
f 151/64/62 25/384/366 152/361/345
f 151/64/62 152/361/345 149/62/60
f 149/62/60 152/361/345 23/61/59
f 147/60/58 150/525/454 149/62/60
f 150/525/454 449/526/455 149/62/60
f 147/60/58 23/61/59 148/341/325
f 147/60/58 148/341/325 146/58/56
f 146/58/56 148/341/325 21/56/54
f 144/57/55 109/310/294 412/332/316
f 144/57/55 412/332/316 146/58/56
f 146/58/56 412/332/316 22/59/57
f 140/55/53 20/459/423 145/311/295
f 140/55/53 145/311/295 142/53/51
f 142/53/51 145/311/295 109/310/294
f 142/53/51 109/310/294 144/57/55
f 142/53/51 144/57/55 143/54/52
f 143/54/52 144/57/55 21/56/54
f 136/51/49 18/286/272 141/288/274
f 136/51/49 141/288/274 138/49/47
f 138/49/47 141/288/274 20/470/423
f 138/49/47 20/470/423 140/527/53
f 138/49/47 140/527/53 139/50/48
f 139/50/48 140/527/53 19/463/50
f 132/47/45 16/262/250 137/264/252
f 132/47/45 137/264/252 134/45/43
f 134/45/43 137/264/252 18/286/272
f 134/45/43 18/286/272 136/51/49
f 134/45/43 136/51/49 135/46/44
f 135/46/44 136/51/49 17/48/46
f 127/43/36 14/235/37 133/237/227
f 127/43/36 133/237/227 130/41/40
f 130/41/40 133/237/227 16/262/250
f 130/41/40 16/262/250 132/47/45
f 130/41/40 132/47/45 131/42/41
f 131/42/41 132/47/45 15/44/42
f 128/38/38 11/28/28 123/30/30
f 128/38/38 123/30/30 129/39/39
f 129/39/39 123/30/30 12/31/31
f 126/35/35 11/28/28 128/38/38
f 126/35/35 128/38/38 127/36/36
f 127/36/36 128/38/38 14/37/37
f 124/32/32 9/22/22 119/24/24
f 124/32/32 119/24/24 125/33/33
f 125/33/33 119/24/24 10/25/25
f 122/29/29 9/22/22 124/32/32
f 122/29/29 124/32/32 123/30/30
f 123/30/30 124/32/32 12/31/31
f 120/26/26 6/16/16 116/18/18
f 120/26/26 116/18/18 121/27/27
f 121/27/27 116/18/18 7/19/19
f 118/23/23 6/16/16 120/26/26
f 118/23/23 120/26/26 119/24/24
f 119/24/24 120/26/26 10/25/25
f 382/20/20 5/528/446 380/529/15
f 382/20/20 380/529/15 117/21/21
f 117/21/21 380/529/15 8/497/12
f 381/530/456 382/20/20 116/18/18
f 116/18/18 382/20/20 7/19/19
f 380/15/15 5/499/446 115/138/133
f 380/15/15 115/138/133 378/13/13
f 378/13/13 115/138/133 4/112/109
f 378/13/13 4/112/109 113/10/10
f 378/13/13 113/10/10 379/14/14
f 379/14/14 113/10/10 3/9/9
f 113/10/10 4/112/109 114/114/111
f 113/10/10 114/114/111 112/11/11
f 112/11/11 114/114/111 1/4/4
f 111/7/7 3/9/9 112/11/11
f 111/7/7 112/11/11 110/8/8
f 110/8/8 112/11/11 1/4/4
f 377/5/5 26/518/65 155/523/453
f 377/5/5 155/523/453 376/3/3
f 376/3/3 155/523/453 27/1/1
f 375/2/2 2/6/6 110/8/8
f 375/2/2 110/8/8 376/3/3
f 376/3/3 110/8/8 1/4/4
f 382/20/20 381/530/456 5/528/446
f 115/138/133 434/531/457 199/501/443
f 56/161/154 438/162/155 210/490/439
f 225/181/174 437/491/440 227/183/176
f 439/532/458 228/487/436 436/489/438
f 116/18/18 435/17/17 381/530/456
f 118/23/23 228/487/436 439/532/458
f 115/138/133 440/500/447 434/531/457
f 444/429/400 166/86/83 445/85/82
f 422/399/379 446/427/398 442/432/402
f 422/399/379 447/433/403 414/390/370
f 105/354/338 409/378/360 448/377/359
f 149/62/60 449/526/455 24/63/61
f 147/60/58 22/59/57 150/525/454
f 412/332/316 451/455/420 22/59/57
f 343/448/413 359/351/335 454/449/414
f 373/374/355 452/441/407 361/533/336
f 453/353/337 455/534/459 104/350/334
f 154/524/64 450/535/63 153/373/356
f 104/350/334 455/534/459 360/450/415
f 431/415/389 456/421/395 265/229/222
f 301/281/267 457/536/460 283/417/391
f 458/478/431 464/537/461 301/281/267
f 459/482/432 460/538/462 267/227/220
f 267/227/220 460/538/462 268/257/245
f 75/225/218 461/539/463 284/255/243
f 75/225/218 462/258/246 461/539/463
f 74/420/394 432/405/383 463/416/390
f 301/281/267 464/537/461 457/536/460
