# Blender 4.4.3
# www.blender.org
mtllib cave_map_large.mtl
o cave_map_large.014
v -114.145103 4.774294 -278.875854
v -116.408226 4.338639 -278.902008
v -116.320068 4.649206 -274.899933
v -114.182930 4.928091 -274.867310
v -114.428879 6.405968 -269.437012
v -116.603073 6.497296 -270.810516
v -114.265701 5.250912 -270.484802
v -116.452583 5.345785 -270.514893
v -114.373039 8.186208 -269.106293
v -116.801010 7.961754 -270.466766
v -114.364594 9.892165 -269.836670
v -116.627716 9.892165 -269.862823
v -114.340775 11.111855 -271.897583
v -116.603897 11.111855 -271.923737
v -114.306526 11.598122 -274.860992
v -116.569641 11.409930 -274.887115
v -114.145103 11.550626 -278.875854
v -116.408226 11.327246 -278.902008
v -114.084320 11.340372 -284.134979
v -116.347443 11.340372 -284.161102
v -114.012009 10.387614 -286.359283
v -116.265808 10.387614 -286.290375
v -116.182449 8.436327 -286.843506
v -113.929169 8.436327 -286.941193
v -116.224846 7.039035 -286.478668
v -113.970619 7.283740 -286.824463
v -114.076202 5.484054 -285.962494
v -116.355774 4.669524 -283.814209
v -125.426369 4.854945 -275.910065
v -127.224197 4.753820 -275.863617
v -123.334335 4.407102 -277.099762
v -123.189728 4.791442 -279.660980
v -120.942146 4.407413 -278.290314
v -118.671356 4.336989 -278.928162
v -118.618507 5.445689 -283.499603
v -107.481613 4.962676 -275.811127
v -106.847725 5.072623 -275.740723
v -109.578384 4.791441 -282.326508
v -109.704514 4.928955 -276.954742
v -111.888916 5.040379 -278.250519
v -111.817657 5.274328 -284.414551
v -125.433594 4.854945 -275.285065
v -127.230644 4.756568 -275.305725
v -123.359627 4.407102 -274.911682
v -121.096069 4.407413 -274.923065
v -118.832764 4.454160 -274.913269
v -107.603271 4.970444 -274.695709
v -106.672897 5.148582 -274.929535
v -109.836441 4.939590 -274.751892
v -112.026581 5.061540 -274.819305
v -125.439438 5.124844 -274.779419
v -123.385468 4.791442 -272.676422
v -121.508766 4.790605 -271.531464
v -118.639465 5.440659 -270.544952
v -109.853043 4.958645 -273.205078
v -127.237091 4.756568 -274.747833
v -127.238266 5.364011 -274.646484
v -125.442207 5.739338 -274.539673
v -123.379456 5.996747 -273.195862
v -121.523575 6.335986 -270.250275
v -118.895424 6.480251 -269.492401
v -106.807228 5.394620 -274.004242
v -110.284622 5.228079 -273.173370
v -111.541649 4.834441 -271.677582
v -111.729942 6.163568 -270.413971
v -125.440857 6.631972 -274.656738
v -127.235146 5.971455 -274.916534
v -123.221191 7.356645 -272.987915
v -121.527100 7.872032 -269.945160
v -118.899284 8.186208 -269.158600
v -107.849724 6.067832 -273.796906
v -106.808426 6.025875 -273.900848
v -110.122757 6.592444 -272.965607
v -111.594910 7.872032 -270.115967
v -127.234489 6.578898 -274.972809
v -125.482674 7.309916 -274.655548
v -123.358727 8.339310 -272.237457
v -121.136673 9.405593 -271.410797
v -118.890839 9.892165 -269.889008
v -106.489639 7.221268 -273.694366
v -107.539536 7.518703 -272.847412
v -109.811836 8.299701 -272.078888
v -112.084183 9.405593 -271.306183
v -126.811462 7.566649 -274.780304
v -125.587601 8.222746 -274.421600
v -123.485168 9.315597 -272.614807
v -121.340729 9.940559 -273.027405
v -118.867020 11.111855 -271.949890
v -106.487488 7.852521 -273.880524
v -107.536407 8.464657 -273.117035
v -109.807396 9.438848 -272.462921
v -112.078156 10.938101 -271.828430
v -126.029556 8.494747 -275.547455
v -126.947128 7.539261 -275.311920
v -123.704010 9.007524 -274.775543
v -121.096443 10.966684 -274.891266
v -118.832764 11.409930 -274.913269
v -106.878716 9.241981 -274.611084
v -106.475647 7.581947 -274.905365
v -109.142578 10.557959 -274.572845
v -112.043961 10.289791 -274.786652
v -126.024826 8.491642 -276.172455
v -127.180984 7.432736 -275.953339
v -123.641670 8.692474 -277.018524
v -120.942513 10.966684 -278.258514
v -118.671356 11.327246 -278.928162
v -106.751373 9.241981 -275.678680
v -106.463799 7.581947 -275.930237
v -109.003296 10.557959 -276.673157
v -111.889496 10.289791 -278.199951
v -125.603271 8.027248 -276.503326
v -126.916824 7.368382 -276.407898
v -123.190376 9.438848 -279.604462
v -120.915443 10.210733 -280.600067
v -118.619171 11.111732 -283.442657
v -106.336426 8.127264 -277.000092
v -107.363625 8.464657 -278.115814
v -109.579414 9.438848 -282.236633
v -111.832214 10.437151 -283.155731
v -124.723236 7.478007 -277.250519
v -127.213661 6.578898 -276.775574
v -122.717880 8.299702 -279.241364
v -120.902237 9.405592 -281.742462
v -118.599518 9.892163 -285.142670
v -106.244293 7.916556 -277.480072
v -107.339340 7.518702 -280.217377
v -109.571861 8.299701 -282.890045
v -111.798721 9.405591 -286.053375
v -125.042351 6.631972 -277.083954
v -127.213005 5.971455 -276.831848
v -122.715103 7.156585 -279.482239
v -120.898697 7.872031 -282.049286
v -118.593384 8.186206 -285.673431
v -106.180420 6.782015 -277.546295
v -107.331482 6.631971 -280.896820
v -109.567436 7.156585 -283.273041
v -111.770737 7.909129 -286.270721
v -125.036713 5.739338 -277.571625
v -127.213661 5.364011 -276.775574
v -122.717705 5.996746 -279.256805
v -120.902039 6.335985 -281.759613
v -118.586189 6.289225 -284.951996
v -107.338486 5.739337 -280.290802
v -106.215408 5.567128 -277.632660
v -109.571579 5.996746 -282.914581
v -111.793335 6.391382 -285.953217
v -125.419128 4.853235 -276.536499
v -127.217751 4.756568 -276.421539
v -120.908188 4.790604 -281.228424
v -107.362312 4.853235 -278.229828
v -106.006340 4.959685 -277.116730
v -129.146484 7.525670 -275.495819
v -129.137085 7.277683 -274.864136
v -129.154694 7.370143 -276.044525
v -129.160797 7.014394 -276.452362
v -129.164429 6.626681 -276.694489
v -129.163498 6.019047 -276.629425
v -129.164581 5.411800 -276.697968
v -129.160904 4.923947 -276.449493
v -129.154984 4.802485 -276.051971
v -129.146820 4.800899 -275.503693
v -129.139648 4.876705 -275.024445
v -129.136078 5.406271 -274.786499
v -129.136200 6.013748 -274.797211
v -129.137711 6.621499 -274.902863
v -106.036041 5.376214 -275.043091
v -105.983810 6.025874 -275.205963
v -105.682579 7.221270 -274.841827
v -105.436508 7.193534 -275.740082
v -105.863419 6.025874 -275.670990
v -106.072014 5.207361 -275.554016
v -116.381813 4.892164 -281.187714
v -115.250252 5.109991 -281.174652
v -115.276672 4.556467 -278.888947
v -114.105316 5.109991 -282.318268
v -116.195854 4.640728 -276.284882
v -115.127289 4.780170 -276.268585
v -115.251495 4.788649 -274.883636
v -114.058716 4.919612 -276.252289
v -115.317757 5.136938 -272.691071
v -116.386322 4.997496 -272.707428
v -115.359146 5.298347 -270.499847
v -114.224319 5.089500 -272.676056
v -114.347290 5.828440 -269.960907
v -115.515976 6.451632 -270.123749
v -115.434387 5.874104 -270.647644
v -116.527832 5.921542 -270.662689
v -114.527847 7.138196 -269.265167
v -115.496834 8.186208 -269.791138
v -115.614944 7.183860 -269.951874
v -116.702042 7.229527 -270.638641
v -114.368820 9.039187 -269.471466
v -115.496155 9.892165 -269.849762
v -115.500374 9.039187 -269.484589
v -116.624176 9.039187 -270.169434
v -115.484245 10.502009 -270.880219
v -114.352684 10.502009 -270.867157
v -115.472336 11.111855 -271.910645
v -116.615807 10.502009 -270.893280
v -115.455208 11.260893 -273.392365
v -114.323654 11.354987 -273.379272
v -115.438080 11.504025 -274.874023
v -116.586769 11.260893 -273.405426
v -115.307060 11.462682 -276.259369
v -114.175507 11.574373 -276.246307
v -115.276672 11.438935 -278.888947
v -116.438622 11.368587 -276.272430
v -115.246277 11.445498 -281.518494
v -114.114716 11.445498 -281.505402
v -115.215881 11.340372 -284.148041
v -116.377838 11.333808 -281.531586
v -115.200348 10.845444 -285.491852
v -114.068787 10.845444 -285.478790
v -115.138908 10.387614 -286.324860
v -116.331909 10.845444 -285.504913
v -115.098740 9.518482 -286.562103
v -116.225380 9.518482 -286.513275
v -115.055809 8.436327 -286.892365
v -113.972107 9.518482 -286.610992
v -115.069847 7.583350 -286.784363
v -116.196487 7.583350 -286.735504
v -115.097862 7.307536 -286.781525
v -113.943207 7.583350 -286.833221
v -116.329338 5.981877 -285.694427
v -115.146149 6.426242 -286.283295
v -115.215988 5.076788 -284.888367
v -114.018906 6.402445 -286.326233
v -124.461182 4.630168 -277.520966
v -124.469955 4.631023 -276.761932
v -123.202095 4.599272 -278.590515
v -122.065933 4.599428 -278.975616
v -122.078308 4.407258 -277.905182
v -120.925171 4.599009 -279.759369
v -122.048958 4.791023 -280.444702
v -119.659500 4.563797 -281.397980
v -119.686508 4.372201 -279.061951
v -118.644928 4.891338 -281.213898
v -119.633087 5.118145 -283.683685
v -117.486954 5.445689 -283.486511
v -117.513367 4.891338 -281.200775
v -117.539795 4.337814 -278.915100
v -106.863312 5.039323 -276.407928
v -107.376259 4.960221 -277.022797
v -105.846153 4.959685 -276.721375
v -107.165092 5.022027 -275.868347
v -109.609406 4.900073 -279.642242
v -108.501373 4.930969 -277.593903
v -108.619682 4.908086 -276.381561
v -110.733650 4.915911 -280.288483
v -111.853287 5.157352 -281.332520
v -110.793793 4.988309 -277.602753
v -112.981384 5.024311 -281.645172
v -113.017014 4.907336 -278.563202
v -124.482605 4.631023 -275.667877
v -123.346985 4.407102 -276.005737
v -122.253540 4.375700 -276.011871
v -122.227852 4.407258 -274.917389
v -121.117371 4.375813 -276.396942
v -119.875099 4.392862 -276.012543
v -119.964417 4.430787 -274.918182
v -118.740074 4.367178 -276.299042
v -117.329666 4.714773 -276.300262
v -117.420097 4.746197 -274.914612
v -107.227577 5.016845 -275.296753
v -107.596123 4.968445 -275.452972
v -107.190353 5.004214 -274.668976
v -106.709534 5.163703 -275.440460
v -108.739334 4.915290 -275.479706
v -109.720932 4.933543 -275.215271
v -108.746483 4.917287 -274.722412
v -110.931519 5.000565 -274.785614
v -110.815903 4.994489 -275.260040
v -111.905174 5.053843 -275.908081
v -112.983307 4.987106 -275.936920
v -113.104759 4.994815 -274.843323
v -124.498436 4.765974 -274.297821
v -123.372543 4.599273 -273.794037
v -122.240768 4.599429 -273.799713
v -122.447113 4.791024 -272.103943
v -121.302414 4.599010 -273.227264
v -120.170761 4.622382 -273.222382
v -120.042526 5.154932 -271.039825
v -118.579796 5.141923 -272.737152
v -117.479767 5.044932 -272.722443
v -107.661583 4.904967 -274.281464
v -109.844742 4.949119 -273.978485
v -108.751549 4.927270 -274.310944
v -111.784119 4.947990 -273.248444
v -110.939819 5.010092 -274.012238
v -110.697342 4.896544 -272.441315
v -112.862289 4.881267 -273.272430
v -123.382462 5.394094 -272.936127
v -124.508354 5.560795 -273.439911
v -124.511353 4.958144 -273.180206
v -121.516174 5.563294 -270.890900
v -122.206879 6.470788 -271.735626
v -122.444107 5.393675 -272.363678
v -118.721054 6.018187 -270.021027
v -120.209503 6.408119 -269.871307
v -119.983246 6.010608 -270.402679
v -117.702858 6.546505 -270.153839
v -117.627609 5.970749 -270.006012
v -117.546021 5.393221 -270.529907
v -107.327408 5.284910 -273.992676
v -108.060562 4.910192 -273.970184
v -109.910034 5.375432 -273.034271
v -109.115585 4.917829 -273.742584
v -111.635796 5.499003 -271.045746
v -110.754341 5.313331 -272.270477
v -111.166077 5.413754 -271.948639
v -112.997826 5.707239 -270.449371
v -112.903679 5.042675 -271.081207
v -113.079407 6.284767 -269.925476
v -124.510071 6.314360 -273.291229
v -123.153954 6.858833 -273.099396
v -124.282875 7.178541 -273.194855
v -122.274109 6.968600 -271.624115
v -121.525337 7.104009 -270.097717
v -122.363235 7.627906 -271.467072
v -118.897354 7.333230 -269.325500
v -120.213188 8.029120 -269.551880
v -120.211258 7.176141 -269.718781
v -117.900787 8.010964 -269.810089
v -117.801819 7.278735 -269.981964
v -107.329071 6.046854 -273.848846
v -107.328476 5.731226 -273.900604
v -106.807831 5.710248 -273.952545
v -107.848663 5.621514 -273.888977
v -109.224419 5.452284 -273.477081
v -110.351852 5.725891 -273.061859
v -108.986237 6.330139 -273.381256
v -111.233307 5.911563 -271.837128
v -111.819077 6.822874 -270.256927
v -110.700043 7.514307 -271.385834
v -113.168541 6.944073 -269.768433
v -112.983978 8.029120 -269.611115
v -124.335060 7.559349 -273.027313
v -123.289955 7.847978 -272.612701
v -124.795204 7.871864 -273.367401
v -122.458832 8.085868 -271.090485
v -122.263611 8.852646 -271.823334
v -121.331879 8.638812 -270.677979
v -118.895065 9.039187 -269.523804
v -120.013756 9.648879 -270.649933
v -120.017975 8.795901 -270.284698
v -117.759277 9.892165 -269.875916
v -117.755737 9.039187 -270.182495
v -106.807831 6.341500 -273.952545
v -107.328476 6.362481 -273.900604
v -107.853416 6.511198 -273.477142
v -107.014587 7.369986 -273.270874
v -108.989937 6.773503 -273.061493
v -109.808502 7.728142 -272.367279
v -108.675674 7.909202 -272.463165
v -110.703369 8.085866 -271.097412
v -110.948013 8.852646 -271.692535
v -111.839554 8.638812 -270.711060
v -113.228607 8.795899 -270.206207
v -113.224396 9.648879 -270.571442
v -124.689987 8.347994 -273.404022
v -123.421951 8.827454 -272.426117
v -124.412666 9.203398 -272.819122
v -122.261391 9.422220 -272.015350
v -122.363426 9.689704 -272.823639
v -121.238708 9.673077 -272.219086
v -118.878929 10.502009 -270.919464
v -120.001846 10.258723 -271.680328
v -120.103874 10.526207 -272.488678
v -117.747368 10.502009 -270.906372
v -117.735458 11.111855 -271.936829
v -106.488571 7.536895 -273.787445
v -107.013512 7.685612 -273.363983
v -107.537964 7.991681 -272.982208
v -107.011948 8.158588 -273.498779
v -108.674126 8.382179 -272.597961
v -109.809616 8.869274 -272.270905
v -108.671906 8.951752 -272.789948
v -110.945793 9.422218 -271.884552
v -112.081169 10.171847 -271.567291
v -110.942772 10.188475 -272.145691
v -113.221375 10.415134 -270.832550
v -113.209465 11.024977 -271.863007
v -123.801559 8.814750 -273.982819
v -124.754608 8.689514 -274.520905
v -122.351189 9.766733 -273.882294
v -121.218590 10.453621 -273.959351
v -122.229042 10.279796 -274.814240
v -118.849892 11.260893 -273.431610
v -120.086746 10.675244 -273.970367
v -119.964600 11.188308 -274.902252
v -117.718330 11.260893 -273.418518
v -117.701202 11.409930 -274.900238
v -106.677177 8.411964 -274.758209
v -106.683105 8.547252 -274.245819
v -106.481567 7.717235 -274.392975
v -107.207565 8.853319 -273.864044
v -108.343056 9.340415 -273.537018
v -109.474983 9.998403 -273.517883
v -108.010651 9.899970 -274.591980
v -110.593269 10.423875 -274.679779
v -110.925674 9.864320 -273.624817
v -112.061058 10.613947 -273.307526
v -113.192368 10.700823 -273.342133
v -113.175240 10.943955 -274.823822
v -125.574387 9.407923 -275.347198
v -123.359764 9.463238 -275.719543
v -124.861954 8.570766 -276.722748
v -122.216393 10.279796 -275.908295
v -121.079407 10.966684 -276.364746
v -122.199371 10.279796 -277.381744
v -119.837059 11.188308 -275.986816
v -118.701744 11.368587 -276.298615
v -119.686798 11.146964 -279.036713
v -117.570183 11.368587 -276.285522
v -117.539795 11.327246 -278.915100
v -106.869957 9.241981 -275.368439
v -106.668427 8.411964 -275.515625
v -106.662506 8.411964 -276.028046
v -106.469727 7.581947 -275.417816
v -108.001892 9.899970 -275.349335
v -109.129929 10.557959 -275.666901
v -107.877327 9.899970 -276.175934
v -110.473480 10.423875 -275.093597
v -111.916580 10.289791 -275.856964
v -110.446396 10.423875 -277.436554
v -113.047699 10.943955 -275.908356
v -113.017303 10.920209 -278.537872
v -123.203430 9.515878 -278.475037
v -124.329681 8.951754 -278.947632
v -124.742920 8.471357 -277.384308
v -122.066444 10.202766 -278.931488
v -120.928978 10.588709 -279.429291
v -122.052910 9.824790 -280.102264
v -119.665283 10.768989 -280.898407
v -118.645264 11.219488 -281.185394
v -119.639191 10.661232 -283.155640
v -117.513695 11.219488 -281.172333
v -117.483307 11.226052 -283.801910
v -107.057495 8.853319 -276.897247
v -106.543900 8.547252 -276.339386
v -106.850021 8.158589 -277.557953
v -106.345840 7.966969 -276.185242
v -108.183456 9.511309 -277.394501
v -109.291351 9.998403 -279.454865
v -108.471527 8.951752 -280.176239
v -110.734459 9.864320 -280.218292
v -111.860855 10.363471 -280.677856
v -110.705811 9.937999 -282.696198
v -112.988663 10.993887 -281.015778
v -112.958267 10.888762 -283.645355
v -124.093430 8.382179 -278.766083
v -123.857941 7.909202 -278.519440
v -122.954132 8.869274 -279.422882
v -122.046310 9.422220 -280.673462
v -121.810059 8.852646 -280.491913
v -120.908844 9.808163 -281.171265
v -119.629364 10.051449 -284.005646
v -119.738731 9.648877 -284.493622
v -118.609344 10.501947 -284.292633
v -117.467773 10.731123 -285.145691
v -117.457947 10.121341 -285.995697
v -106.251495 8.061811 -277.292755
v -106.841064 7.842963 -278.333282
v -107.351479 7.991680 -279.166595
v -106.828918 7.369985 -279.384064
v -108.455597 7.909201 -281.553711
v -108.467743 8.382179 -280.502930
v -109.575638 8.869274 -282.563354
v -110.685287 8.852645 -284.471710
v -110.689072 9.422218 -284.144989
v -111.815475 9.921371 -284.604553
v -112.941521 10.372981 -285.094177
v -112.903351 9.915152 -286.164459
v -123.856544 7.337643 -278.639862
v -123.855576 6.894279 -278.723724
v -122.716492 7.728143 -279.361786
v -121.808289 8.085867 -280.645325
v -121.806900 7.514308 -280.765778
v -120.900467 8.638811 -281.895874
v -119.735664 8.795899 -284.759003
v -119.732841 8.029119 -285.002930
v -118.596451 9.039186 -285.408051
v -117.397842 9.289306 -286.111969
v -117.382362 8.223305 -286.386017
v -106.824989 6.926620 -279.723785
v -106.191162 7.438308 -277.572784
v -106.824036 6.610993 -279.806000
v -107.335411 7.075336 -280.557098
v -108.449463 6.894278 -282.084930
v -108.453384 7.337643 -281.745209
v -109.569649 7.728141 -283.081573
v -110.680260 7.514307 -284.907135
v -110.682480 8.085864 -284.715668
v -111.782715 8.675909 -286.120178
v -112.865128 9.046019 -286.508636
v -112.852219 8.279239 -286.607880
v -123.856880 6.314359 -278.610992
v -123.853256 5.868042 -278.924835
v -122.716400 6.576665 -279.369507
v -121.808571 6.746285 -280.620941
v -121.809875 6.166366 -280.508179
v -120.900375 7.104008 -281.904449
v -119.735916 7.176140 -284.737518
v -119.738571 6.408118 -284.507233
v -118.596451 7.333229 -285.408051
v -117.397842 7.583350 -286.111969
v -117.411819 6.828828 -285.886932
v -107.334976 6.185654 -280.593811
v -106.827545 6.164676 -279.503021
v -106.211792 6.174571 -277.623688
v -106.828491 5.849049 -279.420807
v -108.455032 5.868041 -281.602692
v -108.451530 6.314359 -281.905670
v -109.569504 6.576664 -283.093842
v -111.782051 7.141107 -286.128571
v -110.682922 6.746284 -284.676849
v -110.684998 6.166365 -284.497589
v -112.866257 7.426261 -286.499908
v -112.881859 6.856111 -286.366241
v -122.953712 5.394094 -279.458893
v -124.195328 5.292364 -278.424652
v -121.812943 5.393675 -280.242615
v -120.905121 5.563293 -281.493988
v -119.748070 5.890837 -283.685699
v -118.609016 5.962970 -284.321136
v -117.470978 5.479374 -284.383087
v -106.840408 5.434772 -278.390289
v -107.350403 5.296286 -279.260315
v -106.849373 4.971898 -277.614960
v -106.146347 5.036876 -277.462189
v -109.574982 5.394094 -282.620544
v -108.458435 5.265388 -281.308624
v -108.470345 4.822338 -280.278137
v -110.698029 5.032885 -283.370514
v -110.694618 5.635537 -283.664581
v -111.808037 5.805157 -285.247589
v -112.934769 5.937717 -285.957855
v -112.941597 5.360008 -285.087616
v -106.388489 5.256259 -274.408936
v -106.777290 4.952078 -274.407928
v -106.242218 5.065942 -275.016449
v -106.077927 7.221268 -274.295197
v -106.077927 6.905642 -274.295197
v -105.743332 6.792720 -274.709442
v -106.396118 6.025875 -274.553436
v -106.482651 7.401608 -274.299896
v -106.070938 7.401607 -274.900696
v -106.395523 5.710248 -274.605133
v -105.983810 5.710247 -275.205963
v -105.941132 7.823497 -276.295197
v -106.059082 7.401607 -275.925568
v -105.932167 7.655964 -276.370392
v -105.846153 7.527354 -276.721405
v -105.464783 6.798845 -275.694611
v -105.656868 6.782015 -276.254303
v -105.863419 5.710247 -275.670990
v -105.656860 5.567129 -276.254242
v -105.676392 6.174571 -276.302460
v -105.729858 5.079997 -276.434418
v -106.423431 5.130422 -275.711090
v -105.761490 7.216346 -275.327789
v -106.065010 7.401607 -275.413147
v -105.750443 6.832928 -275.250732
v -106.059875 6.103626 -275.582855
v -106.098679 5.725137 -275.513214
v -106.398094 5.078652 -275.454803
v -106.006340 7.684466 -277.116669
v -105.727264 7.170426 -276.427948
vn 0.1232 0.9718 0.2010
vn -0.0969 0.9924 0.0758
vn -0.0905 0.9921 0.0869
vn -0.1209 0.9920 0.0356
vn 0.0016 0.9979 0.0650
vn -0.0877 0.9945 0.0573
vn -0.0386 0.9976 -0.0574
vn -0.1855 0.9799 0.0738
vn -0.0207 0.9967 -0.0786
vn -0.1276 0.9879 -0.0887
vn -0.1327 0.9903 -0.0419
vn -0.1062 0.6237 -0.7744
vn -0.0407 0.9924 -0.1165
vn -0.0403 0.9866 -0.1579
vn 0.0365 0.5831 -0.8116
vn 0.1024 0.4423 -0.8910
vn 0.1162 0.6763 -0.7274
vn 0.4877 0.4608 -0.7415
vn -0.0708 0.0604 -0.9957
vn 0.2530 0.2287 -0.9400
vn -0.2588 -0.2718 -0.9269
vn -0.0343 -0.0969 -0.9947
vn 0.1505 0.1867 -0.9708
vn 0.4903 0.1757 -0.8536
vn 0.0021 0.1453 -0.9894
vn 0.5137 0.1867 -0.8374
vn 0.0114 0.2300 -0.9731
vn -0.2195 -0.5955 -0.7728
vn -0.2879 -0.3757 -0.8809
vn 0.0087 -0.6598 -0.7514
vn 0.1146 -0.4162 -0.9020
vn 0.2805 -0.0543 -0.9583
vn 0.2594 0.2846 -0.9229
vn 0.0059 -0.8606 -0.5093
vn -0.0223 -0.8603 -0.5094
vn -0.0763 -0.9572 -0.2792
vn 0.0425 -0.9906 -0.1304
vn -0.2134 -0.9637 -0.1606
vn 0.0036 -0.9501 -0.3120
vn -0.2007 -0.9763 -0.0808
vn 0.0897 -0.9957 0.0234
vn -0.2104 -0.9776 0.0027
vn 0.0834 -0.9946 -0.0618
vn -0.1992 -0.9800 0.0016
vn 0.0490 -0.9986 0.0193
vn -0.1961 -0.9799 0.0369
vn 0.0982 -0.9952 0.0044
vn -0.2187 -0.9553 0.1987
vn -0.0018 -0.9087 0.4173
vn -0.2237 -0.8954 0.3850
vn -0.0023 -0.9808 0.1951
vn -0.1767 -0.6418 0.7463
vn 0.0228 -0.6189 0.7851
vn 0.0398 -0.2775 0.9599
vn 0.2149 -0.0687 0.9742
vn 0.0432 -0.0845 0.9955
vn -0.1135 -0.0762 0.9906
vn 0.0799 0.0935 0.9924
vn 0.2294 0.4618 0.8568
vn 0.1296 0.2267 0.9653
vn 0.2508 0.6839 0.6851
vn 0.1373 0.5572 0.8189
vn -0.0090 0.7627 0.6466
vn -0.0551 0.4311 0.9006
vn 0.0244 0.8762 0.4814
vn -0.0040 0.9999 0.0097
vn 0.0881 0.9961 0.0003
vn 0.2245 0.9225 0.3139
vn 0.3757 0.8998 0.2218
vn 0.2114 0.9774 0.0017
vn 0.1075 0.9928 0.0529
vn 0.1160 0.9795 0.1647
vn 0.5646 0.4303 0.7043
vn 0.0747 0.9853 0.1535
vn 0.0467 0.9964 0.0702
vn 0.1138 0.9863 0.1191
vn 0.5544 0.7113 0.4320
vn -0.0537 0.9793 0.1950
vn -0.0096 0.9966 0.0819
vn -0.1716 0.9579 0.2303
vn -0.0632 0.8795 0.4717
vn 0.3591 0.9123 0.1969
vn -0.0218 0.9971 0.0729
vn 0.0463 0.9830 0.1779
vn -0.1196 0.9919 -0.0425
vn -0.0038 0.9999 0.0113
vn -0.0635 0.9971 -0.0416
vn 0.0148 0.9996 0.0257
vn -0.0420 0.9914 -0.1242
vn -0.3553 0.8377 0.4149
vn 0.0368 0.9988 -0.0316
vn -0.2985 0.9430 0.1473
vn -0.3246 0.9364 0.1333
vn 0.0074 0.9998 -0.0203
vn -0.0167 0.9999 -0.0034
vn 0.1072 0.9942 0.0032
vn 0.0245 0.9990 0.0382
vn -0.0548 0.9963 0.0669
vn -0.1129 0.9936 -0.0015
vn -0.0362 0.9988 -0.0321
vn 0.1371 0.9704 -0.1988
vn 0.2132 0.9770 -0.0098
vn 0.1062 0.9906 -0.0867
vn 0.1081 0.9941 -0.0025
vn 0.0122 0.9999 -0.0091
vn -0.0048 0.9972 -0.0745
vn -0.0073 1.0000 -0.0001
vn 0.0014 0.9997 -0.0248
vn -0.1318 0.9812 -0.1408
vn -0.0978 0.9935 -0.0574
vn -0.0795 0.9936 -0.0804
vn -0.0401 0.9937 -0.1043
vn -0.0599 0.9944 0.0868
vn -0.1826 0.9832 -0.0042
vn -0.0890 0.9959 -0.0178
vn -0.1250 0.9685 0.2152
vn 0.0382 0.9992 -0.0077
vn -0.0119 0.9999 -0.0073
vn 0.0350 0.9994 -0.0041
vn -0.0002 1.0000 -0.0033
vn -0.0162 0.9995 0.0269
vn 0.0558 0.9984 -0.0055
vn 0.0555 0.9985 -0.0007
vn 0.0324 0.9995 -0.0014
vn 0.0545 0.9985 -0.0104
vn -0.0625 0.9973 -0.0384
vn -0.0631 0.9979 -0.0163
vn -0.0947 0.9951 -0.0295
vn -0.0625 0.9975 0.0339
vn -0.0127 0.7682 -0.6400
vn 0.3466 0.6787 -0.6475
vn 0.3044 0.9377 -0.1676
vn 0.6004 0.3929 -0.6965
vn 0.1079 0.9800 -0.1673
vn 0.0029 0.9954 -0.0959
vn 0.4061 0.5295 -0.7448
vn 0.4451 0.5198 -0.7292
vn 0.0316 0.9901 -0.1370
vn -0.0182 0.9972 -0.0732
vn -0.1192 0.9767 -0.1785
vn 0.2741 0.8170 -0.5074
vn -0.0340 0.8456 -0.5327
vn 0.0545 0.8574 -0.5117
vn 0.0669 0.9873 -0.1438
vn -0.0835 0.9784 -0.1892
vn 0.0447 0.8800 -0.4729
vn -0.1568 0.9642 -0.2141
vn -0.2563 0.9245 -0.2820
vn 0.0437 0.9990 -0.0071
vn 0.0194 0.9998 -0.0006
vn -0.1510 0.7749 -0.6137
vn -0.0353 0.9964 0.0775
vn 0.0244 0.9992 0.0308
vn -0.3709 0.7982 -0.4748
vn 0.0824 0.9940 -0.0717
vn 0.0287 0.9996 0.0055
vn -0.3120 0.8617 -0.4001
vn 0.0707 -0.0814 -0.9942
vn 0.4908 0.0874 -0.8669
vn 0.4765 -0.0909 -0.8745
vn 0.4116 -0.3624 -0.8362
vn 0.5675 -0.4909 -0.6610
vn 0.5606 0.3900 -0.7305
vn 0.5073 0.5199 -0.6873
vn 0.8435 0.1836 -0.5048
vn 0.6661 -0.0583 -0.7436
vn -0.0539 0.4262 -0.9030
vn 0.1067 0.7297 -0.6754
vn 0.2137 0.5388 -0.8149
vn 0.1359 0.7101 -0.6909
vn -0.5009 -0.0651 -0.8630
vn -0.2747 0.2319 -0.9331
vn -0.1420 0.4407 -0.8863
vn -0.5280 -0.8071 -0.2642
vn -0.1786 0.8471 -0.5005
vn -0.5523 0.5180 -0.6531
vn -0.6614 -0.5290 -0.5317
vn -0.3906 -0.7215 -0.5717
vn -0.6515 0.3002 -0.6967
vn -0.2130 0.6485 -0.7308
vn 0.0530 0.8476 -0.5280
vn 0.5233 -0.0474 -0.8508
vn 0.0737 -0.2279 -0.9709
vn 0.5012 0.3043 -0.8101
vn 0.4873 0.4031 -0.7746
vn 0.5507 0.1048 -0.8281
vn 0.4650 0.2204 -0.8574
vn 0.5535 -0.2227 -0.8025
vn 0.6194 0.1633 -0.7679
vn 0.7915 0.3746 -0.4829
vn -0.0819 -0.1669 -0.9826
vn -0.1274 0.1876 -0.9739
vn 0.3061 -0.2903 -0.9067
vn 0.2619 0.1872 -0.9468
vn -0.5243 -0.0573 -0.8496
vn -0.5065 0.1344 -0.8517
vn -0.2418 0.3094 -0.9197
vn -0.0993 0.0001 -0.9951
vn -0.0780 0.1813 -0.9803
vn -0.4349 0.3184 -0.8423
vn -0.1697 0.1962 -0.9658
vn -0.3110 0.2746 -0.9099
vn -0.6043 0.1584 -0.7809
vn -0.4985 0.3860 -0.7762
vn -0.8667 0.1495 -0.4760
vn -0.5835 0.2126 -0.7838
vn -0.5576 -0.1782 -0.8107
vn -0.3189 0.1835 -0.9298
vn 0.0449 0.0312 -0.9985
vn 0.4966 0.1667 -0.8518
vn 0.4768 0.1613 -0.8641
vn 0.6502 0.0522 -0.7579
vn 0.5316 0.5339 -0.6575
vn 0.7207 0.0999 -0.6860
vn 0.4988 -0.4859 -0.7177
vn 0.7677 -0.0752 -0.6363
vn 0.1943 -0.5732 -0.7960
vn 0.0454 -0.3775 -0.9249
vn 0.5433 -0.5647 -0.6212
vn 0.4426 -0.7201 -0.5344
vn 0.4425 -0.5276 -0.7252
vn 0.4046 -0.6836 -0.6075
vn 0.0109 -0.3388 -0.9408
vn -0.2440 0.0507 -0.9684
vn -0.7283 0.0870 -0.6797
vn -0.4425 0.1711 -0.8803
vn -0.2605 0.2392 -0.9354
vn -0.2839 0.5680 -0.7725
vn -0.4357 0.1797 -0.8820
vn -0.1537 0.5378 -0.8290
vn -0.4405 0.4617 -0.7700
vn -0.7074 -0.1837 -0.6826
vn -0.7464 0.3499 -0.5661
vn -0.5105 -0.0514 -0.8583
vn -0.4797 -0.4663 -0.7433
vn -0.4518 -0.4931 -0.7434
vn -0.4828 -0.4188 -0.7691
vn -0.4178 -0.6365 -0.6484
vn 0.3369 -0.4526 -0.8256
vn 0.6683 -0.4414 -0.5987
vn 0.6961 0.0151 -0.7178
vn 0.3644 -0.8286 -0.4249
vn 0.4806 -0.1987 -0.8541
vn 0.5712 -0.6217 -0.5359
vn 0.2887 -0.9439 -0.1600
vn 0.3491 -0.6800 -0.6448
vn 0.2420 -0.9222 -0.3016
vn 0.2438 -0.8358 -0.4919
vn 0.4934 -0.7787 -0.3875
vn 0.3462 -0.8767 -0.3338
vn 0.0059 -0.8606 -0.5092
vn -0.9016 -0.2407 -0.3594
vn -0.9058 -0.1170 -0.4073
vn -0.6505 -0.2095 -0.7301
vn -0.5255 -0.2316 -0.8187
vn -0.5347 -0.4398 -0.7216
vn -0.3829 -0.2730 -0.8825
vn -0.4049 -0.2907 -0.8669
vn -0.4037 -0.6323 -0.6612
vn -0.4304 -0.2883 -0.8554
vn -0.4973 -0.2781 -0.8218
vn -0.4023 -0.8425 -0.3583
vn -0.3364 -0.6179 -0.7107
vn 0.7009 -0.6610 -0.2681
vn 0.3932 -0.9190 -0.0293
vn 0.3656 -0.8760 -0.3147
vn 0.2673 -0.9610 0.0704
vn 0.3150 -0.9484 -0.0374
vn 0.3465 -0.8934 -0.2859
vn 0.5010 -0.8349 -0.2278
vn 0.3173 -0.8477 -0.4251
vn 0.1360 -0.9882 -0.0701
vn 0.2351 -0.9674 -0.0946
vn 0.3204 -0.9052 -0.2792
vn 0.0012 -0.9950 -0.1001
vn -0.7497 -0.6189 -0.2343
vn -0.9707 -0.2394 0.0211
vn -0.8824 -0.3883 -0.2659
vn -0.6760 -0.3485 -0.6493
vn -0.5765 -0.5929 -0.5622
vn -0.4461 -0.7114 -0.5430
vn -0.1670 -0.8483 -0.5025
vn -0.2139 -0.9421 -0.2581
vn 0.1082 -0.9710 -0.2134
vn -0.5790 -0.7002 -0.4178
vn -0.2181 -0.9653 -0.1436
vn -0.2569 -0.9654 -0.0437
vn -0.3016 -0.9320 0.2008
vn -0.2982 -0.9539 0.0343
vn 0.3215 -0.9205 0.2222
vn 0.5729 -0.6196 0.5365
vn 0.5272 -0.7709 -0.3573
vn 0.4421 -0.8893 0.1168
vn 0.3359 -0.9178 -0.2118
vn 0.5844 -0.8105 0.0388
vn 0.3531 -0.9355 0.0137
vn 0.5505 -0.8123 -0.1925
vn 0.1704 -0.9851 0.0241
vn 0.0811 -0.9963 0.0267
vn 0.1821 -0.9564 -0.2283
vn 0.0323 -0.9986 -0.0425
vn -0.0003 -0.9997 0.0228
vn 0.0422 -0.9988 0.0250
vn 0.0004 -0.9994 -0.0352
vn -0.7842 -0.6034 -0.1447
vn -0.8251 -0.5638 -0.0358
vn -0.9437 -0.1849 -0.2744
vn -0.9789 -0.2016 -0.0325
vn -0.4947 -0.8681 -0.0407
vn -0.1949 -0.9807 -0.0140
vn -0.2991 -0.9466 0.1203
vn 0.0995 -0.9949 0.0186
vn -0.2049 -0.9787 -0.0139
vn -0.2728 -0.9612 0.0412
vn -0.4933 -0.8694 -0.0277
vn 0.4615 -0.3839 0.7998
vn 0.3523 -0.6331 0.6893
vn 0.6712 -0.3907 0.6300
vn 0.5375 -0.8415 -0.0545
vn 0.7617 -0.3156 0.5659
vn 0.3189 -0.9423 -0.1021
vn 0.4361 -0.8988 0.0446
vn 0.3505 -0.8236 0.4458
vn 0.3447 -0.9304 0.1244
vn 0.4783 -0.8587 0.1838
vn 0.3898 -0.8809 0.2685
vn 0.1038 -0.9930 0.0556
vn 0.3942 -0.9134 0.1020
vn 0.2120 -0.9760 0.0490
vn 0.5095 -0.7953 0.3285
vn 0.0554 -0.9984 0.0149
vn 0.0497 -0.9985 0.0232
vn 0.0990 -0.9951 -0.0013
vn -0.0004 -0.9995 0.0317
vn -0.6650 -0.6469 0.3734
vn -0.8899 -0.4558 0.0174
vn -0.5510 -0.8258 0.1201
vn -0.6484 -0.5353 -0.5413
vn -0.6856 -0.6632 0.3004
vn -0.6431 -0.7068 0.2947
vn -0.3810 -0.8980 0.2201
vn -0.6902 -0.6548 0.3080
vn -0.2094 -0.9741 0.0855
vn -0.4377 -0.8985 -0.0318
vn -0.4450 -0.8839 0.1439
vn -0.4331 -0.9013 0.0004
vn 0.1228 -0.2569 0.9586
vn 0.6890 0.0530 0.7229
vn 0.4995 0.4938 0.7118
vn 0.6250 0.2461 0.7408
vn 0.6266 0.1563 0.7635
vn 0.4729 0.4396 0.7636
vn 0.6724 -0.1625 0.7221
vn 0.8403 -0.2926 0.4564
vn 0.6663 -0.6072 0.4329
vn 0.6265 -0.6515 0.4278
vn 0.5381 -0.4898 0.6860
vn 0.4896 -0.7058 0.5120
vn 0.3260 -0.9108 0.2532
vn 0.3491 -0.8185 0.4563
vn 0.1526 -0.5908 0.7922
vn 0.1129 -0.8936 0.4344
vn -0.7999 -0.4575 0.3883
vn -0.6508 -0.7216 0.2361
vn -0.5551 -0.7622 0.3331
vn -0.6523 -0.6939 0.3048
vn -0.8231 -0.2571 0.5064
vn -0.7372 -0.4801 0.4755
vn -0.7807 -0.4973 0.3783
vn -0.8138 -0.4827 0.3235
vn -0.8535 -0.2635 0.4495
vn -0.8277 -0.2234 0.5147
vn -0.4456 -0.8857 0.1303
vn -0.6964 -0.5889 0.4101
vn -0.5847 -0.4604 0.6679
vn -0.4734 -0.8316 0.2906
vn -0.4560 -0.8341 0.3104
vn 0.1649 -0.0211 0.9861
vn 0.4533 -0.1657 0.8758
vn 0.7172 -0.1352 0.6836
vn 0.6873 0.0040 0.7263
vn 0.7084 -0.0029 0.7058
vn 0.7087 -0.1438 0.6907
vn 0.8262 -0.1115 0.5522
vn 0.8852 -0.0048 0.4651
vn 0.8816 -0.0922 0.4630
vn 0.7569 -0.1918 0.6247
vn 0.5083 -0.0052 0.8611
vn 0.5191 -0.2473 0.8182
vn 0.4594 -0.1733 0.8712
vn 0.1864 -0.2481 0.9506
vn -0.8989 -0.2097 0.3847
vn -0.9342 -0.1205 0.3357
vn -0.7989 -0.4817 0.3601
vn -0.8099 -0.0006 0.5866
vn -0.7671 -0.3944 0.5059
vn -0.7360 -0.1171 0.6667
vn -0.8062 -0.1908 0.5601
vn -0.7969 -0.0077 0.6041
vn -0.8052 -0.0034 0.5930
vn -0.6198 -0.1269 0.7744
vn -0.1029 -0.2981 0.9490
vn -0.3736 -0.6399 0.6715
vn -0.2930 -0.2407 0.9253
vn 0.1239 0.3399 0.9323
vn 0.6273 0.0311 0.7781
vn 0.6557 -0.1612 0.7376
vn 0.5751 -0.1782 0.7984
vn 0.5810 -0.1360 0.8025
vn 0.6704 0.1401 0.7287
vn 0.7967 0.1120 0.5939
vn 0.8443 0.1513 0.5141
vn 0.8647 0.0930 0.4936
vn 0.7217 0.2132 0.6585
vn 0.3497 0.6306 0.6928
vn 0.4427 0.3203 0.8375
vn 0.4129 0.0772 0.9075
vn 0.4257 0.2937 0.8559
vn 0.4224 0.4471 0.7885
vn -0.7783 0.3568 0.5166
vn -0.9257 0.0847 0.3687
vn -0.9576 0.0147 0.2876
vn -0.9181 0.1675 0.3592
vn -0.9484 0.0095 0.3169
vn -0.7360 0.5207 0.4326
vn -0.6902 0.3673 0.6235
vn -0.7433 0.2000 0.6384
vn -0.5602 -0.0017 0.8283
vn -0.5353 0.1858 0.8240
vn -0.7793 0.1830 0.5993
vn -0.1265 0.0853 0.9883
vn -0.3095 -0.0139 0.9508
vn -0.2764 0.1728 0.9454
vn 0.5037 -0.3917 0.7699
vn 0.7541 0.1660 0.6354
vn 0.6891 -0.1313 0.7127
vn 0.8252 0.1793 0.5356
vn 0.6069 0.4993 0.6183
vn 0.2654 0.8553 0.4450
vn 0.3919 0.8440 0.3662
vn -0.5959 0.7147 0.3663
vn -0.6283 0.7188 0.2977
vn -0.1964 0.9645 0.1764
vn -0.6871 0.3165 0.6540
vn -0.6535 0.3349 0.6788
vn -0.6778 0.5474 0.4909
vn -0.2632 0.8390 0.4763
vn -0.4887 0.4333 0.7572
vn -0.4078 0.7425 0.5314
vn -0.6903 0.4678 0.5519
vn -0.1009 0.2577 0.9609
vn -0.2168 0.3306 0.9185
vn -0.2271 0.6160 0.7543
vn 0.0618 -0.9980 -0.0121
vn 0.0942 -0.5098 -0.8551
vn 0.0053 -0.8746 0.4849
vn 0.0245 -0.6536 0.7564
vn 0.0598 -0.2483 0.9668
vn 0.0785 0.0181 0.9968
vn 0.0434 0.1748 0.9837
vn 0.0310 0.7737 0.6328
vn 0.0093 0.9871 0.1596
vn 0.0314 0.9969 -0.0721
vn 0.0770 0.8019 -0.5925
vn 0.0196 0.1585 -0.9872
vn -0.0539 -0.0877 -0.9947
vn -0.0133 -0.0356 -0.9993
vn -0.7483 0.2696 -0.6061
vn -0.6930 -0.5230 -0.4962
vn -0.7377 0.2497 -0.6273
vn -0.9684 0.2221 -0.1139
vn -0.8012 0.2263 -0.5540
vn -0.8326 -0.5281 -0.1669
vn -0.7996 -0.5972 -0.0632
vn -0.4159 -0.9016 -0.1191
vn -0.8237 -0.0723 -0.5624
vn -0.9947 -0.0170 -0.1015
vn -0.7311 -0.6527 -0.1986
vn -0.9264 -0.3761 0.0193
vn -0.9053 -0.3493 0.2418
vn -0.8222 -0.5681 0.0354
vn -0.7787 -0.6165 0.1160
vn -0.7099 0.6879 -0.1512
vn -0.7990 0.0632 -0.5980
vn -0.9210 0.1431 -0.3624
vn -0.4884 0.8007 -0.3468
vn -0.1019 0.9905 -0.0927
vn -0.7637 -0.5979 -0.2434
vn -0.4214 -0.9061 -0.0387
vn -0.7687 -0.6396 -0.0089
vn -0.9584 0.1774 -0.2234
vn -0.9567 0.2897 -0.0273
vn -0.8645 0.2152 -0.4543
vn -0.9626 -0.0134 -0.2704
vn -0.1483 0.9757 -0.1614
vn -0.0515 0.9974 -0.0504
vn 0.0355 0.9826 0.1822
vn -0.4502 0.8858 -0.1131
vn -0.0137 0.9923 0.1232
vn -0.9326 0.2228 -0.2839
vn -0.7515 0.0820 -0.6546
vn -0.8801 0.2753 -0.3868
vn -0.8806 -0.4488 -0.1521
vn -0.6718 -0.6142 -0.4140
vn -0.2716 -0.8446 -0.4615
vn -0.6572 -0.3396 -0.6729
vn -0.9573 0.0135 -0.2886
vn 0.2048 -0.5567 -0.8051
vn -0.5198 0.1372 -0.8432
vn -0.5059 0.0024 -0.8626
vn -0.9921 -0.1233 0.0211
vn -0.1213 0.9402 0.3183
vn -0.2416 0.9110 0.3343
vn -0.5788 0.5505 0.6016
vn -0.3444 0.8203 0.4565
vn -0.8574 0.1537 0.4911
vn -0.8405 0.3997 0.3658
vn 0.6228 0.4762 0.6207
vn 0.2273 0.5946 0.7712
vn 0.7891 0.1573 0.5938
vn 0.5037 0.4575 0.7328
vn -0.6825 0.3207 0.6568
vn 0.2350 0.2521 0.9387
vn 0.7276 0.0112 0.6859
vn 0.8166 -0.0020 0.5772
vn -0.8176 -0.1779 0.5476
vn -0.7464 -0.3221 0.5824
vn -0.7335 -0.5374 0.4162
vn 0.4630 -0.4367 0.7713
vn 0.7102 -0.4261 0.5604
vn 0.7549 0.1841 0.6294
vn -0.4278 -0.8888 0.1642
vn -0.5556 -0.7568 0.3444
vn 0.0858 -0.9764 0.1980
vn 0.1525 -0.9731 0.1726
vn 0.6138 -0.7337 0.2913
vn 0.4470 -0.7991 0.4019
vn -0.4845 -0.8747 -0.0147
vn 0.0392 -0.9942 0.1005
vn -0.5506 -0.8197 0.1577
vn 0.2198 -0.9653 0.1407
vn 0.6026 -0.7980 0.0111
vn -0.4953 -0.8626 -0.1027
vn -0.4866 -0.8290 -0.2757
vn -0.0707 -0.9847 -0.1594
vn -0.4327 -0.5093 -0.7439
vn 0.4910 -0.8462 -0.2073
vn -0.5613 -0.2944 -0.7735
vn -0.2848 0.1258 -0.9503
vn -0.5812 0.1967 -0.7896
vn -0.3557 -0.2516 -0.9001
vn -0.2357 0.3895 -0.8903
vn -0.2745 0.4235 -0.8633
vn -0.7351 -0.5724 -0.3634
vn 0.8575 0.2141 -0.4678
vn -0.0522 0.8997 -0.4335
vn -0.4422 0.7901 -0.4246
vn 0.0221 0.9937 -0.1096
vn -0.0016 1.0000 -0.0060
vn -0.0126 0.9999 0.0016
vn -0.1398 0.9883 -0.0608
vn 0.0590 0.9967 0.0552
vn 0.0405 0.9945 0.0961
vn -0.0040 0.9301 0.3674
vt 0.286130 0.362430
vt 0.287704 0.293671
vt 0.258081 0.292942
vt 0.229926 0.232377
vt 0.227714 0.322498
vt 0.289173 0.233832
vt 0.284502 0.165235
vt 0.259549 0.233105
vt 0.288225 0.129016
vt 0.260252 0.128224
vt 0.256529 0.164446
vt 0.293185 0.014245
vt 0.262732 0.070840
vt 0.290705 0.071631
vt 0.264560 0.013481
vt 0.320682 0.859967
vt 0.307179 0.881706
vt 0.344337 0.874437
vt 0.371433 0.885364
vt 0.335583 0.900180
vt 0.363840 0.907881
vt 0.347203 0.810671
vt 0.334053 0.839553
vt 0.367679 0.821185
vt 0.390486 0.837831
vt 0.356765 0.851202
vt 0.381394 0.860787
vt 0.368019 0.769085
vt 0.358159 0.789360
vt 0.384024 0.775509
vt 0.401428 0.781510
vt 0.375053 0.797281
vt 0.395787 0.805289
vt 0.390965 0.754239
vt 0.374744 0.749258
vt 0.991895 0.406252
vt 0.945997 0.417062
vt 0.957690 0.390939
vt 0.980202 0.432374
vt 0.923485 0.375627
vt 0.880969 0.384764
vt 0.892664 0.358642
vt 0.911792 0.401749
vt 0.831960 0.331467
vt 0.759563 0.330413
vt 0.771256 0.304291
vt 0.820266 0.357589
vt 0.488535 0.665155
vt 0.449900 0.648663
vt 0.455263 0.672607
vt 0.710554 0.277116
vt 0.698859 0.303238
vt 0.667837 0.289350
vt 0.412587 0.528356
vt 0.425220 0.529040
vt 0.425563 0.511074
vt 0.442844 0.486318
vt 0.425466 0.485125
vt 0.408255 0.485807
vt 0.426109 0.461544
vt 0.449862 0.445550
vt 0.426666 0.453077
vt 0.461954 0.403199
vt 0.428309 0.420305
vt 0.396781 0.377678
vt 0.401680 0.421353
vt 0.573042 0.172559
vt 0.573401 0.157953
vt 0.526313 0.158559
vt 0.525910 0.174957
vt 0.500493 0.200410
vt 0.500981 0.180538
vt 0.471132 0.188998
vt 0.467163 0.227987
vt 0.466475 0.256009
vt 0.437284 0.237683
vt 0.408093 0.219356
vt 0.407149 0.257816
vt 0.406205 0.296274
vt 0.373453 0.300289
vt 0.348419 0.235286
vt 0.346951 0.295123
vt 0.345482 0.354963
vt 0.315859 0.354234
vt 0.318796 0.234559
vt 0.317327 0.294397
vt 0.056497 0.149869
vt 0.040105 0.165285
vt 0.053327 0.181558
vt 0.017426 0.183552
vt 0.013366 0.173146
vt 0.109182 0.321174
vt 0.110907 0.250903
vt 0.080867 0.267165
vt 0.052551 0.213157
vt 0.082591 0.196894
vt 0.171064 0.215237
vt 0.140123 0.268206
vt 0.169084 0.295921
vt 0.198515 0.304493
vt 0.200495 0.223807
vt 0.573759 0.143350
vt 0.526714 0.142197
vt 0.501684 0.151897
vt 0.472538 0.131717
vt 0.471835 0.160356
vt 0.443203 0.160146
vt 0.413268 0.131245
vt 0.413324 0.169843
vt 0.380928 0.159356
vt 0.354010 0.130218
vt 0.351112 0.166471
vt 0.314183 0.166024
vt 0.317022 0.129773
vt 0.060061 0.120705
vt 0.050020 0.136315
vt 0.059617 0.140529
vt 0.049259 0.119865
vt 0.118514 0.122935
vt 0.089540 0.141617
vt 0.115332 0.135029
vt 0.089985 0.121793
vt 0.175835 0.125446
vt 0.147175 0.124190
vt 0.143986 0.136574
vt 0.114311 0.180567
vt 0.142611 0.197906
vt 0.232279 0.127435
vt 0.200505 0.155032
vt 0.228556 0.163654
vt 0.204057 0.126440
vt 0.574118 0.128744
vt 0.527039 0.128960
vt 0.502564 0.116029
vt 0.503282 0.086772
vt 0.473256 0.102456
vt 0.442903 0.131480
vt 0.473975 0.073199
vt 0.449600 0.057890
vt 0.443621 0.102221
vt 0.383639 0.130731
vt 0.389618 0.086400
vt 0.425226 0.042583
vt 0.387003 0.029211
vt 0.350434 0.015777
vt 0.319329 0.072396
vt 0.348127 0.073155
vt 0.321810 0.015011
vt 0.061729 0.109879
vt 0.038533 0.112889
vt 0.118994 0.102687
vt 0.090258 0.111021
vt 0.072281 0.101864
vt 0.170021 0.084232
vt 0.147655 0.103943
vt 0.119474 0.082440
vt 0.234107 0.070076
vt 0.198243 0.085226
vt 0.164206 0.043019
vt 0.727506 0.958668
vt 0.722582 0.927807
vt 0.669733 0.950821
vt 0.660442 0.918506
vt 0.583516 0.915940
vt 0.581226 0.945854
vt 0.617392 0.936562
vt 0.492174 0.903488
vt 0.501397 0.937470
vt 0.531194 0.899776
vt 0.549473 0.947204
vt 0.430814 0.894956
vt 0.424907 0.916722
vt 0.461080 0.901122
vt 0.457899 0.922021
vt 0.400188 0.890063
vt 0.396750 0.913659
vt 0.130516 0.763896
vt 0.140515 0.736241
vt 0.121929 0.750286
vt 0.158745 0.822667
vt 0.174867 0.816276
vt 0.146667 0.794841
vt 0.206325 0.864223
vt 0.234791 0.848171
vt 0.200320 0.828250
vt 0.181592 0.809544
vt 0.263007 0.834485
vt 0.271351 0.868325
vt 0.289090 0.909100
vt 0.654584 0.868958
vt 0.719251 0.895192
vt 0.610226 0.893129
vt 0.565844 0.859509
vt 0.570417 0.879129
vt 0.594741 0.856729
vt 0.487644 0.849938
vt 0.490307 0.875464
vt 0.524321 0.854493
vt 0.437101 0.839003
vt 0.434088 0.865347
vt 0.461684 0.844946
vt 0.461519 0.873158
vt 0.414831 0.841142
vt 0.407882 0.864412
vt 0.177919 0.737828
vt 0.172453 0.726035
vt 0.159976 0.730296
vt 0.142253 0.721127
vt 0.160100 0.744898
vt 0.171609 0.782754
vt 0.198912 0.799110
vt 0.222858 0.776981
vt 0.229707 0.819532
vt 0.279960 0.817590
vt 0.299239 0.789879
vt 0.306091 0.831392
vt 0.715795 0.861615
vt 0.646852 0.833171
vt 0.587634 0.840228
vt 0.546402 0.821160
vt 0.557006 0.839901
vt 0.596070 0.821518
vt 0.516849 0.806399
vt 0.515886 0.837746
vt 0.437650 0.789370
vt 0.437600 0.813615
vt 0.461661 0.790929
vt 0.489073 0.791524
vt 0.462884 0.817283
vt 0.489332 0.821332
vt 0.419741 0.785762
vt 0.414932 0.809711
vt 0.210707 0.696570
vt 0.179780 0.710004
vt 0.184052 0.721564
vt 0.196254 0.732624
vt 0.229865 0.716965
vt 0.216969 0.752612
vt 0.257106 0.753183
vt 0.286826 0.768158
vt 0.270272 0.778173
vt 0.274995 0.743590
vt 0.303625 0.748426
vt 0.336464 0.781262
vt 0.328669 0.751958
vt 0.313908 0.770070
vt 0.690111 0.798602
vt 0.622448 0.786292
vt 0.585757 0.804176
vt 0.544152 0.783428
vt 0.545125 0.802183
vt 0.561765 0.786020
vt 0.520916 0.768096
vt 0.514843 0.786264
vt 0.445668 0.746064
vt 0.442335 0.766995
vt 0.465688 0.766081
vt 0.495619 0.774007
vt 0.424863 0.763363
vt 0.407771 0.759082
vt 0.229032 0.688539
vt 0.220301 0.692373
vt 0.228941 0.702538
vt 0.242099 0.709485
vt 0.253678 0.702118
vt 0.263129 0.722042
vt 0.288562 0.730366
vt 0.301597 0.717871
vt 0.314984 0.736310
vt 0.340956 0.737411
vt 0.351184 0.725937
vt 0.358761 0.745897
vt 0.636971 0.750748
vt 0.702469 0.779903
vt 0.571373 0.746858
vt 0.567650 0.763091
vt 0.594427 0.764594
vt 0.501063 0.756391
vt 0.527334 0.746744
vt 0.499165 0.732063
vt 0.458698 0.702277
vt 0.452381 0.724765
vt 0.479068 0.727152
vt 0.968506 0.458495
vt 0.922608 0.469305
vt 0.934301 0.443183
vt 0.956813 0.484618
vt 0.264598 0.671581
vt 0.242900 0.671060
vt 0.247615 0.679226
vt 0.241286 0.695682
vt 0.259120 0.686083
vt 0.280309 0.694089
vt 0.304458 0.693162
vt 0.306820 0.674076
vt 0.325588 0.678331
vt 0.330062 0.722661
vt 0.325728 0.699568
vt 0.348295 0.682834
vt 0.349606 0.706488
vt 0.364815 0.706447
vt 0.969941 0.365066
vt 0.722805 0.756635
vt 0.644069 0.730208
vt 0.603246 0.732039
vt 0.565508 0.715844
vt 0.496331 0.710461
vt 0.528643 0.702047
vt 0.501459 0.686283
vt 0.522350 0.721327
vt 0.876710 0.480115
vt 0.841693 0.492609
vt 0.845887 0.463130
vt 0.865571 0.506486
vt 0.900098 0.427871
vt 0.857581 0.437008
vt 0.869275 0.410885
vt 0.888403 0.453993
vt 0.264619 0.660122
vt 0.264083 0.655168
vt 0.241717 0.648581
vt 0.242098 0.658167
vt 0.287540 0.662545
vt 0.309137 0.660825
vt 0.934825 0.234343
vt 0.956897 0.247411
vt 0.956674 0.284354
vt 0.947987 0.323881
vt 0.924435 0.310151
vt 0.870347 0.285937
vt 0.911858 0.335877
vt 0.660710 0.702664
vt 0.723157 0.733954
vt 0.570647 0.627402
vt 0.568662 0.651647
vt 0.597630 0.642410
vt 0.620744 0.678181
vt 0.593494 0.686327
vt 0.621380 0.697267
vt 0.504523 0.653554
vt 0.535870 0.641559
vt 0.511768 0.630960
vt 0.785184 0.435955
vt 0.729466 0.439182
vt 0.733075 0.412627
vt 0.518344 0.606380
vt 0.487152 0.605236
vt 0.808571 0.383710
vt 0.744769 0.386505
vt 0.747869 0.356536
vt 0.796878 0.409833
vt 0.259730 0.632948
vt 0.245520 0.642442
vt 0.232394 0.627649
vt 0.226178 0.645316
vt 0.258076 0.607045
vt 0.287172 0.628564
vt 0.310429 0.647468
vt 0.320351 0.603755
vt 0.799945 0.191706
vt 0.867385 0.213024
vt 0.835147 0.238822
vt 0.813145 0.260329
vt 0.755943 0.234721
vt 0.793951 0.283094
vt 0.771886 0.704404
vt 0.675684 0.655579
vt 0.616817 0.632923
vt 0.636282 0.623012
vt 0.605347 0.601056
vt 0.587656 0.614313
vt 0.551688 0.599995
vt 0.530434 0.574996
vt 0.524761 0.591276
vt 0.487284 0.550468
vt 0.472046 0.533923
vt 0.469285 0.551696
vt 0.465027 0.567788
vt 0.451758 0.545403
vt 0.438118 0.530383
vt 0.437986 0.542674
vt 0.226313 0.616040
vt 0.229719 0.621405
vt 0.237597 0.595965
vt 0.252687 0.581927
vt 0.314854 0.525563
vt 0.282091 0.538701
vt 0.284084 0.563774
vt 0.294855 0.578549
vt 0.322856 0.541702
vt 0.351138 0.518060
vt 0.331037 0.556483
vt 0.353910 0.558441
vt 0.356456 0.532798
vt 0.381613 0.515192
vt 0.377205 0.536705
vt 0.395740 0.538663
vt 0.411697 0.559367
vt 0.412369 0.541441
vt 0.800130 0.679574
vt 0.722126 0.640095
vt 0.658108 0.607486
vt 0.675595 0.594338
vt 0.641992 0.569553
vt 0.623114 0.586534
vt 0.587731 0.565246
vt 0.565867 0.531747
vt 0.548498 0.554402
vt 0.502125 0.518492
vt 0.487275 0.491663
vt 0.480072 0.514179
vt 0.458490 0.511845
vt 0.440453 0.512482
vt 0.222490 0.553917
vt 0.210815 0.607373
vt 0.232142 0.568850
vt 0.232147 0.525536
vt 0.240343 0.540762
vt 0.263776 0.507008
vt 0.306014 0.509524
vt 0.297012 0.491980
vt 0.337171 0.481447
vt 0.375727 0.499436
vt 0.410670 0.511236
vt 0.397575 0.522383
vt 0.394227 0.503148
vt 0.828135 0.657935
vt 0.760723 0.601968
vt 0.701428 0.578353
vt 0.716725 0.558051
vt 0.687068 0.537113
vt 0.664591 0.553942
vt 0.629373 0.527072
vt 0.612969 0.485560
vt 0.588320 0.510253
vt 0.527044 0.473488
vt 0.517774 0.430164
vt 0.499493 0.466975
vt 0.464175 0.485073
vt 0.470871 0.466957
vt 0.478976 0.441926
vt 0.215831 0.518412
vt 0.213989 0.545307
vt 0.187630 0.594043
vt 0.196619 0.539139
vt 0.167809 0.578068
vt 0.198658 0.511088
vt 0.230219 0.483362
vt 0.282216 0.476166
vt 0.370153 0.480085
vt 0.361891 0.458922
vt 0.322785 0.459912
vt 0.405880 0.462848
vt 0.390396 0.484691
vt 0.385073 0.461345
vt 0.858770 0.638357
vt 0.824012 0.590271
vt 0.736852 0.495081
vt 0.712270 0.517315
vt 0.752556 0.552078
vt 0.681434 0.487123
vt 0.671881 0.436298
vt 0.641222 0.461941
vt 0.570052 0.431397
vt 0.559041 0.388715
vt 0.533257 0.413544
vt 0.510495 0.378954
vt 0.492126 0.323606
vt 0.134572 0.516102
vt 0.154975 0.537419
vt 0.167279 0.513228
vt 0.126192 0.536046
vt 0.265872 0.459022
vt 0.244882 0.441880
vt 0.207942 0.469422
vt 0.221433 0.424546
vt 0.263687 0.404060
vt 0.352438 0.435548
vt 0.334896 0.413581
vt 0.310683 0.441255
vt 0.405326 0.453852
vt 0.380602 0.443270
vt 0.369814 0.408162
vt 0.787990 0.806004
vt 0.781191 0.825623
vt 0.796313 0.791707
vt 0.807911 0.773952
vt 0.822938 0.758158
vt 0.847257 0.736251
vt 0.872347 0.714990
vt 0.893788 0.698173
vt 0.627734 0.170180
vt 0.627293 0.161729
vt 0.626686 0.150085
vt 0.626155 0.139909
vt 0.788067 0.945840
vt 0.783563 0.918944
vt 0.781082 0.888614
vt 0.779937 0.857868
vt 0.131462 0.708727
vt 0.118190 0.721900
vt 0.204896 0.683520
vt 0.195074 0.686921
vt 0.157008 0.677071
vt 0.162163 0.696107
vt 0.214354 0.683814
vt 0.218022 0.671790
vt 0.208828 0.671553
vt 0.149147 0.698957
vt 0.143757 0.680539
vt 0.217123 0.640831
vt 0.197280 0.653957
vt 0.211477 0.638850
vt 0.206558 0.630763
vt 0.215027 0.622629
vt 0.118645 0.676990
vt 0.139805 0.664399
vt 0.129428 0.649670
vt 0.019677 0.142658
vt 0.010419 0.165592
vt 0.028824 0.146890
vt 0.200324 0.663045
vt 0.208847 0.662322
vt 0.217696 0.662678
vt 0.187601 0.666791
vt 0.185224 0.655453
vt 0.157453 0.666917
vt 0.142184 0.671932
vt 0.039924 0.147810
vt 0.036407 0.139901
vt 0.035622 0.126512
vt 0.024316 0.128642
vt 0.028248 0.140170
vt 0.116133 0.695864
vt 0.130736 0.688798
vt 0.153573 0.661669
vt 0.188770 0.677263
vt 0.200695 0.672458
vt 0.217561 0.654350
vt 0.209891 0.653387
vt 0.105441 0.652062
vt 0.179909 0.640533
vt 0.156548 0.643959
vt 0.193291 0.635299
vt 0.155258 0.717700
vt 0.167791 0.714301
vt 0.223473 0.680396
vt 0.348936 0.376485
vt 0.309528 0.391150
vt 0.284439 0.425071
vt 0.174664 0.469078
vt 0.039330 0.196883
vt 0.020974 0.192645
vt 0.124605 0.554754
vt 0.146583 0.562255
vt 0.185793 0.532325
vt 0.533585 0.363012
vt 0.542824 0.448043
vt 0.593697 0.397993
vt 0.650229 0.509870
vt 0.704943 0.464965
vt 0.246705 0.492815
vt 0.446141 0.463146
vt 0.511009 0.497219
vt 0.603167 0.547982
vt 0.342862 0.498167
vt 0.270807 0.522683
vt 0.248836 0.555640
vt 0.453432 0.529406
vt 0.491739 0.538529
vt 0.567599 0.586246
vt 0.375206 0.559781
vt 0.393945 0.559696
vt 0.241978 0.614955
vt 0.656144 0.315473
vt 0.687165 0.329360
vt 0.684066 0.359330
vt 0.653045 0.345443
vt 0.680966 0.389299
vt 0.481621 0.568528
vt 0.543710 0.616054
vt 0.733248 0.255919
vt 0.851153 0.308702
vt 0.777945 0.213214
vt 0.902587 0.260140
vt 0.287630 0.650287
vt 0.772444 0.458422
vt 0.484323 0.637814
vt 0.677358 0.415855
vt 0.533927 0.672140
vt 0.935736 0.349754
vt 0.401749 0.649402
vt 0.397123 0.626134
vt 0.366272 0.634259
vt 0.965069 0.291298
vt 0.286867 0.673345
vt 0.343102 0.603074
vt 0.332976 0.626795
vt 0.362610 0.638741
vt 0.820418 0.517629
vt 0.777858 0.495389
vt 0.364661 0.727235
vt 0.380214 0.729116
vt 0.276387 0.710874
vt 0.410917 0.632022
vt 0.416802 0.655843
vt 0.448420 0.648031
vt 0.910915 0.495428
vt 0.477309 0.706385
vt 0.470761 0.750924
vt 0.348326 0.761616
vt 0.251167 0.730734
vt 0.220182 0.707435
vt 0.429891 0.741947
vt 0.413408 0.737579
vt 0.322984 0.801384
vt 0.200286 0.759431
vt 0.291037 0.849840
vt 0.214285 0.832320
vt 0.528690 0.879565
vt 0.242604 0.890369
vt 0.184277 0.843418
vt 0.354767 0.934241
vt 0.387178 0.942865
vt 0.419733 0.946479
vt 0.463475 0.964633
vt 0.512549 0.976786
vt 0.545804 0.977169
vt 0.578516 0.976112
vt 0.615356 0.967432
vt 0.235936 0.012715
vt 0.200071 0.027867
vt 0.141840 0.062730
vt 0.099983 0.096263
vt 0.419247 0.086914
vt 0.172286 0.153911
vt 0.086101 0.165190
vt 0.048190 0.151259
vt 0.374954 0.239133
vt 0.437972 0.209659
vt 0.167104 0.376607
vt 0.196303 0.394612
vt 0.225713 0.417906
vt 0.138143 0.348891
vt 0.371984 0.360128
vt 0.436340 0.276141
vt 0.441832 0.347579
vt 0.425155 0.541988
vt 0.396811 0.733150
vt 0.321396 0.925141
vt 0.255921 0.390168
s 1
usemtl Cave_Material.018
f 28/1/1 172/2/2 173/3/3
f 1/4/4 175/5/5 173/3/3
f 2/6/6 176/7/7 174/8/8
f 3/9/9 178/10/10 177/11/11
f 8/12/12 180/13/13 181/14/14
f 8/12/12 182/15/15 180/13/13
f 5/16/16 184/17/17 185/18/18
f 6/19/19 186/20/20 187/21/21
f 9/22/22 188/23/23 189/24/24
f 10/25/25 190/26/26 191/27/27
f 11/28/28 192/29/29 193/30/30
f 12/31/31 194/32/32 195/33/33
f 11/28/28 196/34/34 197/35/35
f 11/28/28 193/30/30 196/34/34
f 13/36/36 200/37/37 201/38/38
f 13/36/36 198/39/39 200/37/37
f 15/40/40 204/41/41 205/42/42
f 15/40/40 202/43/43 204/41/41
f 17/44/44 208/45/45 209/46/46
f 17/44/44 206/47/47 208/45/45
f 19/48/48 212/49/49 213/50/50
f 19/51/48 210/52/51 212/53/49
f 21/54/52 214/55/53 216/56/54
f 23/57/55 218/58/56 216/56/54
f 24/59/57 218/58/56 220/60/58
f 25/61/59 222/62/60 220/60/58
f 25/61/59 224/63/61 225/64/62
f 27/65/63 227/66/64 225/64/62
f 148/67/65 30/68/66 29/69/67
f 29/69/67 147/70/68 148/67/65
f 228/71/69 229/72/70 31/73/71
f 31/73/71 230/74/72 228/71/69
f 32/75/73 230/74/72 231/76/74
f 33/77/75 233/78/76 231/76/74
f 149/79/77 233/78/76 235/80/78
f 34/81/79 237/82/80 235/80/78
f 35/83/81 237/82/80 239/84/82
f 34/81/79 241/85/83 240/86/84
f 36/87/85 242/88/86 243/89/87
f 151/90/88 242/88/86 244/91/89
f 38/92/90 246/93/91 533/94/92
f 150/95/93 247/96/94 243/89/87
f 40/97/95 249/98/96 250/99/97
f 38/92/90 249/98/96 246/93/91
f 1/4/4 252/100/98 175/5/5
f 1/4/4 253/101/99 252/100/98
f 30/68/66 43/102/100 42/103/101
f 42/103/101 29/69/67 30/68/66
f 254/104/102 29/69/67 42/103/101
f 44/105/103 255/106/104 254/104/102
f 31/73/71 255/106/104 256/107/105
f 45/108/106 258/109/107 256/107/105
f 33/77/75 258/109/107 259/110/108
f 46/111/109 261/112/110 259/110/108
f 2/6/6 241/85/83 262/113/111
f 46/111/109 263/114/112 262/113/111
f 47/115/113 264/116/114 265/117/115
f 47/115/113 266/118/116 264/116/114
f 49/119/117 268/120/118 269/121/119
f 49/119/117 270/122/120 268/120/118
f 50/123/121 271/124/122 272/125/123
f 39/126/124 251/127/125 272/125/123
f 4/128/126 274/129/127 179/130/128
f 4/128/126 275/131/129 274/129/127
f 43/102/100 56/132/130 51/133/131
f 51/133/131 42/103/101 43/102/100
f 42/103/101 51/133/131 276/134/132
f 51/133/131 294/135/133 276/134/132
f 44/105/103 277/136/134 257/137/135
f 52/138/136 279/139/137 278/140/138
f 46/111/109 260/141/139 281/142/140
f 53/143/141 282/144/142 281/142/140
f 54/145/143 284/146/144 283/147/145
f 54/145/143 303/148/146 284/146/144
f 47/115/113 285/149/147 540/150/148
f 49/119/117 286/151/149 287/152/150
f 305/153/151 285/149/147 287/152/150
f 50/123/121 288/154/152 289/155/153
f 55/156/154 286/151/149 289/155/153
f 4/128/126 183/157/155 291/158/156
f 64/159/157 288/154/152 291/158/156
f 56/160/130 57/161/158 51/162/131
f 58/163/159 51/162/131 57/161/158
f 59/164/160 292/165/161 293/166/162
f 293/166/162 51/162/131 58/163/159
f 60/167/163 295/168/164 296/169/165
f 59/164/160 297/170/166 292/165/161
f 61/171/167 298/172/168 299/173/169
f 60/167/163 300/174/170 295/168/164
f 6/19/19 187/21/21 301/175/171
f 61/171/167 302/176/172 298/172/168
f 305/177/151 304/178/173 285/179/147
f 55/180/154 306/181/174 307/182/175
f 64/183/157 308/184/176 309/185/177
f 63/186/178 306/181/174 309/185/177
f 65/187/179 308/184/176 311/188/180
f 7/189/181 184/17/17 311/188/180
f 66/190/182 58/163/159 67/191/183
f 67/191/183 58/163/159 57/161/158
f 58/163/159 66/190/182 314/192/184
f 68/193/185 315/194/186 316/195/187
f 59/164/160 315/194/186 296/169/165
f 69/196/188 318/197/189 319/198/190
f 70/199/191 320/200/192 321/201/193
f 69/196/188 322/202/194 318/197/189
f 10/25/25 191/27/27 323/203/195
f 70/199/191 324/204/196 320/200/192
f 71/205/197 325/206/198 326/207/199
f 62/208/200 304/178/173 326/207/199
f 71/205/197 328/209/201 329/210/202
f 63/186/178 330/211/203 329/210/202
f 73/212/204 330/211/203 332/213/205
f 65/187/179 333/214/206 332/213/205
f 74/215/207 333/214/206 335/216/208
f 5/16/16 188/23/23 335/216/208
f 67/191/183 75/217/209 66/190/182
f 76/218/210 66/190/182 75/217/209
f 316/195/187 337/219/211 68/193/185
f 77/220/212 338/221/213 339/222/214
f 68/193/185 338/221/213 319/198/190
f 77/220/212 341/223/215 340/224/216
f 79/225/217 343/226/218 344/227/219
f 78/228/220 345/229/221 342/230/222
f 12/31/31 195/33/33 346/231/223
f 79/225/217 347/232/224 343/226/218
f 80/233/225 348/234/226 349/235/227
f 71/205/197 350/236/228 349/235/227
f 81/237/229 350/236/228 352/238/230
f 73/212/204 353/239/231 352/238/230
f 74/215/207 355/240/232 334/241/233
f 82/242/234 355/240/232 356/243/235
f 9/22/22 192/29/29 358/244/236
f 83/245/237 357/246/238 358/244/236
f 75/217/209 84/247/239 76/218/210
f 85/248/240 76/218/210 84/247/239
f 339/222/214 360/249/241 77/220/212
f 86/250/242 361/251/243 362/252/244
f 77/220/212 361/251/243 341/223/215
f 86/250/242 364/253/245 363/254/246
f 88/255/247 366/256/248 367/257/249
f 78/228/220 365/258/250 367/257/249
f 12/31/31 369/259/34 199/260/251
f 12/31/31 346/231/223 369/259/34
f 89/261/252 371/262/253 372/263/254
f 81/237/229 373/264/255 372/263/254
f 90/265/256 373/264/255 375/266/257
f 82/242/234 376/267/258 375/266/257
f 91/268/259 376/267/258 378/269/260
f 83/245/237 379/270/261 378/269/260
f 92/271/262 379/270/261 381/272/263
f 11/28/28 197/35/35 381/272/263
f 93/273/264 85/248/240 84/247/239
f 84/247/239 94/274/265 93/273/264
f 95/275/266 383/276/267 384/277/268
f 384/277/268 85/248/240 93/273/264
f 87/278/269 385/279/270 386/280/271
f 95/275/266 385/279/270 383/276/267
f 97/281/272 388/282/273 389/283/274
f 87/278/269 386/280/271 389/283/274
f 14/284/39 391/285/275 203/286/275
f 14/284/39 370/287/39 391/285/275
f 98/288/276 393/289/277 394/290/278
f 89/261/252 374/291/279 394/290/278
f 98/288/276 396/292/280 397/293/281
f 91/268/259 398/294/282 397/293/281
f 100/295/283 398/294/282 400/296/284
f 91/268/259 380/297/285 401/298/286
f 101/299/287 402/300/288 403/301/289
f 13/36/36 201/38/38 403/302/289
f 93/273/264 103/303/290 102/304/291
f 93/273/264 94/274/265 103/303/290
f 95/275/266 405/305/292 406/306/293
f 405/305/292 95/275/266 93/273/264
f 96/307/294 408/308/295 409/309/296
f 96/307/294 387/310/297 408/308/295
f 97/311/272 411/312/298 412/313/299
f 97/311/272 390/314/300 411/312/298
f 16/315/301 414/316/302 207/317/303
f 16/315/301 392/318/304 414/316/302
f 98/288/276 416/319/305 393/289/277
f 107/320/306 418/321/307 417/322/308
f 107/320/306 416/319/305 420/323/309
f 100/295/283 421/324/310 420/323/309
f 109/325/311 421/326/310 423/327/312
f 101/328/287 424/329/313 423/327/312
f 110/330/314 424/329/313 426/331/315
f 15/40/40 205/42/42 426/331/315
f 111/332/316 102/304/291 112/333/317
f 102/304/291 103/303/290 112/333/317
f 113/334/318 428/335/319 429/336/320
f 430/337/321 104/338/322 407/339/323
f 105/340/324 431/341/325 432/342/326
f 113/334/318 431/341/325 428/335/319
f 106/343/327 434/344/328 435/345/329
f 114/346/330 434/347/328 432/342/326
f 18/348/331 437/349/332 211/350/333
f 18/348/331 415/351/334 437/349/332
f 107/320/306 439/352/335 440/353/336
f 116/354/337 442/355/338 440/353/336
f 117/356/339 439/352/335 443/357/340
f 109/358/311 444/359/341 443/357/340
f 118/360/342 444/361/341 446/362/343
f 110/330/314 447/363/344 446/362/343
f 119/364/345 447/363/344 449/365/346
f 17/44/44 209/46/46 449/365/346
f 112/333/317 121/366/347 120/367/348
f 120/367/348 111/332/316 112/333/317
f 451/368/349 452/369/350 122/370/351
f 122/370/351 453/371/352 451/368/349
f 113/334/318 453/371/352 454/372/353
f 123/373/354 456/374/355 454/372/353
f 114/346/330 456/374/355 457/375/356
f 124/376/357 459/377/358 457/375/356
f 115/378/359 459/377/358 460/379/360
f 22/380/361 215/381/362 460/379/360
f 125/382/363 462/383/364 463/384/365
f 117/356/339 464/385/366 463/384/365
f 127/386/367 466/387/368 467/388/369
f 117/356/339 445/389/370 467/388/369
f 127/386/367 468/390/371 469/391/372
f 118/392/342 448/393/373 470/394/374
f 128/395/375 471/396/376 472/397/377
f 19/398/48 213/399/50 472/397/377
f 121/366/347 130/400/378 129/401/379
f 129/401/379 120/367/348 121/366/347
f 474/402/380 475/403/381 131/404/382
f 131/404/382 476/405/383 474/402/380
f 122/370/351 476/405/383 477/406/384
f 132/407/385 479/408/386 477/406/384
f 123/373/354 479/408/386 480/409/387
f 133/410/388 482/411/389 480/409/387
f 124/376/357 482/411/389 483/412/390
f 23/57/55 217/413/391 483/412/390
f 125/382/363 485/414/392 486/415/393
f 125/382/363 465/416/394 485/414/392
f 135/417/395 488/418/396 489/419/397
f 127/386/367 491/420/398 466/387/368
f 136/421/399 491/420/398 492/422/400
f 128/395/375 494/423/401 469/391/372
f 21/54/52 219/424/402 473/425/403
f 128/395/375 495/426/404 494/423/401
f 130/400/378 139/427/405 138/428/406
f 138/428/406 129/401/379 130/400/378
f 497/429/407 498/430/408 140/431/409
f 140/431/409 499/432/410 497/429/407
f 131/404/382 499/432/410 500/433/411
f 141/434/412 502/435/413 500/433/411
f 132/407/385 502/435/413 503/436/414
f 142/437/415 505/438/416 503/436/414
f 23/57/55 484/439/417 506/440/418
f 142/437/415 507/441/419 506/440/418
f 135/417/395 508/442/420 487/443/421
f 134/444/422 509/445/423 510/446/424
f 143/447/425 508/442/420 512/448/426
f 136/421/399 514/449/427 489/419/397
f 137/450/428 515/451/429 492/422/400
f 136/421/399 516/452/430 514/449/427
f 24/59/57 223/453/431 496/454/432
f 137/450/428 518/455/433 515/451/429
f 139/427/405 148/456/65 147/457/68
f 147/457/68 138/428/406 139/427/405
f 32/458/73 520/459/434 521/460/435
f 521/460/435 138/428/406 147/457/68
f 140/431/409 520/459/434 522/461/436
f 149/462/77 523/463/437 522/461/436
f 141/434/412 523/463/437 524/464/438
f 35/465/81 525/466/439 524/464/438
f 142/437/415 525/466/439 526/467/440
f 28/468/1 224/63/61 526/467/440
f 150/469/93 527/470/441 528/471/442
f 150/469/93 529/472/443 527/470/441
f 145/473/444 531/474/445 512/448/426
f 143/447/425 532/475/446 528/471/442
f 38/476/90 531/474/445 534/477/447
f 146/478/448 536/479/449 517/480/450
f 26/481/451 227/66/64 519/482/452
f 146/478/448 537/483/453 536/479/449
f 152/484/454 94/274/265 84/247/239
f 84/247/239 153/485/455 152/484/454
f 103/303/290 94/274/265 152/484/454
f 152/484/454 154/486/456 103/303/290
f 112/333/317 103/303/290 155/487/457
f 103/303/290 154/486/456 155/487/457
f 155/487/457 121/366/347 112/333/317
f 155/487/457 156/488/458 121/366/347
f 156/488/458 130/400/378 121/366/347
f 156/488/458 157/489/459 130/400/378
f 157/489/459 139/427/405 130/400/378
f 157/489/459 158/490/460 139/427/405
f 139/427/405 158/490/460 159/491/461
f 159/491/461 148/456/65 139/427/405
f 30/68/66 159/492/461 160/493/462
f 159/492/461 30/68/66 148/67/65
f 160/493/462 161/494/463 30/68/66
f 161/494/463 43/102/100 30/68/66
f 161/494/463 162/495/464 43/102/100
f 162/495/464 56/132/130 43/102/100
f 57/161/158 162/496/464 163/497/465
f 57/161/158 56/160/130 162/496/464
f 67/191/183 163/497/465 164/498/466
f 67/191/183 57/161/158 163/497/465
f 75/217/209 164/498/466 165/499/467
f 75/217/209 67/191/183 164/498/466
f 84/247/239 165/499/467 153/485/455
f 84/247/239 75/217/209 165/499/467
f 62/208/200 539/500/468 540/501/148
f 80/233/225 542/502/469 543/503/470
f 167/504/471 545/505/472 543/503/470
f 80/233/225 371/262/253 546/506/473
f 99/507/474 547/508/475 546/506/473
f 167/504/471 548/509/476 545/505/472
f 167/504/471 549/510/477 548/509/476
f 116/354/337 550/511/478 442/355/338
f 169/512/479 550/511/478 552/513/480
f 125/382/363 553/514/481 552/513/480
f 486/415/393 567/515/482 125/382/363
f 171/516/483 556/517/484 557/518/485
f 171/519/483 559/520/486 560/521/487
f 169/512/479 561/522/488 562/523/489
f 99/507/474 419/524/490 562/523/489
f 169/512/479 563/525/491 561/522/488
f 169/512/479 554/526/492 563/525/491
f 167/504/471 564/527/493 565/528/494
f 37/529/495 267/530/496 560/521/487
f 48/531/497 541/532/498 566/533/499
f 541/534/498 166/535/500 171/516/483
f 541/532/498 171/519/483 566/533/499
f 267/530/496 48/531/497 566/533/499
f 267/530/496 566/533/499 560/521/487
f 560/521/487 566/533/499 171/519/483
f 171/516/483 166/535/500 549/510/477
f 171/516/483 549/510/477 565/528/494
f 565/528/494 549/510/477 167/504/471
f 564/527/493 170/536/501 556/517/484
f 564/527/493 556/517/484 565/528/494
f 565/528/494 556/517/484 171/516/483
f 554/526/492 170/536/501 564/527/493
f 554/526/492 564/527/493 563/525/491
f 563/525/491 564/527/493 167/504/471
f 563/525/491 167/504/471 544/537/502
f 563/525/491 544/537/502 561/522/488
f 561/522/488 544/537/502 168/538/503
f 419/524/490 108/539/504 551/540/505
f 419/524/490 551/540/505 562/523/489
f 562/523/489 551/540/505 169/512/479
f 561/522/488 168/538/503 547/508/475
f 561/522/488 547/508/475 562/523/489
f 562/523/489 547/508/475 99/507/474
f 559/520/486 244/91/89 560/521/487
f 560/521/487 244/91/89 37/529/495
f 557/518/485 559/541/486 171/516/483
f 555/542/506 558/543/507 170/536/501
f 556/517/484 170/536/501 558/543/507
f 556/517/484 558/543/507 557/518/485
f 553/514/481 568/544/508 170/536/501
f 553/514/481 170/536/501 554/526/492
f 553/514/481 554/526/492 552/513/480
f 552/513/480 554/526/492 169/512/479
f 550/511/478 116/354/337 462/383/364
f 550/511/478 462/383/364 552/513/480
f 552/513/480 462/383/364 125/382/363
f 550/511/478 169/512/479 551/540/505
f 550/511/478 551/540/505 442/355/338
f 442/355/338 551/540/505 108/539/504
f 549/510/477 166/535/500 539/500/468
f 549/510/477 539/500/468 548/509/476
f 548/509/476 539/500/468 62/208/200
f 548/509/476 62/208/200 327/545/509
f 548/509/476 327/545/509 545/505/472
f 545/505/472 327/545/509 72/546/510
f 547/508/475 168/538/503 542/502/469
f 547/508/475 542/502/469 546/506/473
f 546/506/473 542/502/469 80/233/225
f 371/262/253 89/261/252 395/547/511
f 371/262/253 395/547/511 546/506/473
f 546/506/473 395/547/511 99/507/474
f 545/505/472 72/546/510 348/234/226
f 545/505/472 348/234/226 543/503/470
f 543/503/470 348/234/226 80/233/225
f 542/502/469 168/538/503 544/537/502
f 542/502/469 544/537/502 543/503/470
f 543/503/470 544/537/502 167/504/471
f 539/500/468 166/535/500 541/534/498
f 539/500/468 541/534/498 540/501/148
f 540/150/148 541/532/498 48/531/497
f 537/483/453 27/65/63 538/548/512
f 537/483/453 538/548/512 536/479/449
f 536/479/449 538/548/512 41/549/513
f 227/66/64 27/65/63 537/483/453
f 227/66/64 537/483/453 519/482/452
f 519/482/452 537/483/453 146/478/448
f 536/479/449 41/549/513 535/550/514
f 536/479/449 535/550/514 517/480/450
f 517/480/450 535/550/514 145/473/444
f 531/474/445 145/473/444 535/550/514
f 531/474/445 535/550/514 534/477/447
f 534/477/447 535/550/514 41/549/513
f 532/475/446 38/476/90 533/551/92
f 532/475/446 533/551/92 528/471/442
f 528/471/442 533/551/92 150/469/93
f 531/474/445 38/476/90 532/475/446
f 531/474/445 532/475/446 512/448/426
f 512/448/426 532/475/446 143/447/425
f 529/552/443 151/90/88 530/553/515
f 529/472/443 530/554/515 527/470/441
f 527/470/441 530/554/515 144/555/516
f 527/470/441 144/555/516 511/556/517
f 527/470/441 511/556/517 528/471/442
f 528/471/442 511/556/517 143/447/425
f 224/63/61 25/61/59 507/441/419
f 224/63/61 507/441/419 526/467/440
f 526/467/440 507/441/419 142/437/415
f 525/466/439 35/465/81 239/557/82
f 525/466/439 239/557/82 526/467/440
f 526/467/440 239/557/82 28/468/1
f 525/466/439 142/437/415 504/558/518
f 525/466/439 504/558/518 524/464/438
f 524/464/438 504/558/518 141/434/412
f 523/463/437 149/462/77 238/559/519
f 523/463/437 238/559/519 524/464/438
f 524/464/438 238/559/519 35/465/81
f 523/463/437 141/434/412 501/560/520
f 523/463/437 501/560/520 522/461/436
f 522/461/436 501/560/520 140/431/409
f 520/459/434 32/458/73 234/561/521
f 520/459/434 234/561/521 522/461/436
f 522/461/436 234/561/521 149/462/77
f 520/459/434 140/431/409 498/430/408
f 520/459/434 498/430/408 521/460/435
f 521/460/435 498/430/408 138/428/406
f 518/455/433 26/481/451 519/482/452
f 518/455/433 519/482/452 515/451/429
f 515/451/429 519/482/452 146/478/448
f 223/453/431 26/481/451 518/455/433
f 223/453/431 518/455/433 496/454/432
f 496/454/432 518/455/433 137/450/428
f 516/452/430 146/478/448 517/480/450
f 516/452/430 517/480/450 514/449/427
f 514/449/427 517/480/450 145/473/444
f 515/451/429 146/478/448 516/452/430
f 515/451/429 516/452/430 492/422/400
f 492/422/400 516/452/430 136/421/399
f 514/449/427 145/473/444 513/562/522
f 514/449/427 513/562/522 489/419/397
f 489/419/397 513/562/522 135/417/395
f 508/442/420 135/417/395 513/562/522
f 508/442/420 513/562/522 512/448/426
f 512/448/426 513/562/522 145/473/444
f 509/445/423 143/447/425 511/556/517
f 509/445/423 511/556/517 510/446/424
f 510/446/424 511/556/517 144/555/516
f 508/442/420 143/447/425 509/445/423
f 508/442/420 509/445/423 487/443/421
f 487/443/421 509/445/423 134/444/422
f 507/441/419 25/61/59 221/563/523
f 507/441/419 221/563/523 506/440/418
f 506/440/418 221/563/523 23/57/55
f 484/439/417 133/410/388 505/438/416
f 484/439/417 505/438/416 506/440/418
f 506/440/418 505/438/416 142/437/415
f 505/438/416 133/410/388 481/564/524
f 505/438/416 481/564/524 503/436/414
f 503/436/414 481/564/524 132/407/385
f 502/435/413 141/434/412 504/558/518
f 502/435/413 504/558/518 503/436/414
f 503/436/414 504/558/518 142/437/415
f 502/435/413 132/407/385 478/565/525
f 502/435/413 478/565/525 500/433/411
f 500/433/411 478/565/525 131/404/382
f 499/432/410 140/431/409 501/560/520
f 499/432/410 501/560/520 500/433/411
f 500/433/411 501/560/520 141/434/412
f 499/432/410 131/404/382 475/403/381
f 499/432/410 475/403/381 497/429/407
f 497/429/407 475/403/381 129/401/379
f 497/429/407 129/401/379 138/428/406
f 495/426/404 24/59/57 496/454/432
f 495/426/404 496/454/432 494/423/401
f 494/423/401 496/454/432 137/450/428
f 219/424/402 24/59/57 495/426/404
f 219/424/402 495/426/404 473/425/403
f 473/425/403 495/426/404 128/395/375
f 494/423/401 137/450/428 493/566/526
f 494/423/401 493/566/526 469/391/372
f 469/391/372 493/566/526 127/386/367
f 491/420/398 127/386/367 493/566/526
f 491/420/398 493/566/526 492/422/400
f 492/422/400 493/566/526 137/450/428
f 491/420/398 136/421/399 490/567/527
f 491/420/398 490/567/527 466/387/368
f 466/387/368 490/567/527 126/568/528
f 488/418/396 126/568/528 490/567/527
f 488/418/396 490/567/527 489/419/397
f 489/419/397 490/567/527 136/421/399
f 465/416/394 126/568/528 488/418/396
f 465/416/394 488/418/396 485/414/392
f 485/414/392 488/418/396 135/417/395
f 485/414/392 135/417/395 487/443/421
f 485/414/392 487/443/421 486/415/393
f 486/415/393 487/443/421 134/444/422
f 217/413/391 22/380/361 461/569/529
f 217/413/391 461/569/529 483/412/390
f 483/412/390 461/569/529 124/376/357
f 482/411/389 133/410/388 484/439/417
f 482/411/389 484/439/417 483/412/390
f 483/412/390 484/439/417 23/57/55
f 482/411/389 124/376/357 458/570/530
f 482/411/389 458/570/530 480/409/387
f 480/409/387 458/570/530 123/373/354
f 479/408/386 132/407/385 481/564/524
f 479/408/386 481/564/524 480/409/387
f 480/409/387 481/564/524 133/410/388
f 479/408/386 123/373/354 455/571/531
f 479/408/386 455/571/531 477/406/384
f 477/406/384 455/571/531 122/370/351
f 476/405/383 131/404/382 478/565/525
f 476/405/383 478/565/525 477/406/384
f 477/406/384 478/565/525 132/407/385
f 476/405/383 122/370/351 452/369/350
f 476/405/383 452/369/350 474/402/380
f 474/402/380 452/369/350 120/367/348
f 120/367/348 129/401/379 475/403/381
f 213/399/50 21/54/52 473/425/403
f 213/399/50 473/425/403 472/397/377
f 472/397/377 473/425/403 128/395/375
f 471/396/376 119/572/345 450/573/532
f 471/396/376 450/573/532 472/397/377
f 472/397/377 450/573/532 19/398/48
f 448/393/373 119/572/345 471/396/376
f 448/393/373 471/396/376 470/394/374
f 470/394/374 471/396/376 128/395/375
f 468/390/371 118/392/342 470/394/374
f 468/390/371 470/394/374 469/391/372
f 469/391/372 470/394/374 128/395/375
f 445/389/370 118/392/342 468/390/371
f 445/389/370 468/390/371 467/388/369
f 467/388/369 468/390/371 127/386/367
f 466/387/368 126/568/528 464/385/366
f 466/387/368 464/385/366 467/388/369
f 467/388/369 464/385/366 117/356/339
f 464/385/366 126/568/528 465/416/394
f 464/385/366 465/416/394 463/384/365
f 463/384/365 465/416/394 125/382/363
f 462/383/364 116/354/337 441/574/533
f 462/383/364 441/574/533 463/384/365
f 463/384/365 441/574/533 117/356/339
f 215/575/362 20/576/534 438/577/535
f 215/575/362 438/577/535 460/578/360
f 460/578/360 438/577/535 115/579/359
f 459/377/358 124/376/357 461/569/529
f 459/377/358 461/569/529 460/379/360
f 460/379/360 461/569/529 22/380/361
f 459/377/358 115/378/359 436/580/536
f 459/377/358 436/580/536 457/375/356
f 457/375/356 436/580/536 114/346/330
f 456/374/355 123/373/354 458/570/530
f 456/374/355 458/570/530 457/375/356
f 457/375/356 458/570/530 124/376/357
f 456/374/355 114/346/330 433/581/537
f 456/374/355 433/581/537 454/372/353
f 454/372/353 433/581/537 113/334/318
f 453/371/352 122/370/351 455/571/531
f 453/371/352 455/571/531 454/372/353
f 454/372/353 455/571/531 123/373/354
f 453/371/352 113/334/318 429/336/320
f 453/371/352 429/336/320 451/368/349
f 451/368/349 429/336/320 111/332/316
f 451/368/349 111/332/316 120/367/348
f 209/46/46 19/51/48 450/582/532
f 209/46/46 450/582/532 449/365/346
f 449/365/346 450/582/532 119/364/345
f 447/363/344 110/330/314 427/583/538
f 447/363/344 427/583/538 449/365/346
f 449/365/346 427/583/538 17/44/44
f 447/363/344 119/364/345 448/584/373
f 447/363/344 448/584/373 446/362/343
f 446/362/343 448/584/373 118/360/342
f 444/361/341 109/325/311 425/585/539
f 444/361/341 425/585/539 446/362/343
f 446/362/343 425/585/539 110/330/314
f 444/359/341 118/392/342 445/389/370
f 444/359/341 445/389/370 443/357/340
f 443/357/340 445/389/370 117/356/339
f 439/352/335 107/320/306 422/586/540
f 439/352/335 422/586/540 443/357/340
f 443/357/340 422/586/540 109/358/311
f 442/355/338 108/539/504 418/321/307
f 442/355/338 418/321/307 440/353/336
f 440/353/336 418/321/307 107/320/306
f 439/352/335 117/356/339 441/574/533
f 439/352/335 441/574/533 440/353/336
f 440/353/336 441/574/533 116/354/337
f 415/351/334 106/343/327 435/345/329
f 415/351/334 435/345/329 437/349/332
f 437/349/332 435/345/329 115/579/359
f 437/349/332 115/579/359 438/577/535
f 437/349/332 438/577/535 211/350/333
f 211/350/333 438/577/535 20/576/534
f 434/344/328 106/343/327 413/587/541
f 434/347/328 413/588/541 432/342/326
f 432/342/326 413/588/541 105/340/324
f 434/347/328 114/346/330 436/580/536
f 434/344/328 436/589/536 435/345/329
f 435/345/329 436/589/536 115/579/359
f 431/341/325 105/340/324 410/590/542
f 431/341/325 410/590/542 428/335/319
f 428/335/319 410/590/542 104/338/322
f 431/341/325 113/334/318 433/581/537
f 431/341/325 433/581/537 432/342/326
f 432/342/326 433/581/537 114/346/330
f 111/332/316 430/337/321 407/339/323
f 428/335/319 104/338/322 430/337/321
f 428/335/319 430/337/321 429/336/320
f 429/336/320 430/337/321 111/332/316
f 205/42/42 17/44/44 427/583/538
f 205/42/42 427/583/538 426/331/315
f 426/331/315 427/583/538 110/330/314
f 424/329/313 101/328/287 404/591/543
f 424/329/313 404/591/543 426/331/315
f 426/331/315 404/591/543 15/40/40
f 424/329/313 110/330/314 425/585/539
f 424/329/313 425/585/539 423/327/312
f 423/327/312 425/585/539 109/325/311
f 421/592/310 100/593/283 400/594/284
f 421/326/310 400/595/284 423/327/312
f 423/327/312 400/595/284 101/328/287
f 421/324/310 109/358/311 422/586/540
f 421/324/310 422/586/540 420/323/309
f 420/323/309 422/586/540 107/320/306
f 416/319/305 98/288/276 399/596/544
f 416/319/305 399/596/544 420/323/309
f 420/323/309 399/596/544 100/295/283
f 418/321/307 108/539/504 419/524/490
f 418/321/307 419/524/490 417/322/308
f 417/322/308 419/524/490 99/507/474
f 416/319/305 107/320/306 417/322/308
f 416/319/305 417/322/308 393/289/277
f 393/289/277 417/322/308 99/507/474
f 392/318/304 97/311/272 412/313/299
f 392/318/304 412/313/299 414/316/302
f 414/316/302 412/313/299 106/343/327
f 414/316/302 106/343/327 415/351/334
f 414/316/302 415/351/334 207/317/303
f 207/317/303 415/351/334 18/348/331
f 390/597/300 96/598/294 409/599/296
f 390/314/300 409/600/296 411/312/298
f 411/312/298 409/600/296 105/601/324
f 411/312/298 105/601/324 413/587/541
f 411/312/298 413/587/541 412/313/299
f 412/313/299 413/587/541 106/343/327
f 387/310/297 95/275/266 406/306/293
f 387/310/297 406/306/293 408/308/295
f 408/308/295 406/306/293 104/338/322
f 408/308/295 104/338/322 410/590/542
f 408/308/295 410/590/542 409/309/296
f 409/309/296 410/590/542 105/340/324
f 405/305/292 102/304/291 407/339/323
f 405/305/292 407/339/323 406/306/293
f 406/306/293 407/339/323 104/338/322
f 201/38/38 15/40/40 404/591/543
f 201/38/38 404/591/543 403/302/289
f 403/302/289 404/591/543 101/328/287
f 402/300/288 92/271/262 382/602/545
f 402/300/288 382/602/545 403/301/289
f 403/301/289 382/602/545 13/603/36
f 380/297/285 92/271/262 402/300/288
f 380/297/285 402/300/288 401/298/286
f 401/298/286 402/300/288 101/299/287
f 398/294/282 91/268/259 401/298/286
f 398/294/282 401/298/286 400/296/284
f 400/296/284 401/298/286 101/299/287
f 398/294/282 100/295/283 399/596/544
f 398/294/282 399/596/544 397/293/281
f 397/293/281 399/596/544 98/288/276
f 396/292/280 90/265/256 377/604/546
f 396/292/280 377/604/546 397/293/281
f 397/293/281 377/604/546 91/268/259
f 374/291/279 90/265/256 396/292/280
f 374/291/279 396/292/280 394/290/278
f 394/290/278 396/292/280 98/288/276
f 393/289/277 99/507/474 395/547/511
f 393/289/277 395/547/511 394/290/278
f 394/290/278 395/547/511 89/261/252
f 370/605/39 88/606/247 388/607/273
f 370/287/39 388/608/273 391/285/275
f 391/285/275 388/608/273 97/311/272
f 391/285/275 97/311/272 392/318/304
f 391/285/275 392/318/304 203/286/275
f 203/286/275 392/318/304 16/315/301
f 386/280/271 96/307/294 390/609/300
f 386/280/271 390/609/300 389/283/274
f 389/283/274 390/609/300 97/281/272
f 388/282/273 88/255/247 368/610/547
f 388/282/273 368/610/547 389/283/274
f 389/283/274 368/610/547 87/278/269
f 385/279/270 87/278/269 364/253/245
f 385/279/270 364/253/245 383/276/267
f 383/276/267 364/253/245 86/250/242
f 385/279/270 95/275/266 387/310/297
f 385/279/270 387/310/297 386/280/271
f 386/280/271 387/310/297 96/307/294
f 383/276/267 86/250/242 362/252/244
f 383/276/267 362/252/244 384/277/268
f 384/277/268 362/252/244 85/248/240
f 197/35/35 13/603/36 382/602/545
f 197/35/35 382/602/545 381/272/263
f 381/272/263 382/602/545 92/271/262
f 379/270/261 83/245/237 359/611/548
f 379/270/261 359/611/548 381/272/263
f 381/272/263 359/611/548 11/28/28
f 379/270/261 92/271/262 380/297/285
f 379/270/261 380/297/285 378/269/260
f 378/269/260 380/297/285 91/268/259
f 376/267/258 82/242/234 356/243/235
f 376/267/258 356/243/235 378/269/260
f 378/269/260 356/243/235 83/245/237
f 376/267/258 91/268/259 377/604/546
f 376/267/258 377/604/546 375/266/257
f 375/266/257 377/604/546 90/265/256
f 373/264/255 81/237/229 354/612/549
f 373/264/255 354/612/549 375/266/257
f 375/266/257 354/612/549 82/242/234
f 373/264/255 90/265/256 374/291/279
f 373/264/255 374/291/279 372/263/254
f 372/263/254 374/291/279 89/261/252
f 371/262/253 80/233/225 351/613/550
f 371/262/253 351/613/550 372/263/254
f 372/263/254 351/613/550 81/237/229
f 346/231/223 79/225/217 366/256/248
f 346/231/223 366/256/248 369/259/34
f 369/259/34 366/256/248 88/255/247
f 369/259/34 88/255/247 370/614/39
f 369/259/34 370/614/39 199/260/251
f 199/260/251 370/614/39 14/615/39
f 365/258/250 87/278/269 368/610/547
f 365/258/250 368/610/547 367/257/249
f 367/257/249 368/610/547 88/255/247
f 366/256/248 79/225/217 344/227/219
f 366/256/248 344/227/219 367/257/249
f 367/257/249 344/227/219 78/228/220
f 364/253/245 87/278/269 365/258/250
f 364/253/245 365/258/250 363/254/246
f 363/254/246 365/258/250 78/228/220
f 361/251/243 86/250/242 363/254/246
f 361/251/243 363/254/246 341/223/215
f 341/223/215 363/254/246 78/228/220
f 361/251/243 77/220/212 360/249/241
f 361/251/243 360/249/241 362/252/244
f 362/252/244 360/249/241 85/248/240
f 339/222/214 76/218/210 85/248/240
f 357/246/238 74/215/207 336/616/551
f 357/246/238 336/616/551 358/244/236
f 358/244/236 336/616/551 9/22/22
f 192/29/29 11/28/28 359/611/548
f 192/29/29 359/611/548 358/244/236
f 358/244/236 359/611/548 83/245/237
f 355/240/232 74/215/207 357/246/238
f 355/240/232 357/246/238 356/243/235
f 356/243/235 357/246/238 83/245/237
f 355/240/232 82/242/234 353/239/231
f 355/240/232 353/239/231 334/241/233
f 334/241/233 353/239/231 73/212/204
f 353/239/231 82/242/234 354/612/549
f 353/239/231 354/612/549 352/238/230
f 352/238/230 354/612/549 81/237/229
f 350/236/228 71/205/197 331/617/552
f 350/236/228 331/617/552 352/238/230
f 352/238/230 331/617/552 73/212/204
f 350/236/228 81/237/229 351/613/550
f 350/236/228 351/613/550 349/235/227
f 349/235/227 351/613/550 80/233/225
f 348/234/226 72/546/510 325/206/198
f 348/234/226 325/206/198 349/235/227
f 349/235/227 325/206/198 71/205/197
f 347/232/224 10/25/25 323/203/195
f 347/232/224 323/203/195 343/226/218
f 343/226/218 323/203/195 70/199/191
f 195/33/33 10/25/25 347/232/224
f 195/33/33 347/232/224 346/231/223
f 346/231/223 347/232/224 79/225/217
f 345/229/221 70/199/191 321/201/193
f 345/229/221 321/201/193 342/230/222
f 342/230/222 321/201/193 69/196/188
f 343/226/218 70/199/191 345/229/221
f 343/226/218 345/229/221 344/227/219
f 344/227/219 345/229/221 78/228/220
f 341/223/215 78/228/220 342/230/222
f 341/223/215 342/230/222 340/224/216
f 340/224/216 342/230/222 69/196/188
f 338/221/213 77/220/212 340/224/216
f 338/221/213 340/224/216 319/198/190
f 319/198/190 340/224/216 69/196/188
f 338/221/213 68/193/185 337/219/211
f 338/221/213 337/219/211 339/222/214
f 339/222/214 337/219/211 76/218/210
f 316/195/187 66/190/182 76/218/210
f 188/23/23 9/22/22 336/616/551
f 188/23/23 336/616/551 335/216/208
f 335/216/208 336/616/551 74/215/207
f 333/214/206 65/187/179 313/618/553
f 333/214/206 313/618/553 335/216/208
f 335/216/208 313/618/553 5/16/16
f 333/214/206 74/215/207 334/241/233
f 333/214/206 334/241/233 332/213/205
f 332/213/205 334/241/233 73/212/204
f 330/211/203 63/186/178 310/619/554
f 330/211/203 310/619/554 332/213/205
f 332/213/205 310/619/554 65/187/179
f 330/211/203 73/212/204 331/617/552
f 330/211/203 331/617/552 329/210/202
f 329/210/202 331/617/552 71/205/197
f 328/209/201 305/177/151 307/182/175
f 328/209/201 307/182/175 329/210/202
f 329/210/202 307/182/175 63/186/178
f 304/178/173 305/177/151 328/209/201
f 304/178/173 328/209/201 326/207/199
f 326/207/199 328/209/201 71/205/197
f 325/206/198 72/546/510 327/545/509
f 325/206/198 327/545/509 326/207/199
f 326/207/199 327/545/509 62/208/200
f 324/204/196 6/19/19 301/175/171
f 324/204/196 301/175/171 320/200/192
f 320/200/192 301/175/171 61/171/167
f 191/27/27 6/19/19 324/204/196
f 191/27/27 324/204/196 323/203/195
f 323/203/195 324/204/196 70/199/191
f 322/202/194 61/171/167 299/173/169
f 322/202/194 299/173/169 318/197/189
f 318/197/189 299/173/169 60/167/163
f 320/200/192 61/171/167 322/202/194
f 320/200/192 322/202/194 321/201/193
f 321/201/193 322/202/194 69/196/188
f 318/197/189 60/167/163 317/620/555
f 318/197/189 317/620/555 319/198/190
f 319/198/190 317/620/555 68/193/185
f 315/194/186 68/193/185 317/620/555
f 315/194/186 317/620/555 296/169/165
f 296/169/165 317/620/555 60/167/163
f 315/194/186 59/164/160 314/192/184
f 315/194/186 314/192/184 316/195/187
f 316/195/187 314/192/184 66/190/182
f 184/17/17 5/16/16 313/618/553
f 184/17/17 313/618/553 311/188/180
f 311/188/180 313/618/553 65/187/179
f 308/184/176 64/183/157 312/621/556
f 308/184/176 312/621/556 311/188/180
f 311/188/180 312/621/556 7/189/181
f 306/181/174 55/180/154 290/622/557
f 306/181/174 290/622/557 309/185/177
f 309/185/177 290/622/557 64/183/157
f 308/184/176 65/187/179 310/619/554
f 308/184/176 310/619/554 309/185/177
f 309/185/177 310/619/554 63/186/178
f 306/181/174 63/186/178 307/182/175
f 304/178/173 62/208/200 540/501/148
f 304/178/173 540/501/148 285/179/147
f 302/176/172 8/623/12 303/624/146
f 302/176/172 303/624/146 298/172/168
f 298/172/168 303/624/146 54/625/143
f 187/21/21 8/623/12 302/176/172
f 187/21/21 302/176/172 301/175/171
f 301/175/171 302/176/172 61/171/167
f 300/174/170 54/625/143 282/626/142
f 300/174/170 282/626/142 295/168/164
f 295/168/164 282/626/142 53/627/141
f 298/172/168 54/625/143 300/174/170
f 298/172/168 300/174/170 299/173/169
f 299/173/169 300/174/170 60/167/163
f 297/170/166 53/627/141 279/628/137
f 297/170/166 279/628/137 292/165/161
f 292/165/161 279/628/137 52/629/136
f 295/168/164 53/627/141 297/170/166
f 295/168/164 297/170/166 296/169/165
f 296/169/165 297/170/166 59/164/160
f 292/165/161 52/629/136 294/630/133
f 292/165/161 294/630/133 293/166/162
f 293/166/162 294/630/133 51/162/131
f 288/154/152 50/123/121 275/131/129
f 288/154/152 275/131/129 291/158/156
f 291/158/156 275/131/129 4/128/126
f 183/157/155 7/631/181 312/632/556
f 183/157/155 312/632/556 291/158/156
f 291/158/156 312/632/556 64/159/157
f 286/151/149 49/119/117 271/124/122
f 286/151/149 271/124/122 289/155/153
f 289/155/153 271/124/122 50/123/121
f 288/154/152 64/159/157 290/633/557
f 288/154/152 290/633/557 289/155/153
f 289/155/153 290/633/557 55/156/154
f 285/149/147 47/115/113 270/122/120
f 285/149/147 270/122/120 287/152/150
f 287/152/150 270/122/120 49/119/117
f 286/151/149 55/156/154 307/634/175
f 286/151/149 307/634/175 287/152/150
f 287/152/150 307/634/175 305/153/151
f 540/150/148 48/531/497 266/118/116
f 540/150/148 266/118/116 47/115/113
f 303/148/146 8/12/12 181/14/14
f 303/148/146 181/14/14 284/146/144
f 284/146/144 181/14/14 3/9/9
f 284/146/144 3/9/9 263/114/112
f 284/146/144 263/114/112 283/147/145
f 283/147/145 263/114/112 46/111/109
f 282/144/142 54/145/143 283/147/145
f 282/144/142 283/147/145 281/142/140
f 281/142/140 283/147/145 46/111/109
f 260/141/139 45/108/106 280/635/558
f 260/141/139 280/635/558 281/142/140
f 281/142/140 280/635/558 53/143/141
f 279/139/137 53/143/141 280/635/558
f 279/139/137 280/635/558 278/140/138
f 278/140/138 280/635/558 45/108/106
f 277/136/134 52/138/136 278/140/138
f 277/136/134 278/140/138 257/137/135
f 257/137/135 278/140/138 45/108/106
f 294/135/133 52/138/136 277/136/134
f 294/135/133 277/136/134 276/134/132
f 276/134/132 277/136/134 44/105/103
f 275/131/129 50/123/121 273/636/559
f 275/131/129 273/636/559 274/129/127
f 274/129/127 273/636/559 40/97/95
f 274/129/127 40/97/95 253/101/99
f 274/129/127 253/101/99 179/130/128
f 179/130/128 253/101/99 1/4/4
f 251/127/125 40/97/95 273/636/559
f 251/127/125 273/636/559 272/125/123
f 272/125/123 273/636/559 50/123/121
f 271/124/122 49/119/117 269/121/119
f 271/124/122 269/121/119 272/125/123
f 272/125/123 269/121/119 39/126/124
f 270/122/120 47/115/113 265/117/115
f 270/122/120 265/117/115 268/120/118
f 268/120/118 265/117/115 36/87/85
f 268/120/118 36/87/85 248/637/560
f 268/120/118 248/637/560 269/121/119
f 269/121/119 248/637/560 39/126/124
f 266/118/116 48/531/497 267/530/496
f 266/118/116 267/530/496 264/116/114
f 264/116/114 267/530/496 37/529/495
f 264/116/114 37/529/495 245/638/561
f 264/116/114 245/638/561 265/117/115
f 265/117/115 245/638/561 36/87/85
f 263/114/112 3/9/9 176/7/7
f 263/114/112 176/7/7 262/113/111
f 262/113/111 176/7/7 2/6/6
f 241/85/83 34/81/79 261/112/110
f 241/85/83 261/112/110 262/113/111
f 262/113/111 261/112/110 46/111/109
f 261/112/110 34/81/79 236/639/562
f 261/112/110 236/639/562 259/110/108
f 259/110/108 236/639/562 33/77/75
f 258/109/107 45/108/106 260/141/139
f 258/109/107 260/141/139 259/110/108
f 259/110/108 260/141/139 46/111/109
f 258/109/107 33/77/75 232/640/563
f 258/109/107 232/640/563 256/107/105
f 256/107/105 232/640/563 31/73/71
f 255/106/104 44/105/103 257/137/135
f 255/106/104 257/137/135 256/107/105
f 256/107/105 257/137/135 45/108/106
f 255/106/104 31/73/71 229/72/70
f 255/106/104 229/72/70 254/104/102
f 254/104/102 229/72/70 29/69/67
f 253/101/99 40/97/95 250/99/97
f 253/101/99 250/99/97 252/100/98
f 252/100/98 250/99/97 41/641/513
f 252/100/98 41/641/513 538/642/512
f 252/100/98 538/642/512 175/5/5
f 175/5/5 538/642/512 27/643/63
f 249/98/96 40/97/95 251/127/125
f 249/98/96 251/127/125 246/93/91
f 246/93/91 251/127/125 39/126/124
f 249/98/96 38/92/90 534/644/447
f 249/98/96 534/644/447 250/99/97
f 250/99/97 534/644/447 41/641/513
f 247/96/94 39/126/124 248/637/560
f 247/96/94 248/637/560 243/89/87
f 243/89/87 248/637/560 36/87/85
f 246/93/91 39/126/124 247/96/94
f 246/93/91 247/96/94 533/94/92
f 533/94/92 247/96/94 150/95/93
f 242/88/86 36/87/85 245/638/561
f 242/88/86 245/638/561 244/91/89
f 244/91/89 245/638/561 37/529/495
f 242/88/86 151/90/88 529/552/443
f 242/88/86 529/552/443 243/89/87
f 243/89/87 529/552/443 150/95/93
f 241/85/83 2/6/6 172/2/2
f 241/85/83 172/2/2 240/86/84
f 240/86/84 172/2/2 28/1/1
f 237/82/80 34/81/79 240/86/84
f 237/82/80 240/86/84 239/84/82
f 239/84/82 240/86/84 28/1/1
f 237/82/80 35/83/81 238/645/519
f 237/82/80 238/645/519 235/80/78
f 235/80/78 238/645/519 149/79/77
f 233/78/76 33/77/75 236/639/562
f 233/78/76 236/639/562 235/80/78
f 235/80/78 236/639/562 34/81/79
f 233/78/76 149/79/77 234/646/521
f 233/78/76 234/646/521 231/76/74
f 231/76/74 234/646/521 32/75/73
f 230/74/72 31/73/71 232/640/563
f 230/74/72 232/640/563 231/76/74
f 231/76/74 232/640/563 33/77/75
f 230/74/72 32/75/73 228/71/69
f 228/71/69 32/75/73 147/70/68
f 147/70/68 29/69/67 229/72/70
f 227/66/64 26/481/451 222/62/60
f 227/66/64 222/62/60 225/64/62
f 225/64/62 222/62/60 25/61/59
f 224/63/61 28/468/1 226/647/564
f 224/63/61 226/647/564 225/64/62
f 225/64/62 226/647/564 27/65/63
f 222/62/60 26/481/451 223/453/431
f 222/62/60 223/453/431 220/60/58
f 220/60/58 223/453/431 24/59/57
f 218/58/56 23/57/55 221/563/523
f 218/58/56 221/563/523 220/60/58
f 220/60/58 221/563/523 25/61/59
f 218/58/56 24/59/57 219/424/402
f 218/58/56 219/424/402 216/56/54
f 216/56/54 219/424/402 21/54/52
f 214/55/53 22/380/361 217/413/391
f 214/55/53 217/413/391 216/56/54
f 216/56/54 217/413/391 23/57/55
f 210/52/51 20/576/534 215/575/362
f 210/52/51 215/575/362 212/53/49
f 212/648/49 215/381/362 22/380/361
f 212/648/49 22/380/361 214/55/53
f 212/648/49 214/55/53 213/399/50
f 213/399/50 214/55/53 21/54/52
f 206/47/47 18/348/331 211/350/333
f 206/47/47 211/350/333 208/45/45
f 208/45/45 211/350/333 20/576/534
f 208/45/45 20/576/534 210/52/51
f 208/45/45 210/52/51 209/46/46
f 209/46/46 210/52/51 19/51/48
f 202/43/43 16/315/301 207/317/303
f 202/43/43 207/317/303 204/41/41
f 204/41/41 207/317/303 18/348/331
f 204/41/41 18/348/331 206/47/47
f 204/41/41 206/47/47 205/42/42
f 205/42/42 206/47/47 17/44/44
f 198/39/39 14/284/39 203/286/275
f 198/39/39 203/286/275 200/37/37
f 200/37/37 203/286/275 16/315/301
f 200/37/37 16/315/301 202/43/43
f 200/37/37 202/43/43 201/38/38
f 201/38/38 202/43/43 15/40/40
f 193/30/30 12/31/31 199/260/251
f 193/30/30 199/260/251 196/34/34
f 196/34/34 199/260/251 14/615/39
f 196/34/34 14/615/39 198/649/39
f 196/34/34 198/649/39 197/35/35
f 197/35/35 198/649/39 13/603/36
f 194/32/32 9/22/22 189/24/24
f 194/32/32 189/24/24 195/33/33
f 195/33/33 189/24/24 10/25/25
f 192/29/29 9/22/22 194/32/32
f 192/29/29 194/32/32 193/30/30
f 193/30/30 194/32/32 12/31/31
f 190/26/26 5/16/16 185/18/18
f 190/26/26 185/18/18 191/27/27
f 191/27/27 185/18/18 6/19/19
f 188/23/23 5/16/16 190/26/26
f 188/23/23 190/26/26 189/24/24
f 189/24/24 190/26/26 10/25/25
f 186/20/20 7/189/181 182/650/15
f 186/20/20 182/650/15 187/21/21
f 187/21/21 182/650/15 8/623/12
f 184/17/17 7/189/181 186/20/20
f 184/17/17 186/20/20 185/18/18
f 185/18/18 186/20/20 6/19/19
f 182/15/15 7/631/181 183/157/155
f 182/15/15 183/157/155 180/13/13
f 180/13/13 183/157/155 4/128/126
f 180/13/13 4/128/126 178/10/10
f 180/13/13 178/10/10 181/14/14
f 181/14/14 178/10/10 3/9/9
f 178/10/10 4/128/126 179/130/128
f 178/10/10 179/130/128 177/11/11
f 177/11/11 179/130/128 1/4/4
f 176/7/7 3/9/9 177/11/11
f 176/7/7 177/11/11 174/8/8
f 174/8/8 177/11/11 1/4/4
f 175/5/5 27/643/63 226/651/564
f 175/5/5 226/651/564 173/3/3
f 173/3/3 226/651/564 28/1/1
f 172/2/2 2/6/6 174/8/8
f 172/2/2 174/8/8 173/3/3
f 173/3/3 174/8/8 1/4/4
f 125/382/363 567/515/482 553/514/481
f 170/536/501 568/544/508 555/542/506
f 254/104/102 42/103/101 44/105/103
f 42/103/101 276/134/132 44/105/103
f 293/166/162 58/163/159 59/164/160
f 58/163/159 314/192/184 59/164/160
f 384/277/268 93/273/264 95/275/266
f 405/305/292 93/273/264 102/304/291
f 521/460/435 147/457/68 32/458/73
f 497/429/407 138/428/406 498/430/408
f 120/367/348 475/403/381 474/402/380
f 451/368/349 120/367/348 452/369/350
f 111/332/316 407/339/323 102/304/291
f 339/222/214 85/248/240 360/249/241
f 316/195/187 76/218/210 337/219/211
f 147/70/68 229/72/70 228/71/69
