# Blender 4.4.3
# www.blender.org
mtllib cave_map_large.mtl
o cave_map_large.012
v -233.532776 -12.915112 -104.048317
v -235.007431 -13.266855 -102.372429
v -231.901901 -12.913510 -100.419945
v -230.280609 -13.725488 -102.620293
v -225.571060 -13.432557 -99.872124
v -224.588318 -12.348116 -99.298668
v -226.062973 -12.348116 -97.622772
v -227.045715 -13.432557 -98.196236
v -224.313202 -10.970746 -99.138123
v -225.787842 -10.970746 -97.462227
v -226.139328 -9.593374 -100.203728
v -227.613983 -9.593374 -98.527840
v -227.554535 -8.216002 -101.029533
v -229.029175 -8.216002 -99.353645
v -230.280609 -8.216002 -102.620293
v -232.281342 -7.557570 -100.781670
v -233.532776 -8.344669 -104.048317
v -235.007431 -8.525025 -102.372429
v -236.258865 -7.613730 -105.639084
v -237.733521 -7.613729 -103.963188
v -237.652008 -8.412928 -106.452026
v -239.807510 -9.996005 -105.531013
v -238.493347 -10.160370 -106.942963
v -239.692871 -11.537741 -105.106529
v -238.218231 -11.537741 -106.782417
v -237.458038 -12.915112 -106.338837
v -237.733521 -12.915112 -103.963188
v -236.088074 -12.815969 -97.004807
v -236.517517 -12.842288 -98.437775
v -235.921829 -13.268188 -100.763626
v -238.813766 -12.546073 -102.201515
v -230.630264 -13.685317 -108.071144
v -229.696442 -13.538168 -107.532738
v -232.993683 -13.711643 -108.488228
v -230.210922 -13.536230 -106.864388
v -231.781708 -13.510655 -105.638618
v -235.928741 -12.901945 -107.588814
v -235.061722 -12.815969 -96.054329
v -234.088531 -12.842288 -97.020378
v -233.195755 -13.173585 -99.172867
v -228.764740 -13.538167 -106.995522
v -228.407379 -13.536230 -105.811966
v -229.352722 -13.510655 -104.221230
v -230.663132 -12.901944 -94.917686
v -227.132385 -13.522136 -105.067963
v -225.234100 -13.651301 -102.203178
v -233.193970 -11.722791 -94.964439
v -233.492447 -12.551662 -95.138603
v -230.218460 -11.654218 -94.658195
v -226.977371 -12.348116 -96.013969
v -227.960114 -13.432557 -96.587433
v -228.258545 -13.523904 -106.703667
v -228.131851 -13.075953 -106.630615
v -226.855438 -12.738494 -104.906357
v -225.289413 -12.513608 -102.376465
v -233.042175 -10.925185 -94.875862
v -229.966965 -10.414031 -94.511436
v -226.702240 -10.970746 -95.853432
v -228.160919 -12.465370 -106.670319
v -226.677216 -11.802052 -104.802361
v -225.271973 -11.249872 -102.321800
v -233.183136 -10.139079 -94.958122
v -231.027695 -9.175851 -95.483932
v -229.054459 -8.782998 -96.756302
v -227.767502 -11.855577 -106.443497
v -226.201813 -10.879111 -104.524948
v -226.457733 -9.986227 -102.531906
v -233.452759 -9.355701 -95.115456
v -231.458191 -7.938518 -95.735123
v -230.469650 -7.405626 -97.582108
v -227.933350 -11.205055 -106.539116
v -226.518372 -9.959376 -104.709663
v -226.888199 -8.748896 -102.783096
v -234.939209 -9.249757 -95.982849
v -234.062317 -7.546401 -97.005089
v -233.195755 -7.557570 -99.172867
v -228.856903 -11.334155 -107.071617
v -228.263565 -9.834991 -105.728043
v -229.326523 -8.725820 -104.205940
v -236.475357 -9.249757 -96.879234
v -236.491318 -7.546402 -98.422478
v -235.921829 -8.525025 -100.763626
v -229.788605 -11.334156 -107.608826
v -230.067108 -9.834991 -106.780464
v -231.755508 -8.725820 -105.623329
v -237.681412 -9.355700 -97.844917
v -238.910965 -7.569479 -99.834419
v -238.813766 -7.036587 -102.201515
v -230.728485 -11.205056 -108.150742
v -232.947113 -9.959377 -108.461044
v -234.850464 -8.342981 -106.959602
v -237.599670 -9.999759 -98.680649
v -239.363007 -8.806811 -100.098198
v -240.114868 -8.413958 -102.973778
v -231.541412 -11.855578 -108.619469
v -233.285812 -10.879112 -108.658691
v -236.352432 -9.175852 -107.836067
v -239.584106 -9.791329 -102.651039
v -231.804245 -12.465371 -108.771004
v -233.484360 -11.802053 -108.774544
v -236.605331 -10.414034 -107.983635
v -239.308975 -11.168701 -102.490494
v -231.427490 -13.075953 -108.530830
v -233.298538 -12.738495 -108.666115
v -236.366577 -11.654220 -107.844299
v -239.293365 -12.357562 -100.064079
v -239.366898 -8.794594 -105.086647
v -234.270111 -13.090983 -103.210373
v -233.644379 -13.266855 -101.577049
v -232.907074 -13.090983 -102.414993
v -231.544006 -13.090983 -101.619614
v -231.643661 -13.725488 -103.415680
v -227.925842 -13.579022 -101.246208
v -225.325653 -12.348116 -98.460716
v -226.554352 -12.890336 -97.909508
v -224.450760 -11.659431 -99.218391
v -225.050522 -10.970746 -98.300179
v -225.188095 -11.659431 -98.380447
v -225.925400 -11.659431 -97.542503
v -225.226257 -10.282060 -99.670929
v -226.876663 -9.593374 -99.365784
v -225.963608 -10.282060 -98.832985
v -226.700928 -10.282060 -97.995033
v -226.846924 -8.904688 -100.616631
v -228.291840 -8.216002 -100.191589
v -227.584244 -8.904688 -99.778687
v -228.321564 -8.904688 -98.940742
v -229.654892 -8.291974 -100.986969
v -228.917572 -8.216002 -101.824921
v -231.544006 -7.481597 -101.619614
v -230.918289 -7.481597 -99.986290
v -232.907074 -7.965326 -102.414993
v -231.643661 -8.685524 -103.415680
v -234.270111 -8.434847 -103.210373
v -233.644379 -8.041297 -101.577049
v -235.633148 -7.979201 -104.005753
v -234.895828 -7.979201 -104.843697
v -236.996201 -7.613730 -104.801140
v -236.370483 -8.069377 -103.167809
v -237.812897 -8.204162 -105.362862
v -236.955429 -8.013330 -106.045555
v -238.509460 -8.603762 -105.769333
v -238.550217 -8.204162 -104.524918
v -238.729767 -9.204466 -105.991524
v -238.158249 -12.317002 -98.508217
v -239.150421 -10.078187 -106.236992
v -238.072693 -9.286649 -106.697495
v -239.093109 -10.849054 -106.024750
v -239.750198 -10.766872 -105.318771
v -238.955536 -11.537741 -105.944481
v -238.355789 -10.849054 -106.862694
v -238.713196 -12.226425 -104.534859
v -238.575455 -12.226425 -105.722679
v -237.595779 -12.915112 -105.151009
v -237.838150 -12.226425 -106.560631
v -237.075638 -12.683817 -97.696518
v -237.309189 -12.696976 -98.132774
v -236.557693 -12.829128 -97.694244
v -236.302597 -12.870719 -99.524261
v -237.450699 -12.722610 -101.406136
v -235.464645 -13.267522 -101.568031
v -230.163345 -13.611742 -107.801941
v -231.602310 -13.623938 -107.676308
v -231.811966 -13.698479 -108.279686
v -230.420593 -13.610774 -107.467766
v -229.953705 -13.537198 -107.198563
v -232.387695 -13.611148 -107.063423
v -234.118271 -12.801110 -106.532349
v -234.724258 -12.901607 -107.957153
v -230.996323 -13.523440 -106.251503
v -234.730759 -12.908527 -105.818565
v -232.394211 -13.618070 -104.924835
v -235.482498 -12.815969 -96.539375
v -235.343185 -12.829128 -96.985550
v -234.575119 -12.829128 -96.537354
v -235.303040 -12.842288 -97.729073
v -234.773712 -13.192456 -98.881760
v -233.559235 -13.192456 -98.173058
v -234.558777 -13.220887 -99.968246
v -234.101593 -13.220220 -100.772652
v -232.738541 -13.220220 -99.977264
v -229.230591 -13.538167 -107.264130
v -229.051926 -13.537198 -106.672356
v -229.309158 -13.536230 -106.338181
v -228.586075 -13.537198 -106.403748
v -228.880051 -13.523440 -105.016594
v -229.781830 -13.523440 -105.542809
v -230.567215 -13.510655 -104.929924
v -231.031158 -13.618070 -104.129456
v -229.816666 -13.618070 -103.420761
v -232.292923 -13.056635 -96.045471
v -231.929443 -13.037764 -97.045273
v -227.769882 -13.529181 -105.439964
v -227.663589 -13.611487 -103.473625
v -228.242538 -13.516395 -104.644592
v -226.553421 -13.617229 -103.896996
v -228.127533 -13.718905 -102.673164
v -224.882080 -13.608184 -101.100334
v -233.343216 -12.137228 -95.051521
v -231.623322 -11.873025 -94.887756
v -227.468735 -12.890336 -96.300705
v -228.860947 -11.595981 -95.254715
v -229.352325 -12.138199 -95.541443
v -226.520172 -12.348116 -96.818375
v -227.011551 -12.890336 -97.105103
v -227.502914 -13.432557 -97.391838
v -228.195206 -13.299928 -106.667145
v -227.493668 -12.907224 -105.768486
v -226.192596 -12.601544 -103.686447
v -224.836899 -12.513608 -100.958748
v -233.118073 -11.323988 -94.920151
v -230.092712 -11.034124 -94.584816
v -231.421661 -10.854127 -94.770088
v -231.547409 -11.474222 -94.843468
v -226.839813 -11.659431 -95.933701
v -228.597641 -10.287201 -95.101067
v -228.735199 -10.975885 -95.181335
v -226.245041 -10.970746 -96.657829
v -226.382599 -11.659431 -96.738098
v -228.146393 -12.770660 -106.650467
v -227.508179 -12.601932 -105.788338
v -226.766327 -12.270273 -104.854362
v -227.419067 -12.133711 -105.736336
v -226.103500 -12.133324 -103.634453
v -225.262894 -11.906163 -102.293365
v -225.977737 -11.513230 -103.561073
v -224.820374 -11.906163 -100.907036
v -224.980362 -11.160825 -101.408272
v -233.112656 -10.532131 -94.916992
v -231.492142 -10.461074 -94.811218
v -232.022507 -9.841984 -95.297462
v -230.497345 -9.794941 -94.997688
v -227.615311 -10.282060 -96.386230
v -230.041077 -8.979424 -96.120117
v -229.128021 -9.668110 -95.587311
v -228.071182 -9.593374 -97.723442
v -227.158112 -10.282060 -97.190636
v -227.964203 -12.160474 -106.556908
v -227.222366 -11.828815 -105.622932
v -226.439514 -11.340582 -104.663651
v -226.984665 -11.367346 -105.484222
v -225.740036 -11.051761 -103.422363
v -226.329773 -10.432670 -103.528427
v -225.599930 -10.605318 -102.296494
v -225.385452 -10.478487 -100.835014
v -226.298538 -9.789801 -101.367821
v -233.317963 -9.747390 -95.036789
v -232.157333 -9.450295 -95.376129
v -231.242935 -8.557184 -95.609528
v -232.372559 -8.831629 -95.501724
v -229.762054 -8.094312 -97.169205
v -230.963913 -7.672072 -96.658615
v -230.256317 -8.360758 -96.245712
v -230.012451 -7.405627 -98.386505
v -228.778763 -8.904688 -98.136345
v -227.850433 -11.530316 -106.491302
v -227.067596 -11.042085 -105.532028
v -226.360092 -10.419245 -104.617310
v -227.225861 -10.582216 -105.624390
v -226.488052 -9.972802 -103.620789
v -226.672974 -9.367561 -102.657501
v -226.703278 -9.354136 -103.746384
v -226.513763 -9.171134 -101.493416
v -227.221359 -8.482449 -101.906319
v -234.195984 -9.302730 -95.549149
v -232.677338 -7.926978 -96.446548
v -233.757553 -8.451052 -96.060272
v -234.500778 -8.398080 -96.493965
v -231.832687 -7.481597 -98.377487
v -232.326950 -7.748043 -97.453995
v -233.546112 -7.736505 -98.165413
v -231.375488 -7.481597 -99.181885
v -232.738541 -7.557570 -99.977264
v -228.395126 -11.269605 -106.805367
v -228.560226 -10.584573 -106.399834
v -228.098450 -10.520024 -106.133575
v -227.390976 -9.897184 -105.218849
v -228.795044 -9.280405 -104.966988
v -227.922440 -9.342598 -104.457802
v -228.107361 -8.737358 -103.494514
v -229.803574 -8.470910 -103.413116
v -228.584412 -8.482449 -102.701698
v -235.707275 -9.249757 -96.431038
v -235.268860 -8.398080 -96.942162
v -235.276810 -7.546401 -97.713783
v -236.483353 -8.398080 -97.650856
v -234.760605 -7.736505 -98.874107
v -234.558777 -8.041297 -99.968246
v -236.289490 -7.851193 -99.516617
v -234.101593 -8.041297 -100.772652
v -235.464645 -8.525025 -101.568031
v -229.322754 -11.334155 -107.340225
v -229.026077 -10.584573 -106.668434
v -229.165314 -9.834991 -106.254250
v -229.927856 -10.584573 -107.194649
v -229.696808 -9.280405 -105.493202
v -230.541016 -8.725820 -104.914635
v -230.911301 -9.280405 -106.201897
v -231.018066 -8.470910 -104.121811
v -232.381104 -8.940433 -104.917198
v -237.268280 -9.302730 -97.341927
v -237.276260 -8.451052 -98.113548
v -237.701141 -7.557940 -99.128456
v -238.486084 -8.462589 -98.819527
v -237.499329 -7.862731 -100.222588
v -237.450699 -7.596286 -101.406136
v -238.862366 -7.303031 -101.017967
v -236.827682 -7.965326 -102.363411
v -238.190720 -7.509677 -103.158791
v -230.258545 -11.269606 -107.879784
v -230.397781 -10.520025 -107.465599
v -231.507095 -9.897185 -107.620750
v -231.837799 -10.582216 -108.305893
v -232.351318 -9.342598 -107.042183
v -233.039948 -8.939589 -106.372841
v -233.635742 -9.556368 -107.791695
v -234.191620 -8.343825 -105.503960
v -235.554657 -7.978356 -106.299339
v -237.855606 -9.534090 -98.101952
v -238.712082 -9.081256 -98.951408
v -238.506485 -9.472944 -99.248734
v -239.136978 -8.188146 -99.966309
v -239.512909 -7.991719 -101.404106
v -239.738922 -8.610384 -101.535988
v -239.464310 -7.725273 -102.587646
v -239.007416 -8.100110 -103.720512
v -239.823792 -8.419757 -103.953773
v -231.134949 -11.530317 -108.385109
v -232.413605 -11.367347 -108.639076
v -232.007156 -11.042086 -108.404716
v -233.116455 -10.419246 -108.559868
v -235.082169 -9.622294 -108.166008
v -234.912811 -9.162427 -108.067184
v -235.601440 -8.759417 -107.397835
v -236.305664 -8.394791 -106.737572
v -237.002228 -8.794390 -107.144043
v -237.619675 -10.654980 -98.525604
v -238.159317 -9.990323 -99.428230
v -239.489456 -9.425901 -100.171982
v -239.473541 -9.299070 -101.374619
v -239.599991 -9.918161 -101.448402
v -239.849487 -9.102644 -102.812408
v -237.513412 -10.274817 -98.507751
v -239.778732 -9.709147 -104.014587
v -231.672821 -12.160475 -108.695236
v -232.644302 -12.133712 -108.772774
v -232.512894 -11.828815 -108.696999
v -233.385086 -11.340583 -108.716614
v -235.307877 -10.702855 -108.297722
v -235.208633 -10.241385 -108.239792
v -236.478897 -9.794943 -107.909851
v -237.422897 -9.668112 -107.389519
v -237.549332 -10.287202 -107.463303
v -237.639648 -11.310199 -98.370598
v -239.229767 -10.616188 -99.996109
v -239.462433 -10.606846 -101.368126
v -239.343033 -11.226940 -101.298462
v -239.446533 -10.480015 -102.570763
v -239.641159 -10.397833 -103.934319
v -239.418015 -11.537741 -103.874947
v -231.615860 -12.770661 -108.650917
v -232.363007 -12.907225 -108.598473
v -232.551376 -12.601933 -108.718559
v -233.391449 -12.270274 -108.720329
v -236.485947 -11.034126 -107.913963
v -235.188492 -11.322948 -108.228050
v -235.095596 -11.791169 -108.173836
v -237.411774 -10.975886 -107.383026
v -237.292389 -11.595981 -107.313362
v -239.265518 -11.486825 -100.210274
v -238.438339 -12.226425 -103.303276
v -236.912308 -12.284666 -107.091568
v -236.370483 -13.090983 -103.167809
v -235.633148 -12.915112 -104.005753
v -235.495407 -12.915112 -105.193581
v -228.663147 -13.579022 -100.408264
v -229.400497 -13.754893 -99.570320
v -226.308395 -13.432557 -99.034180
v -225.079697 -12.890336 -99.585396
v -225.817032 -12.890336 -98.747452
v -237.728394 -12.687595 -99.144363
v -238.220764 -12.474631 -99.032280
v -237.513474 -12.716026 -100.230850
v -238.876526 -12.539488 -101.026230
v -238.190720 -12.915112 -103.158791
v -236.827682 -13.091649 -102.363411
v -236.693390 -12.908527 -106.963829
v -234.277084 -12.683817 -95.596466
v -233.790482 -12.696976 -96.079491
v -231.994873 -12.911323 -95.104584
v -229.574661 -12.762062 -95.671188
v -230.840958 -12.897883 -97.798782
v -230.383774 -12.944518 -98.603180
v -228.511658 -13.531035 -106.849594
v -228.332977 -13.530065 -106.257820
v -227.695480 -13.523021 -105.885811
v -230.440811 -12.278082 -94.787941
v -231.845642 -12.496887 -95.017502
v -227.632126 -13.299044 -105.849289
v -226.993912 -13.130315 -104.987160
v -225.292465 -13.121052 -102.386055
v -226.414932 -13.225408 -103.816193
v -224.820374 -13.121052 -100.907043
v -238.203629 -11.989852 -98.195679
v -239.095428 -11.915627 -101.153969
v -239.061356 -11.857387 -102.346001
v -231.028870 -13.380635 -108.300987
v -233.146118 -13.225069 -108.577171
v -232.210602 -13.393799 -108.509529
v -236.147659 -12.278083 -107.716560
v -234.876678 -12.415031 -108.046097
v -239.587204 -9.395299 -105.308830
v -239.899979 -9.703422 -102.820107
v -230.561966 -13.307062 -108.031776
v -231.484451 -12.465767 -108.575150
v -230.665024 -11.594867 -108.114151
v -228.312210 -11.594866 -106.757553
v -230.608047 -12.205054 -108.069832
v -228.974762 -11.899762 -107.139572
v -228.508911 -11.899762 -106.870964
v -228.928680 -13.001769 -107.101524
v -229.742538 -12.436161 -107.570778
v -228.448303 -13.307059 -106.813072
v -228.462830 -13.001769 -106.832924
v -237.129333 -12.269381 -97.678154
v -236.361267 -12.269381 -97.229965
v -234.127853 -12.269381 -95.509384
v -236.440399 -11.870577 -97.276138
v -234.051941 -11.870577 -95.465096
v -233.990692 -10.087471 -95.429352
v -234.061188 -9.694418 -95.470482
v -236.379135 -10.087471 -97.240395
v -237.147217 -10.087471 -97.688591
v -235.000473 -11.032863 -96.018585
v -237.062668 -9.694418 -97.639259
v -225.115753 -13.728494 -101.832436
v -224.980377 -13.728494 -101.408264
v -225.115753 -11.003713 -101.832428
v -224.879898 -11.517753 -101.093475
v -238.619354 -10.111196 -99.793755
v -237.871277 -11.681842 -98.207207
v -237.590134 -10.982592 -98.372688
v -238.665619 -12.507496 -99.523369
vn 0.3376 0.9384 0.0744
vn 0.0503 0.9899 0.1327
vn 0.0021 0.9945 0.1051
vn 0.2045 0.9781 -0.0389
vn -0.0018 1.0000 0.0031
vn 0.0056 0.9953 0.0969
vn -0.0818 0.9960 0.0352
vn -0.0379 0.9842 0.1732
vn -0.0003 0.9996 0.0287
vn 0.1920 0.9653 -0.1768
vn 0.0663 0.9969 -0.0418
vn -0.3301 0.9182 -0.2188
vn -0.0212 0.9995 0.0227
vn 0.1449 0.9858 -0.0853
vn -0.3011 0.9160 -0.2650
vn -0.8587 0.4446 -0.2551
vn -0.6691 0.6852 -0.2877
vn -0.6546 0.4896 -0.5760
vn -0.7035 0.5023 -0.5028
vn -0.5230 0.7174 -0.4602
vn -0.5629 0.7224 -0.4016
vn -0.9165 -0.3262 -0.2314
vn -0.9512 0.2024 -0.2329
vn -0.6970 -0.3717 -0.6133
vn -0.7494 -0.3867 -0.5374
vn -0.7321 0.2213 -0.6442
vn -0.7935 0.2244 -0.5656
vn -0.6200 -0.7743 -0.1268
vn -0.5696 -0.8179 -0.0810
vn -0.4527 -0.7978 -0.3983
vn -0.4882 -0.8001 -0.3486
vn -0.4152 -0.8331 -0.3654
vn -0.4456 -0.8368 -0.3180
vn -0.3652 -0.9271 -0.0841
vn -0.6014 -0.7620 -0.2403
vn -0.3108 -0.9289 -0.2014
vn -0.4729 -0.8668 -0.1582
vn -0.4884 -0.7595 -0.4298
vn -0.5598 -0.7451 -0.3626
vn -0.1936 -0.9796 0.0530
vn -0.1217 -0.9875 0.1003
vn -0.1010 -0.9378 0.3322
vn 0.1148 -0.9262 0.3591
vn 0.0816 -0.9626 0.2585
vn -0.0882 -0.9889 0.1198
vn -0.2289 -0.9733 -0.0163
vn -0.1719 -0.9641 -0.2025
vn -0.2592 -0.9658 0.0004
vn -0.0312 -0.9980 -0.0557
vn 0.0047 -0.9737 0.2279
vn 0.3843 -0.8783 0.2844
vn 0.2627 -0.8739 0.4090
vn 0.1154 -0.9881 0.1015
vn 0.4181 -0.7317 0.5384
vn 0.5248 -0.7170 0.4588
vn 0.6148 -0.4677 0.6350
vn 0.9084 -0.1253 0.3988
vn 0.7183 -0.1291 0.6836
vn 0.6319 -0.1100 0.7672
vn 0.7287 0.2268 0.6461
vn 0.8841 0.4394 0.1590
vn 0.6939 0.3817 0.6106
vn 0.5894 0.8070 -0.0379
vn 0.6197 0.7139 0.3260
vn 0.3827 0.8532 0.3545
vn 0.5509 0.5154 0.6564
vn 0.5294 0.2235 -0.8184
vn 0.5040 0.6456 -0.5737
vn 0.3860 0.8972 -0.2146
vn 0.1352 0.9900 -0.0394
vn 0.2311 0.9701 -0.0747
vn 0.6805 0.7041 0.2028
vn 0.2050 0.9781 -0.0356
vn 0.1523 0.9835 -0.0973
vn 0.2531 0.9645 -0.0757
vn 0.5521 0.8131 0.1848
vn 0.1842 0.9822 -0.0374
vn 0.0349 0.9992 0.0206
vn 0.2066 0.8038 0.5579
vn -0.0089 0.9957 -0.0923
vn -0.0909 0.8836 0.4593
vn -0.3331 0.7463 0.5763
vn -0.0479 0.9932 -0.1060
vn -0.4333 0.7077 0.5580
vn 0.0642 0.9970 0.0430
vn 0.1687 0.9756 -0.1406
vn 0.1685 0.9856 0.0177
vn 0.0527 0.9973 0.0508
vn 0.1973 0.9791 0.0483
vn 0.4004 0.7571 -0.5163
vn 0.4159 0.8194 -0.3945
vn 0.0134 0.9997 -0.0213
vn 0.1035 0.9821 -0.1575
vn 0.0729 0.9895 -0.1250
vn 0.1116 0.9900 -0.0868
vn -0.0392 0.9987 -0.0336
vn 0.0353 0.9984 -0.0449
vn -0.1180 0.9925 0.0305
vn -0.0005 0.9996 -0.0288
vn -0.0062 1.0000 -0.0035
vn 0.0012 1.0000 -0.0020
vn 0.0041 1.0000 -0.0070
vn -0.0159 0.9999 0.0032
vn -0.0091 0.9979 0.0640
vn 0.0029 0.9999 -0.0144
vn 0.0070 0.9999 -0.0119
vn -0.0188 0.9989 -0.0430
vn -0.0110 0.9993 -0.0350
vn 0.0867 0.9918 -0.0939
vn -0.0581 0.9933 0.0996
vn 0.1606 0.9824 -0.0952
vn -0.0290 0.9928 0.1164
vn 0.3997 0.6899 -0.6035
vn 0.2812 0.6792 -0.6780
vn -0.0416 0.9967 -0.0701
vn 0.3113 0.5605 -0.7674
vn 0.1191 0.7290 -0.6740
vn 0.0699 0.9823 -0.1738
vn 0.0371 0.9950 -0.0930
vn -0.1037 0.9946 -0.0018
vn -0.1572 0.7225 -0.6732
vn -0.2598 0.7745 -0.5768
vn -0.1495 0.9008 -0.4077
vn 0.1737 0.9726 -0.1546
vn 0.0006 0.9994 -0.0343
vn -0.2856 0.9339 -0.2153
vn -0.0093 1.0000 -0.0030
vn -0.0252 0.9996 0.0096
vn -0.4855 0.6708 0.5606
vn -0.3721 0.6985 0.6112
vn 0.0023 0.9963 0.0857
vn 0.0146 0.9996 0.0246
vn -0.5527 0.7473 0.3688
vn -0.0161 0.9974 -0.0701
vn -0.0060 0.9997 0.0236
vn -0.3294 0.8675 0.3729
vn -0.1805 0.2444 -0.9527
vn -0.2308 0.2763 -0.9330
vn 0.1029 0.1316 -0.9859
vn 0.2796 0.0787 -0.9569
vn 0.1009 0.1689 -0.9805
vn 0.2939 0.0940 -0.9512
vn -0.5382 0.4673 -0.7014
vn -0.3834 0.6787 -0.6264
vn -0.2938 0.3744 -0.8795
vn -0.3533 0.4866 -0.7990
vn -0.7552 0.4954 -0.4292
vn -0.5998 0.7239 -0.3409
vn -0.6949 0.0583 0.7168
vn -0.6758 0.0715 0.7336
vn -0.8118 0.1541 0.5632
vn -0.8401 0.1923 0.5071
vn -0.8006 0.0800 0.5939
vn -0.8284 0.1830 0.5294
vn -0.8420 0.1437 0.5201
vn -0.3600 0.8933 -0.2691
vn -0.9043 0.2432 -0.3509
vn -0.1470 -0.2630 -0.9535
vn -0.1318 0.1428 -0.9809
vn 0.1235 0.0140 -0.9923
vn 0.2632 0.0042 -0.9647
vn 0.1038 0.0929 -0.9902
vn 0.2893 0.0511 -0.9559
vn -0.6658 -0.2972 -0.6844
vn -0.6181 0.2117 -0.7571
vn -0.4200 -0.3855 -0.8216
vn -0.3562 0.1793 -0.9171
vn -0.8064 -0.3738 -0.4583
vn -0.8470 0.2253 -0.4814
vn -0.6347 0.0492 0.7712
vn -0.6729 0.0161 0.7396
vn -0.7999 0.0425 0.5986
vn -0.8392 0.1003 0.5345
vn -0.8394 0.1966 0.5067
vn -0.8583 0.1021 0.5028
vn -0.8331 -0.0097 0.5530
vn -0.8571 0.0035 0.5152
vn 0.1216 0.9476 -0.2955
vn -0.0164 0.9974 0.0700
vn -0.9820 0.0021 0.1891
vn 0.2944 -0.0471 -0.9545
vn 0.2061 -0.1516 -0.9667
vn -0.0331 -0.4373 -0.8987
vn 0.1253 -0.3114 -0.9420
vn -0.5684 -0.6972 -0.4368
vn -0.5197 -0.7893 -0.3270
vn -0.4036 -0.5524 -0.7293
vn -0.1400 -0.4585 -0.8776
vn -0.3660 -0.7964 -0.4815
vn -0.0204 -0.6283 -0.7777
vn -0.5840 -0.7977 -0.1501
vn -0.5171 -0.8167 -0.2562
vn -0.7045 0.1083 0.7014
vn -0.6734 0.1666 0.7202
vn -0.8017 0.2889 0.5232
vn -0.8343 0.2886 0.4697
vn -0.8714 -0.2323 0.4320
vn -0.9046 -0.1654 0.3928
vn -0.8650 0.2109 0.4552
vn -0.9073 -0.0601 0.4161
vn -0.8462 -0.5127 0.1454
vn -0.6927 -0.6885 0.2150
vn -0.8345 -0.5278 0.1582
vn -0.7236 -0.6436 0.2495
vn 0.1597 -0.1412 -0.9770
vn -0.0675 -0.7062 -0.7048
vn -0.2603 -0.2783 -0.9246
vn 0.0401 -0.4583 -0.8879
vn -0.2517 -0.9378 -0.2390
vn -0.5835 -0.7642 -0.2747
vn -0.1594 -0.9225 -0.3515
vn -0.4828 -0.5638 -0.6702
vn -0.4043 -0.9146 0.0028
vn -0.6560 -0.7136 -0.2457
vn -0.5514 -0.2698 0.7894
vn -0.6325 -0.0476 0.7731
vn -0.7451 -0.1086 0.6581
vn -0.9011 -0.2372 0.3631
vn -0.7279 -0.5246 0.4416
vn -0.9462 -0.3229 0.0224
vn -0.9459 -0.3087 0.1003
vn -0.6118 -0.7592 0.2222
vn -0.8452 -0.5296 0.0720
vn 0.0749 -0.9298 -0.3603
vn 0.0986 -0.8948 -0.4355
vn 0.2308 -0.6645 -0.7107
vn 0.2051 -0.3554 -0.9119
vn 0.4598 -0.3224 -0.8274
vn 0.1340 -0.9909 0.0150
vn 0.1043 -0.9910 -0.0841
vn 0.1214 -0.9780 -0.1697
vn -0.0435 -0.9982 0.0424
vn -0.1860 -0.9748 0.1235
vn -0.4748 -0.2559 0.8421
vn -0.4497 -0.2803 0.8480
vn -0.3982 -0.5198 0.7558
vn -0.6185 -0.3387 0.7090
vn -0.4096 -0.5358 0.7384
vn -0.3676 -0.7135 0.5964
vn -0.3896 -0.7153 0.5802
vn -0.2811 -0.8584 0.4292
vn -0.6979 -0.6592 0.2802
vn -0.2929 -0.8475 0.4427
vn -0.2081 -0.9175 0.3390
vn -0.2142 -0.9110 0.3524
vn -0.1373 -0.9641 0.2274
vn -0.4364 -0.8935 0.1057
vn -0.1401 -0.9625 0.2322
vn 0.3978 -0.6139 -0.6818
vn 0.1870 -0.9286 -0.3205
vn 0.3822 -0.6122 -0.6922
vn 0.0021 -0.9847 0.1743
vn 0.1569 -0.9572 0.2431
vn -0.0133 -0.9987 -0.0484
vn 0.0894 -0.9921 0.0880
vn 0.2548 -0.9561 0.1448
vn 0.2562 -0.9561 0.1424
vn 0.1495 -0.9851 0.0849
vn -0.4973 -0.2428 0.8329
vn -0.4824 -0.2593 0.8367
vn -0.4350 -0.4983 0.7500
vn -0.3602 -0.6996 0.6172
vn -0.3542 -0.7042 0.6154
vn -0.2591 -0.8577 0.4441
vn -0.1983 -0.9193 0.3399
vn -0.0084 -0.9715 0.2369
vn 0.0990 -0.9879 0.1191
vn 0.1948 -0.9414 -0.2755
vn 0.4598 -0.5560 -0.6924
vn 0.1691 -0.9467 -0.2743
vn 0.7283 -0.0949 -0.6786
vn 0.6068 0.0523 -0.7931
vn -0.1403 -0.9835 0.1140
vn -0.2562 -0.9657 0.0416
vn -0.3735 -0.9222 -0.1005
vn -0.0974 -0.9400 0.3270
vn -0.0016 -0.9992 -0.0394
vn -0.3565 -0.9341 0.0171
vn -0.2341 -0.9607 -0.1492
vn -0.0564 -0.9984 -0.0016
vn -0.4367 -0.2854 0.8531
vn -0.5091 -0.2536 0.8225
vn -0.4462 -0.5159 0.7312
vn -0.3300 -0.7133 0.6183
vn -0.1615 -0.5597 0.8128
vn -0.1708 -0.8754 0.4522
vn -0.2210 -0.9250 0.3090
vn -0.1899 -0.8464 0.4975
vn -0.3467 -0.9248 0.1564
vn 0.6453 0.5436 -0.5368
vn 0.8244 0.2364 -0.5143
vn 0.9121 -0.1055 -0.3962
vn 0.8842 -0.2373 -0.4023
vn 0.5181 -0.7674 -0.3778
vn 0.8574 -0.4735 -0.2014
vn 0.9804 -0.1820 0.0755
vn 0.6535 -0.7433 0.1432
vn 0.2173 -0.9716 0.0941
vn 0.3224 -0.8614 0.3924
vn 0.6979 -0.5950 0.3985
vn 0.3886 -0.8577 0.3365
vn -0.0055 -0.1750 0.9845
vn -0.1559 -0.2401 0.9582
vn -0.2193 -0.2513 0.9427
vn -0.3184 -0.3474 0.8820
vn -0.0578 -0.1894 0.9802
vn 0.1506 -0.2067 0.9667
vn -0.2618 -0.8827 0.3902
vn -0.0868 -0.7086 0.7002
vn 0.2716 -0.5043 0.8197
vn 0.0395 -0.8044 0.5928
vn 0.1241 -0.8112 0.5715
vn 0.4931 0.1534 -0.8564
vn 0.9034 0.0080 -0.4286
vn 0.6163 0.5425 -0.5708
vn 0.9924 0.0581 -0.1084
vn 0.9282 0.3066 -0.2108
vn 0.9719 0.1838 -0.1467
vn 0.7940 0.4848 -0.3669
vn 0.8199 -0.4345 0.3727
vn 0.7956 -0.4548 0.4002
vn -0.2044 0.0797 0.9756
vn -0.3131 -0.0998 0.9445
vn -0.0186 -0.0418 0.9990
vn 0.0394 -0.1328 0.9904
vn 0.1451 0.0173 0.9893
vn 0.2314 -0.0152 0.9727
vn 0.3281 -0.1776 0.9278
vn 0.5660 -0.4640 0.6814
vn 0.3349 -0.6562 0.6762
vn 0.4881 -0.3277 0.8089
vn 0.9428 0.3333 0.0001
vn 0.9806 0.1903 -0.0473
vn 0.9805 0.1855 -0.0646
vn 0.9999 0.0129 0.0098
vn 0.9787 0.1730 -0.1105
vn 0.8415 0.5124 -0.1711
vn -0.2934 0.2276 0.9285
vn -0.2760 0.1995 0.9402
vn -0.0214 0.2677 0.9633
vn 0.1983 0.1515 0.9684
vn 0.3718 -0.0042 0.9283
vn 0.3846 0.1758 0.9062
vn 0.3048 0.1661 0.9378
vn 0.6205 0.2119 0.7550
vn 0.4828 0.0006 0.8757
vn 0.4954 0.1941 0.8467
vn 0.6928 0.7147 0.0962
vn 0.9014 0.3710 0.2235
vn 0.9398 0.3404 0.0309
vn 0.7837 0.6064 0.1347
vn 0.2066 0.2188 0.9537
vn 0.1849 0.2325 0.9549
vn -0.1018 0.3142 0.9439
vn -0.3437 0.2360 0.9089
vn 0.4040 0.2686 0.8744
vn 0.4375 0.3252 0.8384
vn 0.3137 0.2259 0.9223
vn 0.3398 0.2892 0.8949
vn 0.5983 0.3611 0.7153
vn 0.4831 0.3453 0.8046
vn 0.5255 0.4251 0.7370
vn -0.4995 -0.0000 0.8663
vn -0.3929 0.6974 0.5994
vn -0.4986 0.0045 0.8668
vn -0.5126 0.0145 0.8585
vn -0.3164 -0.1606 0.9349
vn -0.5013 0.0080 0.8653
vn -0.3727 -0.1888 0.9085
vn -0.4971 0.0047 0.8677
vn -0.4970 0.0139 0.8676
vn -0.4961 0.0092 0.8682
vn -0.3547 0.7144 0.6032
vn -0.5079 0.0248 0.8611
vn -0.3495 0.7144 0.6062
vn 0.7565 -0.0764 -0.6496
vn 0.5910 0.2122 -0.7783
vn 0.6802 0.0117 -0.7329
vn 0.2615 -0.4422 -0.8579
vn 0.4806 -0.1315 -0.8670
vn 0.5040 -0.0000 -0.8637
vn 0.5032 -0.3041 -0.8089
vn 0.4999 -0.1270 -0.8567
vn 0.5199 -0.1238 -0.8452
vn 0.7210 0.3205 -0.6144
vn 0.9144 -0.1443 -0.3781
vn 0.7158 0.2686 -0.6445
vn 0.5211 0.7341 -0.4355
vn 0.7141 0.5441 -0.4406
vn 0.5849 -0.0038 -0.8111
vn 0.5211 -0.2434 -0.8181
vn 0.5569 -0.2551 -0.7904
vn 0.5960 -0.1126 -0.7951
vn -0.5079 0.0156 0.8613
vn -0.5003 0.0125 0.8658
vn 0.3557 0.8225 0.4438
vn 0.2665 0.7817 0.5639
vn 0.3426 0.7766 0.5287
vn 0.9711 0.2382 -0.0177
vn 0.9913 0.1129 0.0682
vn 0.6093 0.7920 0.0378
vn 0.0229 0.2467 0.9688
vn 0.9440 0.1677 0.2840
vn 0.9989 0.0250 -0.0409
vn 0.9041 0.0712 -0.4214
vn 0.1794 -0.1559 0.9714
vn -0.0829 -0.1567 0.9842
vn 0.9679 0.0180 -0.2506
vn 0.6727 0.5833 -0.4552
vn -0.1168 -0.9169 0.3818
vn 0.1037 -0.9851 0.1371
vn -0.0342 -0.9583 0.2836
vn 0.2927 -0.9354 -0.1985
vn 0.6393 -0.3633 -0.6777
vn -0.0180 -0.9953 0.0946
vn -0.2482 -0.8543 0.4568
vn -0.4615 -0.4932 0.7374
vn 0.4148 -0.6088 -0.6763
vn -0.8294 -0.5210 0.2014
vn -0.7924 0.0834 0.6043
vn -0.1257 -0.2378 -0.9631
vn -0.6609 -0.7490 0.0465
vn -0.8342 -0.5151 0.1969
vn -0.8006 0.2038 0.5635
vn -0.9735 -0.0711 0.2174
vn -0.9953 0.0967 -0.0005
vn -0.8406 0.1325 0.5253
vn -0.8087 0.0850 0.5820
vn -0.2693 0.8854 -0.3790
vn -0.5021 0.7945 0.3415
vn -0.5471 0.7479 0.3759
vn 0.0717 0.9898 -0.1230
vn -0.0256 0.9987 0.0439
vn -0.0530 0.9976 -0.0437
vn 0.1789 0.9799 -0.0885
vn 0.1508 0.9842 -0.0927
vn 0.1750 0.9840 0.0347
vn 0.3655 0.8869 -0.2825
vn 0.2866 0.9575 0.0332
vt 0.925312 0.138662
vt 0.889332 0.164986
vt 0.863212 0.139452
vt 0.801113 0.140241
vt 0.852920 0.102337
vt 0.853353 0.191311
vt 0.817373 0.217635
vt 0.827233 0.165776
vt 0.781393 0.243959
vt 0.755274 0.218425
vt 0.791253 0.192100
vt 0.657078 0.334914
vt 0.693116 0.263902
vt 0.719236 0.289437
vt 0.630958 0.309380
vt 0.482809 0.402566
vt 0.497958 0.370685
vt 0.450515 0.390809
vt 0.412727 0.386833
vt 0.456146 0.352909
vt 0.409086 0.346975
vt 0.466232 0.453926
vt 0.473539 0.430566
vt 0.443030 0.450749
vt 0.415967 0.451257
vt 0.445359 0.423610
vt 0.414446 0.421722
vt 0.461487 0.515135
vt 0.464341 0.483211
vt 0.438297 0.516098
vt 0.415805 0.518303
vt 0.439875 0.484331
vt 0.415506 0.486548
vt 0.454848 0.563770
vt 0.457587 0.541682
vt 0.436435 0.566210
vt 0.416888 0.569459
vt 0.437055 0.542340
vt 0.416390 0.544587
vt 0.088875 0.004036
vt 0.132236 0.065024
vt 0.088828 0.057753
vt 0.132284 0.011307
vt 0.088781 0.111470
vt 0.132142 0.172457
vt 0.088733 0.165186
vt 0.132188 0.118740
vt 0.088686 0.218903
vt 0.132046 0.279890
vt 0.088639 0.272619
vt 0.132094 0.226174
vt 0.445282 0.722891
vt 0.426643 0.747333
vt 0.444956 0.739554
vt 0.426886 0.724445
vt 0.444227 0.757174
vt 0.425456 0.765368
vt 0.428015 0.784373
vt 0.408151 0.811539
vt 0.428161 0.814760
vt 0.449950 0.815703
vt 0.425146 0.844279
vt 0.392286 0.870149
vt 0.424478 0.875996
vt 0.371560 0.919995
vt 0.421930 0.918607
vt 0.479701 0.980660
vt 0.469042 0.919381
vt 0.962652 0.326089
vt 0.942816 0.340603
vt 0.937729 0.317324
vt 0.912806 0.308559
vt 0.944769 0.285174
vt 0.976732 0.261788
vt 0.932734 0.251315
vt 0.888735 0.240843
vt 0.924715 0.214518
vt 0.943004 0.163428
vt 0.907024 0.189752
vt 0.871044 0.216076
vt 0.778278 0.006108
vt 0.741550 0.032981
vt 0.744560 0.013845
vt 0.710841 0.021581
vt 0.707832 0.040717
vt 0.698499 0.030496
vt 0.757531 0.096707
vt 0.767905 0.051408
vt 0.805322 0.061742
vt 0.827113 0.083509
vt 0.779322 0.118474
vt 0.922978 0.355117
vt 0.902704 0.369950
vt 0.885834 0.355293
vt 0.848689 0.355470
vt 0.880747 0.332015
vt 0.864791 0.301025
vt 0.816776 0.293491
vt 0.852756 0.267167
vt 0.799085 0.268725
vt 0.835065 0.242401
vt 0.657215 0.094684
vt 0.671687 0.067047
vt 0.681019 0.077268
vt 0.659373 0.075943
vt 0.693415 0.143618
vt 0.675315 0.119151
vt 0.699118 0.101735
vt 0.704822 0.059852
vt 0.731177 0.078280
vt 0.729154 0.192890
vt 0.743343 0.144798
vt 0.765133 0.166565
vt 0.711284 0.168254
vt 0.882430 0.384784
vt 0.861718 0.399938
vt 0.865559 0.370127
vt 0.841006 0.415092
vt 0.802755 0.422300
vt 0.844848 0.385281
vt 0.832733 0.324481
vt 0.790640 0.361500
vt 0.764504 0.429509
vt 0.728482 0.406978
vt 0.692460 0.384446
vt 0.736927 0.314203
vt 0.754618 0.338969
vt 0.674769 0.359680
vt 0.640387 0.106996
vt 0.652683 0.080776
vt 0.648150 0.066868
vt 0.654840 0.062035
vt 0.647578 0.168774
vt 0.658487 0.131463
vt 0.623560 0.119308
vt 0.666996 0.238367
vt 0.665447 0.193410
vt 0.601741 0.193930
vt 0.262748 0.443415
vt 0.230255 0.420576
vt 0.218465 0.473393
vt 0.179282 0.515292
vt 0.179162 0.458073
vt 0.151115 0.510382
vt 0.352586 0.401793
vt 0.335438 0.369947
vt 0.306366 0.415445
vt 0.277704 0.388901
vt 0.381145 0.392065
vt 0.370531 0.354881
vt 0.705072 0.600291
vt 0.720998 0.601249
vt 0.712980 0.557460
vt 0.715701 0.511441
vt 0.686582 0.516347
vt 0.660354 0.393650
vt 0.618921 0.420405
vt 0.665828 0.461921
vt 0.660174 0.521505
vt 0.520639 0.327238
vt 0.564217 0.387239
vt 0.306928 0.482331
vt 0.286898 0.464700
vt 0.266756 0.499607
vt 0.224764 0.528416
vt 0.238828 0.484501
vt 0.203059 0.522189
vt 0.372360 0.456071
vt 0.363616 0.431521
vt 0.339903 0.466182
vt 0.323547 0.441727
vt 0.393109 0.453028
vt 0.388379 0.424846
vt 0.666554 0.606682
vt 0.685239 0.603755
vt 0.666732 0.564565
vt 0.633187 0.530208
vt 0.609133 0.538375
vt 0.602201 0.491995
vt 0.584960 0.444641
vt 0.559424 0.467495
vt 0.602902 0.227648
vt 0.602515 0.216408
vt 0.516902 0.441041
vt 0.241834 0.538537
vt 0.257746 0.547818
vt 0.294700 0.539200
vt 0.280084 0.511693
vt 0.377908 0.520460
vt 0.375181 0.488227
vt 0.352988 0.526162
vt 0.328194 0.535242
vt 0.348130 0.493764
vt 0.317232 0.509688
vt 0.397022 0.518813
vt 0.395277 0.486954
vt 0.630062 0.597229
vt 0.647587 0.601451
vt 0.621732 0.567028
vt 0.585623 0.541753
vt 0.537511 0.486842
vt 0.553915 0.515560
vt 0.574500 0.507790
vt 0.564747 0.545461
vt 0.536072 0.537799
vt 0.490324 0.490814
vt 0.509277 0.533947
vt 0.522972 0.512212
vt 0.271357 0.558330
vt 0.349683 0.564571
vt 0.340208 0.551713
vt 0.320885 0.564706
vt 0.384423 0.569926
vt 0.381701 0.546762
vt 0.366566 0.566773
vt 0.361165 0.544065
vt 0.400653 0.569610
vt 0.399069 0.545206
vt 0.600754 0.607836
vt 0.615010 0.602809
vt 0.585147 0.574384
vt 0.551304 0.557646
vt 0.539081 0.568209
vt 0.525391 0.550411
vt 0.497722 0.550747
vt 0.487404 0.565328
vt 0.476721 0.541155
vt 0.341781 0.610583
vt 0.345234 0.586105
vt 0.313613 0.592212
vt 0.284134 0.567654
vt 0.279665 0.587788
vt 0.248937 0.125242
vt 0.248985 0.071525
vt 0.290474 0.070184
vt 0.332010 0.015126
vt 0.331968 0.063173
vt 0.175692 0.018578
vt 0.212314 0.071910
vt 0.175644 0.072294
vt 0.212362 0.018193
vt 0.608691 0.637430
vt 0.605132 0.622285
vt 0.573609 0.622558
vt 0.568601 0.584517
vt 0.570203 0.609474
vt 0.542534 0.610438
vt 0.541718 0.588707
vt 0.515610 0.613929
vt 0.512072 0.566181
vt 0.515476 0.593551
vt 0.015441 0.110674
vt 0.015483 0.062628
vt 0.052111 0.111072
vt 0.015526 0.014582
vt 0.052201 0.009309
vt 0.052153 0.063026
vt 0.311572 0.628068
vt 0.341945 0.635827
vt 0.312458 0.609853
vt 0.290389 0.166093
vt 0.248891 0.178959
vt 0.290431 0.118231
vt 0.175596 0.126011
vt 0.212220 0.179343
vt 0.175550 0.179728
vt 0.212267 0.125627
vt 0.608256 0.668565
vt 0.608934 0.653017
vt 0.573954 0.636013
vt 0.543571 0.633671
vt 0.542551 0.656796
vt 0.516020 0.635041
vt 0.490092 0.616668
vt 0.490404 0.643095
vt 0.015357 0.206399
vt 0.015399 0.158537
vt 0.052069 0.158934
vt 0.342925 0.661691
vt 0.313818 0.674904
vt 0.344617 0.686354
vt 0.285683 0.691348
vt 0.281415 0.672722
vt 0.248843 0.232675
vt 0.290299 0.267488
vt 0.248795 0.286392
vt 0.290342 0.219810
vt 0.175502 0.233444
vt 0.212125 0.286777
vt 0.175454 0.287161
vt 0.212172 0.233060
vt 0.595291 0.697701
vt 0.602088 0.683511
vt 0.568471 0.674988
vt 0.538555 0.693249
vt 0.529606 0.726378
vt 0.510126 0.696067
vt 0.489340 0.668520
vt 0.487608 0.696299
vt 0.015267 0.307637
vt 0.015313 0.257018
vt 0.051977 0.263270
vt 0.270905 0.697761
vt 0.302005 0.714001
vt 0.323091 0.733533
vt 0.336067 0.719551
vt 0.347225 0.708499
vt 0.356819 0.733938
vt 0.371987 0.758294
vt 0.376487 0.738452
vt 0.380484 0.720133
vt 0.392392 0.743882
vt 0.404659 0.774999
vt 0.407402 0.748403
vt 0.551779 0.752520
vt 0.582168 0.745301
vt 0.575212 0.727552
vt 0.560451 0.715092
vt 0.540203 0.738563
vt 0.517481 0.762569
vt 0.506763 0.725828
vt 0.509200 0.748114
vt 0.485882 0.766764
vt 0.485745 0.745364
vt 0.464504 0.743302
vt 0.280131 0.752538
vt 0.307759 0.748973
vt 0.269292 0.738500
vt 0.330391 0.764865
vt 0.346386 0.797608
vt 0.360353 0.776335
vt 0.404646 0.775016
vt 0.355577 0.794050
vt 0.407647 0.792111
vt 0.387626 0.764828
vt 0.639865 0.756662
vt 0.627329 0.744593
vt 0.609869 0.772134
vt 0.565245 0.766913
vt 0.579841 0.783140
vt 0.541346 0.800367
vt 0.494463 0.786312
vt 0.447593 0.784328
vt 0.464210 0.762350
vt 0.470264 0.791807
vt 0.310190 0.856171
vt 0.329794 0.823412
vt 0.295374 0.807633
vt 0.377032 0.805795
vt 0.367300 0.832661
vt 0.353374 0.867394
vt 0.681065 0.758043
vt 0.659672 0.757580
vt 0.654517 0.788061
vt 0.600377 0.797198
vt 0.503515 0.808908
vt 0.517876 0.833217
vt 0.562653 0.823445
vt 0.455247 0.842523
vt 0.476040 0.814330
vt 0.486585 0.842310
vt 0.243031 0.937595
vt 0.280556 0.893178
vt 0.234972 0.861453
vt 0.315829 0.917391
vt 0.337143 0.992697
vt 0.624083 0.812592
vt 0.654051 0.828404
vt 0.687554 0.798652
vt 0.708589 0.747996
vt 0.534790 0.862395
vt 0.558630 0.897477
vt 0.581626 0.843392
vt 0.615086 0.872208
vt 0.460430 0.874865
vt 0.497100 0.872880
vt 0.517149 0.916738
vt 0.636173 0.623946
vt 0.620160 0.618181
vt 0.742624 0.682324
vt 0.712132 0.723569
vt 0.740709 0.709951
vt 0.645848 0.744775
vt 0.615073 0.733516
vt 0.613377 0.700467
vt 0.605503 0.714891
vt 0.636895 0.641282
vt 0.703185 0.639789
vt 0.664985 0.674355
vt 0.737676 0.602299
vt 0.739890 0.615859
vt 0.741639 0.629642
vt 0.701948 0.617183
vt 0.742991 0.655269
vt 0.217641 0.722071
vt 0.244831 0.658456
vt 0.146658 0.665143
vt 0.152329 0.734022
vt 0.122264 0.700722
vt 0.135884 0.737943
vt 0.076713 0.667935
vt 0.073308 0.628507
vt 0.072048 0.583679
vt 0.128119 0.543732
vt 0.095457 0.541613
vt 0.250676 0.572912
vt 0.265950 0.579834
vt 0.276972 0.608827
vt 0.277161 0.630674
vt 0.156388 0.548786
vt 0.279168 0.651994
vt 0.265193 0.676612
vt 0.244960 0.709492
vt 0.236436 0.713383
vt 0.249460 0.681917
vt 0.966172 0.310014
vt 0.253485 0.705602
vt 0.196680 0.598693
vt 0.194586 0.726081
vt 0.206113 0.724076
vt 0.118367 0.664283
vt 0.120307 0.505624
vt 0.168775 0.730100
vt 0.088668 0.706580
vt 0.723091 0.614212
vt 0.644428 0.706779
vt 0.737363 0.736025
vt 0.538370 0.966474
vt 0.589703 0.939952
vt 0.646635 0.897881
vt 0.689658 0.844913
vt 0.718653 0.791273
vt 0.286580 0.969103
vt 0.271306 0.831743
vt 0.239259 0.800515
vt 0.202611 0.818953
vt 0.157697 0.838755
vt 0.193482 0.892115
vt 0.633962 0.784150
vt 0.400541 0.838398
vt 0.317139 0.784468
vt 0.290970 0.766577
vt 0.267528 0.782358
vt 0.530729 0.782914
vt 0.599031 0.759664
vt 0.347788 0.749557
vt 0.289569 0.723868
vt 0.484261 0.724509
vt 0.463803 0.723695
vt 0.408667 0.725650
vt 0.394053 0.722710
vt 0.387624 0.764807
vt 0.363868 0.714499
vt 0.318456 0.701691
vt 0.088591 0.326336
vt 0.051929 0.316986
vt 0.052021 0.212651
vt 0.514482 0.663199
vt 0.572783 0.661826
vt 0.248749 0.340109
vt 0.212078 0.340493
vt 0.175408 0.340878
vt 0.331841 0.206944
vt 0.331798 0.254622
vt 0.331756 0.302301
vt 0.290252 0.321205
vt 0.312988 0.656654
vt 0.331925 0.111219
vt 0.331882 0.159082
vt 0.489437 0.589767
vt 0.249033 0.017809
vt 0.290521 0.016468
vt 0.470467 0.564247
vt 0.485834 0.523446
vt 0.597921 0.567184
vt 0.305299 0.549611
vt 0.518797 0.475981
vt 0.500084 0.465121
vt 0.639424 0.568716
vt 0.508493 0.453081
vt 0.533919 0.413788
vt 0.626145 0.478433
vt 0.685189 0.558424
vt 0.596716 0.349694
vt 0.694482 0.451139
vt 0.729754 0.556434
vt 0.403345 0.297664
vt 0.355379 0.308937
vt 0.311689 0.329504
vt 0.245682 0.353322
vt 0.190102 0.395053
vt 0.149037 0.447624
vt 0.604838 0.283845
vt 0.603289 0.238887
vt 0.612650 0.156619
vt 0.661530 0.057202
vt 0.635855 0.093088
vt 0.806596 0.392490
vt 0.725473 0.120163
vt 0.673844 0.048306
vt 0.686158 0.039411
vt 0.695490 0.049632
vt 0.900771 0.274701
vt 0.917892 0.331838
vt 0.853112 0.026776
vt 0.878919 0.045604
vt 0.904726 0.064433
vt 0.815695 0.016443
vt 0.960695 0.188194
vt 0.968713 0.224991
vt 0.973212 0.277863
vt 0.969692 0.293939
vt 0.409483 0.997203
vt 0.407669 0.792113
vt 0.131999 0.333607
vt 0.463805 0.303912
vt 0.915019 0.101547
s 1
usemtl Cave_Material.013
f 27/1/1 373/2/2 374/3/3
f 1/4/4 375/5/5 374/3/3
f 2/6/6 109/7/7 108/8/8
f 3/9/9 111/10/10 110/11/11
f 8/12/12 376/13/13 377/14/14
f 8/12/12 378/15/15 376/13/13
f 6/16/16 379/17/17 114/18/18
f 7/19/19 380/20/20 115/21/21
f 9/22/22 116/23/23 117/24/24
f 10/25/25 118/26/26 119/27/27
f 11/28/28 120/29/29 121/30/30
f 12/31/31 122/32/32 123/33/33
f 13/34/34 124/35/35 125/36/36
f 14/37/37 126/38/38 127/39/39
f 13/40/34 128/41/40 129/42/41
f 13/40/34 125/43/36 128/41/40
f 15/44/42 132/45/43 133/46/44
f 15/44/42 130/47/45 132/45/43
f 17/48/46 136/49/47 137/50/48
f 17/48/46 134/51/49 136/49/47
f 19/52/50 140/53/51 141/54/52
f 19/52/50 138/55/53 140/53/51
f 21/56/54 142/57/55 144/58/56
f 22/59/57 146/60/58 144/58/56
f 23/61/59 146/60/58 148/62/60
f 24/63/61 150/64/62 148/62/60
f 24/63/61 152/65/63 153/66/64
f 26/67/65 155/68/66 153/66/64
f 404/69/67 156/70/68 157/71/69
f 29/72/70 381/73/71 157/71/69
f 106/74/72 381/73/71 383/75/73
f 30/76/74 160/77/75 383/75/73
f 27/1/1 385/78/76 386/79/77
f 30/76/74 161/80/78 386/79/77
f 34/81/79 163/82/80 164/83/81
f 32/84/82 165/85/83 162/86/84
f 36/87/85 167/88/86 168/89/87
f 34/81/79 167/88/86 163/82/80
f 1/4/4 171/90/88 375/5/5
f 1/4/4 172/91/89 171/90/88
f 28/92/90 173/93/91 174/94/92
f 39/95/93 176/96/94 174/94/92
f 29/72/70 176/96/94 177/97/95
f 40/98/96 179/99/97 177/97/95
f 30/76/74 179/99/97 161/80/78
f 40/98/96 181/100/98 180/101/99
f 42/102/100 183/103/101 184/104/102
f 42/102/100 185/105/103 183/103/101
f 43/106/104 186/107/105 187/108/106
f 35/109/107 170/110/108 187/108/106
f 4/111/109 189/112/110 112/113/111
f 4/111/109 190/114/112 189/112/110
f 38/115/113 388/116/114 175/117/115
f 48/118/116 390/119/117 389/120/118
f 40/98/96 178/121/119 192/122/120
f 44/123/121 391/124/122 192/122/120
f 51/125/123 393/126/124 392/127/125
f 51/125/123 206/128/126 393/126/124
f 42/102/100 193/129/127 395/130/128
f 52/131/129 394/132/130 395/130/128
f 43/106/104 194/133/131 195/134/132
f 45/135/133 193/129/127 195/134/132
f 4/111/109 113/136/134 197/137/135
f 46/138/136 194/133/131 197/137/135
f 49/139/137 397/140/138 200/141/139
f 47/142/140 398/143/141 199/144/142
f 50/145/143 201/146/144 202/147/145
f 49/139/137 203/148/146 397/140/138
f 7/19/19 115/21/21 204/149/147
f 50/145/143 205/150/148 201/146/144
f 53/151/149 207/152/150 399/153/151
f 45/154/133 400/155/152 399/153/151
f 46/156/136 401/157/153 402/158/154
f 54/159/155 400/155/152 402/158/154
f 5/160/156 379/17/17 403/161/157
f 57/162/158 212/163/159 213/164/160
f 56/165/161 214/166/162 211/167/163
f 58/168/164 215/169/165 216/170/166
f 57/162/158 217/171/167 212/163/159
f 10/25/25 119/27/27 218/172/168
f 58/168/164 219/173/169 215/169/165
f 59/174/170 220/175/171 221/176/172
f 54/159/155 222/177/173 221/176/172
f 60/178/174 222/177/173 224/179/175
f 55/180/176 225/181/177 224/179/175
f 197/137/135 437/182/178 436/183/179
f 6/16/16 116/23/23 227/184/180
f 56/165/161 229/185/181 213/164/160
f 62/186/182 231/187/183 230/188/184
f 64/189/185 233/190/186 234/191/187
f 63/192/188 235/193/189 232/194/190
f 12/31/31 123/33/33 236/195/191
f 64/189/185 237/196/192 233/190/186
f 65/197/193 238/198/194 239/199/195
f 60/178/174 240/200/196 239/199/195
f 61/201/197 242/202/198 226/203/199
f 66/204/200 242/202/198 243/205/201
f 9/22/22 120/29/29 245/206/202
f 67/207/203 244/208/204 245/206/202
f 62/186/182 247/209/205 231/187/183
f 69/210/206 249/211/207 250/212/208
f 70/213/209 251/214/210 252/215/211
f 69/210/206 253/216/212 249/211/207
f 14/37/37 127/39/39 254/217/213
f 70/213/209 255/218/214 251/214/210
f 71/219/215 256/220/216 257/221/217
f 66/204/200 258/222/218 257/221/217
f 72/223/219 258/222/218 260/224/220
f 67/207/203 261/225/221 260/224/220
f 73/226/222 261/225/221 263/227/223
f 11/28/28 124/35/35 263/227/223
f 75/228/224 266/229/225 267/230/226
f 68/231/227 265/232/228 267/230/226
f 76/233/229 269/234/230 270/235/231
f 69/236/206 266/237/225 270/235/231
f 14/238/37 272/239/232 131/240/233
f 14/238/37 254/241/213 272/239/232
f 77/242/234 274/243/235 275/244/236
f 71/219/215 259/245/237 276/246/238
f 78/247/239 277/248/240 278/249/241
f 72/223/219 262/250/242 279/251/243
f 79/252/244 280/253/245 281/254/246
f 73/255/222 264/256/247 282/257/248
f 75/228/224 284/258/249 285/259/250
f 75/228/224 268/260/251 284/258/249
f 76/233/229 287/261/252 288/262/253
f 76/233/229 271/263/254 287/261/252
f 16/264/255 290/265/256 135/266/257
f 16/264/255 273/267/258 290/265/256
f 83/268/259 292/269/260 293/270/261
f 78/247/239 294/271/262 293/270/261
f 84/272/263 294/271/262 296/273/264
f 79/274/244 297/275/265 296/273/264
f 85/276/266 297/277/265 299/278/267
f 15/44/42 133/46/44 299/278/267
f 81/279/268 302/280/269 303/281/270
f 86/282/271 302/280/269 301/283/272
f 82/284/273 305/285/274 306/286/275
f 82/284/273 289/287/276 305/285/274
f 18/288/277 308/289/278 139/290/279
f 18/288/277 291/291/280 308/289/278
f 89/292/281 310/293/282 311/294/283
f 84/272/263 312/295/284 311/294/283
f 90/296/285 312/295/284 314/297/286
f 85/298/266 315/299/287 314/297/286
f 91/300/288 315/301/287 317/302/289
f 17/48/46 137/50/48 317/302/289
f 86/282/271 319/303/290 320/304/291
f 93/305/292 322/306/293 320/304/291
f 87/307/294 322/306/293 323/308/295
f 94/309/296 325/310/297 323/308/295
f 88/311/298 325/310/297 326/312/299
f 107/313/300 143/314/301 326/312/299
f 96/315/302 329/316/303 330/317/304
f 89/292/281 313/318/305 330/317/304
f 96/315/302 331/319/306 332/320/307
f 90/296/285 316/321/308 333/322/309
f 97/323/310 334/324/311 335/325/312
f 19/52/50 141/54/52 335/325/312
f 440/326/313 339/327/314 338/328/315
f 93/305/292 339/327/314 340/329/316
f 98/330/317 342/331/318 340/329/316
f 107/332/300 413/333/319 412/334/320
f 94/309/296 342/331/318 327/335/321
f 99/336/322 345/337/323 346/338/324
f 96/315/302 348/339/325 329/316/303
f 100/340/326 348/339/325 349/341/327
f 97/323/310 351/342/328 332/320/307
f 21/56/54 147/343/329 336/344/330
f 97/323/310 352/345/331 351/342/328
f 102/346/332 358/347/333 356/348/334
f 22/59/57 344/349/335 359/350/336
f 102/346/332 360/351/337 359/350/336
f 103/352/338 361/353/339 362/354/340
f 100/340/326 364/355/341 346/338/324
f 101/356/342 365/357/343 349/341/327
f 100/340/326 366/358/344 364/355/341
f 23/61/59 151/359/345 353/360/346
f 101/356/342 368/361/347 365/357/343
f 31/362/348 406/363/349 405/364/350
f 102/346/332 406/363/349 371/365/351
f 27/366/1 152/65/63 371/365/351
f 104/367/352 408/368/353 362/354/340
f 103/352/338 409/369/354 407/370/355
f 105/371/356 410/372/357 367/373/358
f 104/367/352 411/374/359 408/368/353
f 25/375/360 155/68/66 369/376/361
f 105/371/356 372/377/362 410/372/357
f 77/242/234 420/378/363 417/379/363
f 33/380/364 414/381/365 162/382/84
f 103/352/338 415/383/366 361/353/339
f 95/384/367 416/385/368 328/386/369
f 77/242/234 417/379/363 274/243/235
f 95/384/367 415/383/366 416/385/368
f 83/268/259 419/387/370 292/269/260
f 33/380/364 421/388/371 422/389/372
f 33/380/364 422/389/372 414/381/365
f 52/390/129 207/152/150 394/391/130
f 41/392/373 424/393/374 182/394/375
f 59/174/170 424/393/374 220/175/171
f 337/395/376 432/396/377 428/397/378
f 441/398/379 425/399/380 404/400/67
f 28/401/90 425/399/380 173/402/91
f 38/403/113 427/404/381 388/405/114
f 47/142/140 427/404/381 211/167/163
f 56/165/161 430/406/381 229/185/181
f 62/186/182 431/407/381 247/209/205
f 74/408/382 432/396/377 283/409/383
f 56/165/161 429/410/381 430/406/381
f 80/411/384 435/412/385 301/283/272
f 343/413/386 435/412/385 337/414/376
f 435/412/385 80/411/384 433/415/387
f 435/412/385 433/415/387 337/414/376
f 157/71/69 145/416/388 404/69/67
f 435/412/385 92/417/389 319/303/290
f 435/412/385 319/303/290 301/283/272
f 301/283/272 319/303/290 86/282/271
f 429/410/381 38/403/113 434/418/390
f 429/410/381 434/418/390 430/406/381
f 430/406/381 434/418/390 74/408/382
f 432/396/377 337/395/376 433/415/387
f 432/396/377 433/415/387 283/409/383
f 283/409/383 433/415/387 80/411/384
f 431/407/381 74/408/382 265/232/228
f 431/407/381 265/232/228 247/209/205
f 247/209/205 265/232/228 68/231/227
f 430/406/381 74/408/382 431/407/381
f 430/406/381 431/407/381 229/185/181
f 229/185/181 431/407/381 62/186/182
f 427/404/381 38/403/113 429/410/381
f 427/404/381 429/410/381 211/167/163
f 211/167/163 429/410/381 56/165/161
f 354/419/391 442/420/392 428/397/378
f 354/419/391 428/397/378 426/421/393
f 426/421/393 428/397/378 38/403/113
f 427/404/381 47/142/140 199/144/142
f 427/404/381 199/144/142 388/405/114
f 388/405/114 199/144/142 48/422/116
f 425/399/380 354/423/391 426/421/393
f 425/399/380 426/421/393 173/402/91
f 173/402/91 426/421/393 38/403/113
f 425/399/380 28/401/90 156/424/68
f 425/399/380 156/424/68 404/400/67
f 92/417/389 435/412/385 343/413/386
f 432/396/377 74/408/382 434/418/390
f 432/396/377 434/418/390 428/397/378
f 428/397/378 434/418/390 38/403/113
f 424/393/374 41/392/373 423/425/394
f 424/393/374 423/425/394 220/175/171
f 220/175/171 423/425/394 53/151/149
f 424/393/374 59/174/170 421/388/371
f 424/393/374 421/388/371 182/394/375
f 182/394/375 421/388/371 33/380/364
f 207/152/150 53/151/149 423/425/394
f 207/152/150 423/425/394 394/391/130
f 394/391/130 423/425/394 41/392/373
f 422/389/372 83/268/259 418/426/395
f 422/389/372 418/426/395 414/381/365
f 414/381/365 418/426/395 103/352/338
f 421/388/371 59/174/170 419/387/370
f 421/388/371 419/387/370 422/389/372
f 422/389/372 419/387/370 83/268/259
f 419/387/370 59/174/170 420/378/363
f 419/387/370 420/378/363 292/269/260
f 292/269/260 420/378/363 77/242/234
f 415/383/366 103/352/338 418/426/395
f 415/383/366 418/426/395 416/385/368
f 416/385/368 418/426/395 83/268/259
f 417/379/363 65/197/193 256/220/216
f 417/379/363 256/220/216 274/243/235
f 274/243/235 256/220/216 71/219/215
f 416/385/368 83/268/259 310/293/282
f 416/385/368 310/293/282 328/386/369
f 328/386/369 310/293/282 89/292/281
f 415/383/366 95/384/367 345/337/323
f 415/383/366 345/337/323 361/353/339
f 361/353/339 345/337/323 99/336/322
f 414/381/365 103/352/338 407/370/355
f 414/381/365 407/370/355 162/382/84
f 162/382/84 407/370/355 32/427/82
f 420/378/363 59/174/170 238/198/194
f 420/378/363 238/198/194 417/379/363
f 417/379/363 238/198/194 65/197/193
f 372/377/362 26/67/65 387/428/396
f 372/377/362 387/428/396 410/372/357
f 410/372/357 387/428/396 37/429/397
f 155/68/66 26/67/65 372/377/362
f 155/68/66 372/377/362 369/376/361
f 369/376/361 372/377/362 105/371/356
f 411/374/359 37/429/397 169/430/398
f 411/374/359 169/430/398 408/368/353
f 408/368/353 169/430/398 34/431/79
f 410/372/357 37/429/397 411/374/359
f 410/372/357 411/374/359 367/373/358
f 367/373/358 411/374/359 104/367/352
f 409/369/354 34/431/79 164/432/81
f 409/369/354 164/432/81 407/370/355
f 407/370/355 164/432/81 32/427/82
f 408/368/353 34/431/79 409/369/354
f 408/368/353 409/369/354 362/354/340
f 362/354/340 409/369/354 103/352/338
f 152/65/63 24/63/61 360/351/337
f 152/65/63 360/351/337 371/365/351
f 371/365/351 360/351/337 102/346/332
f 406/363/349 31/362/348 385/433/76
f 406/363/349 385/433/76 371/365/351
f 371/365/351 385/433/76 27/366/1
f 406/363/349 102/346/332 357/434/399
f 406/363/349 357/434/399 405/364/350
f 405/364/350 357/434/399 370/435/400
f 370/436/400 106/437/72 384/438/401
f 370/436/400 384/438/401 405/364/350
f 405/364/350 384/438/401 31/362/348
f 368/361/347 25/375/360 369/376/361
f 368/361/347 369/376/361 365/357/343
f 365/357/343 369/376/361 105/371/356
f 151/359/345 25/375/360 368/361/347
f 151/359/345 368/361/347 353/360/346
f 353/360/346 368/361/347 101/356/342
f 366/358/344 105/371/356 367/373/358
f 366/358/344 367/373/358 364/355/341
f 364/355/341 367/373/358 104/367/352
f 365/357/343 105/371/356 366/358/344
f 365/357/343 366/358/344 349/341/327
f 349/341/327 366/358/344 100/340/326
f 364/355/341 104/367/352 363/439/402
f 364/355/341 363/439/402 346/338/324
f 346/338/324 363/439/402 99/336/322
f 361/353/339 99/336/322 363/439/402
f 361/353/339 363/439/402 362/354/340
f 362/354/340 363/439/402 104/367/352
f 360/351/337 24/63/61 149/440/403
f 360/351/337 149/440/403 359/350/336
f 359/350/336 149/440/403 22/59/57
f 344/349/335 98/330/317 358/347/333
f 344/349/335 358/347/333 359/350/336
f 359/350/336 358/347/333 102/346/332
f 358/347/333 98/330/317 341/441/404
f 358/347/333 341/441/404 356/348/334
f 356/348/334 341/441/404 355/442/405
f 355/443/405 370/435/400 357/434/399
f 355/443/405 357/434/399 356/348/334
f 356/348/334 357/434/399 102/346/332
f 352/345/331 23/61/59 353/360/346
f 352/345/331 353/360/346 351/342/328
f 351/342/328 353/360/346 101/356/342
f 147/343/329 23/61/59 352/345/331
f 147/343/329 352/345/331 336/344/330
f 336/344/330 352/345/331 97/323/310
f 351/342/328 101/356/342 350/444/406
f 351/342/328 350/444/406 332/320/307
f 332/320/307 350/444/406 96/315/302
f 348/339/325 96/315/302 350/444/406
f 348/339/325 350/444/406 349/341/327
f 349/341/327 350/444/406 101/356/342
f 348/339/325 100/340/326 347/445/407
f 348/339/325 347/445/407 329/316/303
f 329/316/303 347/445/407 95/384/367
f 345/337/323 95/384/367 347/445/407
f 345/337/323 347/445/407 346/338/324
f 346/338/324 347/445/407 100/340/326
f 342/331/318 98/330/317 413/333/319
f 342/331/318 413/333/319 327/335/321
f 327/335/321 413/333/319 107/332/300
f 413/333/319 98/330/317 344/349/335
f 413/333/319 344/349/335 412/334/320
f 412/334/320 344/349/335 22/59/57
f 342/331/318 94/309/296 324/446/408
f 342/331/318 324/446/408 340/329/316
f 340/329/316 324/446/408 93/305/292
f 339/327/314 355/442/405 341/441/404
f 339/327/314 341/441/404 340/329/316
f 340/329/316 341/441/404 98/330/317
f 339/327/314 93/305/292 321/447/409
f 339/327/314 321/447/409 338/328/315
f 338/328/315 321/447/409 92/417/389
f 141/54/52 21/56/54 336/344/330
f 141/54/52 336/344/330 335/325/312
f 335/325/312 336/344/330 97/323/310
f 334/324/311 91/448/288 318/449/410
f 334/324/311 318/449/410 335/325/312
f 335/325/312 318/449/410 19/52/50
f 316/321/308 91/448/288 334/324/311
f 316/321/308 334/324/311 333/322/309
f 333/322/309 334/324/311 97/323/310
f 331/319/306 90/296/285 333/322/309
f 331/319/306 333/322/309 332/320/307
f 332/320/307 333/322/309 97/323/310
f 313/318/305 90/296/285 331/319/306
f 313/318/305 331/319/306 330/317/304
f 330/317/304 331/319/306 96/315/302
f 329/316/303 95/384/367 328/386/369
f 329/316/303 328/386/369 330/317/304
f 330/317/304 328/386/369 89/292/281
f 143/314/301 20/450/411 309/451/412
f 143/314/301 309/451/412 326/312/299
f 326/312/299 309/451/412 88/311/298
f 325/310/297 94/309/296 327/452/321
f 325/310/297 327/452/321 326/312/299
f 326/312/299 327/452/321 107/313/300
f 325/310/297 88/311/298 307/453/413
f 325/310/297 307/453/413 323/308/295
f 323/308/295 307/453/413 87/307/294
f 322/306/293 93/305/292 324/446/408
f 322/306/293 324/446/408 323/308/295
f 323/308/295 324/446/408 94/309/296
f 322/306/293 87/307/294 304/454/414
f 322/306/293 304/454/414 320/304/291
f 320/304/291 304/454/414 86/282/271
f 319/303/290 92/417/389 321/447/409
f 319/303/290 321/447/409 320/304/291
f 320/304/291 321/447/409 93/305/292
f 137/50/48 19/455/50 318/456/410
f 137/50/48 318/456/410 317/302/289
f 317/302/289 318/456/410 91/300/288
f 315/301/287 85/276/266 300/457/415
f 315/301/287 300/457/415 317/302/289
f 317/302/289 300/457/415 17/48/46
f 315/299/287 91/448/288 316/321/308
f 315/299/287 316/321/308 314/297/286
f 314/297/286 316/321/308 90/296/285
f 312/295/284 84/272/263 298/458/416
f 312/295/284 298/458/416 314/297/286
f 314/297/286 298/458/416 85/298/266
f 312/295/284 90/296/285 313/318/305
f 312/295/284 313/318/305 311/294/283
f 311/294/283 313/318/305 89/292/281
f 310/293/282 83/268/259 295/459/417
f 310/293/282 295/459/417 311/294/283
f 311/294/283 295/459/417 84/272/263
f 291/291/280 82/284/273 306/286/275
f 291/291/280 306/286/275 308/289/278
f 308/289/278 306/286/275 88/460/298
f 308/289/278 88/460/298 309/461/412
f 308/289/278 309/461/412 139/290/279
f 139/290/279 309/461/412 20/462/411
f 289/287/276 81/463/268 303/464/270
f 289/287/276 303/464/270 305/285/274
f 305/285/274 303/464/270 87/465/294
f 305/285/274 87/465/294 307/466/413
f 305/285/274 307/466/413 306/286/275
f 306/286/275 307/466/413 88/460/298
f 302/280/269 81/279/268 286/467/418
f 302/280/269 286/467/418 301/283/272
f 301/283/272 286/467/418 80/411/384
f 302/280/269 86/282/271 304/454/414
f 302/280/269 304/454/414 303/281/270
f 303/281/270 304/454/414 87/307/294
f 133/46/44 17/48/46 300/457/415
f 133/46/44 300/457/415 299/278/267
f 299/278/267 300/457/415 85/276/266
f 297/277/265 79/252/244 281/254/246
f 297/277/265 281/254/246 299/278/267
f 299/278/267 281/254/246 15/44/42
f 297/275/265 85/298/266 298/458/416
f 297/275/265 298/458/416 296/273/264
f 296/273/264 298/458/416 84/272/263
f 294/271/262 78/247/239 278/249/241
f 294/271/262 278/249/241 296/273/264
f 296/273/264 278/249/241 79/274/244
f 294/271/262 84/272/263 295/459/417
f 294/271/262 295/459/417 293/270/261
f 293/270/261 295/459/417 83/268/259
f 292/269/260 77/242/234 275/244/236
f 292/269/260 275/244/236 293/270/261
f 293/270/261 275/244/236 78/247/239
f 273/267/258 76/233/229 288/262/253
f 273/267/258 288/262/253 290/265/256
f 290/265/256 288/262/253 82/284/273
f 290/265/256 82/284/273 291/291/280
f 290/265/256 291/291/280 135/266/257
f 135/266/257 291/291/280 18/288/277
f 271/263/254 75/468/224 285/469/250
f 271/263/254 285/469/250 287/261/252
f 287/261/252 285/469/250 81/463/268
f 287/261/252 81/463/268 289/287/276
f 287/261/252 289/287/276 288/262/253
f 288/262/253 289/287/276 82/284/273
f 268/260/251 74/408/382 283/409/383
f 268/260/251 283/409/383 284/258/249
f 284/258/249 283/409/383 80/411/384
f 284/258/249 80/411/384 286/467/418
f 284/258/249 286/467/418 285/259/250
f 285/259/250 286/467/418 81/279/268
f 264/256/247 13/40/34 129/42/41
f 264/256/247 129/42/41 282/257/248
f 282/257/248 129/42/41 15/44/42
f 280/253/245 73/255/222 282/257/248
f 280/253/245 282/257/248 281/254/246
f 281/254/246 282/257/248 15/44/42
f 262/250/242 73/226/222 280/470/245
f 262/250/242 280/470/245 279/251/243
f 279/251/243 280/470/245 79/274/244
f 277/248/240 72/223/219 279/251/243
f 277/248/240 279/251/243 278/249/241
f 278/249/241 279/251/243 79/274/244
f 259/245/237 72/223/219 277/248/240
f 259/245/237 277/248/240 276/246/238
f 276/246/238 277/248/240 78/247/239
f 274/243/235 71/219/215 276/246/238
f 274/243/235 276/246/238 275/244/236
f 275/244/236 276/246/238 78/247/239
f 254/241/213 70/471/209 269/234/230
f 254/241/213 269/234/230 272/239/232
f 272/239/232 269/234/230 76/233/229
f 272/239/232 76/233/229 273/267/258
f 272/239/232 273/267/258 131/240/233
f 131/240/233 273/267/258 16/264/255
f 266/237/225 75/468/224 271/263/254
f 266/237/225 271/263/254 270/235/231
f 270/235/231 271/263/254 76/233/229
f 269/234/230 70/471/209 252/472/211
f 269/234/230 252/472/211 270/235/231
f 270/235/231 252/472/211 69/236/206
f 265/232/228 74/408/382 268/260/251
f 265/232/228 268/260/251 267/230/226
f 267/230/226 268/260/251 75/228/224
f 266/229/225 69/210/206 250/212/208
f 266/229/225 250/212/208 267/230/226
f 267/230/226 250/212/208 68/231/227
f 124/35/35 13/34/34 264/473/247
f 124/35/35 264/473/247 263/227/223
f 263/227/223 264/473/247 73/226/222
f 261/225/221 67/207/203 246/474/419
f 261/225/221 246/474/419 263/227/223
f 263/227/223 246/474/419 11/28/28
f 261/225/221 73/226/222 262/250/242
f 261/225/221 262/250/242 260/224/220
f 260/224/220 262/250/242 72/223/219
f 258/222/218 66/204/200 243/205/201
f 258/222/218 243/205/201 260/224/220
f 260/224/220 243/205/201 67/207/203
f 258/222/218 72/223/219 259/245/237
f 258/222/218 259/245/237 257/221/217
f 257/221/217 259/245/237 71/219/215
f 256/220/216 65/197/193 241/475/420
f 256/220/216 241/475/420 257/221/217
f 257/221/217 241/475/420 66/204/200
f 255/218/214 12/31/31 236/195/191
f 255/218/214 236/195/191 251/214/210
f 251/214/210 236/195/191 64/189/185
f 127/39/39 12/31/31 255/218/214
f 127/39/39 255/218/214 254/217/213
f 254/217/213 255/218/214 70/213/209
f 253/216/212 64/189/185 234/191/187
f 253/216/212 234/191/187 249/211/207
f 249/211/207 234/191/187 63/192/188
f 251/214/210 64/189/185 253/216/212
f 251/214/210 253/216/212 252/215/211
f 252/215/211 253/216/212 69/210/206
f 249/211/207 63/192/188 248/476/421
f 249/211/207 248/476/421 250/212/208
f 250/212/208 248/476/421 68/231/227
f 247/209/205 68/231/227 248/476/421
f 247/209/205 248/476/421 231/187/183
f 231/187/183 248/476/421 63/192/188
f 61/201/197 438/477/422 244/208/204
f 244/208/204 228/478/423 245/206/202
f 245/206/202 228/478/423 9/22/22
f 120/29/29 11/28/28 246/474/419
f 120/29/29 246/474/419 245/206/202
f 245/206/202 246/474/419 67/207/203
f 242/202/198 61/201/197 244/208/204
f 242/202/198 244/208/204 243/205/201
f 243/205/201 244/208/204 67/207/203
f 242/202/198 66/204/200 240/200/196
f 242/202/198 240/200/196 226/203/199
f 226/203/199 240/200/196 60/178/174
f 240/200/196 66/204/200 241/475/420
f 240/200/196 241/475/420 239/199/195
f 239/199/195 241/475/420 65/197/193
f 238/198/194 59/174/170 223/479/424
f 238/198/194 223/479/424 239/199/195
f 239/199/195 223/479/424 60/178/174
f 237/196/192 10/25/25 218/172/168
f 237/196/192 218/172/168 233/190/186
f 233/190/186 218/172/168 58/168/164
f 123/33/33 10/25/25 237/196/192
f 123/33/33 237/196/192 236/195/191
f 236/195/191 237/196/192 64/189/185
f 235/193/189 58/168/164 216/170/166
f 235/193/189 216/170/166 232/194/190
f 232/194/190 216/170/166 57/162/158
f 233/190/186 58/168/164 235/193/189
f 233/190/186 235/193/189 234/191/187
f 234/191/187 235/193/189 63/192/188
f 231/187/183 63/192/188 232/194/190
f 231/187/183 232/194/190 230/188/184
f 230/188/184 232/194/190 57/162/158
f 229/185/181 62/186/182 230/188/184
f 229/185/181 230/188/184 213/164/160
f 213/164/160 230/188/184 57/162/158
f 116/23/23 9/22/22 228/478/423
f 228/478/423 439/480/425 116/23/23
f 197/137/135 436/183/179 46/138/136
f 227/184/180 210/481/426 6/16/16
f 225/181/177 61/201/197 226/203/199
f 225/181/177 226/203/199 224/179/175
f 224/179/175 226/203/199 60/178/174
f 222/177/173 54/159/155 209/482/427
f 222/177/173 209/482/427 224/179/175
f 224/179/175 209/482/427 55/180/176
f 222/177/173 60/178/174 223/479/424
f 222/177/173 223/479/424 221/176/172
f 221/176/172 223/479/424 59/174/170
f 220/175/171 53/151/149 208/483/428
f 220/175/171 208/483/428 221/176/172
f 221/176/172 208/483/428 54/159/155
f 219/173/169 7/19/19 204/149/147
f 219/173/169 204/149/147 215/169/165
f 215/169/165 204/149/147 50/145/143
f 119/27/27 7/19/19 219/173/169
f 119/27/27 219/173/169 218/172/168
f 218/172/168 219/173/169 58/168/164
f 217/171/167 50/145/143 202/147/145
f 217/171/167 202/147/145 212/163/159
f 212/163/159 202/147/145 49/139/137
f 215/169/165 50/145/143 217/171/167
f 215/169/165 217/171/167 216/170/166
f 216/170/166 217/171/167 57/162/158
f 214/166/162 49/139/137 200/141/139
f 214/166/162 200/141/139 211/167/163
f 211/167/163 200/141/139 47/142/140
f 212/163/159 49/139/137 214/166/162
f 212/163/159 214/166/162 213/164/160
f 213/164/160 214/166/162 56/165/161
f 379/17/17 6/16/16 210/481/426
f 379/17/17 210/481/426 403/161/157
f 244/208/204 438/477/422 228/478/423
f 403/161/157 198/484/429 5/160/156
f 400/155/152 45/154/133 196/485/430
f 400/155/152 196/485/430 402/158/154
f 402/158/154 196/485/430 46/156/136
f 401/157/153 55/180/176 209/482/427
f 401/157/153 209/482/427 402/158/154
f 402/158/154 209/482/427 54/159/155
f 400/155/152 54/159/155 208/483/428
f 400/155/152 208/483/428 399/153/151
f 399/153/151 208/483/428 53/151/149
f 207/152/150 52/390/129 396/486/431
f 207/152/150 396/486/431 399/153/151
f 399/153/151 396/486/431 45/154/133
f 205/150/148 8/487/12 206/488/126
f 205/150/148 206/488/126 201/146/144
f 201/146/144 206/488/126 51/489/123
f 115/21/21 8/487/12 205/150/148
f 115/21/21 205/150/148 204/149/147
f 204/149/147 205/150/148 50/145/143
f 203/148/146 51/489/123 391/490/122
f 203/148/146 391/490/122 397/140/138
f 397/140/138 391/490/122 44/491/121
f 201/146/144 51/489/123 203/148/146
f 201/146/144 203/148/146 202/147/145
f 202/147/145 203/148/146 49/139/137
f 398/143/141 44/491/121 390/492/117
f 398/143/141 390/492/117 199/144/142
f 199/144/142 390/492/117 48/422/116
f 397/140/138 44/491/121 398/143/141
f 397/140/138 398/143/141 200/141/139
f 200/141/139 398/143/141 47/142/140
f 194/133/131 43/106/104 190/114/112
f 194/133/131 190/114/112 197/137/135
f 197/137/135 190/114/112 4/111/109
f 113/136/134 5/493/156 198/494/429
f 113/136/134 198/494/429 197/137/135
f 198/494/429 437/182/178 197/137/135
f 193/129/127 42/102/100 186/107/105
f 193/129/127 186/107/105 195/134/132
f 195/134/132 186/107/105 43/106/104
f 194/133/131 46/138/136 196/495/430
f 194/133/131 196/495/430 195/134/132
f 195/134/132 196/495/430 45/135/133
f 394/132/130 41/496/373 185/105/103
f 394/132/130 185/105/103 395/130/128
f 395/130/128 185/105/103 42/102/100
f 193/129/127 45/135/133 396/497/431
f 193/129/127 396/497/431 395/130/128
f 395/130/128 396/497/431 52/131/129
f 206/128/126 8/12/12 377/14/14
f 206/128/126 377/14/14 393/126/124
f 393/126/124 377/14/14 3/9/9
f 393/126/124 3/9/9 181/100/98
f 393/126/124 181/100/98 392/127/125
f 392/127/125 181/100/98 40/98/96
f 391/124/122 51/125/123 392/127/125
f 391/124/122 392/127/125 192/122/120
f 192/122/120 392/127/125 40/98/96
f 178/121/119 39/95/93 191/498/432
f 178/121/119 191/498/432 192/122/120
f 192/122/120 191/498/432 44/123/121
f 390/119/117 44/123/121 191/498/432
f 390/119/117 191/498/432 389/120/118
f 389/120/118 191/498/432 39/95/93
f 388/116/114 48/118/116 389/120/118
f 388/116/114 389/120/118 175/117/115
f 175/117/115 389/120/118 39/95/93
f 190/114/112 43/106/104 188/499/433
f 190/114/112 188/499/433 189/112/110
f 189/112/110 188/499/433 36/87/85
f 189/112/110 36/87/85 172/91/89
f 189/112/110 172/91/89 112/113/111
f 112/113/111 172/91/89 1/4/4
f 170/110/108 36/87/85 188/499/433
f 170/110/108 188/499/433 187/108/106
f 187/108/106 188/499/433 43/106/104
f 186/107/105 42/102/100 184/104/102
f 186/107/105 184/104/102 187/108/106
f 187/108/106 184/104/102 35/109/107
f 185/105/103 41/496/373 182/500/375
f 185/105/103 182/500/375 183/103/101
f 183/103/101 182/500/375 33/501/364
f 183/103/101 33/501/364 166/502/434
f 183/103/101 166/502/434 184/104/102
f 184/104/102 166/502/434 35/109/107
f 181/100/98 3/9/9 109/7/7
f 181/100/98 109/7/7 180/101/99
f 180/101/99 109/7/7 2/6/6
f 179/99/97 40/98/96 180/101/99
f 179/99/97 180/101/99 161/80/78
f 161/80/78 180/101/99 2/6/6
f 179/99/97 30/76/74 159/503/435
f 179/99/97 159/503/435 177/97/95
f 177/97/95 159/503/435 29/72/70
f 176/96/94 39/95/93 178/121/119
f 176/96/94 178/121/119 177/97/95
f 177/97/95 178/121/119 40/98/96
f 176/96/94 29/72/70 158/504/436
f 176/96/94 158/504/436 174/94/92
f 174/94/92 158/504/436 28/92/90
f 173/93/91 38/115/113 175/117/115
f 173/93/91 175/117/115 174/94/92
f 174/94/92 175/117/115 39/95/93
f 172/91/89 36/87/85 168/89/87
f 172/91/89 168/89/87 171/90/88
f 171/90/88 168/89/87 37/505/397
f 171/90/88 37/505/397 387/506/396
f 171/90/88 387/506/396 375/5/5
f 375/5/5 387/506/396 26/507/65
f 167/88/86 36/87/85 170/110/108
f 167/88/86 170/110/108 163/82/80
f 163/82/80 170/110/108 35/109/107
f 167/88/86 34/81/79 169/508/398
f 167/88/86 169/508/398 168/89/87
f 168/89/87 169/508/398 37/505/397
f 165/85/83 35/109/107 166/502/434
f 165/85/83 166/502/434 162/86/84
f 162/86/84 166/502/434 33/501/364
f 163/82/80 35/109/107 165/85/83
f 163/82/80 165/85/83 164/83/81
f 164/83/81 165/85/83 32/84/82
f 161/80/78 2/6/6 373/2/2
f 161/80/78 373/2/2 386/79/77
f 386/79/77 373/2/2 27/1/1
f 385/78/76 31/509/348 160/77/75
f 385/78/76 160/77/75 386/79/77
f 386/79/77 160/77/75 30/76/74
f 160/77/75 31/509/348 384/510/401
f 160/77/75 384/510/401 383/75/73
f 383/75/73 384/510/401 106/74/72
f 381/73/71 29/72/70 159/503/435
f 381/73/71 159/503/435 383/75/73
f 383/75/73 159/503/435 30/76/74
f 106/74/72 443/511/437 381/73/71
f 381/73/71 382/512/438 157/71/69
f 382/512/438 145/416/388 157/71/69
f 156/70/68 28/92/90 158/504/436
f 156/70/68 158/504/436 157/71/69
f 157/71/69 158/504/436 29/72/70
f 155/68/66 25/375/360 150/64/62
f 155/68/66 150/64/62 153/66/64
f 153/66/64 150/64/62 24/63/61
f 152/65/63 27/366/1 154/513/439
f 152/65/63 154/513/439 153/66/64
f 153/66/64 154/513/439 26/67/65
f 150/64/62 25/375/360 151/359/345
f 150/64/62 151/359/345 148/62/60
f 148/62/60 151/359/345 23/61/59
f 146/60/58 22/59/57 149/440/403
f 146/60/58 149/440/403 148/62/60
f 148/62/60 149/440/403 24/63/61
f 146/60/58 23/61/59 147/343/329
f 146/60/58 147/343/329 144/58/56
f 144/58/56 147/343/329 21/56/54
f 142/57/55 107/313/300 412/514/320
f 142/57/55 412/514/320 144/58/56
f 144/58/56 412/514/320 22/59/57
f 138/55/53 20/450/411 143/314/301
f 138/55/53 143/314/301 140/53/51
f 140/53/51 143/314/301 107/313/300
f 140/53/51 107/313/300 142/57/55
f 140/53/51 142/57/55 141/54/52
f 141/54/52 142/57/55 21/56/54
f 134/51/49 18/288/277 139/290/279
f 134/51/49 139/290/279 136/49/47
f 136/49/47 139/290/279 20/462/411
f 136/49/47 20/462/411 138/515/53
f 136/49/47 138/515/53 137/50/48
f 137/50/48 138/515/53 19/455/50
f 130/47/45 16/264/255 135/266/257
f 130/47/45 135/266/257 132/45/43
f 132/45/43 135/266/257 18/288/277
f 132/45/43 18/288/277 134/51/49
f 132/45/43 134/51/49 133/46/44
f 133/46/44 134/51/49 17/48/46
f 125/43/36 14/238/37 131/240/233
f 125/43/36 131/240/233 128/41/40
f 128/41/40 131/240/233 16/264/255
f 128/41/40 16/264/255 130/47/45
f 128/41/40 130/47/45 129/42/41
f 129/42/41 130/47/45 15/44/42
f 126/38/38 11/28/28 121/30/30
f 126/38/38 121/30/30 127/39/39
f 127/39/39 121/30/30 12/31/31
f 124/35/35 11/28/28 126/38/38
f 124/35/35 126/38/38 125/36/36
f 125/36/36 126/38/38 14/37/37
f 122/32/32 9/22/22 117/24/24
f 122/32/32 117/24/24 123/33/33
f 123/33/33 117/24/24 10/25/25
f 120/29/29 9/22/22 122/32/32
f 120/29/29 122/32/32 121/30/30
f 121/30/30 122/32/32 12/31/31
f 118/26/26 6/16/16 114/18/18
f 118/26/26 114/18/18 119/27/27
f 119/27/27 114/18/18 7/19/19
f 116/23/23 6/16/16 118/26/26
f 116/23/23 118/26/26 117/24/24
f 117/24/24 118/26/26 10/25/25
f 380/20/20 5/160/156 378/516/15
f 380/20/20 378/516/15 115/21/21
f 115/21/21 378/516/15 8/487/12
f 379/17/17 5/160/156 380/20/20
f 379/17/17 380/20/20 114/18/18
f 114/18/18 380/20/20 7/19/19
f 378/15/15 5/493/156 113/136/134
f 378/15/15 113/136/134 376/13/13
f 376/13/13 113/136/134 4/111/109
f 376/13/13 4/111/109 111/10/10
f 376/13/13 111/10/10 377/14/14
f 377/14/14 111/10/10 3/9/9
f 111/10/10 4/111/109 112/113/111
f 111/10/10 112/113/111 110/11/11
f 110/11/11 112/113/111 1/4/4
f 109/7/7 3/9/9 110/11/11
f 109/7/7 110/11/11 108/8/8
f 108/8/8 110/11/11 1/4/4
f 375/5/5 26/507/65 154/517/439
f 375/5/5 154/517/439 374/3/3
f 374/3/3 154/517/439 27/1/1
f 373/2/2 2/6/6 108/8/8
f 373/2/2 108/8/8 374/3/3
f 374/3/3 108/8/8 1/4/4
f 116/23/23 439/480/425 227/184/180
f 355/442/405 339/327/314 440/326/313
f 354/423/391 425/399/380 441/398/379
f 428/397/378 442/420/392 337/395/376
f 381/73/71 443/511/437 382/512/438
