# Blender 4.4.3
# www.blender.org
mtllib cave_map_large.mtl
o cave_map_large.013
v -256.190460 -19.708033 -28.215488
v -254.642197 -20.228079 -30.559574
v -256.624756 -20.228079 -31.596107
v -258.173035 -19.708033 -29.252026
v -261.598083 -19.274942 -31.042717
v -262.312805 -17.671621 -31.416386
v -260.764526 -17.671621 -33.760464
v -260.049805 -19.274942 -33.386799
v -262.512878 -15.635205 -31.520992
v -260.964600 -15.635206 -33.865078
v -261.184814 -12.536310 -30.826647
v -259.636536 -12.536311 -33.170727
v -260.155609 -10.499895 -30.288553
v -258.607330 -10.499896 -32.632633
v -258.173035 -10.499895 -29.252028
v -256.624756 -10.724541 -31.596109
v -256.190460 -11.213422 -28.215490
v -254.642197 -11.480072 -30.559576
v -254.207901 -10.807572 -27.178965
v -252.659607 -10.807572 -29.523046
v -253.194717 -11.989171 -26.649252
v -251.218384 -14.329715 -28.324936
v -252.582855 -15.635205 -26.329353
v -251.234665 -17.671621 -28.778049
v -252.782944 -17.671621 -26.433964
v -253.335800 -19.708033 -26.723003
v -252.659607 -19.708033 -29.523045
v -252.948151 -20.070555 -36.890423
v -251.006500 -19.601950 -35.340355
v -252.807938 -20.145983 -35.277843
v -253.575272 -20.230047 -32.665436
v -251.592697 -19.708033 -31.628906
v -258.903076 -19.648638 -23.110210
v -259.583374 -19.431086 -23.457836
v -256.986328 -19.540247 -22.965816
v -259.027527 -19.428217 -24.371449
v -257.483246 -19.390406 -26.227726
v -254.849884 -19.688566 -24.850948
v -253.578918 -20.107069 -37.588108
v -254.574432 -20.145983 -36.201412
v -255.557846 -20.090181 -33.701969
v -260.262207 -19.431086 -23.804684
v -260.339172 -19.428217 -25.057194
v -259.249756 -19.390406 -27.151295
v -256.878662 -19.688566 -37.845646
v -261.266418 -19.407381 -25.541988
v -261.795959 -19.688566 -27.890518
v -254.937256 -18.490833 -38.298275
v -254.720184 -19.716301 -38.184788
v -257.202057 -17.843834 -38.014721
v -259.697571 -17.671621 -35.866329
v -258.982910 -19.274942 -35.492664
v -260.630981 -19.409994 -23.993122
v -260.723267 -18.747709 -24.040287
v -261.467834 -18.248785 -25.647289
v -262.119354 -17.843832 -28.059597
v -255.047638 -17.311588 -38.355991
v -257.384949 -16.010242 -38.110348
v -259.897675 -15.635206 -35.970940
v -260.706421 -17.844976 -24.003178
v -261.597473 -16.864275 -25.715054
v -262.302246 -16.010241 -28.155224
v -254.945114 -16.149345 -38.302391
v -256.679840 -14.179617 -37.302166
v -258.569611 -12.536311 -35.276592
v -260.993042 -16.943411 -24.149632
v -261.943176 -15.499728 -25.895809
v -261.355164 -14.179616 -28.252041
v -254.749039 -14.991138 -38.199871
v -256.366791 -11.287766 -37.138489
v -257.540405 -10.499896 -34.738503
v -260.872223 -15.981627 -24.087894
v -261.712952 -14.139918 -25.775452
v -261.042114 -11.287766 -28.088366
v -253.668015 -14.834503 -37.634686
v -254.593491 -11.253648 -36.211372
v -255.557846 -10.724541 -33.701969
v -260.199371 -16.172499 -23.744083
v -260.443787 -13.956017 -25.111885
v -259.268799 -11.253650 -27.161253
v -252.550842 -14.834503 -37.050602
v -252.826996 -11.253648 -35.287811
v -253.575272 -10.954336 -32.665436
v -259.520569 -16.172499 -23.397236
v -259.132141 -13.956017 -24.426136
v -257.502319 -11.253650 -26.237692
v -251.722855 -14.416359 -36.292076
v -251.067291 -11.677815 -34.367794
v -251.592697 -10.499896 -31.628908
v -258.835815 -15.981627 -23.047344
v -257.037628 -13.077436 -23.331074
v -255.634079 -11.885756 -25.260935
v -251.348526 -15.591410 -34.960384
v -250.738556 -13.117137 -34.195919
v -250.648895 -12.536310 -31.119268
v -258.243530 -16.943411 -22.744717
v -256.791290 -15.499728 -23.202290
v -254.541763 -13.117136 -24.689838
v -250.871048 -17.113623 -35.242237
v -250.554626 -16.010241 -34.099762
v -251.032455 -15.635205 -31.335999
v -258.052063 -17.844976 -22.646877
v -256.693176 -17.092890 -23.132687
v -254.357834 -16.010241 -24.593685
v -250.852112 -18.423323 -35.172848
v -250.728271 -17.843832 -34.190556
v -251.232544 -17.671621 -31.440605
v -258.322235 -18.747709 -22.813419
v -257.121155 -18.445673 -22.889103
v -254.531494 -17.843832 -24.684475
v -251.046677 -19.688566 -34.357029
v -251.503693 -12.553453 -28.706926
v -255.416321 -19.968058 -29.387535
v -255.633469 -20.228079 -31.077839
v -256.407593 -19.968058 -29.905800
v -257.398895 -19.968058 -30.424065
v -257.181763 -19.708033 -28.733761
v -259.885559 -19.491488 -30.147369
v -261.538635 -17.671621 -32.588425
v -260.407166 -18.473280 -33.573635
v -262.412842 -16.653414 -31.468685
v -261.738739 -15.635206 -32.693035
v -261.638672 -16.653414 -32.640728
v -260.864563 -16.653414 -33.812771
v -261.848816 -14.616998 -31.173820
v -260.410675 -12.536311 -31.998690
v -261.074707 -14.616999 -32.345863
v -260.300568 -14.616999 -33.517902
v -260.670197 -11.518104 -30.557604
v -259.381470 -10.499895 -31.460596
v -259.896057 -11.518105 -31.729643
v -259.121948 -11.518105 -32.901684
v -258.390167 -10.612219 -30.942335
v -259.164337 -10.499895 -29.770288
v -257.398895 -10.612219 -30.424067
v -257.616028 -10.612220 -32.114372
v -256.407593 -11.024463 -29.905802
v -257.181763 -10.891137 -28.733763
v -255.416321 -11.346746 -29.387537
v -255.633469 -11.136786 -31.077841
v -254.425049 -11.044976 -28.869268
v -255.199188 -11.044976 -27.697226
v -253.433762 -10.807572 -28.351004
v -253.650894 -11.178301 -30.041311
v -252.855789 -11.680514 -27.942945
v -253.701309 -11.398372 -26.914110
v -252.349197 -12.271313 -27.678091
v -252.081650 -11.680514 -29.114985
v -252.206543 -13.159443 -27.487095
v -251.900620 -14.451221 -27.327145
v -252.888794 -13.280948 -26.489304
v -251.908768 -16.653414 -27.553699
v -251.226517 -16.531908 -28.551487
v -252.008804 -17.671621 -27.606007
v -252.682892 -16.653414 -26.381660
v -251.947144 -18.689825 -29.150547
v -252.285233 -18.689825 -27.750526
v -252.997696 -19.708033 -28.123024
v -253.059372 -18.689825 -26.578484
v -251.855621 -19.555044 -36.480869
v -251.912567 -19.818727 -35.718552
v -252.634842 -20.126524 -36.140938
v -253.191605 -20.188017 -33.971645
v -252.583984 -19.969042 -32.147167
v -254.108719 -20.229063 -31.612507
v -259.243225 -19.539862 -23.284023
v -258.015625 -19.557890 -23.842403
v -257.953400 -19.668100 -23.211788
v -258.965302 -19.538427 -23.740833
v -259.305481 -19.429651 -23.914639
v -257.243500 -19.538984 -24.770546
v -256.166565 -19.539484 -25.539337
v -255.936447 -19.583368 -23.563442
v -258.255371 -19.409311 -25.299587
v -255.520187 -19.698298 -26.533215
v -256.836853 -19.549219 -27.221607
v -253.317825 -20.107069 -37.153824
v -253.518097 -20.126524 -36.602718
v -254.076675 -20.126524 -36.894756
v -253.691193 -20.145983 -35.739628
v -254.182892 -20.118082 -34.489906
v -255.066147 -20.118082 -34.951687
v -254.566559 -20.160116 -33.183704
v -255.100006 -20.159128 -32.130768
v -256.091309 -20.159128 -32.649036
v -259.922791 -19.431086 -23.631260
v -259.961273 -19.429651 -24.257511
v -259.683350 -19.428217 -24.714321
v -260.300690 -19.429651 -24.430935
v -259.794464 -19.409311 -26.104240
v -259.138672 -19.409311 -25.761372
v -258.366516 -19.390406 -26.689507
v -257.828125 -19.549219 -27.739876
v -258.711395 -19.549219 -28.201656
v -255.726547 -19.917273 -37.023525
v -256.218262 -19.889372 -35.773808
v -260.802795 -19.417799 -25.299595
v -260.522858 -19.539484 -27.520905
v -260.258118 -19.398893 -26.346642
v -261.531189 -19.547976 -26.716251
v -259.984497 -19.698298 -28.571270
v -261.697021 -19.481752 -29.466618
v -254.828705 -19.103565 -38.241531
v -256.069641 -18.167332 -38.156498
v -259.340240 -18.473280 -35.679493
v -258.449829 -17.757727 -36.940525
v -258.092468 -18.559385 -36.753693
v -260.231079 -17.671621 -34.813393
v -259.873718 -18.473280 -34.626564
v -259.516357 -19.274942 -34.439732
v -260.677124 -19.078852 -24.016697
v -261.095581 -18.498247 -24.843784
v -261.793579 -18.046309 -26.853439
v -262.216064 -17.757727 -29.737988
v -254.992447 -17.901211 -38.327133
v -257.293518 -16.927036 -38.062534
v -256.216309 -16.660915 -38.233173
v -256.124817 -17.577709 -38.185356
v -259.797638 -16.653414 -35.918629
v -258.641296 -15.822723 -37.040642
v -258.541290 -16.840929 -36.988338
v -260.431152 -15.635206 -34.918007
v -260.331116 -16.653414 -34.865704
v -260.714844 -18.296343 -24.021732
v -261.087158 -18.046881 -24.825237
v -261.532654 -17.556528 -25.681168
v -261.151947 -17.354624 -24.859116
v -261.858398 -17.354052 -26.887325
v -262.210815 -16.927034 -28.107410
v -261.949829 -16.437258 -26.935135
v -262.307526 -16.840929 -29.785805
v -262.407562 -15.822722 -29.838108
v -254.996384 -16.730465 -38.329189
v -256.165039 -16.079792 -38.206367
v -255.812485 -15.164480 -37.802280
v -257.032410 -15.094929 -37.706253
v -259.233643 -14.616999 -35.623764
v -257.624725 -12.826722 -36.289379
v -258.288757 -14.907410 -36.636551
v -259.103088 -12.536311 -34.223663
v -259.767090 -14.616999 -34.570831
v -260.849731 -17.394194 -24.076405
v -261.295227 -16.903845 -24.932339
v -261.770325 -16.182001 -25.805431
v -261.468140 -16.221567 -25.022724
v -262.122742 -15.754983 -27.025520
v -261.649170 -14.839671 -27.073929
v -261.828735 -15.094928 -28.203636
v -261.934021 -14.907411 -29.886517
v -261.269989 -13.889203 -29.539349
v -254.847076 -15.570242 -38.251129
v -255.714432 -14.585379 -37.751022
v -256.523315 -12.202452 -37.220329
v -255.557907 -12.608213 -37.669182
v -258.054993 -11.518105 -35.007545
v -256.953583 -10.893831 -35.938496
v -257.468201 -11.912039 -36.207539
v -258.073853 -10.499896 -33.685570
v -258.588470 -11.518105 -33.954613
v -260.932648 -16.462519 -24.118763
v -261.407715 -15.740678 -24.991856
v -261.828064 -14.819823 -25.835636
v -261.292603 -15.060773 -24.931671
v -261.534058 -14.159768 -27.013748
v -261.198608 -12.202452 -28.170206
v -261.377533 -13.245082 -26.931911
v -261.113464 -11.912039 -29.457510
v -260.598846 -10.893832 -29.188467
v -254.208527 -14.912821 -37.917278
v -255.480148 -11.270707 -36.674931
v -254.671265 -12.591152 -37.205624
v -254.130737 -12.512835 -36.923031
v -256.549133 -10.612220 -34.220238
v -255.962326 -11.006154 -35.420231
v -255.075668 -10.989095 -34.956669
v -257.082581 -10.612220 -33.167305
v -256.091309 -10.724541 -32.649036
v -260.535797 -16.077063 -23.915989
v -260.321564 -15.064258 -24.427990
v -260.658020 -14.968823 -24.599888
v -261.078369 -14.047969 -25.443665
v -259.856262 -12.073594 -26.136568
v -260.490906 -12.165544 -26.468359
v -260.155457 -11.270709 -27.624811
v -258.720947 -10.876773 -28.206640
v -259.607544 -10.893832 -28.670195
v -253.109421 -14.834503 -37.342644
v -253.572159 -12.512835 -36.630989
v -253.710251 -11.253648 -35.749592
v -252.688904 -12.512835 -36.169209
v -254.192413 -10.989095 -34.494888
v -254.566559 -10.612220 -33.183704
v -253.201126 -10.875602 -33.976627
v -255.100006 -10.675364 -32.130768
v -254.108719 -10.651399 -31.612509
v -259.859985 -16.172499 -23.570660
v -259.982178 -15.064258 -24.254559
v -259.787964 -13.956017 -24.769009
v -259.326355 -15.064258 -23.911678
v -259.200470 -12.073594 -25.793699
v -258.385559 -11.253650 -26.699472
v -258.317230 -12.073594 -25.331915
v -257.837646 -10.876773 -27.744856
v -256.846375 -11.199057 -27.226591
v -252.068604 -14.881306 -36.458084
v -252.112259 -12.591152 -35.867714
v -251.947159 -11.270707 -34.827805
v -251.232391 -12.608213 -35.407711
v -252.321274 -11.721335 -33.516613
v -252.583984 -11.024464 -32.147167
v -251.330002 -10.893831 -32.998352
v -253.117447 -11.024463 -31.094244
v -252.126160 -10.653734 -30.575975
v -259.178162 -16.077063 -23.222294
v -258.983948 -14.968823 -23.736744
v -258.084900 -12.985488 -23.878605
v -257.936707 -15.060773 -23.189205
v -257.269958 -12.165544 -24.784384
v -256.568176 -11.569703 -25.749319
v -256.335876 -12.481597 -24.296011
v -255.912262 -11.887004 -26.738218
v -254.920990 -11.346665 -26.219950
v -251.226517 -14.844574 -35.475010
v -251.068039 -13.522898 -35.321774
v -251.197937 -14.847912 -34.814007
v -250.902924 -12.202452 -34.281860
v -250.858093 -11.912039 -32.743526
v -250.693710 -12.826722 -32.657597
v -251.120804 -11.518104 -31.374090
v -251.548187 -11.526675 -30.167921
v -251.076294 -12.544883 -29.913099
v -258.539673 -16.462519 -22.896038
v -257.517395 -16.221567 -22.973499
v -257.813538 -15.740678 -23.124821
v -256.914459 -13.757342 -23.266682
v -255.666519 -13.777192 -23.946064
v -255.789703 -13.097287 -24.010456
v -255.087936 -12.501447 -24.975389
v -254.374817 -11.962356 -25.934401
v -253.868240 -12.553153 -25.669550
v -251.388657 -16.191946 -35.134769
v -250.698868 -15.582069 -34.615734
v -250.903763 -16.490046 -34.555279
v -250.646606 -14.032448 -34.147846
v -250.885498 -13.844931 -32.765961
v -250.793549 -15.822723 -32.717884
v -250.840683 -13.554517 -31.227631
v -251.125427 -15.513701 -29.830467
v -258.147797 -17.394194 -22.695797
v -257.349487 -17.354624 -22.886837
v -257.445190 -16.903845 -22.935757
v -256.719116 -16.182001 -23.164539
v -255.502380 -16.437258 -23.860249
v -255.574570 -15.754983 -23.897984
v -254.449799 -14.032449 -24.641766
v -253.562302 -13.844930 -25.509602
v -253.470352 -15.822722 -25.461521
v -250.905014 -17.793669 -35.264923
v -251.229233 -17.577707 -34.887203
v -251.286774 -18.167330 -34.917294
v -250.641449 -16.927034 -34.145161
v -250.893585 -16.840929 -32.770187
v -250.980408 -17.757727 -32.815586
v -251.132507 -16.653414 -31.388306
v -251.225464 -16.531908 -29.882771
v -251.233597 -17.671621 -30.109329
v -258.187134 -18.296343 -22.730145
v -257.552124 -18.498247 -23.005436
v -257.674225 -17.965475 -22.805431
v -257.170349 -17.838232 -22.861103
v -254.444656 -16.927034 -24.639080
v -255.823486 -17.181936 -23.627758
v -255.850571 -17.838228 -23.612347
v -253.570404 -16.840929 -25.513821
v -253.657227 -17.757727 -25.559219
v -251.183716 -19.046400 -34.684032
v -250.887482 -18.766199 -34.273788
v -251.946075 -18.689825 -30.481831
v -253.933640 -18.775934 -25.703739
v -253.650894 -19.968058 -30.041313
v -254.425049 -19.708033 -28.869267
v -254.763138 -19.708033 -27.469250
v -259.111389 -19.491488 -31.319416
v -258.337280 -19.751509 -32.491455
v -260.823944 -19.274942 -32.214756
v -261.955444 -18.473280 -31.229549
v -261.181305 -18.473280 -32.401592
v -251.927307 -19.917273 -34.817436
v -251.160141 -19.688513 -34.993591
v -252.310989 -19.959307 -33.511234
v -251.319702 -19.698298 -32.992970
v -252.126160 -19.708033 -30.575974
v -253.117447 -19.969042 -31.094242
v -254.092834 -19.698298 -25.786976
v -254.149551 -19.911684 -37.886444
v -254.647324 -19.931143 -37.193096
v -255.799423 -19.702435 -38.015213
v -257.930786 -19.481752 -36.669147
v -257.270386 -19.682562 -34.597317
v -257.803833 -19.751509 -33.544384
v -260.446594 -19.420542 -23.898899
v -260.485077 -19.419107 -24.525158
v -260.948700 -19.408689 -24.767555
v -257.040375 -18.766201 -37.930187
v -255.907944 -19.089699 -38.071960
v -260.994873 -19.077547 -24.791134
v -261.367126 -18.828085 -25.594639
v -261.957642 -18.766199 -27.975056
v -261.631897 -18.968676 -26.768906
v -261.858704 -18.559385 -29.551155
v -250.855865 -19.052824 -35.156712
v -251.160492 -18.775934 -32.909725
v -251.412628 -18.689825 -31.534756
v -258.612640 -19.198175 -22.961811
v -257.170349 -19.053118 -22.861103
v -257.662994 -19.217638 -23.063389
v -254.690704 -18.766199 -24.767712
v -255.762360 -19.053114 -23.662548
v -251.361023 -13.441585 -28.515926
v -251.045441 -14.032930 -30.119724
v -258.952820 -19.089399 -23.135624
v -258.282898 -17.845560 -22.779064
v -258.882019 -16.557955 -23.070972
v -260.596191 -16.557955 -23.946850
v -258.921387 -17.460104 -23.105328
v -260.113495 -17.008738 -23.700207
v -260.452881 -17.008738 -23.873631
v -260.144897 -18.638029 -23.730511
v -259.551941 -17.801790 -23.427532
v -260.492737 -19.089399 -23.922482
v -260.484314 -18.638029 -23.903927
v -251.995636 -19.049849 -36.685688
v -251.944656 -18.420469 -36.638439
v -254.258087 -19.298954 -37.943192
v -251.822586 -17.388750 -36.509357
v -254.313278 -18.709328 -37.972046
v -254.357819 -16.073044 -37.995338
v -254.306564 -15.491924 -37.968536
v -251.858795 -16.395239 -35.872173
v -251.583771 -16.115774 -35.590195
v -253.623459 -17.470785 -37.611393
v -251.798660 -15.428019 -35.845814
v -251.573471 -17.019506 -36.187565
v -251.243713 -16.857546 -35.750683
v -251.973389 -17.790880 -36.698071
v -251.620514 -19.680342 -36.161293
v -251.293655 -19.681196 -35.722809
v -256.289368 -16.935778 -23.362560
v -255.771484 -18.445673 -23.657360
v -256.693176 -19.660559 -23.132687
v -256.289368 -19.660559 -23.362560
v -256.992859 -17.449820 -22.962109
vn -0.5055 0.8456 -0.1715
vn -0.1535 0.9692 -0.1927
vn -0.0525 0.9885 -0.1418
vn 0.0489 0.9926 -0.1108
vn 0.0019 1.0000 -0.0037
vn -0.0557 0.9901 -0.1291
vn 0.0291 0.9980 -0.0556
vn -0.0096 0.9749 -0.2226
vn 0.1258 0.9920 -0.0040
vn 0.1843 0.9782 -0.0953
vn 0.0848 0.9831 -0.1621
vn 0.5274 0.8019 0.2806
vn 0.1883 0.9820 0.0174
vn 0.2481 0.9679 0.0407
vn 0.4776 0.8200 0.3155
vn 0.9274 0.2683 0.2607
vn 0.8647 0.4413 0.2397
vn 0.8003 0.2830 0.5286
vn 0.8285 0.2858 0.4816
vn 0.7462 0.4475 0.4929
vn 0.7726 0.4490 0.4489
vn 0.9351 -0.2431 0.2577
vn 0.9593 0.1076 0.2610
vn 0.8061 -0.2581 0.5325
vn 0.8341 -0.2622 0.4852
vn 0.8294 0.1096 0.5478
vn 0.8594 0.1101 0.4993
vn 0.8995 -0.3549 0.2550
vn 0.8507 -0.4893 0.1921
vn 0.7584 -0.4169 0.5010
vn 0.7848 -0.4195 0.4561
vn 0.7370 -0.4688 0.4868
vn 0.7641 -0.4682 0.4438
vn 0.4919 -0.8617 0.1241
vn 0.8039 -0.4939 0.3315
vn 0.3831 -0.8883 0.2531
vn 0.3829 -0.8968 0.2219
vn 0.7257 -0.4935 0.4794
vn 0.7513 -0.4950 0.4365
vn -0.0606 -0.9981 0.0078
vn 0.0559 -0.9927 -0.1069
vn -0.0716 -0.9886 -0.1328
vn -0.2997 -0.9490 -0.0984
vn -0.2784 -0.9525 -0.1232
vn -0.1838 -0.9826 -0.0272
vn -0.0983 -0.9859 -0.1356
vn 0.1746 -0.9699 0.1699
vn 0.2947 -0.9472 -0.1260
vn -0.0517 -0.9955 0.0791
vn -0.1501 -0.9364 -0.3173
vn -0.6438 -0.6635 -0.3812
vn -0.5331 -0.6817 -0.5011
vn -0.2782 -0.9428 -0.1837
vn -0.6445 -0.5220 -0.5587
vn -0.7348 -0.4894 -0.4697
vn -0.7820 -0.2522 -0.5700
vn -0.9445 -0.1061 -0.3110
vn -0.8013 -0.1049 -0.5890
vn -0.7737 0.0124 -0.6334
vn -0.8323 0.0910 -0.5469
vn -0.9277 0.2946 -0.2292
vn -0.8173 0.2015 -0.5398
vn -0.7992 0.5936 -0.0940
vn -0.8071 0.4626 -0.3669
vn -0.5127 0.7864 -0.3446
vn -0.7481 0.2879 -0.5979
vn -0.6117 0.7840 -0.1060
vn -0.2167 0.9760 0.0209
vn -0.3033 0.9440 0.1295
vn -0.1462 0.9892 0.0051
vn -0.2564 0.9662 0.0259
vn -0.7912 0.6096 0.0479
vn -0.2339 0.9715 -0.0386
vn -0.0924 0.9955 -0.0197
vn -0.2189 0.9731 -0.0714
vn -0.6409 0.6956 -0.3247
vn -0.2022 0.9739 -0.1029
vn -0.0736 0.9966 -0.0382
vn 0.2275 0.8774 -0.4223
vn 0.0092 0.9942 0.1071
vn -0.0576 0.8960 -0.4402
vn 0.2773 0.7500 -0.6005
vn 0.1365 0.9781 0.1575
vn 0.4925 0.6878 -0.5333
vn 0.0697 0.9974 -0.0179
vn 0.0498 0.9969 0.0603
vn 0.1034 0.9946 -0.0109
vn 0.0746 0.9966 -0.0355
vn 0.1035 0.9905 -0.0909
vn -0.3939 0.7978 0.4564
vn -0.3950 0.8679 0.3011
vn -0.0282 0.9991 0.0313
vn 0.0801 0.9948 0.0634
vn -0.0005 1.0000 0.0009
vn 0.0281 0.9995 0.0136
vn 0.0979 0.9934 0.0594
vn 0.0513 0.9980 0.0366
vn 0.0655 0.9930 0.0982
vn 0.0145 0.9991 0.0396
vn 0.0113 0.9999 0.0070
vn -0.0012 1.0000 0.0024
vn -0.0043 1.0000 0.0083
vn 0.0283 0.9996 0.0006
vn -0.0165 0.9958 -0.0904
vn 0.0014 0.9998 0.0188
vn -0.0074 0.9999 0.0142
vn 0.0460 0.9968 0.0654
vn 0.0370 0.9980 0.0511
vn 0.0920 0.9934 -0.0691
vn 0.0618 0.9911 -0.1182
vn 0.0733 0.9874 -0.1402
vn -0.0004 0.9887 -0.1497
vn -0.3306 0.7148 0.6163
vn -0.1617 0.6550 0.7382
vn 0.1080 0.9884 0.1069
vn -0.0987 0.5668 0.8179
vn 0.1233 0.6724 0.7298
vn 0.1370 0.9701 0.2001
vn 0.0876 0.9961 0.0122
vn 0.1922 0.9808 0.0338
vn 0.3858 0.6626 0.6419
vn 0.5857 0.7051 0.3998
vn 0.5486 0.7487 0.3722
vn 0.1856 0.9745 0.1260
vn 0.1888 0.9784 0.0844
vn 0.5562 0.7818 0.2818
vn 0.0189 0.9998 0.0069
vn 0.0426 0.9991 -0.0054
vn 0.5604 0.6372 -0.5291
vn 0.3577 0.6964 -0.6221
vn -0.0750 0.9873 -0.1399
vn -0.0387 0.9985 -0.0379
vn 0.6435 0.7272 -0.2387
vn 0.0745 0.9924 0.0976
vn -0.0036 0.9997 -0.0239
vn 0.6427 0.7625 -0.0746
vn 0.4420 0.1460 0.8851
vn 0.4817 0.1634 0.8610
vn 0.1489 0.0895 0.9848
vn -0.1563 0.0523 0.9863
vn 0.1559 0.1178 0.9807
vn -0.1623 0.0624 0.9848
vn 0.7630 0.2728 0.5860
vn 0.7115 0.4441 0.5446
vn 0.6389 0.2693 0.7206
vn 0.6842 0.3111 0.6596
vn 0.8552 0.2843 0.4333
vn 0.7969 0.4494 0.4037
vn 0.7509 0.0475 -0.6587
vn 0.7342 0.0541 -0.6768
vn 0.9175 0.1127 -0.3814
vn 0.9408 0.1353 -0.3107
vn 0.9833 0.1654 -0.0759
vn 0.9610 0.1464 -0.2345
vn 0.9402 0.0977 -0.3263
vn 0.9820 0.1464 -0.1196
vn 0.9559 0.2926 0.0267
vn 0.6143 0.7627 0.2025
vn 0.3881 -0.1972 0.9003
vn 0.4136 0.0885 0.9062
vn 0.1081 0.0065 0.9941
vn -0.1625 0.0127 0.9866
vn 0.1408 0.0636 0.9880
vn -0.1692 0.0324 0.9850
vn 0.7607 -0.2510 0.5986
vn 0.7845 0.1084 0.6106
vn 0.6151 -0.2114 0.7595
vn 0.6533 0.1035 0.7499
vn 0.8616 -0.2590 0.4365
vn 0.8866 0.1102 0.4492
vn 0.6975 0.0451 -0.7151
vn 0.7328 0.0143 -0.6803
vn 0.9040 0.0317 -0.4264
vn 0.9372 0.0710 -0.3415
vn 0.9413 0.1426 -0.3060
vn 0.9652 0.0807 -0.2486
vn 0.9843 0.0903 -0.1517
vn 0.9814 -0.1520 -0.1169
vn 0.9940 0.0957 -0.0520
vn -0.2018 -0.0274 0.9790
vn -0.1566 -0.0937 0.9832
vn 0.2120 -0.2875 0.9340
vn 0.0626 -0.2399 0.9688
vn 0.7537 -0.3896 0.5294
vn 0.6973 -0.4623 0.5478
vn 0.6484 -0.2178 0.7295
vn 0.4248 -0.2542 0.8689
vn 0.5441 -0.4390 0.7150
vn 0.2913 -0.4780 0.8286
vn 0.8101 -0.4186 0.4104
vn 0.7871 -0.4706 0.3988
vn 0.7545 0.0817 -0.6512
vn 0.7370 0.1265 -0.6639
vn 0.9154 0.2109 -0.3428
vn 0.9403 0.2020 -0.2739
vn 0.9833 -0.1308 -0.1267
vn 0.9626 0.1498 -0.2256
vn 0.9656 -0.0511 -0.2549
vn 0.9445 -0.3240 0.0541
vn 0.8641 -0.4961 -0.0851
vn 0.9607 -0.2762 0.0261
vn 0.8843 -0.4613 -0.0717
vn -0.0531 -0.0791 0.9954
vn 0.2056 -0.6651 0.7179
vn 0.5441 -0.1328 0.8284
vn -0.0329 -0.3101 0.9501
vn 0.3331 -0.8916 0.3068
vn 0.7429 -0.4946 0.4510
vn 0.2913 -0.8576 0.4240
vn 0.7121 -0.3421 0.6131
vn 0.4089 -0.8887 0.2072
vn 0.7749 -0.4954 0.3926
vn 0.5875 -0.2328 -0.7750
vn 0.6778 -0.0380 -0.7343
vn 0.8472 -0.0848 -0.5245
vn 0.9681 -0.1459 -0.2037
vn 0.8493 -0.3734 -0.3731
vn 0.9782 -0.1619 0.1297
vn 0.9900 -0.1371 0.0327
vn 0.6955 -0.6534 -0.2989
vn 0.9497 -0.2967 0.1000
vn -0.2480 -0.8303 0.4991
vn -0.2487 -0.8258 0.5061
vn -0.3891 -0.4399 0.8094
vn -0.0971 -0.1561 0.9829
vn -0.4366 -0.1728 0.8829
vn -0.0530 -0.9926 0.1091
vn -0.1544 -0.9846 0.0819
vn -0.1458 -0.9702 0.1933
vn -0.0891 -0.9950 -0.0452
vn -0.0865 -0.9950 -0.0503
vn 0.4259 -0.2187 -0.8780
vn 0.3840 -0.2482 -0.8893
vn 0.3480 -0.4642 -0.8145
vn 0.6825 -0.2993 -0.6667
vn 0.3757 -0.4802 -0.7926
vn 0.4250 -0.4992 -0.7551
vn 0.4564 -0.5039 -0.7333
vn 0.3724 -0.6946 -0.6155
vn 0.9223 -0.3689 -0.1148
vn 0.5922 -0.6546 -0.4700
vn 0.2202 -0.8937 -0.3909
vn 0.3126 -0.8440 -0.4359
vn 0.1481 -0.9526 -0.2658
vn 0.5747 -0.8161 -0.0607
vn 0.1510 -0.9506 -0.2713
vn -0.4131 -0.4530 0.7901
vn -0.2569 -0.8322 0.4913
vn -0.3866 -0.4555 0.8019
vn -0.0603 -0.9735 0.2207
vn -0.0936 -0.9952 0.0291
vn -0.0822 -0.9811 0.1753
vn -0.1390 -0.9845 -0.1073
vn 0.0078 -0.9908 -0.1354
vn -0.1577 -0.9408 -0.3001
vn -0.0157 -0.9998 -0.0158
vn 0.4670 -0.2069 -0.8597
vn 0.4429 -0.2295 -0.8667
vn 0.4114 -0.4443 -0.7958
vn 0.4046 -0.4872 -0.7739
vn 0.5385 -0.4597 -0.7062
vn 0.3352 -0.6903 -0.6412
vn 0.2049 -0.8969 -0.3919
vn 0.0231 -0.9257 -0.3776
vn -0.0517 -0.9738 -0.2215
vn -0.2668 -0.8148 0.5146
vn -0.4368 -0.4005 0.8055
vn -0.4304 -0.8617 0.2689
vn -0.5527 -0.0288 0.8329
vn -0.7071 0.1229 0.6964
vn -0.2755 -0.9591 0.0649
vn -0.1410 -0.9861 0.0884
vn 0.0954 -0.9573 0.2727
vn -0.3020 -0.9533 -0.0050
vn 0.0336 -0.9810 -0.1909
vn 0.1493 -0.9839 -0.0986
vn 0.2570 -0.9576 0.1301
vn -0.0501 -0.9762 -0.2108
vn 0.3275 -0.2609 -0.9081
vn 0.4922 -0.2234 -0.8413
vn 0.4881 -0.4004 -0.7755
vn 0.4796 -0.5657 -0.6708
vn -0.0276 -0.4909 -0.8708
vn 0.1023 -0.8352 -0.5404
vn -0.2039 -0.9294 -0.3076
vn -0.1818 -0.8492 -0.4958
vn 0.0108 -0.9775 -0.2109
vn -0.9056 0.2264 0.3587
vn -0.9137 0.0002 0.4063
vn -0.9842 -0.0583 0.1675
vn -0.9566 -0.2096 0.2026
vn -0.6906 -0.6687 0.2757
vn -0.9490 -0.3143 0.0236
vn -0.9754 -0.1237 -0.1827
vn -0.8757 -0.4498 -0.1757
vn -0.3590 -0.9333 -0.0095
vn -0.7509 -0.5509 -0.3643
vn -0.8321 -0.3773 -0.4066
vn -0.6503 -0.6294 -0.4253
vn -0.3059 -0.0879 -0.9480
vn -0.1163 -0.1918 -0.9745
vn -0.0201 -0.1929 -0.9810
vn 0.1985 -0.2109 -0.9571
vn -0.2433 -0.1041 -0.9644
vn -0.4882 -0.1053 -0.8664
vn -0.1968 -0.7638 -0.6147
vn -0.4392 -0.4196 -0.7944
vn -0.5443 -0.3673 -0.7542
vn -0.3818 -0.6455 -0.6615
vn -0.3987 -0.6450 -0.6519
vn -0.7430 -0.0016 0.6693
vn -0.8265 -0.2559 0.5014
vn -0.7952 -0.0146 0.6061
vn -0.9901 0.0730 0.1196
vn -0.9608 -0.0822 0.2647
vn -0.9955 0.0625 -0.0712
vn -0.9919 0.0682 -0.1074
vn -0.9871 0.1233 -0.1017
vn -0.9846 0.0209 -0.1737
vn -0.9163 -0.1989 -0.3475
vn -0.9281 -0.2085 -0.3085
vn 0.0450 0.0546 -0.9975
vn 0.1476 -0.0757 -0.9862
vn -0.2378 -0.1349 -0.9619
vn -0.3791 -0.0732 -0.9225
vn -0.3499 -0.0936 -0.9321
vn -0.5379 -0.0427 -0.8419
vn -0.6021 -0.0717 -0.7952
vn -0.7587 -0.2195 -0.6134
vn -0.5849 -0.4609 -0.6674
vn -0.7248 -0.1464 -0.6732
vn -0.9885 -0.0879 -0.1233
vn -0.6928 0.0088 -0.7211
vn -0.9891 0.1391 -0.0493
vn -0.9704 0.1138 0.2128
vn -0.9724 0.0850 0.2172
vn -0.9774 0.1036 -0.1844
vn -0.9667 0.1972 -0.1634
vn -0.9866 0.1034 -0.1266
vn -0.9925 0.0644 -0.1043
vn -0.9981 0.0492 -0.0383
vn -0.9526 0.3041 -0.0008
vn 0.1037 0.1607 -0.9815
vn 0.1037 0.1520 -0.9829
vn 0.0158 0.1902 -0.9816
vn -0.2520 -0.1945 -0.9480
vn -0.6219 0.0184 -0.7829
vn -0.6485 0.0914 -0.7557
vn -0.4386 -0.1854 -0.8794
vn -0.7717 0.1080 -0.6268
vn -0.7019 0.0279 -0.7117
vn -0.7076 0.1035 -0.6990
vn -0.6505 -0.1762 -0.7388
vn -0.8376 0.1399 -0.5280
vn -0.9988 0.0390 0.0298
vn -0.9694 0.1411 0.2009
vn -0.9640 0.1858 -0.1901
vn -0.7010 0.6717 -0.2397
vn -0.9279 0.1936 -0.3188
vn -0.8857 0.4021 -0.2321
vn 0.1541 0.0961 -0.9834
vn 0.3134 0.1274 -0.9410
vn 0.0889 0.2107 -0.9735
vn 0.1924 0.1929 -0.9622
vn -0.6716 0.1485 -0.7259
vn -0.7291 0.1625 -0.6649
vn -0.6600 0.0219 -0.7509
vn -0.7642 0.1955 -0.6147
vn -0.7035 0.1928 -0.6841
vn -0.7290 0.2353 -0.6428
vn 0.4550 -0.0000 -0.8905
vn 0.4104 0.6753 -0.6129
vn 0.4533 0.0040 -0.8913
vn 0.4793 0.0125 -0.8776
vn 0.1366 -0.1081 -0.9847
vn 0.4583 0.0068 -0.8888
vn 0.2360 -0.1565 -0.9591
vn 0.4505 0.0040 -0.8928
vn 0.4505 0.0120 -0.8927
vn 0.4488 0.0080 -0.8936
vn 0.3313 0.7145 -0.6163
vn 0.4706 0.0214 -0.8821
vn 0.3187 0.7137 -0.6238
vn -0.3668 -0.5476 0.7520
vn -0.6475 -0.2262 0.7277
vn -0.4070 -0.3914 0.8253
vn -0.3611 0.0624 0.9304
vn -0.4633 -0.0000 0.8862
vn -0.4899 -0.1405 0.8604
vn -0.4720 0.0471 0.8804
vn -0.5890 0.0827 0.8039
vn -0.8373 0.1273 0.5318
vn -0.8194 -0.1560 0.5515
vn -0.5277 -0.0357 0.8487
vn -0.6132 -0.7531 0.2385
vn -0.5149 0.0589 0.8552
vn 0.0716 -0.4006 0.9135
vn -0.4285 0.6872 0.5866
vn 0.4707 0.0134 -0.8822
vn 0.4566 0.0108 -0.8896
vn -0.4921 0.7700 -0.4060
vn -0.4426 0.7859 -0.4318
vn -0.7370 0.0842 -0.6706
vn -0.3246 0.9265 -0.1902
vn -0.1333 -0.0508 -0.9898
vn -0.7202 -0.0271 -0.6932
vn -0.0459 0.9921 0.1168
vn -0.9716 0.1450 -0.1872
vn -0.7133 0.6872 -0.1379
vn -0.9825 -0.0522 -0.1789
vn -0.6734 0.7380 -0.0440
vn -0.5758 -0.0028 -0.8176
vn 0.2162 0.9763 -0.0002
vn -0.2210 0.1481 -0.9639
vn -0.9531 0.0502 -0.2984
vn -0.9844 0.0279 -0.1740
vn -0.8651 0.0310 0.5007
vn -0.5065 -0.0728 -0.8591
vn -0.2438 -0.1080 -0.9638
vn -0.9996 0.0075 0.0277
vn -0.8840 0.0128 0.4673
vn 0.0598 -0.8679 -0.4932
vn -0.2502 -0.9467 -0.2027
vn -0.1922 -0.9524 -0.2365
vn -0.3645 -0.8754 0.3174
vn -0.7103 -0.3265 0.6236
vn -0.3303 -0.9237 -0.1941
vn 0.3371 -0.7381 -0.5844
vn 0.4598 -0.4389 -0.7720
vn -0.4544 -0.4299 0.7802
vn 0.9524 -0.2993 -0.0585
vn 0.8962 0.0578 -0.4399
vn 0.3821 -0.1065 0.9180
vn 0.9781 -0.1911 -0.0825
vn 0.9095 0.1494 -0.3878
vn 0.9669 0.2517 -0.0428
vn 0.9639 0.1127 -0.2414
vn 0.9128 0.0623 -0.4036
vn 0.6566 0.7414 0.1385
vn 0.5936 0.7723 -0.2263
vn 0.6304 0.7323 -0.2574
vn 0.1057 0.9863 0.1263
vn 0.0273 0.9983 -0.0521
vn 0.1172 0.9903 0.0744
vn -0.0943 0.9955 0.0043
vn -0.2833 0.9527 0.1101
vn -0.4303 0.8967 -0.1039
vn -0.0494 0.9621 0.2681
vt 0.308128 0.027478
vt 0.311372 0.067341
vt 0.261990 0.076489
vt 0.215852 0.125500
vt 0.211182 0.068101
vt 0.314615 0.107204
vt 0.317859 0.147067
vt 0.265234 0.116352
vt 0.321102 0.186930
vt 0.271721 0.196078
vt 0.268477 0.156215
vt 0.332309 0.324662
vt 0.277323 0.264944
vt 0.326706 0.255796
vt 0.282927 0.333810
vt 0.605791 0.881810
vt 0.612048 0.912907
vt 0.635540 0.873099
vt 0.665121 0.856266
vt 0.651393 0.903366
vt 0.688185 0.883198
vt 0.590230 0.834907
vt 0.597445 0.856301
vt 0.609410 0.824896
vt 0.629472 0.810364
vt 0.622013 0.846343
vt 0.645869 0.831547
vt 0.554962 0.769525
vt 0.575471 0.811231
vt 0.570261 0.759277
vt 0.584843 0.747544
vt 0.594202 0.797646
vt 0.611640 0.783810
vt 0.537500 0.734776
vt 0.545871 0.750629
vt 0.548648 0.724544
vt 0.560301 0.713164
vt 0.559307 0.740848
vt 0.572261 0.729787
vt 0.988793 0.106275
vt 0.936655 0.163156
vt 0.942947 0.105931
vt 0.982501 0.163502
vt 0.897100 0.105585
vt 0.844962 0.162467
vt 0.851254 0.105240
vt 0.890808 0.162811
vt 0.805408 0.104896
vt 0.753270 0.161778
vt 0.759562 0.104551
vt 0.799116 0.162122
vt 0.466854 0.618025
vt 0.468543 0.591151
vt 0.458924 0.605754
vt 0.479405 0.607975
vt 0.450872 0.592476
vt 0.460751 0.577348
vt 0.449920 0.564599
vt 0.451521 0.534413
vt 0.434875 0.541884
vt 0.401672 0.532726
vt 0.409497 0.493865
vt 0.423640 0.454983
vt 0.393979 0.466455
vt 0.414817 0.404637
vt 0.375768 0.430344
vt 0.304900 0.407096
vt 0.336926 0.450704
vt 0.525450 0.059119
vt 0.532275 0.070574
vt 0.522526 0.089258
vt 0.495533 0.112593
vt 0.492652 0.077180
vt 0.489771 0.041767
vt 0.444297 0.071601
vt 0.398824 0.101436
vt 0.395580 0.061573
vt 0.350232 0.024594
vt 0.353476 0.064457
vt 0.356719 0.104319
vt 0.031915 0.078514
vt 0.046426 0.124625
vt 0.026530 0.113783
vt 0.009946 0.143634
vt 0.029842 0.154476
vt 0.010926 0.157257
vt 0.132383 0.140352
vt 0.087748 0.112142
vt 0.128075 0.087404
vt 0.169809 0.079978
vt 0.174117 0.132925
vt 0.546672 0.139690
vt 0.550190 0.155535
vt 0.529254 0.154445
vt 0.501314 0.183630
vt 0.498423 0.148112
vt 0.450422 0.146877
vt 0.405311 0.181162
vt 0.402067 0.141298
vt 0.363206 0.184045
vt 0.359963 0.144183
vt 0.054028 0.218062
vt 0.032967 0.194471
vt 0.051883 0.191689
vt 0.033946 0.208064
vt 0.138163 0.211388
vt 0.096096 0.214726
vt 0.093949 0.188353
vt 0.049736 0.165316
vt 0.091060 0.152834
vt 0.222339 0.205226
vt 0.177361 0.172788
vt 0.219095 0.165362
vt 0.180251 0.208307
vt 0.560849 0.170185
vt 0.562716 0.193132
vt 0.531081 0.176907
vt 0.564583 0.216079
vt 0.543953 0.249249
vt 0.532948 0.199855
vt 0.453313 0.182395
vt 0.464318 0.231790
vt 0.523325 0.282417
vt 0.469920 0.300655
vt 0.416517 0.318894
vt 0.368810 0.252911
vt 0.410915 0.250028
vt 0.374413 0.321778
vt 0.055545 0.236706
vt 0.034476 0.215448
vt 0.014926 0.212834
vt 0.014394 0.205450
vt 0.132583 0.258458
vt 0.097612 0.233369
vt 0.057063 0.255350
vt 0.227943 0.274092
vt 0.174671 0.255376
vt 0.127003 0.305527
vt 0.748368 0.741150
vt 0.782469 0.743378
vt 0.768157 0.699310
vt 0.780212 0.652137
vt 0.803360 0.694104
vt 0.802791 0.644914
vt 0.701564 0.814866
vt 0.729757 0.829629
vt 0.728996 0.782270
vt 0.762487 0.788144
vt 0.685502 0.836311
vt 0.711898 0.857949
vt 0.330979 0.871842
vt 0.319652 0.881176
vt 0.352174 0.905797
vt 0.378187 0.938764
vt 0.395194 0.917956
vt 0.485083 0.987426
vt 0.498599 0.945145
vt 0.441832 0.943333
vt 0.410409 0.898515
vt 0.508705 0.908613
vt 0.555850 0.937552
vt 0.619314 0.955740
vt 0.697075 0.731933
vt 0.720545 0.736163
vt 0.720224 0.700245
vt 0.740604 0.659943
vt 0.748148 0.699649
vt 0.759721 0.656182
vt 0.659568 0.784351
vt 0.678563 0.798352
vt 0.679235 0.760346
vt 0.703597 0.770927
vt 0.645622 0.797228
vt 0.663550 0.815835
vt 0.353200 0.842963
vt 0.342253 0.856931
vt 0.379575 0.872463
vt 0.424137 0.876150
vt 0.436362 0.855815
vt 0.468937 0.884878
vt 0.513880 0.877622
vt 0.518647 0.851009
vt 0.559752 0.872639
vt 0.723037 0.658927
vt 0.706463 0.658116
vt 0.680542 0.681555
vt 0.704479 0.696747
vt 0.609192 0.727839
vt 0.640771 0.760946
vt 0.623478 0.713153
vt 0.655839 0.700033
vt 0.659205 0.743018
vt 0.676258 0.715348
vt 0.597382 0.738087
vt 0.626389 0.772945
vt 0.384982 0.826567
vt 0.369824 0.834623
vt 0.409811 0.842966
vt 0.451295 0.839185
vt 0.489997 0.839525
vt 0.479566 0.857250
vt 0.464327 0.823926
vt 0.490147 0.812687
vt 0.550970 0.820881
vt 0.512310 0.800469
vt 0.514661 0.824086
vt 0.690929 0.655384
vt 0.608451 0.686151
vt 0.620279 0.690743
vt 0.627666 0.673816
vt 0.582425 0.697708
vt 0.594730 0.712280
vt 0.596067 0.691990
vt 0.609808 0.704881
vt 0.571299 0.705376
vt 0.583702 0.721312
vt 0.399520 0.800391
vt 0.392298 0.813043
vt 0.431786 0.815082
vt 0.467000 0.806788
vt 0.469873 0.791397
vt 0.490896 0.796965
vt 0.515351 0.762900
vt 0.515997 0.748880
vt 0.533650 0.759743
vt 0.593927 0.650885
vt 0.602188 0.669490
vt 0.621626 0.651956
vt 0.676334 0.653215
vt 0.671442 0.634406
vt 0.885027 0.316795
vt 0.930873 0.317139
vt 0.931936 0.371879
vt 0.978844 0.426964
vt 0.937837 0.426655
vt 0.976209 0.220728
vt 0.930618 0.268761
vt 0.930362 0.220383
vt 0.976464 0.269105
vt 0.374694 0.783672
vt 0.387108 0.792544
vt 0.410357 0.772254
vt 0.437741 0.797401
vt 0.421100 0.779890
vt 0.441297 0.762019
vt 0.455112 0.777730
vt 0.471844 0.731478
vt 0.492442 0.777305
vt 0.482888 0.745516
vt 0.897925 0.008839
vt 0.938932 0.009147
vt 0.897512 0.057212
vt 0.979938 0.009455
vt 0.984365 0.057865
vt 0.938519 0.057521
vt 0.607820 0.625302
vt 0.582524 0.632951
vt 0.614957 0.638835
vt 0.850079 0.371263
vt 0.839181 0.316449
vt 0.890929 0.371570
vt 0.884517 0.220038
vt 0.838926 0.268072
vt 0.838670 0.219693
vt 0.884771 0.268416
vt 0.354347 0.760061
vt 0.364275 0.772238
vt 0.401587 0.762375
vt 0.426228 0.745218
vt 0.412997 0.726901
vt 0.460386 0.716957
vt 0.487959 0.716240
vt 0.474254 0.697988
vt 0.816225 0.008224
vt 0.857075 0.008532
vt 0.856663 0.056904
vt 0.570133 0.614657
vt 0.585641 0.591641
vt 0.557736 0.597324
vt 0.611221 0.562808
vt 0.627381 0.563764
vt 0.793335 0.316106
vt 0.763540 0.370612
vt 0.747489 0.315761
vt 0.804233 0.370920
vt 0.792825 0.219349
vt 0.747234 0.267382
vt 0.746978 0.219004
vt 0.793079 0.267727
vt 0.343895 0.728841
vt 0.348648 0.744547
vt 0.380708 0.728629
vt 0.414515 0.686403
vt 0.403899 0.658237
vt 0.433345 0.670090
vt 0.462179 0.679500
vt 0.449490 0.658554
vt 0.729821 0.007575
vt 0.773023 0.007900
vt 0.767615 0.056235
vt 0.599269 0.536544
vt 0.576582 0.557681
vt 0.551759 0.553219
vt 0.548568 0.569742
vt 0.547861 0.578874
vt 0.526124 0.568117
vt 0.503462 0.556859
vt 0.509430 0.573808
vt 0.515002 0.589118
vt 0.495143 0.577302
vt 0.471528 0.560103
vt 0.482094 0.581108
vt 0.342007 0.650362
vt 0.319291 0.679380
vt 0.338814 0.689574
vt 0.360384 0.690408
vt 0.389399 0.655223
vt 0.393486 0.625386
vt 0.420615 0.646863
vt 0.407255 0.631808
vt 0.415099 0.606044
vt 0.426030 0.621838
vt 0.442734 0.612685
vt 0.605144 0.514053
vt 0.621202 0.499892
vt 0.580403 0.500346
vt 0.569498 0.483327
vt 0.556677 0.534349
vt 0.531940 0.532917
vt 0.503682 0.488944
vt 0.503948 0.538049
vt 0.471529 0.560085
vt 0.484113 0.530537
vt 0.461685 0.549223
vt 0.488524 0.559320
vt 0.263638 0.719683
vt 0.282899 0.717415
vt 0.271563 0.679979
vt 0.318339 0.645998
vt 0.277068 0.642678
vt 0.321298 0.595641
vt 0.398720 0.595665
vt 0.435215 0.574012
vt 0.433512 0.598488
vt 0.414458 0.579458
vt 0.639775 0.463207
vt 0.653723 0.433772
vt 0.631453 0.437603
vt 0.589511 0.418616
vt 0.579858 0.453564
vt 0.539578 0.450487
vt 0.498171 0.420730
vt 0.501798 0.458239
vt 0.470813 0.499206
vt 0.464247 0.472312
vt 0.456711 0.436356
vt 0.236008 0.752236
vt 0.249837 0.735376
vt 0.226675 0.712866
vt 0.262452 0.662302
vt 0.355391 0.566177
vt 0.329009 0.549558
vt 0.289117 0.625944
vt 0.383476 0.510821
vt 0.378420 0.546983
vt 0.354904 0.526119
vt 0.658694 0.403025
vt 0.661237 0.371929
vt 0.635161 0.368284
vt 0.617977 0.332777
vt 0.603088 0.378271
vt 0.551245 0.370338
vt 0.499589 0.322256
vt 0.498735 0.375246
vt 0.458764 0.377251
vt 0.404212 0.333684
vt 0.218202 0.686745
vt 0.191999 0.701399
vt 0.200060 0.735071
vt 0.227742 0.779149
vt 0.300069 0.527676
vt 0.266326 0.501513
vt 0.258193 0.579325
vt 0.363522 0.484536
vt 0.331643 0.502606
vt 0.297382 0.471414
vt 0.363503 0.811322
vt 0.378770 0.805167
vt 0.254421 0.841899
vt 0.243763 0.796228
vt 0.236618 0.824489
vt 0.269679 0.732591
vt 0.301284 0.715421
vt 0.327903 0.739636
vt 0.323280 0.722695
vt 0.351641 0.799354
vt 0.307014 0.844049
vt 0.309479 0.795101
vt 0.307853 0.890868
vt 0.297942 0.883238
vt 0.288181 0.875252
vt 0.322390 0.858455
vt 0.271214 0.859353
vt 0.668422 0.498422
vt 0.650351 0.520019
vt 0.687452 0.503014
vt 0.814196 0.522184
vt 0.750699 0.485496
vt 0.825022 0.543356
vt 0.833141 0.565965
vt 0.807126 0.612117
vt 0.830872 0.602325
vt 0.701705 0.634721
vt 0.686273 0.635309
vt 0.664950 0.615458
vt 0.652990 0.597682
vt 0.784887 0.618312
vt 0.640457 0.581865
vt 0.626504 0.539928
vt 0.633892 0.514117
vt 0.735547 0.593074
vt 0.650921 0.486089
vt 0.727237 0.493123
vt 0.705580 0.504857
vt 0.826613 0.636658
vt 0.765119 0.469186
vt 0.310122 0.873814
vt 0.300434 0.758045
vt 0.219893 0.807002
vt 0.264626 0.437505
vt 0.230251 0.471568
vt 0.215743 0.536493
vt 0.189706 0.524667
vt 0.246451 0.676975
vt 0.238156 0.556865
vt 0.054694 0.061099
vt 0.066228 0.052279
vt 0.166745 0.705552
vt 0.190468 0.763169
vt 0.452049 0.324358
vt 0.543466 0.415931
vt 0.559843 0.323001
vt 0.638964 0.412680
vt 0.671425 0.343567
vt 0.651155 0.335808
vt 0.284548 0.597702
vt 0.041496 0.071189
vt 0.251329 0.705369
vt 0.433627 0.485972
vt 0.535296 0.483195
vt 0.597322 0.474795
vt 0.342652 0.607012
vt 0.292278 0.680455
vt 0.525789 0.552351
vt 0.587488 0.527188
vt 0.437692 0.636378
vt 0.453028 0.626672
vt 0.492007 0.598379
vt 0.503958 0.593604
vt 0.488536 0.559334
vt 0.529672 0.585535
vt 0.569831 0.574428
vt 0.713716 0.104207
vt 0.721768 0.055891
vt 0.810817 0.056561
vt 0.446702 0.696165
vt 0.385896 0.741801
vt 0.701642 0.315416
vt 0.701387 0.267037
vt 0.701132 0.218659
vt 0.815131 0.425733
vt 0.774439 0.425426
vt 0.733746 0.425121
vt 0.717694 0.370269
vt 0.594423 0.604949
vt 0.896830 0.426346
vt 0.855980 0.426039
vt 0.502059 0.734249
vt 0.976720 0.317485
vt 0.977781 0.372223
vt 0.527125 0.741778
vt 0.535162 0.795073
vt 0.426893 0.828187
vt 0.667205 0.678099
vt 0.558520 0.845558
vt 0.396158 0.852696
vt 0.562660 0.901804
vt 0.459912 0.908547
vt 0.370588 0.888088
vt 0.553990 0.981910
vt 0.428356 0.967520
vt 0.341449 0.916745
vt 0.717370 0.915341
vt 0.745633 0.883174
vt 0.766474 0.846990
vt 0.801944 0.798741
vt 0.822495 0.743976
vt 0.829216 0.689167
vt 0.233545 0.342958
vt 0.180275 0.324242
vt 0.092033 0.280438
vt 0.013863 0.198065
vt 0.035994 0.234091
vt 0.512319 0.233024
vt 0.135272 0.175870
vt 0.012885 0.184473
vt 0.011907 0.170880
vt 0.030822 0.168099
vt 0.447178 0.107014
vt 0.526363 0.118927
vt 0.123766 0.034456
vt 0.165139 0.022579
vt 0.206512 0.010704
vt 0.392338 0.021710
vt 0.441053 0.031738
vt 0.509148 0.054378
vt 0.545902 0.093084
vt 0.349762 0.364829
vt 0.461668 0.549232
vt 0.707423 0.161432
vt 0.671546 0.942086
vt 0.257321 0.019091
vt 0.540132 0.083644
s 1
usemtl Cave_Material.014
f 27/1/1 380/2/2 381/3/3
f 1/4/4 382/5/5 381/3/3
f 2/6/6 114/7/7 113/8/8
f 3/9/9 116/10/10 115/11/11
f 8/12/12 383/13/13 384/14/14
f 8/12/12 385/15/15 383/13/13
f 6/16/16 386/17/17 119/18/18
f 7/19/19 387/20/20 120/21/21
f 9/22/22 121/23/23 122/24/24
f 10/25/25 123/26/26 124/27/27
f 11/28/28 125/29/29 126/30/30
f 12/31/31 127/32/32 128/33/33
f 13/34/34 129/35/35 130/36/36
f 14/37/37 131/38/38 132/39/39
f 13/40/34 133/41/40 134/42/41
f 13/40/34 130/43/36 133/41/40
f 15/44/42 137/45/43 138/46/44
f 15/44/42 135/47/45 137/45/43
f 17/48/46 141/49/47 142/50/48
f 17/48/46 139/51/49 141/49/47
f 19/52/50 145/53/51 146/54/52
f 19/52/50 143/55/53 145/53/51
f 21/56/54 147/57/55 149/58/56
f 22/59/57 150/60/58 149/58/56
f 23/61/59 150/60/58 152/62/60
f 24/63/61 154/64/62 152/62/60
f 24/63/61 156/65/63 157/66/64
f 26/67/65 159/68/66 157/66/64
f 29/69/67 447/70/68 161/71/69
f 30/72/70 388/73/71 161/71/69
f 111/74/72 388/73/71 390/75/73
f 31/76/74 164/77/75 390/75/73
f 27/1/1 392/78/76 393/79/77
f 31/76/74 165/80/78 393/79/77
f 35/81/79 167/82/80 168/83/81
f 33/84/82 169/85/83 166/86/84
f 37/87/85 171/88/86 172/89/87
f 35/81/79 171/88/86 167/82/80
f 1/4/4 175/90/88 382/5/5
f 1/4/4 176/91/89 175/90/88
f 28/92/90 177/93/91 178/94/92
f 40/95/93 180/96/94 178/94/92
f 30/72/70 180/96/94 181/97/95
f 41/98/96 183/99/97 181/97/95
f 31/76/74 183/99/97 165/80/78
f 41/98/96 185/100/98 184/101/99
f 43/102/100 187/103/101 188/104/102
f 43/102/100 189/105/103 187/103/101
f 44/106/104 190/107/105 191/108/106
f 36/109/107 174/110/108 191/108/106
f 4/111/109 193/112/110 117/113/111
f 4/111/109 194/114/112 193/112/110
f 39/115/113 395/116/114 179/117/115
f 49/118/116 397/119/117 396/120/118
f 41/98/96 182/121/119 196/122/120
f 45/123/121 398/124/122 196/122/120
f 52/125/123 400/126/124 399/127/125
f 52/125/123 210/128/126 400/126/124
f 43/102/100 197/129/127 402/130/128
f 53/131/129 401/132/130 402/130/128
f 44/106/104 198/133/131 199/134/132
f 46/135/133 197/129/127 199/134/132
f 4/111/109 118/136/134 201/137/135
f 47/138/136 198/133/131 201/137/135
f 50/139/137 404/140/138 204/141/139
f 48/142/140 405/143/141 203/144/142
f 51/145/143 205/146/144 206/147/145
f 50/139/137 207/148/146 404/140/138
f 7/19/19 120/21/21 208/149/147
f 51/145/143 209/150/148 205/146/144
f 54/151/149 211/152/150 406/153/151
f 46/154/133 407/155/152 406/153/151
f 47/156/136 408/157/153 409/158/154
f 55/159/155 407/155/152 409/158/154
f 56/160/156 408/157/153 410/161/157
f 5/162/158 386/17/17 410/161/157
f 58/163/159 216/164/160 217/165/161
f 57/166/162 218/167/163 215/168/164
f 59/169/165 219/170/166 220/171/167
f 58/163/159 221/172/168 216/164/160
f 10/25/25 124/27/27 222/173/169
f 59/169/165 223/174/170 219/170/166
f 60/175/171 224/176/172 225/177/173
f 55/159/155 226/178/174 225/177/173
f 61/179/175 226/178/174 228/180/176
f 56/160/156 229/181/177 228/180/176
f 62/182/178 229/181/177 231/183/179
f 6/16/16 121/23/23 231/183/179
f 57/166/162 233/184/180 217/165/161
f 63/185/181 235/186/182 234/187/183
f 65/188/184 237/189/185 238/190/186
f 64/191/187 239/192/188 236/193/189
f 12/31/31 128/33/33 240/194/190
f 65/188/184 241/195/191 237/189/185
f 66/196/192 242/197/193 243/198/194
f 61/179/175 244/199/195 243/198/194
f 62/182/178 246/200/196 230/201/197
f 67/202/198 246/200/196 247/203/199
f 9/22/22 125/29/29 249/204/200
f 68/205/201 248/206/202 249/204/200
f 63/185/181 251/207/203 235/186/182
f 70/208/204 253/209/205 254/210/206
f 71/211/207 255/212/208 256/213/209
f 70/208/204 257/214/210 253/209/205
f 14/37/37 132/39/39 258/215/211
f 71/211/207 259/216/212 255/212/208
f 72/217/213 260/218/214 261/219/215
f 67/202/198 262/220/216 261/219/215
f 73/221/217 262/220/216 264/222/218
f 68/205/201 265/223/219 264/222/218
f 74/224/220 265/223/219 267/225/221
f 11/28/28 129/35/35 267/225/221
f 76/226/222 270/227/223 271/228/224
f 69/229/225 269/230/226 271/228/224
f 77/231/227 273/232/228 274/233/229
f 70/234/204 270/235/223 274/233/229
f 14/236/37 276/237/230 136/238/231
f 14/236/37 258/239/211 276/237/230
f 78/240/232 278/241/233 279/242/234
f 72/217/213 263/243/235 280/244/236
f 79/245/237 281/246/238 282/247/239
f 73/221/217 266/248/240 283/249/241
f 80/250/242 284/251/243 285/252/244
f 74/253/220 268/254/245 286/255/246
f 76/226/222 288/256/247 289/257/248
f 76/226/222 272/258/249 288/256/247
f 77/231/227 291/259/250 292/260/251
f 77/231/227 275/261/252 291/259/250
f 16/262/253 294/263/254 140/264/255
f 16/262/253 277/265/256 294/263/254
f 84/266/257 296/267/258 297/268/259
f 79/245/237 298/269/260 297/268/259
f 85/270/261 298/269/260 300/271/262
f 80/272/242 301/273/263 300/271/262
f 86/274/264 301/275/263 303/276/265
f 15/44/42 138/46/44 303/276/265
f 82/277/266 306/278/267 307/279/268
f 87/280/269 306/278/267 305/281/270
f 83/282/271 309/283/272 310/284/273
f 83/282/271 293/285/274 309/283/272
f 18/286/275 312/287/276 144/288/277
f 18/286/275 295/289/278 312/287/276
f 90/290/279 314/291/280 315/292/281
f 85/270/261 316/293/282 315/292/281
f 91/294/283 316/293/282 318/295/284
f 86/296/264 319/297/285 318/295/284
f 92/298/286 319/299/285 321/300/287
f 17/48/46 142/50/48 321/300/287
f 87/280/269 323/301/288 324/302/289
f 94/303/290 326/304/291 324/302/289
f 88/305/292 326/304/291 327/306/293
f 95/307/294 329/308/295 327/306/293
f 89/309/296 329/308/295 330/310/297
f 112/311/298 148/312/299 330/310/297
f 97/313/300 333/314/301 334/315/302
f 90/290/279 317/316/303 334/315/302
f 97/313/300 335/317/304 336/318/305
f 91/294/283 320/319/306 337/320/307
f 98/321/308 338/322/309 339/323/310
f 19/52/50 146/54/52 339/323/310
f 93/324/311 341/325/312 342/326/313
f 100/327/314 344/328/315 342/326/313
f 94/303/290 344/328/315 345/329/316
f 101/330/317 347/331/318 345/329/316
f 112/332/298 420/333/319 419/334/320
f 95/307/294 347/331/318 331/335/321
f 102/336/322 349/337/323 350/338/324
f 97/313/300 352/339/325 333/314/301
f 103/340/326 352/339/325 353/341/327
f 98/321/308 355/342/328 336/318/305
f 21/56/54 151/343/329 340/344/330
f 98/321/308 356/345/331 355/342/328
f 99/346/332 358/347/333 359/348/334
f 106/349/335 361/350/336 359/348/334
f 100/327/314 361/350/336 362/351/337
f 107/352/338 364/353/339 362/351/337
f 22/59/57 348/354/340 365/355/341
f 107/352/338 366/356/342 365/355/341
f 108/357/343 367/358/344 368/359/345
f 103/340/326 452/360/346 350/338/324
f 104/361/347 371/362/348 353/341/327
f 353/341/327 448/363/349 103/340/326
f 23/61/59 155/364/350 357/365/351
f 104/361/347 374/366/352 371/362/348
f 105/367/353 411/368/354 376/369/355
f 111/370/72 377/371/356 376/369/355
f 106/349/335 377/371/356 412/372/357
f 32/373/358 413/374/359 412/372/357
f 107/352/338 413/374/359 378/375/360
f 27/376/1 156/65/63 378/375/360
f 109/377/361 415/378/362 368/359/345
f 108/357/343 416/379/363 414/380/364
f 110/381/365 417/382/366 373/383/367
f 25/384/368 159/68/66 375/385/369
f 110/381/365 379/386/370 417/382/366
f 78/240/232 427/387/371 424/388/371
f 34/389/372 421/390/373 166/391/84
f 108/357/343 422/392/374 367/358/344
f 96/393/375 423/394/376 332/395/377
f 78/240/232 424/388/371 278/241/233
f 96/393/375 422/392/374 423/394/376
f 84/266/257 426/396/378 296/267/258
f 34/389/372 428/397/379 429/398/380
f 34/389/372 429/398/380 421/390/373
f 53/399/129 211/152/150 401/400/130
f 42/401/381 431/402/382 186/403/383
f 60/175/171 431/402/382 224/176/172
f 443/404/384 439/405/385 435/406/386
f 28/407/90 432/408/387 177/409/91
f 39/410/113 434/411/388 395/412/114
f 48/142/140 434/411/388 215/168/164
f 57/166/162 437/413/388 233/184/180
f 63/185/181 438/414/388 251/207/203
f 75/415/389 439/405/385 287/416/390
f 57/166/162 436/417/388 437/413/388
f 81/418/391 442/419/392 305/281/270
f 93/324/311 442/419/392 341/325/312
f 442/419/392 81/418/391 440/420/393
f 442/419/392 440/420/393 341/325/312
f 341/325/312 440/420/393 99/346/332
f 442/419/392 93/324/311 323/301/288
f 442/419/392 323/301/288 305/281/270
f 305/281/270 323/301/288 87/280/269
f 436/417/388 39/410/113 441/421/394
f 436/417/388 441/421/394 437/413/388
f 437/413/388 441/421/394 75/415/389
f 439/405/385 99/346/332 440/420/393
f 439/405/385 440/420/393 287/416/390
f 287/416/390 440/420/393 81/418/391
f 438/414/388 75/415/389 269/230/226
f 438/414/388 269/230/226 251/207/203
f 251/207/203 269/230/226 69/229/225
f 437/413/388 75/415/389 438/414/388
f 437/413/388 438/414/388 233/184/180
f 233/184/180 438/414/388 63/185/181
f 434/411/388 39/410/113 436/417/388
f 434/411/388 436/417/388 215/168/164
f 215/168/164 436/417/388 57/166/162
f 99/346/332 439/405/385 444/422/395
f 444/422/395 439/405/385 443/404/384
f 433/423/396 445/424/397 39/410/113
f 434/411/388 48/142/140 203/144/142
f 434/411/388 203/144/142 395/412/114
f 395/412/114 203/144/142 49/425/116
f 432/408/387 433/423/396 177/409/91
f 177/409/91 433/423/396 39/410/113
f 432/408/387 28/407/90 160/426/398
f 39/410/113 445/424/397 435/406/386
f 439/405/385 75/415/389 441/421/394
f 439/405/385 441/421/394 435/406/386
f 435/406/386 441/421/394 39/410/113
f 431/402/382 42/401/381 430/427/399
f 431/402/382 430/427/399 224/176/172
f 224/176/172 430/427/399 54/151/149
f 431/402/382 60/175/171 428/397/379
f 431/402/382 428/397/379 186/403/383
f 186/403/383 428/397/379 34/389/372
f 211/152/150 54/151/149 430/427/399
f 211/152/150 430/427/399 401/400/130
f 401/400/130 430/427/399 42/401/381
f 429/398/380 84/266/257 425/428/400
f 429/398/380 425/428/400 421/390/373
f 421/390/373 425/428/400 108/357/343
f 428/397/379 60/175/171 426/396/378
f 428/397/379 426/396/378 429/398/380
f 429/398/380 426/396/378 84/266/257
f 426/396/378 60/175/171 427/387/371
f 426/396/378 427/387/371 296/267/258
f 296/267/258 427/387/371 78/240/232
f 422/392/374 108/357/343 425/428/400
f 422/392/374 425/428/400 423/394/376
f 423/394/376 425/428/400 84/266/257
f 424/388/371 66/196/192 260/218/214
f 424/388/371 260/218/214 278/241/233
f 278/241/233 260/218/214 72/217/213
f 423/394/376 84/266/257 314/291/280
f 423/394/376 314/291/280 332/395/377
f 332/395/377 314/291/280 90/290/279
f 422/392/374 96/393/375 349/337/323
f 422/392/374 349/337/323 367/358/344
f 367/358/344 349/337/323 102/336/322
f 421/390/373 108/357/343 414/380/364
f 421/390/373 414/380/364 166/391/84
f 166/391/84 414/380/364 33/429/82
f 427/387/371 60/175/171 242/197/193
f 427/387/371 242/197/193 424/388/371
f 424/388/371 242/197/193 66/196/192
f 379/386/370 26/67/65 394/430/401
f 379/386/370 394/430/401 417/382/366
f 417/382/366 394/430/401 38/431/402
f 159/68/66 26/67/65 379/386/370
f 159/68/66 379/386/370 375/385/369
f 375/385/369 379/386/370 110/381/365
f 418/432/403 38/431/402 173/433/404
f 350/338/324 452/360/346 370/434/405
f 417/382/366 38/431/402 418/432/403
f 418/432/403 449/435/406 417/382/366
f 171/88/86 451/436/407 173/437/404
f 416/379/363 35/438/79 168/439/81
f 416/379/363 168/439/81 414/380/364
f 414/380/364 168/439/81 33/429/82
f 415/378/362 35/438/79 416/379/363
f 415/378/362 416/379/363 368/359/345
f 368/359/345 416/379/363 108/357/343
f 156/65/63 24/63/61 366/356/342
f 156/65/63 366/356/342 378/375/360
f 378/375/360 366/356/342 107/352/338
f 413/374/359 32/373/358 392/440/76
f 413/374/359 392/440/76 378/375/360
f 378/375/360 392/440/76 27/376/1
f 413/374/359 107/352/338 363/441/408
f 413/374/359 363/441/408 412/372/357
f 412/372/357 363/441/408 106/349/335
f 377/371/356 111/370/72 391/442/409
f 377/371/356 391/442/409 412/372/357
f 412/372/357 391/442/409 32/373/358
f 377/371/356 106/349/335 360/443/410
f 377/371/356 360/443/410 376/369/355
f 376/369/355 360/443/410 105/367/353
f 411/368/354 29/444/67 389/445/411
f 411/368/354 389/445/411 376/369/355
f 376/369/355 389/445/411 111/370/72
f 374/366/352 25/384/368 375/385/369
f 374/366/352 375/385/369 371/362/348
f 371/362/348 375/385/369 110/381/365
f 155/364/350 25/384/368 374/366/352
f 155/364/350 374/366/352 357/365/351
f 357/365/351 374/366/352 104/361/347
f 372/446/412 110/381/365 373/383/367
f 417/382/366 449/435/406 373/383/367
f 450/447/413 451/436/407 171/88/86
f 371/362/348 110/381/365 372/446/412
f 371/362/348 372/446/412 353/341/327
f 372/446/412 448/363/349 353/341/327
f 370/434/405 109/377/361 369/448/414
f 370/434/405 369/448/414 350/338/324
f 350/338/324 369/448/414 102/336/322
f 367/358/344 102/336/322 369/448/414
f 367/358/344 369/448/414 368/359/345
f 368/359/345 369/448/414 109/377/361
f 366/356/342 24/63/61 153/449/415
f 366/356/342 153/449/415 365/355/341
f 365/355/341 153/449/415 22/59/57
f 348/354/340 101/330/317 364/353/339
f 348/354/340 364/353/339 365/355/341
f 365/355/341 364/353/339 107/352/338
f 364/353/339 101/330/317 346/450/416
f 364/353/339 346/450/416 362/351/337
f 362/351/337 346/450/416 100/327/314
f 361/350/336 106/349/335 363/441/408
f 361/350/336 363/441/408 362/351/337
f 362/351/337 363/441/408 107/352/338
f 361/350/336 100/327/314 343/451/417
f 361/350/336 343/451/417 359/348/334
f 359/348/334 343/451/417 99/346/332
f 358/347/333 105/367/353 360/443/410
f 358/347/333 360/443/410 359/348/334
f 359/348/334 360/443/410 106/349/335
f 356/345/331 23/61/59 357/365/351
f 356/345/331 357/365/351 355/342/328
f 355/342/328 357/365/351 104/361/347
f 151/343/329 23/61/59 356/345/331
f 151/343/329 356/345/331 340/344/330
f 340/344/330 356/345/331 98/321/308
f 355/342/328 104/361/347 354/452/418
f 355/342/328 354/452/418 336/318/305
f 336/318/305 354/452/418 97/313/300
f 352/339/325 97/313/300 354/452/418
f 352/339/325 354/452/418 353/341/327
f 353/341/327 354/452/418 104/361/347
f 352/339/325 103/340/326 351/453/419
f 352/339/325 351/453/419 333/314/301
f 333/314/301 351/453/419 96/393/375
f 349/337/323 96/393/375 351/453/419
f 349/337/323 351/453/419 350/338/324
f 350/338/324 351/453/419 103/340/326
f 347/331/318 101/330/317 420/333/319
f 347/331/318 420/333/319 331/335/321
f 331/335/321 420/333/319 112/332/298
f 420/333/319 101/330/317 348/354/340
f 420/333/319 348/354/340 419/334/320
f 419/334/320 348/354/340 22/59/57
f 347/331/318 95/307/294 328/454/420
f 347/331/318 328/454/420 345/329/316
f 345/329/316 328/454/420 94/303/290
f 344/328/315 100/327/314 346/450/416
f 344/328/315 346/450/416 345/329/316
f 345/329/316 346/450/416 101/330/317
f 344/328/315 94/303/290 325/455/421
f 344/328/315 325/455/421 342/326/313
f 342/326/313 325/455/421 93/324/311
f 341/325/312 99/346/332 343/451/417
f 341/325/312 343/451/417 342/326/313
f 342/326/313 343/451/417 100/327/314
f 146/54/52 21/56/54 340/344/330
f 146/54/52 340/344/330 339/323/310
f 339/323/310 340/344/330 98/321/308
f 338/322/309 92/456/286 322/457/422
f 338/322/309 322/457/422 339/323/310
f 339/323/310 322/457/422 19/52/50
f 320/319/306 92/456/286 338/322/309
f 320/319/306 338/322/309 337/320/307
f 337/320/307 338/322/309 98/321/308
f 335/317/304 91/294/283 337/320/307
f 335/317/304 337/320/307 336/318/305
f 336/318/305 337/320/307 98/321/308
f 317/316/303 91/294/283 335/317/304
f 317/316/303 335/317/304 334/315/302
f 334/315/302 335/317/304 97/313/300
f 333/314/301 96/393/375 332/395/377
f 333/314/301 332/395/377 334/315/302
f 334/315/302 332/395/377 90/290/279
f 148/312/299 20/458/423 313/459/424
f 148/312/299 313/459/424 330/310/297
f 330/310/297 313/459/424 89/309/296
f 329/308/295 95/307/294 331/460/321
f 329/308/295 331/460/321 330/310/297
f 330/310/297 331/460/321 112/311/298
f 329/308/295 89/309/296 311/461/425
f 329/308/295 311/461/425 327/306/293
f 327/306/293 311/461/425 88/305/292
f 326/304/291 94/303/290 328/454/420
f 326/304/291 328/454/420 327/306/293
f 327/306/293 328/454/420 95/307/294
f 326/304/291 88/305/292 308/462/426
f 326/304/291 308/462/426 324/302/289
f 324/302/289 308/462/426 87/280/269
f 323/301/288 93/324/311 325/455/421
f 323/301/288 325/455/421 324/302/289
f 324/302/289 325/455/421 94/303/290
f 142/50/48 19/463/50 322/464/422
f 142/50/48 322/464/422 321/300/287
f 321/300/287 322/464/422 92/298/286
f 319/299/285 86/274/264 304/465/427
f 319/299/285 304/465/427 321/300/287
f 321/300/287 304/465/427 17/48/46
f 319/297/285 92/456/286 320/319/306
f 319/297/285 320/319/306 318/295/284
f 318/295/284 320/319/306 91/294/283
f 316/293/282 85/270/261 302/466/428
f 316/293/282 302/466/428 318/295/284
f 318/295/284 302/466/428 86/296/264
f 316/293/282 91/294/283 317/316/303
f 316/293/282 317/316/303 315/292/281
f 315/292/281 317/316/303 90/290/279
f 314/291/280 84/266/257 299/467/429
f 314/291/280 299/467/429 315/292/281
f 315/292/281 299/467/429 85/270/261
f 295/289/278 83/282/271 310/284/273
f 295/289/278 310/284/273 312/287/276
f 312/287/276 310/284/273 89/468/296
f 312/287/276 89/468/296 313/469/424
f 312/287/276 313/469/424 144/288/277
f 144/288/277 313/469/424 20/470/423
f 293/285/274 82/471/266 307/472/268
f 293/285/274 307/472/268 309/283/272
f 309/283/272 307/472/268 88/473/292
f 309/283/272 88/473/292 311/474/425
f 309/283/272 311/474/425 310/284/273
f 310/284/273 311/474/425 89/468/296
f 306/278/267 82/277/266 290/475/430
f 306/278/267 290/475/430 305/281/270
f 305/281/270 290/475/430 81/418/391
f 306/278/267 87/280/269 308/462/426
f 306/278/267 308/462/426 307/279/268
f 307/279/268 308/462/426 88/305/292
f 138/46/44 17/48/46 304/465/427
f 138/46/44 304/465/427 303/276/265
f 303/276/265 304/465/427 86/274/264
f 301/275/263 80/250/242 285/252/244
f 301/275/263 285/252/244 303/276/265
f 303/276/265 285/252/244 15/44/42
f 301/273/263 86/296/264 302/466/428
f 301/273/263 302/466/428 300/271/262
f 300/271/262 302/466/428 85/270/261
f 298/269/260 79/245/237 282/247/239
f 298/269/260 282/247/239 300/271/262
f 300/271/262 282/247/239 80/272/242
f 298/269/260 85/270/261 299/467/429
f 298/269/260 299/467/429 297/268/259
f 297/268/259 299/467/429 84/266/257
f 296/267/258 78/240/232 279/242/234
f 296/267/258 279/242/234 297/268/259
f 297/268/259 279/242/234 79/245/237
f 277/265/256 77/231/227 292/260/251
f 277/265/256 292/260/251 294/263/254
f 294/263/254 292/260/251 83/282/271
f 294/263/254 83/282/271 295/289/278
f 294/263/254 295/289/278 140/264/255
f 140/264/255 295/289/278 18/286/275
f 275/261/252 76/476/222 289/477/248
f 275/261/252 289/477/248 291/259/250
f 291/259/250 289/477/248 82/471/266
f 291/259/250 82/471/266 293/285/274
f 291/259/250 293/285/274 292/260/251
f 292/260/251 293/285/274 83/282/271
f 272/258/249 75/415/389 287/416/390
f 272/258/249 287/416/390 288/256/247
f 288/256/247 287/416/390 81/418/391
f 288/256/247 81/418/391 290/475/430
f 288/256/247 290/475/430 289/257/248
f 289/257/248 290/475/430 82/277/266
f 268/254/245 13/40/34 134/42/41
f 268/254/245 134/42/41 286/255/246
f 286/255/246 134/42/41 15/44/42
f 284/251/243 74/253/220 286/255/246
f 284/251/243 286/255/246 285/252/244
f 285/252/244 286/255/246 15/44/42
f 266/248/240 74/224/220 284/478/243
f 266/248/240 284/478/243 283/249/241
f 283/249/241 284/478/243 80/272/242
f 281/246/238 73/221/217 283/249/241
f 281/246/238 283/249/241 282/247/239
f 282/247/239 283/249/241 80/272/242
f 263/243/235 73/221/217 281/246/238
f 263/243/235 281/246/238 280/244/236
f 280/244/236 281/246/238 79/245/237
f 278/241/233 72/217/213 280/244/236
f 278/241/233 280/244/236 279/242/234
f 279/242/234 280/244/236 79/245/237
f 258/239/211 71/479/207 273/232/228
f 258/239/211 273/232/228 276/237/230
f 276/237/230 273/232/228 77/231/227
f 276/237/230 77/231/227 277/265/256
f 276/237/230 277/265/256 136/238/231
f 136/238/231 277/265/256 16/262/253
f 270/235/223 76/476/222 275/261/252
f 270/235/223 275/261/252 274/233/229
f 274/233/229 275/261/252 77/231/227
f 273/232/228 71/479/207 256/480/209
f 273/232/228 256/480/209 274/233/229
f 274/233/229 256/480/209 70/234/204
f 269/230/226 75/415/389 272/258/249
f 269/230/226 272/258/249 271/228/224
f 271/228/224 272/258/249 76/226/222
f 270/227/223 70/208/204 254/210/206
f 270/227/223 254/210/206 271/228/224
f 271/228/224 254/210/206 69/229/225
f 129/35/35 13/34/34 268/481/245
f 129/35/35 268/481/245 267/225/221
f 267/225/221 268/481/245 74/224/220
f 265/223/219 68/205/201 250/482/431
f 265/223/219 250/482/431 267/225/221
f 267/225/221 250/482/431 11/28/28
f 265/223/219 74/224/220 266/248/240
f 265/223/219 266/248/240 264/222/218
f 264/222/218 266/248/240 73/221/217
f 262/220/216 67/202/198 247/203/199
f 262/220/216 247/203/199 264/222/218
f 264/222/218 247/203/199 68/205/201
f 262/220/216 73/221/217 263/243/235
f 262/220/216 263/243/235 261/219/215
f 261/219/215 263/243/235 72/217/213
f 260/218/214 66/196/192 245/483/432
f 260/218/214 245/483/432 261/219/215
f 261/219/215 245/483/432 67/202/198
f 259/216/212 12/31/31 240/194/190
f 259/216/212 240/194/190 255/212/208
f 255/212/208 240/194/190 65/188/184
f 132/39/39 12/31/31 259/216/212
f 132/39/39 259/216/212 258/215/211
f 258/215/211 259/216/212 71/211/207
f 257/214/210 65/188/184 238/190/186
f 257/214/210 238/190/186 253/209/205
f 253/209/205 238/190/186 64/191/187
f 255/212/208 65/188/184 257/214/210
f 255/212/208 257/214/210 256/213/209
f 256/213/209 257/214/210 70/208/204
f 253/209/205 64/191/187 252/484/433
f 253/209/205 252/484/433 254/210/206
f 254/210/206 252/484/433 69/229/225
f 251/207/203 69/229/225 252/484/433
f 251/207/203 252/484/433 235/186/182
f 235/186/182 252/484/433 64/191/187
f 248/206/202 62/182/178 232/485/434
f 248/206/202 232/485/434 249/204/200
f 249/204/200 232/485/434 9/22/22
f 125/29/29 11/28/28 250/482/431
f 125/29/29 250/482/431 249/204/200
f 249/204/200 250/482/431 68/205/201
f 246/200/196 62/182/178 248/206/202
f 246/200/196 248/206/202 247/203/199
f 247/203/199 248/206/202 68/205/201
f 246/200/196 67/202/198 244/199/195
f 246/200/196 244/199/195 230/201/197
f 230/201/197 244/199/195 61/179/175
f 244/199/195 67/202/198 245/483/432
f 244/199/195 245/483/432 243/198/194
f 243/198/194 245/483/432 66/196/192
f 242/197/193 60/175/171 227/486/435
f 242/197/193 227/486/435 243/198/194
f 243/198/194 227/486/435 61/179/175
f 241/195/191 10/25/25 222/173/169
f 241/195/191 222/173/169 237/189/185
f 237/189/185 222/173/169 59/169/165
f 128/33/33 10/25/25 241/195/191
f 128/33/33 241/195/191 240/194/190
f 240/194/190 241/195/191 65/188/184
f 239/192/188 59/169/165 220/171/167
f 239/192/188 220/171/167 236/193/189
f 236/193/189 220/171/167 58/163/159
f 237/189/185 59/169/165 239/192/188
f 237/189/185 239/192/188 238/190/186
f 238/190/186 239/192/188 64/191/187
f 235/186/182 64/191/187 236/193/189
f 235/186/182 236/193/189 234/187/183
f 234/187/183 236/193/189 58/163/159
f 233/184/180 63/185/181 234/187/183
f 233/184/180 234/187/183 217/165/161
f 217/165/161 234/187/183 58/163/159
f 121/23/23 9/22/22 232/485/434
f 121/23/23 232/485/434 231/183/179
f 231/183/179 232/485/434 62/182/178
f 229/181/177 56/160/156 214/487/436
f 229/181/177 214/487/436 231/183/179
f 231/183/179 214/487/436 6/16/16
f 229/181/177 62/182/178 230/201/197
f 229/181/177 230/201/197 228/180/176
f 228/180/176 230/201/197 61/179/175
f 226/178/174 55/159/155 213/488/437
f 226/178/174 213/488/437 228/180/176
f 228/180/176 213/488/437 56/160/156
f 226/178/174 61/179/175 227/486/435
f 226/178/174 227/486/435 225/177/173
f 225/177/173 227/486/435 60/175/171
f 224/176/172 54/151/149 212/489/438
f 224/176/172 212/489/438 225/177/173
f 225/177/173 212/489/438 55/159/155
f 223/174/170 7/19/19 208/149/147
f 223/174/170 208/149/147 219/170/166
f 219/170/166 208/149/147 51/145/143
f 124/27/27 7/19/19 223/174/170
f 124/27/27 223/174/170 222/173/169
f 222/173/169 223/174/170 59/169/165
f 221/172/168 51/145/143 206/147/145
f 221/172/168 206/147/145 216/164/160
f 216/164/160 206/147/145 50/139/137
f 219/170/166 51/145/143 221/172/168
f 219/170/166 221/172/168 220/171/167
f 220/171/167 221/172/168 58/163/159
f 218/167/163 50/139/137 204/141/139
f 218/167/163 204/141/139 215/168/164
f 215/168/164 204/141/139 48/142/140
f 216/164/160 50/139/137 218/167/163
f 216/164/160 218/167/163 217/165/161
f 217/165/161 218/167/163 57/166/162
f 386/17/17 6/16/16 214/487/436
f 386/17/17 214/487/436 410/161/157
f 410/161/157 214/487/436 56/160/156
f 408/157/153 47/156/136 202/490/439
f 408/157/153 202/490/439 410/161/157
f 410/161/157 202/490/439 5/162/158
f 407/155/152 46/154/133 200/491/440
f 407/155/152 200/491/440 409/158/154
f 409/158/154 200/491/440 47/156/136
f 408/157/153 56/160/156 213/488/437
f 408/157/153 213/488/437 409/158/154
f 409/158/154 213/488/437 55/159/155
f 407/155/152 55/159/155 212/489/438
f 407/155/152 212/489/438 406/153/151
f 406/153/151 212/489/438 54/151/149
f 211/152/150 53/399/129 403/492/441
f 211/152/150 403/492/441 406/153/151
f 406/153/151 403/492/441 46/154/133
f 209/150/148 8/493/12 210/494/126
f 209/150/148 210/494/126 205/146/144
f 205/146/144 210/494/126 52/495/123
f 120/21/21 8/493/12 209/150/148
f 120/21/21 209/150/148 208/149/147
f 208/149/147 209/150/148 51/145/143
f 207/148/146 52/495/123 398/496/122
f 207/148/146 398/496/122 404/140/138
f 404/140/138 398/496/122 45/497/121
f 205/146/144 52/495/123 207/148/146
f 205/146/144 207/148/146 206/147/145
f 206/147/145 207/148/146 50/139/137
f 405/143/141 45/497/121 397/498/117
f 405/143/141 397/498/117 203/144/142
f 203/144/142 397/498/117 49/425/116
f 404/140/138 45/497/121 405/143/141
f 404/140/138 405/143/141 204/141/139
f 204/141/139 405/143/141 48/142/140
f 198/133/131 44/106/104 194/114/112
f 198/133/131 194/114/112 201/137/135
f 201/137/135 194/114/112 4/111/109
f 118/136/134 5/499/158 202/500/439
f 118/136/134 202/500/439 201/137/135
f 201/137/135 202/500/439 47/138/136
f 197/129/127 43/102/100 190/107/105
f 197/129/127 190/107/105 199/134/132
f 199/134/132 190/107/105 44/106/104
f 198/133/131 47/138/136 200/501/440
f 198/133/131 200/501/440 199/134/132
f 199/134/132 200/501/440 46/135/133
f 401/132/130 42/502/381 189/105/103
f 401/132/130 189/105/103 402/130/128
f 402/130/128 189/105/103 43/102/100
f 197/129/127 46/135/133 403/503/441
f 197/129/127 403/503/441 402/130/128
f 402/130/128 403/503/441 53/131/129
f 210/128/126 8/12/12 384/14/14
f 210/128/126 384/14/14 400/126/124
f 400/126/124 384/14/14 3/9/9
f 400/126/124 3/9/9 185/100/98
f 400/126/124 185/100/98 399/127/125
f 399/127/125 185/100/98 41/98/96
f 398/124/122 52/125/123 399/127/125
f 398/124/122 399/127/125 196/122/120
f 196/122/120 399/127/125 41/98/96
f 182/121/119 40/95/93 195/504/442
f 182/121/119 195/504/442 196/122/120
f 196/122/120 195/504/442 45/123/121
f 397/119/117 45/123/121 195/504/442
f 397/119/117 195/504/442 396/120/118
f 396/120/118 195/504/442 40/95/93
f 395/116/114 49/118/116 396/120/118
f 395/116/114 396/120/118 179/117/115
f 179/117/115 396/120/118 40/95/93
f 194/114/112 44/106/104 192/505/443
f 194/114/112 192/505/443 193/112/110
f 193/112/110 192/505/443 37/87/85
f 193/112/110 37/87/85 176/91/89
f 193/112/110 176/91/89 117/113/111
f 117/113/111 176/91/89 1/4/4
f 174/110/108 37/87/85 192/505/443
f 174/110/108 192/505/443 191/108/106
f 191/108/106 192/505/443 44/106/104
f 190/107/105 43/102/100 188/104/102
f 190/107/105 188/104/102 191/108/106
f 191/108/106 188/104/102 36/109/107
f 189/105/103 42/502/381 186/506/383
f 189/105/103 186/506/383 187/103/101
f 187/103/101 186/506/383 34/507/372
f 187/103/101 34/507/372 170/508/444
f 187/103/101 170/508/444 188/104/102
f 188/104/102 170/508/444 36/109/107
f 185/100/98 3/9/9 114/7/7
f 185/100/98 114/7/7 184/101/99
f 184/101/99 114/7/7 2/6/6
f 183/99/97 41/98/96 184/101/99
f 183/99/97 184/101/99 165/80/78
f 165/80/78 184/101/99 2/6/6
f 183/99/97 31/76/74 163/509/445
f 183/99/97 163/509/445 181/97/95
f 181/97/95 163/509/445 30/72/70
f 180/96/94 40/95/93 182/121/119
f 180/96/94 182/121/119 181/97/95
f 181/97/95 182/121/119 41/98/96
f 180/96/94 30/72/70 162/510/446
f 180/96/94 162/510/446 178/94/92
f 178/94/92 162/510/446 28/92/90
f 177/93/91 39/115/113 179/117/115
f 177/93/91 179/117/115 178/94/92
f 178/94/92 179/117/115 40/95/93
f 176/91/89 37/87/85 172/89/87
f 176/91/89 172/89/87 175/90/88
f 175/90/88 172/89/87 38/511/402
f 175/90/88 38/511/402 394/512/401
f 175/90/88 394/512/401 382/5/5
f 382/5/5 394/512/401 26/513/65
f 171/88/86 37/87/85 174/110/108
f 171/88/86 174/110/108 167/82/80
f 167/82/80 174/110/108 36/109/107
f 35/81/79 450/447/413 171/88/86
f 171/88/86 173/437/404 172/89/87
f 172/89/87 173/437/404 38/511/402
f 169/85/83 36/109/107 170/508/444
f 169/85/83 170/508/444 166/86/84
f 166/86/84 170/508/444 34/507/372
f 167/82/80 36/109/107 169/85/83
f 167/82/80 169/85/83 168/83/81
f 168/83/81 169/85/83 33/84/82
f 165/80/78 2/6/6 380/2/2
f 165/80/78 380/2/2 393/79/77
f 393/79/77 380/2/2 27/1/1
f 392/78/76 32/514/358 164/77/75
f 392/78/76 164/77/75 393/79/77
f 393/79/77 164/77/75 31/76/74
f 164/77/75 32/514/358 391/515/409
f 164/77/75 391/515/409 390/75/73
f 390/75/73 391/515/409 111/74/72
f 388/73/71 30/72/70 163/509/445
f 388/73/71 163/509/445 390/75/73
f 390/75/73 163/509/445 31/76/74
f 388/73/71 111/74/72 389/516/411
f 388/73/71 389/516/411 161/71/69
f 161/71/69 389/516/411 29/69/67
f 160/517/398 28/92/90 162/510/446
f 160/517/398 162/510/446 161/71/69
f 161/71/69 162/510/446 30/72/70
f 159/68/66 25/384/368 154/64/62
f 159/68/66 154/64/62 157/66/64
f 157/66/64 154/64/62 24/63/61
f 156/65/63 27/376/1 158/518/447
f 156/65/63 158/518/447 157/66/64
f 157/66/64 158/518/447 26/67/65
f 154/64/62 25/384/368 155/364/350
f 154/64/62 155/364/350 152/62/60
f 152/62/60 155/364/350 23/61/59
f 150/60/58 22/59/57 153/449/415
f 150/60/58 153/449/415 152/62/60
f 152/62/60 153/449/415 24/63/61
f 150/60/58 23/61/59 151/343/329
f 150/60/58 151/343/329 149/58/56
f 149/58/56 151/343/329 21/56/54
f 147/57/55 112/311/298 419/519/320
f 147/57/55 419/519/320 149/58/56
f 149/58/56 419/519/320 22/59/57
f 143/55/53 20/458/423 148/312/299
f 143/55/53 148/312/299 145/53/51
f 145/53/51 148/312/299 112/311/298
f 145/53/51 112/311/298 147/57/55
f 145/53/51 147/57/55 146/54/52
f 146/54/52 147/57/55 21/56/54
f 139/51/49 18/286/275 144/288/277
f 139/51/49 144/288/277 141/49/47
f 141/49/47 144/288/277 20/470/423
f 141/49/47 20/470/423 143/520/53
f 141/49/47 143/520/53 142/50/48
f 142/50/48 143/520/53 19/463/50
f 135/47/45 16/262/253 140/264/255
f 135/47/45 140/264/255 137/45/43
f 137/45/43 140/264/255 18/286/275
f 137/45/43 18/286/275 139/51/49
f 137/45/43 139/51/49 138/46/44
f 138/46/44 139/51/49 17/48/46
f 130/43/36 14/236/37 136/238/231
f 130/43/36 136/238/231 133/41/40
f 133/41/40 136/238/231 16/262/253
f 133/41/40 16/262/253 135/47/45
f 133/41/40 135/47/45 134/42/41
f 134/42/41 135/47/45 15/44/42
f 131/38/38 11/28/28 126/30/30
f 131/38/38 126/30/30 132/39/39
f 132/39/39 126/30/30 12/31/31
f 129/35/35 11/28/28 131/38/38
f 129/35/35 131/38/38 130/36/36
f 130/36/36 131/38/38 14/37/37
f 127/32/32 9/22/22 122/24/24
f 127/32/32 122/24/24 128/33/33
f 128/33/33 122/24/24 10/25/25
f 125/29/29 9/22/22 127/32/32
f 125/29/29 127/32/32 126/30/30
f 126/30/30 127/32/32 12/31/31
f 123/26/26 6/16/16 119/18/18
f 123/26/26 119/18/18 124/27/27
f 124/27/27 119/18/18 7/19/19
f 121/23/23 6/16/16 123/26/26
f 121/23/23 123/26/26 122/24/24
f 122/24/24 123/26/26 10/25/25
f 387/20/20 5/162/158 385/521/15
f 387/20/20 385/521/15 120/21/21
f 120/21/21 385/521/15 8/493/12
f 386/17/17 5/162/158 387/20/20
f 386/17/17 387/20/20 119/18/18
f 119/18/18 387/20/20 7/19/19
f 385/15/15 5/499/158 118/136/134
f 385/15/15 118/136/134 383/13/13
f 383/13/13 118/136/134 4/111/109
f 383/13/13 4/111/109 116/10/10
f 383/13/13 116/10/10 384/14/14
f 384/14/14 116/10/10 3/9/9
f 116/10/10 4/111/109 117/113/111
f 116/10/10 117/113/111 115/11/11
f 115/11/11 117/113/111 1/4/4
f 114/7/7 3/9/9 115/11/11
f 114/7/7 115/11/11 113/8/8
f 113/8/8 115/11/11 1/4/4
f 382/5/5 26/513/65 158/522/447
f 382/5/5 158/522/447 381/3/3
f 381/3/3 158/522/447 27/1/1
f 380/2/2 2/6/6 113/8/8
f 380/2/2 113/8/8 381/3/3
f 381/3/3 113/8/8 1/4/4
f 161/71/69 446/523/448 160/517/398
f 161/71/69 447/70/68 446/523/448
