# Blender 4.4.3
# www.blender.org
mtllib cave_map_small.mtl
o cave_map_small.018
v -140.287598 -23.920376 -0.017912
v -140.278717 -21.249699 -0.331892
v -139.950684 -21.246044 -0.218794
v -139.644928 -21.557213 -0.030836
v -140.931305 -23.100307 -0.166593
v -140.922668 -22.510956 -0.318205
v -139.519165 -21.906059 0.011080
v -139.386169 -22.493832 0.211550
v -139.476288 -23.478317 -0.143217
v -139.434601 -24.068699 -0.357740
v -139.104919 -25.035423 -1.867658
v -139.488190 -24.560596 -1.835829
v -139.241852 -24.870102 -2.114134
v -139.698578 -24.280567 -0.981352
v -139.477356 -24.283028 -0.869779
v -139.736572 -24.779396 -1.970991
v -139.458588 -25.124962 -2.293638
v -139.920959 -24.279274 -1.093015
v -140.102966 -24.249176 -0.542784
v -139.627502 -25.127880 -2.513303
v -140.224060 -24.416672 -1.565138
v -139.461487 -22.624660 -2.257185
v -139.254272 -23.342136 -2.753706
v -139.708099 -22.880108 -2.383161
v -139.064484 -23.051147 -2.624235
v -139.656982 -22.133343 -1.909681
v -139.925110 -22.348820 -2.061979
v -139.890991 -21.917595 -1.003248
v -140.239349 -21.736202 -1.420347
v -139.247681 -22.627995 -2.079206
v -138.931732 -23.238438 -2.374250
v -139.491577 -22.421139 -1.326734
v -139.642822 -21.914673 -0.879850
v -139.199860 -23.030811 -1.436018
v -138.954468 -23.317188 -1.684751
v -139.327942 -22.599709 -1.133680
v -139.412384 -22.087452 -0.716642
v -139.953247 -24.781948 -2.149336
v -139.612976 -24.658276 -2.685865
v -139.922974 -24.307873 -2.275831
v -140.105194 -23.895554 -1.649244
v -140.418762 -24.079670 -0.697050
v -140.615112 -23.491718 -0.709455
v -139.540497 -24.187668 -2.783109
v -139.811951 -23.835197 -2.161665
v -140.082642 -23.377605 -1.780500
v -140.758728 -22.720985 -1.235914
v -139.389679 -23.715710 -2.778425
v -139.718781 -23.357533 -2.238325
v -140.005829 -22.861469 -1.884001
v -140.402313 -22.311176 -0.930097
v -139.229492 -23.428753 -1.332426
v -138.942413 -23.699203 -1.513136
v -139.315613 -23.018620 -1.136854
v -139.414825 -22.557938 -0.587492
v -139.268585 -23.812290 -1.241331
v -139.001404 -24.082447 -1.433943
v -139.332825 -23.439022 -1.029875
v -139.310333 -24.189419 -1.296537
v -139.148132 -24.467205 -1.468870
v -139.395599 -23.860367 -0.945326
v -139.392456 -24.366005 -1.308454
v -138.753601 -23.393650 -2.819700
v -138.406097 -24.161167 -2.401975
v -138.400146 -24.599625 -2.371549
v -138.457458 -25.473873 -2.444181
v -138.940094 -24.114452 -3.056135
v -135.520142 -27.665852 -5.697095
v -136.054901 -27.207691 -5.104062
v -136.314026 -27.211349 -5.334882
v -135.637238 -27.926685 -6.083265
v -136.041504 -27.693161 -6.154889
v -136.586517 -27.300339 -5.549299
v -136.361572 -25.181671 -5.934324
v -136.053040 -24.863190 -5.763990
v -135.508026 -25.256008 -6.369565
v -135.816559 -25.574493 -6.539915
v -135.793976 -24.859531 -5.533170
v -135.248932 -25.252354 -6.138746
v -135.584259 -25.170704 -5.241880
v -135.039246 -25.563522 -5.847471
v -136.173920 -27.106617 -6.468595
v -136.718933 -26.713795 -5.863004
v -136.107483 -26.517265 -6.605146
v -136.652496 -26.124447 -5.999570
v -135.810822 -25.924667 -6.536619
v -136.355865 -25.531849 -5.931028
v -135.629791 -25.759758 -5.086683
v -134.939392 -25.912369 -5.760312
v -135.438934 -26.107323 -4.918470
v -134.893921 -26.500141 -5.524061
v -135.557648 -26.697407 -4.828504
v -135.012634 -27.090229 -5.434095
v -134.840332 -27.484627 -5.886167
v -135.264191 -27.682194 -5.462446
v -134.719177 -28.075008 -6.068021
v -133.832947 -29.041737 -7.334179
v -134.198853 -28.566906 -7.452543
v -133.864258 -28.876411 -7.614393
v -134.722351 -28.286877 -6.745206
v -134.561218 -28.289337 -6.556959
v -134.975128 -28.058670 -6.302686
v -137.352509 -26.656170 -3.991346
v -137.057709 -26.572571 -3.803266
v -137.654144 -25.716892 -3.025297
v -137.885590 -26.052082 -3.232847
v -136.440887 -27.059101 -4.406263
v -136.650726 -26.841164 -4.666669
v -134.375946 -28.785706 -7.673017
v -133.995087 -29.131268 -7.863569
v -134.884521 -28.285583 -6.933957
v -135.264557 -28.255486 -6.496396
v -137.682190 -26.649509 -4.225309
v -138.235687 -26.231674 -3.296049
v -136.895203 -26.841923 -4.885343
v -134.066254 -29.134190 -8.131360
v -134.982208 -28.422981 -7.486432
v -137.174255 -27.061359 -5.062269
v -134.011780 -26.630970 -7.831052
v -133.629181 -27.348446 -8.209317
v -134.190796 -26.886417 -8.042356
v -133.503967 -27.057457 -8.016690
v -134.326172 -26.139652 -7.585752
v -134.514862 -26.355129 -7.829648
v -134.891479 -25.923904 -6.839582
v -135.052124 -25.742516 -7.358732
v -137.151031 -24.711674 -4.735303
v -138.150421 -24.092842 -4.277753
v -137.885223 -24.185699 -4.120954
v -137.406311 -24.987442 -4.946165
v -136.962463 -25.060211 -5.419980
v -136.668213 -24.744087 -5.261609
v -133.883148 -26.634304 -7.584409
v -133.477875 -27.244747 -7.734861
v -134.398254 -26.427448 -6.984113
v -134.710052 -25.920982 -6.630063
v -137.541382 -24.042702 -4.042997
v -136.879211 -24.705559 -4.545926
v -136.423767 -24.743271 -5.042951
v -134.086945 -27.037121 -6.972501
v -133.764618 -27.323498 -7.107419
v -134.321655 -26.606018 -6.742887
v -134.560333 -26.093761 -6.390638
v -137.249756 -24.100349 -3.891721
v -136.592285 -24.974567 -4.377378
v -136.229065 -25.057770 -4.763990
v -134.507141 -28.788261 -7.921093
v -133.986328 -28.664585 -8.285001
v -134.430450 -28.314182 -8.026151
v -134.840118 -27.901859 -7.518217
v -135.496460 -28.085979 -6.760480
v -135.672882 -27.498032 -6.847608
v -137.603363 -26.435303 -4.742978
v -138.504211 -26.127628 -3.459592
v -138.523987 -25.711845 -3.665861
v -138.034210 -26.830589 -4.412153
v -137.128998 -26.500648 -5.208249
v -133.881989 -28.193981 -8.346784
v -134.372009 -27.841507 -7.877988
v -134.768677 -27.383915 -7.630643
v -135.602478 -26.727295 -7.388761
v -137.607025 -25.812897 -4.934110
v -138.460907 -25.155441 -3.903883
v -137.064270 -25.940250 -5.336713
v -133.744629 -27.722019 -8.284329
v -134.256470 -27.363842 -7.912809
v -134.657928 -26.867779 -7.696531
v -135.391479 -26.317486 -6.969160
v -137.644714 -25.487598 -4.962629
v -138.333374 -24.599045 -4.114515
v -137.095795 -25.620174 -5.353101
v -134.154205 -27.435062 -6.888334
v -133.819641 -27.705513 -6.944410
v -134.309052 -27.024929 -6.741071
v -134.612366 -26.564247 -6.272413
v -137.101654 -24.599144 -3.591444
v -136.695679 -24.765846 -4.097120
v -136.273560 -25.617481 -4.617658
v -134.225403 -27.818596 -6.819349
v -133.904602 -28.088757 -6.894086
v -134.366180 -27.445332 -6.648984
v -134.710999 -26.894539 -5.960050
v -137.113373 -25.155548 -3.331617
v -136.877167 -25.473164 -4.009305
v -136.192719 -25.937447 -4.557142
v -134.242645 -28.195728 -6.886381
v -134.026550 -28.473515 -6.982847
v -134.456696 -27.866676 -6.595182
v -137.449982 -25.711929 -3.209760
v -136.892517 -26.168289 -3.809522
v -136.306793 -26.498055 -4.472806
v -135.809204 -27.289371 -4.856870
v -134.313812 -28.372311 -6.929014
v -138.582001 -23.519138 -2.602094
v -138.454651 -23.804222 -2.440641
v -138.951599 -23.590263 -3.070707
v -138.973724 -24.599621 -3.098753
v -138.977570 -25.084797 -3.103666
v -138.903595 -25.508316 -3.009855
v -138.753601 -25.569969 -2.819700
v -138.582001 -25.569969 -2.602094
v -138.379211 -25.084797 -2.345045
v -133.141815 -27.399963 -8.077222
v -133.227753 -27.596573 -8.385175
v -133.067322 -27.525452 -7.810316
v -133.012054 -27.810532 -7.612226
v -133.416595 -28.039268 -7.130094
v -132.988403 -28.605934 -7.527462
v -132.979309 -29.091106 -7.494932
v -133.067322 -29.576279 -7.810316
v -133.013275 -29.480183 -7.616575
v -133.141815 -29.576279 -8.077222
v -133.206909 -29.514626 -8.310513
v -133.239014 -29.091106 -8.425580
v -133.237335 -28.605934 -8.419553
v -133.222748 -28.120762 -8.367276
v -141.934204 -18.380211 5.286011
v -142.275482 -18.071621 6.130189
v -142.272156 -18.397881 5.277176
v -141.962830 -17.970261 5.971833
v -141.511169 -18.400066 5.379273
v -141.539764 -17.990116 6.065110
v -141.299072 -18.587471 5.773653
v -141.327667 -18.177521 6.459474
v -141.667786 -19.057220 8.412080
v -141.628723 -19.467690 7.554947
v -142.006165 -18.981323 8.263764
v -141.967041 -19.481529 7.546158
v -142.475433 -18.968647 8.202012
v -142.436310 -19.488579 7.515077
v -142.622925 -18.767685 7.876374
v -142.573700 -19.393345 7.188355
v -142.657257 -18.440472 7.364594
v -142.601532 -19.133564 6.675904
v -142.589752 -18.460266 6.851076
v -142.561157 -18.870216 6.165238
v -141.207886 -18.799458 6.200608
v -141.236481 -18.389507 6.886460
v -141.327667 -19.066959 6.709214
v -141.381989 -18.388290 7.397751
v -141.368042 -19.330303 7.219881
v -141.415985 -18.718300 7.907746
v -141.484344 -19.413136 7.483079
v -141.523468 -18.893200 8.170029
v -142.337189 -17.688046 6.863420
v -141.731171 -15.999558 9.190689
v -141.873993 -19.428009 4.434556
v -141.905609 -18.790161 4.600174
v -142.211914 -19.445843 4.444292
v -142.243561 -18.807831 4.591341
v -141.658173 -17.738873 7.050279
v -141.728851 -16.841118 7.528092
v -141.532715 -19.225601 4.713045
v -141.572357 -18.968723 4.992784
v -141.364716 -17.841476 7.289002
v -141.390808 -16.825489 7.542481
v -141.242310 -19.484608 4.508256
v -141.234406 -18.951054 5.001618
v -141.454651 -17.574642 9.853012
v -141.678619 -18.301094 8.734360
v -141.794922 -17.186100 9.919037
v -141.706909 -18.537289 9.099014
v -141.595306 -19.927849 6.868622
v -141.259430 -19.997311 7.047867
v -141.199219 -20.710182 5.761659
v -141.454681 -20.845905 5.893938
v -142.065857 -17.241600 9.796372
v -142.130310 -16.961445 10.106186
v -141.933258 -19.945518 6.859788
v -141.789185 -20.923992 5.965333
v -142.332214 -17.376205 9.603684
v -142.273285 -20.050320 7.021363
v -142.127106 -20.941826 5.975069
v -142.448944 -18.398983 8.817520
v -142.484314 -17.718945 9.255875
v -142.662079 -18.247753 8.563309
v -142.545074 -19.803295 6.502533
v -142.345947 -20.578259 5.598070
v -142.696625 -17.399014 8.739487
v -142.479492 -17.911659 8.057175
v -142.408936 -19.534939 5.994370
v -142.265015 -20.198872 5.212433
v -142.445496 -17.581654 7.547182
v -142.532562 -19.280167 5.479416
v -142.198242 -19.820236 4.827196
v -141.307648 -17.535095 7.576753
v -141.345367 -17.009937 8.122725
v -141.115570 -19.763100 4.796006
v -141.179260 -19.209408 5.514786
v -141.509979 -17.871990 8.082382
v -141.536987 -17.205349 8.692886
v -140.958710 -20.129936 5.174790
v -141.098114 -19.457867 6.035554
v -141.543945 -18.202000 8.592377
v -141.587067 -17.394215 9.269058
v -141.073181 -20.511093 5.561388
v -141.191772 -19.732536 6.537903
v -141.471252 -19.608196 3.741273
v -141.812408 -19.474674 3.645371
v -142.199799 -19.699429 3.758179
v -142.249756 -20.561989 4.419694
v -142.260742 -20.973248 4.738222
v -142.118011 -21.324593 5.022553
v -141.823181 -21.361965 5.075196
v -141.485382 -21.344986 5.089081
v -141.082886 -20.914040 4.786623
v -141.120697 -20.505234 4.466081
v -141.076172 -20.092281 4.148926
v -142.069305 -16.005531 9.186539
v -141.481018 -15.987481 9.418808
v -141.383148 -15.974695 9.683319
v -141.510376 -15.786671 10.339279
v -141.758820 -15.712347 10.530272
v -142.013214 -15.750742 10.661972
v -142.233063 -15.932620 10.563995
v -142.540161 -15.909394 10.343048
v -142.600006 -15.965665 9.989470
v -142.547577 -15.998815 9.367508
v -141.434418 -15.836210 9.929535
v -140.030701 -23.659542 0.293276
v -140.295532 -23.201382 1.046617
v -140.623596 -23.205040 0.933519
v -140.688202 -23.686852 0.071825
v -140.957672 -23.294033 0.840685
v -140.898529 -21.175362 0.398729
v -140.548187 -20.856880 0.436968
v -140.629089 -21.568184 -0.370146
v -140.220154 -20.853222 0.550081
v -139.914398 -21.164394 0.738024
v -141.200775 -22.707485 0.602282
v -141.192139 -22.118137 0.450670
v -140.622528 -21.918358 -0.369322
v -140.891998 -21.525539 0.399553
v -139.896545 -21.753448 0.898775
v -139.655609 -22.101009 0.980425
v -139.730499 -22.691097 1.109209
v -139.461029 -23.083920 0.340334
v -139.704071 -23.675880 0.411135
v -139.761230 -24.052361 -0.475599
v -141.063934 -22.649860 2.573534
v -140.719391 -22.566261 2.633425
v -140.969879 -21.710583 3.581209
v -141.263428 -22.045773 3.478884
v -140.382690 -23.052792 1.839281
v -140.676697 -22.834854 1.679872
v -141.458313 -22.643200 2.484728
v -141.610840 -22.225365 3.555528
v -140.986542 -22.835613 1.572344
v -141.312256 -23.055050 1.516664
v -141.164795 -20.705364 1.809389
v -141.910583 -20.086533 2.616822
v -141.605438 -20.179390 2.659287
v -141.481628 -20.981133 1.713228
v -141.254730 -21.053902 1.104952
v -140.922180 -20.737778 1.137651
v -141.258118 -20.036392 2.598680
v -140.840973 -20.699249 1.879366
v -140.612305 -20.736961 1.245180
v -140.930695 -20.094040 2.625855
v -140.511261 -20.968258 1.924303
v -140.325134 -21.051460 1.427538
v -141.585114 -22.428993 1.976686
v -141.921661 -22.121319 3.508135
v -142.019409 -21.705536 3.325426
v -141.855164 -22.824280 2.448030
v -141.326782 -22.494339 1.364504
v -141.662170 -21.806587 1.801729
v -142.052979 -21.149132 3.081499
v -141.316589 -21.933941 1.221025
v -141.707947 -21.481289 1.789949
v -142.016479 -20.592735 2.837953
v -141.351990 -21.613865 1.218065
v -140.678314 -20.592834 2.845827
v -140.498657 -20.759537 2.222734
v -140.309814 -21.611172 1.579729
v -139.385437 -22.888229 -0.261259
v -140.588959 -21.149239 3.090090
v -140.632263 -21.466854 2.373720
v -140.211884 -21.931137 1.604403
v -140.852600 -21.705620 3.332292
v -140.569427 -22.161980 2.563997
v -140.284607 -22.491745 1.726183
v -139.973541 -23.283062 1.180010
v -141.222504 -19.837021 3.938951
v -142.180267 -20.147781 4.103562
v -141.239502 -21.251278 5.035996
vn 0.2439 0.8335 -0.4957
vn 0.3592 0.8101 -0.4634
vn 0.1738 0.8219 -0.5425
vn -0.3075 0.7648 -0.5661
vn 0.0464 0.9659 -0.2548
vn -0.4842 0.8110 -0.3283
vn -0.0601 0.8863 -0.4592
vn -0.6423 0.6658 -0.3797
vn 0.1613 0.8137 -0.5584
vn 0.1019 0.8048 -0.5847
vn 0.1271 0.9611 -0.2453
vn 0.1095 0.9441 -0.3109
vn 0.1267 0.8716 -0.4736
vn 0.6928 0.6846 0.2265
vn 0.8187 0.5690 0.0774
vn 0.8629 0.5049 -0.0203
vn 0.7622 0.6458 0.0449
vn 0.6974 0.6989 -0.1589
vn -0.2277 -0.6158 0.7543
vn 0.5706 -0.1956 0.7976
vn 0.4270 -0.3981 0.8119
vn -0.3814 -0.7518 0.5379
vn -0.4188 -0.7901 0.4476
vn 0.5604 -0.3616 0.7451
vn -0.4186 -0.8361 0.3546
vn 0.4025 -0.8000 0.4450
vn 0.7738 -0.3671 0.5162
vn 0.1654 -0.7677 0.6191
vn -0.7816 -0.6210 -0.0591
vn -0.7695 -0.5929 0.2374
vn -0.8335 -0.5440 0.0966
vn -0.5337 -0.6730 0.5122
vn -0.4763 -0.7943 0.3771
vn -0.8475 -0.3686 -0.3820
vn -0.9122 -0.2580 -0.3184
vn -0.9596 -0.2736 0.0663
vn -0.9191 -0.3620 0.1554
vn -0.8672 -0.4974 -0.0238
vn 0.7084 0.1136 0.6966
vn 0.8623 -0.1078 0.4948
vn 0.9112 -0.0331 0.4107
vn 0.8905 0.3472 0.2941
vn 0.9385 0.2792 0.2033
vn 0.6617 -0.1144 0.7410
vn 0.8330 -0.1648 0.5282
vn 0.8092 0.0945 0.5799
vn 0.8150 -0.2345 0.5298
vn 0.9126 -0.1973 0.3580
vn 0.6657 -0.1919 0.7211
vn 0.7956 0.0080 0.6058
vn 0.8091 -0.0294 0.5870
vn 0.8244 -0.3474 0.4468
vn 0.8895 -0.1647 0.4261
vn -0.8436 -0.0979 -0.5279
vn -0.7713 -0.1415 -0.6205
vn -0.9707 -0.0276 -0.2386
vn -0.9935 -0.0859 -0.0748
vn -0.9422 -0.3052 -0.1386
vn -0.8007 0.0469 -0.5973
vn -0.6745 0.1326 -0.7262
vn -0.9714 0.0426 -0.2337
vn -0.9977 0.0288 -0.0609
vn -0.9858 -0.0811 -0.1469
vn -0.7125 0.2631 -0.6504
vn -0.4955 0.3888 -0.7767
vn -0.9682 0.1060 -0.2268
vn -0.9708 0.1282 -0.2029
vn -0.3279 -0.8855 0.3292
vn 0.4735 -0.4893 0.7324
vn -0.6850 -0.6876 -0.2405
vn -0.8195 -0.3869 -0.4227
vn -0.8041 -0.1246 -0.5813
vn -0.7347 -0.0553 -0.6761
vn -0.6032 0.1573 -0.7820
vn -0.1668 0.6225 -0.7646
vn 0.3007 0.8222 -0.4833
vn 0.4597 0.8205 -0.3398
vn 0.7738 0.6030 0.1939
vn 0.7487 0.1343 0.6492
vn 0.6937 -0.0404 0.7192
vn 0.6737 -0.0591 0.7366
vn -0.2312 0.7444 -0.6265
vn 0.2483 0.8691 -0.4279
vn -0.1436 0.7579 -0.6363
vn 0.3893 0.8956 -0.2155
vn 0.2995 0.8716 -0.3881
vn 0.2354 0.8700 -0.4332
vn 0.7047 0.6989 0.1222
vn 0.5219 0.8528 -0.0200
vn 0.5407 -0.3909 0.7448
vn -0.0860 -0.7677 0.6350
vn 0.0601 -0.8883 0.4553
vn 0.5150 -0.3671 0.7746
vn -0.5848 -0.7943 0.1644
vn -0.4306 -0.9001 -0.0670
vn -0.7910 -0.4973 -0.3563
vn -0.6924 -0.4722 -0.5455
vn 0.7876 0.2792 0.5493
vn 0.8045 0.1960 0.5607
vn 0.7041 -0.1973 0.6821
vn 0.7257 -0.1575 0.6698
vn 0.6565 -0.1647 0.7361
vn 0.6637 -0.1533 0.7321
vn -0.6515 -0.3934 -0.6486
vn -0.8159 -0.3052 -0.4911
vn -0.6392 -0.2755 -0.7180
vn -0.8530 -0.0811 -0.5156
vn -0.5796 0.1030 -0.8084
vn -0.7604 0.1935 -0.6199
vn -0.8175 0.1282 -0.5615
vn -0.4463 0.6658 -0.5980
vn 0.4161 0.8335 -0.3634
vn 0.5100 0.8101 -0.2891
vn 0.3695 0.8219 -0.4335
vn -0.0656 0.7648 -0.6409
vn 0.1411 0.9659 -0.2172
vn -0.3202 0.8110 -0.4896
vn 0.1216 0.8863 -0.4469
vn 0.1344 0.9074 -0.3982
vn -0.5477 0.1480 -0.8234
vn -0.2624 0.6662 -0.6981
vn -0.2027 0.7021 -0.6826
vn 0.0767 0.7999 -0.5952
vn 0.4009 0.9105 -0.1011
vn 0.3641 0.8137 -0.4531
vn 0.3194 0.8048 -0.5002
vn 0.2119 0.9611 -0.1773
vn 0.2209 0.9441 -0.2446
vn -0.0297 0.8997 -0.4355
vn 0.1279 0.7804 -0.6121
vn 0.0115 0.9075 -0.4200
vn 0.5520 0.6846 0.4760
vn 0.7256 0.5690 0.3870
vn 0.8040 0.5049 0.3139
vn 0.6860 0.6458 0.3352
vn 0.6889 0.7003 0.1870
vn 0.8115 0.5843 0.0101
vn 0.4411 0.8942 0.0761
vn -0.5009 -0.6159 0.6082
vn 0.2190 -0.1956 0.9559
vn 0.0811 -0.3981 0.9138
vn -0.5593 -0.7518 0.3493
vn -0.5590 -0.7901 0.2516
vn 0.2299 -0.3616 0.9036
vn -0.5230 -0.8361 0.1658
vn 0.1999 -0.8000 0.5658
vn 0.0132 -0.8463 0.5325
vn -0.1739 -0.8715 0.4585
vn 0.2676 -0.6765 0.6861
vn 0.4716 -0.4503 0.7582
vn 0.5922 -0.4108 0.6932
vn 0.2100 -0.9107 0.3556
vn -0.6984 -0.6210 -0.3558
vn -0.8015 -0.5929 -0.0776
vn -0.8064 -0.5440 -0.2321
vn -0.6899 -0.6730 0.2669
vn -0.1287 -0.8831 0.4513
vn -0.4551 -0.8807 0.1317
vn -0.3041 -0.9365 -0.1743
vn -0.6347 -0.3687 -0.6791
vn -0.7189 -0.2580 -0.6454
vn -0.9110 -0.2736 -0.3087
vn -0.9080 -0.3620 -0.2110
vn -0.6068 -0.7938 -0.0413
vn -0.7882 -0.5870 -0.1847
vn -0.6392 -0.4641 -0.6132
vn 0.3851 0.1136 0.9159
vn 0.6049 -0.1078 0.7890
vn 0.6825 -0.0331 0.7302
vn 0.7083 0.3472 0.6146
vn 0.7445 0.0027 0.6676
vn 0.8371 0.2123 0.5041
vn 0.7613 0.0839 0.6429
vn 0.3249 -0.1144 0.9388
vn 0.5650 -0.1648 0.8084
vn 0.5231 0.0944 0.8470
vn 0.5478 -0.2345 0.8031
vn 0.7192 0.1579 0.6766
vn 0.8246 0.0787 0.5603
vn 0.7538 0.0895 0.6510
vn 0.3363 -0.1919 0.9220
vn 0.5006 0.0080 0.8657
vn 0.5203 -0.0294 0.8535
vn 0.5885 -0.3474 0.7301
vn 0.6718 -0.0475 0.7392
vn 0.7840 -0.0486 0.6188
vn 0.6652 -0.0537 0.7448
vn -0.5750 -0.0979 -0.8123
vn -0.4449 -0.1765 -0.8780
vn -0.8037 -0.0276 -0.5944
vn -0.8879 -0.0859 -0.4520
vn -0.7510 -0.3953 -0.5289
vn -0.4685 -0.8756 0.1180
vn -0.7698 -0.2710 -0.5779
vn -0.5086 0.0469 -0.8597
vn -0.2967 0.1483 -0.9434
vn -0.8062 0.0426 -0.5901
vn -0.8972 0.0288 -0.4407
vn -0.7750 0.0472 -0.6302
vn -0.7715 0.0527 -0.6340
vn -0.5712 -0.1143 -0.8128
vn -0.4068 0.2631 -0.8748
vn -0.1578 0.3888 -0.9077
vn -0.8059 0.1059 -0.5824
vn -0.6886 0.1488 -0.7098
vn -0.7242 0.0552 -0.6874
vn -0.5642 0.0061 -0.8256
vn -0.5121 -0.8239 0.2428
vn 0.0516 -0.3746 0.9258
vn -0.5481 -0.6654 -0.5068
vn -0.6229 -0.4938 -0.6068
vn -0.5418 -0.0355 -0.8398
vn -0.4633 0.0400 -0.8853
vn -0.2712 0.2140 -0.9384
vn 0.3151 0.6741 -0.6681
vn 0.5776 0.7488 -0.3251
vn 0.5307 0.8393 -0.1185
vn 0.4711 0.7454 0.4717
vn 0.2690 0.1728 0.9475
vn 0.1329 -0.0226 0.9909
vn 0.0856 -0.0752 0.9935
vn -0.1133 -0.8307 0.5451
vn 0.7307 -0.5926 0.3391
vn 0.5892 -0.7171 0.3723
vn 0.1439 -0.8751 0.4621
vn -0.4924 -0.6874 0.5339
vn -0.5084 -0.7979 0.3238
vn -0.9230 -0.3548 0.1491
vn -0.9088 -0.3897 0.1490
vn -0.7404 0.4912 -0.4588
vn -0.3607 0.7342 -0.5752
vn -0.9173 0.2334 -0.3226
vn -0.2479 0.8226 -0.5117
vn 0.2412 0.7844 -0.5715
vn -0.0256 0.7938 -0.6077
vn 0.5752 0.6493 -0.4976
vn 0.5669 0.6428 -0.5152
vn 0.9836 0.1397 -0.1138
vn 0.9522 0.2729 -0.1372
vn 0.9940 -0.1088 0.0140
vn 0.9951 0.0555 0.0813
vn 0.9667 -0.1952 0.1657
vn 0.9881 -0.0855 0.1278
vn -0.9911 -0.1300 -0.0275
vn -0.9957 -0.0278 -0.0881
vn -0.9835 -0.0117 -0.1805
vn -0.9799 0.0645 -0.1886
vn -0.9731 -0.0024 -0.2304
vn -0.9807 0.0739 -0.1810
vn 0.5426 0.4398 0.7157
vn 0.2520 -0.6669 0.7012
vn 0.7430 -0.5735 0.3449
vn 0.0257 -0.7748 0.6317
vn -0.3388 -0.5961 0.7279
vn 0.8481 -0.3269 0.4170
vn 0.5628 -0.4404 0.6995
vn -0.6396 -0.6625 0.3898
vn 0.6604 -0.4671 0.5880
vn -0.3181 -0.6898 0.6503
vn -0.3578 -0.6686 0.6519
vn -0.5823 -0.5652 0.5843
vn -0.5807 -0.5501 0.6002
vn -0.7795 -0.5443 0.3100
vn -0.6811 -0.5402 0.4943
vn -0.5272 0.6293 -0.5711
vn -0.9294 0.1980 -0.3115
vn 0.1761 0.5233 -0.8337
vn -0.3503 0.6029 -0.7167
vn 0.1324 0.7776 -0.6147
vn -0.4858 0.6042 -0.6316
vn -0.7700 0.4983 -0.3986
vn -0.4420 0.7121 -0.5454
vn 0.1960 0.6636 -0.7220
vn 0.2796 0.4938 -0.8234
vn -0.2608 0.7132 -0.6506
vn -0.1805 0.8134 -0.5530
vn 0.4501 0.5163 -0.7286
vn 0.4316 0.5938 -0.6791
vn 0.3015 0.7472 -0.5923
vn 0.4715 0.7712 -0.4277
vn 0.7713 0.3414 -0.5372
vn 0.9757 0.1651 -0.1441
vn 0.9748 0.2230 -0.0050
vn 0.9802 0.1976 0.0086
vn 0.9882 -0.0825 0.1291
vn 0.9852 -0.1260 0.1159
vn 0.9868 0.1283 0.0986
vn 0.9897 0.0189 0.1421
vn 0.8497 -0.3969 0.3472
vn 0.9450 -0.2971 0.1364
vn 0.9892 0.0671 0.1300
vn 0.9848 0.0424 0.1685
vn -0.9999 0.0078 0.0085
vn -0.9939 0.0184 -0.1090
vn -0.9708 -0.1960 0.1381
vn -0.9772 -0.2067 0.0473
vn -0.9826 0.0580 -0.1763
vn -0.9825 0.1216 -0.1411
vn -0.9989 -0.0333 0.0340
vn -0.9889 -0.1001 -0.1103
vn -0.9338 0.1639 -0.3179
vn -0.9981 0.0377 0.0493
vn -0.9528 0.2226 -0.2064
vn -0.9849 -0.0243 -0.1715
vn -0.7141 -0.6771 0.1778
vn -0.4879 -0.8602 0.1487
vn 0.2523 -0.9149 0.3152
vn 0.9249 -0.3801 0.0079
vn 0.9912 -0.0729 0.1103
vn 0.9891 -0.0616 0.1338
vn 0.9801 0.1962 -0.0312
vn 0.6622 0.6878 -0.2973
vn 0.0432 0.8837 -0.4661
vn -0.1572 0.8470 -0.5079
vn -0.6827 0.6088 -0.4042
vn -0.9967 0.0145 -0.0797
vn -0.9805 0.0822 -0.1782
vn -0.9350 -0.3544 -0.0112
vn -0.0102 0.8922 -0.4516
vn -0.8798 -0.3468 0.3250
vn -0.3457 -0.8374 0.4234
vn -0.9825 0.1300 -0.1335
vn -0.9540 0.1913 -0.2308
vn -0.7870 0.1830 -0.5892
vn -0.4666 0.3023 -0.8312
vn -0.2809 0.4071 -0.8691
vn 0.2339 0.4640 -0.8544
vn 0.7350 0.3617 -0.5736
vn 0.9887 0.0757 -0.1295
vn -0.4548 0.7444 -0.4890
vn 0.0642 0.8691 -0.4905
vn -0.3778 0.7579 -0.5318
vn 0.2761 0.8956 -0.3489
vn 0.0503 0.8700 -0.4905
vn 0.4739 0.8528 -0.2196
vn 0.7861 -0.3909 0.4788
vn 0.2310 -0.8883 0.3970
vn -0.4231 -0.9001 0.1041
vn -0.8492 -0.4722 -0.2365
vn 0.9584 0.1961 0.2073
vn 0.9278 -0.1575 0.3383
vn 0.8946 -0.1533 0.4196
vn -0.8512 -0.3934 -0.3474
vn -0.8666 -0.2754 -0.4161
vn -0.8464 0.1030 -0.5225
vn -0.9406 0.1935 -0.2789
vn -0.0295 0.9074 -0.4192
vn -0.6901 0.6073 -0.3937
vn -0.5113 0.6661 -0.5430
vn -0.4922 0.7348 -0.4666
vn -0.1587 0.7999 -0.5788
vn 0.3309 0.9105 -0.2479
vn -0.1952 0.8997 -0.3904
vn -0.1159 0.8678 -0.4832
vn -0.1512 0.9075 -0.3920
vn 0.7078 0.7003 -0.0930
vn 0.7799 0.5927 -0.2012
vn 0.4363 0.8942 -0.0997
vn 0.2175 -0.8463 0.4863
vn 0.0123 -0.8358 0.5490
vn 0.5240 -0.6329 0.5700
vn 0.7274 -0.4503 0.5178
vn 0.8137 -0.4108 0.4113
vn 0.3308 -0.9107 0.2472
vn 0.0389 -0.8623 0.5049
vn -0.3692 -0.8807 0.2969
vn -0.3478 -0.9365 -0.0436
vn -0.5678 -0.7844 0.2498
vn -0.7985 -0.5870 0.1333
vn -0.8262 -0.4641 -0.3194
vn 0.9443 0.0026 0.3290
vn 0.9720 0.2027 0.1190
vn 0.9503 0.0839 0.2998
vn 0.9244 0.1579 0.3471
vn 0.9806 0.0767 0.1802
vn 0.9465 0.0895 0.3101
vn 0.9048 -0.0475 0.4232
vn 0.9634 -0.0478 0.2637
vn 0.9009 -0.0537 0.4308
vn -0.9209 -0.3697 -0.1240
vn -0.3867 -0.8756 0.2895
vn -0.9331 -0.2710 -0.2365
vn -0.9775 0.0774 -0.1963
vn -0.9563 0.0527 -0.2876
vn -0.8404 -0.1143 -0.5298
vn -0.9204 0.2145 -0.3269
vn -0.9332 0.0552 -0.3551
vn -0.8388 0.0061 -0.5443
vt 0.948566 0.889426
vt 0.898331 0.889082
vt 0.893111 0.818728
vt 0.934240 0.810813
vt 0.908151 0.753419
vt 0.961339 0.742211
vt 0.919277 0.674741
vt 0.980000 0.660115
vt 0.846968 0.905662
vt 0.840842 0.831776
vt 0.854503 0.764023
vt 0.860196 0.686278
vt 0.844208 0.602213
vt 0.798221 0.913139
vt 0.791642 0.840270
vt 0.800615 0.773504
vt 0.798281 0.694956
vt 0.782393 0.609023
vt 0.354057 0.663716
vt 0.407978 0.682043
vt 0.393658 0.756568
vt 0.343620 0.737535
vt 0.349071 0.591854
vt 0.406140 0.608761
vt 0.346821 0.505930
vt 0.405154 0.522005
vt 0.420414 0.437575
vt 0.361290 0.422646
vt 0.287228 0.733736
vt 0.300559 0.652933
vt 0.294448 0.580721
vt 0.292795 0.494712
vt 0.308857 0.414645
vt 0.238455 0.723220
vt 0.236452 0.650056
vt 0.234464 0.572573
vt 0.236636 0.486737
vt 0.247755 0.411237
vt 0.566052 0.839644
vt 0.519106 0.818502
vt 0.583926 0.765229
vt 0.539888 0.746346
vt 0.596075 0.694106
vt 0.551812 0.668635
vt 0.624946 0.615236
vt 0.569205 0.585304
vt 0.656324 0.523045
vt 0.586138 0.494718
vt 0.477757 0.798533
vt 0.498307 0.719234
vt 0.503899 0.647580
vt 0.515959 0.561121
vt 0.536560 0.474562
vt 0.432653 0.775135
vt 0.454002 0.699234
vt 0.456111 0.626569
vt 0.457129 0.542885
vt 0.469929 0.455950
vt 0.181605 0.662137
vt 0.184336 0.734716
vt 0.182657 0.585624
vt 0.186583 0.497066
vt 0.195862 0.415035
vt 0.130000 0.673423
vt 0.140003 0.746983
vt 0.131145 0.595371
vt 0.134448 0.505802
vt 0.137343 0.417051
vt 0.082675 0.686787
vt 0.091062 0.762361
vt 0.080980 0.608090
vt 0.079496 0.515974
vt 0.058310 0.697263
vt 0.054286 0.775461
vt 0.031413 0.624639
vt 0.023572 0.528965
vt 0.325311 0.804398
vt 0.381977 0.824371
vt 0.271908 0.799204
vt 0.223883 0.801063
vt 0.182391 0.807404
vt 0.133741 0.822084
vt 0.089065 0.834078
vt 0.047360 0.846661
vt 0.910516 0.970640
vt 0.945851 0.961729
vt 0.861586 0.975899
vt 0.818328 0.980000
vt 0.557942 0.910574
vt 0.515353 0.890535
vt 0.470513 0.869789
vt 0.426192 0.846752
vt 0.963405 0.574514
vt 0.903384 0.590878
vt 0.946294 0.489870
vt 0.886379 0.498818
vt 0.826479 0.510248
vt 0.767396 0.523924
vt 0.428442 0.351674
vt 0.368871 0.341116
vt 0.318455 0.336395
vt 0.262033 0.335393
vt 0.671423 0.425438
vt 0.597820 0.406592
vt 0.545623 0.389419
vt 0.479345 0.368383
vt 0.214153 0.332454
vt 0.156882 0.336461
vt 0.106502 0.333329
vt 0.085137 0.420930
vt 0.020000 0.424773
vt 0.804483 0.374866
vt 0.837038 0.296346
vt 0.846083 0.366362
vt 0.786711 0.304241
vt 0.905389 0.419431
vt 0.845998 0.428552
vt 0.754869 0.384369
vt 0.737255 0.315490
vt 0.790375 0.439029
vt 0.705617 0.395357
vt 0.693347 0.322247
vt 0.731678 0.453870
vt 0.425019 0.203018
vt 0.439290 0.140116
vt 0.488644 0.144596
vt 0.482109 0.218471
vt 0.455819 0.279559
vt 0.395605 0.271932
vt 0.382341 0.131591
vt 0.368315 0.194890
vt 0.343448 0.267390
vt 0.329988 0.125392
vt 0.304549 0.194918
vt 0.282680 0.264605
vt 0.628298 0.260158
vt 0.635356 0.186820
vt 0.672561 0.196636
vt 0.677578 0.273789
vt 0.618278 0.328607
vt 0.672529 0.341551
vt 0.577421 0.243759
vt 0.587944 0.172651
vt 0.561678 0.313022
vt 0.533081 0.230173
vt 0.538122 0.158505
vt 0.507679 0.296178
vt 0.273550 0.114040
vt 0.247452 0.182602
vt 0.231331 0.254253
vt 0.228059 0.104101
vt 0.193157 0.170489
vt 0.177265 0.248387
vt 0.174586 0.092938
vt 0.143368 0.162637
vt 0.122377 0.237593
vt 0.128521 0.081582
vt 0.112206 0.150954
vt 0.068249 0.224983
vt 0.043703 0.319128
vt 0.388868 0.061570
vt 0.343724 0.059993
vt 0.440192 0.060512
vt 0.498457 0.073876
vt 0.544952 0.091968
vt 0.592085 0.106085
vt 0.638159 0.119381
vt 0.683158 0.130885
vt 0.686491 0.256189
vt 0.729518 0.249348
vt 0.777709 0.240192
vt 0.811564 0.231592
vt 0.164115 0.021066
vt 0.206027 0.032443
vt 0.253508 0.036295
vt 0.304518 0.051382
vt 0.393259 0.285088
vt 0.466377 0.371665
vt 0.452000 0.279731
vt 0.403111 0.370434
vt 0.317012 0.293170
vt 0.323636 0.377228
vt 0.261283 0.309978
vt 0.267867 0.398883
vt 0.935712 0.605488
vt 0.904481 0.703105
vt 0.940193 0.690236
vt 0.908812 0.607223
vt 0.841925 0.700543
vt 0.844513 0.604028
vt 0.751383 0.688424
vt 0.755857 0.600739
vt 0.729036 0.444099
vt 0.728115 0.349497
vt 0.683074 0.430905
vt 0.681023 0.339607
vt 0.626804 0.410348
vt 0.622601 0.323522
vt 0.569013 0.392124
vt 0.565014 0.308283
vt 0.211269 0.331576
vt 0.219887 0.420977
vt 0.153006 0.358538
vt 0.160536 0.447324
vt 0.095598 0.383220
vt 0.104125 0.472066
vt 0.061429 0.399478
vt 0.070120 0.486982
vt 0.409836 0.455134
vt 0.493929 0.554921
vt 0.480471 0.458982
vt 0.388999 0.120316
vt 0.390058 0.200166
vt 0.460684 0.119743
vt 0.445409 0.198319
vt 0.334252 0.480244
vt 0.348507 0.566617
vt 0.324703 0.162412
vt 0.319972 0.212806
vt 0.270693 0.494733
vt 0.289160 0.571767
vt 0.260594 0.137149
vt 0.262870 0.219683
vt 0.974227 0.888836
vt 0.941923 0.770806
vt 0.903999 0.896844
vt 0.906116 0.791945
vt 0.913258 0.520273
vt 0.980000 0.531747
vt 0.968982 0.431362
vt 0.920351 0.430664
vt 0.835539 0.828574
vt 0.835330 0.877710
vt 0.848809 0.516336
vt 0.850904 0.433414
vt 0.785837 0.866742
vt 0.758993 0.774413
vt 0.782041 0.518914
vt 0.786834 0.431680
vt 0.731550 0.635712
vt 0.725098 0.536535
vt 0.684336 0.615918
vt 0.679445 0.519631
vt 0.670805 0.250824
vt 0.729202 0.167239
vt 0.656442 0.162386
vt 0.750505 0.258022
vt 0.621532 0.592499
vt 0.617747 0.504436
vt 0.610930 0.231649
vt 0.591950 0.145402
vt 0.565235 0.574388
vt 0.557440 0.484614
vt 0.553215 0.224813
vt 0.527406 0.129775
vt 0.231919 0.509173
vt 0.237843 0.598701
vt 0.211069 0.153433
vt 0.207624 0.242771
vt 0.163874 0.536985
vt 0.174112 0.623610
vt 0.149812 0.176575
vt 0.150417 0.264650
vt 0.106852 0.563826
vt 0.120042 0.652075
vt 0.088196 0.199151
vt 0.092156 0.288865
vt 0.082802 0.571160
vt 0.071729 0.691552
vt 0.035544 0.313608
vt 0.049840 0.211934
vt 0.241979 0.046509
vt 0.304565 0.030982
vt 0.374430 0.020244
vt 0.458282 0.024269
vt 0.529988 0.036897
vt 0.596474 0.051462
vt 0.659302 0.065447
vt 0.721011 0.069317
vt 0.805121 0.337300
vt 0.861823 0.340211
vt 0.925030 0.338803
vt 0.973398 0.339027
vt 0.074581 0.105550
vt 0.020000 0.124061
vt 0.132319 0.083530
vt 0.191802 0.061538
vt 0.419939 0.643896
vt 0.419193 0.544815
vt 0.288888 0.676656
vt 0.349923 0.657486
vt 0.184047 0.724704
vt 0.240629 0.696483
vt 0.157822 0.741450
vt 0.131598 0.758195
vt 0.085452 0.777794
vt 0.903954 0.978315
vt 0.952837 0.980000
vt 0.840857 0.973669
vt 0.784568 0.968856
vt 0.744937 0.736960
vt 0.689186 0.714159
vt 0.632241 0.694790
vt 0.564414 0.678893
s 1
usemtl Cave_Material.020
f 11/1/1 13/2/2 12/3/3
f 12/3/3 62/4/4 11/1/1
f 62/4/4 12/3/3 14/5/5
f 14/5/5 15/6/6 62/4/4
f 15/6/6 14/5/5 339/7/7
f 339/7/7 10/8/8 15/6/6
f 13/2/2 17/9/9 16/10/10
f 16/10/10 12/3/3 13/2/2
f 12/3/3 16/10/10 18/11/11
f 18/11/11 14/5/5 12/3/3
f 14/5/5 18/11/11 19/12/12
f 19/12/12 339/7/7 14/5/5
f 339/7/7 19/12/12 1/13/13
f 17/9/9 20/14/14 38/15/15
f 38/15/15 16/10/10 17/9/9
f 16/10/10 38/15/15 21/16/16
f 21/16/16 18/11/11 16/10/10
f 18/11/11 21/16/16 42/17/17
f 42/17/17 19/12/12 18/11/11
f 19/12/12 42/17/17 1/13/13
f 323/18/18 1/13/13 42/17/17
f 22/19/19 24/20/20 23/21/21
f 23/21/21 25/22/22 22/19/19
f 26/23/23 27/24/24 22/19/19
f 22/19/19 27/24/24 24/20/20
f 28/25/25 29/26/26 26/23/23
f 26/23/23 29/26/26 27/24/24
f 327/27/27 28/25/25 2/28/28
f 327/27/27 29/26/26 28/25/25
f 22/19/19 31/29/29 30/30/30
f 22/19/19 25/22/22 31/29/29
f 32/31/31 26/23/23 30/30/30
f 30/30/30 26/23/23 22/19/19
f 33/32/32 28/25/25 32/31/31
f 32/31/31 28/25/25 26/23/23
f 2/28/28 33/32/32 3/33/33
f 2/28/28 28/25/25 33/32/32
f 30/30/30 35/34/34 34/35/35
f 30/30/30 31/29/29 35/34/34
f 36/36/36 32/31/31 34/35/35
f 34/35/35 32/31/31 30/30/30
f 37/37/37 33/32/32 36/36/36
f 36/36/36 33/32/32 32/31/31
f 3/33/33 37/37/37 4/38/38
f 3/33/33 33/32/32 37/37/37
f 20/39/14 39/40/39 38/41/15
f 40/42/40 38/41/15 39/40/39
f 38/41/15 40/42/40 21/43/16
f 41/44/41 21/43/16 40/42/40
f 21/43/16 41/44/41 42/45/17
f 43/46/42 42/45/17 41/44/41
f 42/45/17 43/46/42 323/47/18
f 5/48/43 323/47/18 43/46/42
f 39/40/39 44/49/44 40/42/40
f 45/50/45 40/42/40 44/49/44
f 40/42/40 45/50/45 41/44/41
f 46/51/46 41/44/41 45/50/45
f 41/44/41 46/51/46 43/46/42
f 47/52/47 43/46/42 46/51/46
f 43/46/42 47/52/47 5/48/43
f 6/53/48 5/48/43 47/52/47
f 44/49/44 48/54/49 45/50/45
f 49/55/50 45/50/45 48/54/49
f 45/50/45 49/55/50 46/51/46
f 50/56/51 46/51/46 49/55/50
f 46/51/46 50/56/51 47/52/47
f 51/57/52 47/52/47 50/56/51
f 47/52/47 51/57/52 6/53/48
f 332/58/53 6/53/48 51/57/52
f 48/54/49 23/21/21 49/55/50
f 24/20/20 49/55/50 23/21/21
f 49/55/50 24/20/20 50/56/51
f 27/24/24 50/56/51 24/20/20
f 50/56/51 27/24/24 51/57/52
f 29/26/26 51/57/52 27/24/24
f 51/57/52 29/26/26 332/58/53
f 327/27/27 332/58/53 29/26/26
f 35/34/34 52/59/54 34/35/35
f 35/34/34 53/60/55 52/59/54
f 34/35/35 52/59/54 54/61/56
f 34/35/35 54/61/56 36/36/36
f 36/36/36 54/61/56 55/62/57
f 36/36/36 55/62/57 37/37/37
f 37/37/37 7/63/58 4/38/38
f 37/37/37 55/62/57 7/63/58
f 53/60/55 56/64/59 52/59/54
f 53/60/55 57/65/60 56/64/59
f 52/59/54 56/64/59 58/66/61
f 52/59/54 58/66/61 54/61/56
f 54/61/56 376/67/62 55/62/57
f 54/61/56 58/66/61 376/67/62
f 55/62/57 8/68/63 7/63/58
f 55/62/57 376/67/62 8/68/63
f 57/65/60 59/69/64 56/64/59
f 57/65/60 60/70/65 59/69/64
f 56/64/59 61/71/66 58/66/61
f 56/64/59 59/69/64 61/71/66
f 58/66/61 9/72/67 376/67/62
f 58/66/61 61/71/66 9/72/67
f 60/70/65 62/73/4 59/69/64
f 60/70/65 11/74/1 62/73/4
f 59/69/64 15/75/6 61/71/66
f 59/69/64 62/73/4 15/75/6
f 61/71/66 10/76/8 9/72/67
f 61/71/66 15/75/6 10/76/8
f 23/21/21 63/77/68 25/22/22
f 63/77/68 23/21/21 196/78/69
f 31/29/29 25/22/22 63/77/68
f 63/77/68 194/79/70 31/29/29
f 31/29/29 194/79/70 195/80/71
f 195/80/71 35/34/34 31/29/29
f 195/80/71 53/60/55 35/34/34
f 195/80/71 64/81/72 53/60/55
f 64/81/72 57/65/60 53/60/55
f 64/81/72 65/82/73 57/65/60
f 65/82/73 60/70/65 57/65/60
f 65/82/73 202/83/74 60/70/65
f 202/83/74 11/74/1 60/70/65
f 202/83/74 66/84/75 11/74/1
f 201/85/76 13/2/2 66/86/75
f 66/86/75 13/2/2 11/1/1
f 200/87/77 17/9/9 13/2/2
f 13/2/2 201/85/76 200/87/77
f 200/87/77 199/88/78 17/9/9
f 199/88/78 20/14/14 17/9/9
f 199/89/78 198/90/79 20/39/14
f 39/40/39 20/39/14 198/90/79
f 198/90/79 197/91/80 39/40/39
f 44/49/44 39/40/39 197/91/80
f 197/91/80 67/92/81 44/49/44
f 48/54/49 44/49/44 67/92/81
f 67/92/81 196/78/69 48/54/49
f 23/21/21 48/54/49 196/78/69
f 95/93/82 68/94/83 192/95/84
f 68/94/83 69/96/85 192/95/84
f 68/94/83 71/13/86 70/97/87
f 70/97/87 69/96/85 68/94/83
f 71/13/86 72/18/88 70/97/87
f 72/18/88 73/98/89 70/97/87
f 74/99/90 76/28/91 75/100/92
f 74/99/90 77/27/93 76/28/91
f 75/100/92 79/33/94 78/101/95
f 75/100/92 76/28/91 79/33/94
f 78/101/95 81/38/96 80/102/97
f 78/101/95 79/33/94 81/38/96
f 72/47/88 82/48/98 73/103/89
f 83/104/99 73/103/89 82/48/98
f 82/48/98 84/53/100 83/104/99
f 85/105/101 83/104/99 84/53/100
f 84/53/100 86/58/102 85/105/101
f 87/106/103 85/105/101 86/58/102
f 86/58/102 77/27/93 87/106/103
f 74/99/90 87/106/103 77/27/93
f 81/38/96 88/107/104 80/102/97
f 81/38/96 89/63/105 88/107/104
f 89/63/105 90/108/106 88/107/104
f 89/63/105 91/68/107 90/108/106
f 91/68/107 92/109/108 90/108/106
f 91/68/107 93/110/109 92/109/108
f 94/72/110 95/111/82 93/110/109
f 94/72/110 96/76/111 95/111/82
f 97/1/112 99/2/113 98/3/114
f 98/3/114 193/4/115 97/1/112
f 193/4/115 98/3/114 100/5/116
f 100/5/116 101/6/117 193/4/115
f 101/6/117 100/5/116 102/7/118
f 102/7/118 96/8/111 101/6/117
f 96/8/111 102/7/118 95/93/82
f 102/7/118 68/94/83 95/93/82
f 103/112/119 105/113/120 104/114/121
f 103/112/119 106/115/122 105/113/120
f 107/116/123 108/117/124 104/114/121
f 104/114/121 108/117/124 103/112/119
f 192/95/84 69/96/85 107/116/123
f 107/116/123 69/96/85 108/117/124
f 99/2/113 110/9/125 109/10/126
f 109/10/126 98/3/114 99/2/113
f 98/3/114 109/10/126 111/11/127
f 111/11/127 100/5/116 98/3/114
f 100/5/116 111/11/127 112/12/128
f 112/12/128 102/7/118 100/5/116
f 102/7/118 112/12/128 71/13/86
f 71/13/86 68/94/83 102/7/118
f 113/118/129 106/115/122 103/112/119
f 113/118/129 114/119/130 106/115/122
f 108/117/124 115/120/131 103/112/119
f 103/112/119 115/120/131 113/118/129
f 69/96/85 70/97/87 108/117/124
f 108/117/124 70/97/87 115/120/131
f 110/9/125 116/14/132 147/15/133
f 147/15/133 109/10/126 110/9/125
f 109/10/126 147/15/133 117/16/134
f 117/16/134 111/11/127 109/10/126
f 111/11/127 117/16/134 151/17/135
f 151/17/135 112/12/128 111/11/127
f 112/12/128 151/17/135 71/13/86
f 72/18/88 71/13/86 151/17/135
f 156/121/136 114/119/130 113/118/129
f 156/121/136 154/122/137 114/119/130
f 115/120/131 118/123/138 113/118/129
f 113/118/129 118/123/138 156/121/136
f 70/97/87 73/98/89 115/120/131
f 115/120/131 73/98/89 118/123/138
f 119/19/139 121/20/140 120/21/141
f 120/21/141 122/22/142 119/19/139
f 123/23/143 124/24/144 119/19/139
f 119/19/139 124/24/144 121/20/140
f 125/25/145 126/26/146 123/23/143
f 123/23/143 126/26/146 124/24/144
f 77/27/93 125/25/145 76/28/91
f 77/27/93 126/26/146 125/25/145
f 127/124/147 129/125/148 128/126/149
f 128/126/149 130/127/150 127/124/147
f 127/124/147 130/127/150 131/128/151
f 131/128/151 132/129/152 127/124/147
f 132/129/152 131/128/151 74/99/90
f 74/99/90 75/100/92 132/129/152
f 119/19/139 134/29/153 133/30/154
f 119/19/139 122/22/142 134/29/153
f 135/31/155 123/23/143 133/30/154
f 133/30/154 123/23/143 119/19/139
f 136/32/156 125/25/145 135/31/155
f 135/31/155 125/25/145 123/23/143
f 76/28/91 136/32/156 79/33/94
f 76/28/91 125/25/145 136/32/156
f 137/130/157 129/125/148 127/124/147
f 127/124/147 138/131/158 137/130/157
f 138/131/158 127/124/147 132/129/152
f 132/129/152 139/132/159 138/131/158
f 139/132/159 132/129/152 75/100/92
f 75/100/92 78/101/95 139/132/159
f 133/30/154 141/34/160 140/35/161
f 133/30/154 134/29/153 141/34/160
f 142/36/162 135/31/155 140/35/161
f 140/35/161 135/31/155 133/30/154
f 143/37/163 136/32/156 142/36/162
f 142/36/162 136/32/156 135/31/155
f 79/33/94 143/37/163 81/38/96
f 79/33/94 136/32/156 143/37/163
f 144/133/164 137/130/157 138/131/158
f 138/131/158 145/134/165 144/133/164
f 145/134/165 138/131/158 139/132/159
f 139/132/159 146/135/166 145/134/165
f 146/135/166 139/132/159 78/101/95
f 78/101/95 80/102/97 146/135/166
f 116/39/132 148/40/167 147/41/133
f 149/42/168 147/41/133 148/40/167
f 147/41/133 149/42/168 117/43/134
f 150/44/169 117/43/134 149/42/168
f 117/43/134 150/44/169 151/45/135
f 152/46/170 151/45/135 150/44/169
f 151/45/135 152/46/170 72/47/88
f 82/48/98 72/47/88 152/46/170
f 153/136/171 155/137/172 154/138/137
f 154/138/137 156/139/136 153/136/171
f 157/140/173 153/136/171 156/139/136
f 156/139/136 118/141/138 157/140/173
f 83/104/99 157/140/173 118/141/138
f 118/141/138 73/103/89 83/104/99
f 148/40/167 158/49/174 149/42/168
f 159/50/175 149/42/168 158/49/174
f 149/42/168 159/50/175 150/44/169
f 160/51/176 150/44/169 159/50/175
f 150/44/169 160/51/176 152/46/170
f 161/52/177 152/46/170 160/51/176
f 152/46/170 161/52/177 82/48/98
f 84/53/100 82/48/98 161/52/177
f 162/142/178 163/143/179 155/137/172
f 155/137/172 153/136/171 162/142/178
f 162/142/178 157/140/173 164/144/180
f 162/142/178 153/136/171 157/140/173
f 85/105/101 164/144/180 157/140/173
f 157/140/173 83/104/99 85/105/101
f 158/49/174 165/54/181 159/50/175
f 166/55/182 159/50/175 165/54/181
f 159/50/175 166/55/182 160/51/176
f 167/56/183 160/51/176 166/55/182
f 160/51/176 167/56/183 161/52/177
f 168/57/184 161/52/177 167/56/183
f 161/52/177 168/57/184 84/53/100
f 86/58/102 84/53/100 168/57/184
f 169/145/185 170/146/186 163/143/179
f 163/143/179 162/142/178 169/145/185
f 169/145/185 164/144/180 171/147/187
f 169/145/185 162/142/178 164/144/180
f 171/147/187 164/144/180 85/105/101
f 85/105/101 87/106/103 171/147/187
f 165/54/181 120/21/141 166/55/182
f 121/20/140 166/55/182 120/21/141
f 166/55/182 121/20/140 167/56/183
f 124/24/144 167/56/183 121/20/140
f 167/56/183 124/24/144 168/57/184
f 126/26/146 168/57/184 124/24/144
f 168/57/184 126/26/146 86/58/102
f 77/27/93 86/58/102 126/26/146
f 130/127/150 128/126/149 170/146/186
f 170/146/186 169/145/185 130/127/150
f 130/127/150 171/147/187 131/128/151
f 130/127/150 169/145/185 171/147/187
f 131/128/151 171/147/187 87/106/103
f 87/106/103 74/99/90 131/128/151
f 141/34/160 172/59/188 140/35/161
f 141/34/160 173/60/189 172/59/188
f 140/35/161 172/59/188 174/61/190
f 140/35/161 174/61/190 142/36/162
f 142/36/162 174/61/190 175/62/191
f 142/36/162 175/62/191 143/37/163
f 143/37/163 89/63/105 81/38/96
f 143/37/163 175/62/191 89/63/105
f 145/134/165 176/148/192 144/133/164
f 145/134/165 177/149/193 176/148/192
f 145/134/165 146/135/166 178/150/194
f 178/150/194 177/149/193 145/134/165
f 146/135/166 80/102/97 88/107/104
f 88/107/104 178/150/194 146/135/166
f 173/60/189 179/64/195 172/59/188
f 173/60/189 180/65/196 179/64/195
f 172/59/188 179/64/195 181/66/197
f 172/59/188 181/66/197 174/61/190
f 174/61/190 182/67/198 175/62/191
f 174/61/190 181/66/197 182/67/198
f 175/62/191 91/68/107 89/63/105
f 175/62/191 182/67/198 91/68/107
f 177/149/193 183/151/199 176/148/192
f 177/149/193 184/152/200 183/151/199
f 177/149/193 178/150/194 185/153/201
f 185/153/201 184/152/200 177/149/193
f 178/150/194 88/107/104 90/108/106
f 90/108/106 185/153/201 178/150/194
f 180/65/196 186/69/202 179/64/195
f 180/65/196 187/70/203 186/69/202
f 179/64/195 188/71/204 181/66/197
f 179/64/195 186/69/202 188/71/204
f 181/66/197 94/72/110 182/67/198
f 181/66/197 188/71/204 94/72/110
f 182/67/198 93/110/109 91/68/107
f 182/67/198 94/72/110 93/110/109
f 184/152/200 189/154/205 183/151/199
f 184/152/200 190/155/206 189/154/205
f 184/152/200 185/153/201 191/156/207
f 191/156/207 190/155/206 184/152/200
f 185/153/201 90/108/106 92/109/108
f 92/109/108 191/156/207 185/153/201
f 190/155/206 105/157/120 189/154/205
f 190/155/206 104/158/121 105/157/120
f 104/158/121 190/155/206 191/156/207
f 191/156/207 107/159/123 104/158/121
f 191/156/207 92/109/108 107/159/123
f 92/109/108 192/160/84 107/159/123
f 93/110/109 192/160/84 92/109/108
f 93/110/109 95/111/82 192/160/84
f 187/70/203 193/73/115 186/69/202
f 187/70/203 97/74/112 193/73/115
f 186/69/202 101/75/117 188/71/204
f 186/69/202 193/73/115 101/75/117
f 188/71/204 96/76/111 94/72/110
f 188/71/204 101/75/117 96/76/111
f 194/161/70 137/130/157 195/162/71
f 195/162/71 137/130/157 144/133/164
f 63/163/68 129/125/148 137/130/157
f 137/130/157 194/161/70 63/163/68
f 63/163/68 196/164/69 128/126/149
f 128/126/149 129/125/148 63/163/68
f 128/126/149 196/164/69 67/165/81
f 67/165/81 170/146/186 128/126/149
f 170/146/186 67/165/81 197/166/80
f 197/166/80 163/143/179 170/146/186
f 163/143/179 197/166/80 198/167/79
f 198/167/79 155/137/172 163/143/179
f 155/137/172 198/167/79 199/168/78
f 199/168/78 154/138/137 155/137/172
f 114/119/130 154/122/137 199/169/78
f 199/169/78 200/170/77 114/119/130
f 106/115/122 114/119/130 200/170/77
f 200/170/77 201/171/76 106/115/122
f 106/115/122 66/172/75 105/113/120
f 106/115/122 201/171/76 66/172/75
f 189/154/205 66/173/75 202/174/74
f 189/154/205 105/157/120 66/173/75
f 183/151/199 202/174/74 65/175/73
f 183/151/199 189/154/205 202/174/74
f 176/148/192 65/175/73 64/176/72
f 176/148/192 183/151/199 65/175/73
f 144/133/164 64/176/72 195/162/71
f 144/133/164 176/148/192 64/176/72
f 120/21/141 203/77/208 122/22/142
f 203/77/208 120/21/141 204/78/209
f 134/29/153 122/22/142 203/77/208
f 203/77/208 205/79/210 134/29/153
f 134/29/153 205/79/210 206/80/211
f 206/80/211 141/34/160 134/29/153
f 206/80/211 173/60/189 141/34/160
f 206/80/211 207/81/212 173/60/189
f 207/81/212 180/65/196 173/60/189
f 207/81/212 208/82/213 180/65/196
f 208/82/213 187/70/203 180/65/196
f 208/82/213 209/83/214 187/70/203
f 209/83/214 97/74/112 187/70/203
f 209/83/214 211/84/215 97/74/112
f 210/85/216 99/2/113 211/86/215
f 211/86/215 99/2/113 97/1/112
f 212/87/217 110/9/125 99/2/113
f 99/2/113 210/85/216 212/87/217
f 212/87/217 213/88/218 110/9/125
f 213/88/218 116/14/132 110/9/125
f 213/89/218 214/90/219 116/39/132
f 148/40/167 116/39/132 214/90/219
f 214/90/219 215/91/220 148/40/167
f 158/49/174 148/40/167 215/91/220
f 215/91/220 216/92/221 158/49/174
f 165/54/181 158/49/174 216/92/221
f 216/92/221 204/78/209 165/54/181
f 120/21/141 165/54/181 204/78/209
f 217/177/222 218/178/223 219/179/224
f 218/178/223 217/177/222 220/180/225
f 217/177/222 221/181/226 222/182/227
f 217/177/222 222/182/227 220/180/225
f 222/182/227 223/183/228 224/184/229
f 223/183/228 222/182/227 221/181/226
f 243/185/230 225/186/231 244/187/232
f 225/186/231 243/185/230 226/188/233
f 225/186/231 226/188/233 227/189/234
f 227/189/234 226/188/233 228/190/235
f 227/189/234 228/190/235 229/191/236
f 229/191/236 228/190/235 230/192/237
f 229/193/236 230/194/237 231/195/238
f 232/196/239 231/195/238 230/194/237
f 231/195/238 232/196/239 233/197/240
f 234/198/241 233/197/240 232/196/239
f 235/199/242 234/198/241 236/200/243
f 234/198/241 235/199/242 233/197/240
f 219/179/224 218/178/223 236/200/243
f 218/178/223 235/199/242 236/200/243
f 224/184/229 223/183/228 237/201/244
f 224/184/229 237/201/244 238/202/245
f 238/202/245 237/201/244 239/203/246
f 238/202/245 239/203/246 240/204/247
f 240/204/247 239/203/246 241/205/248
f 240/204/247 241/205/248 242/206/249
f 242/206/249 241/205/248 243/207/230
f 242/206/249 243/207/230 244/208/232
f 246/209/250 309/210/251 245/211/252
f 218/178/223 220/180/225 246/209/250
f 218/178/223 246/209/250 245/211/252
f 247/212/253 248/213/254 249/214/255
f 249/214/255 248/213/254 250/215/256
f 248/213/254 217/177/222 250/215/256
f 250/215/256 217/177/222 219/179/224
f 246/209/250 251/216/257 252/217/258
f 220/180/225 222/182/227 251/216/257
f 220/180/225 251/216/257 246/209/250
f 253/218/259 248/213/254 247/212/253
f 248/213/254 253/218/259 254/219/260
f 254/219/260 217/177/222 248/213/254
f 217/177/222 254/219/260 221/181/226
f 255/220/261 252/217/258 251/216/257
f 252/217/258 255/220/261 256/221/262
f 224/184/229 255/220/261 222/182/227
f 255/220/261 251/216/257 222/182/227
f 257/222/263 258/223/264 253/218/259
f 253/218/259 258/223/264 254/219/260
f 258/223/264 221/181/226 254/219/260
f 221/181/226 258/223/264 223/183/228
f 259/224/265 260/225/266 261/226/267
f 261/226/267 260/225/266 262/227/268
f 260/225/266 225/186/231 262/227/268
f 225/186/231 260/225/266 244/187/232
f 263/228/269 264/229/270 265/230/271
f 263/228/269 265/230/271 266/231/272
f 243/185/230 263/228/269 226/188/233
f 263/228/269 243/185/230 264/229/270
f 261/226/267 267/232/273 268/233/274
f 267/232/273 261/226/267 262/227/268
f 262/227/268 227/189/234 267/232/273
f 227/189/234 262/227/268 225/186/231
f 269/234/275 263/228/269 270/235/276
f 263/228/269 266/231/272 270/235/276
f 228/190/235 226/188/233 263/228/269
f 228/190/235 263/228/269 269/234/275
f 268/233/274 267/232/273 271/236/277
f 274/237/278 271/236/277 267/232/273
f 267/232/273 227/189/234 274/237/278
f 274/237/278 227/189/234 229/191/236
f 272/238/279 269/234/275 270/235/276
f 272/238/279 270/235/276 273/239/280
f 228/190/235 272/238/279 230/192/237
f 272/238/279 228/190/235 269/234/275
f 271/240/277 274/241/278 275/242/281
f 276/243/282 275/242/281 274/241/278
f 274/241/278 229/193/236 276/243/282
f 276/243/282 229/193/236 231/195/238
f 277/244/283 273/245/280 278/246/284
f 273/245/280 277/244/283 272/247/279
f 232/196/239 272/247/279 277/244/283
f 272/247/279 232/196/239 230/194/237
f 275/242/281 276/243/282 279/248/285
f 280/249/286 279/248/285 276/243/282
f 276/243/282 231/195/238 280/249/286
f 233/197/240 280/249/286 231/195/238
f 281/250/287 278/246/284 282/251/288
f 278/246/284 281/250/287 277/244/283
f 234/198/241 277/244/283 281/250/287
f 277/244/283 234/198/241 232/196/239
f 279/248/285 280/249/286 318/252/289
f 283/253/290 318/252/289 280/249/286
f 283/253/290 233/197/240 235/199/242
f 233/197/240 283/253/290 280/249/286
f 284/254/291 282/251/288 285/255/292
f 282/251/288 284/254/291 281/250/287
f 236/200/243 281/250/287 284/254/291
f 281/250/287 236/200/243 234/198/241
f 318/252/289 283/253/290 309/210/251
f 245/211/252 309/210/251 283/253/290
f 218/178/223 245/211/252 235/199/242
f 245/211/252 283/253/290 235/199/242
f 250/215/256 285/255/292 249/214/255
f 285/255/292 250/215/256 284/254/291
f 219/179/224 284/254/291 250/215/256
f 284/254/291 219/179/224 236/200/243
f 256/221/262 255/220/261 286/256/293
f 256/221/262 286/256/293 287/257/294
f 255/220/261 224/184/229 238/202/245
f 255/220/261 238/202/245 286/256/293
f 258/223/264 257/222/263 288/258/295
f 258/223/264 288/258/295 289/259/296
f 223/183/228 258/223/264 289/259/296
f 223/183/228 289/259/296 237/201/244
f 287/257/294 286/256/293 290/260/297
f 287/257/294 290/260/297 291/261/298
f 286/256/293 238/202/245 240/204/247
f 286/256/293 240/204/247 290/260/297
f 289/259/296 288/258/295 292/262/299
f 289/259/296 292/262/299 293/263/300
f 237/201/244 289/259/296 293/263/300
f 237/201/244 293/263/300 239/203/246
f 291/261/298 290/260/297 294/264/301
f 291/261/298 294/264/301 295/265/302
f 290/260/297 240/204/247 242/206/249
f 290/260/297 242/206/249 294/264/301
f 293/263/300 292/262/299 296/266/303
f 293/263/300 296/266/303 297/267/304
f 239/203/246 293/263/300 297/267/304
f 239/203/246 297/267/304 241/205/248
f 295/265/302 260/268/266 259/269/265
f 295/265/302 294/264/301 260/268/266
f 294/264/301 242/206/249 244/208/232
f 294/264/301 244/208/232 260/268/266
f 264/270/270 297/267/304 265/271/271
f 297/267/304 296/266/303 265/271/271
f 241/205/248 297/267/304 264/270/270
f 241/205/248 264/270/270 243/207/230
f 384/272/305 257/222/263 298/273/306
f 253/218/259 298/273/306 257/222/263
f 298/273/306 247/212/253 299/274/307
f 247/212/253 298/273/306 253/218/259
f 299/274/307 247/212/253 300/275/308
f 300/275/308 247/212/253 249/214/255
f 249/214/255 385/276/309 300/275/308
f 385/276/309 249/214/255 285/255/292
f 285/255/292 301/277/310 385/276/309
f 301/277/310 285/255/292 282/251/288
f 282/251/288 302/278/311 301/277/310
f 302/278/311 282/251/288 278/246/284
f 278/246/284 303/279/312 302/278/311
f 303/279/312 278/246/284 273/245/280
f 270/235/276 303/280/312 273/239/280
f 303/280/312 270/235/276 304/281/313
f 266/231/272 304/281/313 270/235/276
f 304/281/313 266/231/272 305/282/314
f 265/230/271 305/282/314 266/231/272
f 305/282/314 265/230/271 386/283/315
f 296/266/303 306/284/316 386/285/315
f 296/266/303 386/285/315 265/271/271
f 292/262/299 307/286/317 306/284/316
f 292/262/299 306/284/316 296/266/303
f 288/258/295 308/287/318 307/286/317
f 288/258/295 307/286/317 292/262/299
f 257/222/263 308/287/318 288/258/295
f 308/287/318 257/222/263 384/272/305
f 252/217/319 309/288/251 246/289/250
f 252/217/258 310/290/320 246/291/321
f 310/290/320 252/217/258 256/221/262
f 310/290/320 256/221/262 287/257/294
f 311/292/322 310/293/320 291/261/298
f 310/293/320 287/257/294 291/261/298
f 319/294/323 311/292/322 295/265/302
f 311/292/322 291/261/298 295/265/302
f 312/295/324 295/265/302 259/269/265
f 312/295/324 259/269/265 313/296/325
f 314/297/326 313/298/325 261/226/267
f 313/298/325 259/224/265 261/226/267
f 314/297/326 261/226/267 315/299/327
f 315/299/327 261/226/267 268/233/274
f 315/300/327 268/233/274 271/236/277
f 315/301/327 271/240/277 316/302/328
f 275/242/281 316/302/328 271/240/277
f 316/302/328 275/242/281 317/303/329
f 279/248/285 317/303/329 275/242/281
f 317/303/329 279/248/285 318/304/289
f 312/295/324 319/294/323 295/265/302
f 338/93/330 320/94/331 383/95/332
f 320/94/331 321/96/333 383/95/332
f 320/94/331 1/13/13 322/97/334
f 322/97/334 321/96/333 320/94/331
f 1/13/13 323/18/18 322/97/334
f 323/18/18 324/98/335 322/97/334
f 325/99/336 2/28/28 326/100/337
f 325/99/336 327/27/27 2/28/28
f 326/100/337 3/33/33 328/101/338
f 326/100/337 2/28/28 3/33/33
f 328/101/338 4/38/38 329/102/339
f 328/101/338 3/33/33 4/38/38
f 323/47/18 5/48/43 324/103/335
f 330/104/340 324/103/335 5/48/43
f 5/48/43 6/53/48 330/104/340
f 331/105/341 330/104/340 6/53/48
f 6/53/48 332/58/53 331/105/341
f 333/106/342 331/105/341 332/58/53
f 332/58/53 327/27/27 333/106/342
f 325/99/336 333/106/342 327/27/27
f 4/38/38 334/107/343 329/102/339
f 4/38/38 7/63/58 334/107/343
f 7/63/58 335/108/344 334/107/343
f 7/63/58 8/68/63 335/108/344
f 8/68/63 336/109/345 335/108/344
f 8/68/63 337/110/346 336/109/345
f 9/72/67 338/111/330 337/110/346
f 9/72/67 10/76/8 338/111/330
f 10/8/8 339/7/7 338/93/330
f 339/7/7 320/94/331 338/93/330
f 340/112/347 342/113/348 341/114/349
f 340/112/347 343/115/350 342/113/348
f 344/116/351 345/117/352 341/114/349
f 341/114/349 345/117/352 340/112/347
f 383/95/332 321/96/333 344/116/351
f 344/116/351 321/96/333 345/117/352
f 1/13/13 320/94/331 339/7/7
f 346/118/353 343/115/350 340/112/347
f 346/118/353 347/119/354 343/115/350
f 345/117/352 348/120/355 340/112/347
f 340/112/347 348/120/355 346/118/353
f 321/96/333 322/97/334 345/117/352
f 345/117/352 322/97/334 348/120/355
f 365/121/356 347/119/354 346/118/353
f 365/121/356 363/122/357 347/119/354
f 348/120/355 349/123/358 346/118/353
f 346/118/353 349/123/358 365/121/356
f 322/97/334 324/98/335 348/120/355
f 348/120/355 324/98/335 349/123/358
f 350/124/359 352/125/360 351/126/361
f 351/126/361 353/127/362 350/124/359
f 350/124/359 353/127/362 354/128/363
f 354/128/363 355/129/364 350/124/359
f 355/129/364 354/128/363 325/99/336
f 325/99/336 326/100/337 355/129/364
f 356/130/365 352/125/360 350/124/359
f 350/124/359 357/131/366 356/130/365
f 357/131/366 350/124/359 355/129/364
f 355/129/364 358/132/367 357/131/366
f 358/132/367 355/129/364 326/100/337
f 326/100/337 328/101/338 358/132/367
f 359/133/368 356/130/365 357/131/366
f 357/131/366 360/134/369 359/133/368
f 360/134/369 357/131/366 358/132/367
f 358/132/367 361/135/370 360/134/369
f 361/135/370 358/132/367 328/101/338
f 328/101/338 329/102/339 361/135/370
f 362/136/371 364/137/372 363/138/357
f 363/138/357 365/139/356 362/136/371
f 366/140/373 362/136/371 365/139/356
f 365/139/356 349/141/358 366/140/373
f 330/104/340 366/140/373 349/141/358
f 349/141/358 324/103/335 330/104/340
f 367/142/374 368/143/375 364/137/372
f 364/137/372 362/136/371 367/142/374
f 367/142/374 366/140/373 369/144/376
f 367/142/374 362/136/371 366/140/373
f 331/105/341 369/144/376 366/140/373
f 366/140/373 330/104/340 331/105/341
f 370/145/377 371/146/378 368/143/375
f 368/143/375 367/142/374 370/145/377
f 370/145/377 369/144/376 372/147/379
f 370/145/377 367/142/374 369/144/376
f 372/147/379 369/144/376 331/105/341
f 331/105/341 333/106/342 372/147/379
f 353/127/362 351/126/361 371/146/378
f 371/146/378 370/145/377 353/127/362
f 353/127/362 372/147/379 354/128/363
f 353/127/362 370/145/377 372/147/379
f 354/128/363 372/147/379 333/106/342
f 333/106/342 325/99/336 354/128/363
f 360/134/369 373/148/380 359/133/368
f 360/134/369 374/149/381 373/148/380
f 360/134/369 361/135/370 375/150/382
f 375/150/382 374/149/381 360/134/369
f 361/135/370 329/102/339 334/107/343
f 334/107/343 375/150/382 361/135/370
f 374/149/381 377/151/383 373/148/380
f 374/149/381 378/152/384 377/151/383
f 374/149/381 375/150/382 379/153/385
f 379/153/385 378/152/384 374/149/381
f 375/150/382 334/107/343 335/108/344
f 335/108/344 379/153/385 375/150/382
f 376/67/62 337/110/346 8/68/63
f 376/67/62 9/72/67 337/110/346
f 378/152/384 380/154/386 377/151/383
f 378/152/384 381/155/387 380/154/386
f 378/152/384 379/153/385 382/156/388
f 382/156/388 381/155/387 378/152/384
f 379/153/385 335/108/344 336/109/345
f 336/109/345 382/156/388 379/153/385
f 381/155/387 342/157/348 380/154/386
f 381/155/387 341/158/349 342/157/348
f 341/158/349 381/155/387 382/156/388
f 382/156/388 344/159/351 341/158/349
f 382/156/388 336/109/345 344/159/351
f 336/109/345 383/160/332 344/159/351
f 337/110/346 383/160/332 336/109/345
f 337/110/346 338/111/330 383/160/332
f 298/161/306 356/130/365 384/162/305
f 384/162/305 356/130/365 359/133/368
f 299/163/307 352/125/360 356/130/365
f 356/130/365 298/161/306 299/163/307
f 299/163/307 300/164/308 351/126/361
f 351/126/361 352/125/360 299/163/307
f 351/126/361 300/164/308 385/165/309
f 385/165/309 371/146/378 351/126/361
f 371/146/378 385/165/309 301/166/310
f 301/166/310 368/143/375 371/146/378
f 368/143/375 301/166/310 302/167/311
f 302/167/311 364/137/372 368/143/375
f 364/137/372 302/167/311 303/168/312
f 303/168/312 363/138/357 364/137/372
f 347/119/354 363/122/357 303/169/312
f 303/169/312 304/170/313 347/119/354
f 343/115/350 347/119/354 304/170/313
f 304/170/313 305/171/314 343/115/350
f 343/115/350 386/172/315 342/113/348
f 343/115/350 305/171/314 386/172/315
f 380/154/386 386/173/315 306/174/316
f 380/154/386 342/157/348 386/173/315
f 377/151/383 306/174/316 307/175/317
f 377/151/383 380/154/386 306/174/316
f 373/148/380 307/175/317 308/176/318
f 373/148/380 377/151/383 307/175/317
f 359/133/368 308/176/318 384/162/305
f 359/133/368 373/148/380 308/176/318
