# Blender 4.4.1
# www.blender.org
mtllib Rails_End_1.mtl
g Rails_End_1_LOD_0_Mesh
v 1.001766 0.103617 -1.114547
v 0.997500 0.028274 -1.141106
v 0.962846 0.013395 -0.852353
v 0.958579 -0.061947 -0.878912
v -1.279184 0.449313 -0.833906
v -1.310049 0.380654 -0.860984
v -1.270914 0.343421 -0.574833
v -1.301779 0.274762 -0.601911
v 1.137586 0.080000 0.903281
v 1.137586 0.000000 0.903281
v 1.051796 0.080000 1.169815
v 1.051796 0.000000 1.169815
v -1.051796 0.080000 0.198577
v -1.051796 0.000000 0.198577
v -1.137586 0.080000 0.465110
v -1.137586 0.000000 0.465110
v -1.182257 0.650508 -0.825998
v -1.319278 0.590977 -0.886998
v -0.968850 0.280000 1.500000
v -1.013937 0.080000 1.500000
v -1.104798 0.635496 -0.905224
v -1.191094 0.566134 -1.018106
v -0.831150 0.280000 1.500000
v -0.786063 0.080000 1.500000
v -1.193423 0.644063 -0.834692
v -0.831150 0.260000 1.500000
v -0.968850 0.260000 1.500000
v -1.115964 0.629051 -0.913918
v -1.196479 0.636047 -0.851680
v -0.954434 0.240000 1.500000
v -1.135239 0.624179 -0.914318
v -0.845565 0.240000 1.500000
v -1.262192 0.609183 -0.876997
v -0.979943 0.148000 1.500000
v -1.172253 0.591752 -0.968987
v -0.820058 0.148000 1.500000
v -1.304763 0.599355 -0.875696
v -1.013937 0.106000 1.500000
v -1.176579 0.574512 -1.006804
v -0.786063 0.106000 1.500000
v -0.938728 0.291195 1.500000
v -0.861272 0.291195 1.500000
v -1.159063 0.650832 -0.838462
v -1.115492 0.642387 -0.883027
v 0.888446 0.198368 -1.038368
v 0.901000 0.049881 -0.960538
v 0.968850 0.280000 1.500000
v 1.013937 0.080000 1.500000
v 0.754154 0.210106 -1.066458
v 0.680218 0.052788 -1.016870
v 0.831150 0.280000 1.500000
v 0.786063 0.080000 1.500000
v 0.884601 0.176556 -1.044901
v 0.831150 0.260000 1.500000
v 0.968850 0.260000 1.500000
v 0.751187 0.178312 -1.078942
v 0.867603 0.160337 -1.037430
v 0.954434 0.240000 1.500000
v 0.762122 0.161726 -1.064343
v 0.845565 0.240000 1.500000
v 0.878371 0.106082 -1.006462
v 0.979942 0.148000 1.500000
v 0.723462 0.108121 -1.045987
v 0.820058 0.148000 1.500000
v 0.904942 0.071204 -0.974884
v 1.013937 0.106000 1.500000
v 0.684159 0.074111 -1.031217
v 0.786063 0.106000 1.500000
v 0.938728 0.291195 1.500000
v 0.861272 0.291195 1.500000
v 0.860018 0.212090 -1.044384
v 0.784478 0.218692 -1.060185
v -0.839521 0.114833 0.057379
v -1.021766 0.311857 0.094522
v -0.884869 0.313517 0.079764
v -1.066066 0.112086 0.081802
v -1.021713 0.291935 0.092767
v -0.884817 0.293595 0.078009
v -0.899096 0.273498 0.077798
v -1.007330 0.272186 0.089467
v -1.032448 0.180234 0.084126
v -0.873496 0.182161 0.066990
v -0.839589 0.140733 0.059661
v -1.066134 0.137986 0.084084
v -0.991849 0.323372 0.092276
v -0.914845 0.324306 0.083975
v -0.995042 0.427175 -0.472486
v -1.212231 0.276917 -0.465039
v -1.000157 0.408291 -0.476413
v -1.018367 0.392450 -0.476656
v -1.018729 0.300201 -0.501243
v -0.998593 0.253370 -0.518180
v -1.019539 0.444103 -0.462588
v -1.005243 0.228821 -0.523286
v -1.120120 0.456238 -0.437288
v -1.125236 0.437355 -0.441216
v -1.117257 0.415428 -0.448828
v -1.163959 0.333947 -0.460375
v -1.205581 0.301466 -0.459933
v -1.089896 0.460451 -0.442789
v -1.101586 0.518663 -0.723307
v -1.349363 0.462039 -0.724713
v -1.111998 0.506382 -0.730275
v -1.133740 0.499321 -0.731859
v -1.161594 0.433590 -0.773437
v -1.156745 0.395490 -0.800765
v -1.119429 0.536445 -0.708157
v -1.170282 0.379524 -0.809823
v -1.209801 0.568526 -0.671877
v -1.220214 0.556245 -0.678845
v -1.219298 0.538743 -0.691197
v -1.287243 0.491486 -0.713720
v -1.335826 0.478005 -0.715655
v -1.180300 0.564493 -0.679228
v -0.930166 0.133990 -0.168461
v -1.045043 0.361407 -0.082463
v -1.050159 0.342524 -0.086391
v -1.042180 0.320597 -0.094003
v -1.088882 0.239116 -0.105550
v -1.130504 0.206635 -0.105109
v -1.014819 0.365620 -0.087964
v -0.919965 0.332344 -0.117661
v -1.137154 0.182086 -0.110214
v -0.925081 0.313460 -0.121589
v -0.943290 0.297619 -0.121831
v -0.943652 0.205370 -0.146418
v -0.923516 0.158539 -0.163355
v -0.944462 0.349272 -0.107763
v -0.786063 0.079259 0.806001
v -0.968850 0.279259 0.806001
v -0.968850 0.259259 0.806001
v -0.954435 0.239259 0.806001
v -0.979943 0.147259 0.806001
v -1.013937 0.105259 0.806001
v -0.938728 0.290454 0.806001
v -0.831150 0.279259 0.806001
v -1.013937 0.079259 0.806001
v -0.831150 0.259259 0.806001
v -0.845566 0.239259 0.806001
v -0.820058 0.147259 0.806001
v -0.786063 0.105259 0.806001
v -0.861272 0.290454 0.806001
v 0.789400 0.056894 0.161120
v 0.951236 0.257519 0.154750
v 0.813834 0.256988 0.163776
v 1.016783 0.057772 0.146184
v 0.951277 0.237527 0.154189
v 0.813874 0.236996 0.163214
v 0.848451 0.217060 0.161708
v 0.936933 0.217480 0.154573
v 0.982724 0.125614 0.150320
v 0.823184 0.124998 0.160800
v 0.789348 0.082883 0.161849
v 1.016730 0.083762 0.146913
v 0.921157 0.268594 0.157038
v 0.843868 0.268295 0.162115
v 0.860869 0.405079 -0.430917
v 1.014342 0.200856 -0.464288
v 0.839239 0.385118 -0.429685
v 0.852990 0.364793 -0.432057
v 0.827368 0.273616 -0.420016
v 0.794039 0.232556 -0.408933
v 0.890138 0.415492 -0.439135
v 0.793776 0.206607 -0.407332
v 0.972725 0.401604 -0.465334
v 0.972523 0.381643 -0.464102
v 0.958367 0.362046 -0.459268
v 0.982126 0.269581 -0.459978
v 1.014605 0.226805 -0.465889
v 0.943683 0.413537 -0.458495
v 0.676523 0.318676 -0.815832
v 0.877814 0.123257 -0.786645
v 0.676979 0.298700 -0.814968
v 0.705871 0.279066 -0.813805
v 0.682477 0.186570 -0.810353
v 0.649459 0.143813 -0.809238
v 0.706374 0.330573 -0.798926
v 0.650053 0.117844 -0.808113
v 0.814154 0.321947 -0.796223
v 0.814611 0.301970 -0.795359
v 0.800660 0.281652 -0.794791
v 0.842283 0.190368 -0.790287
v 0.877220 0.149226 -0.787770
v 0.783792 0.332413 -0.797329
v -0.214096 0.008412 -1.051974
v -0.226831 -0.039609 -0.772705
v -0.143964 -0.071646 -0.801190
v -0.217024 0.062755 -1.033810
v -0.526796 0.085912 -1.006459
v -0.487660 0.048679 -0.720308
v -0.518526 -0.019980 -0.747386
v -0.495930 0.154571 -0.979380
v 0.398961 -0.040233 -0.938754
v 0.402214 0.105646 -1.163587
v 0.297582 0.053566 -1.184819
v 0.384629 0.041519 -0.930007
v 0.249836 0.046365 -1.173165
v 0.336782 0.034769 -0.901370
v 0.348095 -0.039533 -0.928778
v 0.241766 0.113067 -1.152848
v 0.491773 -0.060326 -0.927991
v 0.544440 0.105973 -1.162520
v 0.540174 0.030631 -1.189078
v 0.505519 0.015751 -0.900326
v -0.146414 -0.010989 -1.063922
v -0.059468 -0.022586 -0.792126
v -0.048156 -0.096888 -0.819535
v -0.154485 0.055713 -1.043605
v -0.340563 -0.078933 -0.781877
v -0.317967 0.095618 -1.013871
v -0.348833 0.026959 -1.040949
v -0.309697 -0.010274 -0.754798
v 0.263304 0.117752 -1.161754
v 0.376225 0.033194 -0.902091
v 0.422149 -0.030267 -0.960163
v 0.416343 0.037377 -1.189009
v -0.208127 0.069884 -1.031522
v -0.212856 -0.002778 -1.051049
v -0.235426 -0.124865 -0.806357
v -0.150840 -0.024777 -0.779936
v 0.982306 0.058506 -0.983450
v 0.978040 -0.016836 -1.010009
v 0.389923 0.065867 -1.050232
v 0.524980 0.060862 -1.031423
v 0.520713 -0.014480 -1.057982
v 0.409543 -0.002416 -1.075731
v -0.184662 -0.003146 -0.890425
v 0.354867 0.008419 -1.075351
v 0.298966 0.003416 -1.050972
v 0.289274 0.073918 -1.027109
v -0.097285 -0.053938 -0.941729
v -0.106976 0.016564 -0.917866
v 0.318968 0.076405 -1.048739
v -0.184153 -0.040957 -0.920277
v -1.305914 0.327708 -0.731448
v -1.275048 0.396367 -0.704369
v -0.236429 -0.052193 -0.930793
v -0.522661 0.032966 -0.876922
v -0.491795 0.101625 -0.849844
v -0.313832 0.042672 -0.884335
v -0.344698 -0.025987 -0.911413
v -0.229760 0.012672 -0.901289
v -1.303847 0.301235 -0.666679
v -0.269378 -0.088198 -0.865441
v -0.520593 0.006493 -0.812154
v -0.489727 0.075152 -0.785076
v -0.311764 0.016199 -0.819566
v -0.342630 -0.052460 -0.846645
v -0.290748 0.002369 -0.828632
v -1.272981 0.369894 -0.639601
v -0.209433 -0.018734 -0.820843
v 0.393572 -0.009950 -1.020280
v 0.319518 -0.019216 -0.988895
v 0.313028 0.054343 -0.964239
v -0.072720 -0.075413 -0.880632
v -0.083223 -0.003011 -0.854996
v 0.360875 0.061093 -0.992876
v -0.192625 -0.072103 -0.857260
vn 0.3858 0.8582 0.3385
vn 0.3704 0.8639 0.3413
vn 0.3703 0.8639 0.3413
vn 0.0402 -0.3822 0.9232
vn 0.0295 -0.3782 0.9253
vn 0.0400 -0.3821 0.9233
vn -0.9221 0.3470 0.1713
vn -0.0209 -0.9468 -0.3213
vn 0.0292 -0.9462 -0.3223
vn -0.0676 -0.9361 -0.3452
vn 0.9889 -0.0961 0.1137
vn 0.0590 0.3318 -0.9415
vn 0.1003 0.3257 -0.9401
vn 0.0578 0.3290 -0.9426
vn -0.0000 1.0000 -0.0000
vn -0.3064 -0.0000 0.9519
vn -0.9519 -0.0000 -0.3064
vn -0.0000 -1.0000 -0.0000
vn 0.9519 -0.0000 0.3064
vn 0.3064 -0.0000 -0.9519
vn 0.1814 0.9833 0.0157
vn 0.8209 0.5711 -0.0006
vn 0.8291 0.5588 -0.0182
vn -0.0000 -0.0000 1.0000
vn 0.7949 -0.4495 -0.4075
vn 0.9260 -0.3029 -0.2252
vn 0.9802 0.0846 -0.1790
vn -0.0000 -1.0000 0.0011
vn 0.0007 -0.9997 -0.0236
vn -0.0000 -0.9997 -0.0226
vn -1.0000 -0.0000 -0.0000
vn -0.8199 0.5708 0.0439
vn -0.9993 -0.0000 0.0365
vn -0.2188 0.8971 -0.3839
vn -0.2188 0.8970 -0.3839
vn -0.8112 -0.5847 0.0006
vn -0.8111 -0.5847 0.0172
vn -0.8111 -0.5846 0.0164
vn 0.2209 -0.8085 -0.5454
vn 0.3037 -0.8043 -0.5108
vn 0.2986 -0.8042 -0.5139
vn 0.9151 -0.1880 -0.3567
vn 0.8733 -0.3619 -0.3262
vn 0.9251 -0.1495 -0.3491
vn -0.9636 0.2672 -0.0003
vn -0.9628 0.2669 0.0418
vn -0.9629 0.2666 0.0411
vn -0.7773 0.6291 -0.0007
vn -0.7766 0.6286 0.0420
vn -0.7767 0.6284 0.0423
vn 0.9636 0.2246 -0.1451
vn 0.9954 -0.0030 -0.0953
vn 0.9638 0.2251 -0.1428
vn 0.7734 -0.3686 -0.5158
vn 0.6978 -0.4978 -0.5150
vn 0.7756 -0.3558 -0.5214
vn -0.9993 -0.0001 0.0364
vn -0.9994 -0.0000 0.0354
vn -0.1770 0.9842 -0.0011
vn -0.1734 0.9844 0.0288
vn 0.3537 0.8526 0.3846
vn -0.1727 0.8776 0.4472
vn -0.4222 0.7846 0.4540
vn -0.2189 0.8970 -0.3839
vn -0.8456 0.5323 0.0400
vn -0.1752 0.9844 -0.0146
vn -0.1808 0.9778 0.1055
vn -0.9999 -0.0154 -0.0023
vn -0.6970 0.5619 -0.4455
vn -0.9065 0.2249 -0.3574
vn -0.0039 -0.9935 -0.1142
vn 0.0005 -0.9999 0.0172
vn -0.0000 -0.9999 0.0173
vn 0.8396 0.5386 0.0697
vn 0.9999 -0.0000 -0.0131
vn 1.0000 0.0018 0.0095
vn 0.2317 0.2699 -0.9346
vn 0.2216 0.2573 -0.9406
vn 0.2370 0.3358 -0.9116
vn 0.1957 -0.5721 -0.7965
vn 0.1957 -0.5720 -0.7965
vn 0.1957 -0.5720 -0.7966
vn 0.8112 -0.5819 -0.0582
vn 0.8112 -0.5847 -0.0008
vn 0.8118 -0.5818 -0.0507
vn -0.5565 -0.7765 0.2957
vn -0.8366 -0.5441 0.0638
vn -0.8538 -0.5181 0.0509
vn -0.9620 0.2662 -0.0608
vn -0.8482 0.4309 -0.3081
vn -0.8190 0.4864 -0.3044
vn 0.9007 0.4317 0.0497
vn 0.9610 0.2760 -0.0165
vn 0.8949 0.4439 0.0467
vn 0.2150 -0.4516 -0.8659
vn 0.7777 0.6251 0.0673
vn 0.7772 0.6292 -0.0088
vn 0.7770 0.6260 0.0655
vn -0.7860 0.6164 -0.0480
vn -0.6950 0.6386 -0.3305
vn -0.7876 0.6052 -0.1159
vn -0.9905 -0.0125 0.1373
vn -0.9834 0.0592 -0.1716
vn -0.9971 -0.0196 0.0740
vn 1.0000 0.0019 -0.0009
vn 1.0000 -0.0000 0.0021
vn 1.0000 0.0021 -0.0006
vn 0.1779 0.9839 -0.0190
vn 0.1813 0.9771 0.1110
vn 0.7097 0.6275 -0.3203
vn 0.3300 0.8813 -0.3382
vn 0.1212 0.9378 -0.3254
vn 0.2171 0.1955 -0.9564
vn 0.2042 -0.0061 -0.9789
vn -0.1645 0.9730 0.1617
vn -0.8270 0.5331 0.1785
vn 0.0780 0.9750 0.2082
vn 0.1952 0.9773 0.0820
vn 0.4258 0.9004 0.0891
vn -0.9324 0.1792 0.3137
vn -0.9764 -0.0142 0.2157
vn -0.9312 0.1872 0.3128
vn 0.9763 0.0145 -0.2158
vn 0.9993 0.0001 -0.0362
vn 0.9994 -0.0000 -0.0351
vn 0.7574 0.6413 -0.1228
vn 0.7771 0.6292 -0.0136
vn 0.7772 0.6291 -0.0129
vn -0.5846 0.7258 0.3626
vn -0.7427 0.6141 0.2669
vn -0.5720 0.7378 0.3585
vn -0.8596 0.4148 0.2984
vn -0.9377 0.2765 0.2105
vn -0.8478 0.4450 0.2884
vn 0.9582 0.2527 -0.1344
vn 0.9631 0.2674 -0.0292
vn 0.9633 0.2671 -0.0281
vn 0.8105 -0.5841 -0.0433
vn 0.8065 -0.5716 -0.1510
vn 0.8105 -0.5842 -0.0432
vn -0.9251 -0.3731 0.0703
vn -0.8129 -0.5821 0.0167
vn -0.9290 -0.3631 0.0721
vn -0.9539 0.2043 0.2198
vn -0.6299 0.7197 0.2921
vn -0.2043 -0.9627 -0.1773
vn -0.0678 -0.9921 -0.1058
vn -0.2777 -0.9367 -0.2134
vn 0.9921 0.0061 -0.1254
vn 0.9993 -0.0000 -0.0362
vn 0.8267 0.5602 -0.0534
vn 0.9311 0.3428 -0.1248
vn 0.4505 0.8821 0.1379
vn 0.9167 0.3593 -0.1749
vn -0.5156 -0.7466 -0.4204
vn -0.3266 -0.9100 -0.2556
vn -0.5411 -0.7107 -0.4496
vn -0.9237 0.1861 0.3349
vn -0.7996 0.4987 0.3345
vn -0.9953 -0.0827 0.0503
vn -0.9145 -0.3782 0.1435
vn -0.9916 -0.1051 0.0753
vn -0.8030 0.4279 0.4148
vn -0.6035 0.6129 0.5101
vn -0.5986 0.6172 0.5106
vn -0.5267 0.7027 0.4784
vn -0.2442 0.7661 0.5945
vn -0.2370 0.7691 0.5936
vn -0.7953 0.4163 0.4406
vn -0.8985 0.1629 0.4077
vn -0.7893 0.4280 0.4402
vn 0.1246 0.9517 0.2805
vn 0.6360 0.7300 0.2501
vn -0.6002 0.6804 0.4204
vn 0.9043 -0.1679 -0.3924
vn 0.9302 -0.1783 -0.3207
vn 0.9311 -0.1870 -0.3133
vn 0.8786 0.4519 -0.1544
vn 0.8832 0.4359 -0.1733
vn 0.8847 0.4380 -0.1593
vn 0.9671 0.0620 -0.2469
vn 0.9541 0.0736 -0.2902
vn 0.9675 0.0904 -0.2360
vn 0.5944 -0.6881 -0.4162
vn 0.6395 -0.7179 -0.2751
vn 0.6326 -0.7229 -0.2780
vn 0.9206 -0.1827 -0.3451
vn 0.9494 -0.2083 -0.2350
vn 0.4773 0.7495 0.4587
vn 0.7782 0.5346 0.3295
vn -0.6738 0.6451 0.3603
vn -0.6625 0.6532 0.3667
vn -0.1800 0.8096 0.5587
vn -0.1703 0.8116 0.5589
vn -0.5119 0.7574 0.4053
vn -0.4754 0.7806 0.4057
vn -0.9615 0.2735 0.0274
vn -0.9575 0.2860 0.0373
vn -0.6383 0.7124 0.2917
vn -0.5923 -0.6096 -0.5268
vn -0.6191 -0.6146 -0.4888
vn 0.9017 -0.1608 -0.4013
vn 0.8855 0.4374 -0.1568
vn 0.9548 0.0581 -0.2915
vn 0.6011 -0.6846 -0.4123
vn 0.8013 -0.5781 -0.1539
vn 0.9527 0.2808 -0.1163
vn 0.7658 0.6298 -0.1298
vn 0.9774 0.0211 -0.2105
vn -0.2841 -0.9272 -0.2440
vn -0.9150 -0.3800 0.1355
vn -0.8145 0.4085 0.4119
vn -0.5370 0.6947 0.4786
vn -0.9085 0.1664 0.3833
vn 1.0000 -0.0000 -0.0000
vn 0.8112 -0.5847 0.0006
vn 0.9636 0.2672 -0.0003
vn 0.7773 0.6291 -0.0007
vn -0.8209 0.5711 -0.0006
vn -0.9803 -0.0198 0.1965
vn -0.7542 0.6011 0.2645
vn -0.9465 0.2464 0.2086
vn -0.8070 -0.5903 0.0162
vn -0.9937 -0.0123 0.1112
vn 0.0044 -0.9979 -0.0643
vn 0.8196 0.5726 -0.0204
vn -0.1051 0.9933 0.0474
vn 0.2201 0.9745 -0.0432
vn 0.9810 -0.0209 -0.1928
vn -1.0000 -0.0000 -0.0025
vn -1.0000 -0.0017 -0.0054
vn -1.0000 -0.0019 -0.0051
vn -0.7773 0.6290 -0.0126
vn -0.7756 0.6263 0.0780
vn -0.7771 0.6260 0.0655
vn 0.7764 0.6118 -0.1513
vn 0.9468 0.2662 -0.1806
vn -0.9637 0.2671 -0.0067
vn -0.9638 0.2650 0.0289
vn -0.9641 0.2644 0.0244
vn -0.8065 -0.5908 0.0204
vn -0.5070 -0.8560 -0.1006
vn -0.5003 -0.8602 -0.0993
vn 0.7808 -0.6028 -0.1639
vn 0.9809 -0.0212 -0.1934
vn -0.0263 -0.9995 -0.0178
vn -0.0129 -0.9924 -0.1227
vn -0.9999 -0.0000 0.0130
vn -0.9999 -0.0016 -0.0133
vn -0.4628 0.8794 0.1120
vn -0.1784 0.9564 -0.2313
vn -0.8100 0.5724 -0.1272
vn -0.0000 -0.9563 0.2925
vn -0.0298 -0.9588 0.2824
vn 0.9998 0.0158 -0.0148
vn 0.8233 -0.5656 0.0472
vn 0.8109 -0.5533 0.1906
vn 0.8913 0.3800 -0.2473
vn 0.9048 0.3880 -0.1755
vn 0.7466 0.6078 -0.2704
vn 0.7763 0.6101 -0.1582
vn 0.9835 0.0137 -0.1804
vn 0.9960 0.0148 -0.0885
vn -0.9872 0.0190 0.1585
vn -0.7494 0.6452 0.1487
vn -0.9439 0.2836 0.1689
vn -0.8108 -0.5733 0.1181
vn -0.6775 0.7211 0.1450
vn -0.0084 0.9088 -0.4171
vn 0.9851 -0.0637 0.1596
vn 0.9841 -0.0729 0.1620
vn 0.8220 0.5595 -0.1060
vn 0.8339 0.5424 -0.1026
vn 0.9588 0.2768 0.0646
vn 0.9699 0.2330 0.0710
vn 0.7119 -0.5294 0.4614
vn 0.7101 -0.5316 0.4617
vn 0.9653 0.1911 0.1781
vn 0.8830 -0.2705 0.3836
vn -0.0491 -0.9398 0.3382
vn -0.0853 -0.9547 0.2852
vn 0.8069 0.5651 -0.1717
vn -0.9670 0.2505 0.0476
vn -0.8099 -0.5726 0.1273
vn -0.0443 0.3730 -0.9268
vn -0.0561 0.3429 -0.9377
vn -0.0386 0.3816 -0.9235
vn -0.4106 -0.8245 -0.3894
vn -0.4083 -0.8536 -0.3234
vn -0.4186 -0.8453 -0.3321
vn 0.1921 -0.3256 0.9258
vn 0.1150 -0.3686 0.9225
vn 0.2133 -0.3094 0.9267
vn -0.0518 0.9542 0.2946
vn -0.0366 0.9681 0.2478
vn -0.0202 0.9524 0.3042
vn -0.3858 -0.8582 -0.3385
vn -0.3704 -0.8639 -0.3413
vn -0.0295 0.3782 -0.9253
vn -0.0402 0.3822 -0.9232
vn -0.0400 0.3821 -0.9233
vn 0.0540 -0.3834 0.9220
vn 0.3912 0.8692 0.3023
vn 0.4873 0.8137 0.3170
vn 0.0214 0.9521 0.3049
vn 0.0193 0.9550 0.2961
vn -0.0188 0.9460 0.3235
vn -0.1147 -0.3496 0.9299
vn -0.1109 -0.4102 0.9052
vn -0.1403 -0.3159 0.9384
vn -0.2916 0.2249 -0.9297
vn -0.3613 0.2133 -0.9077
vn -0.2607 0.2002 -0.9444
vn -0.0132 -0.9501 -0.3116
vn 0.0130 -0.9454 -0.3257
vn 0.0094 -0.9435 -0.3312
vn -0.1076 -0.9508 -0.2904
vn -0.0723 -0.9555 -0.2861
vn -0.2294 0.2581 -0.9385
vn -0.3511 0.2337 -0.9067
vn -0.0076 0.9539 0.2999
vn 0.0354 0.9579 0.2849
vn 0.0416 0.9611 0.2730
vn 0.4681 -0.1979 0.8612
vn 0.3798 -0.2376 0.8940
vn 0.4024 -0.1677 0.9000
vn -0.1003 -0.3255 0.9402
vn -0.0288 0.9465 0.3214
vn 0.0098 0.3442 -0.9388
vn -0.1166 -0.9395 -0.3220
vn -0.0554 -0.9511 -0.3038
vn -0.1376 0.2590 -0.9560
vn -0.2069 0.2536 -0.9449
vn -0.1083 -0.9929 -0.0500
vn -0.0745 -0.9666 -0.2451
vn -0.0099 0.9537 0.3007
vn 0.4010 -0.2627 0.8776
vn 0.5035 0.8045 0.3151
vn 0.3705 0.8950 0.2483
vn 0.0563 -0.3785 0.9239
vn 0.0536 -0.3713 0.9270
vn -0.3703 -0.8639 -0.3413
vn -0.9778 -0.1312 0.1632
vn -0.9774 -0.1161 0.1769
vn -0.9771 -0.1101 0.1823
vn 0.8430 0.4990 -0.2010
vn 0.8480 0.4922 -0.1966
vn 0.8252 0.5220 -0.2159
vn 0.8264 0.2444 -0.5072
vn 0.8145 0.2685 -0.5144
vn 0.8866 0.0897 -0.4538
vn -0.9744 -0.1778 -0.1375
vn -0.9688 -0.1926 -0.1561
vn -0.9614 -0.2098 -0.1779
vn -0.9641 -0.2269 -0.1378
vn -0.9637 -0.2279 -0.1388
vn -0.9635 -0.2287 -0.1395
vn -0.0087 -0.9450 -0.3270
vn -0.0515 -0.9413 -0.3337
vn -0.0174 0.9462 0.3230
vn -0.0078 0.9449 0.3274
vn 0.0288 -0.9465 -0.3214
vn 0.8262 0.5199 -0.2171
vn 0.8258 0.5204 -0.2171
vn 0.8255 0.5209 -0.2172
vn -0.9664 -0.0118 -0.2566
vn -0.9771 0.0105 -0.2127
vn -0.9927 0.0662 -0.1008
vn -0.0380 0.9425 0.3319
vn -0.0846 0.9419 0.3252
vn 0.0139 0.9592 0.2823
vn -0.0791 -0.9527 -0.2936
vn -0.1658 -0.9307 -0.3260
vn -0.1652 -0.9559 -0.2428
vn 0.0830 0.9666 0.2426
vn -0.0512 0.9295 0.3653
vn 0.0475 -0.9362 -0.3482
vn -0.0822 -0.9501 -0.3009
vn 0.0240 -0.9361 -0.3510
vn -0.0061 -0.9392 -0.3433
vn 0.0207 0.9380 0.3461
vn -0.0680 0.9571 0.2818
vn 0.9850 -0.1363 0.1062
vn 0.9838 -0.1443 0.1063
vn 0.9830 -0.1495 0.1064
vn -0.3702 -0.8640 -0.3413
vn -0.3481 -0.8604 -0.3723
vn 0.3319 0.8677 0.3701
vn 0.3471 0.8505 0.3951
vn 0.2706 0.8640 0.4245
vn 0.3702 0.8640 0.3413
vn 0.3811 0.8523 0.3582
vn -0.2841 -0.8792 -0.3824
vn -0.2486 -0.8444 -0.4746
vn 0.8486 -0.1533 0.5064
vn 0.8451 -0.1495 0.5132
vn 0.9134 -0.2426 0.3269
vn -0.5873 -0.4864 0.6469
vn -0.5971 -0.5082 0.6207
vn -0.6204 -0.5659 0.5430
vn 0.7586 0.5226 -0.3891
vn 0.7543 0.5270 -0.3915
vn 0.7769 0.5034 -0.3781
vn -0.0494 -0.9420 -0.3319
vn 0.1770 0.9842 -0.0011
vn 0.6761 -0.6058 -0.4193
vn 0.2160 -0.8098 -0.5456
vn 0.8549 -0.3796 -0.3536
vn 0.9941 -0.0136 -0.1075
vn 0.6929 -0.5012 -0.5183
vn -0.8166 0.5772 0.0006
vn -0.5430 -0.7808 0.3090
vn 0.9635 0.2671 -0.0170
vn 0.7773 0.6291 -0.0088
vn -0.6854 0.6468 -0.3345
vn -0.9826 0.0646 -0.1739
vn 0.9777 -0.0228 -0.2086
vn -0.7772 0.6291 -0.0126
vn 0.9484 0.2452 -0.2008
vn -0.9636 0.2672 -0.0067
vn -0.8111 -0.5846 0.0205
vn 0.7786 -0.6042 -0.1693
vn -0.0248 -0.9997 0.0051
vn 0.7375 0.6083 -0.2934
vn -0.9839 0.0209 0.1772
vn -0.7483 0.6470 0.1465
vn -0.9399 0.2883 0.1828
vn -0.0764 0.3214 -0.9438
vn -0.4382 -0.8546 -0.2785
vn 0.1308 -0.3935 0.9100
vn -0.0644 0.9754 0.2110
vn 0.0557 -0.3879 0.9200
vn 0.1273 0.9661 0.2248
vn -0.0746 -0.4639 0.8828
vn -0.0143 -0.9493 -0.3140
vn -0.1003 -0.3257 0.9401
vn 0.0062 0.3501 -0.9367
vn -0.1230 0.2451 -0.9617
vn -0.9779 -0.1375 0.1575
vn 0.8650 0.4680 -0.1811
vn 0.7381 0.3961 -0.5462
vn -0.9804 -0.1600 -0.1151
vn -0.9645 -0.2260 -0.1369
vn 0.8265 0.5194 -0.2171
vn -0.9363 -0.0585 -0.3464
vn 0.1622 0.9100 0.3816
vn 0.9857 -0.1310 0.1062
vn -0.1580 -0.8712 -0.4648
vn 0.7690 -0.0765 0.6347
vn -0.5501 -0.4105 0.7273
vn 0.7353 0.5456 -0.4020
vt 0.743285 0.604000
vt 0.760921 0.798249
vt 0.744457 0.798519
vt 0.661663 0.803419
vt 0.680603 0.603730
vt 0.680496 0.803407
vt 0.458413 0.586135
vt 0.408503 0.613617
vt 0.408896 0.586135
vt 0.955006 0.630750
vt 0.922196 0.735050
vt 0.922196 0.626640
vt 0.466671 0.691614
vt 0.515996 0.719448
vt 0.466444 0.719448
vt 0.859346 0.710665
vt 0.877195 0.605402
vt 0.878047 0.712336
vt 0.789619 0.491312
vt 0.716177 0.008688
vt 0.789619 0.008688
vt 0.503489 0.008688
vt 0.485142 0.536158
vt 0.485142 0.008688
vt 0.904210 0.500718
vt 0.885897 0.580985
vt 0.885897 0.500718
vt 0.848725 0.491312
vt 0.800282 0.008688
vt 0.848725 0.008688
vt 0.962321 0.500718
vt 0.944008 0.580985
vt 0.944008 0.500718
vt 0.414772 0.008688
vt 0.396425 0.536158
vt 0.396425 0.008688
vt 0.338435 0.194740
vt 0.344756 0.008688
vt 0.344756 0.194740
vt 0.727625 0.541033
vt 0.696784 0.545513
vt 0.696784 0.541033
vt 0.105049 0.659872
vt 0.100860 0.752898
vt 0.100860 0.659872
vt 0.008688 0.008688
vt 0.041504 0.194740
vt 0.008688 0.194740
vt 0.159789 0.752898
vt 0.155600 0.566845
vt 0.159789 0.566845
vt 0.583208 0.541033
vt 0.614049 0.545513
vt 0.583208 0.545513
vt 0.586437 0.536554
vt 0.614049 0.541033
vt 0.164160 0.752898
vt 0.164160 0.566845
vt 0.109420 0.752898
vt 0.109420 0.659872
vt 0.700012 0.536554
vt 0.730109 0.515948
vt 0.694299 0.515948
vt 0.128368 0.659872
vt 0.183109 0.752898
vt 0.183109 0.566845
vt 0.580724 0.515948
vt 0.610820 0.536554
vt 0.573110 0.506541
vt 0.616534 0.515948
vt 0.191477 0.752898
vt 0.191477 0.566845
vt 0.136737 0.659872
vt 0.128369 0.752898
vt 0.686685 0.506541
vt 0.737723 0.500718
vt 0.686685 0.500718
vt 0.142183 0.659872
vt 0.136737 0.752898
vt 0.196923 0.752898
vt 0.196923 0.566845
vt 0.573110 0.500718
vt 0.624148 0.506541
vt 0.322182 0.008688
vt 0.322182 0.194740
vt 0.322182 0.659872
vt 0.315862 0.752898
vt 0.315862 0.659872
vt 0.607303 0.548020
vt 0.727625 0.545513
vt 0.703530 0.548020
vt 0.356194 0.380793
vt 0.362514 0.008688
vt 0.362514 0.380793
vt 0.638847 0.511140
vt 0.669688 0.515619
vt 0.638847 0.515619
vt 0.266630 0.101714
vt 0.262441 0.008688
vt 0.266630 0.008688
vt 0.088892 0.380793
vt 0.056076 0.008688
vt 0.088892 0.008688
vt 0.209021 0.380793
vt 0.213210 0.008688
vt 0.213210 0.380793
vt 0.752422 0.511140
vt 0.783263 0.515619
vt 0.752422 0.515619
vt 0.755651 0.520099
vt 0.780035 0.520099
vt 0.217581 0.008688
vt 0.217581 0.380793
vt 0.271001 0.101714
vt 0.271001 0.008688
vt 0.642076 0.520099
vt 0.666459 0.520099
vt 0.672172 0.540704
vt 0.636362 0.540704
vt 0.289950 0.101714
vt 0.289950 0.008688
vt 0.236529 0.008688
vt 0.236529 0.380793
vt 0.785748 0.540704
vt 0.749938 0.540704
vt 0.793362 0.550111
vt 0.742324 0.550111
vt 0.244898 0.008688
vt 0.244898 0.380793
vt 0.298318 0.008688
vt 0.298318 0.101714
vt 0.679786 0.550111
vt 0.628748 0.550111
vt 0.679786 0.555935
vt 0.628748 0.555935
vt 0.303764 0.008688
vt 0.303764 0.101714
vt 0.250344 0.008688
vt 0.250344 0.380793
vt 0.793362 0.555935
vt 0.742324 0.555935
vt 0.378768 0.008688
vt 0.378768 0.380793
vt 0.385088 0.659872
vt 0.378768 0.752898
vt 0.378768 0.659872
vt 0.783263 0.511140
vt 0.759169 0.508632
vt 0.776517 0.508632
vt 0.669688 0.511140
vt 0.645593 0.508632
vt 0.662942 0.508632
vt 0.315862 0.194740
vt 0.322182 0.380793
vt 0.315862 0.380793
vt 0.322182 0.473819
vt 0.338435 0.380793
vt 0.338435 0.473819
vt 0.196923 0.287767
vt 0.191477 0.380793
vt 0.191477 0.287767
vt 0.142183 0.380793
vt 0.136737 0.194740
vt 0.142183 0.194740
vt 0.136737 0.380793
vt 0.128368 0.194740
vt 0.183109 0.380793
vt 0.183109 0.287767
vt 0.164160 0.380793
vt 0.164160 0.287767
vt 0.128368 0.380793
vt 0.109420 0.194740
vt 0.105049 0.380793
vt 0.105049 0.194740
vt 0.159789 0.380793
vt 0.159789 0.287767
vt 0.155600 0.380793
vt 0.155600 0.287767
vt 0.008688 0.473819
vt 0.041504 0.380793
vt 0.041504 0.473819
vt 0.100860 0.194740
vt 0.344756 0.380793
vt 0.344756 0.473819
vt 0.344756 0.659872
vt 0.338435 0.566846
vt 0.344756 0.566846
vt 0.008688 0.659872
vt 0.041504 0.566846
vt 0.041504 0.659872
vt 0.159789 0.194740
vt 0.155600 0.101714
vt 0.159789 0.101714
vt 0.164160 0.101714
vt 0.183109 0.194740
vt 0.183109 0.101714
vt 0.191477 0.194740
vt 0.191477 0.101714
vt 0.196923 0.101714
vt 0.322182 0.566846
vt 0.338435 0.659872
vt 0.315862 0.566846
vt 0.315862 0.473819
vt 0.142183 0.566845
vt 0.136737 0.473819
vt 0.142183 0.473819
vt 0.128368 0.566845
vt 0.128368 0.473819
vt 0.109420 0.566845
vt 0.109420 0.473819
vt 0.105049 0.473819
vt 0.105049 0.566845
vt 0.100860 0.473819
vt 0.322182 0.752898
vt 0.338435 0.752898
vt 0.196923 0.008688
vt 0.191477 0.008688
vt 0.183109 0.008688
vt 0.164160 0.008688
vt 0.159789 0.008688
vt 0.155600 0.008688
vt 0.041504 0.752898
vt 0.008688 0.752898
vt 0.344756 0.752898
vt 0.136737 0.566845
vt 0.100860 0.566845
vt 0.100860 0.380793
vt 0.109420 0.380793
vt 0.008688 0.566846
vt 0.155600 0.194740
vt 0.164160 0.194740
vt 0.196923 0.194740
vt 0.105049 0.008688
vt 0.100860 0.008688
vt 0.109420 0.008688
vt 0.128368 0.008688
vt 0.136737 0.008688
vt 0.142183 0.008688
vt 0.315862 0.008688
vt 0.196923 0.380793
vt 0.008688 0.380793
vt 0.385088 0.008688
vt 0.362514 0.566846
vt 0.378768 0.566846
vt 0.250344 0.566845
vt 0.303764 0.752898
vt 0.298318 0.380793
vt 0.303764 0.380793
vt 0.298318 0.752898
vt 0.289950 0.380793
vt 0.244898 0.566845
vt 0.236529 0.566845
vt 0.289950 0.752898
vt 0.271001 0.380793
vt 0.271001 0.752898
vt 0.266630 0.380793
vt 0.217581 0.566845
vt 0.213210 0.566845
vt 0.088892 0.566846
vt 0.056076 0.380793
vt 0.266630 0.752898
vt 0.262441 0.380793
vt 0.356194 0.566846
vt 0.362514 0.659872
vt 0.356194 0.659872
vt 0.056076 0.659872
vt 0.088892 0.659872
vt 0.209021 0.659872
vt 0.213210 0.659872
vt 0.217581 0.659872
vt 0.236529 0.659872
vt 0.244898 0.659872
vt 0.250344 0.659872
vt 0.385088 0.380793
vt 0.303764 0.194740
vt 0.298318 0.194740
vt 0.289950 0.194740
vt 0.271001 0.194740
vt 0.266630 0.194740
vt 0.362514 0.752898
vt 0.244898 0.752898
vt 0.250344 0.752898
vt 0.236529 0.752898
vt 0.217581 0.752898
vt 0.213210 0.752898
vt 0.209021 0.752898
vt 0.056076 0.752898
vt 0.088892 0.752898
vt 0.356194 0.752898
vt 0.385088 0.566846
vt 0.262441 0.101714
vt 0.562896 0.848270
vt 0.551108 0.879168
vt 0.544083 0.847863
vt 0.596762 0.862183
vt 0.579909 0.843329
vt 0.596386 0.843482
vt 0.907621 0.722072
vt 0.896830 0.742196
vt 0.888904 0.720030
vt 0.911140 0.791771
vt 0.924422 0.771628
vt 0.927583 0.792892
vt 0.596386 0.603883
vt 0.579102 0.799176
vt 0.579909 0.603730
vt 0.547001 0.603730
vt 0.562162 0.803588
vt 0.543350 0.803181
vt 0.678947 0.848122
vt 0.760227 0.842231
vt 0.743763 0.842501
vt 0.811819 0.762359
vt 0.846230 0.792082
vt 0.813436 0.794065
vt 0.959806 0.868189
vt 0.944163 0.893181
vt 0.940872 0.871675
vt 0.991972 0.773052
vt 0.975190 0.768880
vt 0.991513 0.761372
vt 0.801543 0.744851
vt 0.782681 0.728688
vt 0.798888 0.726266
vt 0.780642 0.633701
vt 0.796881 0.632220
vt 0.994464 0.870571
vt 0.975498 0.774368
vt 0.909580 0.887222
vt 0.922490 0.900984
vt 0.906047 0.899863
vt 0.907956 0.611965
vt 0.890190 0.622477
vt 0.889346 0.603730
vt 0.944843 0.762639
vt 0.846943 0.898803
vt 0.814149 0.900785
vt 0.875701 0.741345
vt 0.924365 0.604243
vt 0.957449 0.604407
vt 0.991172 0.886230
vt 0.977989 0.871886
vt 0.784534 0.610464
vt 0.799754 0.603730
vt 0.926024 0.888343
vt 0.908908 0.624519
vt 0.743128 0.848030
vt 0.759647 0.862814
vt 0.659915 0.869168
vt 0.680603 0.875613
vt 0.595578 0.799329
vt 0.466464 0.862499
vt 0.523983 0.831695
vt 0.523812 0.860399
vt 0.484944 0.771342
vt 0.507925 0.742503
vt 0.508346 0.771403
vt 0.489353 0.661300
vt 0.507470 0.633144
vt 0.512063 0.664671
vt 0.418891 0.819088
vt 0.459730 0.791396
vt 0.460935 0.816215
vt 0.509619 0.791561
vt 0.513999 0.819088
vt 0.987763 0.632690
vt 0.985607 0.603730
vt 0.780642 0.796048
vt 0.781355 0.902768
vt 0.783486 0.762990
vt 0.417119 0.691614
vt 0.416892 0.719448
vt 0.954953 0.736990
vt 0.419248 0.767871
vt 0.462018 0.743730
vt 0.463073 0.770864
vt 0.437238 0.868011
vt 0.458456 0.843813
vt 0.860249 0.883859
vt 0.894696 0.790650
vt 0.893136 0.886101
vt 0.845598 0.627775
vt 0.814938 0.609535
vt 0.847637 0.611853
vt 0.890213 0.894253
vt 0.859421 0.889234
vt 0.847637 0.722761
vt 0.813120 0.630738
vt 0.847576 0.734090
vt 0.815159 0.725725
vt 0.861809 0.788408
vt 0.896845 0.771649
vt 0.412973 0.664671
vt 0.459259 0.637867
vt 0.461563 0.662487
vt 0.645009 0.799789
vt 0.612863 0.843635
vt 0.612055 0.799482
vt 0.694369 0.843311
vt 0.726997 0.863632
vt 0.693892 0.870037
vt 0.695063 0.799329
vt 0.727298 0.842771
vt 0.645817 0.604343
vt 0.612863 0.604037
vt 0.645817 0.843942
vt 0.613816 0.870108
vt 0.483171 0.586135
vt 0.458020 0.613617
vt 0.726821 0.604270
vt 0.727992 0.798789
vt 0.507537 0.613617
vt 0.507930 0.586135
vt 0.414806 0.863186
vt 0.428136 0.841765
vt 0.483888 0.743232
vt 0.817177 0.739848
vt 0.759750 0.603730
vt 0.661770 0.603741
vt 0.516223 0.691614
vt 0.858494 0.603730
vt 0.716177 0.491312
vt 0.503489 0.536158
vt 0.904210 0.580985
vt 0.800282 0.491312
vt 0.962321 0.580985
vt 0.414772 0.536158
vt 0.338435 0.008688
vt 0.105049 0.752898
vt 0.041504 0.008688
vt 0.155600 0.752898
vt 0.724396 0.536554
vt 0.737723 0.506541
vt 0.142183 0.752898
vt 0.624148 0.500718
vt 0.589955 0.548020
vt 0.720878 0.548020
vt 0.356194 0.008688
vt 0.209021 0.008688
vt 0.385088 0.752898
vt 0.209021 0.566845
vt 0.056076 0.566846
vt 0.262441 0.752898
vt 0.262441 0.194740
vt 0.565813 0.874875
vt 0.580352 0.869915
vt 0.908908 0.743625
vt 0.911337 0.761372
vt 0.565813 0.604137
vt 0.660113 0.848133
vt 0.846943 0.761372
vt 0.963523 0.898405
vt 0.785336 0.747273
vt 0.963523 0.761371
vt 0.858494 0.744071
vt 0.975190 0.886524
vt 0.486290 0.626120
vt 0.417559 0.794065
vt 0.987711 0.738930
vt 0.417559 0.742503
vt 0.859421 0.773603
vt 0.408503 0.642553
vt 0.645312 0.876057
vt 0.482778 0.613617
vt 0.693892 0.604810
vt 0.411255 0.841557
s 1
usemtl End_1
f 250/1/1 190/2/2 246/3/3
f 190/4/4 8/5/5 191/6/6
f 235/7/7 5/8/7 6/9/7
f 225/10/8 4/11/9 201/12/10
f 221/13/11 4/14/11 222/15/11
f 202/16/12 2/17/13 203/18/14
f 13/19/15 11/20/15 9/21/15
f 11/22/16 16/23/16 12/24/16
f 15/25/17 14/26/17 16/27/17
f 10/28/18 16/29/18 14/30/18
f 9/31/19 12/32/19 10/33/19
f 13/34/20 10/35/20 14/36/20
f 142/37/21 23/38/22 136/39/23
f 26/40/24 19/41/24 27/42/24
f 103/43/25 21/44/26 101/45/27
f 24/46/28 137/47/29 129/48/30
f 27/49/31 130/50/32 131/51/33
f 28/52/34 17/53/35 21/54/34
f 31/55/34 25/56/34 28/52/34
f 30/57/36 131/51/37 132/58/38
f 31/59/39 103/43/40 104/60/41
f 30/61/24 26/40/24 27/42/24
f 36/62/24 30/61/24 34/63/24
f 105/64/42 31/59/43 104/60/44
f 34/65/45 132/58/46 133/66/47
f 35/67/34 29/68/34 31/55/34
f 39/69/34 33/70/34 35/67/34
f 38/71/48 133/66/49 134/72/50
f 106/73/51 35/74/52 105/64/53
f 38/75/24 36/62/24 34/63/24
f 24/76/24 38/75/24 20/77/24
f 108/78/54 39/79/55 106/73/56
f 20/80/31 134/72/57 137/81/58
f 22/82/34 37/83/34 39/69/34
f 41/84/59 142/37/21 135/85/60
f 114/86/61 17/87/62 109/88/63
f 43/89/64 21/54/34 17/53/35
f 23/90/24 41/91/24 19/41/24
f 145/92/65 70/93/66 156/94/67
f 47/95/24 54/96/24 55/97/24
f 173/98/68 49/99/69 56/100/70
f 143/101/71 48/102/72 52/103/73
f 144/104/74 55/105/75 147/106/76
f 49/107/77 53/108/78 56/109/79
f 59/110/80 53/108/81 57/111/82
f 147/106/83 58/112/84 150/113/85
f 174/114/86 56/100/87 59/115/88
f 58/116/24 54/96/24 60/117/24
f 58/116/24 64/118/24 62/119/24
f 175/120/89 59/115/90 63/121/91
f 150/113/92 62/122/93 151/123/94
f 59/110/95 61/124/95 63/125/95
f 63/125/80 65/126/80 67/127/80
f 151/123/96 66/128/97 154/129/98
f 175/120/99 67/130/100 176/131/101
f 62/119/24 68/132/24 66/133/24
f 66/133/24 52/134/24 48/135/24
f 176/131/102 50/136/103 178/137/104
f 154/129/105 48/138/106 146/139/107
f 67/127/80 46/140/80 50/141/80
f 156/94/67 69/142/108 155/143/109
f 179/144/110 71/145/111 184/146/112
f 45/147/113 72/148/114 71/149/114
f 51/150/24 69/151/24 70/152/24
f 130/153/32 85/154/115 74/155/116
f 121/156/117 86/157/118 128/158/119
f 123/159/120 84/160/121 120/161/122
f 73/162/123 141/163/124 129/164/125
f 83/165/126 140/166/127 141/163/128
f 120/161/129 81/167/130 119/168/131
f 119/168/132 80/169/133 118/170/134
f 82/171/135 139/172/136 140/166/137
f 139/172/138 78/173/139 138/174/140
f 118/170/141 77/175/142 117/176/143
f 117/176/144 74/177/116 116/178/145
f 115/179/146 76/180/147 123/181/148
f 78/173/149 136/182/23 138/174/150
f 128/158/119 75/183/151 122/184/152
f 101/185/27 93/186/153 87/187/154
f 108/188/155 88/189/156 102/190/157
f 96/191/158 109/192/63 110/193/159
f 111/194/160 96/191/161 110/193/162
f 98/195/163 111/194/164 112/196/165
f 99/197/166 112/196/167 113/198/168
f 102/199/169 99/197/170 113/198/171
f 100/200/172 107/201/173 114/86/61
f 121/156/117 95/202/174 116/203/145
f 94/204/175 127/205/176 115/206/177
f 127/205/178 91/207/179 126/208/180
f 126/208/181 90/209/182 125/210/183
f 90/209/184 124/211/185 125/210/186
f 89/212/187 122/213/152 124/211/188
f 43/214/189 107/201/173 44/215/190
f 18/216/191 113/198/171 37/217/192
f 37/217/193 112/196/167 33/218/194
f 33/218/195 111/194/164 29/219/196
f 111/194/160 25/220/197 29/219/198
f 110/193/159 17/221/62 25/220/199
f 108/188/155 18/222/200 22/223/201
f 44/215/190 101/185/27 21/224/26
f 95/202/174 114/86/61 109/88/63
f 94/204/175 106/73/56 92/225/202
f 106/73/51 91/207/179 92/225/203
f 91/207/204 104/60/44 90/209/182
f 90/209/184 103/43/40 89/212/205
f 89/212/187 101/45/27 87/226/154
f 78/173/149 122/213/152 75/227/151
f 79/228/206 124/211/185 78/173/139
f 82/171/135 125/210/183 79/228/207
f 127/205/178 82/171/208 83/165/126
f 73/162/123 127/205/176 83/165/209
f 85/154/115 116/203/145 74/155/116
f 93/186/153 122/184/152 87/187/154
f 115/179/146 88/189/156 94/229/210
f 96/191/158 116/178/145 95/230/174
f 118/170/141 96/191/161 97/231/211
f 98/195/163 118/170/134 97/231/212
f 99/197/166 119/168/131 98/195/213
f 88/232/214 120/161/122 99/197/170
f 100/200/172 128/158/119 93/186/153
f 26/233/215 136/182/23 23/234/22
f 32/235/216 138/174/140 26/233/216
f 36/236/217 139/172/136 32/235/217
f 40/237/218 140/166/127 36/236/218
f 24/238/215 141/163/124 40/237/215
f 19/239/219 135/85/60 130/153/32
f 135/85/60 86/157/118 85/154/115
f 76/240/220 134/72/57 84/160/121
f 134/72/50 81/167/130 84/160/221
f 133/66/47 80/169/133 81/167/222
f 80/169/223 131/51/37 77/175/142
f 77/175/224 130/50/32 74/177/116
f 73/241/225 137/47/29 76/180/147
f 75/183/151 142/37/21 136/39/23
f 47/242/226 155/143/109 69/142/108
f 163/243/227 155/143/109 170/244/228
f 158/245/229 154/129/105 146/139/107
f 52/246/230 153/247/231 143/248/232
f 68/249/233 152/250/234 153/247/235
f 169/251/236 151/123/96 154/129/98
f 168/252/237 150/113/92 151/123/94
f 64/253/238 149/254/239 152/250/240
f 60/255/241 148/256/242 149/254/243
f 167/257/244 147/106/83 150/113/85
f 166/258/245 144/104/74 147/106/76
f 164/259/246 146/260/247 143/101/71
f 54/261/248 145/262/65 148/256/249
f 157/263/250 156/94/67 163/243/227
f 157/263/250 177/264/251 171/265/252
f 172/266/253 164/259/246 178/267/254
f 179/268/110 166/258/245 180/269/255
f 180/269/256 167/257/244 181/270/257
f 181/270/258 168/252/237 182/271/259
f 183/272/260 168/252/261 169/251/236
f 183/272/262 158/245/229 172/273/263
f 184/146/112 163/243/227 170/244/228
f 144/274/74 170/244/228 155/143/109
f 153/247/231 164/275/264 143/248/232
f 152/250/234 162/276/265 153/247/235
f 149/254/239 161/277/266 152/250/240
f 148/256/242 160/278/267 149/254/243
f 145/262/65 159/279/268 148/256/249
f 72/280/269 184/146/112 71/145/111
f 65/281/270 172/273/263 46/282/271
f 61/283/272 183/272/260 65/281/273
f 57/284/274 182/271/259 61/283/275
f 53/285/276 181/270/257 57/284/277
f 45/286/278 180/269/255 53/285/279
f 46/287/280 178/267/254 50/288/281
f 171/265/252 72/280/269 49/289/69
f 179/144/110 170/244/228 165/290/282
f 164/275/264 176/131/102 178/137/104
f 162/276/265 175/120/99 176/131/101
f 161/277/266 174/114/283 175/120/89
f 159/279/284 174/114/86 160/278/267
f 159/279/268 171/291/252 173/98/68
f 210/292/285 185/293/286 211/294/287
f 244/295/288 209/296/289 248/297/290
f 206/298/291 187/299/292 207/300/293
f 256/301/294 220/302/295 206/303/296
f 243/304/297 191/305/298 8/306/297
f 6/307/299 192/308/300 189/309/301
f 209/310/302 190/4/4 191/6/6
f 246/3/3 212/311/303 247/312/304
f 223/313/305 204/314/306 224/315/307
f 204/316/308 193/317/309 201/318/310
f 197/319/311 213/320/312 195/321/313
f 252/322/314 199/323/315 253/324/316
f 253/324/316 207/325/317 255/326/318
f 205/327/319 200/328/320 197/319/311
f 254/329/321 196/330/322 257/331/323
f 196/332/324 199/333/325 215/334/326
f 4/335/327 204/316/308 201/318/310
f 224/315/307 3/336/328 221/337/328
f 216/338/329 202/16/12 203/18/14
f 225/10/8 193/339/330 226/340/331
f 218/341/332 208/342/333 205/327/319
f 255/326/318 187/343/334 258/344/335
f 254/329/321 206/303/296 198/345/336
f 198/346/337 207/300/293 199/333/325
f 249/347/338 212/311/303 186/348/339
f 186/349/340 209/310/302 219/350/341
f 245/351/342 209/296/289 191/305/298
f 192/308/300 211/294/287 189/309/301
f 234/352/343 188/353/344 218/354/345
f 252/355/346 196/356/347 215/357/348
f 244/358/349 186/359/350 219/360/351
f 194/361/352 226/362/353 223/363/354
f 223/363/355 193/364/356 214/365/357
f 203/366/358 226/340/331 216/367/359
f 202/368/360 221/337/328 1/369/328
f 194/370/361 224/315/307 202/368/360
f 1/371/11 222/15/11 2/372/11
f 203/366/358 222/373/362 225/10/8
f 195/374/363 233/375/364 228/376/365
f 258/377/366 227/378/367 234/352/368
f 200/379/369 232/380/370 230/381/371
f 205/382/372 234/383/373 218/384/374
f 200/379/369 233/385/375 213/386/376
f 197/387/377 231/388/378 205/382/372
f 195/389/379 229/390/380 197/387/377
f 208/391/381 227/392/382 232/380/370
f 185/393/383 242/394/384 237/395/385
f 189/396/386 241/397/387 238/398/342
f 210/399/388 242/400/389 217/401/390
f 192/402/391 240/403/392 210/399/388
f 6/404/297 238/398/342 235/405/297
f 211/406/393 237/407/394 241/397/387
f 243/408/7 236/409/7 235/7/7
f 192/402/391 236/410/1 239/411/3
f 7/412/7 243/408/7 8/413/7
f 242/394/395 244/358/396 237/395/397
f 238/398/342 248/297/290 245/351/342
f 240/403/392 249/347/338 242/400/389
f 239/411/3 247/312/304 240/403/392
f 238/398/342 243/304/297 235/405/297
f 241/397/387 244/295/288 248/297/290
f 236/410/1 246/3/3 239/411/3
f 187/414/398 251/415/399 258/377/400
f 228/376/401 257/416/402 252/355/403
f 230/381/371 256/301/294 254/329/321
f 234/383/373 255/326/318 258/344/335
f 230/381/371 257/331/323 233/385/375
f 229/390/380 255/326/318 231/388/378
f 228/417/404 253/324/316 229/390/380
f 227/392/382 256/301/294 232/380/370
f 250/1/1 7/418/1 190/2/2
f 190/4/4 7/419/5 8/5/5
f 235/7/7 236/409/7 5/8/7
f 225/10/8 222/373/362 4/11/9
f 221/13/11 3/420/11 4/14/11
f 202/16/12 1/421/13 2/17/13
f 13/19/15 15/422/15 11/20/15
f 11/22/16 15/423/16 16/23/16
f 15/25/17 13/424/17 14/26/17
f 10/28/18 12/425/18 16/29/18
f 9/31/19 11/426/19 12/32/19
f 13/34/20 9/427/20 10/35/20
f 142/37/21 42/428/405 23/38/22
f 26/40/24 23/90/24 19/41/24
f 103/43/25 28/429/406 21/44/26
f 24/46/28 20/430/28 137/47/29
f 27/49/31 19/431/219 130/50/32
f 28/52/34 25/56/34 17/53/35
f 31/55/34 29/68/34 25/56/34
f 30/57/36 27/49/36 131/51/37
f 31/59/39 28/429/407 103/43/40
f 30/61/24 32/432/24 26/40/24
f 36/62/24 32/432/24 30/61/24
f 105/64/42 35/74/408 31/59/43
f 34/65/45 30/57/45 132/58/46
f 35/67/34 33/70/34 29/68/34
f 39/69/34 37/83/34 33/70/34
f 38/71/48 34/65/48 133/66/49
f 106/73/51 39/79/409 35/74/52
f 38/75/24 40/433/24 36/62/24
f 24/76/24 40/433/24 38/75/24
f 108/78/54 22/434/410 39/79/55
f 20/80/31 38/71/31 134/72/57
f 22/82/34 18/435/34 37/83/34
f 41/84/59 42/428/405 142/37/21
f 114/86/61 43/214/189 17/87/62
f 43/89/64 44/436/34 21/54/34
f 23/90/24 42/437/24 41/91/24
f 145/92/65 51/438/411 70/93/66
f 47/95/24 51/150/24 54/96/24
f 173/98/68 171/291/252 49/99/69
f 143/101/71 146/260/247 48/102/72
f 144/104/74 47/439/226 55/105/75
f 49/107/77 45/147/113 53/108/78
f 59/110/80 56/109/80 53/108/81
f 147/106/83 55/105/84 58/112/84
f 174/114/86 173/98/412 56/100/87
f 58/116/24 55/97/24 54/96/24
f 58/116/24 60/117/24 64/118/24
f 175/120/89 174/114/283 59/115/90
f 150/113/92 58/112/413 62/122/93
f 59/110/95 57/111/95 61/124/95
f 63/125/80 61/124/80 65/126/80
f 151/123/96 62/122/414 66/128/97
f 175/120/99 63/121/415 67/130/100
f 62/119/24 64/118/24 68/132/24
f 66/133/24 68/132/24 52/134/24
f 176/131/102 67/130/416 50/136/103
f 154/129/105 66/128/106 48/138/106
f 67/127/80 65/126/80 46/140/80
f 156/94/67 70/93/66 69/142/108
f 179/144/110 45/440/278 71/145/111
f 45/147/113 49/107/77 72/148/114
f 51/150/24 47/95/24 69/151/24
f 130/153/32 135/85/60 85/154/115
f 121/156/117 85/154/115 86/157/118
f 123/159/120 76/240/220 84/160/121
f 73/162/123 83/165/209 141/163/124
f 83/165/126 82/171/208 140/166/127
f 120/161/129 84/160/221 81/167/130
f 119/168/132 81/167/222 80/169/133
f 82/171/135 79/228/207 139/172/136
f 139/172/138 79/228/206 78/173/139
f 118/170/141 80/169/223 77/175/142
f 117/176/144 77/175/224 74/177/116
f 115/179/146 73/241/225 76/180/147
f 78/173/149 75/227/151 136/182/23
f 128/158/119 86/157/118 75/183/151
f 101/185/27 107/201/173 93/186/153
f 108/188/155 94/229/210 88/189/156
f 96/191/158 95/230/174 109/192/63
f 111/194/160 97/231/211 96/191/161
f 98/195/163 97/231/212 111/194/164
f 99/197/166 98/195/213 112/196/167
f 102/199/169 88/232/214 99/197/170
f 100/200/172 93/186/153 107/201/173
f 121/156/117 100/200/172 95/202/174
f 94/204/175 92/225/202 127/205/176
f 127/205/178 92/225/203 91/207/179
f 126/208/181 91/207/204 90/209/182
f 90/209/184 89/212/205 124/211/185
f 89/212/187 87/226/154 122/213/152
f 43/214/189 114/86/61 107/201/173
f 18/216/191 102/199/169 113/198/171
f 37/217/193 113/198/168 112/196/167
f 33/218/195 112/196/165 111/194/164
f 111/194/160 110/193/162 25/220/197
f 110/193/159 109/192/63 17/221/62
f 108/188/155 102/190/157 18/222/200
f 44/215/190 107/201/173 101/185/27
f 95/202/174 100/200/172 114/86/61
f 94/204/175 108/78/54 106/73/56
f 106/73/51 105/64/53 91/207/179
f 91/207/204 105/64/42 104/60/44
f 90/209/184 104/60/41 103/43/40
f 89/212/187 103/43/25 101/45/27
f 78/173/149 124/211/188 122/213/152
f 79/228/206 125/210/186 124/211/185
f 82/171/135 126/208/181 125/210/183
f 127/205/178 126/208/180 82/171/208
f 73/162/123 115/206/177 127/205/176
f 85/154/115 121/156/117 116/203/145
f 93/186/153 128/158/119 122/184/152
f 115/179/146 123/181/148 88/189/156
f 96/191/158 117/176/144 116/178/145
f 118/170/141 117/176/143 96/191/161
f 98/195/163 119/168/132 118/170/134
f 99/197/166 120/161/129 119/168/131
f 88/232/214 123/159/120 120/161/122
f 100/200/172 121/156/117 128/158/119
f 26/233/215 138/174/150 136/182/23
f 32/235/216 139/172/138 138/174/140
f 36/236/217 140/166/137 139/172/136
f 40/237/218 141/163/128 140/166/127
f 24/238/215 129/164/125 141/163/124
f 19/239/219 41/84/59 135/85/60
f 135/85/60 142/37/21 86/157/118
f 76/240/220 137/81/58 134/72/57
f 134/72/50 133/66/49 81/167/130
f 133/66/47 132/58/46 80/169/133
f 80/169/223 132/58/38 131/51/37
f 77/175/224 131/51/33 130/50/32
f 73/241/225 129/48/30 137/47/29
f 75/183/151 86/157/118 142/37/21
f 47/242/226 144/274/74 155/143/109
f 163/243/227 156/94/67 155/143/109
f 158/245/229 169/251/417 154/129/105
f 52/246/230 68/249/230 153/247/231
f 68/249/233 64/253/418 152/250/234
f 169/251/236 168/252/261 151/123/96
f 168/252/237 167/257/419 150/113/92
f 64/253/238 60/255/420 149/254/239
f 60/255/241 54/261/421 148/256/242
f 167/257/244 166/258/422 147/106/83
f 166/258/245 165/441/282 144/104/74
f 164/259/246 158/442/423 146/260/247
f 54/261/248 51/443/411 145/262/65
f 157/263/250 145/92/65 156/94/67
f 157/263/250 163/243/227 177/264/251
f 172/266/253 158/442/423 164/259/246
f 179/268/110 165/441/282 166/258/245
f 180/269/256 166/258/422 167/257/244
f 181/270/258 167/257/419 168/252/237
f 183/272/260 182/271/424 168/252/261
f 183/272/262 169/251/417 158/245/229
f 184/146/112 177/264/251 163/243/227
f 144/274/74 165/290/282 170/244/228
f 153/247/231 162/276/425 164/275/264
f 152/250/234 161/277/426 162/276/265
f 149/254/239 160/278/427 161/277/266
f 148/256/242 159/279/284 160/278/267
f 145/262/65 157/444/250 159/279/268
f 72/280/269 177/264/251 184/146/112
f 65/281/270 183/272/262 172/273/263
f 61/283/272 182/271/424 183/272/260
f 57/284/274 181/270/258 182/271/259
f 53/285/276 180/269/256 181/270/257
f 45/286/278 179/268/110 180/269/255
f 46/287/280 172/266/253 178/267/254
f 171/265/252 177/264/251 72/280/269
f 179/144/110 184/146/112 170/244/228
f 164/275/264 162/276/425 176/131/102
f 162/276/265 161/277/426 175/120/99
f 161/277/266 160/278/427 174/114/283
f 159/279/284 173/98/412 174/114/86
f 159/279/268 157/444/250 171/291/252
f 210/292/285 217/445/428 185/293/286
f 244/295/288 219/446/429 209/296/289
f 206/298/291 220/447/430 187/299/292
f 256/301/294 251/448/431 220/302/295
f 243/304/297 245/351/342 191/305/298
f 6/307/299 5/449/299 192/308/300
f 209/310/302 212/450/432 190/4/4
f 246/3/3 190/2/2 212/311/303
f 223/313/305 214/451/433 204/314/306
f 204/316/308 214/452/434 193/317/309
f 197/319/311 200/328/320 213/320/312
f 252/322/314 215/453/435 199/323/315
f 253/324/316 199/323/315 207/325/317
f 205/327/319 208/342/333 200/328/320
f 254/329/321 198/345/336 196/330/322
f 196/332/324 198/346/337 199/333/325
f 4/335/327 3/454/436 204/316/308
f 224/315/307 204/314/306 3/336/328
f 216/338/329 194/455/437 202/16/12
f 225/10/8 201/12/10 193/339/330
f 218/341/332 188/456/438 208/342/333
f 255/326/318 207/325/317 187/343/334
f 254/329/321 256/301/294 206/303/296
f 198/346/337 206/298/291 207/300/293
f 249/347/338 247/312/304 212/311/303
f 186/349/340 212/450/432 209/310/302
f 245/351/342 248/297/290 209/296/289
f 192/308/300 210/292/285 211/294/287
f 234/352/343 227/378/439 188/353/344
f 252/355/346 257/416/440 196/356/347
f 244/358/349 249/457/441 186/359/350
f 194/361/352 216/458/442 226/362/353
f 223/363/355 226/362/443 193/364/356
f 203/366/358 225/10/8 226/340/331
f 202/368/360 224/315/307 221/337/328
f 194/370/361 223/313/305 224/315/307
f 1/371/11 221/13/11 222/15/11
f 203/366/358 2/459/362 222/373/362
f 195/374/363 213/460/444 233/375/364
f 258/377/366 251/415/445 227/378/367
f 200/379/369 208/391/381 232/380/370
f 205/382/372 231/388/378 234/383/373
f 200/379/369 230/381/371 233/385/375
f 197/387/377 229/390/380 231/388/378
f 195/389/379 228/417/404 229/390/380
f 208/391/381 188/461/446 227/392/382
f 185/393/383 217/462/447 242/394/384
f 189/396/386 211/406/393 241/397/387
f 210/399/388 240/403/392 242/400/389
f 192/402/391 239/411/3 240/403/392
f 6/404/297 189/396/386 238/398/342
f 211/406/393 185/463/448 237/407/394
f 243/408/7 250/464/7 236/409/7
f 192/402/391 5/465/1 236/410/1
f 7/412/7 250/464/7 243/408/7
f 242/394/395 249/457/449 244/358/396
f 238/398/342 241/397/387 248/297/290
f 240/403/392 247/312/304 249/347/338
f 239/411/3 246/3/3 247/312/304
f 238/398/342 245/351/342 243/304/297
f 241/397/387 237/407/394 244/295/288
f 236/410/1 250/1/1 246/3/3
f 187/414/398 220/466/450 251/415/399
f 228/376/401 233/375/451 257/416/402
f 230/381/371 232/380/370 256/301/294
f 234/383/373 231/388/378 255/326/318
f 230/381/371 254/329/321 257/331/323
f 229/390/380 253/324/316 255/326/318
f 228/417/404 252/322/314 253/324/316
f 227/392/382 251/448/431 256/301/294
g Rails_End_1_LOD_1_Mesh
v 1.001766 0.103617 -1.114547
v 0.997500 0.028274 -1.141106
v 0.962846 0.013395 -0.852353
v 0.958579 -0.061947 -0.878912
v -1.279184 0.449313 -0.833906
v -1.310049 0.380654 -0.860984
v -1.270914 0.343421 -0.574833
v -1.301779 0.274762 -0.601911
v 1.137586 0.080000 0.903281
v 1.137586 0.000000 0.903281
v 1.051796 0.080000 1.169815
v 1.051796 0.000000 1.169815
v -1.051796 0.080000 0.198577
v -1.051796 0.000000 0.198577
v -1.137586 0.080000 0.465110
v -1.137586 0.000000 0.465110
v -1.186325 0.650418 -0.824256
v -0.970842 0.282922 1.500000
v -1.017800 0.089379 1.500000
v -1.102193 0.636226 -0.905037
v -0.833892 0.283818 1.500000
v -0.781350 0.085722 1.500000
v -0.837698 0.248358 1.500000
v -0.949296 0.222738 1.500000
v -1.135239 0.624179 -0.914318
v -1.314609 0.592042 -0.886879
v -1.181243 0.572088 -1.010125
v -0.820058 0.148000 1.500000
v 0.885793 0.205021 -1.038471
v 0.908263 0.058205 -0.967268
v 0.970840 0.282959 1.499999
v 1.018645 0.085816 1.500000
v 0.754139 0.213017 -1.066273
v 0.676676 0.056554 -1.020400
v 0.828894 0.280797 1.500000
v 0.782154 0.089112 1.500000
v 0.873208 0.165576 -1.042931
v 0.763481 0.165689 -1.070386
v 0.948292 0.222371 1.499968
v 0.845565 0.240000 1.500000
v 0.820058 0.148000 1.500000
v -0.833812 0.119158 0.068151
v -1.015433 0.320462 0.087838
v -0.886761 0.317310 0.086490
v -1.066928 0.118428 0.090697
v -1.027248 0.301596 0.041561
v -0.896765 0.280827 0.045274
v -1.007548 0.272607 0.078930
v -1.031056 0.189687 0.086159
v -0.873496 0.182161 0.066990
v -0.997317 0.423428 -0.485672
v -1.212279 0.282534 -0.455881
v -1.018367 0.392450 -0.476656
v -1.018729 0.300201 -0.501243
v -1.001152 0.233153 -0.522029
v -1.102657 0.527341 -0.723703
v -1.124655 0.452933 -0.437438
v -1.117257 0.415428 -0.448828
v -1.163959 0.333947 -0.460375
v -1.089896 0.460451 -0.442789
v -1.351138 0.458659 -0.719817
v -1.118362 0.486114 -0.704441
v -1.161594 0.433590 -0.773437
v -1.165953 0.389088 -0.817775
v -1.205911 0.562092 -0.660900
v -1.221571 0.545913 -0.692715
v -1.287243 0.491486 -0.713720
v -0.925909 0.142212 -0.175236
v -1.128884 0.172387 -0.070372
v -0.920540 0.329911 -0.132928
v -0.943652 0.205370 -0.146418
v -0.944462 0.349272 -0.107763
v -0.783416 0.085777 0.804144
v -0.966607 0.283441 0.817254
v -0.957955 0.242884 0.829585
v -0.979943 0.147259 0.806001
v -1.016832 0.083267 0.833197
v -0.827531 0.280307 0.819179
v -0.845566 0.239259 0.806001
v -0.820058 0.147259 0.806001
v 0.786601 0.061107 0.190227
v 0.949478 0.261033 0.159792
v 0.809896 0.257605 0.151592
v 1.019432 0.064064 0.128417
v 0.941206 0.221366 0.157091
v 0.848451 0.217060 0.161708
v 0.982724 0.125614 0.150320
v 0.823184 0.124998 0.160800
v 0.874073 0.412985 -0.437133
v 1.018389 0.208483 -0.461006
v 0.844247 0.380291 -0.432512
v 0.827368 0.273616 -0.420016
v 0.789027 0.212143 -0.407632
v 0.975290 0.402484 -0.464021
v 0.958367 0.362046 -0.459268
v 0.982126 0.269581 -0.459978
v 0.674021 0.316533 -0.814769
v 0.881653 0.130303 -0.787387
v 0.705871 0.279066 -0.813805
v 0.682477 0.186570 -0.810353
v 0.646089 0.123440 -0.808307
v 0.817389 0.322718 -0.798636
v 0.800660 0.281652 -0.794791
v 0.842283 0.190368 -0.790287
v -0.214096 0.008412 -1.051974
v -0.226831 -0.039609 -0.772705
v -0.143964 -0.071646 -0.801190
v -0.214634 0.056755 -1.032508
v -0.365696 0.030598 -1.037375
v -0.311310 -0.012587 -0.754165
v -0.518525 -0.019980 -0.747386
v -0.422507 0.129433 -0.993812
v 0.404414 -0.049673 -0.938841
v 0.400829 0.104081 -1.169714
v 0.296292 0.053906 -1.187703
v 0.383106 0.041407 -0.922455
v 0.414970 -0.029514 -0.958637
v 0.263759 0.115596 -1.160913
v 0.418060 0.035684 -1.192149
v 0.384811 0.022062 -0.910220
v -0.201779 -0.009589 -1.051615
v -0.141476 -0.027754 -0.778650
v -0.045366 -0.096693 -0.821538
v -0.228738 -0.122868 -0.806838
v -0.208127 0.069884 -1.031522
v -0.186046 -0.000348 -0.888976
v 0.382612 -0.004573 -1.038400
v 0.339571 0.068382 -1.019765
v -0.184153 -0.040957 -0.920277
v -0.236429 -0.052193 -0.930793
v -0.229760 0.012672 -0.901289
v -0.274289 -0.078988 -0.864081
v -0.296848 0.009709 -0.825776
v -0.208854 -0.019172 -0.822414
v -0.192625 -0.072103 -0.857260
vn 0.5114 0.3334 0.7920
vn 0.4872 -0.7665 0.4184
vn 0.6274 -0.3842 -0.6773
vn 0.8296 -0.3251 -0.4539
vn 0.7245 0.3871 -0.5704
vn 0.9698 0.2433 -0.0160
vn -0.0356 0.7821 0.6221
vn -0.7657 0.6417 0.0432
vn -0.9800 -0.1980 0.0191
vn -0.2191 0.8967 -0.3845
vn -0.0399 0.9773 0.2081
vn -0.0000 -0.0000 1.0000
vn -0.2418 -0.8745 0.4205
vn -0.2934 0.4771 0.8285
vn -0.7381 -0.5135 0.4377
vn -0.9559 -0.2936 0.0035
vn -0.9809 0.1901 0.0414
vn -0.9753 0.2147 0.0513
vn 0.3500 -0.6758 -0.6487
vn -0.5245 0.2810 -0.8037
vn 0.9549 0.1615 -0.2491
vn -0.9200 0.3895 -0.0431
vn -0.4751 0.4208 -0.7727
vn -0.9571 -0.1684 -0.2356
vn 0.7941 0.6024 0.0806
vn 0.0031 0.7967 0.6043
vn 0.9790 -0.2035 -0.0091
vn 0.9293 0.3670 0.0415
vn 0.9481 -0.3178 -0.0048
vn 0.9177 0.3949 0.0430
vn 0.2305 -0.2412 -0.9427
vn 0.2045 -0.9539 -0.2195
vn -0.6738 -0.5626 -0.4791
vn -0.5750 0.8029 0.1572
vn 0.7841 0.6205 -0.0136
vn 0.4178 0.9026 0.1039
vn 0.9973 -0.0606 -0.0424
vn 0.9851 0.0108 -0.1717
vn 0.8512 0.5247 -0.0150
vn 0.9712 -0.0586 -0.2309
vn -0.7850 0.4675 0.4064
vn -0.4345 0.7631 0.4784
vn -0.7610 0.5001 0.4133
vn 0.0775 0.9541 0.2894
vn 0.8887 -0.2740 -0.3675
vn 0.9524 0.1107 -0.2840
vn 0.9928 -0.1191 0.0092
vn 0.6056 0.5509 0.5743
vn -0.9851 -0.1034 0.1373
vn -0.8491 -0.5271 0.0340
vn 0.8280 0.5320 -0.1774
vn -0.9552 0.2953 0.0176
vn -0.8679 0.4653 0.1739
vn -0.7180 -0.6931 -0.0641
vn 0.8596 0.2952 -0.4171
vn 0.7119 0.6310 -0.3083
vn 0.8584 -0.3193 0.4015
vn -0.1756 0.3309 0.9272
vn -0.2795 -0.7119 0.6442
vn 0.1456 -0.8801 0.4519
vn 0.6130 -0.7893 0.0355
vn 0.2944 0.3257 0.8985
vn -0.0889 -0.9531 -0.2894
vn 0.4812 0.7528 0.4492
vn 0.3536 0.8705 0.3424
vn -0.4530 -0.3999 -0.7968
vn -0.5348 -0.7960 0.2836
vn -0.3054 -0.8673 -0.3931
vn 0.3669 -0.8321 -0.4160
vn -0.5870 -0.7951 -0.1527
vn 0.8493 -0.5139 0.1211
vn -0.6245 -0.4827 -0.6141
vn -0.9221 0.3470 0.1713
vn 0.7989 0.1594 -0.5799
vn -0.0000 1.0000 -0.0000
vn -0.3064 -0.0000 0.9519
vn -0.9519 -0.0000 -0.3064
vn -0.0000 -1.0000 -0.0000
vn 0.9519 -0.0000 0.3064
vn 0.3064 -0.0000 -0.9519
vn -0.8539 -0.5204 0.0009
vn 0.7251 -0.4075 0.5552
vn -0.7134 -0.4235 0.5582
vn 0.7464 -0.5321 -0.3996
vn 0.8978 -0.2514 -0.3615
vn 0.9101 -0.3202 -0.2629
vn -0.9415 -0.3370 0.0020
vn -0.8687 0.3490 -0.3516
vn -0.8880 0.4598 -0.0062
vn -0.8591 0.5100 0.0426
vn 0.7090 -0.4292 0.5595
vn -0.8413 -0.5372 -0.0604
vn 0.8282 -0.5544 -0.0816
vn 0.2213 -0.2447 -0.9440
vn 0.0002 -0.0001 1.0000
vn -0.6902 0.4625 0.5566
vn 0.9372 -0.3488 -0.0047
vn -0.9495 -0.2585 0.1781
vn -0.8873 0.3685 -0.2772
vn 0.8656 0.4987 0.0457
vn 0.8889 0.4580 -0.0102
vn 0.0002 -0.0002 1.0000
vn 0.0001 -0.0000 1.0000
vn -0.9179 0.3956 -0.0314
vn -0.7368 -0.3846 0.5560
vn 0.8579 0.5134 -0.0191
vn 0.8643 -0.4584 -0.2069
vn 0.8436 0.5120 -0.1618
vn 0.9688 0.1979 -0.1491
vn -0.9469 -0.2867 0.1458
vn -0.7992 -0.5888 0.1205
vn -0.8321 0.4830 0.2724
vn 0.6743 -0.6476 -0.3548
vn -0.9149 -0.3629 0.1770
vn 0.6446 -0.6138 -0.4557
vn -0.8075 0.4157 0.4186
vn -0.8126 0.4066 0.4176
vn -0.9509 -0.2487 0.1844
vn -0.5277 0.6381 0.5606
vn -0.6114 0.6192 0.4928
vn 0.9224 0.3137 -0.2254
vn 0.9711 0.0150 -0.2381
vn 0.9556 0.0547 -0.2897
vn -0.9907 -0.0541 0.1247
vn 0.9186 0.3456 -0.1919
vn -0.9728 0.1121 0.2027
vn -0.9425 0.2827 0.1782
vn 0.9833 0.1813 -0.0123
vn 0.9633 0.2671 -0.0281
vn 0.8696 -0.4918 -0.0441
vn -0.2634 0.9624 0.0668
vn -0.8419 0.5395 -0.0143
vn -0.8481 0.5235 0.0817
vn 0.9160 -0.3645 -0.1674
vn 0.8436 0.5050 -0.1825
vn 0.9467 0.2636 -0.1852
vn 0.9697 -0.1320 -0.2054
vn -0.9654 0.2592 0.0286
vn -0.9637 0.2671 -0.0067
vn -0.9636 0.2672 -0.0067
vn -0.9068 -0.3942 0.1495
vn 0.8629 -0.5035 0.0435
vn 0.9980 -0.0137 -0.0611
vn 0.8015 0.5103 -0.3116
vn -0.8230 0.5454 0.1592
vn -0.9693 0.1814 0.1662
vn 0.9070 0.3961 -0.1429
vn 0.9417 0.3184 0.1086
vn -0.9011 -0.3938 0.1816
vn -0.0494 0.3703 -0.9276
vn -0.0489 0.3363 -0.9405
vn -0.0444 0.3193 -0.9466
vn -0.0350 0.3859 -0.9219
vn -0.0310 0.3794 -0.9247
vn -0.0312 0.3788 -0.9249
vn 0.1572 0.8611 -0.4836
vn -0.7358 0.6347 -0.2362
vn -0.6893 0.2990 0.6599
vn 0.6025 0.5154 0.6094
vn -0.8386 0.3578 0.4107
vn -0.7045 0.6867 0.1791
vn 0.8929 -0.0847 0.4421
vn 0.6327 -0.5707 -0.5234
vn 0.6963 0.7061 -0.1288
vn 0.7174 0.4219 -0.5544
vn -0.6134 0.6673 -0.4223
vn 0.4534 -0.1791 -0.8731
vn -0.9676 -0.0224 -0.2513
vn 0.9838 -0.1443 0.1063
vn 0.9850 -0.1363 0.1062
vn 0.9857 -0.1310 0.1062
vn 0.6572 0.5150 0.5503
vn 0.3644 0.8609 0.3550
vn -0.3851 -0.8576 -0.3410
vn 0.2862 -0.9330 -0.2183
vn -0.1719 -0.8680 -0.4658
vn 0.3840 0.8589 0.3388
vn 0.9848 0.1731 -0.0134
vn 0.8493 0.5279 -0.0006
vn -0.9641 0.2644 0.0244
vn -0.9257 -0.3783 0.0045
vn 0.9300 0.3590 0.0786
vn -0.0288 0.9465 0.3214
vn -0.9927 0.0410 -0.1132
vn 0.9830 -0.1495 0.1064
vn 0.3109 0.8501 0.4251
vn -0.6269 -0.5533 0.5485
vt 0.516223 0.691614
vt 0.515996 0.719448
vt 0.416892 0.719448
vt 0.107051 0.659872
vt 0.101515 0.752898
vt 0.100860 0.659872
vt 0.156329 0.752898
vt 0.155600 0.566845
vt 0.163274 0.566845
vt 0.586437 0.536554
vt 0.613402 0.544510
vt 0.583686 0.545039
vt 0.699099 0.533260
vt 0.725887 0.538622
vt 0.697380 0.545024
vt 0.680496 0.803407
vt 0.661770 0.603741
vt 0.680603 0.603730
vt 0.167189 0.752898
vt 0.183109 0.566845
vt 0.140725 0.659872
vt 0.138501 0.752898
vt 0.128368 0.659872
vt 0.263290 0.101714
vt 0.262441 0.008688
vt 0.269819 0.008688
vt 0.209021 0.380793
vt 0.209745 0.008688
vt 0.216587 0.380793
vt 0.220627 0.008688
vt 0.236529 0.380793
vt 0.753806 0.518946
vt 0.792971 0.553567
vt 0.742324 0.554927
vt 0.316630 0.392900
vt 0.343985 0.380793
vt 0.338435 0.473819
vt 0.109420 0.194740
vt 0.107609 0.394518
vt 0.102281 0.194740
vt 0.344756 0.473819
vt 0.156507 0.194740
vt 0.155600 0.101714
vt 0.163125 0.101714
vt 0.322182 0.566846
vt 0.343045 0.659846
vt 0.316265 0.659872
vt 0.109420 0.566845
vt 0.102271 0.566845
vt 0.102005 0.473819
vt 0.100860 0.380793
vt 0.107402 0.008688
vt 0.100860 0.008688
vt 0.164160 0.375891
vt 0.159789 0.355035
vt 0.210247 0.566845
vt 0.263191 0.380793
vt 0.267879 0.194740
vt 0.271001 0.380793
vt 0.209021 0.752898
vt 0.210192 0.659872
vt 0.215989 0.752898
vt 0.908782 0.741512
vt 0.896830 0.742196
vt 0.888904 0.720030
vt 0.680678 0.876858
vt 0.660120 0.847921
vt 0.780838 0.633683
vt 0.784534 0.610464
vt 0.799754 0.603730
vt 0.742076 0.847486
vt 0.760230 0.842022
vt 0.759647 0.862814
vt 0.985604 0.604056
vt 0.987711 0.738930
vt 0.924250 0.605880
vt 0.645743 0.839885
vt 0.598002 0.860286
vt 0.579102 0.799176
vt 0.814938 0.609535
vt 0.785108 0.745735
vt 0.847276 0.614658
vt 0.408503 0.613617
vt 0.507930 0.586135
vt 0.507537 0.613617
vt 0.875727 0.741019
vt 0.858494 0.603730
vt 0.877195 0.605402
vt 0.922196 0.735050
vt 0.789619 0.008688
vt 0.716177 0.491312
vt 0.716177 0.008688
vt 0.485142 0.008688
vt 0.503489 0.536158
vt 0.485142 0.536158
vt 0.885897 0.500718
vt 0.904210 0.580985
vt 0.885897 0.580985
vt 0.848725 0.008688
vt 0.800282 0.491312
vt 0.800282 0.008688
vt 0.944008 0.500718
vt 0.962321 0.580985
vt 0.944008 0.580985
vt 0.396425 0.008688
vt 0.414772 0.536158
vt 0.396425 0.536158
vt 0.041504 0.194740
vt 0.008688 0.008688
vt 0.041504 0.008688
vt 0.726806 0.545817
vt 0.109420 0.752898
vt 0.730109 0.515948
vt 0.623514 0.502441
vt 0.196083 0.566845
vt 0.686685 0.502819
vt 0.737723 0.501999
vt 0.316562 0.194740
vt 0.343989 0.008688
vt 0.343957 0.194740
vt 0.056076 0.008688
vt 0.088892 0.380793
vt 0.056076 0.380793
vt 0.781211 0.518467
vt 0.752590 0.511078
vt 0.782170 0.510734
vt 0.666459 0.520099
vt 0.639443 0.511624
vt 0.669165 0.512045
vt 0.271001 0.101714
vt 0.249126 0.008688
vt 0.641157 0.523411
vt 0.672172 0.540704
vt 0.289950 0.101714
vt 0.302821 0.008688
vt 0.628748 0.554632
vt 0.679786 0.553894
vt 0.384456 0.380793
vt 0.356684 0.008688
vt 0.384529 0.008688
vt 0.128368 0.194740
vt 0.141086 0.380793
vt 0.128368 0.380793
vt 0.196759 0.287767
vt 0.195436 0.380793
vt 0.183109 0.380591
vt 0.041504 0.380793
vt 0.008688 0.473819
vt 0.008688 0.380793
vt 0.041504 0.566846
vt 0.008688 0.659872
vt 0.008688 0.566846
vt 0.183109 0.194740
vt 0.164160 0.194740
vt 0.183109 0.101714
vt 0.195431 0.194740
vt 0.128368 0.566845
vt 0.140600 0.473819
vt 0.141050 0.566845
vt 0.315862 0.566846
vt 0.128368 0.473819
vt 0.316318 0.752898
vt 0.195347 0.008688
vt 0.197275 0.101714
vt 0.041504 0.752898
vt 0.041504 0.659872
vt 0.156691 0.008688
vt 0.344756 0.566846
vt 0.041504 0.473819
vt 0.155600 0.368532
vt 0.128368 0.008688
vt 0.140985 0.008688
vt 0.140818 0.194740
vt 0.008688 0.194740
vt 0.359376 0.566846
vt 0.357371 0.380793
vt 0.302710 0.380793
vt 0.289950 0.752898
vt 0.289950 0.380793
vt 0.248783 0.566845
vt 0.236529 0.566845
vt 0.217581 0.566845
vt 0.271001 0.752898
vt 0.263555 0.752898
vt 0.088892 0.566846
vt 0.056076 0.566846
vt 0.056076 0.659872
vt 0.217581 0.659872
vt 0.248881 0.659872
vt 0.236529 0.659872
vt 0.384587 0.659872
vt 0.356447 0.659872
vt 0.302613 0.194740
vt 0.289950 0.194740
vt 0.356351 0.752898
vt 0.262441 0.194740
vt 0.248152 0.752898
vt 0.088892 0.659872
vt 0.056076 0.752898
vt 0.544016 0.843757
vt 0.565813 0.874875
vt 0.551108 0.879168
vt 0.562466 0.822090
vt 0.547001 0.603730
vt 0.565813 0.604137
vt 0.975194 0.768956
vt 0.991752 0.883471
vt 0.975313 0.885878
vt 0.943923 0.891614
vt 0.963523 0.761371
vt 0.963267 0.896323
vt 0.908047 0.613169
vt 0.922827 0.899772
vt 0.911336 0.761582
vt 0.924732 0.773712
vt 0.523983 0.831695
vt 0.466464 0.862499
vt 0.458456 0.843813
vt 0.659915 0.869168
vt 0.580372 0.871119
vt 0.507925 0.742503
vt 0.478111 0.771193
vt 0.473163 0.743476
vt 0.507470 0.633144
vt 0.489353 0.661300
vt 0.486290 0.626120
vt 0.509619 0.791561
vt 0.419390 0.819054
vt 0.417600 0.794062
vt 0.846943 0.898803
vt 0.783807 0.763136
vt 0.846896 0.763488
vt 0.419248 0.767871
vt 0.417559 0.742503
vt 0.417119 0.691614
vt 0.437238 0.868011
vt 0.428136 0.841765
vt 0.896873 0.771405
vt 0.859432 0.889160
vt 0.859526 0.774256
vt 0.459259 0.637867
vt 0.412973 0.664671
vt 0.408503 0.642553
vt 0.898282 0.897112
vt 0.847577 0.733973
vt 0.806427 0.743288
vt 0.726997 0.863632
vt 0.694776 0.817541
vt 0.645817 0.604343
vt 0.613816 0.870108
vt 0.645312 0.876057
vt 0.759750 0.603730
vt 0.693892 0.604810
vt 0.414806 0.863186
vt 0.411255 0.841557
vt 0.408896 0.586135
vt 0.858498 0.743916
vt 0.789619 0.491312
vt 0.503489 0.008688
vt 0.904210 0.500718
vt 0.848725 0.491312
vt 0.962321 0.500718
vt 0.414772 0.008688
vt 0.573747 0.504694
vt 0.194958 0.752898
vt 0.316420 0.008688
vt 0.088892 0.008688
vt 0.249132 0.380793
vt 0.302572 0.101714
vt 0.344308 0.752898
vt 0.008688 0.752898
vt 0.384528 0.566846
vt 0.301855 0.752898
vt 0.384064 0.752898
vt 0.088892 0.752898
vt 0.991518 0.761493
vt 0.944843 0.762639
vt 0.889416 0.605283
vt 0.523812 0.860399
vt 0.508346 0.771403
vt 0.512063 0.664671
vt 0.513999 0.819088
vt 0.781355 0.902768
vt 0.461563 0.662487
vt 0.693892 0.870037
vt 0.579909 0.603730
s 1
usemtl End_1.002
f 261/467/452 262/468/453 260/469/454
f 320/470/455 278/471/456 314/472/457
f 276/473/458 332/474/459 333/475/460
f 283/476/461 275/477/462 278/478/456
f 282/479/463 281/480/463 276/481/458
f 369/482/464 265/483/465 266/484/466
f 282/485/467 333/475/468 334/486/469
f 322/487/470 285/488/471 321/489/472
f 355/490/473 291/491/474 296/492/475
f 340/493/476 289/494/477 343/495/478
f 343/495/479 297/496/480 345/497/481
f 296/498/482 288/499/483 292/500/484
f 301/501/485 302/502/486 330/503/487
f 337/504/488 305/505/489 336/506/490
f 330/503/487 302/502/486 328/507/491
f 315/508/492 323/509/493 324/510/494
f 318/511/495 314/512/457 323/513/493
f 311/514/496 320/470/455 309/515/497
f 305/505/489 328/516/491 302/517/486
f 281/518/498 336/506/490 279/519/499
f 306/520/500 333/475/468 304/521/501
f 352/522/502 340/493/476 343/495/478
f 341/523/503 349/524/504 344/525/505
f 287/526/506 360/527/507 295/528/508
f 380/529/509 365/530/510 381/531/511
f 382/532/512 368/533/513 369/482/464
f 381/534/511 365/535/510 393/536/514
f 391/537/515 368/538/513 364/539/516
f 377/540/517 260/541/454 371/542/518
f 367/543/519 390/544/520 369/545/464
f 387/546/521 381/534/511 393/536/514
f 375/547/522 381/534/511 379/548/523
f 263/549/524 266/550/466 265/551/465
f 377/552/517 259/553/525 260/554/454
f 371/542/518 260/541/454 262/555/453
f 267/556/526 273/557/526 269/558/526
f 270/559/527 273/560/527 274/561/527
f 274/562/528 271/563/528 272/564/528
f 272/565/529 270/566/529 274/567/529
f 268/568/530 269/569/530 270/570/530
f 272/571/531 267/572/531 268/573/531
f 335/574/532 280/575/533 277/576/534
f 281/480/463 279/577/499 276/481/458
f 283/578/535 321/489/536 285/488/537
f 282/485/467 276/473/538 333/475/468
f 283/578/535 278/471/456 320/470/455
f 286/579/463 281/480/463 282/479/463
f 283/476/461 284/580/539 275/477/462
f 335/581/532 282/485/540 334/486/541
f 286/579/463 277/582/534 280/583/533
f 332/584/459 279/585/499 336/586/490
f 290/587/542 339/588/543 342/589/544
f 295/590/545 291/591/474 287/592/506
f 298/593/546 289/594/477 293/595/547
f 343/495/479 289/494/548 297/496/480
f 357/596/549 355/490/473 296/492/550
f 290/597/542 345/497/551 297/496/552
f 297/598/553 298/593/546 299/599/554
f 358/600/555 357/596/549 296/492/550
f 296/498/482 295/590/545 288/499/483
f 292/601/484 358/600/555 296/492/550
f 290/602/542 299/599/554 294/603/556
f 340/604/476 293/605/547 289/606/477
f 338/607/557 300/608/558 308/609/559
f 337/504/488 308/609/560 305/505/489
f 327/610/561 303/611/562 307/612/563
f 303/613/562 326/614/564 300/615/558
f 310/616/565 322/617/470 313/618/566
f 305/505/489 302/517/486 336/506/490
f 324/510/494 317/619/567 316/620/568
f 324/510/494 316/620/569 315/508/492
f 325/621/570 310/622/565 317/619/571
f 312/623/572 326/624/564 313/625/566
f 301/501/485 318/511/495 315/626/492
f 311/514/496 329/627/573 312/623/574
f 328/516/491 311/514/496 309/515/497
f 314/512/457 275/628/462 323/513/493
f 324/510/494 284/629/539 325/621/570
f 284/629/539 319/630/575 325/621/570
f 284/631/539 322/617/470 319/632/575
f 324/510/494 323/509/493 275/633/462
f 313/625/566 321/489/472 312/623/572
f 315/626/492 318/511/495 323/513/493
f 320/470/455 312/623/574 321/489/536
f 308/609/559 326/624/564 329/627/576
f 309/515/497 320/470/455 314/472/457
f 308/609/560 329/627/573 305/505/489
f 309/634/497 330/503/487 328/507/491
f 310/616/565 326/614/564 327/635/561
f 316/620/569 304/521/501 315/508/492
f 315/508/492 304/521/577 301/636/485
f 306/520/500 317/619/567 307/612/578
f 317/619/571 327/610/561 307/612/563
f 330/503/487 318/511/495 301/501/485
f 337/504/488 286/637/579 338/607/580
f 281/518/498 337/504/488 336/506/490
f 338/607/557 280/638/533 331/639/581
f 302/502/486 332/584/459 336/586/490
f 303/611/562 334/486/541 307/612/563
f 306/520/500 334/486/469 333/475/468
f 301/636/485 333/475/460 332/474/459
f 303/613/562 331/640/581 335/574/532
f 340/604/476 347/641/582 341/642/503
f 339/643/543 299/644/583 346/645/584
f 345/497/551 348/646/585 354/647/586
f 343/495/479 354/647/587 353/648/588
f 344/525/589 299/644/590 298/649/591
f 344/525/505 293/650/547 341/523/503
f 342/589/544 351/651/592 348/652/585
f 353/648/588 352/522/502 343/495/479
f 351/651/592 356/653/593 348/652/585
f 353/648/588 360/527/507 352/522/502
f 354/647/587 361/654/594 353/648/588
f 354/647/586 356/655/593 362/656/595
f 347/641/582 360/657/507 355/658/473
f 351/659/592 346/645/584 350/660/596
f 350/660/597 344/525/589 349/524/504
f 360/657/507 291/661/474 355/658/473
f 341/523/503 347/662/582 349/524/504
f 362/656/598 295/528/599 361/654/594
f 288/663/483 362/656/595 356/655/593
f 359/664/600 288/665/483 356/653/593
f 295/528/599 360/527/507 361/654/594
f 358/600/555 351/659/592 350/660/596
f 357/596/549 350/660/597 349/524/504
f 367/666/601 383/667/602 363/668/603
f 349/524/504 355/490/473 357/596/549
f 349/524/504 347/662/582 355/490/473
f 370/669/604 264/670/605 263/671/606
f 376/672/607 379/673/523 366/674/608
f 371/675/518 261/676/452 378/677/609
f 381/531/511 374/678/610 380/529/509
f 374/679/610 392/680/611 380/681/509
f 366/682/608 387/683/521 384/684/612
f 364/685/613 368/533/513 382/532/512
f 369/545/464 390/544/520 382/686/512
f 374/687/610 385/688/614 386/689/615
f 364/690/613 390/691/520 391/692/616
f 371/693/518 372/694/617 377/695/517
f 261/696/452 372/697/617 378/698/609
f 386/689/615 373/699/618 376/700/607
f 259/701/525 261/467/452 260/469/454
f 384/684/612 393/702/619 392/703/611
f 384/704/612 376/705/607 366/706/608
f 389/707/620 363/708/621 383/709/622
f 376/705/607 374/679/610 386/710/615
f 373/711/618 375/547/522 379/548/523
f 373/711/618 385/712/614 375/547/522
f 389/713/623 370/714/624 391/537/515
f 369/545/464 264/715/625 367/543/519
f 370/714/624 368/538/513 391/537/515
f 388/716/626 367/543/519 363/717/627
f 265/718/465 370/714/624 263/719/628
f 390/691/520 389/707/623 391/692/515
f 392/703/611 365/720/510 380/721/509
f 374/679/610 384/704/612 392/680/611
f 387/546/521 379/548/523 381/534/511
f 369/482/464 368/533/513 265/483/465
f 263/549/524 264/722/524 266/550/466
f 377/552/517 372/723/617 259/553/525
f 267/556/526 271/724/526 273/557/526
f 270/559/527 269/725/527 273/560/527
f 274/562/528 273/726/528 271/563/528
f 272/565/529 268/727/529 270/566/529
f 268/568/530 267/728/530 269/569/530
f 272/571/531 271/729/531 267/572/531
f 335/574/532 331/640/581 280/575/533
f 283/578/535 320/470/455 321/489/536
f 283/476/461 285/730/471 284/580/539
f 335/581/532 277/731/534 282/485/540
f 286/579/463 282/479/463 277/582/534
f 332/584/459 276/732/458 279/585/499
f 290/587/542 294/733/556 339/588/543
f 295/590/545 296/498/482 291/591/474
f 298/593/546 297/598/553 289/594/477
f 290/597/542 342/734/544 345/497/551
f 292/601/484 359/735/600 358/600/555
f 290/602/542 297/598/553 299/599/554
f 340/604/476 341/642/503 293/605/547
f 338/607/557 331/639/581 300/608/558
f 337/504/488 338/607/580 308/609/560
f 303/613/562 327/635/561 326/614/564
f 310/616/565 319/632/575 322/617/470
f 324/510/494 325/621/570 317/619/567
f 325/621/570 319/630/575 310/622/565
f 312/623/572 329/627/576 326/624/564
f 311/514/496 305/505/489 329/627/573
f 328/516/491 305/505/489 311/514/496
f 314/512/457 278/736/456 275/628/462
f 324/510/494 275/633/462 284/629/539
f 284/631/539 285/737/471 322/617/470
f 313/625/566 322/487/470 321/489/472
f 320/470/455 311/514/496 312/623/574
f 308/609/559 300/608/558 326/624/564
f 309/634/497 314/512/457 330/503/487
f 310/616/565 313/618/566 326/614/564
f 316/620/569 306/520/500 304/521/501
f 306/520/500 316/620/568 317/619/567
f 317/619/571 310/622/565 327/610/561
f 330/503/487 314/512/457 318/511/495
f 337/504/488 281/518/629 286/637/579
f 338/607/557 286/637/630 280/638/533
f 302/502/486 301/501/485 332/584/459
f 303/611/562 335/581/532 334/486/541
f 306/520/500 307/612/578 334/486/469
f 301/636/485 304/521/577 333/475/460
f 303/613/562 300/615/558 331/640/581
f 340/604/476 352/738/502 347/641/582
f 339/643/543 294/739/556 299/644/583
f 345/497/551 342/734/544 348/646/585
f 343/495/479 345/497/481 354/647/587
f 344/525/589 346/645/631 299/644/590
f 344/525/505 298/649/632 293/650/547
f 342/589/544 339/588/543 351/651/592
f 351/651/592 359/664/600 356/653/593
f 353/648/588 361/654/594 360/527/507
f 354/647/587 362/656/598 361/654/594
f 354/647/586 348/646/585 356/655/593
f 347/641/582 352/738/502 360/657/507
f 351/659/592 339/643/543 346/645/584
f 350/660/597 346/645/631 344/525/589
f 360/657/507 287/740/506 291/661/474
f 362/656/598 288/663/633 295/528/599
f 359/664/600 292/741/484 288/665/483
f 358/600/555 359/735/600 351/659/592
f 357/596/549 358/600/555 350/660/597
f 367/666/601 370/669/604 383/667/602
f 370/669/604 367/666/601 264/670/605
f 376/672/607 373/742/618 379/673/523
f 371/675/518 262/743/453 261/676/452
f 381/531/511 375/744/522 374/678/610
f 366/682/608 379/745/523 387/683/521
f 374/687/610 375/746/522 385/688/614
f 364/690/613 382/747/512 390/691/520
f 371/693/518 378/748/609 372/694/617
f 261/696/452 259/749/634 372/697/617
f 386/689/615 385/688/614 373/699/618
f 384/684/612 387/683/635 393/702/619
f 384/704/612 374/679/610 376/705/607
f 389/707/620 388/750/636 363/708/621
f 389/713/623 383/751/637 370/714/624
f 369/545/464 266/752/466 264/715/625
f 388/716/626 390/544/520 367/543/519
f 265/718/465 368/538/513 370/714/624
f 390/691/520 388/750/626 389/707/623
f 392/703/611 393/702/638 365/720/510
g Rails_End_1_LOD_2_Mesh
v 0.998353 0.043343 -1.135794
v 0.961643 -0.008128 -0.860004
v -1.299761 0.403540 -0.851958
v -1.270914 0.343421 -0.574833
v -1.304567 0.264939 -0.600588
v 1.137586 0.026667 0.903281
v 1.051796 0.053333 1.169815
v -1.051796 0.053333 0.198577
v -1.137586 0.026667 0.465110
v -1.186325 0.650418 -0.824256
v -0.950018 0.264698 1.498534
v -1.109042 0.635160 -0.903132
v -0.815287 0.266769 1.497762
v -1.314609 0.592042 -0.886879
v -1.181243 0.572088 -1.010125
v -0.786739 0.087332 1.500000
v 0.882767 0.188301 -1.045106
v 0.908263 0.058205 -0.967268
v 0.957271 0.270536 1.499938
v 1.018645 0.085816 1.500000
v 0.761123 0.187054 -1.077256
v 0.676676 0.056554 -1.020400
v 0.841337 0.266228 1.500084
v 0.782154 0.089112 1.500000
v -1.022635 0.318908 0.052114
v -0.906568 0.260020 0.040516
v -1.068089 0.129010 0.098957
v -0.959787 0.372874 -0.345866
v -1.212279 0.282534 -0.455881
v -0.986488 0.200612 -0.442279
v -1.101456 0.520104 -0.721590
v -1.124916 0.461594 -0.484131
v -1.171893 0.398015 -0.822730
v -1.212142 0.562208 -0.674358
v -1.345801 0.463131 -0.722331
v -0.995341 0.073986 1.495136
v -0.812647 0.109696 0.146101
v 0.948852 0.252315 0.164893
v 0.823388 0.253434 0.154397
v 1.018345 0.067761 0.123693
v 0.788128 0.065023 0.190096
v 0.844113 0.397138 -0.432302
v 0.794438 0.213889 -0.409770
v 0.973770 0.398306 -0.463831
v 1.014332 0.211406 -0.463345
v 0.682187 0.310803 -0.819347
v 0.881653 0.130303 -0.787387
v 0.648191 0.130345 -0.803686
v 0.804643 0.312640 -0.796067
v -0.209593 0.025811 -1.046669
v -0.171002 -0.082474 -0.810951
v -0.282807 -0.019261 -0.773286
v 0.404414 -0.049673 -0.938841
v 0.408804 0.070285 -1.181454
v 0.281940 0.084876 -1.176139
v 0.389027 0.041967 -0.927482
v 0.384811 0.022062 -0.910220
v -0.209561 0.010581 -1.043677
v -0.192723 -0.028906 -0.790385
v -0.259975 -0.102415 -0.818995
v 0.423159 -0.028206 -0.964633
vn 0.6404 -0.5151 0.5697
vn -0.6185 -0.5481 0.5630
vn 0.8340 -0.5259 -0.1672
vn -0.4908 0.6164 0.6157
vn 0.5931 0.8008 0.0840
vn 0.0314 0.6611 0.7496
vn 0.7813 -0.6169 -0.0953
vn -0.2459 0.3097 -0.9185
vn 0.3542 -0.8993 -0.2564
vn -0.6572 -0.5953 -0.4623
vn 0.9386 0.3260 -0.1131
vn 0.5328 0.6137 0.5826
vn 0.1355 0.9371 0.3216
vn -0.1748 0.8352 0.5214
vn -0.9905 -0.1283 0.0488
vn 0.9145 0.4045 -0.0039
vn 0.5309 -0.7436 -0.4066
vn -0.8889 -0.4439 0.1132
vn -0.7819 -0.6230 0.0202
vn -0.7408 0.4413 0.5065
vn -0.0783 0.6421 0.7626
vn -0.6652 0.7410 0.0915
vn -0.7485 -0.6606 -0.0586
vn 0.6807 0.3166 -0.6606
vn 0.4590 0.8227 -0.3355
vn 0.9471 0.2798 0.1574
vn 0.4692 -0.8616 0.1935
vn 0.5487 0.2475 0.7986
vn -0.7304 -0.5453 0.4113
vn 0.7758 -0.0885 0.6248
vn -0.6763 0.3657 0.6394
vn -0.5156 -0.8209 0.2456
vn -0.4768 0.2834 -0.8321
vn 0.8338 0.1209 -0.5387
vn 0.1715 0.3501 -0.9209
vn 0.5761 0.5433 0.6106
vn 0.8561 -0.5132 0.0601
vn 0.5912 0.1119 -0.7987
vn -0.3200 -0.8408 0.4367
vn -0.7085 0.1608 -0.6871
vn -0.2621 0.5562 0.7886
vn -0.5193 0.4730 -0.7117
vn 0.0153 -0.9967 -0.0794
vn -0.0153 -0.9967 0.0794
vn -0.0181 -0.9954 0.0938
vn 0.7182 0.6126 -0.3300
vn 0.1946 -0.7602 -0.6199
vn 0.0802 0.0448 -0.9958
vn -0.0017 0.9802 0.1980
vn -0.8599 0.3448 -0.3764
vn 0.6688 -0.4822 0.5658
vn -0.6771 -0.4714 0.5652
vn -0.8428 -0.5122 0.1656
vn -0.6697 0.7186 -0.1875
vn 0.9490 0.3153 -0.0043
vn 0.8418 0.5375 -0.0501
vn -0.6890 0.7080 0.1547
vn -0.4992 0.8601 0.1054
vn 0.8485 -0.5007 -0.1714
vn 0.6236 0.7686 -0.1427
vn -0.9484 0.3169 -0.0102
vn -0.8150 -0.5655 0.1264
vn 0.8031 -0.5889 0.0909
vn -0.5932 0.2825 0.7538
vn 0.0181 -0.9954 -0.0938
vt 0.008688 0.008688
vt 0.041504 0.009967
vt 0.008688 0.360755
vt 0.686685 0.502819
vt 0.737286 0.502801
vt 0.697794 0.542187
vt 0.210568 0.380793
vt 0.212501 0.008688
vt 0.248764 0.380793
vt 0.753285 0.515572
vt 0.792971 0.553567
vt 0.742324 0.554927
vt 0.113002 0.396833
vt 0.102104 0.009256
vt 0.140959 0.360755
vt 0.158866 0.194740
vt 0.158195 0.101714
vt 0.195987 0.101714
vt 0.316298 0.566846
vt 0.343045 0.659846
vt 0.316265 0.659872
vt 0.140387 0.547915
vt 0.195431 0.194740
vt 0.194537 0.379963
vt 0.041504 0.381673
vt 0.266562 0.752898
vt 0.264925 0.380793
vt 0.302081 0.380793
vt 0.211943 0.752898
vt 0.212483 0.659872
vt 0.248152 0.752898
vt 0.677951 0.875848
vt 0.660120 0.847921
vt 0.680603 0.603874
vt 0.958182 0.761734
vt 0.963267 0.896323
vt 0.943923 0.891614
vt 0.418503 0.806681
vt 0.509619 0.791561
vt 0.513999 0.819088
vt 0.985604 0.604056
vt 0.987711 0.738930
vt 0.924250 0.605880
vt 0.418435 0.755658
vt 0.507216 0.742523
vt 0.507420 0.771397
vt 0.410685 0.653351
vt 0.478579 0.629471
vt 0.501430 0.660883
vt 0.645323 0.875129
vt 0.588267 0.866589
vt 0.579908 0.603871
vt 0.785761 0.745660
vt 0.793390 0.611329
vt 0.847276 0.614658
vt 0.661770 0.603741
vt 0.507930 0.586135
vt 0.507537 0.613617
vt 0.408765 0.595296
vt 0.922196 0.735050
vt 0.800282 0.008688
vt 0.848725 0.491312
vt 0.800282 0.491312
vt 0.102838 0.752898
vt 0.140252 0.659872
vt 0.138501 0.752898
vt 0.726632 0.544457
vt 0.613402 0.544510
vt 0.573747 0.504694
vt 0.623514 0.502441
vt 0.056076 0.008688
vt 0.088892 0.380793
vt 0.056076 0.380793
vt 0.628748 0.554632
vt 0.668529 0.515301
vt 0.679786 0.553894
vt 0.301378 0.101714
vt 0.264789 0.101714
vt 0.266656 0.008688
vt 0.781768 0.513977
vt 0.249126 0.008688
vt 0.302821 0.008688
vt 0.384456 0.380793
vt 0.356684 0.008688
vt 0.384529 0.008688
vt 0.041504 0.566846
vt 0.008688 0.659872
vt 0.008688 0.547916
vt 0.103068 0.524225
vt 0.316318 0.752898
vt 0.195347 0.008688
vt 0.041504 0.752898
vt 0.041504 0.659872
vt 0.101716 0.659872
vt 0.344433 0.524225
vt 0.316630 0.392900
vt 0.158554 0.365425
vt 0.343989 0.009256
vt 0.140260 0.008688
vt 0.158948 0.752513
vt 0.359376 0.566846
vt 0.357371 0.380793
vt 0.247999 0.566845
vt 0.210985 0.566845
vt 0.301855 0.752898
vt 0.088892 0.566846
vt 0.056076 0.566846
vt 0.056076 0.659872
vt 0.384587 0.659872
vt 0.356447 0.659872
vt 0.248881 0.659872
vt 0.301813 0.194740
vt 0.266380 0.194740
vt 0.356351 0.752898
vt 0.088892 0.659872
vt 0.056076 0.752898
vt 0.893593 0.733144
vt 0.908047 0.613169
vt 0.908782 0.741512
vt 0.846943 0.898803
vt 0.783807 0.763136
vt 0.846896 0.763488
vt 0.429323 0.865486
vt 0.423265 0.841797
vt 0.523867 0.851146
vt 0.922327 0.899717
vt 0.859526 0.774256
vt 0.915731 0.766827
vt 0.753255 0.845150
vt 0.693892 0.604810
vt 0.759750 0.603730
vt 0.847577 0.733973
vt 0.645817 0.604343
vt 0.848725 0.008688
vt 0.584146 0.543619
vt 0.088892 0.008688
vt 0.639877 0.514610
vt 0.344308 0.752898
vt 0.156691 0.008688
vt 0.008688 0.752898
vt 0.316420 0.009073
vt 0.194940 0.751619
vt 0.384528 0.566846
vt 0.384064 0.752898
vt 0.088892 0.752898
vt 0.889416 0.605283
vt 0.781355 0.902768
vt 0.859432 0.889160
vt 0.693890 0.870160
s 1
usemtl End_1.003
f 409/753/639 429/754/640 430/755/641
f 429/756/640 409/757/639 404/758/642
f 431/759/643 412/760/644 433/761/645
f 414/762/646 411/763/647 415/764/648
f 419/765/649 406/766/650 430/767/641
f 425/768/651 427/769/652 428/770/653
f 425/771/651 424/772/654 427/773/652
f 423/774/655 419/765/649 430/767/641
f 422/775/656 420/776/657 425/768/658
f 430/755/641 429/754/640 420/777/657
f 416/778/659 432/779/660 434/780/661
f 410/781/662 442/782/663 411/783/664
f 453/784/665 445/785/666 398/786/667
f 395/787/668 450/788/669 446/789/670
f 447/790/671 446/791/670 450/792/669
f 447/793/671 394/794/672 446/795/670
f 448/796/673 449/797/674 454/798/675
f 443/799/676 445/800/666 453/801/665
f 443/802/676 453/803/665 398/804/667
f 454/805/675 444/806/677 451/807/678
f 445/785/666 397/808/679 398/786/667
f 398/809/667 397/810/679 396/811/680
f 446/795/670 394/794/672 395/812/668
f 402/813/681 399/814/682 400/815/683
f 405/816/684 426/817/685 408/818/686
f 409/757/639 406/819/650 404/758/642
f 403/820/687 408/821/686 407/822/688
f 413/823/689 434/824/661 433/825/645
f 413/826/689 416/827/659 417/828/690
f 441/829/691 439/830/692 414/831/646
f 414/762/646 410/832/662 411/763/647
f 433/761/645 412/760/693 413/833/689
f 441/829/691 414/831/646 415/834/648
f 431/835/643 416/836/659 412/837/644
f 422/838/656 426/839/685 423/840/655
f 423/840/655 430/755/641 420/777/657
f 419/765/649 421/841/694 406/766/650
f 424/772/654 403/842/687 427/773/652
f 422/775/656 425/768/658 428/770/653
f 419/765/649 423/774/655 421/841/694
f 427/769/652 407/843/688 428/770/653
f 407/844/688 426/839/685 428/845/653
f 424/846/654 423/774/655 426/817/685
f 421/847/694 425/771/651 418/848/695
f 423/840/655 420/777/657 422/838/656
f 425/768/651 420/776/657 418/849/695
f 418/848/695 406/850/650 421/847/694
f 409/851/639 430/767/641 406/766/650
f 420/776/657 404/852/642 418/849/695
f 431/835/643 435/853/696 432/854/660
f 431/759/643 438/855/697 437/856/698
f 417/857/690 416/778/699 434/780/661
f 433/825/645 436/858/700 438/859/697
f 436/858/700 440/860/701 438/859/697
f 435/853/696 442/861/663 439/862/692
f 442/782/663 437/856/698 438/855/697
f 440/863/701 442/782/663 438/855/697
f 436/864/700 432/779/660 435/865/696
f 442/861/663 414/866/646 439/862/692
f 441/867/691 411/868/647 440/860/701
f 411/783/647 442/782/663 440/863/701
f 439/830/692 436/864/700 435/865/696
f 444/869/677 449/870/674 452/871/702
f 395/872/668 447/873/671 450/874/669
f 444/875/677 452/876/702 451/877/678
f 449/878/674 451/879/678 452/880/702
f 445/881/666 396/882/680 397/883/679
f 448/884/673 454/805/675 451/807/678
f 396/885/680 443/802/676 398/804/667
f 402/813/681 401/886/703 399/814/682
f 405/816/684 424/846/654 426/817/685
f 403/820/687 405/887/684 408/821/686
f 413/823/689 417/888/690 434/824/661
f 413/826/689 412/889/644 416/827/659
f 431/835/643 432/854/660 416/836/659
f 422/838/656 428/845/653 426/839/685
f 424/772/654 405/890/684 403/842/687
f 427/769/652 403/891/687 407/843/688
f 407/844/688 408/892/686 426/839/685
f 424/846/654 421/841/694 423/774/655
f 421/847/694 424/772/654 425/771/651
f 418/848/695 404/893/642 406/850/650
f 420/776/657 429/894/640 404/852/642
f 431/835/643 437/895/698 435/853/696
f 431/759/643 433/761/645 438/855/697
f 433/825/645 434/824/661 436/858/700
f 436/858/700 441/867/691 440/860/701
f 435/853/696 437/895/698 442/861/663
f 436/864/700 434/780/661 432/779/660
f 442/861/663 410/896/662 414/866/646
f 441/867/691 415/897/648 411/868/647
f 439/830/692 441/829/691 436/864/700
f 444/869/677 454/898/675 449/870/674
f 395/872/668 394/899/672 447/873/671
f 449/878/674 448/900/673 451/879/678
f 445/881/666 443/901/676 396/882/680
