# Blender 4.5.2 LTS
# www.blender.org
mtllib SniperTrigger.mtl
o Trigger
v 0.002134 -0.061085 -0.075659
v -0.002134 -0.061085 -0.075659
v 0.002134 -0.061085 -0.083914
v -0.002134 -0.061085 -0.083914
v 0.002134 -0.064909 -0.076421
v -0.002134 -0.064909 -0.076421
v 0.002134 -0.065661 -0.083186
v -0.002134 -0.065661 -0.083186
v 0.002118 -0.068316 -0.079351
v -0.002118 -0.068316 -0.079351
v 0.002353 -0.068603 -0.083342
v -0.002353 -0.068603 -0.083342
v 0.002223 -0.075931 -0.079701
v -0.002223 -0.075931 -0.079701
v 0.002470 -0.076671 -0.081632
v -0.002471 -0.076671 -0.081632
v 0.002118 -0.079151 -0.078554
v -0.002118 -0.079151 -0.078554
v 0.002353 -0.079983 -0.080177
v -0.002353 -0.079983 -0.080177
v 0.001441 -0.080542 -0.078599
v -0.001441 -0.080542 -0.078599
v 0.001441 -0.080901 -0.079126
v -0.001441 -0.080901 -0.079126
v 0.002470 -0.072454 -0.082713
v -0.002471 -0.072454 -0.082713
v -0.002223 -0.072238 -0.080282
v 0.002223 -0.072238 -0.080282
vn 0.9997 0.0205 0.0164
vn 0.7532 -0.2791 0.5957
vn 0.9969 0.0479 0.0630
vn -1.0000 -0.0000 -0.0000
vn -0.6543 -0.3318 0.6795
vn -0.6584 -0.1471 0.7382
vn 0.6543 -0.3318 0.6795
vn 0.6584 -0.1471 0.7381
vn 1.0000 -0.0000 -0.0000
vn -0.0000 -0.1571 -0.9876
vn -0.0000 -0.0499 -0.9988
vn -0.0000 -0.2054 -0.9787
vn -0.0000 -0.3256 -0.9455
vn -0.0000 -0.0581 -0.9983
vn -0.9997 0.0205 0.0164
vn -0.7532 -0.2791 0.5957
vn -0.9924 0.0221 0.1208
vn -0.6368 0.0085 0.7710
vn -0.6880 0.1712 0.7052
vn -0.9943 0.0342 0.1007
vn -0.7225 -0.0062 0.6914
vn 0.6880 0.1712 0.7052
vn 0.7225 -0.0062 0.6914
vn 0.9943 0.0342 0.1007
vn 0.9924 0.0221 0.1208
vn -0.9565 -0.1832 0.2272
vn -0.3843 -0.4973 0.7778
vn 0.6367 0.0085 0.7710
vn 0.9565 -0.1832 0.2272
vn -0.0000 -0.5487 -0.8360
vn 0.3843 -0.4973 0.7778
vn -0.4985 -0.7168 0.4875
vn 0.4985 -0.7168 0.4875
vn -0.0000 -0.7529 -0.6581
vn -0.9969 0.0479 0.0630
vn -0.0000 -0.0580 -0.9983
vt 0.964269 0.706538
vt 0.971325 0.711469
vt 0.963899 0.711976
vt 0.963688 0.950861
vt 0.949891 0.957959
vt 0.948436 0.950861
vt 0.772515 0.947926
vt 0.764579 0.955026
vt 0.764579 0.947926
vt 0.962981 0.698044
vt 0.976778 0.705142
vt 0.939547 0.742340
vt 0.931610 0.750953
vt 0.931610 0.742340
vt 0.940172 0.763527
vt 0.930985 0.771606
vt 0.930985 0.763527
vt 0.939547 0.750953
vt 0.931204 0.756275
vt 0.962400 0.959355
vt 0.955344 0.964286
vt 0.772515 0.955026
vt 0.764610 0.961327
vt 0.959735 0.979755
vt 0.954006 0.984396
vt 0.956107 0.978408
vt 0.961680 0.971926
vt 0.957134 0.971554
vt 0.772681 0.968608
vt 0.764413 0.975481
vt 0.764413 0.968608
vt 0.964989 0.719109
vt 0.970562 0.725591
vt 0.966934 0.726938
vt 0.957063 0.985915
vt 0.953965 0.987053
vt 0.772681 0.975481
vt 0.764610 0.981481
vt 0.972663 0.731579
vt 0.969606 0.733098
vt 0.939953 0.778158
vt 0.931204 0.778158
vt 0.436193 0.701278
vt 0.436853 0.695921
vt 0.436853 0.701278
vt 0.771226 0.984069
vt 0.765869 0.984069
vt 0.972704 0.734237
vt 0.971726 0.734902
vt 0.932900 0.780198
vt 0.969535 0.718737
vt 0.772485 0.961327
vt 0.962770 0.964792
vt 0.978233 0.698044
vt 0.940172 0.771606
vt 0.939953 0.756275
vt 0.954943 0.987719
vt 0.772485 0.981481
vt 0.436193 0.695921
vt 0.938257 0.780198
s 1
usemtl Material.013
f 7/1/1 9/2/2 11/3/3
f 4/4/4 6/5/5 2/6/6
f 2/7/6 5/8/7 1/9/8
f 3/10/9 5/11/7 7/1/1
f 3/12/10 8/13/11 4/14/10
f 25/15/12 16/16/13 26/17/12
f 7/18/11 12/19/14 8/13/11
f 8/20/15 10/21/16 6/5/5
f 6/22/5 9/23/2 5/8/7
f 16/24/17 18/25/18 14/26/19
f 26/27/20 14/26/19 27/28/21
f 27/29/21 13/30/22 28/31/23
f 25/32/24 13/33/22 15/34/25
f 20/35/26 22/36/27 18/25/18
f 14/37/19 17/38/28 13/30/22
f 15/34/25 17/39/28 19/40/29
f 16/16/13 19/41/30 20/42/30
f 21/43/31 24/44/32 23/45/33
f 17/38/28 22/46/27 21/47/31
f 19/40/29 21/48/31 23/49/33
f 19/41/30 24/50/34 20/42/30
f 11/3/3 28/51/23 25/32/24
f 10/52/16 28/31/23 9/23/2
f 12/53/35 27/28/21 10/21/16
f 12/19/14 25/15/12 26/17/12
f 7/1/1 5/11/7 9/2/2
f 4/4/4 8/20/15 6/5/5
f 2/7/6 6/22/5 5/8/7
f 3/10/9 1/54/8 5/11/7
f 3/12/10 7/18/11 8/13/11
f 25/15/12 15/55/13 16/16/13
f 7/18/11 11/56/36 12/19/14
f 8/20/15 12/53/35 10/21/16
f 6/22/5 10/52/16 9/23/2
f 16/24/17 20/35/26 18/25/18
f 26/27/20 16/24/17 14/26/19
f 27/29/21 14/37/19 13/30/22
f 25/32/24 28/51/23 13/33/22
f 20/35/26 24/57/32 22/36/27
f 14/37/19 18/58/18 17/38/28
f 15/34/25 13/33/22 17/39/28
f 16/16/13 15/55/13 19/41/30
f 21/43/31 22/59/27 24/44/32
f 17/38/28 18/58/18 22/46/27
f 19/40/29 17/39/28 21/48/31
f 19/41/30 23/60/34 24/50/34
f 11/3/3 9/2/2 28/51/23
f 10/52/16 27/29/21 28/31/23
f 12/53/35 26/27/20 27/28/21
f 12/19/14 11/56/36 25/15/12
