# Blender 4.5.2 LTS
# www.blender.org
mtllib SniperBolt.mtl
o Bolt
v 0.000000 0.005500 0.028988
v 0.002105 0.005081 0.028988
v 0.003889 0.003889 0.028988
v 0.005081 0.002105 0.028988
v 0.005500 0.000000 0.028988
v 0.005081 -0.002105 0.028988
v 0.003889 -0.003889 0.028988
v 0.002105 -0.005081 0.028988
v 0.000000 -0.005500 0.028988
v -0.002105 -0.005081 0.028988
v -0.003889 -0.003889 0.028988
v -0.005081 -0.002105 0.028988
v -0.005500 0.000000 0.028988
v -0.005081 0.002105 0.028988
v -0.003889 0.003889 0.028988
v -0.002105 0.005081 0.028988
v 0.002105 0.005081 -0.048291
v 0.003889 0.003889 -0.048291
v 0.005081 0.002105 -0.048291
v 0.005500 0.000000 -0.048291
v 0.005081 -0.002105 -0.048291
v 0.003889 -0.003889 -0.048291
v 0.002105 -0.005081 -0.048291
v -0.000000 -0.005500 -0.048291
v -0.002105 -0.005081 -0.048291
v -0.003889 -0.003889 -0.048291
v -0.005081 -0.002105 -0.048291
v -0.005500 0.000000 -0.048291
v -0.005081 0.002105 -0.048291
v -0.003889 0.003889 -0.048291
v -0.002105 0.005081 -0.048291
v -0.000000 0.005500 -0.048291
v 0.002105 0.005081 -0.113598
v 0.003889 0.003889 -0.113598
v 0.005081 0.002105 -0.113598
v 0.005500 0.000000 -0.113598
v 0.005081 -0.002105 -0.113598
v 0.003889 -0.003889 -0.113598
v 0.002105 -0.005081 -0.113598
v -0.000000 -0.005500 -0.113598
v -0.002105 -0.005081 -0.113598
v -0.003889 -0.003889 -0.113598
v -0.005081 -0.002105 -0.113598
v -0.005500 0.000000 -0.113598
v -0.005081 0.002105 -0.113598
v -0.003889 0.003889 -0.113598
v -0.002105 0.005081 -0.113598
v -0.000000 0.005500 -0.113598
v -0.000000 0.005500 -0.121320
v 0.002105 0.005081 -0.121320
v 0.003889 0.003889 -0.121320
v 0.005081 0.002105 -0.121320
v 0.005500 0.000000 -0.121320
v 0.005081 -0.002105 -0.121320
v 0.003889 -0.003889 -0.121320
v 0.002105 -0.005081 -0.121320
v -0.000000 -0.005500 -0.121320
v -0.002105 -0.005081 -0.121320
v -0.003889 -0.003889 -0.121320
v -0.005081 -0.002105 -0.121320
v -0.005500 0.000000 -0.121320
v -0.005081 0.002105 -0.121320
v -0.003889 0.003889 -0.121320
v -0.002105 0.005081 -0.121320
v -0.009918 -0.001808 -0.113985
v -0.009935 0.000000 -0.113598
v -0.009935 0.002105 -0.113598
v -0.009935 0.003889 -0.113598
v -0.009960 0.004662 -0.113985
v -0.009918 -0.001808 -0.120934
v -0.009935 0.000000 -0.121320
v -0.009935 0.002105 -0.121320
v -0.009935 0.003889 -0.121320
v -0.009960 0.004662 -0.120934
v -0.011928 -0.002409 -0.113985
v -0.012839 -0.000878 -0.113598
v -0.013729 0.001030 -0.113598
v -0.014483 0.002647 -0.113598
v -0.015002 0.003473 -0.113985
v -0.011928 -0.002409 -0.120934
v -0.012839 -0.000878 -0.121320
v -0.013729 0.001030 -0.121320
v -0.014483 0.002647 -0.121320
v -0.015002 0.003473 -0.120934
v -0.016894 -0.005552 -0.113985
v -0.017538 -0.003854 -0.113598
v -0.018427 -0.001946 -0.113598
v -0.019181 -0.000329 -0.113598
v -0.019433 0.000538 -0.113985
v -0.016894 -0.005552 -0.120934
v -0.017538 -0.003854 -0.121320
v -0.018427 -0.001946 -0.121320
v -0.019181 -0.000329 -0.121320
v -0.019433 0.000538 -0.120934
v -0.020727 -0.010151 -0.113985
v -0.021825 -0.009014 -0.113598
v -0.023174 -0.007666 -0.113598
v -0.024317 -0.006522 -0.113598
v -0.024837 -0.005965 -0.113985
v -0.020727 -0.010151 -0.120934
v -0.021825 -0.009014 -0.121320
v -0.023174 -0.007666 -0.121320
v -0.024317 -0.006522 -0.121320
v -0.024837 -0.005965 -0.120934
v -0.020750 -0.012124 -0.112863
v -0.022063 -0.010811 -0.112229
v -0.023796 -0.009078 -0.112229
v -0.025529 -0.007345 -0.112229
v -0.026842 -0.006032 -0.112863
v -0.020750 -0.012124 -0.122056
v -0.022063 -0.010811 -0.122690
v -0.023796 -0.009078 -0.122690
v -0.025529 -0.007345 -0.122690
v -0.026842 -0.006032 -0.122056
v -0.026544 -0.018238 -0.112621
v -0.028017 -0.016765 -0.112229
v -0.029750 -0.015032 -0.112229
v -0.031483 -0.013299 -0.112229
v -0.032956 -0.011826 -0.112621
v -0.026544 -0.018238 -0.122298
v -0.028017 -0.016765 -0.122690
v -0.029750 -0.015032 -0.122690
v -0.031483 -0.013299 -0.122690
v -0.032956 -0.011826 -0.122298
v -0.027673 -0.018174 -0.113048
v -0.028764 -0.017512 -0.113003
v -0.030497 -0.015779 -0.113003
v -0.032273 -0.014003 -0.113003
v -0.033079 -0.013059 -0.113092
v -0.027673 -0.018174 -0.121871
v -0.028764 -0.017512 -0.121916
v -0.030497 -0.015779 -0.121916
v -0.032273 -0.014003 -0.121916
v -0.033079 -0.013059 -0.121827
v 0.003889 -0.003889 -0.115529
v 0.003889 -0.003889 -0.117459
v 0.003889 -0.003889 -0.119390
v 0.005081 -0.002105 -0.119390
v 0.005081 -0.002105 -0.117459
v 0.005081 -0.002105 -0.115529
v 0.002105 -0.005081 -0.115529
v 0.002105 -0.005081 -0.117459
v 0.002105 -0.005081 -0.119390
v -0.002105 0.005081 -0.115529
v -0.002105 0.005081 -0.117459
v -0.002105 0.005081 -0.119390
v -0.000000 -0.005500 -0.115529
v -0.000000 -0.005500 -0.117459
v -0.000000 -0.005500 -0.119390
v 0.002105 0.005081 -0.115529
v 0.002105 0.005081 -0.117459
v 0.002105 0.005081 -0.119390
v -0.000000 0.005500 -0.119390
v -0.000000 0.005500 -0.117459
v -0.000000 0.005500 -0.115529
v -0.002105 -0.005081 -0.115529
v -0.002105 -0.005081 -0.117459
v -0.002105 -0.005081 -0.119390
v 0.003889 0.003889 -0.115529
v 0.003889 0.003889 -0.117459
v 0.003889 0.003889 -0.119390
v -0.003889 -0.003889 -0.115529
v -0.003889 -0.003889 -0.117459
v -0.003889 -0.003889 -0.119390
v 0.005081 0.002105 -0.115529
v 0.005081 0.002105 -0.117459
v 0.005081 0.002105 -0.119390
v -0.005081 -0.002105 -0.115529
v -0.005081 -0.002105 -0.117459
v -0.005081 -0.002105 -0.119390
v 0.005500 0.000000 -0.115529
v 0.005500 0.000000 -0.117459
v 0.005500 0.000000 -0.119390
v -0.009935 0.005081 -0.115529
v -0.009935 0.005081 -0.117459
v -0.009935 0.005081 -0.119390
v -0.009935 -0.002105 -0.115529
v -0.009935 -0.002105 -0.117459
v -0.009935 -0.002105 -0.119390
v -0.014987 0.003727 -0.115529
v -0.014987 0.003727 -0.117459
v -0.014987 0.003727 -0.119390
v -0.011950 -0.002785 -0.115529
v -0.011950 -0.002785 -0.117459
v -0.011950 -0.002785 -0.119390
v -0.019685 0.000752 -0.115529
v -0.019685 0.000752 -0.117459
v -0.019685 0.000752 -0.119390
v -0.016648 -0.005761 -0.115529
v -0.016648 -0.005761 -0.117459
v -0.016648 -0.005761 -0.119390
v -0.025081 -0.005758 -0.115529
v -0.025081 -0.005758 -0.117459
v -0.025081 -0.005758 -0.119390
v -0.020476 -0.010363 -0.115529
v -0.020476 -0.010363 -0.117459
v -0.020476 -0.010363 -0.119390
v -0.027262 -0.005612 -0.114837
v -0.027262 -0.005612 -0.117459
v -0.027262 -0.005612 -0.120070
v -0.020330 -0.012544 -0.114837
v -0.020330 -0.012544 -0.117459
v -0.020330 -0.012544 -0.120070
v -0.033216 -0.011566 -0.114837
v -0.033216 -0.011566 -0.117459
v -0.033216 -0.011566 -0.120070
v -0.026284 -0.018499 -0.114837
v -0.026284 -0.018498 -0.117459
v -0.026284 -0.018498 -0.120070
v -0.032601 -0.014331 -0.114837
v -0.032601 -0.014331 -0.117459
v -0.032601 -0.014331 -0.120070
v -0.030825 -0.016107 -0.120070
v -0.030825 -0.016107 -0.117459
v -0.030825 -0.016107 -0.114837
v -0.033155 -0.013121 -0.114837
v -0.033155 -0.013121 -0.117459
v -0.033155 -0.013121 -0.120070
v -0.027839 -0.018437 -0.114837
v -0.027839 -0.018437 -0.117459
v -0.027839 -0.018437 -0.120070
v -0.029092 -0.017840 -0.114837
v -0.029092 -0.017840 -0.117459
v -0.029092 -0.017840 -0.120070
v -0.028816 -0.010012 -0.111294
v -0.026773 -0.012055 -0.123625
v -0.024731 -0.014098 -0.123625
v -0.026773 -0.012055 -0.111294
v -0.028816 -0.010012 -0.123625
v -0.030326 -0.008502 -0.112098
v -0.030326 -0.008502 -0.122821
v -0.024731 -0.014098 -0.111294
v -0.023221 -0.015608 -0.112098
v -0.023221 -0.015608 -0.122821
v -0.022688 -0.016141 -0.120536
v -0.022688 -0.016141 -0.117460
v -0.022687 -0.016141 -0.114369
v -0.030859 -0.007969 -0.114369
v -0.030859 -0.007969 -0.117460
v -0.030859 -0.007969 -0.120536
v -0.025285 -0.010567 -0.123475
v -0.025285 -0.010567 -0.111444
v -0.027278 -0.008574 -0.123475
v -0.021819 -0.014033 -0.112229
v -0.027278 -0.008574 -0.111444
v -0.023292 -0.012560 -0.123475
v -0.028751 -0.007101 -0.112229
v -0.028751 -0.007101 -0.122690
v -0.023292 -0.012560 -0.111444
v -0.021819 -0.014033 -0.122690
v -0.021299 -0.014552 -0.120461
v -0.021299 -0.014553 -0.117460
v -0.021298 -0.014553 -0.114444
v -0.029271 -0.006581 -0.114444
v -0.029271 -0.006581 -0.117460
v -0.029271 -0.006581 -0.120461
v -0.030255 -0.011551 -0.111444
v -0.026269 -0.015537 -0.123475
v -0.031728 -0.010078 -0.112229
v -0.031728 -0.010078 -0.122690
v -0.026269 -0.015537 -0.111444
v -0.024796 -0.017010 -0.122690
v -0.024276 -0.017530 -0.120461
v -0.024276 -0.017530 -0.117460
v -0.024275 -0.017530 -0.114444
v -0.032248 -0.009558 -0.114444
v -0.032248 -0.009558 -0.117460
v -0.032248 -0.009558 -0.120461
v -0.028262 -0.013544 -0.123475
v -0.028262 -0.013544 -0.111444
v -0.030255 -0.011551 -0.123475
v -0.024796 -0.017010 -0.112229
v -0.000000 0.011550 -0.027538
v 0.000000 0.011550 0.028988
v -0.004420 0.010671 0.028988
v -0.008167 0.008167 0.028988
v -0.010671 0.004420 0.028988
v -0.011550 0.000000 0.028988
v -0.010671 -0.004420 0.028988
v -0.008167 -0.008167 0.028988
v -0.004420 -0.010671 0.028988
v 0.000000 -0.011550 0.028988
v 0.004420 -0.010671 0.028988
v 0.008167 -0.008167 0.028988
v 0.010671 -0.004420 0.028988
v 0.011550 0.000000 0.028988
v 0.010671 0.004420 0.028988
v 0.008167 0.008167 0.028988
v 0.004420 0.010671 0.028988
v 0.008167 -0.008167 -0.027538
v 0.004420 -0.010671 -0.027538
v -0.000000 -0.011550 -0.027538
v -0.004420 -0.010671 -0.027538
v -0.008167 -0.008167 -0.027538
v -0.010671 -0.004420 -0.027538
v -0.011550 0.000000 -0.027538
v -0.010671 0.004420 -0.027538
v -0.008167 0.008167 -0.027538
v -0.004420 0.010671 -0.027538
v 0.000000 0.005638 0.027783
v 0.002157 0.005208 0.027783
v 0.003986 0.003986 0.027783
v 0.005208 0.002157 0.027783
v 0.005638 0.000000 0.027783
v 0.005208 -0.002157 0.027783
v 0.003986 -0.003986 0.027783
v 0.002157 -0.005208 0.027783
v 0.000000 -0.005637 0.027783
v -0.002157 -0.005208 0.027783
v -0.003986 -0.003986 0.027783
v -0.005208 -0.002157 0.027783
v -0.005637 0.000000 0.027783
v -0.005208 0.002157 0.027783
v -0.003986 0.003986 0.027783
v -0.002157 0.005208 0.027783
vn -0.0000 -0.0000 1.0000
vn 0.3827 -0.9239 -0.0000
vn 0.7071 -0.7071 -0.0000
vn -0.3827 0.9239 -0.0000
vn -0.7071 0.7071 -0.0000
vn -0.0000 -1.0000 -0.0000
vn 0.3827 0.9239 -0.0000
vn -0.0000 1.0000 -0.0000
vn -0.3827 -0.9239 -0.0000
vn 0.7071 0.7071 -0.0000
vn -0.7071 -0.7071 -0.0000
vn 0.9239 0.3827 -0.0000
vn -0.9239 -0.3827 -0.0000
vn 1.0000 -0.0000 -0.0000
vn -1.0000 -0.0000 -0.0000
vn 0.9239 -0.3827 -0.0000
vn -0.9239 0.3827 -0.0000
vn -0.0000 -0.0000 -1.0000
vn -0.0365 0.0725 -0.9967
vn -0.1061 0.7812 -0.6152
vn -0.1310 0.9770 -0.1685
vn -0.0315 -0.0297 0.9991
vn 0.0130 -0.0951 0.9954
vn -0.1096 0.9939 -0.0084
vn -0.4823 -0.8759 -0.0106
vn 0.0890 -0.6834 0.7246
vn -0.4840 -0.7669 0.4215
vn -0.0352 0.2465 -0.9685
vn -0.1061 0.7812 0.6152
vn -0.0801 0.1945 0.9776
vn -0.0352 0.2464 0.9685
vn -0.0801 0.1945 -0.9776
vn 0.0130 -0.0951 -0.9954
vn -0.1276 0.9834 -0.1288
vn -0.0315 -0.0297 -0.9991
vn 0.0890 -0.6834 -0.7246
vn -0.4823 -0.8759 0.0106
vn 0.1582 -0.9825 0.0988
vn -0.0365 0.0725 0.9967
vn -0.5238 0.6005 -0.6042
vn -0.3209 0.7357 -0.5964
vn 0.2841 -0.6251 0.7270
vn 0.0633 -0.0766 0.9951
vn 0.4586 -0.5115 0.7267
vn -0.6612 0.7434 -0.1002
vn -0.3915 0.9169 -0.0778
vn -0.5238 0.6005 0.6042
vn -0.1694 0.1758 0.9697
vn 0.0413 -0.0886 0.9952
vn 0.0413 -0.0886 -0.9952
vn 0.4322 -0.8956 0.1056
vn 0.1329 0.4197 0.8979
vn 0.2625 0.2625 0.9285
vn 0.0633 -0.0766 -0.9951
vn 0.2625 0.2625 -0.9285
vn 0.3560 0.2114 0.9103
vn 0.6552 -0.7484 0.1028
vn 0.8105 -0.0348 0.5847
vn 0.9536 -0.2873 0.0895
vn 0.2841 -0.6250 -0.7271
vn -0.1694 0.1758 -0.9697
vn -0.1770 0.7994 0.5741
vn 0.2834 0.4777 0.8316
vn 0.2834 0.4778 -0.8315
vn 0.1329 0.4197 -0.8979
vn 0.3748 0.3748 0.8479
vn 0.3560 0.2114 -0.9103
vn 0.3749 0.3749 -0.8479
vn -0.3719 0.9243 -0.0856
vn -0.1772 0.7994 -0.5740
vn 0.4586 -0.5115 -0.7267
vn -0.2544 -0.0285 0.9667
vn -0.7946 0.1050 0.5980
vn -0.3823 -0.2825 0.8798
vn -0.1502 -0.1502 -0.9772
vn -0.3824 -0.2825 -0.8798
vn -0.2545 -0.0285 -0.9666
vn -0.1502 -0.1502 0.9772
vn -0.3357 -0.3357 0.8802
vn -0.2820 -0.3942 -0.8747
vn -0.3357 -0.3357 -0.8801
vn -0.1847 0.9763 -0.1127
vn 0.4855 0.2895 0.8249
vn 0.8266 -0.0145 0.5626
vn -0.0217 0.8247 -0.5652
vn 0.8106 -0.0351 -0.5846
vn 0.4856 0.2896 -0.8248
vn 0.9768 -0.1804 0.1157
vn -0.9758 0.2119 -0.0548
vn -0.8474 -0.2925 -0.4432
vn -0.9720 -0.2337 -0.0249
vn -0.8473 -0.2924 0.4434
vn -0.6218 -0.5472 0.5604
vn -0.5867 -0.5867 -0.5581
vn -0.6221 -0.5475 -0.5597
vn -0.5864 -0.5864 0.5588
vn -0.8212 0.5529 -0.1412
vn -0.7948 0.1054 -0.5976
vn -0.0285 -0.2544 0.9667
vn 0.0637 -0.8136 0.5779
vn 0.3874 -0.6177 0.6844
vn -0.6182 0.3879 -0.6836
vn -0.0285 -0.2545 -0.9666
vn 0.0641 -0.8139 -0.5775
vn 0.5528 -0.8211 0.1421
vn 0.1987 -0.9776 0.0689
vn -0.2819 -0.3941 0.8747
vn -0.7018 -0.7018 -0.1227
vn -0.8027 -0.5889 -0.0945
vn -0.2503 -0.9639 -0.0909
vn -0.5062 -0.6742 -0.5378
vn -0.3131 -0.8384 -0.4462
vn -0.5745 -0.8097 -0.1196
vn -0.3131 -0.8381 0.4467
vn -0.2504 -0.9638 0.0914
vn -0.5059 -0.6739 0.5384
vn 0.1988 -0.9776 -0.0685
vn -0.2397 -0.9708 -0.0000
vn 0.2035 -0.9791 -0.0001
vn -0.5745 -0.8096 0.1203
vn -0.7017 -0.7017 0.1235
vn -0.5770 -0.8167 -0.0000
vn -0.8025 -0.5890 0.0952
vn -0.9720 -0.2337 0.0251
vn -0.8211 -0.5708 -0.0000
vn -0.9726 -0.2323 -0.0000
vn 0.5529 -0.8212 -0.1412
vn 0.3879 -0.6183 -0.6836
vn 0.5513 -0.8343 -0.0001
vn -0.8211 0.5528 0.1421
vn -0.6178 0.3874 0.6843
vn -0.8343 0.5513 -0.0000
vn -0.9757 0.2119 0.0552
vn -0.9791 0.2035 -0.0000
vn 0.9768 -0.1807 -0.1150
vn 0.8270 -0.0150 -0.5620
vn 0.9536 -0.2875 -0.0896
vn 0.9818 -0.1901 -0.0001
vn 0.9513 -0.3084 -0.0000
vn -0.1845 0.9763 0.1133
vn -0.0213 0.8243 0.5657
vn -0.3718 0.9244 0.0854
vn -0.1901 0.9818 -0.0000
vn -0.3948 0.9187 -0.0000
vn -0.6612 0.7434 0.1002
vn -0.6606 0.7507 -0.0000
vn 0.4322 -0.8956 -0.1056
vn 0.6600 -0.7513 -0.0000
vn 0.6552 -0.7484 -0.1028
vn 0.4306 -0.9025 -0.0000
vn 0.1582 -0.9825 -0.0988
vn 0.1622 -0.9868 -0.0000
vn -0.3915 0.9169 0.0778
vn -0.3209 0.7358 0.5964
vn -0.1276 0.9834 0.1288
vn -0.4016 0.9158 -0.0000
vn -0.1306 0.9914 -0.0000
vn -0.4839 -0.7669 -0.4215
vn -0.4714 -0.8819 -0.0000
vn -0.1096 0.9939 0.0084
vn -0.1310 0.9770 0.1685
vn -0.0980 0.9952 -0.0000
vn -0.5363 0.8295 -0.1561
vn -0.5513 0.8343 -0.0000
vn -0.5361 0.8294 0.1570
vn -0.6978 0.6978 0.1620
vn -0.3356 0.6561 0.6759
vn -0.5092 0.5092 0.6938
vn 0.8294 -0.5361 0.1571
vn 0.7071 -0.7071 -0.0001
vn 0.8343 -0.5513 -0.0001
vn 0.8295 -0.5363 -0.1561
vn 0.6979 -0.6979 -0.1611
vn 0.6566 -0.3360 -0.6752
vn 0.5097 -0.5097 -0.6931
vn 0.2783 0.0306 0.9600
vn 0.1282 -0.1282 0.9834
vn 0.6561 -0.3355 0.6760
vn 0.6978 -0.6978 0.1620
vn 0.1283 -0.1283 -0.9834
vn 0.2784 0.0306 -0.9600
vn -0.3360 0.6566 -0.6753
vn -0.1283 0.1283 -0.9834
vn -0.5097 0.5097 -0.6931
vn 0.5092 -0.5092 0.6939
vn -0.6979 0.6979 -0.1611
vn 0.1502 0.1502 -0.9772
vn 0.0306 0.2783 0.9600
vn 0.1502 0.1502 0.9772
vn 0.0306 0.2784 -0.9600
vn -0.1282 0.1282 0.9834
vn -0.0000 0.0001 -1.0000
vn -0.1951 0.9808 -0.0000
vn 0.5556 -0.8315 -0.0000
vn 0.9179 0.3802 -0.1134
vn 0.7025 0.7026 -0.1134
vn -0.7025 -0.7025 -0.1134
vn -0.9179 -0.3802 -0.1134
vn 0.7025 0.7025 -0.1134
vn 0.3802 0.9179 -0.1134
vn -0.3802 -0.9179 -0.1134
vn -0.0000 0.9936 -0.1134
vn -0.0000 -0.9936 -0.1134
vn 0.3802 -0.9179 -0.1134
vn -0.3802 0.9179 -0.1134
vn 0.7025 -0.7025 -0.1134
vn -0.7025 0.7025 -0.1134
vn 0.9179 -0.3802 -0.1134
vn 0.7025 -0.7026 -0.1134
vn -0.9179 0.3802 -0.1134
vn 0.9936 -0.0000 -0.1134
vn -0.9936 -0.0000 -0.1134
vt 0.958417 0.084876
vt 0.970972 0.083384
vt 0.967766 0.091125
vt 0.959944 0.081189
vt 0.970973 0.075004
vt 0.959944 0.077199
vt 0.967768 0.067262
vt 0.958418 0.073512
vt 0.961845 0.061337
vt 0.944239 0.070691
vt 0.945731 0.058131
vt 0.947924 0.069164
vt 0.955598 0.070691
vt 0.954107 0.058131
vt 0.941419 0.073512
vt 0.937993 0.061337
vt 0.951913 0.069164
vt 0.939892 0.077199
vt 0.932069 0.067262
vt 0.732625 0.855174
vt 0.735750 0.733773
vt 0.735750 0.855200
vt 0.760165 0.719218
vt 0.756959 0.840669
vt 0.756959 0.719243
vt 0.869257 0.344934
vt 0.872908 0.223492
vt 0.872907 0.344922
vt 0.767983 0.719214
vt 0.764036 0.840634
vt 0.764036 0.719208
vt 0.760165 0.840644
vt 0.865268 0.344935
vt 0.869257 0.223504
vt 0.771404 0.719236
vt 0.767983 0.840640
vt 0.861547 0.344924
vt 0.865268 0.223505
vt 0.747039 0.855186
vt 0.749521 0.733727
vt 0.749521 0.855154
vt 0.858661 0.344903
vt 0.861547 0.223494
vt 0.743551 0.855207
vt 0.747039 0.733760
vt 0.545774 0.753411
vt 0.542286 0.874859
vt 0.542286 0.753437
vt 0.739587 0.855211
vt 0.743551 0.733780
vt 0.549737 0.753405
vt 0.545773 0.874833
vt 0.739587 0.733785
vt 0.553575 0.753419
vt 0.549737 0.874827
vt 0.735750 0.723005
vt 0.739587 0.719427
vt 0.739587 0.723017
vt 0.975471 0.994261
vt 0.983141 0.995788
vt 0.979154 0.995788
vt 0.937627 0.007680
vt 0.931182 0.017081
vt 0.937172 0.003719
vt 0.732625 0.719390
vt 0.735750 0.719416
vt 0.050141 0.894352
vt 0.057392 0.899893
vt 0.053911 0.901683
vt 0.869257 0.212736
vt 0.872908 0.209134
vt 0.872908 0.212723
vt 0.767983 0.851408
vt 0.764036 0.854991
vt 0.764036 0.851402
vt 0.760165 0.851412
vt 0.760165 0.855002
vt 0.865268 0.212736
vt 0.869257 0.209146
vt 0.771405 0.855019
vt 0.767983 0.854998
vt 0.861547 0.212726
vt 0.865268 0.209147
vt 0.749521 0.722959
vt 0.747039 0.719402
vt 0.749521 0.719370
vt 0.858661 0.212705
vt 0.861547 0.209136
vt 0.747039 0.722992
vt 0.743551 0.719422
vt 0.050911 0.903211
vt 0.046304 0.895449
vt 0.743551 0.723012
vt 0.939564 0.011166
vt 0.932487 0.017669
vt 0.061646 0.897781
vt 0.062154 0.906949
vt 0.060342 0.898377
vt 0.935438 0.019185
vt 0.930676 0.026238
vt 0.058839 0.907078
vt 0.938919 0.020974
vt 0.933991 0.026367
vt 0.938594 0.353579
vt 0.935707 0.339029
vt 0.938587 0.339037
vt 0.942689 0.013647
vt 0.941917 0.022510
vt 0.053266 0.891871
vt 0.988901 0.219263
vt 0.980004 0.222145
vt 0.980093 0.219278
vt 0.055203 0.888384
vt 0.929950 0.036238
vt 0.928863 0.026422
vt 0.051626 0.907044
vt 0.054002 0.917525
vt 0.050650 0.917925
vt 0.935679 0.329772
vt 0.938492 0.321319
vt 0.938555 0.329777
vt 0.062880 0.916945
vt 0.061228 0.917245
vt 0.054929 0.907229
vt 0.937902 0.026518
vt 0.976600 0.222160
vt 0.976712 0.219294
vt 0.057913 0.917373
vt 0.055353 0.930998
vt 0.052490 0.930081
vt 0.938829 0.036810
vt 0.940341 0.049361
vt 0.934918 0.036658
vt 0.049113 0.928998
vt 0.151604 0.984666
vt 0.154490 0.994737
vt 0.151625 0.994989
vt 0.941202 0.026342
vt 0.151624 0.976728
vt 0.154469 0.984419
vt 0.931603 0.036530
vt 0.112315 0.907786
vt 0.114571 0.905191
vt 0.113428 0.908326
vt 0.432698 0.975027
vt 0.429235 0.977611
vt 0.429692 0.975027
vt 0.408765 0.975027
vt 0.412245 0.977637
vt 0.407688 0.977637
vt 0.436245 0.975027
vt 0.433791 0.977611
vt 0.937479 0.050279
vt 0.056720 0.931405
vt 0.969162 0.208195
vt 0.966282 0.222571
vt 0.966282 0.207975
vt 0.046304 0.928169
vt 0.936110 0.050693
vt 0.942179 0.037219
vt 0.943719 0.048279
vt 0.412903 0.989339
vt 0.416123 0.993307
vt 0.412239 0.993289
vt 0.433829 0.989295
vt 0.429246 0.993258
vt 0.428589 0.989295
vt 0.407662 0.989339
vt 0.407682 0.993289
vt 0.438358 0.993258
vt 0.433802 0.993258
vt 0.988311 0.404597
vt 0.983775 0.402984
vt 0.987839 0.401721
vt 0.402291 0.975095
vt 0.403132 0.977637
vt 0.399697 0.977667
vt 0.446593 0.915156
vt 0.444291 0.912531
vt 0.446593 0.910892
vt 0.439168 0.975102
vt 0.438347 0.977611
vt 0.995213 0.580574
vt 0.991200 0.579010
vt 0.994979 0.577708
vt 0.405218 0.975027
vt 0.982850 0.375839
vt 0.980285 0.379120
vt 0.980132 0.375852
vt 0.414675 0.995112
vt 0.412372 0.995289
vt 0.433774 0.995272
vt 0.429105 0.995272
vt 0.407702 0.995289
vt 0.986957 0.376575
vt 0.982538 0.379990
vt 0.402423 0.989339
vt 0.399263 0.993307
vt 0.398570 0.989376
vt 0.425358 0.993284
vt 0.424686 0.989346
vt 0.439068 0.989295
vt 0.442216 0.993284
vt 0.986233 0.430663
vt 0.982402 0.434069
vt 0.982980 0.429951
vt 0.403126 0.993289
vt 0.942247 0.211433
vt 0.938767 0.207975
vt 0.942709 0.207994
vt 0.938305 0.211414
vt 0.936921 0.208130
vt 0.948609 0.211456
vt 0.946556 0.208013
vt 0.948804 0.208102
vt 0.946094 0.211451
vt 0.400843 0.994727
vt 0.426801 0.995097
vt 0.440632 0.994711
vt 0.438330 0.995272
vt 0.980327 0.433278
vt 0.980133 0.429955
vt 0.403146 0.995289
vt 0.982980 0.420222
vt 0.980329 0.416872
vt 0.982404 0.416077
vt 0.980133 0.425079
vt 0.980133 0.420226
vt 0.982980 0.425076
vt 0.942709 0.224566
vt 0.946094 0.221180
vt 0.946556 0.224585
vt 0.942247 0.221162
vt 0.946094 0.216305
vt 0.942247 0.216286
vt 0.948609 0.221185
vt 0.948804 0.224508
vt 0.948609 0.216309
vt 0.936921 0.224371
vt 0.938305 0.221143
vt 0.938767 0.224547
vt 0.745226 0.341903
vt 0.743400 0.346801
vt 0.743400 0.341925
vt 0.745226 0.346779
vt 0.743400 0.351654
vt 0.938305 0.216267
vt 0.986233 0.419475
vt 0.985079 0.415325
vt 0.986233 0.425056
vt 0.986957 0.365387
vt 0.982538 0.361998
vt 0.986333 0.361285
vt 0.986957 0.370994
vt 0.982850 0.366111
vt 0.982850 0.370986
vt 0.980285 0.362881
vt 0.980132 0.370999
vt 0.980132 0.366124
vt 0.995213 0.567652
vt 0.991201 0.569282
vt 0.991706 0.565578
vt 0.994979 0.570530
vt 0.991201 0.574135
vt 0.994979 0.574119
vt 0.988311 0.391675
vt 0.983775 0.393256
vt 0.984594 0.389593
vt 0.987839 0.394543
vt 0.983775 0.398131
vt 0.987839 0.398132
vt 0.956241 0.208264
vt 0.959104 0.222609
vt 0.956241 0.222852
vt 0.959104 0.208014
vt 0.962693 0.222590
vt 0.962693 0.207994
vt 0.144445 0.976772
vt 0.141547 0.984499
vt 0.141568 0.976111
vt 0.148015 0.984689
vt 0.144426 0.984711
vt 0.148035 0.976750
vt 0.141568 0.994817
vt 0.148036 0.995011
vt 0.144447 0.995034
vt 0.980093 0.212099
vt 0.976600 0.209238
vt 0.980004 0.209223
vt 0.976712 0.215704
vt 0.976712 0.212115
vt 0.980093 0.215688
vt 0.948629 0.339029
vt 0.945734 0.329777
vt 0.948601 0.329772
vt 0.945766 0.339037
vt 0.942145 0.329777
vt 0.942176 0.339037
vt 0.945671 0.321319
vt 0.948538 0.321806
vt 0.942081 0.321319
vt 0.988901 0.212084
vt 0.988901 0.208495
vt 0.988901 0.215673
vt 0.945773 0.353579
vt 0.949363 0.353579
vt 0.942184 0.353579
vt 0.739587 0.730195
vt 0.743551 0.730191
vt 0.739587 0.726606
vt 0.743551 0.726601
vt 0.747039 0.730170
vt 0.747039 0.726581
vt 0.858661 0.223473
vt 0.861547 0.219904
vt 0.858661 0.219884
vt 0.861547 0.216315
vt 0.858661 0.216294
vt 0.749521 0.730138
vt 0.749521 0.726549
vt 0.865268 0.219915
vt 0.865268 0.216326
vt 0.771404 0.844251
vt 0.767983 0.844230
vt 0.771404 0.847841
vt 0.767983 0.847819
vt 0.771405 0.851430
vt 0.869257 0.219915
vt 0.869257 0.216325
vt 0.764036 0.844223
vt 0.760165 0.844234
vt 0.764036 0.847813
vt 0.760165 0.847823
vt 0.872908 0.219902
vt 0.872908 0.216313
vt 0.732625 0.730158
vt 0.735750 0.730184
vt 0.732625 0.726569
vt 0.735750 0.726595
vt 0.732625 0.722979
vt 0.993922 0.376622
vt 0.990559 0.371015
vt 0.993922 0.371042
vt 0.993922 0.365435
vt 0.990559 0.365268
vt 0.993298 0.361332
vt 0.989919 0.361063
vt 0.987094 0.579735
vt 0.983494 0.574112
vt 0.987095 0.574128
vt 0.987095 0.568547
vt 0.983494 0.568391
vt 0.987720 0.564391
vt 0.984134 0.564131
vt 0.402426 0.981513
vt 0.407660 0.985419
vt 0.402289 0.985419
vt 0.987720 0.583841
vt 0.983493 0.579859
vt 0.442906 0.981523
vt 0.439202 0.985373
vt 0.439062 0.981471
vt 0.424681 0.981523
vt 0.428461 0.985373
vt 0.424461 0.985426
vt 0.398573 0.981550
vt 0.398340 0.985457
vt 0.993298 0.380782
vt 0.990559 0.376735
vt 0.433832 0.985373
vt 0.433823 0.981471
vt 0.412906 0.981513
vt 0.407665 0.981513
vt 0.428583 0.981471
vt 0.416800 0.981550
vt 0.413031 0.985419
vt 0.415714 0.977667
vt 0.984594 0.406685
vt 0.980132 0.403734
vt 0.425759 0.977653
vt 0.441774 0.977653
vt 0.991706 0.582671
vt 0.980132 0.392546
vt 0.981145 0.388437
vt 0.980132 0.398153
vt 0.980132 0.579698
vt 0.980132 0.574091
vt 0.980132 0.568510
vt 0.980757 0.564353
vt 0.980757 0.583804
vt 0.442912 0.989346
vt 0.986333 0.380735
vt 0.416797 0.989376
vt 0.991170 0.983764
vt 0.971126 0.983762
vt 0.972651 0.980075
vt 0.989644 0.980077
vt 0.975471 0.977254
vt 0.979154 0.975728
vt 0.986825 0.977256
vt 0.983141 0.975728
vt 0.991170 0.987754
vt 0.971126 0.987752
vt 0.989644 0.991441
vt 0.972651 0.991439
vt 0.986825 0.994262
vt 0.221069 0.822556
vt 0.229199 0.927634
vt 0.221069 0.927656
vt 0.214336 0.822609
vt 0.214336 0.927709
vt 0.252284 0.927631
vt 0.260342 0.822565
vt 0.260342 0.927661
vt 0.243960 0.927644
vt 0.252284 0.822535
vt 0.236637 0.927698
vt 0.243960 0.822547
vt 0.311652 0.822156
vt 0.305590 0.927214
vt 0.305590 0.822112
vt 0.319466 0.927281
vt 0.319466 0.822179
vt 0.327843 0.927280
vt 0.327843 0.822177
vt 0.335508 0.822152
vt 0.534849 0.858558
vt 0.528287 0.753405
vt 0.534849 0.753459
vt 0.955596 0.087697
vt 0.961843 0.097051
vt 0.951911 0.089224
vt 0.954105 0.100257
vt 0.945729 0.100257
vt 0.947923 0.089224
vt 0.937990 0.097051
vt 0.944238 0.087697
vt 0.932068 0.091125
vt 0.941418 0.084876
vt 0.928863 0.083384
vt 0.939892 0.081189
vt 0.928864 0.075004
vt 0.907510 0.350626
vt 0.905277 0.353315
vt 0.905266 0.350771
vt 0.112332 0.892994
vt 0.114557 0.896087
vt 0.112315 0.895881
vt 0.907541 0.322745
vt 0.905274 0.326079
vt 0.905298 0.322572
vt 0.114581 0.889314
vt 0.114574 0.893128
vt 0.907509 0.330113
vt 0.907517 0.326166
vt 0.112332 0.885284
vt 0.114557 0.881484
vt 0.114574 0.885225
vt 0.112338 0.889273
vt 0.907517 0.333984
vt 0.905266 0.330124
vt 0.528907 0.736386
vt 0.526681 0.733073
vt 0.528924 0.733262
vt 0.905298 0.337379
vt 0.905274 0.334092
vt 0.528907 0.740223
vt 0.526664 0.736276
vt 0.733718 0.349516
vt 0.735941 0.353474
vt 0.733698 0.353354
vt 0.528924 0.744187
vt 0.526664 0.740209
vt 0.733718 0.345552
vt 0.735962 0.349541
vt 0.907520 0.347137
vt 0.905277 0.347196
vt 0.735941 0.341903
vt 0.735962 0.345478
vt 0.597745 0.993466
vt 0.605611 0.991901
vt 0.601833 0.993466
vt 0.608502 0.977362
vt 0.589513 0.985230
vt 0.589514 0.981140
vt 0.591078 0.977362
vt 0.605612 0.974470
vt 0.593969 0.974470
vt 0.601835 0.972904
vt 0.597746 0.972904
vt 0.610067 0.981140
vt 0.591078 0.989009
vt 0.610066 0.985230
vt 0.593968 0.991901
vt 0.608502 0.989009
vt 0.732625 0.733748
vt 0.771404 0.840662
vt 0.553575 0.874842
vt 0.858661 0.209115
vt 0.063966 0.907125
vt 0.935005 0.353579
vt 0.946525 0.014744
vt 0.988901 0.222852
vt 0.055657 0.884421
vt 0.935617 0.321806
vt 0.154490 0.976030
vt 0.112315 0.903525
vt 0.411772 0.975027
vt 0.969162 0.222784
vt 0.946525 0.047459
vt 0.445460 0.915684
vt 0.985078 0.434776
vt 0.936809 0.211399
vt 0.936809 0.221128
vt 0.745226 0.351632
vt 0.984134 0.584068
vt 0.443141 0.985426
vt 0.989919 0.380999
vt 0.417023 0.985457
vt 0.981145 0.407887
vt 0.229199 0.822535
vt 0.236637 0.822602
vt 0.311652 0.927258
vt 0.335508 0.927254
vt 0.528287 0.858504
vt 0.907520 0.353107
vt 0.112315 0.881634
vt 0.907541 0.337190
vt 0.526681 0.744272
vt 0.733698 0.342065
s 1
usemtl Material.013
f 11/1/1 279/2/1 280/3/1
f 12/4/1 278/5/1 279/2/1
f 13/6/1 277/7/1 278/5/1
f 14/8/1 276/9/1 277/7/1
f 2/10/1 274/11/1 1/12/1
f 15/13/1 275/14/1 276/9/1
f 3/15/1 289/16/1 2/10/1
f 1/12/1 275/14/1 16/17/1
f 4/18/1 288/19/1 3/15/1
f 23/20/2 38/21/3 22/22/3
f 31/23/4 46/24/5 30/25/5
f 24/26/6 39/27/2 23/28/2
f 17/29/7 48/30/8 32/31/8
f 31/23/4 48/30/8 47/32/4
f 25/33/9 40/34/6 24/26/6
f 18/35/10 33/36/7 17/29/7
f 26/37/11 41/38/9 25/33/9
f 19/39/12 34/40/10 18/41/10
f 27/42/13 42/43/11 26/37/11
f 20/44/14 35/45/12 19/39/12
f 28/46/15 43/47/13 27/48/13
f 21/49/16 36/50/14 20/44/14
f 29/51/17 44/52/15 28/46/15
f 22/22/3 37/53/16 21/49/16
f 30/54/5 45/55/17 29/51/17
f 137/56/3 54/57/16 138/58/16
f 58/59/18 56/60/18 57/61/18
f 63/62/19 74/63/20 64/64/21
f 137/56/3 56/65/2 55/66/3
f 44/67/22 67/68/1 66/69/23
f 149/70/6 56/71/2 143/72/2
f 152/73/7 49/74/8 153/75/8
f 146/76/24 49/74/8 64/77/21
f 158/78/9 57/79/6 149/70/6
f 152/73/7 51/80/10 50/81/7
f 164/82/11 58/83/9 158/78/9
f 161/84/10 52/85/12 51/86/10
f 170/87/25 59/88/11 164/82/11
f 167/89/12 53/90/14 52/85/12
f 44/67/22 65/91/26 43/92/27
f 173/93/14 54/57/16 53/90/14
f 62/94/18 73/95/28 63/62/19
f 69/96/29 78/97/30 68/98/31
f 72/99/18 83/100/32 73/95/28
f 67/68/1 78/97/30 77/101/1
f 71/102/33 82/103/18 72/99/18
f 146/104/24 74/105/20 176/106/34
f 61/107/35 70/108/36 71/102/33
f 45/109/1 68/98/31 67/68/1
f 168/110/37 65/111/26 177/112/38
f 61/107/35 72/99/18 62/94/18
f 46/113/39 69/96/29 68/98/31
f 83/100/32 94/114/40 84/115/41
f 75/116/42 86/117/43 85/118/44
f 84/119/41 188/120/45 182/121/46
f 78/97/30 89/122/47 88/123/48
f 74/105/20 182/121/46 176/106/34
f 65/91/26 76/124/49 75/116/42
f 74/63/20 83/100/32 84/115/41
f 70/108/36 81/125/50 71/102/33
f 177/112/38 75/126/42 183/127/51
f 66/69/23 77/101/1 76/124/49
f 87/128/1 98/129/52 97/130/53
f 91/131/54 102/132/55 92/133/18
f 86/117/43 97/130/53 96/134/56
f 189/135/57 95/136/58 195/137/59
f 80/138/60 91/131/54 81/125/50
f 183/139/51 85/140/44 189/135/57
f 76/124/49 87/128/1 86/117/43
f 81/125/50 92/133/18 82/103/18
f 77/101/1 88/123/48 87/128/1
f 82/103/18 93/141/61 83/100/32
f 99/142/62 108/143/63 98/144/52
f 102/145/55 113/146/64 103/147/65
f 97/148/53 108/149/63 107/150/66
f 101/151/67 112/152/68 102/145/55
f 92/133/18 103/153/65 93/141/61
f 88/123/48 99/154/62 98/129/52
f 94/155/40 194/156/69 188/157/45
f 85/118/44 96/134/56 95/158/58
f 93/141/61 104/159/70 94/114/40
f 90/160/71 101/161/67 91/131/54
f 257/162/72 119/163/73 118/164/74
f 269/165/75 123/166/76 271/167/77
f 270/168/78 118/164/74 117/169/79
f 269/165/75 121/170/80 122/171/81
f 104/172/70 200/173/82 194/174/69
f 95/175/58 106/176/83 105/177/84
f 104/178/70 113/179/64 114/180/85
f 100/181/86 111/182/87 101/151/67
f 95/183/58 201/184/88 195/185/59
f 96/186/56 107/150/66 106/176/83
f 206/187/89 134/188/90 218/189/91
f 118/164/74 129/190/92 128/191/93
f 123/166/76 132/192/94 133/193/95
f 118/164/74 127/194/96 117/169/79
f 268/195/97 124/196/98 206/187/89
f 261/197/99 115/198/100 272/199/101
f 271/167/77 124/200/98 260/201/102
f 258/202/103 120/203/104 121/170/80
f 265/204/105 115/205/100 207/206/106
f 270/168/78 116/207/107 261/197/99
f 213/208/108 133/209/95 132/210/94
f 212/211/109 134/212/90 133/209/95
f 221/213/110 131/214/111 130/215/112
f 213/208/108 131/214/111 224/216/113
f 116/207/107 125/217/114 115/198/100
f 123/166/76 134/218/90 124/200/98
f 121/170/80 130/219/112 131/220/111
f 207/206/106 125/221/114 219/222/115
f 116/207/107 127/194/96 126/223/116
f 121/170/80 132/192/94 122/171/81
f 209/224/117 130/225/112 120/226/104
f 209/224/117 220/227/118 221/228/110
f 208/229/119 219/222/115 220/227/118
f 127/230/96 222/231/120 126/232/116
f 215/233/121 223/234/122 222/231/120
f 214/235/11 224/216/113 223/234/122
f 126/232/116 219/236/115 125/237/114
f 222/231/120 220/238/118 219/236/115
f 223/234/122 221/213/110 220/238/118
f 129/239/92 210/240/123 128/241/93
f 216/242/124 211/243/125 210/244/123
f 217/245/126 212/246/109 211/243/125
f 127/230/96 210/240/123 215/233/121
f 210/240/123 214/235/11 215/233/121
f 211/247/125 213/208/108 214/235/11
f 263/248/127 120/226/104 262/249/128
f 264/250/129 209/224/117 263/248/127
f 264/250/129 207/206/106 208/229/119
f 266/251/130 119/252/73 259/253/131
f 267/254/132 204/255/133 266/251/130
f 267/254/132 206/187/89 205/256/134
f 204/255/133 129/257/92 119/252/73
f 204/255/133 217/258/126 216/259/124
f 205/256/134 218/189/91 217/258/126
f 100/260/86 203/261/135 110/262/136
f 197/263/137 202/264/138 203/261/135
f 195/185/59 202/264/138 196/265/139
f 99/266/62 198/267/140 109/268/141
f 192/269/142 199/270/143 198/267/140
f 194/174/69 199/270/143 193/271/144
f 89/272/47 192/273/142 99/274/62
f 186/275/145 193/276/144 192/273/142
f 188/157/45 193/276/144 187/277/146
f 185/278/147 90/279/71 80/280/60
f 185/278/147 190/281/148 191/282/149
f 184/283/150 189/135/57 190/281/148
f 191/282/149 100/284/86 90/279/71
f 191/282/149 196/285/139 197/286/137
f 189/135/57 196/285/139 190/281/148
f 179/287/151 80/288/60 70/289/36
f 179/287/151 184/290/150 185/291/147
f 178/292/152 183/127/51 184/290/150
f 69/293/29 180/294/153 79/295/154
f 174/296/155 181/297/156 180/294/153
f 176/106/34 181/297/156 175/298/157
f 79/295/154 186/299/145 89/300/47
f 181/297/156 186/299/145 180/294/153
f 181/297/156 188/120/45 187/301/146
f 170/302/25 70/289/36 60/303/158
f 169/304/159 179/287/151 170/302/25
f 168/110/37 178/292/152 169/304/159
f 144/305/160 69/293/29 47/306/161
f 144/305/160 175/298/157 174/296/155
f 145/307/162 176/106/34 175/298/157
f 36/50/14 140/308/16 171/309/14
f 171/309/14 139/310/16 172/311/14
f 172/311/14 138/58/16 173/93/14
f 35/45/12 171/309/14 165/312/12
f 165/312/12 172/311/14 166/313/12
f 166/313/12 173/93/14 167/89/12
f 43/314/27 162/315/11 42/43/11
f 168/316/37 163/317/11 162/315/11
f 169/318/159 164/82/11 163/317/11
f 34/40/10 165/312/12 159/319/10
f 159/319/10 166/313/12 160/320/10
f 160/320/10 167/89/12 161/84/10
f 42/43/11 156/321/9 41/38/9
f 162/315/11 157/322/9 156/321/9
f 163/317/11 158/78/9 157/322/9
f 33/36/7 159/323/10 150/324/7
f 150/324/7 160/325/10 151/326/7
f 151/326/7 161/327/10 152/73/7
f 41/38/9 147/328/6 40/34/6
f 156/321/9 148/329/6 147/328/6
f 157/322/9 149/70/6 148/329/6
f 47/32/161 155/330/8 144/331/160
f 144/331/160 154/332/8 145/333/162
f 145/333/162 153/75/8 146/76/24
f 33/36/7 155/330/8 48/30/8
f 150/324/7 154/332/8 155/330/8
f 151/326/7 153/75/8 154/332/8
f 39/27/2 147/328/6 141/334/2
f 141/334/2 148/329/6 142/335/2
f 142/335/2 149/70/6 143/72/2
f 38/21/3 141/336/2 135/337/3
f 135/337/3 142/338/2 136/339/3
f 136/339/3 143/340/2 137/56/3
f 37/53/16 135/337/3 140/308/16
f 135/337/3 139/310/16 140/308/16
f 136/339/3 138/58/16 139/310/16
f 256/341/163 239/342/5 255/343/164
f 254/344/165 239/342/5 238/345/166
f 247/346/167 238/345/166 230/347/168
f 253/348/169 236/349/170 252/350/171
f 251/351/172 236/349/170 235/352/173
f 250/353/174 235/352/173 234/354/175
f 249/355/176 228/356/1 232/357/177
f 244/358/178 237/359/179 253/348/169
f 250/360/174 227/361/180 246/362/181
f 248/363/182 229/364/183 231/365/184
f 244/366/178 232/357/177 233/367/185
f 248/368/182 240/369/186 256/341/163
f 246/362/181 226/370/18 241/371/187
f 245/372/188 228/356/1 242/373/189
f 243/374/190 226/370/18 229/364/183
f 247/375/167 225/376/191 245/372/188
f 109/377/141 245/372/188 108/149/63
f 113/146/64 241/371/187 243/374/190
f 108/149/63 242/373/189 107/150/66
f 111/182/87 241/371/187 112/152/68
f 114/378/85 256/379/163 200/173/82
f 105/177/84 249/355/176 244/366/178
f 114/380/85 243/374/190 248/363/182
f 110/381/136 246/362/181 111/182/87
f 105/382/84 253/348/169 201/184/88
f 106/176/83 242/373/189 249/355/176
f 110/262/136 251/351/172 250/353/174
f 203/261/135 252/350/171 251/351/172
f 201/184/88 252/350/171 202/264/138
f 109/268/141 254/383/165 247/384/167
f 198/267/140 255/385/164 254/383/165
f 200/173/82 255/385/164 199/270/143
f 239/342/5 268/195/97 267/254/132
f 239/342/5 266/251/130 238/345/166
f 238/345/166 259/253/131 230/347/168
f 236/349/170 265/386/105 264/387/129
f 236/349/170 263/388/127 235/352/173
f 235/352/173 262/389/128 234/354/175
f 228/356/1 261/197/99 232/357/177
f 237/359/179 272/390/101 265/386/105
f 227/361/180 262/391/128 258/202/103
f 229/364/183 260/201/102 231/365/184
f 232/357/177 272/199/101 233/367/185
f 240/369/186 260/392/102 268/195/97
f 226/370/18 258/202/103 269/165/75
f 228/356/1 257/162/72 270/168/78
f 226/370/18 271/167/77 229/364/183
f 225/376/191 259/393/131 257/162/72
f 52/394/18 61/395/18 62/396/18
f 51/397/18 62/396/18 63/398/18
f 51/397/18 64/399/18 50/400/18
f 49/401/192 50/400/18 64/399/18
f 53/402/18 60/403/18 61/395/18
f 54/404/18 59/405/18 60/403/18
f 55/406/18 58/59/18 59/405/18
f 275/407/4 273/408/193 299/409/4
f 276/410/5 299/409/4 298/411/5
f 297/412/17 276/413/5 298/414/5
f 296/415/15 277/416/17 297/412/17
f 295/417/13 278/418/15 296/415/15
f 294/419/11 279/420/13 295/421/13
f 281/422/9 294/419/11 293/423/9
f 282/424/6 293/423/9 292/425/6
f 291/426/2 282/424/6 292/425/6
f 284/427/194 291/428/2 290/429/194
f 10/430/1 280/3/1 281/431/1
f 9/432/1 281/431/1 282/433/1
f 9/432/1 283/434/1 8/435/1
f 8/435/1 284/436/1 7/437/1
f 7/437/1 285/438/1 6/439/1
f 6/439/1 286/440/1 5/441/1
f 5/441/1 287/442/1 4/18/1
f 12/443/195 310/444/196 311/445/195
f 3/446/197 303/447/198 4/448/198
f 11/449/199 309/450/200 310/451/196
f 3/446/197 301/452/201 302/453/197
f 9/454/202 309/450/200 10/455/200
f 1/456/203 315/457/204 300/458/203
f 2/459/201 300/458/203 301/452/201
f 8/460/205 308/461/202 9/454/202
f 15/462/206 315/463/204 16/464/204
f 8/460/205 306/465/207 307/466/205
f 14/467/208 314/468/209 15/462/206
f 6/469/210 306/470/207 7/471/207
f 13/472/211 313/473/208 14/467/208
f 5/474/212 305/475/210 6/469/210
f 13/476/211 311/445/195 312/477/211
f 5/474/212 303/478/198 304/479/212
f 307/480/1 309/481/1 308/482/1
f 313/483/1 304/484/1 303/485/1
f 313/483/1 302/486/1 314/487/1
f 314/487/1 301/488/1 315/489/1
f 300/490/1 315/489/1 301/488/1
f 312/491/1 305/492/1 304/484/1
f 311/493/1 306/494/1 305/492/1
f 310/495/1 307/480/1 306/494/1
f 11/1/1 12/4/1 279/2/1
f 12/4/1 13/6/1 278/5/1
f 13/6/1 14/8/1 277/7/1
f 14/8/1 15/13/1 276/9/1
f 2/10/1 289/16/1 274/11/1
f 15/13/1 16/17/1 275/14/1
f 3/15/1 288/19/1 289/16/1
f 1/12/1 274/11/1 275/14/1
f 4/18/1 287/442/1 288/19/1
f 23/20/2 39/496/2 38/21/3
f 31/23/4 47/32/4 46/24/5
f 24/26/6 40/34/6 39/27/2
f 17/29/7 33/36/7 48/30/8
f 31/23/4 32/31/8 48/30/8
f 25/33/9 41/38/9 40/34/6
f 18/35/10 34/497/10 33/36/7
f 26/37/11 42/43/11 41/38/9
f 19/39/12 35/45/12 34/40/10
f 27/42/13 43/314/13 42/43/11
f 20/44/14 36/50/14 35/45/12
f 28/46/15 44/52/15 43/47/13
f 21/49/16 37/53/16 36/50/14
f 29/51/17 45/55/17 44/52/15
f 22/22/3 38/21/3 37/53/16
f 30/54/5 46/498/5 45/55/17
f 137/56/3 55/66/3 54/57/16
f 63/62/19 73/95/28 74/63/20
f 137/56/3 143/340/2 56/65/2
f 44/67/22 45/109/1 67/68/1
f 149/70/6 57/79/6 56/71/2
f 152/73/7 50/81/7 49/74/8
f 146/76/24 153/75/8 49/74/8
f 158/78/9 58/83/9 57/79/6
f 152/73/7 161/327/10 51/80/10
f 164/82/11 59/88/11 58/83/9
f 161/84/10 167/89/12 52/85/12
f 170/87/25 60/499/158 59/88/11
f 167/89/12 173/93/14 53/90/14
f 44/67/22 66/69/23 65/91/26
f 173/93/14 138/58/16 54/57/16
f 62/94/18 72/99/18 73/95/28
f 69/96/29 79/500/154 78/97/30
f 72/99/18 82/103/18 83/100/32
f 67/68/1 68/98/31 78/97/30
f 71/102/33 81/125/50 82/103/18
f 146/104/24 64/501/21 74/105/20
f 61/107/35 60/502/158 70/108/36
f 45/109/1 46/113/39 68/98/31
f 168/110/37 43/503/27 65/111/26
f 61/107/35 71/102/33 72/99/18
f 46/113/39 47/504/161 69/96/29
f 83/100/32 93/141/61 94/114/40
f 75/116/42 76/124/49 86/117/43
f 84/119/41 94/505/40 188/120/45
f 78/97/30 79/500/154 89/122/47
f 74/105/20 84/119/41 182/121/46
f 65/91/26 66/69/23 76/124/49
f 74/63/20 73/95/28 83/100/32
f 70/108/36 80/138/60 81/125/50
f 177/112/38 65/111/26 75/126/42
f 66/69/23 67/68/1 77/101/1
f 87/128/1 88/123/48 98/129/52
f 91/131/54 101/161/67 102/132/55
f 86/117/43 87/128/1 97/130/53
f 189/135/57 85/140/44 95/136/58
f 80/138/60 90/160/71 91/131/54
f 183/139/51 75/506/42 85/140/44
f 76/124/49 77/101/1 87/128/1
f 81/125/50 91/131/54 92/133/18
f 77/101/1 78/97/30 88/123/48
f 82/103/18 92/133/18 93/141/61
f 99/142/62 109/507/141 108/143/63
f 102/145/55 112/152/68 113/146/64
f 97/148/53 98/508/52 108/149/63
f 101/151/67 111/182/87 112/152/68
f 92/133/18 102/132/55 103/153/65
f 88/123/48 89/122/47 99/154/62
f 94/155/40 104/509/70 194/156/69
f 85/118/44 86/117/43 96/134/56
f 93/141/61 103/153/65 104/159/70
f 90/160/71 100/510/86 101/161/67
f 257/162/72 259/393/131 119/163/73
f 269/165/75 122/171/81 123/166/76
f 270/168/78 257/162/72 118/164/74
f 269/165/75 258/202/103 121/170/80
f 104/172/70 114/378/85 200/173/82
f 95/175/58 96/186/56 106/176/83
f 104/178/70 103/511/65 113/179/64
f 100/181/86 110/381/136 111/182/87
f 95/183/58 105/382/84 201/184/88
f 96/186/56 97/148/53 107/150/66
f 206/187/89 124/196/98 134/188/90
f 118/164/74 119/163/73 129/190/92
f 123/166/76 122/171/81 132/192/94
f 118/164/74 128/191/93 127/194/96
f 268/195/97 260/392/102 124/196/98
f 261/197/99 116/207/107 115/198/100
f 271/167/77 123/166/76 124/200/98
f 258/202/103 262/391/128 120/203/104
f 265/204/105 272/512/101 115/205/100
f 270/168/78 117/169/79 116/207/107
f 213/208/108 212/211/109 133/209/95
f 212/211/109 218/513/91 134/212/90
f 221/213/110 224/216/113 131/214/111
f 213/208/108 132/210/94 131/214/111
f 116/207/107 126/223/116 125/217/114
f 123/166/76 133/193/95 134/218/90
f 121/170/80 120/203/104 130/219/112
f 207/206/106 115/205/100 125/221/114
f 116/207/107 117/169/79 127/194/96
f 121/170/80 131/220/111 132/192/94
f 209/224/117 221/228/110 130/225/112
f 209/224/117 208/229/119 220/227/118
f 208/229/119 207/206/106 219/222/115
f 127/230/96 215/233/121 222/231/120
f 215/233/121 214/235/11 223/234/122
f 214/235/11 213/208/108 224/216/113
f 126/232/116 222/231/120 219/236/115
f 222/231/120 223/234/122 220/238/118
f 223/234/122 224/216/113 221/213/110
f 129/239/92 216/514/124 210/240/123
f 216/242/124 217/245/126 211/243/125
f 217/245/126 218/515/91 212/246/109
f 127/230/96 128/241/93 210/240/123
f 210/240/123 211/247/125 214/235/11
f 211/247/125 212/211/109 213/208/108
f 263/248/127 209/224/117 120/226/104
f 264/250/129 208/229/119 209/224/117
f 264/250/129 265/204/105 207/206/106
f 266/251/130 204/255/133 119/252/73
f 267/254/132 205/256/134 204/255/133
f 267/254/132 268/195/97 206/187/89
f 204/255/133 216/259/124 129/257/92
f 204/255/133 205/256/134 217/258/126
f 205/256/134 206/187/89 218/189/91
f 100/260/86 197/263/137 203/261/135
f 197/263/137 196/265/139 202/264/138
f 195/185/59 201/184/88 202/264/138
f 99/266/62 192/269/142 198/267/140
f 192/269/142 193/271/144 199/270/143
f 194/174/69 200/173/82 199/270/143
f 89/272/47 186/275/145 192/273/142
f 186/275/145 187/277/146 193/276/144
f 188/157/45 194/156/69 193/276/144
f 185/278/147 191/282/149 90/279/71
f 185/278/147 184/283/150 190/281/148
f 184/283/150 183/139/51 189/135/57
f 191/282/149 197/286/137 100/284/86
f 191/282/149 190/281/148 196/285/139
f 189/135/57 195/137/59 196/285/139
f 179/287/151 185/291/147 80/288/60
f 179/287/151 178/292/152 184/290/150
f 178/292/152 177/112/38 183/127/51
f 69/293/29 174/296/155 180/294/153
f 174/296/155 175/298/157 181/297/156
f 176/106/34 182/121/46 181/297/156
f 79/295/154 180/294/153 186/299/145
f 181/297/156 187/301/146 186/299/145
f 181/297/156 182/121/46 188/120/45
f 170/302/25 179/287/151 70/289/36
f 169/304/159 178/292/152 179/287/151
f 168/110/37 177/112/38 178/292/152
f 144/305/160 174/296/155 69/293/29
f 144/305/160 145/307/162 175/298/157
f 145/307/162 146/104/24 176/106/34
f 36/50/14 37/53/16 140/308/16
f 171/309/14 140/308/16 139/310/16
f 172/311/14 139/310/16 138/58/16
f 35/45/12 36/50/14 171/309/14
f 165/312/12 171/309/14 172/311/14
f 166/313/12 172/311/14 173/93/14
f 43/314/27 168/316/37 162/315/11
f 168/316/37 169/318/159 163/317/11
f 169/318/159 170/87/25 164/82/11
f 34/40/10 35/45/12 165/312/12
f 159/319/10 165/312/12 166/313/12
f 160/320/10 166/313/12 167/89/12
f 42/43/11 162/315/11 156/321/9
f 162/315/11 163/317/11 157/322/9
f 163/317/11 164/82/11 158/78/9
f 33/36/7 34/497/10 159/323/10
f 150/324/7 159/323/10 160/325/10
f 151/326/7 160/325/10 161/327/10
f 41/38/9 156/321/9 147/328/6
f 156/321/9 157/322/9 148/329/6
f 157/322/9 158/78/9 149/70/6
f 47/32/161 48/30/8 155/330/8
f 144/331/160 155/330/8 154/332/8
f 145/333/162 154/332/8 153/75/8
f 33/36/7 150/324/7 155/330/8
f 150/324/7 151/326/7 154/332/8
f 151/326/7 152/73/7 153/75/8
f 39/27/2 40/34/6 147/328/6
f 141/334/2 147/328/6 148/329/6
f 142/335/2 148/329/6 149/70/6
f 38/21/3 39/496/2 141/336/2
f 135/337/3 141/336/2 142/338/2
f 136/339/3 142/338/2 143/340/2
f 37/53/16 38/21/3 135/337/3
f 135/337/3 136/339/3 139/310/16
f 136/339/3 137/56/3 138/58/16
f 256/341/163 240/369/186 239/342/5
f 254/344/165 255/343/164 239/342/5
f 247/346/167 254/344/165 238/345/166
f 253/348/169 237/359/179 236/349/170
f 251/351/172 252/350/171 236/349/170
f 250/353/174 251/351/172 235/352/173
f 249/355/176 242/373/189 228/356/1
f 244/358/178 233/516/185 237/359/179
f 250/360/174 234/517/175 227/361/180
f 248/363/182 243/374/190 229/364/183
f 244/366/178 249/355/176 232/357/177
f 248/368/182 231/518/184 240/369/186
f 246/362/181 227/361/180 226/370/18
f 245/372/188 225/376/191 228/356/1
f 243/374/190 241/371/187 226/370/18
f 247/375/167 230/519/168 225/376/191
f 109/377/141 247/375/167 245/372/188
f 113/146/64 112/152/68 241/371/187
f 108/149/63 245/372/188 242/373/189
f 111/182/87 246/362/181 241/371/187
f 114/378/85 248/520/182 256/379/163
f 105/177/84 106/176/83 249/355/176
f 114/380/85 113/146/64 243/374/190
f 110/381/136 250/360/174 246/362/181
f 105/382/84 244/358/178 253/348/169
f 106/176/83 107/150/66 242/373/189
f 110/262/136 203/261/135 251/351/172
f 203/261/135 202/264/138 252/350/171
f 201/184/88 253/348/169 252/350/171
f 109/268/141 198/267/140 254/383/165
f 198/267/140 199/270/143 255/385/164
f 200/173/82 256/379/163 255/385/164
f 239/342/5 240/369/186 268/195/97
f 239/342/5 267/254/132 266/251/130
f 238/345/166 266/251/130 259/253/131
f 236/349/170 237/359/179 265/386/105
f 236/349/170 264/387/129 263/388/127
f 235/352/173 263/388/127 262/389/128
f 228/356/1 270/168/78 261/197/99
f 237/359/179 233/516/185 272/390/101
f 227/361/180 234/517/175 262/391/128
f 229/364/183 271/167/77 260/201/102
f 232/357/177 261/197/99 272/199/101
f 240/369/186 231/518/184 260/392/102
f 226/370/18 227/361/180 258/202/103
f 228/356/1 225/376/191 257/162/72
f 226/370/18 269/165/75 271/167/77
f 225/376/191 230/519/168 259/393/131
f 52/394/18 53/402/18 61/395/18
f 51/397/18 52/394/18 62/396/18
f 51/397/18 63/398/18 64/399/18
f 53/402/18 54/404/18 60/403/18
f 54/404/18 55/406/18 59/405/18
f 55/406/18 56/60/18 58/59/18
f 275/407/4 274/521/193 273/408/193
f 276/410/5 275/407/4 299/409/4
f 297/412/17 277/416/17 276/413/5
f 296/415/15 278/418/15 277/416/17
f 295/417/13 279/522/13 278/418/15
f 294/419/11 280/523/11 279/420/13
f 281/422/9 280/523/11 294/419/11
f 282/424/6 281/422/9 293/423/9
f 291/426/2 283/524/2 282/424/6
f 284/427/194 283/525/2 291/428/2
f 10/430/1 11/1/1 280/3/1
f 9/432/1 10/430/1 281/431/1
f 9/432/1 282/433/1 283/434/1
f 8/435/1 283/434/1 284/436/1
f 7/437/1 284/436/1 285/438/1
f 6/439/1 285/438/1 286/440/1
f 5/441/1 286/440/1 287/442/1
f 12/443/195 11/526/199 310/444/196
f 3/446/197 302/453/197 303/447/198
f 11/449/199 10/455/200 309/450/200
f 3/446/197 2/459/201 301/452/201
f 9/454/202 308/461/202 309/450/200
f 1/456/203 16/527/204 315/457/204
f 2/459/201 1/456/203 300/458/203
f 8/460/205 307/466/205 308/461/202
f 15/462/206 314/468/209 315/463/204
f 8/460/205 7/528/207 306/465/207
f 14/467/208 313/473/208 314/468/209
f 6/469/210 305/475/210 306/470/207
f 13/472/211 312/529/211 313/473/208
f 5/474/212 304/479/212 305/475/210
f 13/476/211 12/443/195 311/445/195
f 5/474/212 4/530/198 303/478/198
f 313/483/1 312/491/1 304/484/1
f 313/483/1 303/485/1 302/486/1
f 314/487/1 302/486/1 301/488/1
f 312/491/1 311/493/1 305/492/1
f 311/493/1 310/495/1 306/494/1
f 310/495/1 309/481/1 307/480/1
