# Blender 4.5.2 LTS
# www.blender.org
mtllib SniperMagazine.mtl
o Magazine
v 0.007137 -0.015855 0.029073
v 0.007137 -0.015855 -0.025590
v -0.007137 -0.015855 -0.025590
v -0.007137 -0.015855 0.029073
v 0.007137 -0.075776 0.029073
v 0.007137 -0.075776 -0.025590
v -0.007137 -0.075776 -0.025590
v -0.007137 -0.075776 0.029073
v 0.007137 -0.015855 0.023000
v 0.007137 -0.015855 0.016926
v 0.007137 -0.015855 0.010852
v 0.007137 -0.015855 0.004779
v 0.007137 -0.015855 -0.001295
v 0.007137 -0.015855 -0.007369
v 0.007137 -0.015855 -0.013442
v 0.007137 -0.015855 -0.019516
v -0.007137 -0.015855 -0.019516
v -0.007137 -0.015855 -0.013442
v -0.007137 -0.015855 -0.007369
v -0.007137 -0.015855 -0.001295
v -0.007137 -0.015855 0.004779
v -0.007137 -0.015855 0.010852
v -0.007137 -0.015855 0.016926
v -0.007137 -0.015855 0.023000
v 0.007137 -0.075776 0.023000
v 0.007137 -0.075776 0.016926
v 0.007137 -0.075776 0.010852
v 0.007137 -0.075776 0.004779
v 0.007137 -0.075776 -0.001295
v 0.007137 -0.075776 -0.007369
v 0.007137 -0.075776 -0.013442
v 0.007137 -0.075776 -0.019516
v -0.007137 -0.075776 -0.019516
v -0.007137 -0.075776 -0.013442
v -0.007137 -0.075776 -0.007369
v -0.007137 -0.075776 -0.001295
v -0.007137 -0.075776 0.004779
v -0.007137 -0.075776 0.010852
v -0.007137 -0.075776 0.016926
v -0.007137 -0.075776 0.023000
v 0.007137 -0.016424 0.022696
v 0.007137 -0.016424 0.017230
v 0.007137 -0.016424 0.010549
v 0.007137 -0.016424 0.005082
v 0.007137 -0.016424 -0.001599
v 0.007137 -0.016424 -0.007065
v 0.007137 -0.016424 -0.013746
v 0.007137 -0.016424 -0.019212
v -0.007137 -0.016424 -0.019212
v -0.007137 -0.016424 -0.013746
v -0.007137 -0.016424 -0.007065
v -0.007137 -0.016424 -0.001599
v -0.007137 -0.016424 0.005082
v -0.007137 -0.016424 0.010549
v -0.007137 -0.016424 0.017230
v -0.007137 -0.016424 0.022696
v 0.007137 -0.075207 0.022696
v 0.007137 -0.075207 0.017230
v 0.007137 -0.075207 0.010549
v 0.007137 -0.075207 0.005082
v 0.007137 -0.075207 -0.001599
v 0.007137 -0.075207 -0.007065
v 0.007137 -0.075207 -0.013746
v 0.007137 -0.075207 -0.019212
v -0.007137 -0.075207 -0.019212
v -0.007137 -0.075207 -0.013746
v -0.007137 -0.075207 -0.007065
v -0.007137 -0.075207 -0.001599
v -0.007137 -0.075207 0.005082
v -0.007137 -0.075207 0.010549
v -0.007137 -0.075207 0.017230
v -0.007137 -0.075207 0.022696
v 0.006423 -0.019584 0.021603
v 0.006423 -0.019584 0.018323
v 0.006423 -0.019584 0.009456
v 0.006423 -0.019584 0.006176
v 0.006423 -0.019584 -0.002692
v 0.006423 -0.019584 -0.005972
v 0.006423 -0.019584 -0.014839
v 0.006423 -0.019584 -0.018119
v -0.006423 -0.019584 -0.018119
v -0.006423 -0.019584 -0.014839
v -0.006423 -0.019584 -0.005972
v -0.006423 -0.019584 -0.002692
v -0.006423 -0.019584 0.006176
v -0.006423 -0.019584 0.009456
v -0.006423 -0.019584 0.018323
v -0.006423 -0.019584 0.021603
v 0.006423 -0.072047 0.021603
v 0.006423 -0.072047 0.018323
v 0.006423 -0.072047 0.009455
v 0.006423 -0.072047 0.006176
v 0.006423 -0.072047 -0.002692
v 0.006423 -0.072047 -0.005972
v 0.006423 -0.072047 -0.014839
v 0.006423 -0.072047 -0.018119
v -0.006423 -0.072047 -0.018119
v -0.006423 -0.072047 -0.014839
v -0.006423 -0.072047 -0.005972
v -0.006423 -0.072047 -0.002692
v -0.006423 -0.072047 0.006176
v -0.006423 -0.072047 0.009455
v -0.006423 -0.072047 0.018323
v -0.006423 -0.072047 0.021603
v 0.005352 -0.078722 -0.018033
v 0.005352 -0.078722 -0.023683
v -0.005352 -0.078722 0.021517
v -0.005352 -0.078722 0.027167
v -0.005352 -0.078722 -0.023683
v 0.005352 -0.078722 0.027167
v 0.005352 -0.078722 0.021517
v 0.005352 -0.078722 0.015867
v 0.005352 -0.078722 0.010217
v 0.005352 -0.078722 0.004567
v 0.005352 -0.078722 -0.001083
v 0.005352 -0.078722 -0.006733
v 0.005352 -0.078722 -0.012383
v -0.005352 -0.078722 -0.018033
v -0.005352 -0.078722 -0.012383
v -0.005352 -0.078722 -0.006733
v -0.005352 -0.078722 -0.001083
v -0.005352 -0.078722 0.004567
v -0.005352 -0.078722 0.010217
v -0.005352 -0.078722 0.015867
v 0.006066 -0.015855 -0.019516
v 0.006066 -0.015855 -0.024223
v -0.006066 -0.015855 0.023000
v -0.006066 -0.015855 0.027707
v -0.006066 -0.015855 -0.024223
v 0.006066 -0.015855 0.027707
v 0.006066 -0.015855 0.023000
v 0.006066 -0.015855 0.016926
v 0.006066 -0.015855 0.010852
v 0.006066 -0.015855 0.004779
v 0.006066 -0.015855 -0.001295
v 0.006066 -0.015855 -0.007369
v 0.006066 -0.015855 -0.013442
v -0.006066 -0.015855 -0.019516
v -0.006066 -0.015855 -0.013442
v -0.006066 -0.015855 -0.007369
v -0.006066 -0.015855 -0.001295
v -0.006066 -0.015855 0.004779
v -0.006066 -0.015855 0.010852
v -0.006066 -0.015855 0.016926
v 0.007137 -0.011894 -0.019516
v 0.007137 -0.011894 -0.025590
v 0.007137 -0.011894 -0.001295
v 0.007137 -0.011894 -0.007369
v 0.007137 -0.011894 -0.013442
v -0.007137 -0.011894 -0.025590
v -0.007137 -0.011894 -0.019516
v -0.007137 -0.011894 -0.013442
v -0.007137 -0.011894 -0.007369
v -0.007137 -0.011894 -0.001295
v 0.006066 -0.012565 -0.024223
v -0.006066 -0.012565 -0.024223
v 0.006066 -0.012565 -0.007369
v -0.006066 -0.012565 -0.001295
v 0.006066 -0.012565 -0.001295
v 0.006066 -0.012565 -0.019516
v 0.006066 -0.012565 -0.013442
v -0.006066 -0.012565 -0.019516
v -0.006066 -0.012565 -0.013442
v -0.006066 -0.012565 -0.007369
v 0.006066 -0.028465 -0.019516
v 0.006066 -0.028465 -0.024223
v -0.006066 -0.028465 0.023000
v -0.006066 -0.028465 0.027707
v -0.006066 -0.028465 -0.024223
v 0.006066 -0.028465 0.027707
v 0.006066 -0.028465 0.023000
v 0.006066 -0.028465 0.016926
v 0.006066 -0.028465 0.010852
v 0.006066 -0.028465 0.004779
v 0.006066 -0.028465 -0.001295
v 0.006066 -0.028465 -0.007369
v 0.006066 -0.028465 -0.013442
v -0.006066 -0.028465 -0.019516
v -0.006066 -0.028465 -0.013442
v -0.006066 -0.028465 -0.007369
v -0.006066 -0.028465 -0.001295
v -0.006066 -0.028465 0.004779
v -0.006066 -0.028465 0.010852
v -0.006066 -0.028465 0.016926
v 0.005229 -0.010119 -0.019516
v 0.005229 -0.010119 -0.025590
v 0.005229 -0.010119 -0.001295
v 0.005229 -0.010119 -0.007369
v 0.005229 -0.010119 -0.013442
v -0.005229 -0.010119 -0.025590
v -0.005229 -0.010119 -0.019516
v -0.005229 -0.010119 -0.013442
v -0.005229 -0.010119 -0.007369
v -0.005229 -0.010119 -0.001295
v 0.004694 -0.011205 -0.024223
v -0.004694 -0.011205 -0.024223
v 0.004694 -0.011205 -0.007369
v -0.004694 -0.011205 -0.001295
v 0.004694 -0.011205 -0.001295
v 0.004694 -0.011205 -0.019516
v 0.004694 -0.011205 -0.013442
v -0.004694 -0.011205 -0.019516
v -0.004694 -0.011205 -0.013442
v -0.004694 -0.011205 -0.007369
vn -1.0000 -0.0000 -0.0000
vn -0.9168 0.3993 -0.0000
vn -0.0000 -0.0000 1.0000
vn -0.0000 -0.0000 -1.0000
vn 1.0000 -0.0000 -0.0000
vn -0.8552 -0.5183 -0.0000
vn 0.8552 -0.5183 -0.0000
vn -0.0000 -0.5433 0.8395
vn -0.0000 -0.5433 -0.8395
vn -0.0000 1.0000 -0.0000
vn 0.9230 -0.3847 -0.0000
vn 0.9754 0.2203 -0.0000
vn -0.8374 -0.0000 -0.5466
vn 0.8374 -0.0000 -0.5466
vn 0.8374 -0.0000 0.5466
vn -0.8374 -0.0000 0.5466
vn -0.9754 0.2203 -0.0000
vn 0.9754 -0.2203 -0.0000
vn -0.9754 -0.2203 -0.0000
vn -0.0000 -1.0000 -0.0000
vn 0.9168 0.3993 -0.0000
vn -0.9230 -0.3847 -0.0000
vn -0.7039 -0.7103 -0.0000
vn 0.6811 0.7322 -0.0000
vn -0.6760 -0.3057 -0.6705
vn -0.5209 -0.5465 -0.6557
vn -0.5193 -0.5582 -0.6471
vn -0.6811 0.7322 -0.0000
vn 0.9230 -0.3848 -0.0000
vn -0.7872 -0.0000 -0.6167
vn -0.6939 -0.2601 -0.6714
vn 0.7872 -0.0000 -0.6167
vn 0.6939 -0.2601 -0.6714
vn -0.8970 0.4420 -0.0000
vn 0.8970 0.4420 -0.0000
vn 0.6760 -0.3057 -0.6705
vn 0.5209 -0.5465 -0.6557
vn 0.6811 0.7321 -0.0000
vn 0.7039 -0.7103 -0.0000
vn 0.5193 -0.5582 -0.6471
vt 0.856639 0.948525
vt 0.829460 0.905170
vt 0.856639 0.905170
vt 0.487108 0.441614
vt 0.389095 0.867999
vt 0.389095 0.441614
vt 0.764456 0.000000
vt 0.722749 0.427338
vt 0.722749 0.000000
vt 0.375361 0.441614
vt 0.277348 0.861720
vt 0.277348 0.441614
vt 0.375361 0.000000
vt 0.333654 0.427338
vt 0.333654 0.000000
vt 0.657987 0.658391
vt 0.678720 0.697210
vt 0.657987 0.701746
vt 0.713186 0.615036
vt 0.692453 0.576217
vt 0.713186 0.571680
vt 0.657987 0.615036
vt 0.678720 0.656879
vt 0.598454 0.826579
vt 0.619655 0.915723
vt 0.598454 0.928466
vt 0.692453 0.656879
vt 0.692453 0.616548
vt 0.678720 0.576217
vt 0.678720 0.616548
vt 0.542899 0.826579
vt 0.565227 0.915723
vt 0.542899 0.928466
vt 0.713186 0.658391
vt 0.692453 0.697210
vt 0.657987 0.571680
vt 0.678720 0.535886
vt 0.041707 0.000000
vt 0.000000 0.427338
vt 0.000000 0.000000
vt 0.166827 0.000000
vt 0.127206 0.004060
vt 0.125120 0.000000
vt 0.083414 0.427338
vt 0.083414 0.000000
vt 0.250241 0.000000
vt 0.248155 0.423278
vt 0.248155 0.004060
vt 0.208534 0.427338
vt 0.166827 0.427338
vt 0.472508 0.427338
vt 0.432887 0.423278
vt 0.470423 0.423278
vt 0.291948 0.000000
vt 0.250241 0.427338
vt 0.210619 0.004060
vt 0.210619 0.423278
vt 0.430802 0.000000
vt 0.389095 0.427338
vt 0.389095 0.000000
vt 0.291948 0.427338
vt 0.331569 0.423278
vt 0.472508 0.000000
vt 0.514215 0.427338
vt 0.208534 0.000000
vt 0.597629 0.000000
vt 0.555922 0.427338
vt 0.555922 0.000000
vt 0.164742 0.004060
vt 0.681042 0.000000
vt 0.639336 0.427338
vt 0.639336 0.000000
vt 0.516301 0.423278
vt 0.553837 0.423278
vt 0.681105 0.947976
vt 0.690489 0.853730
vt 0.690489 0.940334
vt 0.633388 0.528325
vt 0.640739 0.571680
vt 0.633388 0.571680
vt 0.533147 0.735347
vt 0.510575 0.691991
vt 0.533147 0.691991
vt 0.667371 0.846089
vt 0.657987 0.940334
vt 0.657987 0.853730
vt 0.640739 0.615036
vt 0.633388 0.615036
vt 0.829459 0.861815
vt 0.856639 0.861815
vt 0.640739 0.658391
vt 0.633388 0.658391
vt 0.640739 0.889444
vt 0.633388 0.846089
vt 0.640739 0.846089
vt 0.815726 0.419218
vt 0.785697 0.396903
vt 0.808219 0.396903
vt 0.000000 0.441614
vt 0.007507 0.838517
vt 0.000000 0.860833
vt 0.815726 0.852713
vt 0.785697 0.830398
vt 0.808219 0.830398
vt 0.764456 0.860833
vt 0.756949 0.464365
vt 0.764456 0.441614
vt 0.088806 0.860833
vt 0.058777 0.838517
vt 0.081299 0.838517
vt 0.726920 0.860833
vt 0.734427 0.464365
vt 0.734427 0.838517
vt 0.756949 0.838517
vt 0.088806 0.441614
vt 0.081299 0.464365
vt 0.294033 0.423278
vt 0.331569 0.004060
vt 0.081328 0.004060
vt 0.043792 0.004060
vt 0.127206 0.423278
vt 0.164742 0.423278
vt 0.430802 0.427338
vt 0.470423 0.004060
vt 0.683128 0.004060
vt 0.041707 0.427338
vt 0.081328 0.423278
vt 0.516301 0.004060
vt 0.553837 0.004060
vt 0.599714 0.004060
vt 0.681042 0.427338
vt 0.720664 0.423278
vt 0.599714 0.423278
vt 0.597629 0.427338
vt 0.637250 0.004060
vt 0.514215 0.000000
vt 0.043792 0.423278
vt 0.637250 0.423278
vt 0.683128 0.423278
vt 0.294033 0.004060
vt 0.720664 0.004060
vt 0.432887 0.004060
vt 0.125120 0.427338
vt 0.808219 0.022751
vt 0.785697 0.022751
vt 0.808219 0.456245
vt 0.785697 0.456245
vt 0.058777 0.464365
vt 0.030029 0.464365
vt 0.007507 0.464365
vt 0.256107 0.464365
vt 0.233586 0.838517
vt 0.233586 0.464365
vt 0.204838 0.464365
vt 0.182316 0.838517
vt 0.182316 0.464365
vt 0.132568 0.464365
vt 0.110047 0.838517
vt 0.110047 0.464365
vt 0.037536 0.860833
vt 0.037536 0.441614
vt 0.102540 0.860833
vt 0.132568 0.838517
vt 0.140076 0.860833
vt 0.226079 0.860833
vt 0.212345 0.860833
vt 0.204838 0.838517
vt 0.726920 0.441614
vt 0.263615 0.860833
vt 0.263615 0.441614
vt 0.256108 0.838517
vt 0.051270 0.441614
vt 0.174809 0.860833
vt 0.030029 0.838517
vt 0.815726 0.433495
vt 0.778190 0.433495
vt 0.212345 0.441614
vt 0.778190 0.000000
vt 0.778190 0.419218
vt 0.815726 0.000000
vt 0.102540 0.441614
vt 0.140076 0.441614
vt 0.778190 0.852713
vt 0.174809 0.441614
vt 0.226079 0.441614
vt 0.051270 0.860833
vt 0.926504 0.088861
vt 1.000000 0.048531
vt 1.000000 0.088862
vt 0.926504 0.411509
vt 1.000000 0.371179
vt 1.000000 0.411510
vt 0.926504 0.371178
vt 1.000000 0.330848
vt 0.926504 0.330847
vt 1.000000 0.290517
vt 0.926504 0.290516
vt 1.000000 0.250185
vt 0.926504 0.250185
vt 1.000000 0.209855
vt 0.926504 0.209855
vt 1.000000 0.169524
vt 0.926504 0.169524
vt 1.000000 0.129193
vt 0.926504 0.129192
vt 0.692453 0.535886
vt 0.713186 0.528325
vt 0.678720 0.737541
vt 0.657987 0.745102
vt 0.692453 0.495555
vt 0.713186 0.484970
vt 0.713186 0.788457
vt 0.692453 0.818203
vt 0.692453 0.777872
vt 0.678720 0.777872
vt 0.657987 0.788457
vt 0.657987 0.484970
vt 0.678720 0.455224
vt 0.678720 0.495555
vt 0.713186 0.745102
vt 0.692453 0.737541
vt 0.692454 0.455224
vt 0.713186 0.441614
vt 0.657987 0.528325
vt 0.713186 0.701746
vt 0.678720 0.818203
vt 0.657987 0.831812
vt 0.861766 0.597161
vt 0.948273 0.640517
vt 0.861766 0.640517
vt 0.533147 0.648636
vt 0.619655 0.691991
vt 0.861766 0.433495
vt 0.948273 0.467095
vt 0.861766 0.467095
vt 0.948273 0.683872
vt 0.861766 0.683872
vt 0.619655 0.735347
vt 0.948273 0.727227
vt 0.861766 0.727227
vt 0.619655 0.778702
vt 0.533147 0.778702
vt 0.948273 0.770582
vt 0.861766 0.770582
vt 0.619655 0.812302
vt 0.533147 0.812302
vt 0.640739 0.716023
vt 0.633388 0.682422
vt 0.640739 0.672668
vt 0.633388 0.484970
vt 0.640739 0.528325
vt 0.206633 0.918116
vt 0.205977 0.893498
vt 0.214331 0.891085
vt 0.640739 0.759378
vt 0.633388 0.716023
vt 0.510575 0.735347
vt 0.640739 0.802733
vt 0.633388 0.759378
vt 0.829459 0.818459
vt 0.856639 0.818459
vt 0.510575 0.778702
vt 0.633388 0.802733
vt 0.870372 0.861815
vt 0.897551 0.905170
vt 0.870372 0.905170
vt 0.640739 0.451369
vt 0.640739 0.484970
vt 0.839194 0.510451
vt 0.829459 0.467095
vt 0.839194 0.467095
vt 0.924385 0.861815
vt 0.911285 0.818459
vt 0.924385 0.818459
vt 0.263615 0.893556
vt 0.254426 0.878663
vt 0.263615 0.875109
vt 0.839194 0.553806
vt 0.829460 0.510451
vt 0.924385 0.991881
vt 0.911285 0.948525
vt 0.924385 0.948525
vt 0.938119 0.818459
vt 0.951219 0.861815
vt 0.938119 0.861815
vt 0.839194 0.597161
vt 0.829460 0.553806
vt 0.951219 0.905170
vt 0.938119 0.905170
vt 0.839194 0.433495
vt 0.510575 0.648636
vt 0.870372 0.818459
vt 0.897551 0.861815
vt 0.856639 0.991881
vt 0.829460 0.948525
vt 0.808677 0.909996
vt 0.809333 0.885379
vt 0.815726 0.907827
vt 0.861766 0.553806
vt 0.838844 0.028253
vt 0.829460 0.004463
vt 0.838844 0.000000
vt 0.870372 0.948525
vt 0.897551 0.991881
vt 0.870372 0.991881
vt 0.861766 0.510451
vt 0.852577 0.028253
vt 0.861961 0.004463
vt 0.861961 0.027927
vt 0.897551 0.948525
vt 0.912770 0.419218
vt 0.829459 0.385618
vt 0.912770 0.385618
vt 0.912770 0.082131
vt 0.829459 0.048531
vt 0.912770 0.048530
vt 0.912770 0.125486
vt 0.829459 0.082131
vt 0.912770 0.168841
vt 0.829459 0.125486
vt 0.912770 0.212197
vt 0.829459 0.168841
vt 0.912770 0.255552
vt 0.829459 0.212197
vt 0.912770 0.298907
vt 0.829459 0.255552
vt 0.912770 0.342263
vt 0.829459 0.298907
vt 0.829459 0.342263
vt 0.533147 0.441614
vt 0.619655 0.475215
vt 0.533147 0.475215
vt 0.533147 0.605281
vt 0.619655 0.648636
vt 0.948273 0.597161
vt 0.185850 0.875109
vt 0.102540 0.964835
vt 0.102540 0.875109
vt 0.533147 0.561925
vt 0.619655 0.605281
vt 0.948273 0.510451
vt 0.948273 0.553806
vt 0.005495 0.875109
vt 0.088806 0.963514
vt 0.005495 0.963514
vt 0.533147 0.518570
vt 0.619655 0.561925
vt 0.948273 0.804183
vt 0.861766 0.804183
vt 0.619655 0.518570
vt 0.500841 0.913289
vt 0.508136 0.869934
vt 0.508136 0.913289
vt 0.508136 0.956645
vt 0.500841 0.956645
vt 0.508136 1.000000
vt 0.500841 1.000000
vt 0.521870 0.956645
vt 0.529165 0.990245
vt 0.521870 1.000000
vt 0.521870 0.913289
vt 0.529165 0.956645
vt 0.529165 0.869934
vt 0.529165 0.913289
vt 0.500841 0.869934
vt 0.508136 0.836334
vt 0.521870 0.869934
vt 0.529165 0.826579
vt 0.228065 0.893556
vt 0.237254 0.878663
vt 0.237669 0.892328
vt 0.924385 0.905170
vt 0.911285 0.861815
vt 0.510575 0.812302
vt 0.500841 0.778702
vt 0.911285 0.905170
vt 0.500841 0.735347
vt 0.199584 0.881436
vt 0.205218 0.875109
vt 0.938119 0.948525
vt 0.951219 0.991881
vt 0.938119 0.991881
vt 0.500841 0.691991
vt 0.800979 0.882966
vt 0.815726 0.873317
vt 0.951219 0.948525
vt 0.500841 0.648636
vt 0.829459 0.433495
vt 0.487108 0.867999
vt 0.764456 0.427338
vt 0.375361 0.861720
vt 0.375361 0.427338
vt 0.619655 0.839322
vt 0.565227 0.839322
vt 0.681105 0.846089
vt 0.667371 0.947976
vt 0.633388 0.889444
vt 0.926504 0.048530
vt 0.713186 0.831812
vt 0.657987 0.441614
vt 0.948273 0.433495
vt 0.199584 0.915947
vt 0.633388 0.441614
vt 0.254011 0.892328
vt 0.911285 0.991881
vt 0.951219 0.818459
vt 0.829460 0.597161
vt 0.897551 0.818459
vt 0.829460 0.991881
vt 0.829460 0.027927
vt 0.852577 0.000000
vt 0.829459 0.419218
vt 0.619655 0.441614
vt 0.185850 0.964835
vt 0.088806 0.875109
vt 0.500841 0.826579
vt 0.521870 0.826579
vt 0.228065 0.875109
vt 0.500841 0.812302
vt 0.810092 0.866990
s 1
usemtl Material.014
f 19/1/1 152/2/2 18/3/1
f 4/4/3 5/5/3 1/6/3
f 3/7/1 33/8/1 17/9/1
f 2/10/4 7/11/4 3/12/4
f 1/13/5 25/14/5 9/15/5
f 37/16/6 123/17/6 38/18/6
f 29/19/7 116/20/7 30/21/7
f 36/22/6 122/23/6 37/16/6
f 8/24/8 110/25/8 5/26/8
f 29/19/7 114/27/7 115/28/7
f 36/22/6 120/29/6 121/30/6
f 6/31/9 109/32/9 7/33/9
f 28/34/7 113/35/7 114/27/7
f 35/36/6 119/37/6 120/29/6
f 16/38/5 6/39/5 2/40/5
f 13/41/5 46/42/5 14/43/5
f 14/43/5 31/44/5 15/45/5
f 11/46/5 59/47/5 43/48/5
f 13/41/5 28/49/5 29/50/5
f 39/51/1 72/52/1 71/53/1
f 10/54/5 27/55/5 11/46/5
f 28/49/5 44/56/5 60/57/5
f 24/58/1 8/59/1 4/60/1
f 26/61/5 57/62/5 25/14/5
f 23/63/1 38/64/1 39/51/1
f 12/65/5 43/48/5 44/56/5
f 20/66/1 37/67/1 21/68/1
f 29/50/5 45/69/5 13/41/5
f 18/70/1 35/71/1 19/72/1
f 37/67/1 70/73/1 69/74/1
f 4/75/10 130/76/10 128/77/10
f 23/78/10 143/79/10 22/80/10
f 139/81/5 164/82/11 140/83/5
f 2/84/10 129/85/10 126/86/10
f 22/80/10 142/87/10 21/88/10
f 18/3/1 151/89/2 17/90/1
f 21/88/10 141/91/10 20/92/10
f 13/93/10 134/94/10 12/95/10
f 63/96/12 96/97/12 95/98/12
f 56/99/13 104/100/13 72/101/13
f 61/102/12 94/103/12 93/104/12
f 57/105/14 73/106/14 41/107/14
f 59/108/12 92/109/12 91/110/12
f 58/111/15 74/112/15 90/113/15
f 57/105/12 90/113/12 89/114/12
f 43/115/14 91/110/14 75/116/14
f 27/55/5 60/57/5 59/47/5
f 10/54/5 58/117/5 26/61/5
f 9/15/5 57/62/5 41/118/5
f 16/38/5 47/119/5 48/120/5
f 29/50/5 62/121/5 61/122/5
f 24/58/1 72/52/1 40/123/1
f 39/51/1 55/124/1 23/63/1
f 17/9/1 50/125/1 18/70/1
f 32/126/5 63/127/5 31/44/5
f 38/64/1 54/128/1 70/73/1
f 21/68/1 69/74/1 53/129/1
f 19/72/1 52/130/1 20/66/1
f 34/131/1 65/132/1 33/8/1
f 20/66/1 68/133/1 36/134/1
f 35/71/1 51/135/1 19/72/1
f 21/68/1 54/128/1 22/136/1
f 32/126/5 48/120/5 64/137/5
f 36/134/1 67/138/1 35/71/1
f 34/131/1 50/125/1 66/139/1
f 31/44/5 47/119/5 15/45/5
f 9/15/5 42/140/5 10/54/5
f 17/9/1 65/132/1 49/141/1
f 23/63/1 56/142/1 24/58/1
f 14/43/5 62/121/5 30/143/5
f 79/144/5 96/97/5 80/145/5
f 77/146/5 94/103/5 78/147/5
f 76/148/5 91/110/5 92/109/5
f 74/112/5 89/114/5 90/113/5
f 87/149/1 104/100/1 88/150/1
f 85/151/1 102/152/1 86/153/1
f 83/154/1 100/155/1 84/156/1
f 81/157/1 98/158/1 82/159/1
f 71/160/16 87/149/16 55/161/16
f 66/162/17 97/163/17 65/164/17
f 70/165/13 86/153/13 102/152/13
f 67/166/17 100/155/17 99/167/17
f 42/168/18 73/106/18 74/112/18
f 69/169/16 85/151/16 53/170/16
f 70/165/17 101/171/17 69/169/17
f 43/115/18 76/148/18 44/172/18
f 68/173/13 84/156/13 100/155/13
f 71/160/17 104/100/17 103/174/17
f 45/175/18 78/147/18 46/176/18
f 51/177/16 99/167/16 83/154/16
f 48/178/15 96/97/15 64/179/15
f 47/180/18 80/145/18 48/178/18
f 50/181/13 98/158/13 66/162/13
f 47/180/14 95/98/14 79/144/14
f 49/182/19 82/159/19 50/181/19
f 49/182/16 97/163/16 81/157/16
f 46/176/15 94/103/15 62/183/15
f 52/184/19 83/154/19 84/156/19
f 45/175/14 93/104/14 77/146/14
f 54/185/19 85/151/19 86/153/19
f 60/186/15 76/148/15 92/109/15
f 55/161/19 88/150/19 56/99/19
f 111/187/20 108/188/20 107/189/20
f 106/190/20 118/191/20 109/192/20
f 105/193/20 119/194/20 118/191/20
f 117/195/20 120/196/20 119/194/20
f 116/197/20 121/198/20 120/196/20
f 115/199/20 122/200/20 121/198/20
f 114/201/20 123/202/20 122/200/20
f 113/203/20 124/204/20 123/202/20
f 112/205/20 107/189/20 124/204/20
f 30/21/7 117/206/7 31/207/7
f 38/18/6 124/208/6 39/209/6
f 31/207/7 105/210/7 32/211/7
f 25/212/7 110/213/7 111/214/7
f 39/209/6 107/215/6 40/216/6
f 33/217/6 109/218/6 118/219/6
f 26/220/7 111/214/7 112/221/7
f 32/211/7 106/222/7 6/223/7
f 34/224/6 118/219/6 119/37/6
f 27/225/7 112/221/7 113/35/7
f 40/216/6 108/226/6 8/227/6
f 135/228/1 174/229/1 134/230/1
f 141/231/5 180/232/5 140/83/5
f 126/233/1 165/234/1 125/235/1
f 134/230/1 173/236/1 133/237/1
f 140/83/5 179/238/5 139/81/5
f 133/237/1 172/239/1 132/240/1
f 139/81/5 178/241/5 138/242/5
f 132/240/1 171/243/1 131/244/1
f 138/242/5 169/245/5 129/246/5
f 9/247/10 130/248/10 1/249/10
f 24/250/10 144/251/10 23/78/10
f 20/252/3 158/253/3 154/254/3
f 10/255/10 131/256/10 9/247/10
f 138/242/5 163/257/11 139/81/5
f 11/258/10 132/259/10 10/255/10
f 17/90/1 150/260/2 3/261/1
f 129/246/5 162/262/11 138/242/5
f 12/95/10 133/263/10 11/258/10
f 16/264/5 149/265/21 15/266/5
f 24/250/10 128/267/10 127/268/10
f 161/269/22 200/270/23 160/271/22
f 148/272/21 187/273/24 147/274/21
f 146/275/25 195/276/26 186/277/27
f 157/278/22 201/279/23 161/269/22
f 146/280/21 185/281/24 145/282/21
f 154/283/2 193/284/28 153/285/2
f 159/286/22 197/287/23 157/278/22
f 153/285/2 192/288/28 152/289/2
f 125/235/1 155/290/22 126/233/1
f 140/83/5 158/291/29 141/231/5
f 2/292/5 145/293/21 16/264/5
f 20/294/1 153/295/2 19/1/1
f 13/296/3 159/297/3 135/298/3
f 135/228/1 157/278/22 136/299/1
f 2/300/30 155/301/31 146/302/25
f 14/303/5 147/304/21 13/305/5
f 137/306/1 157/278/22 161/269/22
f 3/307/32 156/308/33 129/309/32
f 15/266/5 148/310/21 14/303/5
f 125/235/1 161/269/22 160/271/22
f 166/311/10 178/312/10 165/313/10
f 171/314/10 168/315/10 170/316/10
f 172/317/10 167/318/10 171/314/10
f 173/319/10 184/320/10 172/317/10
f 174/321/10 183/322/10 173/319/10
f 175/323/10 182/324/10 174/321/10
f 176/325/10 181/326/10 175/323/10
f 177/327/10 180/328/10 176/325/10
f 165/313/10 179/329/10 177/327/10
f 128/330/5 167/331/5 127/332/5
f 142/333/5 181/334/5 141/231/5
f 136/299/1 175/335/1 135/228/1
f 129/336/3 166/337/3 126/338/3
f 143/339/5 182/340/5 142/333/5
f 136/299/1 177/341/1 176/342/1
f 128/343/4 170/344/4 168/345/4
f 144/346/5 183/347/5 143/339/5
f 125/235/1 177/341/1 137/306/1
f 131/244/1 170/348/1 130/349/1
f 127/332/5 184/350/5 144/346/5
f 189/351/34 200/352/34 201/353/34
f 189/351/34 197/354/34 188/355/34
f 188/355/34 199/356/34 187/357/34
f 191/358/35 196/359/35 190/360/35
f 192/361/35 202/362/35 191/358/35
f 192/361/35 204/363/35 203/364/35
f 185/365/34 195/366/34 200/352/34
f 193/367/35 198/368/35 204/363/35
f 150/369/36 196/370/37 156/371/33
f 149/372/21 188/373/38 148/272/21
f 156/374/11 202/375/39 162/262/11
f 145/282/21 189/376/24 149/372/21
f 162/262/11 203/377/39 163/257/11
f 154/254/3 198/378/3 194/379/3
f 151/380/2 190/381/28 150/382/2
f 163/257/11 204/383/39 164/82/11
f 147/384/3 199/385/3 159/297/3
f 152/289/2 191/386/28 151/380/2
f 164/82/11 198/387/39 158/291/29
f 160/271/22 195/388/23 155/290/22
f 19/1/1 153/295/2 152/2/2
f 4/4/3 8/389/3 5/5/3
f 3/7/1 7/390/1 33/8/1
f 2/10/4 6/391/4 7/11/4
f 1/13/5 5/392/5 25/14/5
f 37/16/6 122/23/6 123/17/6
f 29/19/7 115/28/7 116/20/7
f 36/22/6 121/30/6 122/23/6
f 8/24/8 108/393/8 110/25/8
f 29/19/7 28/34/7 114/27/7
f 36/22/6 35/36/6 120/29/6
f 6/31/9 106/394/9 109/32/9
f 28/34/7 27/225/7 113/35/7
f 35/36/6 34/224/6 119/37/6
f 16/38/5 32/126/5 6/39/5
f 13/41/5 45/69/5 46/42/5
f 14/43/5 30/143/5 31/44/5
f 11/46/5 27/55/5 59/47/5
f 13/41/5 12/65/5 28/49/5
f 39/51/1 40/123/1 72/52/1
f 10/54/5 26/61/5 27/55/5
f 28/49/5 12/65/5 44/56/5
f 24/58/1 40/123/1 8/59/1
f 26/61/5 58/117/5 57/62/5
f 23/63/1 22/136/1 38/64/1
f 12/65/5 11/46/5 43/48/5
f 20/66/1 36/134/1 37/67/1
f 29/50/5 61/122/5 45/69/5
f 18/70/1 34/131/1 35/71/1
f 37/67/1 38/64/1 70/73/1
f 4/75/10 1/395/10 130/76/10
f 23/78/10 144/251/10 143/79/10
f 139/81/5 163/257/11 164/82/11
f 2/84/10 3/396/10 129/85/10
f 22/80/10 143/79/10 142/87/10
f 18/3/1 152/2/2 151/89/2
f 21/88/10 142/87/10 141/91/10
f 13/93/10 135/397/10 134/94/10
f 63/96/12 64/179/12 96/97/12
f 56/99/13 88/150/13 104/100/13
f 61/102/12 62/183/12 94/103/12
f 57/105/14 89/114/14 73/106/14
f 59/108/12 60/186/12 92/109/12
f 58/111/15 42/168/15 74/112/15
f 57/105/12 58/111/12 90/113/12
f 43/115/14 59/108/14 91/110/14
f 27/55/5 28/49/5 60/57/5
f 10/54/5 42/140/5 58/117/5
f 9/15/5 25/14/5 57/62/5
f 16/38/5 15/45/5 47/119/5
f 29/50/5 30/143/5 62/121/5
f 24/58/1 56/142/1 72/52/1
f 39/51/1 71/53/1 55/124/1
f 17/9/1 49/141/1 50/125/1
f 32/126/5 64/137/5 63/127/5
f 38/64/1 22/136/1 54/128/1
f 21/68/1 37/67/1 69/74/1
f 19/72/1 51/135/1 52/130/1
f 34/131/1 66/139/1 65/132/1
f 20/66/1 52/130/1 68/133/1
f 35/71/1 67/138/1 51/135/1
f 21/68/1 53/129/1 54/128/1
f 32/126/5 16/38/5 48/120/5
f 36/134/1 68/133/1 67/138/1
f 34/131/1 18/70/1 50/125/1
f 31/44/5 63/127/5 47/119/5
f 9/15/5 41/118/5 42/140/5
f 17/9/1 33/8/1 65/132/1
f 23/63/1 55/124/1 56/142/1
f 14/43/5 46/42/5 62/121/5
f 79/144/5 95/98/5 96/97/5
f 77/146/5 93/104/5 94/103/5
f 76/148/5 75/116/5 91/110/5
f 74/112/5 73/106/5 89/114/5
f 87/149/1 103/174/1 104/100/1
f 85/151/1 101/171/1 102/152/1
f 83/154/1 99/167/1 100/155/1
f 81/157/1 97/163/1 98/158/1
f 71/160/16 103/174/16 87/149/16
f 66/162/17 98/158/17 97/163/17
f 70/165/13 54/185/13 86/153/13
f 67/166/17 68/173/17 100/155/17
f 42/168/18 41/107/18 73/106/18
f 69/169/16 101/171/16 85/151/16
f 70/165/17 102/152/17 101/171/17
f 43/115/18 75/116/18 76/148/18
f 68/173/13 52/184/13 84/156/13
f 71/160/17 72/101/17 104/100/17
f 45/175/18 77/146/18 78/147/18
f 51/177/16 67/166/16 99/167/16
f 48/178/15 80/145/15 96/97/15
f 47/180/18 79/144/18 80/145/18
f 50/181/13 82/159/13 98/158/13
f 47/180/14 63/96/14 95/98/14
f 49/182/19 81/157/19 82/159/19
f 49/182/16 65/164/16 97/163/16
f 46/176/15 78/147/15 94/103/15
f 52/184/19 51/177/19 83/154/19
f 45/175/14 61/102/14 93/104/14
f 54/185/19 53/170/19 85/151/19
f 60/186/15 44/172/15 76/148/15
f 55/161/19 87/149/19 88/150/19
f 111/187/20 110/398/20 108/188/20
f 106/190/20 105/193/20 118/191/20
f 105/193/20 117/195/20 119/194/20
f 117/195/20 116/197/20 120/196/20
f 116/197/20 115/199/20 121/198/20
f 115/199/20 114/201/20 122/200/20
f 114/201/20 113/203/20 123/202/20
f 113/203/20 112/205/20 124/204/20
f 112/205/20 111/187/20 107/189/20
f 30/21/7 116/20/7 117/206/7
f 38/18/6 123/17/6 124/208/6
f 31/207/7 117/206/7 105/210/7
f 25/212/7 5/399/7 110/213/7
f 39/209/6 124/208/6 107/215/6
f 33/217/6 7/400/6 109/218/6
f 26/220/7 25/212/7 111/214/7
f 32/211/7 105/210/7 106/222/7
f 34/224/6 33/217/6 118/219/6
f 27/225/7 26/220/7 112/221/7
f 40/216/6 107/215/6 108/226/6
f 135/228/1 175/335/1 174/229/1
f 141/231/5 181/334/5 180/232/5
f 126/233/1 166/401/1 165/234/1
f 134/230/1 174/229/1 173/236/1
f 140/83/5 180/232/5 179/238/5
f 133/237/1 173/236/1 172/239/1
f 139/81/5 179/238/5 178/241/5
f 132/240/1 172/239/1 171/243/1
f 138/242/5 178/241/5 169/245/5
f 9/247/10 131/256/10 130/248/10
f 24/250/10 127/268/10 144/251/10
f 20/252/3 141/402/3 158/253/3
f 10/255/10 132/259/10 131/256/10
f 138/242/5 162/262/11 163/257/11
f 11/258/10 133/263/10 132/259/10
f 17/90/1 151/89/2 150/260/2
f 129/246/5 156/374/11 162/262/11
f 12/95/10 134/94/10 133/263/10
f 16/264/5 145/293/21 149/265/21
f 24/250/10 4/403/10 128/267/10
f 161/269/22 201/279/23 200/270/23
f 148/272/21 188/373/38 187/273/24
f 146/275/25 155/404/31 195/276/26
f 157/278/22 197/287/23 201/279/23
f 146/280/21 186/405/24 185/281/24
f 154/283/2 194/406/28 193/284/28
f 159/286/22 199/407/23 197/287/23
f 153/285/2 193/284/28 192/288/28
f 125/235/1 160/271/22 155/290/22
f 140/83/5 164/82/11 158/291/29
f 2/292/5 146/408/21 145/293/21
f 20/294/1 154/409/2 153/295/2
f 13/296/3 147/384/3 159/297/3
f 135/228/1 159/286/22 157/278/22
f 2/300/30 126/410/30 155/301/31
f 14/303/5 148/310/21 147/304/21
f 137/306/1 136/299/1 157/278/22
f 3/307/32 150/411/36 156/308/33
f 15/266/5 149/265/21 148/310/21
f 125/235/1 137/306/1 161/269/22
f 166/311/10 169/412/10 178/312/10
f 171/314/10 167/318/10 168/315/10
f 172/317/10 184/320/10 167/318/10
f 173/319/10 183/322/10 184/320/10
f 174/321/10 182/324/10 183/322/10
f 175/323/10 181/326/10 182/324/10
f 176/325/10 180/328/10 181/326/10
f 177/327/10 179/329/10 180/328/10
f 165/313/10 178/312/10 179/329/10
f 128/330/5 168/413/5 167/331/5
f 142/333/5 182/340/5 181/334/5
f 136/299/1 176/342/1 175/335/1
f 129/336/3 169/414/3 166/337/3
f 143/339/5 183/347/5 182/340/5
f 136/299/1 137/306/1 177/341/1
f 128/343/4 130/415/4 170/344/4
f 144/346/5 184/350/5 183/347/5
f 125/235/1 165/234/1 177/341/1
f 131/244/1 171/243/1 170/348/1
f 127/332/5 167/331/5 184/350/5
f 189/351/34 185/365/34 200/352/34
f 189/351/34 201/353/34 197/354/34
f 188/355/34 197/354/34 199/356/34
f 191/358/35 202/362/35 196/359/35
f 192/361/35 203/364/35 202/362/35
f 192/361/35 193/367/35 204/363/35
f 185/365/34 186/416/34 195/366/34
f 193/367/35 194/417/35 198/368/35
f 150/369/36 190/418/40 196/370/37
f 149/372/21 189/376/24 188/373/38
f 156/374/11 196/419/39 202/375/39
f 145/282/21 185/281/24 189/376/24
f 162/262/11 202/375/39 203/377/39
f 154/254/3 158/253/3 198/378/3
f 151/380/2 191/386/28 190/381/28
f 163/257/11 203/377/39 204/383/39
f 147/384/3 187/420/3 199/385/3
f 152/289/2 192/288/28 191/386/28
f 164/82/11 204/383/39 198/387/39
f 160/271/22 200/270/23 195/388/23
