# Blender 4.4.1
# www.blender.org
mtllib Stalagmites_Medium_1.mtl
g Stalagmites_Medium_1_LOD_0_Mesh
v -0.098143 -0.000000 -0.051837
v 0.003930 4.467438 -0.000190
v 0.000835 -0.000000 -0.566453
v 0.003948 4.459065 -0.019450
v 0.305135 -0.000000 -0.514770
v 0.012384 4.449631 -0.009816
v 0.433622 -0.000000 -0.410276
v 0.016431 4.449631 -0.005829
v 0.549210 -0.000000 -0.237287
v 0.018801 4.449631 -0.002281
v 0.589799 0.000000 0.000963
v 0.019634 4.449631 0.001904
v 0.549210 0.000000 0.230229
v 0.018801 4.449631 0.006088
v 0.469101 0.000000 0.438194
v 0.018036 4.449631 0.011086
v 0.260632 0.000000 0.518806
v 0.010410 4.454296 0.016853
v 0.000835 0.000000 0.559396
v 0.001733 4.459065 0.012838
v -0.203220 0.000000 0.518806
v -0.010882 4.473320 0.031137
v -0.376210 0.000000 0.403219
v -0.024143 4.480031 0.019469
v -0.491798 0.000000 0.230229
v -0.025612 4.483166 0.009048
v -0.532387 0.000000 0.000963
v -0.026819 4.483166 0.002981
v -0.491798 -0.000000 -0.203093
v -0.025612 4.483166 -0.003086
v -0.376210 -0.000000 -0.376082
v -0.022175 4.483166 -0.008230
v -0.203220 -0.000000 -0.525865
v -0.017032 4.483166 -0.011666
v -0.000963 0.663534 -0.490647
v -0.003285 1.133223 -0.372271
v -0.000962 1.740942 -0.345332
v 0.000393 2.558673 -0.303217
v 0.002172 3.171463 -0.293055
v 0.003234 3.881256 -0.215273
v 0.043662 3.882818 -0.206036
v 0.082302 3.170985 -0.273520
v 0.167613 2.556173 -0.277391
v 0.196107 1.742780 -0.286022
v 0.228272 1.132950 -0.344272
v 0.247893 0.666543 -0.417645
v 0.103957 3.882285 -0.160919
v 0.145764 3.170370 -0.216427
v 0.255558 2.560362 -0.251303
v 0.287214 1.742530 -0.283984
v 0.306998 1.134251 -0.329544
v 0.343233 0.669183 -0.328835
v 0.134125 3.885543 -0.069541
v 0.190899 3.173921 -0.125937
v 0.286500 2.558493 -0.151370
v 0.359079 1.742208 -0.166905
v 0.417757 1.133527 -0.163033
v 0.427105 0.664834 -0.207945
v 0.151823 3.883214 0.001897
v 0.204879 3.171654 0.002137
v 0.314879 2.558003 -0.012274
v 0.386334 1.741529 -0.012390
v 0.440850 1.133114 0.001894
v 0.470921 0.666393 0.000197
v 0.137396 3.882644 0.075179
v 0.196168 3.172118 0.090224
v 0.290441 2.557876 0.070829
v 0.370043 1.742447 0.086108
v 0.408831 1.132907 0.139993
v 0.448561 0.667796 0.151469
v 0.108308 3.885626 0.122081
v 0.152733 3.172578 0.129303
v 0.231127 2.587163 0.210871
v 0.295868 1.771585 0.250647
v 0.323563 1.161901 0.279382
v 0.355804 0.659601 0.337670
v 0.052197 3.912221 0.130048
v 0.073545 3.202641 0.189441
v 0.106324 2.589550 0.273108
v 0.178013 1.773319 0.315039
v 0.202699 1.165670 0.339176
v 0.214553 0.664966 0.405302
v 0.001167 3.913305 0.188645
v 0.003533 3.202615 0.207125
v -0.006879 2.585445 0.299679
v -0.007545 1.772586 0.342979
v -0.004377 1.161976 0.409835
v 0.000444 0.670700 0.406738
v -0.058543 3.960633 0.173954
v -0.079316 3.201257 0.231146
v -0.106710 2.590796 0.312066
v -0.144981 1.770536 0.350935
v -0.149561 1.163896 0.418134
v -0.148521 0.664815 0.450956
v -0.097994 3.971276 0.140095
v -0.144114 3.213830 0.183793
v -0.203031 2.591048 0.243810
v -0.215951 1.871014 0.274931
v -0.279198 1.162849 0.325571
v -0.298105 0.672044 0.348589
v -0.141502 3.960604 0.072890
v -0.194946 3.201690 0.096298
v -0.263603 2.588295 0.156947
v -0.299667 1.868147 0.158579
v -0.363214 1.174123 0.186720
v -0.396978 0.605393 0.200930
v -0.148910 3.961090 0.001966
v -0.212612 3.202744 0.001391
v -0.287160 2.588176 0.001463
v -0.329333 1.875347 0.000130
v -0.388501 1.082422 -0.001529
v -0.413721 0.749001 0.000031
v -0.140654 3.961460 -0.069509
v -0.194908 3.202773 -0.094069
v -0.269056 2.590326 -0.128334
v -0.294271 1.869318 -0.135972
v -0.344133 1.170502 -0.151594
v -0.394151 0.658721 -0.175633
v -0.101465 3.960399 -0.130141
v -0.151545 3.203096 -0.173791
v -0.209156 2.589484 -0.238327
v -0.226100 1.869076 -0.251401
v -0.264398 1.164541 -0.278282
v -0.284755 0.664921 -0.326766
v -0.056856 3.960999 -0.201526
v -0.073699 3.200486 -0.241915
v -0.106698 2.588475 -0.344976
v -0.129034 1.773904 -0.356084
v -0.141955 1.162976 -0.321769
v -0.174890 0.669597 -0.416806
v 0.004544 4.209926 -0.129235
v 0.019041 4.209926 -0.127410
v 0.097747 4.209926 -0.090629
v 0.123424 4.209926 -0.048543
v 0.133473 4.209926 0.001859
v 0.125455 4.209926 0.054354
v 0.071861 4.209926 0.071005
v 0.054119 4.209926 0.125690
v 0.001691 4.240691 0.133641
v -0.048697 4.287970 0.123675
v -0.091455 4.286892 0.094548
v -0.120017 4.287970 0.052356
v -0.130048 4.274978 0.001902
v -0.120017 4.287926 -0.048529
v -0.091450 4.287926 -0.091281
v -0.048768 4.287926 -0.119888
v 0.274646 0.343249 -0.455269
v 0.380329 0.343249 -0.335853
v 0.486192 0.343249 -0.211776
v 0.521922 0.343249 0.000051
v 0.482908 0.343249 0.154785
v 0.418625 0.343249 0.344031
v 0.228732 0.343249 0.408788
v 0.000077 0.343249 0.450493
v -0.179810 0.343337 0.457415
v -0.329655 0.338872 0.354800
v -0.461604 0.398392 0.214070
v -0.497535 0.332621 0.000393
v -0.461547 0.343592 -0.192225
v -0.329612 0.343249 -0.331019
v -0.179717 0.343249 -0.433890
v -0.004011 0.343249 -0.502744
v 0.001537 2.860684 -0.309086
v 0.133420 2.862198 -0.287262
v 0.194610 2.862127 -0.229895
v 0.247081 2.864170 -0.130125
v 0.263056 2.864115 0.001680
v 0.243215 2.863580 0.093447
v 0.150338 2.893795 0.159976
v 0.073563 2.893717 0.219884
v -0.011076 2.896840 0.238791
v -0.070117 2.887488 0.286930
v -0.159017 2.892905 0.223482
v -0.212875 2.893143 0.131665
v -0.231501 2.893540 0.001389
v -0.208416 2.892678 -0.105567
v -0.163348 2.893465 -0.196334
v -0.084863 2.893226 -0.287765
v 0.006212 4.421298 -0.089268
v 0.039189 4.375351 -0.088167
v 0.064430 4.375351 -0.060261
v 0.073260 4.375351 -0.032133
v 0.080019 4.375351 0.001906
v 0.084089 4.375351 0.035709
v 0.062763 4.375351 0.068256
v 0.035977 4.375351 0.083821
v 0.001515 4.404487 0.080504
v -0.032288 4.406116 0.084037
v -0.061129 4.439086 0.064777
v -0.080400 4.439064 0.035924
v -0.087167 4.426116 0.001904
v -0.080400 4.439064 -0.032117
v -0.061129 4.439064 -0.060959
v -0.032287 4.453351 -0.080245
vn -0.0000 -1.0000 -0.0000
vn -0.0097 -0.5988 -0.8008
vn 0.3371 -0.5807 -0.7410
vn 0.6849 0.7286 0.0115
vn 0.6821 0.6032 -0.4133
vn 0.7484 0.5987 -0.2854
vn 0.4523 0.4922 -0.7437
vn 0.5461 0.3769 -0.7482
vn 0.6053 0.6368 -0.4776
vn 0.7503 0.4847 -0.4496
vn 0.7164 0.6366 -0.2854
vn 0.8520 0.4746 -0.2209
vn 0.7640 0.6452 0.0034
vn 0.8700 0.4737 -0.1366
vn 0.7444 0.6572 0.1184
vn 0.8597 0.4414 0.2572
vn 0.6929 0.6680 0.2715
vn 0.6319 0.3816 0.6746
vn 0.2094 -0.5626 0.7997
vn 0.3795 0.7190 0.5823
vn 0.4042 0.4029 0.8211
vn -0.0129 -0.5493 0.8355
vn 0.5758 0.5815 0.5747
vn 0.2664 0.5833 0.7674
vn 0.4278 0.6870 0.5874
vn 0.0226 0.4706 0.8821
vn -0.5700 -0.5912 0.5705
vn -0.0298 0.9265 0.3751
vn -0.3691 0.6011 0.7089
vn -0.7232 -0.6158 0.3125
vn -0.0316 0.9892 0.1435
vn -0.7905 0.5672 0.2311
vn -0.1620 0.9868 -0.0018
vn -0.8911 0.4538 0.0003
vn -0.1143 0.9922 -0.0504
vn -0.7886 0.5691 -0.2330
vn -0.0609 0.9979 -0.0198
vn -0.6654 0.5183 -0.5372
vn -0.3625 -0.5717 -0.7360
vn 0.2850 0.9559 -0.0709
vn -0.1456 0.6987 -0.7004
vn -0.5003 0.1364 -0.8550
vn -0.0787 0.1460 -0.9862
vn -0.4642 0.1583 -0.8715
vn -0.1069 0.1446 -0.9837
vn -0.0640 0.1237 -0.9903
vn -0.3279 0.0711 -0.9420
vn 0.1596 0.0336 -0.9866
vn 0.0975 0.0026 -0.9952
vn 0.2410 0.0276 -0.9701
vn -0.4999 0.1062 -0.8596
vn -0.1351 0.0968 -0.9861
vn -0.0342 0.0163 -0.9993
vn -0.4380 0.1754 -0.8817
vn -0.6035 0.0822 -0.7931
vn -0.6751 0.1476 -0.7228
vn -0.7124 0.1219 -0.6911
vn -0.6353 0.0653 -0.7695
vn -0.6873 0.0467 -0.7248
vn -0.7999 0.1154 -0.5890
vn -0.7920 0.0461 -0.6088
vn -0.8165 0.1422 -0.5595
vn -0.7817 0.0717 -0.6195
vn -0.9035 0.1429 -0.4041
vn -0.8834 0.1512 -0.4435
vn -0.9171 0.0864 -0.3892
vn -0.9223 0.0543 -0.3826
vn -0.9405 0.0701 -0.3323
vn -0.9353 0.1330 -0.3280
vn -0.9367 0.0816 -0.3405
vn -0.9881 0.1527 -0.0171
vn -0.9945 0.0838 -0.0633
vn -0.9937 0.1121 -0.0088
vn -0.9973 0.0654 -0.0346
vn -0.9410 0.1199 -0.3164
vn -0.9914 0.1280 -0.0270
vn -0.9976 0.0690 0.0005
vn -0.9126 0.1495 0.3805
vn -0.8819 0.2071 0.4235
vn -0.9430 0.0788 0.3232
vn -0.9218 0.1151 0.3701
vn -0.9179 0.0772 0.3892
vn -0.9385 0.0802 0.3359
vn -0.9326 0.1340 0.3352
vn -0.9402 0.0806 0.3310
vn -0.6597 0.1374 0.7389
vn -0.7167 0.0690 0.6940
vn -0.7303 0.0794 0.6785
vn -0.7120 0.1025 0.6947
vn -0.7436 0.0772 0.6641
vn -0.7245 0.1358 0.6757
vn -0.7408 0.0960 0.6648
vn -0.2669 0.1379 0.9538
vn -0.2648 0.0716 0.9616
vn -0.1398 0.0479 0.9890
vn -0.3278 0.0957 0.9399
vn -0.2333 0.1087 0.9663
vn -0.1603 0.1047 0.9815
vn 0.0616 0.1187 0.9910
vn -0.3932 0.1160 0.9121
vn 0.1539 0.0623 0.9861
vn 0.0881 0.1969 0.9765
vn 0.1154 0.0689 0.9909
vn 0.1903 0.0511 0.9804
vn 0.3941 0.1219 0.9109
vn 0.2532 0.0674 0.9651
vn 0.2386 0.1970 0.9509
vn 0.3594 0.0795 0.9298
vn 0.2235 0.0768 0.9717
vn 0.3402 0.1463 0.9289
vn 0.3199 0.0622 0.9454
vn 0.4221 0.1459 0.8948
vn 0.4541 0.0732 0.8879
vn 0.2945 0.0640 0.9535
vn 0.6849 0.1091 0.7204
vn 0.7080 0.2338 0.6664
vn 0.6829 0.0900 0.7250
vn 0.7333 0.0833 0.6748
vn 0.7302 0.1978 0.6540
vn 0.6393 0.0832 0.7645
vn 0.6195 0.1259 0.7748
vn 0.4897 0.0314 0.8713
vn 0.9435 0.1855 0.2747
vn 0.9467 0.0954 0.3077
vn 0.9258 0.0825 0.3690
vn 0.9552 0.0913 0.2814
vn 0.8310 0.1026 0.5467
vn 0.9266 0.0653 0.3704
vn 0.8809 0.1162 0.4588
vn 0.9951 0.0970 -0.0201
vn 0.9831 0.1795 0.0357
vn 0.9960 0.0801 0.0400
vn 0.9914 0.1235 0.0422
vn 0.9959 0.0902 -0.0053
vn 0.9855 0.1627 0.0477
vn 0.9972 0.0722 -0.0219
vn 0.9913 0.1312 -0.0042
vn 0.9112 0.1113 -0.3967
vn 0.8988 0.1869 -0.3965
vn 0.9335 0.0714 -0.3514
vn 0.9330 0.0802 -0.3509
vn 0.9495 0.1303 -0.2855
vn 0.9410 0.1641 -0.2960
vn 0.7382 0.1077 -0.6660
vn 0.7386 0.1826 -0.6490
vn 0.5052 0.0685 -0.8603
vn 0.5421 0.0603 -0.8382
vn 0.7151 0.1080 -0.6906
vn 0.7852 0.1253 -0.6064
vn 0.7897 0.1639 -0.5912
vn 0.7971 0.1254 -0.5906
vn 0.4804 0.1249 -0.8681
vn 0.4690 0.1816 -0.8644
vn 0.1915 0.0989 -0.9765
vn 0.2157 0.0127 -0.9764
vn 0.1518 0.0647 -0.9863
vn 0.4207 0.0884 -0.9029
vn 0.4506 0.1012 -0.8870
vn 0.4029 0.1655 -0.9002
vn -0.2435 0.2345 -0.9411
vn 0.0852 0.1553 -0.9842
vn -0.7066 0.2077 -0.6764
vn -0.8405 0.0873 -0.5348
vn -0.9177 0.1861 -0.3511
vn -0.9876 0.1568 -0.0006
vn -0.9974 0.0719 -0.0050
vn -0.7404 0.1015 0.6644
vn -0.9161 0.1881 0.3541
vn -0.2590 0.2458 0.9341
vn 0.6687 0.1913 0.7186
vn 0.5519 0.0507 0.8324
vn 0.7653 0.1894 0.6152
vn 0.9562 0.0833 -0.2807
vn 0.9853 0.1678 -0.0312
vn 0.6879 0.1874 -0.7012
vn 0.2693 0.2133 -0.9391
vn 0.7243 0.2077 -0.6574
vn 0.9113 0.1943 -0.3630
vn 0.9786 0.2053 0.0129
vn 0.9369 0.2302 0.2632
vn 0.6641 0.2870 0.6904
vn -0.3434 0.2318 0.9101
vn -0.9945 0.1042 -0.0102
vn -0.9071 0.1286 -0.4009
vn -0.7363 0.1854 -0.6508
vn 0.9582 0.1291 -0.2552
vn 0.9310 0.1399 0.3371
vn 0.1758 0.1198 0.9771
vn -0.9930 0.1178 0.0064
vn -0.2064 0.1151 -0.9717
vn 0.1495 0.2269 -0.9624
vn -0.6992 0.1897 0.6893
vn 0.1321 0.2192 0.9667
vn 0.6879 0.1841 0.7020
vn 0.9214 0.1695 -0.3496
vt 0.914230 0.889146
vt 0.912702 0.992419
vt 0.851870 0.992844
vt 0.652195 0.799257
vt 0.650086 0.802994
vt 0.648317 0.800616
vt 0.634009 0.806869
vt 0.633922 0.817806
vt 0.823345 0.976979
vt 0.651060 0.803523
vt 0.640539 0.821071
vt 0.794969 0.947378
vt 0.651847 0.803819
vt 0.646133 0.822011
vt 0.778906 0.902535
vt 0.652648 0.803891
vt 0.652648 0.822593
vt 0.778906 0.856646
vt 0.675029 0.794266
vt 0.672791 0.798441
vt 0.672111 0.797947
vt 0.659268 0.811721
vt 0.663585 0.816578
vt 0.787307 0.813534
vt 0.673579 0.799049
vt 0.670499 0.819227
vt 0.824995 0.790727
vt 0.675616 0.798649
vt 0.758032 0.795482
vt 0.758032 0.816200
vt 0.752049 0.814991
vt 0.874020 0.773923
vt 0.739500 0.809223
vt 0.740803 0.812017
vt 0.739500 0.813637
vt 0.814080 0.519627
vt 0.828764 0.502511
vt 0.822796 0.518558
vt 0.915016 0.774790
vt 0.682236 0.794266
vt 0.686996 0.799120
vt 0.682265 0.797348
vt 0.828764 0.521089
vt 0.952560 0.791278
vt 0.744299 0.802604
vt 0.740937 0.796479
vt 0.744299 0.795684
vt 0.818487 0.246179
vt 0.818487 0.227278
vt 0.824868 0.239277
vt 0.980936 0.820879
vt 0.739500 0.798093
vt 0.818487 0.257018
vt 0.830143 0.264940
vt 0.825043 0.269462
vt 0.996690 0.863979
vt 0.804679 0.272990
vt 0.804679 0.266426
vt 0.805826 0.266635
vt 0.819762 0.253921
vt 0.834649 0.260088
vt 0.995824 0.904975
vt 0.695564 0.813969
vt 0.694395 0.807853
vt 0.695564 0.807506
vt 0.834706 0.252799
vt 0.979335 0.942519
vt 0.695564 0.800887
vt 0.694506 0.794776
vt 0.695564 0.794266
vt 0.682236 0.837198
vt 0.683439 0.822547
vt 0.688978 0.836873
vt 0.950909 0.977531
vt 0.693616 0.795609
vt 0.694791 0.833087
vt 0.649617 0.794266
vt 0.634815 0.796939
vt 0.655715 0.650410
vt 0.698002 0.710254
vt 0.662281 0.714351
vt 0.669880 0.554996
vt 0.691843 0.647587
vt 0.641657 0.552459
vt 0.657181 0.436148
vt 0.006825 0.534513
vt 0.025978 0.378955
vt 0.032221 0.540021
vt 0.618463 0.213105
vt 0.628233 0.156548
vt 0.635080 0.217330
vt 0.595322 0.003310
vt 0.609812 0.152470
vt 0.626604 0.717463
vt 0.627916 0.653477
vt 0.617269 0.555047
vt 0.637791 0.433233
vt 0.598050 0.275250
vt 0.608652 0.416352
vt 0.595350 0.214362
vt 0.589509 0.153449
vt 0.593013 0.656297
vt 0.589509 0.719716
vt 0.589710 0.554915
vt 0.178426 0.510545
vt 0.195059 0.367217
vt 0.203141 0.508440
vt 0.162357 0.247569
vt 0.185897 0.306844
vt 0.166762 0.308483
vt 0.152997 0.098004
vt 0.179296 0.246110
vt 0.158103 0.816553
vt 0.192998 0.749520
vt 0.196592 0.812707
vt 0.155826 0.667280
vt 0.157497 0.733096
vt 0.150784 0.510803
vt 0.185693 0.648335
vt 0.171676 0.368981
vt 0.145225 0.309335
vt 0.143241 0.248414
vt 0.120332 0.761632
vt 0.117336 0.803736
vt 0.119405 0.649542
vt 0.116558 0.370469
vt 0.121133 0.512169
vt 0.125449 0.248598
vt 0.120602 0.309518
vt 0.125362 0.098803
vt 0.251067 0.814611
vt 0.284088 0.762032
vt 0.288697 0.803975
vt 0.249180 0.748690
vt 0.283667 0.649856
vt 0.251701 0.651965
vt 0.282461 0.512410
vt 0.259126 0.369924
vt 0.254231 0.511505
vt 0.258123 0.309733
vt 0.283399 0.248561
vt 0.279062 0.309719
vt 0.263520 0.246163
vt 0.282641 0.098660
vt 0.217809 0.811945
vt 0.222304 0.650251
vt 0.215972 0.748315
vt 0.233823 0.530635
vt 0.237368 0.368847
vt 0.248627 0.247883
vt 0.237958 0.309759
vt 0.256988 0.098155
vt 0.823505 0.631016
vt 0.862005 0.694157
vt 0.826882 0.695980
vt 0.852620 0.099781
vt 0.883694 0.003310
vt 0.881564 0.101834
vt 0.745464 0.531580
vt 0.772286 0.652543
vt 0.743952 0.652616
vt 0.765031 0.370531
vt 0.772286 0.532273
vt 0.779621 0.212758
vt 0.794933 0.153337
vt 0.794377 0.215965
vt 0.778906 0.152121
vt 0.798059 0.003310
vt 0.782806 0.697660
vt 0.778906 0.534961
vt 0.781651 0.634416
vt 0.804679 0.122182
vt 0.846000 0.003310
vt 0.846000 0.124366
vt 0.723950 0.369856
vt 0.709569 0.530741
vt 0.731189 0.309247
vt 0.744992 0.248463
vt 0.747447 0.309060
vt 0.731581 0.248070
vt 0.745397 0.108633
vt 0.546260 0.706390
vt 0.575146 0.768147
vt 0.537212 0.769241
vt 0.544281 0.606677
vt 0.576684 0.704758
vt 0.544812 0.486272
vt 0.570533 0.605466
vt 0.549830 0.324915
vt 0.571105 0.485547
vt 0.552544 0.208133
vt 0.575890 0.263236
vt 0.556719 0.263253
vt 0.568013 0.061832
vt 0.572097 0.202173
vt 0.466775 0.801446
vt 0.511110 0.739942
vt 0.505907 0.803185
vt 0.471387 0.737312
vt 0.507129 0.640259
vt 0.476286 0.645506
vt 0.509840 0.520244
vt 0.474669 0.524836
vt 0.514444 0.359040
vt 0.534236 0.269301
vt 0.548091 0.067820
vt 0.541109 0.208179
vt 0.441384 0.735528
vt 0.435383 0.799713
vt 0.448395 0.643854
vt 0.467614 0.362859
vt 0.455056 0.523715
vt 0.476104 0.302211
vt 0.499580 0.242117
vt 0.494568 0.303420
vt 0.492774 0.100930
vt 0.482305 0.240910
vt 0.366698 0.738610
vt 0.407974 0.803341
vt 0.368477 0.802968
vt 0.378435 0.646663
vt 0.406393 0.738894
vt 0.417820 0.640437
vt 0.378485 0.526228
vt 0.409098 0.365285
vt 0.407407 0.526663
vt 0.458408 0.237968
vt 0.451555 0.299591
vt 0.337870 0.735935
vt 0.336868 0.800592
vt 0.351458 0.524635
vt 0.339148 0.644128
vt 0.362659 0.363920
vt 0.364195 0.241829
vt 0.385642 0.304026
vt 0.363462 0.303344
vt 0.377113 0.101498
vt 0.384086 0.242054
vt 0.313265 0.734253
vt 0.306067 0.798209
vt 0.328780 0.642420
vt 0.082478 0.657795
vt 0.090194 0.536790
vt 0.098219 0.656785
vt 0.059232 0.377958
vt 0.072605 0.537296
vt 0.347626 0.301921
vt 0.348185 0.240241
vt 0.039076 0.817135
vt 0.087832 0.750593
vt 0.094639 0.814563
vt 0.036925 0.754129
vt 0.036796 0.659637
vt 0.022875 0.319920
vt 0.036762 0.257935
vt 0.049128 0.318419
vt 0.020526 0.258706
vt 0.025005 0.117298
vt 0.006840 0.036644
vt 0.016859 0.118027
vt 0.005098 0.102454
vt 0.814080 0.281404
vt 0.832508 0.346387
vt 0.817073 0.346227
vt 0.784202 0.313092
vt 0.792121 0.379168
vt 0.778906 0.377454
vt 0.136846 0.036748
vt 0.138858 0.098583
vt 0.266883 0.096467
vt 0.284193 0.033913
vt 0.264685 0.033311
vt 0.756170 0.033997
vt 0.757358 0.099149
vt 0.566886 0.003310
vt 0.582889 0.061826
vt 0.839128 0.345755
vt 0.841043 0.281404
vt 0.849220 0.339350
vt 0.507745 0.037506
vt 0.517773 0.101502
vt 0.507454 0.101955
vt 0.395658 0.101397
vt 0.411201 0.037807
vt 0.409517 0.102122
vt 0.391948 0.037132
vt 0.363450 0.099976
vt 0.020333 0.051700
vt 0.040756 0.885689
vt 0.101426 0.882883
vt 0.325861 0.869215
vt 0.295317 0.866214
vt 0.366737 0.871714
vt 0.411201 0.872144
vt 0.428602 0.868225
vt 0.474349 0.871189
vt 0.517773 0.872882
vt 0.582889 0.837237
vt 0.540162 0.838323
vt 0.829103 0.765268
vt 0.778906 0.767304
vt 0.869788 0.762315
vt 0.209761 0.880311
vt 0.247694 0.882412
vt 0.288697 0.882750
vt 0.116558 0.882440
vt 0.159630 0.882443
vt 0.200587 0.880581
vt 0.591628 0.787646
vt 0.630181 0.786059
vt 0.675016 0.782737
vt 0.003310 0.885976
vt 0.077204 0.376090
vt 0.382677 0.364819
vt 0.484628 0.363734
vt 0.511801 0.296521
vt 0.576995 0.323966
vt 0.745674 0.371254
vt 0.279989 0.370683
vt 0.145905 0.370398
vt 0.626736 0.273635
vt 0.006866 0.313580
vt 0.003310 0.374606
vt 0.017361 0.009563
vt 0.017470 0.051820
vt 0.797065 0.283757
vt 0.803775 0.314801
vt 0.793679 0.314152
vt 0.137026 0.006152
vt 0.146858 0.033756
vt 0.127294 0.034180
vt 0.275941 0.003310
vt 0.274150 0.034035
vt 0.746125 0.043399
vt 0.753615 0.010090
vt 0.752049 0.755612
vt 0.761736 0.782972
vt 0.752049 0.788862
vt 0.704622 0.787995
vt 0.712804 0.755612
vt 0.715830 0.789286
vt 0.732240 0.755612
vt 0.732881 0.788988
vt 0.722450 0.787569
vt 0.497327 0.036798
vt 0.507909 0.003979
vt 0.401649 0.037678
vt 0.407659 0.004120
vt 0.395558 0.003881
vt 0.024209 0.018354
vt 0.037032 0.050478
vt 0.675616 0.819162
vt 0.769574 0.778099
vt 0.768356 0.757239
vt 0.769574 0.755612
vt 0.682236 0.815443
vt 0.771297 0.804129
vt 0.768356 0.787003
vt 0.771297 0.784719
vt 0.819157 0.254964
vt 0.819971 0.252799
vt 0.682236 0.822605
vt 0.684557 0.822062
vt 0.012032 0.653518
vt 0.814080 0.495891
vt 0.778906 0.528341
vt 0.589509 0.820607
vt 0.627302 0.794266
vt 0.627302 0.877866
vt 0.883694 0.165022
vt 0.743340 0.748992
vt 0.839224 0.220658
vt 0.704622 0.650420
vt 0.849220 0.485695
vt 0.509009 0.241692
vt 0.109938 0.747658
vt 0.807460 0.380828
vt 0.736002 0.049241
vt 0.704622 0.853093
vt 0.722450 0.852838
vt 0.524393 0.329553
vt 0.798059 0.274784
vt 0.639123 0.276225
vt 0.010029 0.003310
vt 0.804076 0.281404
vt 0.790672 0.283042
vt 0.143744 0.003310
vt 0.130550 0.003602
vt 0.282779 0.003370
vt 0.759612 0.003310
vt 0.747048 0.010310
vt 0.740242 0.016050
vt 0.745430 0.789064
vt 0.739500 0.756969
vt 0.745430 0.755612
vt 0.804679 0.227278
vt 0.811867 0.227278
vt 0.810377 0.259806
vt 0.501612 0.003310
vt 0.401210 0.004034
vt 0.388306 0.003310
s 1
usemtl Material.009
f 1/1/1 3/2/2 5/3/3
f 2/4/4 6/5/5 4/6/6
f 179/7/7 6/5/5 180/8/8
f 1/1/1 5/3/3 7/9/1
f 2/4/4 8/10/9 6/5/5
f 6/5/5 181/11/10 180/8/8
f 1/1/1 7/9/1 9/12/1
f 2/4/4 10/13/11 8/10/9
f 8/10/9 182/14/12 181/11/10
f 1/1/1 9/12/1 11/15/1
f 2/4/4 12/16/13 10/13/11
f 10/13/11 183/17/14 182/14/12
f 1/1/1 11/15/1 13/18/1
f 2/19/4 14/20/15 12/21/13
f 183/22/14 14/20/15 184/23/16
f 1/1/1 13/18/1 15/24/1
f 2/19/4 16/25/17 14/20/15
f 184/23/16 16/25/17 185/26/18
f 1/1/1 15/24/1 17/27/19
f 2/19/4 18/28/20 16/25/17
f 16/29/17 186/30/21 185/31/18
f 1/1/1 17/27/19 19/32/22
f 2/33/4 20/34/23 18/35/20
f 186/36/21 20/37/23 187/38/24
f 1/1/1 19/32/22 21/39/1
f 2/40/4 22/41/25 20/42/23
f 20/37/23 188/43/26 187/38/24
f 1/1/1 21/39/1 23/44/27
f 2/45/4 24/46/28 22/47/25
f 188/48/26 24/49/28 189/50/29
f 1/1/1 23/44/27 25/51/30
f 2/45/4 26/52/31 24/46/28
f 24/53/28 190/54/32 189/55/29
f 1/1/1 25/51/30 27/56/1
f 2/57/4 28/58/33 26/59/31
f 190/54/32 28/60/33 191/61/34
f 1/1/1 27/56/1 29/62/1
f 2/63/4 30/64/35 28/65/33
f 28/60/33 192/66/36 191/61/34
f 1/1/1 29/62/1 31/67/1
f 2/68/4 32/69/37 30/70/35
f 192/71/36 32/72/37 193/73/38
f 1/1/1 31/67/1 33/74/39
f 2/68/4 34/75/40 32/69/37
f 32/72/37 194/76/41 193/73/38
f 1/1/1 33/74/39 3/2/2
f 2/4/4 4/6/6 34/77/40
f 34/77/40 179/7/7 194/78/41
f 130/79/42 162/80/43 161/81/44
f 130/79/42 36/82/45 35/83/46
f 129/84/47 37/85/48 36/82/45
f 128/86/49 38/87/50 37/88/48
f 178/89/51 39/90/52 163/91/53
f 125/92/54 39/90/52 126/93/55
f 160/94/56 130/79/42 161/81/44
f 124/95/57 129/84/47 130/79/42
f 123/96/58 128/97/59 129/84/47
f 121/98/60 128/97/59 122/99/61
f 177/100/62 126/93/55 178/89/51
f 120/101/63 125/92/54 126/93/55
f 118/102/64 160/94/56 159/103/65
f 118/102/64 123/96/58 124/95/57
f 117/104/66 122/99/61 123/96/58
f 116/105/67 121/106/60 122/107/61
f 114/108/68 177/109/62 176/110/69
f 113/111/70 120/112/63 114/108/68
f 158/113/71 118/114/64 159/115/65
f 111/116/72 118/114/64 112/117/73
f 110/118/74 117/119/66 111/116/72
f 110/118/74 115/120/75 116/105/67
f 175/121/76 114/108/68 176/110/69
f 108/122/77 113/111/70 114/108/68
f 106/123/78 158/113/71 157/124/79
f 105/125/80 112/117/73 106/123/78
f 105/125/80 110/118/74 111/116/72
f 103/126/81 110/118/74 104/127/82
f 102/128/83 175/121/76 174/129/84
f 101/130/85 108/122/77 102/128/83
f 156/131/86 106/132/78 157/133/79
f 100/134/87 105/135/80 106/132/78
f 99/136/88 104/137/82 105/135/80
f 97/138/89 104/137/82 98/139/90
f 173/140/91 102/141/83 174/142/84
f 96/143/92 101/144/85 102/141/83
f 155/145/93 100/134/87 156/131/86
f 93/146/94 100/134/87 94/147/95
f 92/148/96 99/136/88 93/146/94
f 91/149/97 98/139/90 92/148/96
f 90/150/98 173/140/91 172/151/99
f 89/152/100 96/143/92 90/150/98
f 88/153/101 155/154/93 154/155/102
f 88/156/101 93/157/94 94/158/95
f 86/159/103 93/160/94 87/161/104
f 86/159/103 91/162/97 92/163/96
f 171/164/105 90/165/98 172/166/99
f 84/167/106 89/168/100 90/165/98
f 153/169/107 88/153/101 154/155/102
f 81/170/108 88/153/101 82/171/109
f 81/172/108 86/173/103 87/174/104
f 79/175/110 86/159/103 80/176/111
f 170/177/112 84/178/106 171/179/105
f 78/180/113 83/181/114 84/178/106
f 76/182/115 153/183/107 152/184/116
f 75/185/117 82/186/109 76/182/115
f 74/187/118 81/188/108 75/185/117
f 73/189/119 80/190/111 74/187/118
f 72/191/120 170/192/112 169/193/121
f 72/191/120 77/194/122 78/195/113
f 151/196/123 76/197/115 152/198/116
f 70/199/124 75/200/117 76/197/115
f 69/201/125 74/202/118 75/200/117
f 68/203/126 73/204/119 74/202/118
f 168/205/127 72/191/120 169/193/121
f 65/206/128 72/191/120 66/207/129
f 64/208/130 151/196/123 150/209/131
f 63/210/132 70/199/124 64/208/130
f 63/210/132 68/203/126 69/201/125
f 61/211/133 68/203/126 62/212/134
f 167/213/135 66/214/129 168/215/127
f 59/216/136 66/214/129 60/217/137
f 58/218/138 150/219/131 149/220/139
f 57/221/140 64/222/130 58/218/138
f 57/223/140 62/212/134 63/210/132
f 56/224/141 61/225/133 62/226/134
f 54/227/142 167/213/135 166/228/143
f 54/227/142 59/216/136 60/217/137
f 52/229/144 149/220/139 148/230/145
f 52/229/144 57/221/140 58/218/138
f 50/231/146 57/221/140 51/232/147
f 49/233/148 56/224/141 50/231/146
f 48/234/149 166/235/143 165/236/150
f 47/237/151 54/238/142 48/234/149
f 46/239/152 148/230/145 147/240/153
f 45/241/154 52/229/144 46/239/152
f 45/242/154 50/243/146 51/244/147
f 43/245/155 50/243/146 44/246/156
f 164/247/157 48/234/149 165/236/150
f 42/248/158 47/237/151 48/234/149
f 162/249/43 46/250/152 147/251/153
f 35/252/46 45/242/154 46/250/152
f 37/88/48 45/242/154 36/253/45
f 38/87/50 44/246/156 37/88/48
f 163/254/53 42/255/158 164/256/157
f 39/257/52 41/258/159 42/255/158
f 146/259/160 40/260/161 125/261/54
f 145/262/162 125/263/54 119/264/163
f 144/265/164 119/266/163 113/267/70
f 143/268/165 113/111/70 107/269/166
f 101/130/85 143/268/165 107/269/166
f 95/270/167 142/271/168 101/144/85
f 140/272/169 95/270/167 89/152/100
f 83/181/114 140/273/169 89/274/100
f 138/275/170 83/276/114 77/194/122
f 71/277/171 138/278/170 77/279/122
f 136/280/172 71/281/171 65/282/128
f 59/216/136 136/280/172 65/282/128
f 53/283/173 135/284/174 59/285/136
f 133/286/175 53/283/173 47/237/151
f 41/287/159 133/286/175 47/237/151
f 40/260/161 132/288/176 41/258/159
f 3/289/2 147/251/153 5/290/3
f 147/240/153 7/291/177 5/292/3
f 7/291/177 149/220/139 9/293/178
f 149/220/139 11/294/179 9/293/178
f 11/295/179 151/196/123 13/296/180
f 13/296/180 152/198/116 15/297/181
f 152/184/116 17/298/19 15/299/181
f 153/169/107 19/300/22 17/301/19
f 154/155/102 21/302/182 19/300/22
f 21/303/182 156/131/86 23/304/27
f 156/131/86 25/305/30 23/304/27
f 25/306/30 158/113/71 27/307/183
f 158/113/71 29/308/184 27/307/183
f 29/309/184 160/94/56 31/310/185
f 160/94/56 33/311/39 31/310/185
f 33/312/39 162/249/43 3/289/2
f 38/87/50 164/256/157 43/245/155
f 164/256/157 49/313/148 43/245/155
f 165/236/150 55/314/186 49/233/148
f 166/235/143 61/225/133 55/314/186
f 167/213/135 67/315/187 61/211/133
f 67/315/187 169/316/121 73/204/119
f 169/193/121 79/317/110 73/189/119
f 79/175/110 171/179/105 85/318/188
f 171/179/105 91/162/97 85/318/188
f 91/149/97 173/140/91 97/138/89
f 97/138/89 174/142/84 103/319/81
f 174/129/84 109/320/189 103/126/81
f 175/121/76 115/120/75 109/320/189
f 115/120/75 177/109/62 121/106/60
f 177/100/62 127/321/190 121/98/60
f 178/322/51 38/87/50 127/323/190
f 146/259/160 179/324/7 131/325/191
f 193/326/38 146/327/160 145/328/162
f 144/265/164 193/326/38 145/328/162
f 191/329/34 144/330/164 143/268/165
f 142/331/168 191/329/34 143/268/165
f 189/332/29 142/271/168 141/333/192
f 140/272/169 189/332/29 141/333/192
f 139/334/193 188/335/26 140/273/169
f 186/336/21 139/337/193 138/338/170
f 137/339/194 186/340/21 138/341/170
f 184/342/16 137/343/194 136/344/172
f 135/345/174 184/346/16 136/280/172
f 134/347/195 183/348/14 135/284/174
f 181/349/10 134/347/195 133/286/175
f 180/350/8 133/351/175 132/288/176
f 179/324/7 132/288/176 131/325/191
f 179/7/7 4/6/6 6/5/5
f 6/5/5 8/10/9 181/11/10
f 8/10/9 10/13/11 182/14/12
f 10/13/11 12/16/13 183/17/14
f 183/22/14 12/21/13 14/20/15
f 184/23/16 14/20/15 16/25/17
f 16/25/17 18/28/20 186/352/21
f 186/353/21 18/354/20 20/355/23
f 20/42/23 22/41/25 188/356/26
f 188/357/26 22/358/25 24/359/28
f 24/53/28 26/360/31 190/54/32
f 190/54/32 26/360/31 28/60/33
f 28/60/33 30/361/35 192/66/36
f 192/71/36 30/362/35 32/72/37
f 32/72/37 34/363/40 194/76/41
f 34/77/40 4/6/6 179/7/7
f 130/79/42 35/83/46 162/80/43
f 130/79/42 129/84/47 36/82/45
f 129/364/47 128/86/49 37/88/48
f 128/86/49 127/323/190 38/87/50
f 178/89/51 126/93/55 39/90/52
f 125/261/54 40/260/161 39/257/52
f 160/94/56 124/95/57 130/79/42
f 124/95/57 123/96/58 129/84/47
f 123/96/58 122/99/61 128/97/59
f 121/98/60 127/321/190 128/97/59
f 177/100/62 120/101/63 126/93/55
f 120/365/63 119/264/163 125/263/54
f 118/102/64 124/95/57 160/94/56
f 118/102/64 117/104/66 123/96/58
f 117/119/66 116/105/67 122/107/61
f 116/105/67 115/120/75 121/106/60
f 114/108/68 120/112/63 177/109/62
f 113/267/70 119/266/163 120/366/63
f 158/113/71 112/117/73 118/114/64
f 111/116/72 117/119/66 118/114/64
f 110/118/74 116/105/67 117/119/66
f 110/118/74 109/320/189 115/120/75
f 175/121/76 108/122/77 114/108/68
f 108/122/77 107/269/166 113/111/70
f 106/367/78 112/368/73 158/369/71
f 105/125/80 111/116/72 112/117/73
f 105/125/80 104/127/82 110/118/74
f 103/126/81 109/320/189 110/118/74
f 102/128/83 108/122/77 175/121/76
f 101/130/85 107/269/166 108/122/77
f 156/131/86 100/134/87 106/132/78
f 100/134/87 99/136/88 105/135/80
f 99/136/88 98/139/90 104/137/82
f 97/138/89 103/319/81 104/137/82
f 173/140/91 96/143/92 102/141/83
f 96/143/92 95/270/167 101/144/85
f 155/145/93 94/147/95 100/134/87
f 93/146/94 99/136/88 100/134/87
f 92/148/96 98/139/90 99/136/88
f 91/149/97 97/138/89 98/139/90
f 90/150/98 96/143/92 173/140/91
f 89/152/100 95/270/167 96/143/92
f 88/156/101 94/158/95 155/370/93
f 88/371/101 87/161/104 93/160/94
f 86/159/103 92/163/96 93/160/94
f 86/159/103 85/318/188 91/162/97
f 171/164/105 84/167/106 90/165/98
f 84/178/106 83/181/114 89/274/100
f 153/169/107 82/171/109 88/153/101
f 81/172/108 87/174/104 88/372/101
f 81/373/108 80/176/111 86/159/103
f 79/175/110 85/318/188 86/159/103
f 170/177/112 78/180/113 84/178/106
f 78/195/113 77/194/122 83/276/114
f 76/182/115 82/186/109 153/183/107
f 75/185/117 81/188/108 82/186/109
f 74/187/118 80/190/111 81/188/108
f 73/189/119 79/317/110 80/190/111
f 72/191/120 78/195/113 170/192/112
f 72/374/120 71/277/171 77/279/122
f 151/196/123 70/199/124 76/197/115
f 70/199/124 69/201/125 75/200/117
f 69/201/125 68/203/126 74/202/118
f 68/203/126 67/315/187 73/204/119
f 168/205/127 66/207/129 72/191/120
f 65/282/128 71/281/171 72/375/120
f 64/208/130 70/199/124 151/196/123
f 63/210/132 69/201/125 70/199/124
f 63/210/132 62/212/134 68/203/126
f 61/211/133 67/315/187 68/203/126
f 167/213/135 60/217/137 66/214/129
f 59/216/136 65/282/128 66/214/129
f 58/218/138 64/222/130 150/219/131
f 57/223/140 63/210/132 64/208/130
f 57/221/140 56/224/141 62/226/134
f 56/224/141 55/314/186 61/225/133
f 54/227/142 60/217/137 167/213/135
f 54/238/142 53/283/173 59/285/136
f 52/229/144 58/218/138 149/220/139
f 52/229/144 51/232/147 57/221/140
f 50/231/146 56/224/141 57/221/140
f 49/233/148 55/314/186 56/224/141
f 48/234/149 54/238/142 166/235/143
f 47/237/151 53/283/173 54/238/142
f 46/239/152 52/229/144 148/230/145
f 45/242/154 51/244/147 52/376/144
f 45/242/154 44/246/156 50/243/146
f 43/245/155 49/313/148 50/243/146
f 164/247/157 42/248/158 48/234/149
f 42/248/158 41/287/159 47/237/151
f 162/249/43 35/252/46 46/250/152
f 35/252/46 36/253/45 45/242/154
f 37/88/48 44/246/156 45/242/154
f 38/87/50 43/245/155 44/246/156
f 163/254/53 39/257/52 42/255/158
f 39/257/52 40/260/161 41/258/159
f 146/259/160 131/325/191 40/260/161
f 145/328/162 146/327/160 125/377/54
f 144/265/164 145/328/162 119/266/163
f 143/268/165 144/330/164 113/111/70
f 101/130/85 142/331/168 143/268/165
f 95/270/167 141/333/192 142/271/168
f 140/272/169 141/333/192 95/270/167
f 83/181/114 139/334/193 140/273/169
f 138/378/170 139/334/193 83/181/114
f 71/379/171 137/339/194 138/341/170
f 136/344/172 137/343/194 71/380/171
f 59/216/136 135/345/174 136/280/172
f 53/283/173 134/347/195 135/284/174
f 133/286/175 134/347/195 53/283/173
f 41/258/159 132/288/176 133/351/175
f 40/260/161 131/325/191 132/288/176
f 3/289/2 162/249/43 147/251/153
f 147/240/153 148/230/145 7/291/177
f 7/291/177 148/230/145 149/220/139
f 149/220/139 150/219/131 11/294/179
f 11/295/179 150/209/131 151/196/123
f 13/296/180 151/196/123 152/198/116
f 152/184/116 153/183/107 17/298/19
f 153/169/107 154/155/102 19/300/22
f 154/155/102 155/154/93 21/302/182
f 21/303/182 155/145/93 156/131/86
f 156/131/86 157/133/79 25/305/30
f 25/306/30 157/124/79 158/113/71
f 158/113/71 159/115/65 29/308/184
f 29/309/184 159/103/65 160/94/56
f 160/94/56 161/81/44 33/311/39
f 33/311/39 161/81/44 162/80/43
f 38/87/50 163/254/53 164/256/157
f 164/247/157 165/236/150 49/233/148
f 165/236/150 166/235/143 55/314/186
f 166/228/143 167/213/135 61/211/133
f 167/213/135 168/215/127 67/315/187
f 67/381/187 168/205/127 169/193/121
f 169/193/121 170/192/112 79/317/110
f 79/175/110 170/177/112 171/179/105
f 171/164/105 172/166/99 91/382/97
f 91/149/97 172/151/99 173/140/91
f 97/138/89 173/140/91 174/142/84
f 174/129/84 175/121/76 109/320/189
f 175/121/76 176/110/69 115/120/75
f 115/120/75 176/110/69 177/109/62
f 177/100/62 178/89/51 127/321/190
f 178/89/51 163/91/53 38/383/50
f 146/259/160 194/384/41 179/324/7
f 193/326/38 194/385/41 146/327/160
f 144/265/164 192/386/36 193/326/38
f 191/329/34 192/387/36 144/330/164
f 142/331/168 190/388/32 191/329/34
f 189/332/29 190/389/32 142/271/168
f 140/273/169 188/335/26 189/390/29
f 139/334/193 187/391/24 188/335/26
f 186/392/21 187/391/24 139/334/193
f 137/393/194 185/394/18 186/395/21
f 184/396/16 185/397/18 137/398/194
f 135/345/174 183/399/14 184/346/16
f 134/347/195 182/400/12 183/348/14
f 181/349/10 182/400/12 134/347/195
f 180/401/8 181/349/10 133/286/175
f 179/324/7 180/350/8 132/288/176
g Stalagmites_Medium_1_LOD_1_Mesh
v -0.491798 -0.000000 -0.203093
v 0.002048 4.469703 0.003672
v 0.000835 -0.000000 -0.566453
v 0.357388 0.000208 -0.493377
v 0.549210 -0.000000 -0.237287
v 0.589799 0.000000 0.000963
v 0.488428 0.000194 0.423401
v 0.097052 0.000031 0.560385
v -0.203220 0.000000 0.518806
v -0.376210 0.000000 0.403219
v -0.024828 4.485384 0.000891
v -0.491798 0.000000 0.230229
v -0.532387 0.000000 0.000963
v -0.259638 0.000002 -0.499521
v -0.000963 0.663534 -0.490647
v -0.003285 1.133223 -0.372271
v -0.000962 1.740942 -0.345332
v 0.000393 2.558673 -0.303217
v -0.002608 3.038610 -0.304774
v 0.033224 3.875842 -0.212054
v 0.125034 2.895156 -0.284322
v 0.288116 1.724561 -0.278805
v 0.228272 1.132950 -0.344272
v 0.263989 0.442782 -0.439375
v 0.098600 4.134089 -0.114621
v 0.162736 3.040258 -0.222720
v 0.261236 2.534010 -0.247918
v 0.327142 0.747068 -0.338313
v 0.128951 4.219189 -0.015511
v 0.191825 3.178514 -0.126831
v 0.411988 1.203024 -0.158750
v 0.446634 0.540013 -0.205306
v 0.205370 3.136415 0.090977
v 0.310516 2.592339 -0.015654
v 0.486019 0.559653 0.003592
v 0.123662 4.205341 0.056556
v 0.300231 2.527015 0.062478
v 0.471923 0.401464 0.154427
v 0.108308 3.885626 0.122081
v 0.165902 2.892218 0.146496
v 0.231127 2.587163 0.210871
v 0.330794 1.224451 0.269753
v 0.399247 0.412394 0.336392
v 0.047110 4.221597 0.123182
v 0.081089 2.952002 0.207429
v 0.106324 2.589550 0.273108
v 0.212305 1.190271 0.338127
v 0.214553 0.664966 0.405302
v 0.001167 3.913305 0.188645
v 0.008872 2.964670 0.222169
v -0.103883 2.599310 0.313154
v -0.007545 1.772586 0.342979
v -0.004377 1.161976 0.409835
v -0.003373 0.500045 0.417306
v -0.043199 4.200079 0.150560
v -0.071402 3.005153 0.261410
v -0.152759 1.882463 0.336751
v -0.149561 1.163896 0.418134
v -0.170793 0.357007 0.459926
v -0.093530 4.263725 0.099276
v -0.147516 3.073265 0.200433
v -0.250083 2.574073 0.193495
v -0.279198 1.162849 0.325571
v -0.321277 0.361896 0.356574
v -0.126471 4.283689 0.039954
v -0.209057 2.925826 0.126534
v -0.299667 1.868147 0.158579
v -0.403672 0.593816 0.198621
v -0.234385 2.883172 0.001870
v -0.285337 2.572335 -0.006694
v -0.414120 0.753018 -0.008065
v -0.113148 4.308169 -0.058618
v -0.191911 2.886716 -0.159171
v -0.254169 2.584867 -0.177273
v -0.309858 1.597382 -0.137549
v -0.394151 0.658721 -0.175633
v -0.248307 1.279261 -0.278921
v -0.309328 0.383803 -0.345919
v -0.056856 3.960999 -0.201526
v -0.072167 2.964763 -0.278812
v -0.106698 2.588475 -0.344976
v -0.129034 1.773904 -0.356084
v -0.141955 1.162976 -0.321769
v -0.174890 0.669597 -0.416806
v 0.049293 4.371183 -0.084265
v 0.071861 4.209926 0.071005
v -0.024146 4.454852 -0.082928
v 0.228732 0.343249 0.408788
v -0.461604 0.398392 0.214070
v -0.497535 0.332621 0.000393
v -0.461547 0.343592 -0.192225
v -0.179717 0.343249 -0.433890
v -0.004011 0.343249 -0.502744
v 0.084741 4.378421 0.027631
v 0.042863 4.374861 0.082097
v -0.026894 4.411522 0.081585
v -0.077309 4.440009 0.051425
v -0.077874 4.437270 -0.043020
vn -0.7124 -0.6154 -0.3373
vn -0.0226 -0.5931 -0.8048
vn 0.4491 -0.5605 -0.6958
vn 0.0081 0.6956 -0.7184
vn 0.5910 0.7911 0.1579
vn 0.6387 0.4001 -0.6572
vn -0.0000 -1.0000 -0.0003
vn 0.8630 0.4636 0.2008
vn -0.0000 -1.0000 0.0002
vn 0.0001 -1.0000 0.0002
vn 0.5179 0.4003 0.7560
vn 0.0003 -1.0000 -0.0002
vn 0.0202 0.5264 0.8500
vn 0.0001 -1.0000 -0.0000
vn -0.5714 -0.5911 0.5693
vn -0.0096 0.9928 0.1190
vn -0.6216 0.6122 0.4886
vn -0.7233 -0.6151 0.3137
vn -0.7777 -0.6286 -0.0080
vn -0.7857 0.5131 -0.3456
vn -0.4440 -0.5649 -0.6955
vn -0.5455 0.1489 -0.8248
vn -0.0848 0.1371 -0.9869
vn -0.4355 0.1690 -0.8842
vn -0.1069 0.1446 -0.9837
vn -0.0660 0.1345 -0.9887
vn -0.3223 0.0843 -0.9429
vn 0.1326 0.0290 -0.9907
vn 0.0975 0.0026 -0.9952
vn 0.2304 0.0326 -0.9725
vn -0.4302 0.1671 -0.8871
vn -0.0841 0.0682 -0.9941
vn -0.5394 0.0703 -0.8391
vn -0.6644 0.1441 -0.7333
vn -0.6401 0.0459 -0.7669
vn -0.6764 0.0442 -0.7352
vn -0.8931 0.1163 -0.4346
vn -0.8722 0.1458 -0.4670
vn -0.9038 0.1424 -0.4035
vn -0.8846 0.1482 -0.4421
vn -0.9188 0.0551 -0.3908
vn -0.9884 0.1508 -0.0181
vn -0.9943 0.1062 -0.0047
vn -0.9925 0.1179 -0.0333
vn -0.9905 0.1318 -0.0392
vn -0.8697 0.2221 -0.4407
vn -0.9146 0.1505 0.3753
vn -0.8818 0.1998 0.4273
vn -0.8642 0.1024 0.4926
vn -0.8875 0.0817 0.4535
vn -0.9609 0.1763 0.2136
vn -0.9469 0.1345 0.2922
vn -0.6564 0.1319 0.7428
vn -0.7449 0.0838 0.6619
vn -0.4236 0.0731 0.9029
vn -0.7214 0.1056 0.6844
vn -0.2661 0.0732 0.9612
vn -0.2181 0.1320 0.9670
vn -0.2208 0.1869 0.9572
vn -0.0367 0.1176 0.9924
vn 0.1216 0.1065 0.9868
vn 0.1142 0.0777 0.9904
vn 0.1835 0.0575 0.9813
vn -0.2382 0.1152 0.9643
vn 0.3233 0.0952 0.9415
vn 0.3740 0.0839 0.9236
vn 0.2237 0.0963 0.9699
vn 0.3310 0.1434 0.9327
vn 0.4411 0.1180 0.8897
vn 0.0522 0.0637 0.9966
vn 0.7227 0.0959 0.6845
vn 0.6987 0.1836 0.6915
vn 0.7258 0.1929 0.6603
vn 0.6583 0.1262 0.7421
vn 0.6190 0.1965 0.7604
vn 0.9414 0.1672 0.2930
vn 0.9437 0.1189 0.3087
vn 0.7682 0.1981 0.6088
vn 0.8958 0.1145 0.4295
vn 0.9930 0.1176 0.0093
vn 0.9914 0.1305 -0.0031
vn 0.9341 0.0780 -0.3483
vn 0.8968 0.1299 -0.4229
vn 0.9620 0.1185 -0.2461
vn 0.9651 0.1973 -0.1722
vn 0.7071 0.1002 -0.7000
vn 0.4867 0.1513 -0.8604
vn 0.5476 0.0618 -0.8344
vn 0.7575 0.0974 -0.6456
vn 0.7419 0.1723 -0.6480
vn 0.7758 0.1451 -0.6141
vn 0.2566 0.1064 -0.9606
vn 0.4055 0.0838 -0.9103
vn 0.3401 0.1402 -0.9299
vn 0.9024 0.1942 -0.3845
vn 0.9806 0.1934 0.0323
vn 0.7026 0.2668 0.6597
vn 0.1014 0.2741 0.9563
vn -0.3303 0.2151 0.9190
vn -0.2315 0.1098 -0.9666
vn -0.7060 0.1850 0.6836
vn 0.6606 0.1863 0.7272
vn 0.2540 0.2110 0.9439
vn 0.5879 0.0609 0.8066
vt 0.995824 0.904975
vt 0.912702 0.992419
vt 0.842563 0.987668
vt 0.634714 0.798188
vt 0.652265 0.800945
vt 0.636560 0.819108
vt 0.794969 0.947378
vt 0.649366 0.822300
vt 0.778906 0.902535
vt 0.786525 0.817548
vt 0.662909 0.815818
vt 0.674087 0.795769
vt 0.670499 0.819227
vt 0.856324 0.779988
vt 0.814080 0.519627
vt 0.828764 0.502511
vt 0.827825 0.520691
vt 0.915016 0.774790
vt 0.952560 0.791278
vt 0.818487 0.246179
vt 0.818487 0.227278
vt 0.824868 0.239277
vt 0.980936 0.820879
vt 0.996690 0.863979
vt 0.819056 0.255490
vt 0.834706 0.252799
vt 0.827914 0.266844
vt 0.683192 0.822393
vt 0.694791 0.833087
vt 0.684271 0.837100
vt 0.958350 0.968366
vt 0.655715 0.650410
vt 0.698002 0.710254
vt 0.662281 0.714351
vt 0.669880 0.554996
vt 0.691843 0.647587
vt 0.641657 0.552459
vt 0.657181 0.436148
vt 0.006825 0.534513
vt 0.025978 0.378955
vt 0.032221 0.540021
vt 0.595322 0.003310
vt 0.631166 0.182582
vt 0.616446 0.198967
vt 0.626777 0.709038
vt 0.615862 0.532396
vt 0.637791 0.433233
vt 0.598050 0.275250
vt 0.595333 0.214186
vt 0.593013 0.656297
vt 0.589509 0.719716
vt 0.181250 0.564091
vt 0.181036 0.368275
vt 0.203141 0.508440
vt 0.158103 0.816553
vt 0.192998 0.749520
vt 0.196592 0.812707
vt 0.146012 0.373489
vt 0.157477 0.732306
vt 0.145292 0.311405
vt 0.146889 0.034078
vt 0.178206 0.308278
vt 0.120351 0.763971
vt 0.117336 0.803736
vt 0.116558 0.370469
vt 0.121133 0.512169
vt 0.129970 0.035235
vt 0.121120 0.303013
vt 0.250934 0.809949
vt 0.284097 0.764373
vt 0.288697 0.803975
vt 0.251701 0.651965
vt 0.282461 0.512410
vt 0.272637 0.370416
vt 0.246391 0.518854
vt 0.261160 0.273961
vt 0.284171 0.034821
vt 0.279525 0.303188
vt 0.222304 0.650251
vt 0.217727 0.809104
vt 0.262824 0.048993
vt 0.241984 0.286411
vt 0.852620 0.099781
vt 0.883694 0.003310
vt 0.883599 0.162200
vt 0.745464 0.531580
vt 0.772286 0.652543
vt 0.743952 0.652616
vt 0.764605 0.370547
vt 0.772286 0.532273
vt 0.779458 0.198956
vt 0.798059 0.003310
vt 0.794587 0.192333
vt 0.778906 0.534961
vt 0.825248 0.664555
vt 0.781651 0.634416
vt 0.804679 0.122182
vt 0.846000 0.003310
vt 0.846000 0.124366
vt 0.723950 0.369856
vt 0.704819 0.645659
vt 0.731264 0.297575
vt 0.745397 0.108633
vt 0.746888 0.295267
vt 0.544335 0.594352
vt 0.576684 0.704758
vt 0.539224 0.755265
vt 0.549830 0.324915
vt 0.570556 0.600695
vt 0.556718 0.263245
vt 0.566842 0.001018
vt 0.575166 0.251586
vt 0.467545 0.789851
vt 0.507406 0.627974
vt 0.507064 0.789122
vt 0.484245 0.369928
vt 0.514444 0.359040
vt 0.548091 0.067820
vt 0.539695 0.220755
vt 0.439559 0.756589
vt 0.468554 0.356147
vt 0.378441 0.632936
vt 0.406705 0.751626
vt 0.367385 0.763459
vt 0.409098 0.365285
vt 0.407407 0.526663
vt 0.458503 0.237118
vt 0.497479 0.034661
vt 0.495545 0.252175
vt 0.338086 0.720404
vt 0.307842 0.784091
vt 0.351458 0.524635
vt 0.363689 0.363966
vt 0.388443 0.052339
vt 0.384065 0.241199
vt 0.363887 0.267688
vt 0.328780 0.642420
vt 0.082478 0.657795
vt 0.090400 0.536784
vt 0.107956 0.732285
vt 0.347774 0.285626
vt 0.036925 0.754129
vt 0.093135 0.800428
vt 0.036796 0.659637
vt 0.021532 0.284925
vt 0.022695 0.117505
vt 0.047441 0.311748
vt 0.010942 0.004196
vt 0.005098 0.102454
vt 0.040756 0.885689
vt 0.101426 0.882883
vt 0.305283 0.867193
vt 0.366737 0.871714
vt 0.411201 0.872144
vt 0.428602 0.868225
vt 0.513730 0.872724
vt 0.582889 0.837237
vt 0.540162 0.838323
vt 0.869788 0.762315
vt 0.810984 0.766003
vt 0.209761 0.880311
vt 0.247694 0.882412
vt 0.288697 0.882750
vt 0.116558 0.882440
vt 0.159630 0.882443
vt 0.200587 0.880581
vt 0.591628 0.787646
vt 0.663280 0.783607
vt 0.003310 0.885976
vt 0.039076 0.817135
vt 0.511801 0.296521
vt 0.576995 0.323966
vt 0.237368 0.368847
vt 0.626736 0.273635
vt 0.006866 0.313580
vt 0.003310 0.374606
vt 0.792601 0.283258
vt 0.804075 0.281518
vt 0.786233 0.313657
vt 0.131669 0.004043
vt 0.279281 0.003339
vt 0.273611 0.038663
vt 0.752049 0.755612
vt 0.761736 0.782972
vt 0.752049 0.788862
vt 0.704622 0.787995
vt 0.712804 0.755612
vt 0.715830 0.789286
vt 0.732240 0.755612
vt 0.732881 0.788988
vt 0.722450 0.787569
vt 0.506923 0.003874
vt 0.507741 0.038419
vt 0.391197 0.003538
vt 0.406462 0.035604
vt 0.771297 0.804129
vt 0.768356 0.787003
vt 0.771297 0.784719
vt 0.649617 0.794266
vt 0.012032 0.653518
vt 0.814080 0.495891
vt 0.814097 0.281782
vt 0.832508 0.346387
vt 0.589710 0.554915
vt 0.589509 0.820607
vt 0.627302 0.794266
vt 0.627302 0.877866
vt 0.743340 0.748992
vt 0.754716 0.051383
vt 0.782806 0.697660
vt 0.839224 0.220658
vt 0.582889 0.061826
vt 0.575146 0.768147
vt 0.849220 0.485695
vt 0.839128 0.345755
vt 0.840723 0.279135
vt 0.517773 0.101502
vt 0.509009 0.241692
vt 0.077204 0.376090
vt 0.363450 0.099976
vt 0.024197 0.018459
vt 0.807460 0.380828
vt 0.736002 0.049241
vt 0.704622 0.853093
vt 0.722450 0.852838
vt 0.037032 0.050478
vt 0.862005 0.694157
vt 0.524393 0.329553
vt 0.798059 0.274784
vt 0.639123 0.276225
vt 0.143744 0.003310
vt 0.752582 0.010125
vt 0.759612 0.003310
vt 0.740242 0.016050
vt 0.804679 0.227278
vt 0.811867 0.227278
vt 0.810377 0.259806
vt 0.404411 0.004077
s 1
usemtl Material.010
f 195/402/196 197/403/197 198/404/198
f 281/405/199 196/406/200 279/407/201
f 195/402/196 198/404/198 199/408/202
f 196/406/200 288/409/203 279/407/201
f 195/402/196 199/408/202 200/410/204
f 195/402/196 200/410/204 201/411/205
f 288/412/203 196/413/200 289/414/206
f 195/402/196 201/411/205 202/415/207
f 289/416/206 196/417/200 290/418/208
f 195/402/196 202/415/207 203/419/209
f 195/402/196 203/419/209 204/420/210
f 290/421/208 205/422/211 291/423/212
f 195/402/196 204/420/210 206/424/213
f 195/402/196 206/424/213 207/425/214
f 205/426/211 292/427/215 291/428/212
f 205/429/211 281/430/199 292/431/215
f 195/402/196 208/432/216 197/403/197
f 278/433/217 287/434/218 286/435/219
f 278/433/217 210/436/220 209/437/221
f 277/438/222 211/439/223 210/436/220
f 276/440/224 212/441/225 211/442/223
f 273/443/226 213/444/227 274/445/228
f 272/446/229 278/433/217 286/435/219
f 272/446/229 277/438/222 278/433/217
f 271/447/230 276/448/231 277/438/222
f 268/449/232 276/448/231 271/447/230
f 267/450/233 273/443/226 274/445/228
f 270/451/234 272/446/229 285/452/235
f 270/451/234 271/447/230 272/446/229
f 269/453/236 268/454/232 271/455/230
f 284/456/237 270/457/234 285/458/235
f 264/459/238 269/453/236 265/460/239
f 264/459/238 268/454/232 269/453/236
f 263/461/240 266/462/241 267/463/233
f 262/464/242 284/456/237 283/465/243
f 262/464/242 264/459/238 265/460/239
f 256/466/244 264/459/238 261/467/245
f 259/468/246 263/461/240 260/469/247
f 258/470/248 262/471/242 283/472/243
f 257/473/249 261/474/245 262/471/242
f 256/475/244 261/474/245 251/476/250
f 255/477/251 259/478/246 260/479/247
f 252/480/252 258/470/248 253/481/253
f 251/476/250 257/473/249 252/480/252
f 249/482/254 255/477/251 250/483/255
f 248/484/256 252/485/252 253/486/253
f 246/487/257 252/488/252 247/489/258
f 246/487/257 245/490/259 251/491/250
f 244/492/260 249/493/254 250/494/255
f 241/495/261 248/496/256 242/497/262
f 241/498/261 246/499/257 247/500/258
f 240/501/263 246/487/257 241/502/261
f 239/503/264 243/504/265 244/505/260
f 236/506/266 242/507/262 237/508/267
f 235/509/268 241/510/261 236/506/266
f 234/511/269 238/512/270 239/513/264
f 232/514/271 236/515/266 237/516/267
f 231/517/272 235/518/268 236/515/266
f 230/519/273 234/511/269 227/520/274
f 229/521/275 231/517/272 232/514/271
f 228/522/276 231/517/272 229/521/275
f 225/523/277 229/524/275 226/525/278
f 225/523/277 228/526/276 229/527/275
f 224/528/279 223/529/280 227/530/274
f 222/531/281 226/525/278 218/532/282
f 222/531/281 225/523/277 226/525/278
f 216/533/283 225/523/277 222/531/281
f 221/534/284 225/523/277 216/533/283
f 219/535/285 224/536/279 220/537/286
f 217/538/287 222/531/281 218/532/282
f 217/539/287 216/540/283 222/541/281
f 215/542/288 219/535/285 220/537/286
f 209/543/221 217/539/287 218/544/282
f 211/442/223 217/539/287 210/545/220
f 212/441/225 216/540/283 211/442/223
f 213/546/227 214/547/289 215/548/288
f 281/549/199 214/547/289 273/550/226
f 197/551/197 218/544/282 198/552/198
f 198/553/198 226/525/278 199/554/290
f 226/525/278 200/555/291 199/554/290
f 200/556/291 232/514/271 201/557/292
f 237/508/267 202/558/293 201/559/292
f 248/496/256 203/560/294 202/561/293
f 203/562/294 258/470/248 204/563/210
f 258/470/248 206/564/213 204/563/210
f 206/565/213 284/456/237 207/566/214
f 284/456/237 195/567/196 207/566/214
f 195/568/196 272/446/229 208/569/216
f 208/570/216 287/571/218 197/551/197
f 224/536/279 228/526/276 221/534/284
f 231/517/272 234/572/269 235/518/268
f 234/511/269 240/573/263 235/509/268
f 240/501/263 244/505/260 245/490/259
f 245/574/259 255/477/251 256/475/244
f 260/469/247 264/459/238 256/466/244
f 263/461/240 268/454/232 264/459/238
f 267/450/233 275/575/295 268/449/232
f 274/576/228 212/441/225 275/577/295
f 292/578/215 281/579/199 266/580/241
f 291/581/212 266/462/241 259/468/246
f 291/582/212 259/478/246 254/583/296
f 249/482/254 291/582/212 254/583/296
f 289/584/206 249/585/254 238/586/270
f 280/587/297 289/588/206 238/589/270
f 288/590/203 280/591/297 230/592/273
f 223/529/280 288/593/203 230/594/273
f 279/595/201 223/596/280 219/535/285
f 290/597/208 196/598/200 205/599/211
f 205/600/211 196/406/200 281/405/199
f 278/433/217 209/437/221 287/434/218
f 278/433/217 277/438/222 210/436/220
f 277/601/222 276/440/224 211/442/223
f 276/440/224 275/577/295 212/441/225
f 273/550/226 214/547/289 213/546/227
f 272/446/229 271/447/230 277/438/222
f 268/449/232 275/575/295 276/448/231
f 267/602/233 266/603/241 273/604/226
f 270/451/234 269/605/236 271/447/230
f 284/456/237 265/460/239 270/457/234
f 265/460/239 269/453/236 270/457/234
f 263/461/240 259/468/246 266/462/241
f 262/606/242 265/607/239 284/608/237
f 262/464/242 261/467/245 264/459/238
f 258/470/248 257/473/249 262/471/242
f 257/473/249 251/476/250 261/474/245
f 255/477/251 254/583/296 259/478/246
f 252/480/252 257/473/249 258/470/248
f 245/574/259 256/475/244 251/476/250
f 249/482/254 254/583/296 255/477/251
f 248/609/256 247/489/258 252/488/252
f 246/487/257 251/491/250 252/488/252
f 244/505/260 243/504/265 249/610/254
f 282/611/298 242/497/262 248/496/256
f 241/498/261 247/500/258 248/612/256
f 240/501/263 245/490/259 246/487/257
f 239/513/264 238/512/270 243/613/265
f 237/508/267 242/507/262 282/614/298
f 236/506/266 241/510/261 242/507/262
f 235/509/268 240/573/263 241/510/261
f 234/615/269 233/616/299 238/617/270
f 232/514/271 231/517/272 236/515/266
f 230/594/273 233/618/299 234/619/269
f 223/529/280 230/594/273 227/530/274
f 225/523/277 221/534/284 228/526/276
f 224/528/279 227/530/274 228/522/276
f 219/535/285 223/596/280 224/536/279
f 215/548/288 221/620/284 216/540/283
f 215/542/288 214/621/289 219/535/285
f 287/571/218 209/543/221 218/544/282
f 209/543/221 210/545/220 217/539/287
f 211/442/223 216/540/283 217/539/287
f 212/441/225 215/548/288 216/540/283
f 281/549/199 279/622/201 214/547/289
f 266/580/241 281/579/199 273/623/226
f 238/624/270 249/610/254 243/504/265
f 233/625/299 280/587/297 238/589/270
f 230/592/273 280/591/297 233/626/299
f 214/547/289 279/622/201 219/627/285
f 197/551/197 287/571/218 218/544/282
f 198/553/198 218/532/282 226/525/278
f 226/525/278 229/524/275 200/555/291
f 200/556/291 229/521/275 232/514/271
f 201/557/292 232/514/271 237/516/267
f 237/508/267 282/614/298 202/558/293
f 282/611/298 248/496/256 202/561/293
f 248/496/256 253/628/253 203/560/294
f 203/562/294 253/481/253 258/470/248
f 258/470/248 283/472/243 206/564/213
f 206/565/213 283/465/243 284/456/237
f 284/456/237 285/458/235 195/567/196
f 195/568/196 285/452/235 272/446/229
f 272/446/229 286/435/219 208/569/216
f 208/569/216 286/435/219 287/434/218
f 212/441/225 213/546/227 215/548/288
f 215/542/288 220/537/286 221/534/284
f 220/537/286 224/536/279 221/534/284
f 228/522/276 227/530/274 231/517/272
f 231/629/272 227/520/274 234/511/269
f 234/511/269 239/513/264 240/573/263
f 240/501/263 239/503/264 244/505/260
f 244/492/260 250/494/255 245/630/259
f 245/574/259 250/483/255 255/477/251
f 256/475/244 255/477/251 260/479/247
f 260/469/247 263/461/240 264/459/238
f 263/461/240 267/463/233 268/454/232
f 267/450/233 274/445/228 275/575/295
f 274/445/228 213/444/227 212/631/225
f 291/581/212 292/632/215 266/462/241
f 249/610/254 290/633/208 291/634/212
f 289/635/206 290/633/208 249/610/254
f 288/636/203 289/637/206 280/638/297
f 279/595/201 288/639/203 223/596/280
g Stalagmites_Medium_1_LOD_2_Mesh
v -0.506511 0.000963 -0.179658
v -0.025900 4.490781 0.017645
v 0.330212 0.008342 -0.487337
v 0.593713 0.000390 -0.108023
v 0.441985 0.001237 0.498574
v -0.387553 0.001425 0.433213
v -0.287277 0.010381 -0.447783
v -0.050000 0.033067 -0.562339
v -0.092614 1.233364 -0.355545
v -0.057212 2.870417 -0.308067
v -0.037335 4.440351 -0.106795
v 0.217446 2.722922 -0.256311
v 0.294604 1.166046 -0.319028
v 0.119959 4.324523 0.025838
v 0.454257 0.560474 -0.183390
v 0.261997 2.811526 0.078184
v 0.497052 0.453520 0.057662
v 0.016291 4.333049 0.127442
v 0.124873 2.875623 0.207225
v 0.350493 0.521474 0.348167
v -0.086563 2.736410 0.297040
v -0.140935 1.405852 0.398362
v -0.160280 0.386294 0.452425
v -0.130869 4.372158 0.009160
v -0.219001 2.701025 0.191448
v -0.392100 0.525344 0.267791
v -0.252132 2.752583 -0.103177
v -0.443427 0.575596 -0.002039
v -0.280735 1.355781 -0.239254
v 0.079327 4.334033 -0.084879
vn -0.7777 -0.5901 -0.2168
vn -0.1140 -0.5236 -0.8443
vn 0.4370 -0.5717 -0.6944
vn -0.1411 0.6519 -0.7451
vn -0.0162 0.9697 0.2438
vn 0.6946 0.3450 -0.6312
vn -0.0000 -1.0000 -0.0077
vn 0.9095 0.3614 0.2053
vn -0.0005 -1.0000 0.0011
vn 0.0985 0.3387 0.9357
vn -0.5623 -0.5520 0.6158
vn -0.4278 -0.6673 -0.6097
vn -0.2007 0.1122 -0.9732
vn -0.9473 0.0739 -0.3118
vn -0.7276 0.0944 -0.6794
vn -0.2944 0.0958 -0.9509
vn -0.9937 0.1083 0.0285
vn -0.8537 0.1009 0.5110
vn -0.9271 0.3414 0.1546
vn -0.8692 0.0948 0.4853
vn -0.2364 0.0852 0.9679
vn -0.2066 0.1289 0.9699
vn -0.1660 0.0973 0.9813
vn 0.5354 0.0872 0.8401
vn 0.6024 0.1895 0.7754
vn 0.9463 0.1089 0.3043
vn 0.9290 0.1275 -0.3475
vn 0.9728 0.1677 0.1599
vn 0.7171 0.1012 -0.6895
vn 0.4993 0.0951 -0.8612
vn 0.9725 0.1515 -0.1767
vn 0.5824 0.2159 0.7837
vt 0.996087 0.892531
vt 0.912702 0.992419
vt 0.842563 0.987668
vt 0.634714 0.798188
vt 0.650435 0.796330
vt 0.636560 0.819108
vt 0.786003 0.922348
vt 0.649366 0.822300
vt 0.798084 0.811328
vt 0.662909 0.815818
vt 0.674087 0.795769
vt 0.670499 0.819227
vt 0.946366 0.794889
vt 0.958350 0.968366
vt 0.660999 0.778119
vt 0.654575 0.551858
vt 0.697456 0.707855
vt 0.596592 0.242475
vt 0.609177 0.538152
vt 0.595322 0.003310
vt 0.625177 0.230192
vt 0.591631 0.786437
vt 0.165288 0.339236
vt 0.197545 0.522666
vt 0.157740 0.767645
vt 0.119909 0.769802
vt 0.138700 0.034638
vt 0.118199 0.350233
vt 0.230799 0.603911
vt 0.275274 0.780620
vt 0.217727 0.809104
vt 0.262824 0.048993
vt 0.272233 0.345586
vt 0.238931 0.340933
vt 0.779458 0.198956
vt 0.798059 0.003310
vt 0.796883 0.246865
vt 0.733801 0.315461
vt 0.769046 0.532189
vt 0.704819 0.645659
vt 0.553636 0.255553
vt 0.568780 0.008362
vt 0.570124 0.270342
vt 0.501548 0.316153
vt 0.514444 0.359040
vt 0.507115 0.764953
vt 0.367742 0.759239
vt 0.409098 0.365285
vt 0.407407 0.526663
vt 0.458503 0.237118
vt 0.505158 0.015700
vt 0.490062 0.284818
vt 0.335176 0.637241
vt 0.305363 0.864604
vt 0.364250 0.326994
vt 0.040555 0.878465
vt 0.089646 0.651224
vt 0.101168 0.880314
vt 0.011598 0.327317
vt 0.036356 0.657783
vt 0.011054 0.008953
vt 0.071877 0.364574
vt 0.391556 0.871954
vt 0.428602 0.868225
vt 0.454020 0.773776
vt 0.513730 0.872724
vt 0.857424 0.690468
vt 0.869788 0.762315
vt 0.810984 0.766003
vt 0.116558 0.882440
vt 0.188221 0.879933
vt 0.279281 0.003339
vt 0.281808 0.035681
vt 0.814080 0.495891
vt 0.814097 0.281782
vt 0.832508 0.346387
vt 0.804679 0.122182
vt 0.846000 0.081673
vt 0.839224 0.220658
vt 0.764605 0.370547
vt 0.517773 0.101502
vt 0.509009 0.241692
vt 0.390720 0.011982
vt 0.404823 0.010415
vt 0.363450 0.099976
vt 0.406705 0.751626
vt 0.782228 0.673641
vt 0.245991 0.881604
vt 0.131669 0.004043
vt 0.143744 0.003310
s 1
usemtl Material.011
f 293/640/300 300/641/301 295/642/302
f 303/643/303 294/644/304 322/645/305
f 293/640/300 295/642/302 296/646/306
f 294/644/304 306/647/307 322/645/305
f 293/640/300 296/646/306 297/648/308
f 306/649/307 294/650/304 310/651/309
f 293/640/300 297/648/308 298/652/310
f 293/640/300 299/653/311 300/641/301
f 299/654/311 301/655/312 300/656/301
f 319/657/313 301/655/312 321/658/314
f 319/657/313 303/659/303 302/660/315
f 293/661/300 321/658/314 299/654/311
f 319/662/313 321/663/314 320/664/316
f 318/665/317 319/662/313 320/664/316
f 316/666/318 319/662/313 317/667/319
f 314/668/320 318/669/317 315/670/321
f 310/671/309 317/672/319 313/673/322
f 311/674/323 310/675/309 313/676/322
f 311/677/323 314/678/320 312/679/324
f 308/680/325 310/681/309 311/682/323
f 308/683/325 311/684/323 312/685/324
f 307/686/326 308/687/325 309/688/327
f 304/689/328 306/690/307 308/691/325
f 305/692/329 307/686/326 295/693/302
f 304/694/328 307/686/326 305/692/329
f 300/695/301 305/696/329 295/697/302
f 302/698/315 305/696/329 301/699/312
f 302/698/315 303/700/303 304/701/328
f 295/693/302 307/686/326 296/702/330
f 296/703/330 309/704/327 297/705/331
f 315/706/321 298/707/310 297/708/331
f 298/709/310 320/664/316 293/710/300
f 310/671/309 294/711/304 316/712/318
f 299/654/311 321/658/314 301/655/312
f 319/657/313 302/660/315 301/655/312
f 319/713/313 316/714/318 303/715/303
f 320/664/316 321/663/314 293/710/300
f 318/665/317 317/667/319 319/662/313
f 318/669/317 314/668/320 317/672/319
f 313/673/322 317/672/319 314/668/320
f 310/671/309 316/712/318 317/672/319
f 312/716/324 314/717/320 315/718/321
f 311/677/323 313/719/322 314/678/320
f 309/704/327 308/683/325 312/685/324
f 306/690/307 310/720/309 308/721/325
f 307/686/326 304/694/328 308/687/325
f 322/722/305 306/723/307 304/694/328
f 304/694/328 303/724/303 322/722/305
f 300/695/301 301/699/312 305/696/329
f 302/698/315 304/701/328 305/696/329
f 307/686/326 309/725/327 296/702/330
f 297/705/331 309/704/327 312/685/324
f 312/726/324 315/706/321 297/708/331
f 298/727/310 315/670/321 318/669/317
f 298/709/310 318/665/317 320/664/316
f 294/728/304 303/729/303 316/666/318
