# Blender 4.4.1
# www.blender.org
mtllib Stalagmites_Large_1.mtl
g Stalagmite_Large_1_LOD_0_Mesh
v -0.180753 -0.000000 -0.096412
v 0.003173 5.632875 0.002746
v -0.002083 -0.000000 -0.963648
v 0.003466 5.632875 -0.018063
v 0.446602 -0.000000 -0.870350
v 0.010837 5.632875 -0.019632
v 0.678540 -0.000000 -0.681725
v 0.018931 5.632875 -0.011657
v 0.887194 -0.000000 -0.369452
v 0.023671 5.632875 -0.004562
v 0.960463 -0.000000 -0.001101
v 0.025336 5.632875 0.003807
v 0.887194 0.000000 0.367249
v 0.023671 5.632875 0.012176
v 0.742585 0.000000 0.742657
v 0.022141 5.632875 0.022172
v 0.366267 0.000000 0.888176
v 0.011836 5.632875 0.024012
v -0.002083 0.000000 0.961445
v 0.003466 5.632875 0.025677
v -0.370434 0.000000 0.888176
v -0.004903 5.632875 0.024012
v -0.682707 0.000000 0.679522
v -0.011998 5.632875 0.019271
v -0.891361 0.000000 0.367249
v -0.016739 5.632875 0.012176
v -0.964630 -0.000000 -0.001101
v -0.018403 5.632875 0.003807
v -0.891361 -0.000000 -0.369452
v -0.016739 5.632875 -0.004562
v -0.682707 -0.000000 -0.681725
v -0.011998 5.632875 -0.011657
v -0.370434 -0.000000 -0.890379
v -0.004903 5.632875 -0.016398
v -0.006462 0.837149 -0.917165
v -0.006116 1.457738 -0.811557
v -0.002738 2.338326 -0.757679
v 0.001119 3.240959 -0.673450
v 0.003790 4.007030 -0.521981
v 0.006643 4.955780 -0.366419
v 0.110160 4.955780 -0.347944
v 0.202380 4.007029 -0.482912
v 0.299678 3.240958 -0.621797
v 0.305916 2.338326 -0.639060
v 0.385140 1.457737 -0.755559
v 0.434215 0.837149 -0.771163
v 0.268897 4.955780 -0.257710
v 0.377824 4.007029 -0.368726
v 0.437555 3.240958 -0.438478
v 0.500616 2.338326 -0.503841
v 0.539457 1.457738 -0.594959
v 0.594866 0.837149 -0.593541
v 0.287655 4.955780 -0.139081
v 0.405848 4.007029 -0.187746
v 0.581234 3.240958 -0.238611
v 0.655937 2.338326 -0.269682
v 0.777078 1.457738 -0.261937
v 0.851091 0.837149 -0.351762
v 0.376800 4.955780 0.003794
v 0.506391 4.007029 0.004275
v 0.646185 3.240958 -0.024548
v 0.733803 2.338326 -0.024780
v 0.838971 1.457738 0.003787
v 0.921143 0.837149 0.000395
v 0.350121 4.955780 0.150358
v 0.473041 4.007029 0.180448
v 0.591962 3.240958 0.232476
v 0.671720 2.338326 0.263034
v 0.774355 1.457738 0.323522
v 0.844922 0.837149 0.346474
v 0.244446 4.955780 0.244162
v 0.354631 4.007029 0.349422
v 0.469293 3.240958 0.465278
v 0.549208 2.338326 0.544829
v 0.601222 1.457738 0.602301
v 0.720629 0.837149 0.718876
v 0.149564 4.955780 0.350914
v 0.183732 4.007029 0.469700
v 0.234502 3.240958 0.589751
v 0.267212 2.338326 0.673614
v 0.300500 1.457738 0.721888
v 0.348679 0.837149 0.854140
v 0.003299 4.955808 0.377290
v 0.007096 4.007057 0.505068
v -0.019976 3.240958 0.642894
v -0.016666 2.338326 0.729495
v 0.006296 1.457738 0.863207
v -0.000360 0.837149 0.857012
v -0.139488 4.954515 0.347908
v -0.187314 4.005765 0.462292
v -0.231609 3.240958 0.576851
v -0.339787 2.338326 0.654590
v -0.319828 1.457738 0.788986
v -0.351050 0.837039 0.854631
v -0.260544 4.970410 0.280190
v -0.348871 4.021660 0.367586
v -0.443410 3.240985 0.440339
v -0.430857 2.338326 0.502581
v -0.608411 1.457359 0.603860
v -0.649222 0.842779 0.649897
v -0.341616 4.954515 0.145781
v -0.457181 4.005765 0.192597
v -0.626154 3.240958 0.266613
v -0.656507 2.337897 0.269876
v -0.788031 1.471072 0.326159
v -0.843505 0.760457 0.354578
v -0.370036 4.955808 0.003932
v -0.495148 4.007057 0.002781
v -0.677341 3.240798 0.002926
v -0.707089 2.346139 0.000261
v -0.858743 1.357379 -0.003058
v -0.912994 0.942760 0.000061
v -0.341610 4.955780 -0.139017
v -0.457009 4.007029 -0.188139
v -0.593209 3.240958 -0.256667
v -0.626749 2.338006 -0.271943
v -0.729245 1.465710 -0.303188
v -0.848729 0.829066 -0.351266
v -0.260692 4.955780 -0.260282
v -0.347906 4.007029 -0.347583
v -0.478343 3.240958 -0.476653
v -0.504796 2.338326 -0.502802
v -0.558405 1.457578 -0.556565
v -0.653238 0.837308 -0.653533
v -0.138511 4.955780 -0.338924
v -0.199718 4.007029 -0.483829
v -0.256446 3.240958 -0.625825
v -0.269456 2.338326 -0.648040
v -0.325705 1.457737 -0.774682
v -0.350965 0.837149 -0.769484
v 0.009087 5.359908 -0.258469
v 0.038081 5.359908 -0.254821
v 0.195494 5.359908 -0.181257
v 0.246848 5.359908 -0.097087
v 0.266946 5.359908 0.003718
v 0.250911 5.359908 0.108709
v 0.143723 5.359908 0.142010
v 0.108239 5.359908 0.251380
v 0.003382 5.359908 0.267281
v -0.097394 5.359962 0.247351
v -0.182910 5.358615 0.189095
v -0.240034 5.359962 0.104712
v -0.260096 5.343722 0.003804
v -0.240034 5.359908 -0.097057
v -0.182901 5.359908 -0.182563
v -0.097536 5.359908 -0.239775
v 0.444755 0.429061 -0.846410
v 0.656120 0.429061 -0.607578
v 0.867846 0.429061 -0.359425
v 0.939306 0.429061 0.000102
v 0.861277 0.429061 0.353107
v 0.732713 0.429061 0.731598
v 0.352926 0.429061 0.861112
v 0.000153 0.429061 0.944523
v -0.359619 0.429171 0.867549
v -0.659311 0.423590 0.662319
v -0.923207 0.497990 0.380858
v -0.995070 0.415777 0.000787
v -0.923094 0.429490 -0.384449
v -0.659225 0.429061 -0.662039
v -0.359433 0.429061 -0.867780
v -0.008022 0.429061 -0.941360
v 0.003166 3.624530 -0.554044
v 0.221132 3.624529 -0.510397
v 0.404790 3.624529 -0.395661
v 0.477301 3.624529 -0.196121
v 0.516302 3.624529 0.003361
v 0.486274 3.624529 0.186895
v 0.367356 3.624529 0.363489
v 0.191280 3.624529 0.483305
v -0.020745 3.624529 0.521118
v -0.209114 3.624584 0.526579
v -0.393915 3.623238 0.399683
v -0.511497 3.624584 0.216050
v -0.553843 3.624529 0.002778
v -0.515769 3.624529 -0.211133
v -0.391712 3.624529 -0.392668
v -0.209241 3.624529 -0.511402
v 0.003135 5.566689 -0.172599
v 0.078379 5.566689 -0.176334
v 0.128859 5.566689 -0.120522
v 0.146519 5.566689 -0.064265
v 0.160039 5.566689 0.003812
v 0.168179 5.566689 0.071418
v 0.125526 5.566689 0.136513
v 0.071954 5.566689 0.167643
v 0.003454 5.566689 0.181613
v -0.064575 5.566689 0.168073
v -0.122258 5.548858 0.129554
v -0.160800 5.548830 0.071848
v -0.174335 5.532644 0.003807
v -0.160800 5.548830 -0.064235
v -0.122258 5.548830 -0.121917
v -0.064573 5.566689 -0.160490
vn -0.0000 -1.0000 -0.0000
vn -0.0000 1.0000 -0.0000
vn 0.0634 0.9719 -0.2267
vn -0.0409 0.9790 -0.1996
vn -0.0791 0.6895 -0.7200
vn 0.2808 0.6606 -0.6963
vn 0.1786 0.9745 -0.1355
vn 0.6161 0.6941 -0.3724
vn 0.2321 0.9681 -0.0940
vn 0.6843 0.7075 -0.1768
vn 0.2529 0.9675 -0.0000
vn 0.6971 0.7085 -0.1099
vn 0.2121 0.9768 0.0289
vn 0.7234 0.6423 0.2533
vn 0.1729 0.9704 0.1684
vn 0.5713 0.5495 0.6097
vn 0.0378 0.9793 0.1988
vn 0.3790 0.7236 0.5768
vn 0.0002 0.9748 0.2232
vn 0.0018 0.6810 0.7323
vn -0.0854 0.9748 0.2061
vn -0.3476 0.6917 0.6330
vn -0.1930 0.9671 0.1660
vn -0.5897 0.6383 0.4948
vn -0.2522 0.9620 0.1044
vn -0.7083 0.6719 0.2166
vn -0.2822 0.9593 -0.0000
vn -0.7947 0.6070 -0.0000
vn -0.2522 0.9620 -0.1045
vn -0.7082 0.6718 -0.2168
vn -0.1930 0.9671 -0.1660
vn -0.5895 0.6389 -0.4942
vn -0.0850 0.9747 -0.2069
vn -0.3418 0.6912 -0.6368
vn -0.3601 0.0900 -0.9286
vn -0.0076 0.0961 -0.9953
vn -0.3851 0.1405 -0.9121
vn -0.0117 0.0860 -0.9962
vn -0.0562 0.0941 -0.9940
vn -0.3993 0.0974 -0.9116
vn -0.0113 0.1171 -0.9931
vn -0.4558 0.0927 -0.8853
vn -0.0040 0.1701 -0.9854
vn -0.3681 0.1952 -0.9091
vn 0.0029 0.1206 -0.9927
vn -0.0003 0.1938 -0.9810
vn -0.3688 0.2021 -0.9073
vn -0.4310 0.1351 -0.8922
vn -0.6580 0.0756 -0.7492
vn -0.6504 0.0855 -0.7547
vn -0.7461 0.1603 -0.6463
vn -0.7329 0.1664 -0.6597
vn -0.7245 0.0716 -0.6855
vn -0.7005 0.2088 -0.6824
vn -0.7449 0.1515 -0.6497
vn -0.8982 0.1610 -0.4092
vn -0.8898 0.0597 -0.4523
vn -0.8827 0.1541 -0.4440
vn -0.9227 0.0815 -0.3769
vn -0.9124 0.1452 -0.3826
vn -0.9089 0.1951 -0.3686
vn -0.9063 0.1972 -0.3738
vn -0.9987 0.0502 0.0038
vn -0.9848 0.1548 -0.0789
vn -0.9916 0.1289 0.0066
vn -0.9942 0.0915 -0.0573
vn -0.9117 0.1544 -0.3808
vn -0.9730 0.2308 -0.0062
vn -0.9900 0.1414 0.0005
vn -0.9622 0.1687 0.2138
vn -0.8865 0.1371 0.4419
vn -0.9212 0.1331 0.3658
vn -0.8652 0.1673 0.4727
vn -0.8857 0.1158 0.4495
vn -0.9222 0.1393 0.3608
vn -0.8984 0.2100 0.3856
vn -0.9180 0.1939 0.3460
vn -0.6780 0.0523 0.7332
vn -0.7656 0.1523 0.6250
vn -0.7145 0.0717 0.6960
vn -0.8432 0.0870 0.5305
vn -0.7033 0.1266 0.6995
vn -0.6317 0.1231 0.7653
vn -0.7687 0.0871 0.6337
vn -0.7052 0.1567 0.6915
vn -0.6906 0.1339 0.7107
vn -0.3736 0.0698 0.9250
vn -0.3665 0.0993 0.9251
vn -0.2986 0.0752 0.9514
vn -0.5729 0.1643 0.8030
vn -0.4072 0.1416 0.9023
vn -0.3475 0.1229 0.9296
vn -0.2781 0.1575 0.9476
vn -0.3348 0.1906 0.9228
vn 0.0184 0.1093 0.9938
vn 0.0127 0.1252 0.9920
vn -0.0058 0.1099 0.9939
vn 0.1134 0.0695 0.9911
vn 0.0575 0.1625 0.9850
vn -0.0061 0.0892 0.9960
vn 0.2505 0.0685 0.9657
vn 0.3574 0.1229 0.9258
vn 0.1798 0.1205 0.9763
vn 0.3377 0.2033 0.9190
vn 0.3073 0.0848 0.9478
vn 0.3749 0.1674 0.9118
vn 0.3914 0.0846 0.9163
vn -0.0131 0.1944 0.9808
vn 0.3340 0.1286 0.9337
vn 0.3317 0.0454 0.9423
vn 0.6473 0.1487 0.7476
vn 0.7012 0.1128 0.7040
vn 0.6904 0.2252 0.6875
vn 0.7056 0.0851 0.7034
vn 0.5568 0.1424 0.8183
vn 0.4725 0.2006 0.8582
vn 0.9627 0.0518 0.2655
vn 0.9395 0.1343 0.3150
vn 0.9428 0.0441 0.3305
vn 0.9544 0.1031 0.2802
vn 0.9255 0.1153 0.3607
vn 0.9450 0.1163 0.3057
vn 0.9159 0.1687 0.3642
vn 0.7785 0.2094 0.5917
vn 0.8572 0.2013 0.4740
vn 0.9196 0.0821 0.3841
vn 0.9959 0.0899 0.0079
vn 0.9988 0.0469 0.0108
vn 0.9922 0.1241 -0.0101
vn 0.9794 0.1979 -0.0403
vn 0.9926 0.1122 -0.0463
vn 0.9788 0.2031 -0.0280
vn 0.9640 0.1954 -0.1804
vn 0.9863 0.0792 -0.1448
vn 0.8668 0.1077 -0.4869
vn 0.8982 0.0753 -0.4330
vn 0.9028 0.1164 -0.4141
vn 0.8950 0.1070 -0.4330
vn 0.9482 0.1299 -0.2900
vn 0.9403 0.2262 -0.2544
vn 0.7295 0.1094 -0.6752
vn 0.7467 0.1437 -0.6494
vn 0.7250 0.0978 -0.6818
vn 0.7653 0.0832 -0.6383
vn 0.7803 0.1491 -0.6073
vn 0.8201 0.1453 -0.5535
vn 0.7535 0.1481 -0.6406
vn 0.8056 0.2047 -0.5560
vn 0.5407 0.1009 -0.8352
vn 0.4804 0.1280 -0.8677
vn 0.4724 0.0998 -0.8757
vn 0.2019 0.1476 -0.9682
vn 0.4560 0.1023 -0.8841
vn 0.3868 0.1764 -0.9051
vn 0.3728 0.1227 -0.9198
vn 0.3302 0.2096 -0.9203
vn -0.3576 0.3246 -0.8756
vn -0.0053 0.2076 -0.9782
vn -0.6660 0.3347 -0.6666
vn -0.6879 0.1945 -0.6993
vn -0.8786 0.3413 -0.3341
vn -0.9447 0.3279 0.0001
vn -0.9797 0.2007 0.0016
vn -0.6796 0.2044 0.7045
vn -0.8772 0.3460 0.3329
vn -0.3639 0.3335 0.8697
vn 0.5899 0.3478 0.7287
vn 0.6920 0.2044 0.6923
vn 0.7246 0.3477 0.5950
vn 0.9241 0.1703 -0.3420
vn 0.9464 0.3184 -0.0548
vn 0.6709 0.2842 -0.6849
vn 0.2426 0.2989 -0.9229
vn 0.0065 0.0524 -0.9986
vn 0.4262 0.0522 -0.9031
vn 0.7384 0.0908 -0.6682
vn 0.9225 0.0505 -0.3827
vn 0.9985 0.0542 0.0043
vn 0.9613 0.0570 0.2694
vn 0.9327 0.0307 0.3593
vn 0.2698 0.0591 0.9611
vn 0.3605 0.0323 0.9322
vn 0.0073 0.0479 0.9988
vn -0.3882 0.0535 0.9200
vn -0.7064 0.0676 0.7046
vn -0.9086 -0.0332 0.4163
vn -0.9973 -0.0730 -0.0006
vn -0.9789 -0.0746 -0.1904
vn -0.7850 0.0023 -0.6195
vn -0.7059 0.0710 -0.7048
vn -0.5543 0.0684 -0.8295
vn -0.3179 0.0547 -0.9465
vn 0.7803 0.2162 -0.5869
vn 0.8937 0.1607 -0.4189
vn 0.9193 0.2025 0.3375
vn -0.0469 0.1966 0.9794
vn -0.9841 0.1680 -0.0582
vn -0.3714 0.1651 -0.9137
vn -0.0215 0.3194 -0.9474
vn -0.6648 0.3486 0.6606
vn -0.0190 0.3240 0.9459
vn 0.1722 0.3807 0.9085
vn 0.6709 0.2972 0.6794
vn 0.8985 0.2809 -0.3373
vn -0.9884 0.1517 0.0004
vn -0.7744 0.2241 0.5917
vt 0.483573 0.894318
vt 0.364088 0.893502
vt 0.364623 0.831660
vt 0.645566 0.826689
vt 0.647039 0.829521
vt 0.646024 0.829460
vt 0.649087 0.850088
vt 0.659203 0.849073
vt 0.383483 0.795996
vt 0.647958 0.828294
vt 0.633201 0.868480
vt 0.642362 0.889327
vt 0.633201 0.893011
vt 0.419320 0.760159
vt 0.648448 0.827252
vt 0.634605 0.868004
vt 0.647993 0.883728
vt 0.466143 0.740764
vt 0.648502 0.826102
vt 0.635588 0.867440
vt 0.653955 0.876506
vt 0.516825 0.740764
vt 0.648112 0.825018
vt 0.636694 0.865476
vt 0.659302 0.869034
vt 0.570319 0.750020
vt 0.647707 0.823715
vt 0.637188 0.864216
vt 0.658974 0.858973
vt 0.599486 0.795996
vt 0.646294 0.823677
vt 0.651428 0.803302
vt 0.659203 0.806378
vt 0.618881 0.842820
vt 0.645144 0.823623
vt 0.642007 0.802815
vt 0.618881 0.893502
vt 0.644061 0.824014
vt 0.633201 0.805990
vt 0.599486 0.940325
vt 0.643209 0.824789
vt 0.064005 0.882619
vt 0.064005 0.860118
vt 0.073428 0.881854
vt 0.563649 0.976163
vt 0.642719 0.825831
vt 0.081019 0.877226
vt 0.516825 0.995558
vt 0.642666 0.826981
vt 0.065639 0.858650
vt 0.087711 0.870346
vt 0.466144 0.995558
vt 0.643056 0.828065
vt 0.089649 0.861040
vt 0.419320 0.976163
vt 0.643831 0.828916
vt 0.065967 0.856440
vt 0.089377 0.851944
vt 0.383483 0.940325
vt 0.644873 0.829406
vt 0.084842 0.843539
vt 0.639809 0.849833
vt 0.303194 0.741551
vt 0.352677 0.797675
vt 0.304251 0.797456
vt 0.681790 0.934608
vt 0.681790 0.838732
vt 0.725206 0.910433
vt 0.462567 0.563976
vt 0.492552 0.440988
vt 0.505652 0.559310
vt 0.454676 0.444300
vt 0.478470 0.319484
vt 0.441430 0.270195
vt 0.464494 0.215781
vt 0.470506 0.267228
vt 0.428073 0.089633
vt 0.436701 0.218644
vt 0.005765 0.828578
vt 0.048477 0.772722
vt 0.054831 0.828760
vt 0.425004 0.651190
vt 0.467729 0.647397
vt 0.581757 0.558170
vt 0.620226 0.440977
vt 0.624316 0.559848
vt 0.583233 0.324020
vt 0.582955 0.441732
vt 0.586148 0.269837
vt 0.614183 0.219068
vt 0.615515 0.269452
vt 0.587284 0.218074
vt 0.609195 0.090703
vt 0.004442 0.893901
vt 0.055064 0.946387
vt 0.004442 0.948460
vt 0.744805 0.829960
vt 0.791420 0.745883
vt 0.793182 0.829081
vt 0.750301 0.744567
vt 0.791058 0.627342
vt 0.756398 0.627302
vt 0.791382 0.505713
vt 0.682622 0.726972
vt 0.711378 0.777409
vt 0.681790 0.778403
vt 0.682992 0.599354
vt 0.708622 0.726100
vt 0.112556 0.705181
vt 0.162500 0.648115
vt 0.165410 0.703058
vt 0.115475 0.577192
vt 0.114159 0.633378
vt 0.117800 0.442517
vt 0.158525 0.560569
vt 0.153611 0.322482
vt 0.155978 0.442523
vt 0.119869 0.269626
vt 0.147210 0.217305
vt 0.149177 0.269505
vt 0.120939 0.217529
vt 0.142547 0.088733
vt 0.365973 0.628345
vt 0.416119 0.676056
vt 0.364088 0.664255
vt 0.369646 0.532210
vt 0.415072 0.604467
vt 0.412334 0.413909
vt 0.414857 0.548216
vt 0.376683 0.292599
vt 0.375305 0.414511
vt 0.383505 0.188399
vt 0.410435 0.240559
vt 0.381096 0.240133
vt 0.388490 0.059764
vt 0.409627 0.188600
vt 0.190570 0.695006
vt 0.239960 0.652600
vt 0.241886 0.689727
vt 0.192528 0.640738
vt 0.241367 0.559005
vt 0.196710 0.559626
vt 0.240972 0.441985
vt 0.208926 0.321857
vt 0.198196 0.438142
vt 0.211171 0.270252
vt 0.240523 0.219485
vt 0.240592 0.270785
vt 0.212806 0.216921
vt 0.240437 0.092778
vt 0.794517 0.438799
vt 0.839022 0.381330
vt 0.840119 0.437846
vt 0.791295 0.299529
vt 0.793639 0.383803
vt 0.797665 0.179636
vt 0.834829 0.298086
vt 0.178133 0.316638
vt 0.174295 0.437795
vt 0.879515 0.704747
vt 0.904298 0.758189
vt 0.876195 0.756692
vt 0.887207 0.575958
vt 0.903767 0.703916
vt 0.747435 0.383000
vt 0.744873 0.438877
vt 0.752904 0.179760
vt 0.746161 0.299638
vt 0.785465 0.057144
vt 0.802067 0.556358
vt 0.827113 0.505639
vt 0.827113 0.557236
vt 0.852759 0.702361
vt 0.166301 0.823347
vt 0.213154 0.768005
vt 0.215202 0.823988
vt 0.198078 0.940578
vt 0.117409 0.987598
vt 0.112556 0.941602
vt 0.250771 0.862501
vt 0.287069 0.741551
vt 0.294309 0.861207
vt 0.633395 0.322037
vt 0.672905 0.440723
vt 0.633877 0.441692
vt 0.635021 0.268044
vt 0.658917 0.217699
vt 0.664058 0.267164
vt 0.634615 0.218282
vt 0.653240 0.090698
vt 0.114105 0.768005
vt 0.112556 0.821047
vt 0.198478 0.897478
vt 0.112556 0.888669
vt 0.691678 0.417645
vt 0.728090 0.535447
vt 0.685438 0.535770
vt 0.699500 0.295690
vt 0.732926 0.417792
vt 0.707748 0.190325
vt 0.734039 0.242380
vt 0.705322 0.241224
vt 0.735920 0.063008
vt 0.735920 0.191556
vt 0.300209 0.674645
vt 0.352454 0.619045
vt 0.353900 0.674100
vt 0.299696 0.619559
vt 0.340603 0.534090
vt 0.298635 0.535295
vt 0.334341 0.414964
vt 0.293540 0.415644
vt 0.326032 0.292542
vt 0.288799 0.240542
vt 0.314076 0.188064
vt 0.315669 0.239685
vt 0.698393 0.059958
vt 0.681790 0.187157
vt 0.251879 0.619635
vt 0.251427 0.674725
vt 0.254638 0.535305
vt 0.256224 0.293355
vt 0.253814 0.415694
vt 0.263762 0.240476
vt 0.288223 0.188931
vt 0.267646 0.059939
vt 0.264050 0.188914
vt 0.519570 0.594219
vt 0.566661 0.646553
vt 0.517223 0.644932
vt 0.532284 0.513751
vt 0.567997 0.595810
vt 0.566411 0.402371
vt 0.569052 0.515473
vt 0.532003 0.399581
vt 0.568121 0.287398
vt 0.543761 0.181373
vt 0.570213 0.232996
vt 0.542799 0.232134
vt 0.633201 0.746348
vt 0.655856 0.621295
vt 0.662119 0.745604
vt 0.890411 0.370734
vt 0.938558 0.425094
vt 0.894617 0.424676
vt 0.939820 0.289644
vt 0.937290 0.373094
vt 0.889709 0.176224
vt 0.884639 0.290899
vt 0.889996 0.058657
vt 0.927551 0.174881
vt 0.519073 0.181016
vt 0.514537 0.229337
vt 0.535130 0.058424
vt 0.858218 0.370079
vt 0.851708 0.423976
vt 0.854793 0.289953
vt 0.077567 0.325627
vt 0.103142 0.446572
vt 0.072236 0.446406
vt 0.075025 0.271689
vt 0.103671 0.220258
vt 0.103587 0.272054
vt 0.076176 0.219984
vt 0.100597 0.090555
vt 0.007250 0.702230
vt 0.073531 0.650388
vt 0.068984 0.706183
vt 0.010972 0.647411
vt 0.071696 0.566743
vt 0.027663 0.444587
vt 0.019554 0.562904
vt 0.037366 0.322842
vt 0.045402 0.269752
vt 0.049218 0.218208
vt 0.076324 0.090095
vt 0.425455 0.034173
vt 0.447903 0.087593
vt 0.591994 0.034572
vt 0.589597 0.090989
vt 0.685298 0.545123
vt 0.702594 0.598690
vt 0.125363 0.034624
vt 0.122881 0.088896
vt 0.405884 0.006830
vt 0.408013 0.059871
vt 0.219311 0.090416
vt 0.239062 0.036230
vt 0.889260 0.520159
vt 0.905323 0.574832
vt 0.867622 0.574141
vt 0.634721 0.034959
vt 0.633201 0.091297
vt 0.717274 0.061244
vt 0.735238 0.006612
vt 0.708541 0.004443
vt 0.285169 0.004492
vt 0.287723 0.059965
vt 0.633201 0.621232
vt 0.648861 0.565991
vt 0.545159 0.004442
vt 0.551322 0.058681
vt 0.097214 0.034506
vt 0.062359 0.089139
vt 0.073879 0.033790
vt 0.004442 0.759907
vt 0.065582 0.763837
vt 0.103671 0.763587
vt 0.889231 0.481629
vt 0.939820 0.479898
vt 0.565191 0.700030
vt 0.514537 0.698365
vt 0.250770 0.732666
vt 0.301422 0.732666
vt 0.355203 0.731951
vt 0.618981 0.652337
vt 0.618981 0.728027
vt 0.579098 0.693022
vt 0.215645 0.879784
vt 0.164967 0.879675
vt 0.795466 0.496754
vt 0.744805 0.496754
vt 0.842823 0.495040
vt 0.239656 0.751964
vt 0.189008 0.750437
vt 0.364088 0.731155
vt 0.414764 0.731879
vt 0.164899 0.758692
vt 0.114222 0.759120
vt 0.304122 0.922577
vt 0.354651 0.864815
vt 0.354651 0.922583
vt 0.055120 0.885016
vt 0.004442 0.885016
vt 0.303194 0.855436
vt 0.353863 0.855628
vt 0.863949 0.004442
vt 0.859044 0.059071
vt 0.891250 0.007987
vt 0.923200 0.057945
vt 0.538124 0.285139
vt 0.291663 0.293323
vt 0.735140 0.296278
vt 0.668469 0.321290
vt 0.759272 0.004443
vt 0.755638 0.057424
vt 0.873373 0.808846
vt 0.905323 0.810433
vt 0.241886 0.325228
vt 0.412926 0.293130
vt 0.117008 0.323734
vt 0.802067 0.856417
vt 0.828906 0.802481
vt 0.834360 0.856417
vt 0.619312 0.323709
vt 0.443311 0.323112
vt 0.434237 0.004442
vt 0.439985 0.032663
vt 0.593951 0.006830
vt 0.605861 0.034446
vt 0.579098 0.033106
vt 0.127445 0.007271
vt 0.139217 0.032373
vt 0.112556 0.031453
vt 0.228343 0.008119
vt 0.225319 0.035962
vt 0.212532 0.033745
vt 0.875452 0.518999
vt 0.889688 0.491301
vt 0.636552 0.004657
vt 0.649001 0.034413
vt 0.802067 0.737010
vt 0.812748 0.710016
vt 0.817290 0.739730
vt 0.724786 0.639926
vt 0.735174 0.667717
vt 0.720263 0.670018
vt 0.821528 0.649468
vt 0.828500 0.618019
vt 0.835018 0.647633
vt 0.807660 0.649193
vt 0.819337 0.618141
vt 0.729988 0.547447
vt 0.734441 0.579419
vt 0.721476 0.576662
vt 0.083827 0.005417
vt 0.074469 0.004443
vt 0.070038 0.033498
vt 0.636321 0.866553
vt 0.064939 0.859549
vt 0.066000 0.857558
vt 0.065544 0.855464
vt 0.352436 0.742514
vt 0.430093 0.705991
vt 0.579098 0.643452
vt 0.793182 0.884117
vt 0.758466 0.505639
vt 0.891848 0.931763
vt 0.851708 0.754127
vt 0.745189 0.947931
vt 0.744805 0.893002
vt 0.790642 0.893002
vt 0.294309 0.942737
vt 0.633201 0.557106
vt 0.914208 0.493371
vt 0.965938 0.490514
vt 0.965996 0.544532
vt 0.661160 0.793930
vt 0.699126 0.544655
vt 0.392033 0.004442
vt 0.802067 0.793596
vt 0.735174 0.725575
vt 0.270881 0.004443
vt 0.802067 0.701131
vt 0.720263 0.631042
vt 0.303194 0.864513
vt 0.103497 0.324321
vt 0.087324 0.834654
vt 0.064005 0.785931
vt 0.087324 0.772722
vt 0.826838 0.608550
vt 0.681790 0.829847
vt 0.425004 0.005399
vt 0.603301 0.004442
vt 0.585251 0.005841
vt 0.136783 0.005058
vt 0.118802 0.004442
vt 0.237701 0.008404
vt 0.219857 0.004443
vt 0.880364 0.490514
vt 0.645984 0.004442
vt 0.241886 0.790388
vt 0.234079 0.763782
vt 0.241886 0.760849
vt 0.720263 0.734460
vt 0.729638 0.737554
vt 0.720263 0.763959
vt 0.809973 0.617958
vt 0.802067 0.617435
vt 0.720263 0.544655
vt 0.720263 0.772844
vt 0.730114 0.775013
vt 0.720263 0.802167
s 1
usemtl Material.005
f 1/1/1 3/2/1 5/3/1
f 2/4/2 6/5/3 4/6/4
f 179/7/5 6/5/3 180/8/6
f 1/1/1 5/3/1 7/9/1
f 2/4/2 8/10/7 6/5/3
f 6/11/3 181/12/8 180/13/6
f 1/1/1 7/9/1 9/14/1
f 2/4/2 10/15/9 8/10/7
f 8/16/7 182/17/10 181/12/8
f 1/1/1 9/14/1 11/18/1
f 2/4/2 12/19/11 10/15/9
f 10/20/9 183/21/12 182/17/10
f 1/1/1 11/18/1 13/22/1
f 2/4/2 14/23/13 12/19/11
f 183/21/12 14/24/13 184/25/14
f 1/1/1 13/22/1 15/26/1
f 2/4/2 16/27/15 14/23/13
f 184/25/14 16/28/15 185/29/16
f 1/1/1 15/26/1 17/30/1
f 2/4/2 18/31/17 16/27/15
f 16/27/15 186/32/18 185/33/16
f 1/1/1 17/30/1 19/34/1
f 2/4/2 20/35/19 18/31/17
f 186/32/18 20/35/19 187/36/20
f 1/1/1 19/34/1 21/37/1
f 2/4/2 22/38/21 20/35/19
f 20/35/19 188/39/22 187/36/20
f 1/1/1 21/37/1 23/40/1
f 2/4/2 24/41/23 22/38/21
f 188/42/22 24/43/23 189/44/24
f 1/1/1 23/40/1 25/45/1
f 2/4/2 26/46/25 24/41/23
f 24/43/23 190/47/26 189/44/24
f 1/1/1 25/45/1 27/48/1
f 2/4/2 28/49/27 26/46/25
f 190/47/26 28/50/27 191/51/28
f 1/1/1 27/48/1 29/52/1
f 2/4/2 30/53/29 28/49/27
f 28/50/27 192/54/30 191/51/28
f 1/1/1 29/52/1 31/55/1
f 2/4/2 32/56/31 30/53/29
f 192/54/30 32/57/31 193/58/32
f 1/1/1 31/55/1 33/59/1
f 2/4/2 34/60/33 32/56/31
f 32/57/31 194/61/34 193/58/32
f 1/1/1 33/59/1 3/2/1
f 2/4/2 4/6/4 34/60/33
f 34/60/33 179/7/5 194/62/34
f 130/63/35 162/64/36 161/65/37
f 130/66/35 36/67/38 35/68/39
f 129/69/40 37/70/41 36/71/38
f 128/72/42 38/73/43 37/70/41
f 178/74/44 39/75/45 163/76/46
f 125/77/47 39/75/45 126/78/48
f 160/79/49 130/80/35 161/81/37
f 124/82/50 129/69/40 130/83/35
f 123/84/51 128/85/42 129/86/40
f 121/87/52 128/85/42 122/88/53
f 177/89/54 126/90/48 178/91/44
f 120/92/55 125/93/47 126/90/48
f 118/94/56 160/95/49 159/96/57
f 118/97/56 123/98/51 124/99/50
f 117/100/58 122/101/53 123/98/51
f 116/102/59 121/103/52 122/101/53
f 114/104/60 177/105/54 176/106/61
f 113/107/62 120/108/55 114/104/60
f 158/109/63 118/110/56 159/111/57
f 111/112/64 118/110/56 112/113/65
f 110/114/66 117/115/58 111/112/64
f 110/114/66 115/116/67 116/117/59
f 175/118/68 114/119/60 176/120/61
f 108/121/69 113/122/62 114/119/60
f 106/123/70 158/124/63 157/125/71
f 105/126/72 112/127/65 106/123/70
f 105/126/72 110/128/66 111/129/64
f 103/130/73 110/128/66 104/131/74
f 102/132/75 175/133/68 174/134/76
f 101/135/77 108/136/69 102/132/75
f 156/137/78 106/138/79 157/139/71
f 100/140/80 105/141/72 106/138/81
f 99/142/82 104/143/74 105/141/72
f 97/144/83 104/143/74 98/145/84
f 173/146/85 102/147/75 174/148/76
f 96/149/86 101/150/77 102/147/75
f 155/151/87 100/152/80 156/153/78
f 93/154/88 100/152/80 94/155/89
f 92/156/90 99/157/82 93/154/88
f 91/158/91 98/145/84 92/159/90
f 90/160/92 173/161/85 172/162/93
f 89/163/94 96/164/86 90/160/92
f 88/165/95 155/151/87 154/166/96
f 88/165/95 93/154/88 94/155/89
f 86/167/97 93/154/88 87/168/98
f 86/167/97 91/169/91 92/156/90
f 171/170/99 90/171/92 172/172/93
f 84/173/100 89/163/94 90/160/92
f 153/174/101 88/175/95 154/176/96
f 81/177/102 88/178/95 82/179/103
f 81/180/102 86/181/97 87/182/98
f 79/183/104 86/184/97 80/185/105
f 170/186/106 84/187/100 171/188/99
f 78/189/107 83/190/108 84/187/100
f 76/191/109 153/174/101 152/192/110
f 75/193/111 82/179/103 76/194/109
f 74/195/112 81/196/102 75/197/111
f 73/198/113 80/199/105 74/195/112
f 72/200/114 170/201/106 169/202/115
f 72/200/114 77/203/116 78/204/107
f 151/205/117 76/206/118 152/207/119
f 70/208/120 75/209/111 76/206/118
f 69/210/121 74/211/112 75/209/111
f 68/212/122 73/213/113 74/211/112
f 168/214/123 72/215/114 169/216/124
f 65/217/125 72/200/114 66/218/126
f 64/219/127 151/205/117 150/220/128
f 63/221/129 70/208/120 64/219/127
f 63/221/129 68/212/122 69/210/121
f 61/222/130 68/212/122 62/223/131
f 167/224/132 66/225/126 168/214/123
f 59/226/133 66/225/126 60/227/134
f 58/228/135 150/229/128 149/230/136
f 57/231/137 64/232/127 58/228/135
f 57/231/137 62/233/131 63/234/129
f 56/235/138 61/236/130 62/233/131
f 54/237/139 167/238/132 166/239/140
f 54/240/139 59/241/133 60/242/134
f 52/243/141 149/244/136 148/245/142
f 52/243/141 57/246/137 58/247/135
f 50/248/143 57/246/137 51/249/144
f 49/250/145 56/251/138 50/248/143
f 48/252/146 166/239/140 165/253/147
f 47/254/148 54/237/139 48/252/146
f 46/255/149 148/245/142 147/256/150
f 45/257/151 52/243/141 46/255/149
f 45/257/151 50/248/143 51/249/144
f 43/258/152 50/259/143 44/260/153
f 164/261/154 48/262/146 165/263/147
f 42/264/155 47/265/148 48/262/146
f 162/266/36 46/267/149 147/268/150
f 35/269/39 45/270/151 46/267/149
f 37/271/41 45/270/151 36/272/38
f 38/273/43 44/260/153 37/271/41
f 163/274/46 42/264/155 164/261/154
f 39/275/45 41/276/156 42/264/155
f 146/277/157 40/278/158 125/77/47
f 145/279/159 125/93/47 119/280/160
f 144/281/161 119/282/160 113/107/62
f 143/283/162 113/122/62 107/284/163
f 101/135/77 143/285/162 107/286/163
f 95/287/164 142/288/165 101/150/77
f 140/289/166 95/290/164 89/163/94
f 83/291/108 140/289/166 89/163/94
f 138/292/167 83/190/108 77/293/116
f 71/294/168 138/295/167 77/203/116
f 136/296/169 71/294/168 65/217/125
f 59/226/133 136/297/169 65/298/125
f 53/299/170 135/300/171 59/241/133
f 133/301/172 53/302/170 47/254/148
f 41/276/156 133/303/172 47/265/148
f 40/304/158 132/305/173 41/276/156
f 3/306/174 147/268/150 5/307/175
f 147/268/150 7/308/176 5/307/175
f 7/309/176 149/244/136 9/310/177
f 149/230/136 11/311/178 9/312/177
f 11/313/178 151/205/117 13/314/179
f 13/314/179 152/207/119 15/315/180
f 152/316/110 17/317/181 15/318/182
f 153/174/101 19/319/183 17/320/181
f 154/166/96 21/321/184 19/322/183
f 21/321/184 156/153/78 23/323/185
f 156/137/78 25/324/186 23/325/185
f 25/326/186 158/124/63 27/327/187
f 158/109/63 29/328/188 27/329/187
f 29/330/189 160/331/49 31/332/190
f 160/79/49 33/333/191 31/334/190
f 33/335/192 162/64/36 3/336/174
f 38/273/43 164/261/154 43/258/152
f 164/337/154 49/250/145 43/338/193
f 165/339/147 55/340/194 49/250/145
f 166/239/140 61/236/130 55/341/194
f 167/224/132 67/342/195 61/222/130
f 67/342/195 169/216/124 73/213/113
f 169/202/124 79/343/104 73/198/113
f 79/183/104 171/188/99 85/344/196
f 171/345/99 91/169/91 85/346/196
f 91/347/91 173/161/85 97/348/83
f 97/144/83 174/148/76 103/349/73
f 174/134/76 109/350/197 103/130/73
f 175/118/68 115/116/67 109/351/197
f 115/352/67 177/353/54 121/354/52
f 177/89/54 127/355/198 121/87/52
f 178/74/44 38/73/43 127/356/198
f 146/277/157 179/357/5 131/358/199
f 193/359/32 146/360/157 145/279/159
f 144/361/161 193/359/32 145/279/159
f 191/362/28 144/363/161 143/283/162
f 142/364/165 191/362/28 143/283/162
f 189/365/24 142/288/165 141/366/200
f 140/367/166 189/365/24 141/366/200
f 139/368/201 188/369/22 140/289/166
f 186/370/202 139/371/201 138/292/167
f 137/372/203 186/373/18 138/374/167
f 184/375/14 137/376/203 136/377/169
f 135/378/171 184/379/14 136/380/169
f 134/381/204 183/382/12 135/378/171
f 181/383/8 134/384/204 133/385/172
f 180/386/6 133/303/172 132/305/173
f 179/387/5 132/305/173 131/388/199
f 179/7/5 4/6/4 6/5/3
f 6/11/3 8/16/7 181/12/8
f 8/16/7 10/20/9 182/17/10
f 10/20/9 12/389/11 183/21/12
f 183/21/12 12/389/11 14/24/13
f 184/25/14 14/24/13 16/28/15
f 16/27/15 18/31/17 186/32/18
f 186/32/18 18/31/17 20/35/19
f 20/35/19 22/38/21 188/39/22
f 188/39/22 22/38/21 24/41/23
f 24/43/23 26/390/25 190/47/26
f 190/47/26 26/390/25 28/50/27
f 28/50/27 30/391/29 192/54/30
f 192/54/30 30/391/29 32/57/31
f 32/57/31 34/392/33 194/61/34
f 34/60/33 4/6/4 179/7/5
f 130/63/35 35/393/39 162/64/36
f 130/83/35 129/69/40 36/71/38
f 129/69/40 128/72/42 37/70/41
f 128/72/42 127/356/198 38/73/43
f 178/74/44 126/78/48 39/75/45
f 125/77/47 40/278/158 39/75/45
f 160/394/49 124/82/50 130/83/35
f 124/395/50 123/84/51 129/86/40
f 123/84/51 122/88/53 128/85/42
f 121/87/52 127/355/198 128/85/42
f 177/89/54 120/92/55 126/90/48
f 120/92/55 119/280/160 125/93/47
f 118/97/56 124/99/50 160/396/49
f 118/97/56 117/100/58 123/98/51
f 117/100/58 116/102/59 122/101/53
f 116/102/59 115/397/67 121/103/52
f 114/104/60 120/108/55 177/105/54
f 113/107/62 119/282/160 120/108/55
f 158/109/63 112/113/65 118/110/56
f 111/112/64 117/115/58 118/110/56
f 110/114/66 116/117/59 117/115/58
f 110/114/66 109/351/197 115/116/67
f 175/118/205 108/121/69 114/119/60
f 108/121/69 107/284/163 113/122/62
f 106/123/70 112/127/65 158/124/63
f 105/126/72 111/129/64 112/127/65
f 105/126/72 104/131/74 110/128/66
f 103/130/73 109/350/197 110/128/66
f 102/132/75 108/136/69 175/133/205
f 101/135/77 107/286/163 108/136/69
f 156/137/78 100/140/80 106/138/79
f 100/140/80 99/142/82 105/141/72
f 99/142/82 98/145/206 104/143/74
f 97/144/83 103/349/73 104/143/74
f 173/146/85 96/149/86 102/147/75
f 96/149/86 95/287/164 101/150/77
f 155/151/87 94/155/89 100/152/80
f 93/154/88 99/157/82 100/152/80
f 92/159/90 98/145/206 99/142/82
f 91/347/91 97/348/83 98/398/84
f 90/160/92 96/164/86 173/161/85
f 89/163/94 95/290/164 96/164/86
f 88/165/95 94/155/89 155/151/87
f 88/165/95 87/168/98 93/154/88
f 86/167/97 92/156/90 93/154/88
f 86/167/97 85/346/196 91/169/91
f 171/399/99 84/173/100 90/160/92
f 84/173/100 83/291/108 89/163/94
f 153/400/101 82/401/103 88/402/95
f 81/180/102 87/182/98 88/403/95
f 81/404/102 80/185/105 86/184/97
f 79/183/104 85/344/196 86/184/97
f 170/186/106 78/189/107 84/187/100
f 78/189/107 77/293/116 83/190/108
f 76/405/109 82/406/103 153/407/101
f 75/193/111 81/177/102 82/179/103
f 74/195/112 80/199/105 81/196/102
f 73/198/113 79/343/104 80/199/105
f 72/200/114 78/204/107 170/201/106
f 72/200/114 71/294/168 77/203/116
f 151/205/117 70/208/120 76/206/118
f 70/208/120 69/210/121 75/209/111
f 69/210/121 68/212/122 74/211/112
f 68/212/122 67/342/195 73/213/113
f 168/214/123 66/225/126 72/215/114
f 65/217/125 71/294/168 72/200/114
f 64/219/127 70/208/120 151/205/117
f 63/221/129 69/210/121 70/208/120
f 63/221/129 62/223/131 68/212/122
f 61/222/130 67/342/195 68/212/122
f 167/224/132 60/227/134 66/225/126
f 59/226/133 65/298/125 66/225/126
f 58/228/135 64/232/127 150/229/128
f 57/231/137 63/234/129 64/232/127
f 57/231/137 56/235/138 62/233/131
f 56/235/138 55/341/194 61/236/130
f 54/240/139 60/242/134 167/408/132
f 54/240/139 53/299/170 59/241/133
f 52/243/141 58/247/135 149/244/136
f 52/243/141 51/249/144 57/246/137
f 50/248/143 56/251/138 57/246/137
f 49/250/145 55/340/194 56/251/138
f 48/252/146 54/237/139 166/239/140
f 47/254/148 53/302/170 54/237/139
f 46/255/149 52/243/141 148/245/142
f 45/257/151 51/249/144 52/243/141
f 45/270/151 44/260/153 50/259/143
f 43/338/193 49/250/145 50/248/143
f 164/261/154 42/264/155 48/262/146
f 42/264/155 41/276/156 47/265/148
f 162/266/36 35/269/39 46/267/149
f 35/269/39 36/272/38 45/270/151
f 37/271/41 44/260/153 45/270/151
f 38/273/43 43/258/152 44/260/153
f 163/274/46 39/275/45 42/264/155
f 39/275/45 40/304/158 41/276/156
f 146/277/157 131/358/199 40/278/158
f 145/279/159 146/360/157 125/93/47
f 144/281/161 145/409/159 119/282/160
f 143/283/162 144/363/161 113/122/62
f 101/135/77 142/410/165 143/285/162
f 95/287/164 141/366/200 142/288/165
f 140/367/166 141/366/200 95/287/164
f 83/291/108 139/368/201 140/289/166
f 138/292/167 139/371/201 83/190/108
f 71/411/168 137/372/203 138/374/167
f 136/377/169 137/376/203 71/412/168
f 59/226/133 135/413/171 136/297/169
f 53/414/170 134/381/204 135/378/171
f 133/385/172 134/384/204 53/415/170
f 41/276/156 132/305/173 133/303/172
f 40/304/158 131/388/199 132/305/173
f 3/306/174 162/266/36 147/268/150
f 147/256/150 148/245/142 7/309/176
f 7/309/176 148/245/142 149/244/136
f 149/230/136 150/229/128 11/311/178
f 11/313/178 150/220/128 151/205/117
f 13/314/179 151/205/117 152/207/119
f 152/192/110 153/174/101 17/320/181
f 153/174/101 154/176/96 19/319/183
f 154/166/96 155/151/87 21/321/184
f 21/321/184 155/151/87 156/153/78
f 156/137/78 157/139/71 25/324/186
f 25/326/186 157/125/71 158/124/63
f 158/109/63 159/111/57 29/328/188
f 29/330/189 159/416/57 160/331/49
f 160/79/49 161/81/37 33/333/192
f 33/335/192 161/65/37 162/64/36
f 38/273/43 163/274/46 164/261/154
f 164/261/154 165/263/147 49/417/145
f 165/253/147 166/239/140 55/341/194
f 166/239/140 167/238/132 61/236/130
f 167/224/132 168/214/123 67/342/195
f 67/418/195 168/419/123 169/420/124
f 169/202/115 170/201/106 79/343/104
f 79/183/104 170/186/106 171/188/99
f 171/170/99 172/172/93 91/421/91
f 91/347/91 172/162/93 173/161/85
f 97/144/83 173/146/85 174/148/76
f 174/134/76 175/133/68 109/350/197
f 175/118/68 176/120/61 115/116/67
f 115/422/67 176/106/61 177/105/54
f 177/89/54 178/91/44 127/355/198
f 178/74/44 163/76/46 38/73/43
f 146/277/157 194/423/34 179/357/5
f 193/359/32 194/424/34 146/360/157
f 144/361/161 192/425/30 193/359/32
f 191/362/28 192/426/30 144/363/161
f 142/364/165 190/427/26 191/362/28
f 189/365/24 190/428/26 142/288/165
f 140/367/166 188/429/22 189/365/24
f 139/368/201 187/430/20 188/369/22
f 186/370/202 187/431/20 139/371/201
f 137/432/203 185/433/16 186/434/18
f 184/435/14 185/436/16 137/437/203
f 135/378/171 183/382/12 184/379/14
f 134/381/204 182/438/10 183/382/12
f 181/439/8 182/438/10 134/381/204
f 180/440/6 181/383/8 133/385/172
f 179/441/5 180/442/6 132/443/173
g Stalagmite_Large_1_LOD_1_Mesh
v -0.891361 -0.000000 -0.369452
v 0.000459 5.637470 0.003603
v -0.002083 -0.000000 -0.963648
v 0.546167 0.000386 -0.826543
v 0.887194 -0.000000 -0.369452
v 0.960463 -0.000000 -0.001101
v 0.773582 0.000346 0.720562
v 0.092276 -0.000164 0.962773
v -0.370434 0.000000 0.888176
v -0.682707 0.000000 0.679522
v -0.891361 0.000000 0.367249
v -0.964630 -0.000000 -0.001101
v -0.682707 -0.000000 -0.681725
v -0.370434 -0.000000 -0.890379
v -0.013931 0.539205 -0.937145
v -0.006116 1.457738 -0.811557
v -0.002738 2.338326 -0.757679
v 0.001119 3.240959 -0.673450
v 0.003726 3.656126 -0.559411
v 0.053457 5.008634 -0.354930
v 0.225479 3.627359 -0.516014
v 0.299678 3.240958 -0.621797
v 0.430773 2.316497 -0.584068
v 0.385140 1.457737 -0.755559
v 0.434405 0.614348 -0.814600
v 0.225303 5.249229 -0.207311
v 0.444480 3.437950 -0.393786
v 0.601981 0.798895 -0.594136
v 0.253728 5.372667 -0.050420
v 0.405848 4.007029 -0.187746
v 0.568299 3.267685 -0.242758
v 0.777078 1.457738 -0.261937
v 0.858734 0.714429 -0.342557
v 0.376800 4.955780 0.003794
v 0.523279 3.626512 -0.012210
v 0.636879 3.262269 -0.020660
v 0.920858 0.822202 0.002378
v 0.303624 5.181363 0.141188
v 0.495436 3.654953 0.180483
v 0.575215 3.280074 0.232664
v 0.845349 0.868058 0.331530
v 0.244446 4.955780 0.244162
v 0.374142 3.625992 0.370602
v 0.469387 3.176584 0.490547
v 0.601222 1.457738 0.602301
v 0.719696 0.834648 0.717716
v 0.140365 5.179718 0.305036
v 0.182525 3.647379 0.494367
v 0.230063 3.199757 0.602932
v 0.300500 1.457738 0.721888
v 0.343720 0.771433 0.850345
v -0.052312 4.944754 0.380774
v -0.027765 3.617446 0.530138
v -0.015196 3.196699 0.637978
v 0.006296 1.457738 0.863207
v -0.000360 0.837149 0.857012
v -0.220716 3.433379 0.544820
v -0.298514 2.563292 0.623103
v -0.319828 1.457738 0.788986
v -0.358977 0.517211 0.867606
v -0.260544 4.970410 0.280190
v -0.433515 3.249233 0.440070
v -0.608411 1.457359 0.603860
v -0.663657 0.471532 0.663946
v -0.367917 4.949498 0.076749
v -0.506117 3.645816 0.212983
v -0.626154 3.240958 0.266613
v -0.656507 2.337897 0.269876
v -0.864568 0.789582 0.332936
v -0.546101 3.653679 0.002777
v -0.677341 3.240798 0.002926
v -0.707089 2.346139 0.000261
v -0.990990 0.442041 -0.031184
v -0.314467 4.984326 -0.193387
v -0.575707 3.284510 -0.238854
v -0.536088 2.374301 -0.467066
v -0.659003 1.413446 -0.459921
v -0.905301 0.486825 -0.380296
v -0.385025 3.653882 -0.387429
v -0.478343 3.240958 -0.476653
v -0.674744 0.613010 -0.643722
v -0.142556 5.257756 -0.265206
v -0.239441 3.630711 -0.507965
v -0.256446 3.240958 -0.625825
v -0.269456 2.338326 -0.648040
v -0.325705 1.457737 -0.774682
v -0.350965 0.837149 -0.769484
v 0.061751 5.561283 -0.187309
v 0.141070 5.573534 0.084866
v -0.042984 5.559724 0.191830
v -0.167648 5.535621 0.101118
v -0.190160 5.525213 -0.055431
v 0.000153 0.429061 0.944523
v -0.923207 0.497990 0.380858
v -0.359433 0.429061 -0.867780
v 0.141591 5.568708 -0.092787
v 0.087132 5.567199 0.163647
v -0.068545 5.564148 -0.165898
vn -0.6736 -0.6730 -0.3055
vn 0.0004 -1.0000 0.0007
vn 0.0001 -1.0000 -0.0005
vn -0.3635 0.6847 -0.6317
vn -0.0546 0.9985 0.0021
vn 0.2375 0.6483 -0.7234
vn 0.6476 0.7021 -0.2960
vn -0.0000 -1.0000 -0.0003
vn -0.0001 -1.0000 0.0003
vn 0.0002 -1.0000 -0.0000
vn 0.6717 0.6899 0.2701
vn 0.3991 0.6596 0.6369
vn 0.0003 -1.0000 -0.0003
vn -0.2172 0.6555 0.7233
vn -0.0003 -1.0000 0.0001
vn -0.0000 -1.0000 -0.0000
vn -0.7094 0.6074 0.3575
vn -0.7264 -0.6873 0.0062
vn -0.7817 0.5827 -0.2223
vn -0.5375 -0.6459 -0.5421
vn -0.3510 0.1064 -0.9303
vn -0.0145 0.1050 -0.9944
vn -0.3847 0.1215 -0.9150
vn -0.0067 0.0750 -0.9972
vn -0.4130 0.0925 -0.9060
vn -0.0029 0.1184 -0.9930
vn -0.4733 0.0888 -0.8764
vn 0.0002 0.1551 -0.9879
vn -0.4489 0.2986 -0.8422
vn -0.0080 0.2059 -0.9785
vn -0.4231 0.2200 -0.8790
vn -0.6595 0.1069 -0.7441
vn -0.8187 0.1543 -0.5531
vn -0.7526 0.1626 -0.6380
vn -0.7827 0.0660 -0.6188
vn -0.6931 0.1876 -0.6960
vn -0.8958 0.0788 -0.4375
vn -0.8364 0.2034 -0.5090
vn -0.9135 0.1571 -0.3753
vn -0.9925 0.0891 -0.0835
vn -0.9975 0.0598 -0.0381
vn -0.9799 0.1990 0.0123
vn -0.9081 0.1546 0.3891
vn -0.8940 0.0961 0.4376
vn -0.8603 0.1649 0.4824
vn -0.8948 0.1158 0.4311
vn -0.9668 0.2071 0.1496
vn -0.9020 0.1980 0.3838
vn -0.6756 0.0664 0.7343
vn -0.7171 0.1256 0.6855
vn -0.6270 0.1318 0.7678
vn -0.5446 0.1260 0.8292
vn -0.3747 0.0927 0.9225
vn -0.3638 0.0905 0.9271
vn -0.1151 0.1849 0.9760
vn -0.3581 0.1643 0.9191
vn 0.0054 0.1370 0.9906
vn -0.0199 0.1076 0.9940
vn -0.0584 0.1575 0.9858
vn 0.1124 0.0582 0.9920
vn 0.0376 0.1676 0.9851
vn 0.2162 0.1394 0.9663
vn 0.3661 0.1129 0.9237
vn 0.3525 0.1842 0.9175
vn 0.6406 0.1459 0.7539
vn 0.6925 0.1526 0.7051
vn 0.6857 0.1956 0.7011
vn 0.6923 0.2067 0.6914
vn 0.4911 0.2800 0.8249
vn 0.9542 0.1059 0.2797
vn 0.7941 0.3054 0.5256
vn 0.9240 0.1747 0.3401
vn 0.9961 0.0879 0.0020
vn 0.9176 0.2097 0.3378
vn 0.9693 0.1690 -0.1787
vn 0.9751 0.2035 -0.0876
vn 0.8920 0.1105 -0.4383
vn 0.8860 0.1089 -0.4508
vn 0.9785 0.2032 -0.0352
vn 0.9472 0.1294 -0.2933
vn 0.7382 0.1244 -0.6630
vn 0.6188 0.1087 -0.7780
vn 0.8073 0.2121 -0.5508
vn 0.8921 0.1830 -0.4131
vn 0.7374 0.2387 -0.6319
vn 0.4874 0.1031 -0.8671
vn 0.5038 0.1022 -0.8578
vn 0.4118 0.2129 -0.8861
vn 0.1393 0.1933 -0.9712
vn -0.6758 0.2177 0.7042
vn 0.0298 0.0528 -0.9982
vn 0.5533 0.0859 -0.8285
vn 0.9114 0.0517 -0.4082
vn 0.9988 0.0422 0.0242
vn 0.7390 0.0371 0.6727
vn 0.0966 0.0286 0.9949
vn -0.3758 0.0367 0.9260
vn -0.7066 0.0519 0.7057
vn -0.9130 -0.0283 0.4069
vn -0.5546 0.0587 -0.8300
vn -0.2996 0.0518 -0.9527
vn 0.4889 0.1493 -0.8595
vn 0.2979 0.1804 0.9374
vn -0.9833 0.1594 -0.0876
vn -0.3723 0.1597 -0.9143
vn 0.9203 0.3583 -0.1570
vn 0.6991 0.1582 0.6973
vt 0.466144 0.995558
vt 0.364088 0.893502
vt 0.371240 0.819148
vt 0.641813 0.849888
vt 0.645309 0.826628
vt 0.659203 0.849073
vt 0.635008 0.866861
vt 0.645139 0.886363
vt 0.633201 0.893011
vt 0.419320 0.760159
vt 0.466143 0.740764
vt 0.566096 0.749289
vt 0.659302 0.869034
vt 0.658974 0.858973
vt 0.614115 0.831314
vt 0.653327 0.804053
vt 0.636189 0.804913
vt 0.618881 0.893502
vt 0.599486 0.940325
vt 0.064005 0.882619
vt 0.064924 0.858667
vt 0.078505 0.878759
vt 0.563649 0.976163
vt 0.516825 0.995558
vt 0.089297 0.862729
vt 0.085686 0.845103
vt 0.419320 0.976163
vt 0.383483 0.940325
vt 0.303194 0.741551
vt 0.352612 0.782809
vt 0.304251 0.797456
vt 0.681790 0.934608
vt 0.681790 0.838732
vt 0.725206 0.910433
vt 0.462567 0.563976
vt 0.492552 0.440988
vt 0.505652 0.559310
vt 0.454676 0.444300
vt 0.478470 0.319484
vt 0.426225 0.050493
vt 0.470020 0.263068
vt 0.441360 0.269434
vt 0.005765 0.828578
vt 0.048477 0.772722
vt 0.054831 0.828760
vt 0.427800 0.681294
vt 0.467729 0.647397
vt 0.581757 0.558170
vt 0.620226 0.440977
vt 0.624316 0.559848
vt 0.583233 0.324020
vt 0.582955 0.441732
vt 0.586237 0.265787
vt 0.603265 0.051033
vt 0.615495 0.268708
vt 0.744805 0.829960
vt 0.773242 0.745301
vt 0.793182 0.859314
vt 0.691099 0.599079
vt 0.711162 0.773394
vt 0.681810 0.823591
vt 0.117800 0.442517
vt 0.158525 0.560569
vt 0.112638 0.701575
vt 0.153132 0.316058
vt 0.155978 0.442523
vt 0.119952 0.265589
vt 0.142547 0.088733
vt 0.366118 0.624539
vt 0.416079 0.672456
vt 0.364088 0.664255
vt 0.412334 0.413909
vt 0.376683 0.292599
vt 0.375305 0.414511
vt 0.398315 0.059818
vt 0.410372 0.236533
vt 0.381233 0.237193
vt 0.190793 0.688828
vt 0.240016 0.648895
vt 0.241886 0.689727
vt 0.196710 0.559626
vt 0.240972 0.441985
vt 0.208979 0.320596
vt 0.175077 0.437806
vt 0.240437 0.092778
vt 0.240588 0.267869
vt 0.791295 0.299529
vt 0.839994 0.431412
vt 0.794328 0.426943
vt 0.797665 0.179636
vt 0.834829 0.298086
vt 0.874858 0.574812
vt 0.905299 0.809156
vt 0.874914 0.782581
vt 0.747435 0.383000
vt 0.744873 0.438877
vt 0.755507 0.063307
vt 0.746161 0.299638
vt 0.785465 0.057144
vt 0.851686 0.755198
vt 0.166301 0.823347
vt 0.213154 0.768005
vt 0.215202 0.823988
vt 0.198078 0.940578
vt 0.117409 0.987598
vt 0.112556 0.941602
vt 0.250771 0.862501
vt 0.287069 0.741551
vt 0.294309 0.861207
vt 0.634997 0.265105
vt 0.653240 0.090698
vt 0.664164 0.268188
vt 0.198478 0.897478
vt 0.112556 0.888669
vt 0.698932 0.304551
vt 0.728090 0.535447
vt 0.685438 0.535770
vt 0.705328 0.241095
vt 0.735548 0.032238
vt 0.734150 0.239378
vt 0.299645 0.615351
vt 0.340603 0.534090
vt 0.352463 0.619373
vt 0.326636 0.301437
vt 0.703972 0.029435
vt 0.681790 0.187157
vt 0.251798 0.621627
vt 0.291579 0.287871
vt 0.267646 0.059939
vt 0.288754 0.236471
vt 0.263759 0.241088
vt 0.532284 0.513751
vt 0.567980 0.597729
vt 0.518865 0.609456
vt 0.568163 0.284595
vt 0.633201 0.746348
vt 0.655856 0.621295
vt 0.661149 0.794504
vt 0.890789 0.375709
vt 0.939820 0.289644
vt 0.937671 0.388718
vt 0.889709 0.176224
vt 0.890552 0.036193
vt 0.923068 0.054391
vt 0.542349 0.019567
vt 0.543761 0.181373
vt 0.515291 0.221301
vt 0.854793 0.289953
vt 0.854659 0.399542
vt 0.075032 0.271392
vt 0.098162 0.050211
vt 0.103543 0.297331
vt 0.008253 0.687456
vt 0.071696 0.566743
vt 0.071045 0.680888
vt 0.027663 0.444587
vt 0.019554 0.562904
vt 0.037366 0.322842
vt 0.089696 0.446500
vt 0.045711 0.265584
vt 0.068748 0.089576
vt 0.135033 0.008980
vt 0.122881 0.088896
vt 0.219311 0.090416
vt 0.234550 0.010954
vt 0.883342 0.519662
vt 0.905323 0.574832
vt 0.004442 0.759907
vt 0.078945 0.763749
vt 0.889231 0.481629
vt 0.939820 0.479898
vt 0.565191 0.700030
vt 0.514537 0.698365
vt 0.250770 0.732666
vt 0.350957 0.732007
vt 0.618981 0.652337
vt 0.618981 0.728027
vt 0.579098 0.693022
vt 0.795466 0.496754
vt 0.744805 0.496754
vt 0.842823 0.495040
vt 0.239656 0.751964
vt 0.189008 0.750437
vt 0.364088 0.731155
vt 0.414764 0.731879
vt 0.164899 0.758692
vt 0.114222 0.759120
vt 0.304122 0.922577
vt 0.354651 0.864815
vt 0.354651 0.922583
vt 0.055120 0.885016
vt 0.004442 0.885016
vt 0.303194 0.855436
vt 0.353863 0.855628
vt 0.077567 0.325627
vt 0.863949 0.004442
vt 0.859044 0.059071
vt 0.566729 0.232886
vt 0.538310 0.281661
vt 0.256283 0.290372
vt 0.315665 0.239554
vt 0.735037 0.301912
vt 0.633417 0.327585
vt 0.668682 0.327033
vt 0.759272 0.004443
vt 0.241886 0.325228
vt 0.412926 0.293130
vt 0.117008 0.323734
vt 0.802067 0.856417
vt 0.828906 0.802481
vt 0.834360 0.856417
vt 0.619312 0.323709
vt 0.443311 0.323112
vt 0.426998 0.005192
vt 0.439985 0.032663
vt 0.584468 0.009312
vt 0.601561 0.004886
vt 0.636552 0.004657
vt 0.646229 0.006877
vt 0.634030 0.060558
vt 0.802067 0.737010
vt 0.812748 0.710016
vt 0.817290 0.739730
vt 0.816364 0.649366
vt 0.828500 0.618019
vt 0.835018 0.647633
vt 0.729988 0.547447
vt 0.734689 0.578518
vt 0.721476 0.576662
vt 0.447903 0.087593
vt 0.579098 0.643452
vt 0.589597 0.090989
vt 0.784929 0.627335
vt 0.758466 0.505639
vt 0.791382 0.505713
vt 0.164984 0.695006
vt 0.891848 0.931763
vt 0.294309 0.942737
vt 0.633201 0.557106
vt 0.717274 0.061244
vt 0.286319 0.029466
vt 0.649134 0.565027
vt 0.551322 0.058681
vt 0.685298 0.545123
vt 0.699126 0.544655
vt 0.392033 0.004442
vt 0.405884 0.006830
vt 0.219262 0.006824
vt 0.802067 0.793596
vt 0.720263 0.670018
vt 0.724828 0.640039
vt 0.735174 0.725575
vt 0.270881 0.004443
vt 0.083205 0.006919
vt 0.114096 0.768321
vt 0.203192 0.879757
vt 0.303194 0.864513
vt 0.087324 0.834654
vt 0.064005 0.785931
vt 0.087324 0.772722
vt 0.806122 0.617635
vt 0.720263 0.544655
s 1
usemtl Material.006
f 195/444/207 197/445/208 198/446/209
f 292/447/210 196/448/211 282/449/212
f 196/450/211 290/451/213 282/452/212
f 195/444/207 198/446/209 199/453/214
f 195/444/207 199/453/214 200/454/215
f 195/444/207 200/454/215 201/455/216
f 290/451/213 196/450/211 283/456/217
f 283/456/217 196/450/211 291/457/218
f 195/444/207 201/455/216 202/458/219
f 291/459/218 196/448/211 284/460/220
f 195/444/207 202/458/219 203/461/221
f 195/444/207 203/461/221 204/462/222
f 284/463/220 196/464/211 285/465/223
f 195/444/207 204/462/222 205/466/222
f 195/444/207 205/466/222 206/467/224
f 285/465/223 196/464/211 286/468/225
f 286/468/225 196/464/211 292/469/210
f 195/444/207 207/470/226 208/471/222
f 195/444/207 208/471/222 197/445/208
f 281/472/227 209/473/228 289/474/229
f 281/475/227 210/476/230 209/477/228
f 280/478/231 211/479/232 210/480/230
f 279/481/233 212/482/234 211/479/232
f 276/483/235 213/484/236 277/485/237
f 275/486/238 281/487/227 289/488/229
f 275/489/238 280/478/231 281/490/227
f 271/491/239 279/492/233 280/493/231
f 274/494/240 279/492/233 270/495/241
f 273/496/242 276/497/235 277/498/237
f 272/499/243 271/500/239 275/501/238
f 268/502/244 273/503/242 269/504/245
f 266/505/246 271/506/239 267/507/247
f 266/505/246 269/508/245 270/509/241
f 264/510/248 268/511/244 269/508/245
f 263/512/249 267/513/247 288/514/250
f 263/512/249 266/515/246 267/513/247
f 261/516/251 266/515/246 262/517/252
f 259/518/253 264/519/248 260/520/254
f 258/521/255 263/522/249 288/523/250
f 257/524/256 262/525/252 263/522/249
f 256/526/257 262/525/252 252/527/258
f 256/526/257 259/528/253 260/529/254
f 253/530/259 258/531/255 254/532/260
f 252/533/258 257/534/256 253/530/259
f 246/535/261 256/536/257 251/537/262
f 250/538/263 254/532/260 287/539/264
f 250/538/263 253/530/259 254/532/260
f 248/540/265 253/530/259 249/541/266
f 248/540/265 251/542/262 252/533/258
f 247/543/267 246/535/261 251/537/262
f 245/544/268 250/545/263 287/546/264
f 244/547/269 250/548/263 245/549/268
f 244/550/269 248/551/265 249/552/266
f 242/553/270 246/554/261 247/555/267
f 239/556/271 245/549/268 240/557/272
f 238/558/273 244/559/269 239/560/271
f 237/561/274 241/562/275 242/563/270
f 235/564/276 239/565/271 240/566/272
f 235/564/276 238/567/273 239/565/271
f 232/568/277 237/561/274 233/569/278
f 231/570/279 234/571/280 235/564/276
f 228/572/281 233/573/278 229/574/282
f 226/575/283 231/576/279 227/577/284
f 226/575/283 230/578/285 231/576/279
f 224/579/286 228/580/281 229/581/282
f 222/582/287 226/583/283 227/584/284
f 217/585/288 226/583/283 222/582/287
f 221/586/289 225/587/290 217/585/288
f 220/588/291 224/589/286 221/590/289
f 218/591/292 222/582/287 219/592/293
f 218/591/292 217/585/288 222/582/287
f 215/593/294 220/594/291 221/595/289
f 209/596/228 218/597/292 219/598/293
f 211/599/232 218/597/292 210/600/230
f 212/601/234 217/602/288 211/599/232
f 213/603/236 214/604/295 215/593/294
f 286/605/225 268/511/244 259/606/253
f 255/607/296 285/608/223 259/528/253
f 284/609/220 255/610/296 246/535/261
f 197/611/297 219/598/293 198/612/298
f 198/613/298 227/584/284 199/614/299
f 227/577/284 200/615/300 199/616/299
f 200/617/300 235/564/276 201/618/301
f 240/619/272 202/620/302 201/621/301
f 287/539/264 203/622/303 202/623/302
f 203/622/303 258/531/255 204/624/304
f 258/521/255 205/625/305 204/626/304
f 205/627/305 267/513/247 206/628/224
f 267/507/247 195/629/207 206/630/224
f 195/631/207 275/632/238 207/633/226
f 275/486/238 208/634/306 207/635/226
f 208/636/307 209/473/228 197/637/297
f 212/601/234 215/593/294 216/638/308
f 215/639/294 221/586/289 216/640/308
f 229/641/282 230/578/285 225/642/290
f 229/574/282 234/571/280 230/643/285
f 234/571/280 237/644/274 238/567/273
f 237/561/274 243/645/309 238/558/273
f 243/646/309 247/555/267 248/647/265
f 247/648/267 251/542/262 248/540/265
f 256/526/257 260/529/254 261/649/251
f 260/520/254 265/650/310 261/516/251
f 264/510/248 269/508/245 265/651/310
f 269/652/245 273/653/242 274/654/240
f 273/496/242 278/655/311 274/494/240
f 277/485/237 212/482/234 278/656/311
f 276/483/235 292/657/210 282/658/212
f 286/659/225 292/660/210 276/497/235
f 291/661/218 284/662/220 241/663/275
f 283/664/217 291/665/218 241/666/275
f 223/667/312 283/668/217 232/669/277
f 290/670/213 223/671/312 220/672/291
f 281/490/227 280/478/231 210/480/230
f 280/478/231 279/481/233 211/479/232
f 279/481/233 278/656/311 212/482/234
f 276/483/235 214/673/295 213/484/236
f 275/674/238 271/491/239 280/493/231
f 271/491/239 270/495/241 279/492/233
f 274/494/240 278/655/311 279/492/233
f 273/496/242 268/675/244 276/497/235
f 270/676/241 269/677/245 274/678/240
f 267/507/247 271/506/239 272/679/243
f 266/505/246 270/509/241 271/506/239
f 266/505/246 265/651/310 269/508/245
f 264/510/248 259/606/253 268/511/244
f 263/512/249 262/517/252 266/515/246
f 261/516/251 265/650/310 266/515/246
f 258/521/255 257/524/256 263/522/249
f 257/524/256 252/527/258 262/525/252
f 256/526/257 261/649/251 262/525/252
f 256/526/257 255/607/296 259/528/253
f 253/530/259 257/534/256 258/531/255
f 251/537/262 256/536/257 252/680/258
f 246/535/261 255/610/296 256/536/257
f 250/538/263 249/541/266 253/530/259
f 248/540/265 252/533/258 253/530/259
f 244/550/269 249/552/266 250/681/263
f 244/682/269 243/646/309 248/647/265
f 242/553/270 241/663/275 246/554/261
f 239/556/271 244/547/269 245/549/268
f 238/558/273 243/645/309 244/559/269
f 237/561/274 236/683/313 241/562/275
f 235/564/276 234/571/280 238/567/273
f 232/568/277 236/683/313 237/561/274
f 231/570/279 230/643/285 234/571/280
f 228/572/281 232/684/277 233/573/278
f 226/575/283 225/642/290 230/578/285
f 224/579/286 223/685/312 228/580/281
f 217/585/288 225/587/290 226/583/283
f 221/590/289 224/589/286 229/641/282
f 220/588/291 223/686/312 224/589/286
f 216/640/308 221/586/289 217/585/288
f 215/593/294 214/604/295 220/594/291
f 209/596/228 210/600/230 218/597/292
f 211/599/232 217/602/288 218/597/292
f 212/601/234 216/638/308 217/602/288
f 276/483/235 282/658/212 214/673/295
f 286/687/225 276/688/235 268/502/244
f 259/518/253 285/689/223 286/690/225
f 284/691/220 285/608/223 255/607/296
f 241/663/275 284/662/220 246/554/261
f 236/692/313 283/664/217 241/666/275
f 232/693/277 283/694/217 236/695/313
f 228/572/281 223/696/312 232/684/277
f 214/604/295 282/697/212 220/594/291
f 197/611/297 209/596/228 219/598/293
f 219/592/293 222/582/287 198/613/298
f 198/613/298 222/582/287 227/584/284
f 227/577/284 231/576/279 200/615/300
f 200/617/300 231/570/279 235/564/276
f 201/618/301 235/564/276 240/566/272
f 240/698/272 245/544/268 202/699/302
f 245/544/268 287/546/264 202/699/302
f 287/539/264 254/532/260 203/622/303
f 203/622/303 254/532/260 258/531/255
f 258/521/255 288/523/250 205/625/305
f 205/627/305 288/514/250 267/513/247
f 267/507/247 272/679/243 195/629/207
f 195/631/207 272/700/243 275/632/238
f 275/486/238 289/488/229 208/634/307
f 208/636/307 289/474/229 209/473/228
f 212/601/234 213/603/236 215/593/294
f 221/590/289 229/641/282 225/642/290
f 229/574/282 233/573/278 234/571/280
f 234/701/280 233/702/278 237/703/274
f 237/561/274 242/563/270 243/645/309
f 243/646/309 242/553/270 247/555/267
f 260/520/254 264/519/248 265/650/310
f 273/496/242 277/498/237 278/655/311
f 277/485/237 213/484/236 212/482/234
f 223/667/312 290/704/213 283/668/217
f 282/705/212 290/670/213 220/672/291
g Stalagmite_Large_1_LOD_2_Mesh
v -0.891361 -0.000000 -0.369452
v 0.000459 5.637470 0.003603
v -0.031011 0.014124 -0.985072
v 0.546167 0.000386 -0.826543
v 0.964645 0.000226 -0.153230
v 0.773582 0.000346 0.720562
v 0.092276 -0.000164 0.962773
v -0.516244 0.000024 0.830380
v -0.950040 0.000410 0.250633
v -0.515619 0.000047 -0.833063
v 0.003617 1.794950 -0.799594
v -0.052672 3.170192 -0.684868
v 0.125543 3.678870 -0.552398
v -0.056248 5.306245 -0.296799
v 0.329864 3.121110 -0.581947
v 0.411533 0.852825 -0.803357
v 0.444480 3.437950 -0.393786
v 0.300133 5.324325 0.065173
v 0.515637 3.639632 -0.027507
v 0.650087 3.297439 -0.026440
v 0.849956 0.809976 -0.323830
v 0.909125 0.947223 0.100985
v 0.454268 3.647482 0.284957
v 0.429970 3.190196 0.529319
v 0.547900 1.592417 0.618638
v 0.687973 0.797343 0.758767
v 0.072553 5.200464 0.342303
v 0.038278 3.544699 0.562351
v 0.001946 0.840719 0.880564
v -0.226771 3.042015 0.599950
v -0.358553 0.858516 0.841129
v -0.320634 5.082871 0.173384
v -0.433515 3.249233 0.440070
v -0.687355 0.824114 0.623137
v -0.537216 3.707569 0.107333
v -0.670963 3.258260 0.160708
v -0.713451 2.394884 0.150148
v -0.892312 0.592689 0.358822
v -0.990990 0.442041 -0.031184
v -0.314467 4.984326 -0.193387
v -0.575707 3.284510 -0.238854
v -0.596576 1.728850 -0.464031
v -0.905301 0.486825 -0.380296
v -0.305550 3.660238 -0.472086
v -0.412411 3.242849 -0.550122
v -0.572149 0.717106 -0.721828
v 0.140659 5.552746 -0.173087
v 0.122799 5.580479 0.116118
v -0.107859 5.559126 0.172284
v -0.156781 5.555262 -0.126846
vn -0.6747 -0.6655 -0.3191
vn -0.0314 -0.5932 -0.8044
vn -0.0029 -0.9999 -0.0100
vn -0.6188 0.6662 -0.4162
vn -0.0282 0.9995 -0.0168
vn 0.4968 0.6405 -0.5857
vn 0.0001 -1.0000 -0.0000
vn 0.0003 -1.0000 -0.0001
vn 0.5053 0.7339 0.4540
vn 0.0003 -1.0000 -0.0004
vn -0.4503 0.6610 0.6002
vn -0.0005 -1.0000 0.0002
vn -0.7242 -0.6493 0.2323
vn -0.4109 -0.6336 -0.6555
vn -0.5713 0.1026 -0.8143
vn -0.0161 0.0912 -0.9957
vn -0.1537 0.2861 -0.9458
vn 0.2092 0.2075 -0.9556
vn -0.5093 0.2086 -0.8349
vn -0.8304 0.1466 -0.5375
vn -0.0599 0.1390 -0.9885
vn -0.6295 0.1642 -0.7595
vn -0.8838 0.0704 -0.4625
vn -0.8501 0.2126 -0.4817
vn -0.9232 0.1512 -0.3535
vn -0.9729 0.1117 0.2024
vn -0.9982 0.0496 -0.0349
vn -0.9665 0.1778 0.1853
vn -0.8994 0.0532 0.4338
vn -0.7188 0.0972 0.6884
vn -0.6564 0.1133 0.7458
vn -0.3778 0.0971 0.9208
vn -0.8460 0.2463 0.4729
vn -0.3301 0.0865 0.9400
vn 0.1836 0.2552 0.9493
vn 0.1605 0.1712 0.9721
vn 0.0345 0.1075 0.9936
vn 0.6244 0.1387 0.7687
vn 0.6409 0.1505 0.7527
vn 0.8095 0.2181 0.5451
vn 0.9875 0.1093 0.1135
vn 0.5975 0.1711 0.7834
vn 0.9439 0.2941 0.1501
vn 0.9666 0.2452 -0.0750
vn 0.8970 0.0963 -0.4314
vn 0.9781 0.1987 -0.0614
vn 0.5802 0.1288 -0.8042
vn 0.4942 0.1063 -0.8628
vn 0.7926 0.1642 -0.5872
vn 0.5888 0.0691 -0.8053
vn 0.9848 0.0209 -0.1722
vn 0.7540 0.0157 0.6567
vn 0.0436 0.0609 0.9972
vn -0.5192 0.0340 0.8540
vn -0.9550 0.1682 0.2441
vt 0.466144 0.995558
vt 0.364088 0.893502
vt 0.371240 0.819148
vt 0.641813 0.849888
vt 0.645309 0.826628
vt 0.659203 0.849073
vt 0.447643 0.748427
vt 0.566096 0.749289
vt 0.637130 0.890823
vt 0.635008 0.866861
vt 0.659180 0.865294
vt 0.614115 0.831314
vt 0.653327 0.804053
vt 0.636189 0.804913
vt 0.610962 0.912620
vt 0.547962 0.982661
vt 0.069885 0.881054
vt 0.064924 0.858667
vt 0.087636 0.854619
vt 0.398040 0.954883
vt 0.681790 0.934608
vt 0.681790 0.838732
vt 0.725206 0.910433
vt 0.427758 0.053115
vt 0.470020 0.263068
vt 0.441360 0.269434
vt 0.582154 0.519611
vt 0.620226 0.440977
vt 0.599710 0.605341
vt 0.596147 0.323909
vt 0.744805 0.829960
vt 0.773242 0.745301
vt 0.793182 0.859314
vt 0.691099 0.599079
vt 0.711162 0.773394
vt 0.681810 0.823591
vt 0.117800 0.442517
vt 0.157682 0.521477
vt 0.112638 0.701575
vt 0.153132 0.316058
vt 0.119952 0.265589
vt 0.142547 0.088733
vt 0.364770 0.650917
vt 0.392822 0.414226
vt 0.416079 0.672456
vt 0.192902 0.642783
vt 0.240972 0.441985
vt 0.241258 0.676014
vt 0.208979 0.320596
vt 0.175077 0.437806
vt 0.229538 0.091559
vt 0.240588 0.267869
vt 0.790942 0.112131
vt 0.838153 0.383897
vt 0.793230 0.380807
vt 0.874858 0.574812
vt 0.905299 0.809156
vt 0.882516 0.849548
vt 0.758383 0.018336
vt 0.746619 0.382736
vt 0.851686 0.755198
vt 0.198409 0.904881
vt 0.117409 0.987598
vt 0.112556 0.895078
vt 0.250771 0.862501
vt 0.287069 0.741551
vt 0.294309 0.929483
vt 0.693206 0.213316
vt 0.735548 0.032238
vt 0.734150 0.239378
vt 0.267895 0.619516
vt 0.340603 0.534090
vt 0.352463 0.619373
vt 0.326636 0.301437
vt 0.273695 0.016539
vt 0.288754 0.236471
vt 0.263759 0.241088
vt 0.520602 0.597063
vt 0.558894 0.283684
vt 0.567980 0.597729
vt 0.863127 0.074668
vt 0.937949 0.375889
vt 0.858344 0.372497
vt 0.890552 0.036193
vt 0.923068 0.054391
vt 0.542349 0.019567
vt 0.565689 0.230554
vt 0.515291 0.221301
vt 0.060778 0.268569
vt 0.084480 0.010610
vt 0.103543 0.297331
vt 0.037366 0.322842
vt 0.079182 0.341719
vt 0.022655 0.517662
vt 0.135033 0.008980
vt 0.122881 0.088896
vt 0.883342 0.519662
vt 0.905323 0.574832
vt 0.004539 0.758071
vt 0.071192 0.655230
vt 0.078945 0.763749
vt 0.889231 0.481629
vt 0.939820 0.479898
vt 0.250770 0.732666
vt 0.350957 0.732007
vt 0.618981 0.652337
vt 0.618981 0.728027
vt 0.579098 0.693022
vt 0.814802 0.496054
vt 0.744805 0.496754
vt 0.239656 0.751964
vt 0.189008 0.750437
vt 0.164899 0.758692
vt 0.114222 0.759120
vt 0.304122 0.922577
vt 0.354651 0.864815
vt 0.354651 0.922583
vt 0.863949 0.004442
vt 0.264262 0.289807
vt 0.315665 0.239554
vt 0.241886 0.325228
vt 0.117008 0.323734
vt 0.802067 0.856417
vt 0.828906 0.802481
vt 0.834360 0.856417
vt 0.476378 0.330460
vt 0.443311 0.323112
vt 0.426998 0.005192
vt 0.439985 0.032663
vt 0.636552 0.004657
vt 0.646229 0.006877
vt 0.636188 0.063943
vt 0.467008 0.635742
vt 0.500643 0.514067
vt 0.603688 0.267529
vt 0.589597 0.090989
vt 0.603265 0.051033
vt 0.784929 0.627335
vt 0.758466 0.505639
vt 0.791382 0.505713
vt 0.164984 0.695006
vt 0.633201 0.557106
vt 0.633417 0.327585
vt 0.652882 0.280772
vt 0.705831 0.033880
vt 0.551322 0.058681
vt 0.068748 0.089576
vt 0.685298 0.545123
vt 0.699126 0.544655
vt 0.398315 0.059818
vt 0.392033 0.004442
vt 0.405884 0.006830
vt 0.802067 0.793596
vt 0.806037 0.726976
vt 0.817290 0.739730
vt 0.545177 0.699372
vt 0.120417 0.774984
vt 0.213736 0.783902
vt 0.203192 0.879757
vt 0.381066 0.731398
vt 0.303194 0.864513
vt 0.303194 0.855436
vt 0.303410 0.752965
vt 0.353831 0.853782
vt 0.706162 0.304023
vt 0.820250 0.649005
vt 0.806122 0.617635
vt 0.828500 0.618019
s 1
usemtl Material.007
f 293/706/314 295/707/315 296/708/316
f 342/709/317 294/710/318 339/711/319
f 293/706/314 296/708/316 297/712/320
f 293/706/314 297/712/320 298/713/321
f 339/714/319 294/715/318 340/716/322
f 293/706/314 298/713/321 299/717/323
f 340/718/322 294/710/318 341/719/324
f 293/706/314 299/717/323 300/720/325
f 293/706/314 300/720/325 301/721/326
f 341/722/324 294/723/318 342/724/317
f 293/706/314 302/725/327 295/707/315
f 338/726/328 303/727/329 295/728/315
f 306/729/330 305/730/331 336/731/332
f 334/732/333 304/733/334 338/734/328
f 337/735/335 304/733/334 334/732/333
f 335/736/336 334/737/333 338/738/328
f 332/739/337 336/740/332 333/741/338
f 329/742/339 334/743/333 331/744/340
f 329/742/339 333/745/338 334/743/333
f 327/746/341 332/747/337 333/745/338
f 330/748/342 329/749/339 331/750/340
f 326/751/343 329/752/339 330/753/342
f 325/754/344 329/752/339 322/755/345
f 325/754/344 324/756/346 327/757/341
f 322/758/345 326/759/343 323/760/347
f 319/761/348 325/762/344 322/763/345
f 320/764/349 323/760/347 321/765/350
f 320/766/349 319/761/348 322/763/345
f 317/767/351 321/768/350 318/769/352
f 317/770/351 320/771/349 321/772/350
f 315/773/353 319/774/348 320/775/349
f 314/776/354 317/777/351 318/778/352
f 314/776/354 316/779/355 317/777/351
f 310/780/356 315/781/353 311/782/357
f 313/783/358 312/784/359 314/785/354
f 307/786/360 313/787/358 308/788/361
f 309/789/362 312/790/359 307/786/360
f 339/791/319 311/792/357 309/793/362
f 305/794/331 339/795/319 309/796/362
f 304/797/334 307/798/360 303/799/329
f 342/800/317 332/747/337 324/801/346
f 341/802/324 324/803/346 319/761/348
f 295/804/315 308/805/361 296/806/363
f 296/807/363 313/787/358 297/808/364
f 297/809/364 314/776/354 298/810/365
f 318/811/352 299/812/366 298/813/365
f 321/765/350 300/814/367 299/815/366
f 326/751/343 301/816/326 300/817/367
f 331/744/340 293/818/314 301/819/326
f 293/820/314 338/821/328 302/822/327
f 304/797/334 305/794/331 307/798/360
f 305/823/331 309/789/362 307/786/360
f 312/824/359 315/825/353 316/779/355
f 325/754/344 327/757/341 328/826/368
f 327/746/341 333/745/338 328/827/368
f 333/828/338 336/829/332 337/830/335
f 336/731/332 304/831/334 337/832/335
f 306/729/330 342/833/317 339/834/319
f 340/835/322 341/836/324 319/837/348
f 338/838/328 304/831/334 303/839/329
f 336/840/332 332/841/337 306/842/330
f 334/843/333 333/844/338 337/845/335
f 331/744/340 334/743/333 335/846/336
f 329/742/339 328/827/368 333/745/338
f 327/746/341 324/801/346 332/747/337
f 326/751/343 322/755/345 329/752/339
f 325/754/344 328/826/368 329/752/339
f 319/761/348 324/803/346 325/762/344
f 320/764/349 322/758/345 323/760/347
f 317/847/351 316/848/355 320/849/349
f 315/773/353 310/850/356 319/774/348
f 314/776/354 312/824/359 316/779/355
f 307/786/360 312/790/359 313/787/358
f 339/791/319 310/851/356 311/792/357
f 305/794/331 306/852/330 339/795/319
f 295/804/315 303/799/329 308/805/361
f 303/799/329 307/798/360 308/805/361
f 342/853/317 306/854/330 332/739/337
f 324/855/346 341/856/324 342/857/317
f 310/858/356 340/859/322 319/860/348
f 296/807/363 308/788/361 313/787/358
f 313/783/358 314/785/354 297/861/364
f 298/810/365 314/776/354 318/778/352
f 318/862/352 321/863/350 299/864/366
f 321/765/350 323/760/347 300/814/367
f 300/814/367 323/760/347 326/759/343
f 326/751/343 330/753/342 301/816/326
f 301/865/326 330/748/342 331/750/340
f 331/744/340 335/846/336 293/818/314
f 293/820/314 335/866/336 338/821/328
f 302/867/327 338/868/328 295/869/315
f 309/793/362 311/792/357 312/784/359
f 311/782/357 315/781/353 312/824/359
f 315/773/353 320/775/349 316/870/355
f 336/731/332 305/730/331 304/831/334
f 310/871/356 339/872/319 340/873/322
