# Blender 4.5.2 LTS
# www.blender.org
mtllib sponza_Floor.mtl
o Floor
v -6.499344 0.800946 3.385937
v -6.499344 0.800945 -2.935756
v -0.410376 0.800945 -2.935756
v 1.583520 0.800945 -2.935750
v 7.680733 0.800945 -2.935750
v 0.591614 0.800946 3.388404
v 7.680733 0.800946 3.390871
v -6.499499 2.971730 1.612077
v -4.411737 2.971735 3.396682
v -6.499499 2.971735 3.396682
v -4.411737 2.971731 -1.151961
v -4.411737 2.971730 1.612077
v -6.499499 2.971731 -1.151961
v 5.612226 2.971735 3.396682
v 5.612226 2.971730 1.612077
v 7.699946 2.971730 1.612077
v 7.699946 2.971735 3.396682
v 7.699946 2.971731 -1.151961
v 5.612226 2.971731 -1.151961
v 5.612226 2.971731 -2.936560
v 7.699946 2.971731 -2.936560
v -4.411737 2.971731 -2.936560
v -6.499499 2.971731 -2.936560
vn -0.0000 1.0000 -0.0000
vt 2.621700 5.952500
vt -1.890500 5.952500
vt -1.890500 1.267900
vt 4.099200 5.952500
vt 8.617499 5.952500
vt 3.364200 1.266100
vt 8.617499 1.264200
vt 6.718900 3.185200
vt 5.731000 3.185200
vt 6.718900 2.327400
vt 5.731000 2.327400
vt 5.731000 1.017300
vt 6.718900 1.017300
vt 0.987900 3.185200
vt 0.987900 2.327400
vt 0.000000 2.327400
vt 0.000000 3.185200
vt 0.987900 1.017300
vt 0.000000 1.017300
vt 0.000000 0.140900
vt 0.987900 0.140900
vt 5.731000 0.140900
vt 6.718900 0.140900
s 0
usemtl m19floor
f 3/1/1 2/2/1 1/3/1
f 4/4/1 3/1/1 1/3/1
f 5/5/1 4/4/1 1/3/1
f 6/6/1 5/5/1 1/3/1
f 7/7/1 5/5/1 6/6/1
f 10/8/1 9/9/1 8/10/1
f 12/11/1 11/12/1 8/10/1
f 9/9/1 12/11/1 8/10/1
f 11/12/1 13/13/1 8/10/1
f 9/9/1 14/14/1 12/11/1
f 14/14/1 15/15/1 12/11/1
f 15/15/1 14/14/1 16/16/1
f 14/14/1 17/17/1 16/16/1
f 19/18/1 15/15/1 18/19/1
f 15/15/1 16/16/1 18/19/1
f 21/20/1 20/21/1 18/19/1
f 20/21/1 19/18/1 18/19/1
f 20/21/1 22/22/1 19/18/1
f 22/22/1 11/12/1 19/18/1
f 11/12/1 22/22/1 13/13/1
f 22/22/1 23/23/1 13/13/1
