# Blender 4.5.2 LTS
# www.blender.org
mtllib sponza_FountainChains.mtl
o FountainChains
v 3.349337 1.512928 -0.689992
v 3.483509 1.922641 -0.708546
v 3.352458 1.511931 -0.708546
v 3.480393 1.923638 -0.689992
v 3.468211 1.920434 -0.699272
v 3.486241 1.925913 -0.699272
v 3.611424 1.513827 -0.699272
v 3.593395 1.508348 -0.699272
v 3.600846 1.510612 -0.708546
v 3.478789 1.923649 -0.689992
v 3.603977 1.511563 -0.689992
v 3.475658 1.922698 -0.708546
v -2.140727 1.512928 1.176664
v -2.274898 1.922641 1.195218
v -2.143842 1.511936 1.195218
v -2.271783 1.923638 1.176664
v 3.362813 1.508348 1.185944
v 3.469972 1.925913 1.185944
v 3.344784 1.513826 1.185944
v 3.488001 1.920434 1.185944
v -2.398259 1.512928 -0.689992
v -2.264087 1.922641 -0.708546
v -2.395143 1.511931 -0.708546
v -2.267203 1.923638 -0.689992
v 3.611710 1.513878 1.185944
v 3.470626 1.921691 1.185944
v 3.593649 1.508504 1.185944
v 3.488687 1.927065 1.185944
v -2.135887 1.513878 1.185944
v -2.276970 1.921691 1.185944
v -2.153947 1.508504 1.185944
v -2.258910 1.927065 1.185944
v 3.344498 1.513878 -0.699272
v 3.485581 1.921691 -0.699272
v 3.362558 1.508504 -0.699272
v 3.467526 1.927066 -0.699272
v 3.606870 1.512928 1.176664
v 3.472698 1.922641 1.195218
v 3.603754 1.511936 1.195218
v 3.475819 1.923638 1.176664
v -2.392235 1.510612 1.195218
v -2.270178 1.923649 1.176664
v -2.395361 1.511562 1.176664
v -2.267047 1.922698 1.195218
v 3.355366 1.510612 1.195218
v 3.477418 1.923649 1.176664
v 3.352235 1.511562 1.176664
v 3.480549 1.922698 1.195218
v -2.384784 1.508348 1.185944
v -2.277625 1.925913 1.185944
v -2.402813 1.513826 1.185944
v -2.259600 1.920434 1.185944
v -2.154202 1.508348 -0.699272
v -2.261361 1.925913 -0.699272
v -2.136172 1.513827 -0.699272
v -2.279390 1.920434 -0.699272
v -2.146755 1.510612 -0.708546
v -2.268807 1.923649 -0.689992
v -2.143624 1.511563 -0.689992
v -2.271939 1.922698 -0.708546
v -2.403099 1.513878 -0.699272
v -2.262015 1.921691 -0.699272
v -2.385038 1.508504 -0.699272
v -2.280076 1.927066 -0.699272
vn 0.9382 -0.2994 0.1739
vn 0.9382 -0.2994 0.1736
vn -0.0000 -0.0000 1.0000
vn -0.9423 -0.2863 0.1737
vn -0.9382 -0.2994 -0.1735
vn -0.9382 -0.2994 -0.1736
vn -0.0000 -0.0000 -1.0000
vn -0.9382 -0.2994 -0.1739
vn 0.9423 -0.2863 -0.1734
vn 0.9423 -0.2863 -0.1737
vn 0.9423 -0.2862 -0.1737
vn -0.9423 -0.2862 0.1737
vt 0.677000 0.000000
vt 0.677400 3.101200
vt 0.146700 0.000000
vt 0.147100 3.101200
vt 0.677000 3.098200
vt 0.146700 3.098200
vt 0.678900 3.101300
vt 0.148500 3.103300
s 0
usemtl m7chain
f 3/1/1 2/2/1 1/3/1
f 2/2/2 4/4/2 1/3/2
f 7/1/3 6/5/3 5/6/3
f 8/3/3 7/1/3 5/6/3
f 11/1/4 10/5/4 9/3/4
f 10/5/4 12/6/4 9/3/4
f 15/1/5 14/2/5 13/3/5
f 14/2/6 16/4/6 13/3/6
f 19/1/7 18/5/7 17/3/7
f 18/5/7 20/6/7 17/3/7
f 23/1/2 22/2/2 21/3/2
f 22/2/2 24/4/2 21/3/2
f 27/1/7 26/7/7 25/3/7
f 26/7/7 28/8/7 25/3/7
f 31/1/7 30/7/7 29/3/7
f 30/7/7 32/8/7 29/3/7
f 35/1/3 34/7/3 33/3/3
f 34/7/3 36/8/3 33/3/3
f 39/1/6 38/2/6 37/3/6
f 38/2/8 40/4/8 37/3/8
f 43/1/9 42/5/9 41/3/9
f 42/5/10 44/6/10 41/3/10
f 47/1/11 46/5/11 45/3/11
f 46/5/11 48/6/11 45/3/11
f 51/1/7 50/5/7 49/3/7
f 50/5/7 52/6/7 49/3/7
f 55/1/3 54/5/3 53/3/3
f 54/5/3 56/6/3 53/3/3
f 59/1/12 58/5/12 57/3/12
f 58/5/12 60/6/12 57/3/12
f 63/1/3 62/7/3 61/3/3
f 62/7/3 64/8/3 61/3/3
